<?xml version="1.0" encoding="UTF-8" standalone="no"?>
<!-- Created with Inkscape (http://www.inkscape.org/) -->

<svg
   xmlns:dc="http://purl.org/dc/elements/1.1/"
   xmlns:cc="http://creativecommons.org/ns#"
   xmlns:rdf="http://www.w3.org/1999/02/22-rdf-syntax-ns#"
   xmlns:svg="http://www.w3.org/2000/svg"
   xmlns="http://www.w3.org/2000/svg"
   xmlns:sodipodi="http://sodipodi.sourceforge.net/DTD/sodipodi-0.dtd"
   xmlns:inkscape="http://www.inkscape.org/namespaces/inkscape"
   width="238.67645"
   height="222.71097"
   id="svg3968"
   version="1.1"
   inkscape:version="0.48.4 r9939"
   sodipodi:docname="Peaks-Symbol.svg"
   inkscape:export-filename="C:\Users\Kay\tiroltrailhead\images\peaks-symbol.png"
   inkscape:export-xdpi="90"
   inkscape:export-ydpi="90">
  <defs
     id="defs3970" />
  <sodipodi:namedview
     id="base"
     pagecolor="#888888"
     bordercolor="#666666"
     borderopacity="1.0"
     inkscape:pageopacity="0"
     inkscape:pageshadow="2"
     inkscape:zoom="1.4683594"
     inkscape:cx="234.76647"
     inkscape:cy="103.25783"
     inkscape:document-units="px"
     inkscape:current-layer="layer1"
     showgrid="false"
     fit-margin-top="5"
     fit-margin-left="5"
     fit-margin-right="5"
     fit-margin-bottom="5"
     inkscape:window-width="1366"
     inkscape:window-height="705"
     inkscape:window-x="-4"
     inkscape:window-y="-4"
     inkscape:window-maximized="1" />
  <metadata
     id="metadata3973">
    <rdf:RDF>
      <cc:Work
         rdf:about="">
        <dc:format>image/svg+xml</dc:format>
        <dc:type
           rdf:resource="http://purl.org/dc/dcmitype/StillImage" />
        <dc:title></dc:title>
      </cc:Work>
    </rdf:RDF>
  </metadata>
  <g
     inkscape:label="Ebene 1"
     inkscape:groupmode="layer"
     id="layer1"
     transform="translate(-445.16909,-371.18837)">
    <path
       style="fill:#ffffff"
       d="m 628.76167,487.63356 c 6.57311,-2.54774 12.46995,-6.37205 15.74189,-10.20916 2.87744,-3.37446 6.68178,-6.13538 8.45407,-6.13538 1.80754,0 6.72412,4.37415 11.19798,9.96255 4.38659,5.47939 13.4615,14.26199 14.51503,14.23985 1.05354,-0.0222 -2.91404,-5.76622 -4.91376,-7.48749 -1.9997,-1.72131 -2.93063,-7.21614 -4.55898,-10.70301 -1.62835,-3.4869 -9.05175,-8.22896 -12.25791,-12.04566 -4.92889,-5.86745 -5.75244,-8.07671 -5.33126,-14.30165 0.42014,-6.20969 -0.0925,-7.59538 -3.27489,-8.85167 -3.02122,-1.19269 -3.77301,-2.90616 -3.77301,-8.59952 0,-4.89749 0.85992,-7.46219 2.76329,-8.24162 2.13794,-0.87552 2.53457,-2.63558 1.75264,-7.7776 -0.58349,-3.8371 -0.21437,-7.66989 0.87334,-9.06853 1.0362,-1.33238 5.42153,-9.74983 4.80021,-10.41288 -0.62133,-0.66305 -8.93781,9.53379 -13.5361,14.36712 -6.49281,6.82466 -8.01943,9.46801 -6.83366,11.83246 2.43742,4.8602 -3.21665,14.43835 -13.38936,22.68192 -6.11318,4.95388 -10.72602,10.674 -13.92327,17.26553 -7.1222,14.68317 -11.86011,27.07147 -4.16509,18.21079 3.42338,-3.94196 10.68512,-11.07059 20.35975,-11.07059 9.67121,0 11.114,0.43385 11.114,3.34201 0,4.10516 -3.72685,7.72759 -13.15466,12.78609 -6.56092,3.52027 -10.20084,7.19662 -5.09215,5.14309 1.16695,-0.46909 6.85129,-2.68607 12.6319,-4.92665 z"
       id="path4021"
       inkscape:connector-curvature="0"
       sodipodi:nodetypes="sssscsssssssscsssssssssss" />
    <path
       style="fill:#ffffff"
       d="m 468.13363,516.72061 c -4.59322,-3.90202 -0.40526,-10.57407 9.35552,-14.90485 6.48576,-2.87768 9.02455,-3.1588 11.60665,-1.28539 2.77129,2.01069 3.50582,1.66304 4.54824,-2.15273 0.75403,-2.7601 0.42893,-4.86603 -0.82626,-5.3521 -3.82461,-1.48113 -7.25669,-6.79298 -6.28664,-9.72987 0.52894,-1.60138 4.33683,-4.48058 8.46197,-6.39817 11.01271,-5.11931 14.57158,-12.62778 4.37498,-9.23032 -9.09295,3.02973 -12.15286,2.44833 -12.15286,-2.30905 0,-2.33906 1.32376,-6.59999 2.94165,-9.4687 4.73903,-8.4028 1.48373,-8.18375 -4.11495,0.27692 -2.81713,4.25719 -12.25926,17.11243 -20.98255,28.56727 -10.0168,13.15336 -15.48413,21.96643 -14.83899,23.91967 0.56185,1.701 1.02153,3.89078 1.02153,4.86618 0,0.97535 1.82116,2.0739 4.047,2.44117 2.22586,0.36724 4.81001,2.68647 5.74258,5.15383 1.57651,4.17097 1.98935,4.26246 5.87778,1.30246 3.78455,-2.88091 3.90096,-3.4225 1.22435,-5.69632 z"
       id="path4019"
       inkscape:connector-curvature="0" />
    <path
       style="fill:#ffffff"
       d="m 577.33445,480.88349 c -1.18815,-5.75405 -1.59786,-11.51917 -0.91045,-12.81136 0.68742,-1.29222 0.21604,-9.74528 -1.04748,-18.78459 -2.59394,-18.55693 -1.31457,-22.74919 7.08071,-23.20237 2.59936,-0.14021 -0.52405,-1.31652 -6.94086,-2.61379 -8.49824,-1.71804 -11.82635,-3.31994 -12.25369,-5.89806 -0.75178,-4.53526 27.01083,-0.31757 35.61534,1.5578 3.34446,0.72893 -8.99669,-8.09855 -8.99669,-9.18988 0,-3.05136 -4.84784,-4.49758 -15.07604,-4.49758 -5.16218,0 -10.27111,-1.02853 -11.35316,-2.28563 -2.53505,-2.9452 -9.17606,9.45345 -16.01542,17.06256 -6.62392,7.36941 -16.80025,19.18999 -12.49903,32.27468 l -6.06371,10.418 14.12922,-5.46152 c 8.32365,-3.21744 20.91998,-1.7506 17.35017,5.9465 -2.24624,4.84328 6.92401,12.79328 10.47713,17.61586 3.55308,4.8226 6.46018,9.69615 6.46018,10.83015 0,1.13396 7.77447,9.78763 8.38057,9.08347 0.60612,-0.70418 -7.14868,-14.29017 -8.33679,-20.04424 z"
       id="path4017"
       inkscape:connector-curvature="0"
       sodipodi:nodetypes="csscsssssssscsssssc" />
    <path
       style="fill:#ffffff"
       d="m 512.58943,440.90563 c 0.82629,-4.98475 -1.89029,-4.56918 -4.73585,0.72444 -2.0655,3.8425 -1.95966,4.27178 0.89568,3.63293 1.78087,-0.39846 3.50896,-2.35928 3.84017,-4.35737 z"
       id="path4015"
       inkscape:connector-curvature="0" />
    <path
       style="fill:#ffffff"
       d="m 585.47187,397.98925 c 0.40612,-0.40894 1.84425,-8.87302 0.20154,-10.98188 -1.64271,-2.10884 -2.98674,-5.40584 -2.98674,-7.32662 0,-1.92079 -0.71522,-3.49238 -1.58938,-3.49238 -1.52191,0 -14.59861,15.78056 -14.59861,17.61717 0,1.01544 17.84902,5.31566 18.97319,4.18371 z"
       id="path4001"
       inkscape:connector-curvature="0" />
    <path
       style="font-size:medium;font-style:normal;font-variant:normal;font-weight:normal;font-stretch:normal;text-indent:0;text-align:start;text-decoration:none;line-height:normal;letter-spacing:normal;word-spacing:normal;text-transform:none;direction:ltr;block-progression:tb;writing-mode:lr-tb;text-anchor:start;baseline-shift:baseline;color:#000000;fill:#ffffff;fill-opacity:1;stroke:none;stroke-width:2.11216068;marker:none;visibility:visible;display:inline;overflow:visible;enable-background:accumulate;font-family:Sans;-inkscape-font-specification:Sans"
       d="m 537.7889,456.49585 c -0.0708,0.0278 -0.14004,0.0669 -0.20652,0.11642 -4.4685,2.15205 -7.7231,4.1555 -10.01629,6.17631 -2.2932,2.02082 -3.70473,3.98252 -4.26811,6.52592 -0.2817,1.2717 -0.2801,2.68453 -0.0344,3.90388 0.24568,1.21938 0.68137,2.2552 1.23913,3.2047 1.11553,1.89902 2.70032,3.50648 4.57789,5.06923 3.75515,3.12549 8.70835,5.98629 13.0797,8.85659 4.37135,2.8703 8.18917,6.0208 9.29346,8.27393 0.45821,0.93489 0.67114,1.69044 0.72283,2.15588 0.0517,0.46545 0.007,0.66699 -0.13768,1.04882 -0.28888,0.76358 -1.34598,1.95149 -3.02898,2.85507 -3.36601,1.80713 -8.95841,2.85129 -14.86955,3.61255 -5.91114,0.76125 -12.17065,1.27052 -17.10686,2.21415 -2.46811,0.47182 -4.57458,1.0472 -6.23007,1.86455 -0.82774,0.40868 -1.56628,0.88458 -2.16848,1.51494 -0.60219,0.63038 -1.81317,2.99493 -2.13801,4.19765 -0.97544,3.61141 -1.45338,5.33637 -0.54706,8.65119 0.90631,3.31479 1.49674,6.76025 3.51452,9.3595 4.03554,5.19854 7.26749,10.19909 14.07454,13.61988 13.61412,6.84158 31.51644,12.66787 44.19522,15.48855 10.51336,2.33887 25.02169,5.85763 37.07426,8.69072 12.05258,2.83308 22.78523,5.27429 31.10866,7.37983 0.59928,0.35509 27.26072,8.56881 27.43016,7.53297 0.16945,-1.03581 -25.39316,-13.34775 -26.01498,-13.56508 -5.73082,-2.70792 -16.55824,-5.60932 -28.63764,-8.44873 -12.07941,-2.83941 -25.3692,-5.5891 -35.8659,-7.92431 -12.66335,-2.81722 -29.85903,-6.8732 -43.19741,-13.57622 -6.66919,-3.3515 -12.38068,-7.39195 -16.00542,-12.06128 -1.81238,-2.33468 -3.0937,-4.80878 -3.78623,-7.34165 -0.69252,-2.53287 -0.81654,-5.1386 -0.30978,-8.15739 -0.01,0.0579 0.0247,-0.18995 0.3442,-0.5244 0.31952,-0.33448 0.84349,-0.70052 1.54891,-1.04881 1.41084,-0.69656 3.48049,-1.28819 5.88587,-1.74801 4.81075,-0.91965 11.04807,-1.38892 17.0036,-2.15588 5.95553,-0.76697 11.61182,-1.74269 15.42027,-3.78738 1.90423,-1.02233 4.21567,-2.24485 5.06373,-4.48653 0.42403,-1.12088 0.46693,-3.32019 0.31486,-4.68957 -0.15206,-1.36938 -0.64678,-2.23957 -1.271,-3.51322 -1.89735,-3.87124 -6.38761,-6.19246 -10.81954,-9.10254 -4.43193,-2.91006 -9.37536,-5.80008 -12.90759,-8.74007 -1.76612,-1.46999 -3.18119,-2.93052 -3.95833,-4.25348 -0.38857,-0.66148 -0.59699,-1.29434 -0.6884,-1.74801 -0.0914,-0.45369 -0.10486,-0.7504 0,-1.22361 0.20965,-0.94645 1.10643,-2.61276 3.16666,-4.42831 2.06022,-1.81553 5.18881,-3.77553 9.56883,-5.88496 0.60375,-0.1831 1.05469,-1.27952 0.94655,-2.30153 -0.10816,-1.02205 -0.75585,-1.78542 -1.35959,-1.60236 z"
       id="path4083"
       inkscape:connector-curvature="0"
       sodipodi:nodetypes="ccsscssssccssssssssssscscsssssccssssssssssccscscc" />
  </g>
</svg>
