<?xml version="1.0" standalone="no"?>
<!DOCTYPE svg PUBLIC "-//W3C//DTD SVG 20010904//EN"
 "http://www.w3.org/TR/2001/REC-SVG-20010904/DTD/svg10.dtd">
<svg version="1.0" xmlns="http://www.w3.org/2000/svg"
 width="100%" height="100%" viewBox="0 0 376.000000 424.000000"
 preserveAspectRatio="xMidYMid meet">
<rect width="376.000000" height="424.000000" fill="#7f7f7f" stroke="none"/><g transform="translate(0.000000,424.000000) scale(0.100000,-0.100000)"
fill="#ffffff" stroke="none">
<path d="M1269 4020 l-1049 0 0 -1555 0 -1554 48 24 c26 13 103 40 172 60 69
20 213 65 320 100 107 35 233 73 279 85 47 12 98 28 113 36 16 8 47 33 69 55
21 21 39 45 39 52 0 6 -21 46 -48 87 -26 41 -58 100 -72 130 -13 30 -42 83
-63 117 -21 35 -44 63 -50 63 -6 0 -21 -10 -34 -22 -13 -12 -26 -18 -30 -15
-4 4 -1 13 5 19 7 7 12 20 12 30 0 10 -13 42 -29 71 -17 28 -37 72 -45 97 -8
25 -18 79 -22 120 -7 72 -8 76 -55 121 -32 31 -51 60 -60 90 -6 24 -13 103
-14 174 -1 72 -6 141 -10 155 -4 14 -18 37 -29 51 -12 14 -34 50 -48 80 -13
30 -30 86 -35 124 -6 39 -9 106 -6 151 4 52 1 89 -6 103 -7 12 -9 31 -6 41 4
11 13 20 21 20 8 0 19 11 24 24 5 13 14 27 19 31 6 3 11 15 11 26 0 16 -5 19
-20 14 -15 -5 -20 -2 -20 13 0 11 17 40 38 65 20 25 49 55 64 66 15 12 36 37
48 56 18 30 20 38 9 51 -11 14 -10 19 6 31 11 8 35 22 53 30 29 12 33 18 28
38 -4 14 -9 51 -12 83 -4 39 -3 62 5 66 6 4 11 1 11 -8 0 -8 11 -27 24 -41 17
-18 26 -22 29 -13 3 8 9 4 15 -12 l11 -25 0 26 c1 19 12 34 41 54 24 16 49 46
60 69 10 22 16 44 14 48 -3 5 -15 9 -27 9 -12 1 1 6 28 13 40 8 59 20 89 53
20 23 50 44 66 48 16 4 37 1 49 -7 17 -11 23 -9 44 10 13 12 27 22 32 22 5 0
4 -5 -3 -12 -7 -7 -12 -16 -12 -21 0 -5 6 -4 14 2 7 6 21 9 29 5 9 -3 13 -12
10 -20 -4 -10 3 -14 23 -14 15 0 36 -7 46 -17 17 -15 20 -15 41 5 13 12 28 22
34 22 6 0 24 7 39 15 16 8 45 15 65 15 19 0 43 6 54 13 14 11 29 12 62 4 31
-6 48 -6 56 2 6 6 24 11 40 11 15 0 37 5 47 10 14 7 34 5 74 -7 34 -11 57 -25
59 -35 3 -11 15 -18 29 -18 14 0 50 -21 84 -48 32 -26 67 -51 77 -55 12 -4 17
-17 17 -41 0 -25 6 -38 20 -46 11 -6 20 -19 20 -29 0 -15 11 -20 58 -26 31 -3
85 -20 120 -36 35 -16 69 -28 77 -27 7 2 27 -14 44 -36 17 -21 31 -44 31 -51
0 -7 7 -18 15 -25 7 -6 17 -33 21 -58 4 -26 17 -63 30 -82 14 -20 24 -49 24
-70 0 -20 6 -45 14 -56 8 -11 17 -38 21 -60 l6 -39 -25 30 c-14 16 -28 26 -31
23 -4 -3 -2 -15 4 -26 6 -12 11 -23 11 -27 0 -3 -10 -10 -22 -15 l-23 -9 23
-7 c12 -3 22 -9 22 -12 0 -3 -7 -14 -16 -24 -14 -15 -15 -24 -5 -60 7 -24 13
-97 14 -163 2 -107 5 -124 25 -152 12 -17 22 -39 22 -48 0 -12 -5 -15 -20 -10
-14 4 -20 2 -20 -8 0 -8 -7 -20 -15 -27 -8 -7 -15 -23 -15 -36 0 -13 -4 -24
-10 -24 -5 0 -13 7 -18 17 -6 9 -24 17 -43 18 -19 1 -42 5 -52 10 -10 4 -20 5
-23 2 -3 -3 -1 -21 4 -39 6 -18 14 -54 18 -81 4 -32 2 -52 -6 -62 -7 -8 -27
-15 -46 -15 -23 0 -37 -6 -44 -19 -5 -11 -10 -36 -10 -55 0 -20 -4 -36 -9 -36
-5 0 -12 -11 -15 -25 -4 -16 0 -35 11 -53 9 -15 28 -39 42 -54 13 -16 32 -28
41 -28 9 0 26 10 37 23 11 12 23 30 26 40 4 9 13 17 22 17 13 0 15 -7 9 -37
-4 -21 -13 -45 -20 -54 -8 -8 -14 -24 -14 -35 -1 -10 -6 -29 -13 -40 -7 -12
-27 -34 -44 -49 -28 -23 -33 -33 -33 -70 0 -37 3 -44 22 -47 13 -2 31 -18 42
-38 13 -21 23 -60 26 -99 3 -39 10 -66 18 -69 9 -3 12 15 12 65 0 37 3 85 6
106 4 20 9 37 13 37 3 0 6 -51 6 -113 0 -92 3 -118 18 -141 10 -15 24 -25 30
-23 7 2 20 17 30 34 12 22 20 62 24 132 3 57 10 101 16 101 6 0 8 -38 4 -107
-6 -89 -11 -113 -33 -150 l-25 -43 20 -29 c11 -15 48 -52 83 -82 35 -30 87
-70 116 -87 38 -23 105 -45 250 -82 108 -27 234 -60 280 -74 l82 -24 0 169 c0
162 -1 169 -25 205 -13 20 -27 52 -31 71 -4 19 -4 52 -1 74 3 22 17 58 31 80
l26 39 0 1095 0 1095 -105 0 c-58 0 -210 -9 -338 -20 -127 -11 -253 -23 -279
-26 -47 -6 -48 -5 -48 20 0 19 -5 26 -20 26 -11 0 -20 -6 -20 -12 0 -7 -4 -19
-8 -25 -6 -10 -51 -8 -207 12 l-198 25 -1048 0z"/>
<path d="M2140 3850 c-5 0 -12 -4 -15 -10 -3 -5 3 -10 15 -10 12 0 18 5 15 10
-3 6 -10 10 -15 10z"/>
<path d="M1720 3423 c-41 2 -109 2 -150 0 -41 -2 -79 -8 -84 -13 -6 -6 -21
-10 -35 -11 -15 0 -39 -9 -56 -20 -16 -10 -39 -23 -50 -28 -12 -5 -26 -16 -33
-24 -7 -8 -27 -18 -45 -21 -21 -4 -49 -23 -77 -54 -25 -26 -51 -57 -58 -69 -6
-13 -12 -33 -12 -45 0 -12 -6 -29 -14 -37 -9 -10 -15 -43 -17 -91 -1 -41 2
-101 6 -132 l8 -58 38 0 c30 0 42 -6 59 -30 12 -17 36 -34 58 -40 20 -5 49
-10 65 -10 15 0 50 -12 77 -26 27 -14 54 -32 61 -41 7 -8 18 -25 24 -37 6 -12
22 -22 39 -24 16 -2 36 4 47 14 10 9 19 25 19 34 0 10 15 29 34 43 18 14 67
42 109 61 42 20 79 40 82 46 3 5 23 10 44 10 21 0 44 -6 50 -14 7 -8 26 -18
42 -21 16 -4 43 -18 59 -32 17 -14 30 -29 30 -35 0 -6 -7 -4 -17 3 -15 13 -16
12 -8 -11 4 -14 7 -40 7 -58 0 -18 -6 -40 -13 -48 -6 -8 -18 -14 -25 -14 -8 0
-14 4 -14 9 0 4 5 22 11 40 10 28 9 34 -7 47 -11 8 -34 22 -53 30 -18 8 -35
13 -38 10 -3 -2 5 -18 18 -35 19 -26 20 -33 10 -59 -10 -23 -21 -31 -49 -36
-26 -4 -41 -1 -55 12 -14 13 -18 26 -14 53 l5 36 -48 -1 c-26 -1 -54 -7 -63
-15 -10 -7 -17 -19 -17 -25 0 -6 9 -29 21 -51 12 -22 35 -55 52 -72 29 -31 30
-34 14 -51 -9 -10 -17 -26 -17 -35 0 -9 -9 -21 -20 -27 -12 -6 -20 -21 -20
-36 0 -18 10 -30 35 -45 32 -19 35 -25 35 -68 0 -26 -5 -52 -12 -59 -7 -7 -27
-9 -55 -5 -34 5 -48 2 -64 -13 -16 -15 -37 -19 -89 -19 -59 0 -72 -3 -95 -25
-21 -20 -25 -32 -23 -64 l3 -40 71 -12 c40 -6 88 -17 108 -24 20 -6 36 -16 36
-22 0 -6 -6 -8 -14 -5 -8 3 -52 -1 -98 -10 -45 -8 -95 -20 -110 -25 -21 -8
-28 -17 -28 -37 0 -15 6 -36 14 -46 12 -17 18 -18 52 -7 22 6 65 14 97 17 31
3 80 10 109 15 29 6 57 15 62 20 6 6 22 10 37 10 15 0 31 4 34 10 3 5 19 7 34
4 16 -4 32 -1 35 5 4 6 17 11 29 11 16 0 18 3 9 12 -6 6 -26 13 -44 14 -18 2
-48 6 -65 9 -18 3 -33 11 -33 16 0 7 30 10 85 8 60 -3 89 -9 100 -20 11 -11
17 -36 18 -75 2 -47 -3 -65 -21 -91 -13 -18 -26 -49 -29 -68 -4 -27 -10 -35
-27 -35 -11 0 -34 -9 -51 -20 -16 -11 -33 -20 -37 -20 -5 0 -8 6 -8 14 0 7 -8
17 -17 20 -10 3 -29 13 -43 21 -14 8 -37 15 -51 15 -14 0 -34 -6 -45 -14 -15
-12 -17 -17 -6 -27 6 -7 12 -16 12 -19 0 -4 -11 -12 -24 -18 -16 -7 -36 -8
-55 -2 -17 5 -33 5 -36 0 -3 -5 0 -12 6 -16 7 -4 43 -9 80 -12 38 -2 69 -9 69
-13 0 -5 -20 -9 -45 -9 -34 0 -47 -4 -52 -17 -3 -10 -17 -30 -31 -45 -14 -16
-32 -28 -39 -28 -7 0 -18 10 -23 23 -5 12 -18 36 -29 52 -12 17 -21 46 -21 66
0 26 -8 43 -30 64 -16 16 -39 53 -50 83 -12 30 -27 64 -35 76 -10 13 -15 45
-15 89 0 51 5 76 19 95 10 15 21 40 25 56 4 16 2 51 -5 77 -10 39 -10 56 1 89
11 34 11 44 0 66 -11 20 -12 29 -2 42 7 9 17 28 23 42 7 18 7 30 0 42 -6 10
-11 32 -11 50 1 18 9 43 19 56 11 12 24 22 31 22 6 0 10 6 8 12 -3 7 -13 15
-24 18 -10 3 -31 13 -45 23 -20 13 -37 16 -68 11 -22 -4 -41 -10 -41 -15 0 -5
6 -9 13 -9 8 0 21 -8 30 -18 10 -10 17 -33 17 -51 0 -25 -4 -32 -15 -28 -8 4
-17 2 -20 -3 -4 -6 -14 -10 -24 -10 -9 0 -30 -13 -46 -30 -25 -26 -36 -30 -81
-30 -43 0 -56 -4 -68 -22 -9 -12 -16 -32 -16 -43 0 -12 8 -39 19 -61 10 -21
21 -70 25 -108 6 -57 13 -76 38 -109 28 -35 32 -49 38 -128 4 -48 11 -94 17
-101 6 -7 10 -34 10 -61 0 -37 5 -53 25 -75 15 -15 40 -56 58 -92 17 -36 41
-83 53 -105 13 -22 45 -78 72 -124 28 -46 60 -94 72 -107 12 -13 32 -24 44
-24 12 0 50 -26 88 -59 37 -33 79 -63 94 -66 15 -4 30 -11 33 -16 3 -5 22 -9
42 -9 20 0 50 7 66 15 15 8 38 15 49 15 11 0 40 9 63 20 23 12 61 41 83 65 23
25 41 52 41 60 0 9 12 32 27 51 21 28 27 49 31 108 l4 72 69 80 c68 77 69 80
69 135 0 38 -5 61 -15 69 -13 10 -19 10 -33 -4 -10 -9 -28 -16 -41 -16 -14 0
-25 9 -31 28 -6 15 -15 35 -20 44 -6 10 -10 47 -10 82 0 45 9 94 30 158 17 51
30 101 30 111 0 10 7 32 17 47 14 25 15 45 6 184 -6 86 -15 162 -21 169 -5 6
-13 29 -16 51 -6 29 -23 55 -72 105 -58 59 -63 67 -47 78 9 7 25 13 34 13 10
0 20 -4 24 -9 3 -6 19 -17 37 -25 24 -12 34 -13 45 -4 11 9 13 26 7 77 -4 45
-13 73 -27 88 -17 19 -19 31 -15 81 3 32 1 67 -4 78 -6 10 -22 31 -36 47 -19
20 -35 27 -62 27 -30 0 -44 8 -85 50 -40 40 -56 50 -83 50 -18 0 -45 9 -60 20
-19 14 -48 20 -102 23z"/>
<path d="M839 2816 c-22 0 -42 -3 -45 -5 -2 -2 -4 -11 -4 -20 0 -8 -10 -25
-22 -38 -20 -21 -21 -26 -9 -80 7 -32 18 -69 25 -83 6 -14 21 -26 33 -28 18
-3 22 3 28 47 4 29 15 57 26 67 10 9 22 32 25 51 4 21 2 39 -5 46 -6 6 -11 19
-11 28 0 13 -9 16 -41 15z"/>
<path d="M1121 2730 c-23 0 -44 -7 -54 -17 -8 -10 -18 -47 -22 -83 -5 -49 -3
-70 8 -84 10 -14 21 -17 40 -12 18 4 27 13 27 26 0 10 -5 22 -10 25 -6 4 -8
16 -4 28 3 12 19 39 36 60 16 20 26 42 23 47 -3 6 -23 10 -44 10z"/>
<path d="M1860 2660 c-5 0 -10 -4 -10 -10 0 -5 5 -10 10 -10 6 0 10 5 10 10 0
6 -4 10 -10 10z"/>
<path d="M1277 2607 c-4 3 -7 0 -7 -7 0 -7 3 -10 7 -7 3 4 3 10 0 14z"/>
<path d="M1543 2410 c-7 0 -15 -6 -20 -12 -4 -7 -14 -24 -20 -37 -7 -13 -13
-38 -13 -56 0 -18 8 -38 18 -47 9 -8 31 -18 49 -21 26 -5 35 -2 48 16 8 12 15
38 15 57 0 28 -8 44 -33 68 -18 18 -38 32 -44 32z"/>
<path d="M966 2270 c-10 0 -15 -28 -19 -97 -6 -95 -5 -100 26 -163 17 -36 37
-73 45 -82 9 -10 23 -18 34 -18 10 0 18 6 18 14 0 8 -5 27 -11 43 -7 15 -15
46 -20 68 -4 22 -13 65 -18 95 -6 30 -18 74 -27 98 -8 23 -21 42 -28 42z"/>
<path d="M2526 1840 c-7 0 -16 -3 -19 -7 -4 -3 -7 -22 -7 -40 0 -19 10 -47 22
-63 12 -17 28 -30 35 -30 9 0 13 14 13 40 0 23 -7 54 -15 70 -9 17 -21 30 -29
30z"/>
<path d="M3538 1743 l-3 52 -17 -32 c-10 -18 -18 -53 -18 -78 0 -25 8 -60 18
-78 l17 -32 3 58 c2 32 2 81 0 110z"/>
<path d="M1690 1040 c-19 0 -36 -9 -50 -27 -19 -24 -20 -29 -6 -39 9 -6 16
-16 16 -21 0 -5 29 -38 64 -71 35 -34 70 -62 77 -62 7 0 27 12 46 26 27 21 32
29 22 40 -6 8 -17 14 -24 14 -6 0 -19 8 -28 18 -10 10 -17 27 -17 37 0 10 -16
33 -36 51 -23 22 -45 34 -64 34z"/>
<path d="M1801 760 c-4 0 -17 -9 -29 -20 -12 -12 -22 -26 -22 -33 1 -7 19 -25
41 -40 30 -21 40 -33 36 -48 -3 -10 -3 -19 -1 -19 2 0 12 10 24 22 11 12 20
32 20 45 0 12 -14 38 -31 58 -17 19 -34 35 -38 35z"/>
</g>
</svg>
