<?xml version="1.0" encoding="UTF-8" standalone="no"?>
<svg
   xmlns:dc="http://purl.org/dc/elements/1.1/"
   xmlns:cc="http://creativecommons.org/ns#"
   xmlns:rdf="http://www.w3.org/1999/02/22-rdf-syntax-ns#"
   xmlns:svg="http://www.w3.org/2000/svg"
   xmlns="http://www.w3.org/2000/svg"
   xmlns:sodipodi="http://sodipodi.sourceforge.net/DTD/sodipodi-0.dtd"
   xmlns:inkscape="http://www.inkscape.org/namespaces/inkscape"
   version="1.0"
   width="100%"
   height="100%"
   viewBox="0 0 300.67797 342.99538"
   preserveAspectRatio="xMidYMid meet"
   id="svg2"
   inkscape:version="0.48.5 r10040"
   sodipodi:docname="D:\Downloads\00096878_0726_thumb_00023929\your_stencils\00096878_0726_thumb_00023929.svg"
   inkscape:export-filename="trailhead.png"
   inkscape:export-xdpi="200"
   inkscape:export-ydpi="200">
  <metadata
     id="metadata40">
    <rdf:RDF>
      <cc:Work
         rdf:about="">
        <dc:format>image/svg+xml</dc:format>
        <dc:type
           rdf:resource="http://purl.org/dc/dcmitype/StillImage" />
      </cc:Work>
    </rdf:RDF>
  </metadata>
  <defs
     id="defs38">
    <clipPath
       id="clipPath4754-6"
       clipPathUnits="userSpaceOnUse">
      <path
         transform="matrix(5.168221,0,0,5.7645544,-28.994055,823.43811)"
         d="m 40.463208,21.930208 a 15.044013,13.487736 0 1 1 -30.088026,0 15.044013,13.487736 0 1 1 30.088026,0 z"
         sodipodi:ry="13.487736"
         sodipodi:rx="15.044013"
         sodipodi:cy="21.930208"
         sodipodi:cx="25.419195"
         id="path4756-2"
         style="fill:none;stroke:#aa0009;stroke-width:0.09131714;stroke-linecap:square;stroke-linejoin:round;stroke-miterlimit:4;stroke-opacity:1;stroke-dasharray:none"
         sodipodi:type="arc" />
    </clipPath>
    <clipPath
       id="clipPath4758-6"
       clipPathUnits="userSpaceOnUse">
      <path
         transform="matrix(5.1111363,0,0,5.828937,-28.673806,832.63484)"
         d="m 40.463208,21.930208 a 15.044013,13.487736 0 1 1 -30.088026,0 15.044013,13.487736 0 1 1 30.088026,0 z"
         sodipodi:ry="13.487736"
         sodipodi:rx="15.044013"
         sodipodi:cy="21.930208"
         sodipodi:cx="25.419195"
         id="path4760-18"
         style="fill:none;stroke:#aa0009;stroke-width:0.09131714;stroke-linecap:square;stroke-linejoin:round;stroke-miterlimit:4;stroke-opacity:1;stroke-dasharray:none"
         sodipodi:type="arc" />
    </clipPath>
    <clipPath
       id="clipPath4766-2"
       clipPathUnits="userSpaceOnUse">
      <path
         transform="matrix(5.1111363,0,0,5.828937,-28.673806,832.63484)"
         d="m 40.463208,21.930208 a 15.044013,13.487736 0 1 1 -30.088026,0 15.044013,13.487736 0 1 1 30.088026,0 z"
         sodipodi:ry="13.487736"
         sodipodi:rx="15.044013"
         sodipodi:cy="21.930208"
         sodipodi:cx="25.419195"
         id="path4768-53"
         style="fill:none;stroke:#aa0009;stroke-width:0.09131714;stroke-linecap:square;stroke-linejoin:round;stroke-miterlimit:4;stroke-opacity:1;stroke-dasharray:none"
         sodipodi:type="arc" />
    </clipPath>
    <clipPath
       id="clipPath4778-2"
       clipPathUnits="userSpaceOnUse">
      <path
         transform="matrix(5.1111363,0,0,5.828937,-28.673806,832.63484)"
         d="m 40.463208,21.930208 a 15.044013,13.487736 0 1 1 -30.088026,0 15.044013,13.487736 0 1 1 30.088026,0 z"
         sodipodi:ry="13.487736"
         sodipodi:rx="15.044013"
         sodipodi:cy="21.930208"
         sodipodi:cx="25.419195"
         id="path4780-8"
         style="fill:none;stroke:#aa0009;stroke-width:0.09131714;stroke-linecap:square;stroke-linejoin:round;stroke-miterlimit:4;stroke-opacity:1;stroke-dasharray:none"
         sodipodi:type="arc" />
    </clipPath>
    <clipPath
       id="clipPath4782-5"
       clipPathUnits="userSpaceOnUse">
      <path
         transform="matrix(5.168221,0,0,5.7645544,-28.994055,823.43811)"
         d="m 40.463208,21.930208 a 15.044013,13.487736 0 1 1 -30.088026,0 15.044013,13.487736 0 1 1 30.088026,0 z"
         sodipodi:ry="13.487736"
         sodipodi:rx="15.044013"
         sodipodi:cy="21.930208"
         sodipodi:cx="25.419195"
         id="path4784-3"
         style="fill:none;stroke:#aa0009;stroke-width:0.09131714;stroke-linecap:square;stroke-linejoin:round;stroke-miterlimit:4;stroke-opacity:1;stroke-dasharray:none"
         sodipodi:type="arc" />
    </clipPath>
    <clipPath
       id="clipPath4786-3"
       clipPathUnits="userSpaceOnUse">
      <path
         transform="matrix(5.168221,0,0,5.7645544,-28.994055,823.43811)"
         d="m 40.463208,21.930208 a 15.044013,13.487736 0 1 1 -30.088026,0 15.044013,13.487736 0 1 1 30.088026,0 z"
         sodipodi:ry="13.487736"
         sodipodi:rx="15.044013"
         sodipodi:cy="21.930208"
         sodipodi:cx="25.419195"
         id="path4788-5"
         style="fill:none;stroke:#aa0009;stroke-width:0.09131714;stroke-linecap:square;stroke-linejoin:round;stroke-miterlimit:4;stroke-opacity:1;stroke-dasharray:none"
         sodipodi:type="arc" />
    </clipPath>
    <clipPath
       id="clipPath4806-6"
       clipPathUnits="userSpaceOnUse">
      <path
         transform="matrix(5.168221,0,0,5.7645544,-28.994055,823.43811)"
         d="m 40.463208,21.930208 a 15.044013,13.487736 0 1 1 -30.088026,0 15.044013,13.487736 0 1 1 30.088026,0 z"
         sodipodi:ry="13.487736"
         sodipodi:rx="15.044013"
         sodipodi:cy="21.930208"
         sodipodi:cx="25.419195"
         id="path4808-3"
         style="fill:none;stroke:#aa0009;stroke-width:0.09131714;stroke-linecap:square;stroke-linejoin:round;stroke-miterlimit:4;stroke-opacity:1;stroke-dasharray:none"
         sodipodi:type="arc" />
    </clipPath>
    <clipPath
       id="clipPath4818-6"
       clipPathUnits="userSpaceOnUse">
      <path
         transform="matrix(5.168221,0,0,5.7645544,-28.994055,-23.9242)"
         d="m 40.463208,21.930208 a 15.044013,13.487736 0 1 1 -30.088026,0 15.044013,13.487736 0 1 1 30.088026,0 z"
         sodipodi:ry="13.487736"
         sodipodi:rx="15.044013"
         sodipodi:cy="21.930208"
         sodipodi:cx="25.419195"
         id="path4820-1"
         style="fill:none;stroke:#aa0009;stroke-width:0.09131714;stroke-linecap:square;stroke-linejoin:round;stroke-miterlimit:4;stroke-opacity:1;stroke-dasharray:none"
         sodipodi:type="arc" />
    </clipPath>
    <clipPath
       id="clipPath4779-1"
       clipPathUnits="userSpaceOnUse">
      <path
         inkscape:connector-curvature="0"
         id="path4781-4"
         d="m -316.06026,543.58492 -20.09045,-10.21548 0,3.06464 -11.91806,-6.81032 0,3.06465 -17.02581,-8.17239 -19.40942,17.36632 -1.70258,-5.78877 1.36207,-10.89652 4.08619,-11.23703 7.83187,-8.85342 10.89652,-6.81032 10.89651,-2.0431 10.21548,1.36207 10.89652,4.42671 8.17238,7.83187 6.46981,11.23703 1.36207,7.83187 0,6.81032 z"
         style="color:#000000;fill:none;stroke:#00ff00;stroke-width:5;stroke-linecap:butt;stroke-linejoin:miter;stroke-miterlimit:4;stroke-opacity:1;stroke-dasharray:none;stroke-dashoffset:0;marker:none;visibility:visible;display:inline;overflow:visible;enable-background:accumulate" />
    </clipPath>
    <filter
       color-interpolation-filters="sRGB"
       x="0"
       y="0"
       width="1"
       height="1"
       inkscape:menu-tooltip="Replace hue by two colors"
       inkscape:menu="Color"
       inkscape:label="Quadritone fantasy"
       id="filter4783-6">
      <feColorMatrix
         result="result2"
         values="1"
         type="saturate"
         id="feColorMatrix4785-2" />
      <feColorMatrix
         in="result2"
         type="hueRotate"
         values="50"
         result="result1"
         id="feColorMatrix4787-9" />
      <feColorMatrix
         type="matrix"
         values="1 -1 1 0 0 0 1 0 0 0 1 -1 1 0 0 0 0 0 1 0 "
         id="feColorMatrix4789-1" />
      <feColorMatrix
         type="hueRotate"
         values="300"
         id="feColorMatrix4791-5" />
    </filter>
  </defs>
  <sodipodi:namedview
     pagecolor="#ffffff"
     bordercolor="#666666"
     borderopacity="1"
     objecttolerance="10"
     gridtolerance="10"
     guidetolerance="10"
     inkscape:pageopacity="0"
     inkscape:pageshadow="2"
     inkscape:window-width="640"
     inkscape:window-height="480"
     id="namedview36"
     showgrid="false"
     fit-margin-top="5"
     fit-margin-left="5"
     fit-margin-right="5"
     fit-margin-bottom="5" />
  <g
     transform="matrix(0.1,0,0,-0.1,-31.372884,407)"
     id="g4"
     style="fill:#000000;stroke:none">
    <path
       d="M 1880,4020 372.71186,4011.0169 363.72881,2371.5254 684.97107,417.28525 2005.9497,-262.15713 3140.9154,402.58863 3270.5085,2128.9831 2974.0678,3930.1695 z"
       id="path6"
       inkscape:connector-curvature="0"
       sodipodi:nodetypes="ccccccccc" />
  </g>
  <g
     transform="matrix(0.1,0,0,-0.1,-31.372884,407)"
     id="g8"
     style="fill:#ffffff;stroke:none">
    <path
       d="M 244.5,21 C 177.48089,21.109748 101.33469,22 22,22 12.472036,126.26853 22,229.27292 22,332.90625 L 26.8125,330.5 c 2.6,-1.3 10.2875,-4 17.1875,-6 6.9,-2 21.3,-6.5 32,-10 10.7,-3.5 23.30625,-7.3 27.90625,-8.5 4.7,-1.2 9.78125,-2.79375 11.28125,-3.59375 1.6,-0.8 6.95201,-3.3 9.15201,-5.5 2.1,-2.1 1.66049,-4.51875 1.66049,-5.21875 0,-0.6 -1.21419,-8.18072 -3.91419,-12.28072 C 119.48581,275.30678 115.4,273 114,270 c -1.3,-3 -4.2125,-8.2875 -6.3125,-11.6875 -2.1,-3.5 -4.4,-6.3125 -5,-6.3125 -0.6,0 -2.075,0.9875 -3.375,2.1875 -1.3,1.2 -2.6,1.8 -3,1.5 -0.4,-0.4 -0.1,-1.275 0.5,-1.875 0.7,-0.7 1.1875,-2 1.1875,-3 0,-1 -1.30625,-4.225 -2.90625,-7.125 -1.7,-2.8 -3.7,-7.1875 -4.5,-9.6875 -0.8,-2.5 -1.7875,-7.9 -2.1875,-12 -0.7,-7.2 -0.8,-7.59375 -5.5,-12.09375 -3.2,-3.1 -5.1,-6 -6,-9 C 76.30625,198.50625 75.6,190.6 75.5,183.5 c -0.1,-7.2 -0.6,-14.1 -1,-15.5 -0.4,-1.4 -1.80625,-3.69375 -2.90625,-5.09375 -1.2,-1.4 -3.38125,-5 -4.78125,-8 -1.3,-3 -3,-8.60625 -3.5,-12.40625 -0.6,-3.9 -0.925,-10.59375 -0.625,-15.09375 0.4,-5.2 0.10625,-8.9125 -0.59375,-10.3125 C 61.39375,115.89375 61.2,114 61.5,113 c 0.4,-1.1 1.29375,-2 2.09375,-2 0.8,0 1.90625,-1.10625 2.40625,-2.40625 0.5,-1.3 1.40625,-2.69375 1.90625,-3.09375 0.6,-0.3 1.09375,-1.49375 1.09375,-2.59375 0,-1.6 -0.5,-1.90625 -2,-1.40625 -1.5,0.5 -2,0.1875 -2,-1.3125 0,-1.1 1.7125,-4 3.8125,-6.5 2,-2.5 4.875,-5.49375 6.375,-6.59375 C 76.6875,85.89375 78.8,83.4 80,81.5 c 1.8,-3 2.00625,-3.79375 0.90625,-5.09375 -1.1,-1.4 -1.00625,-1.89375 0.59375,-3.09375 1.1,-0.8 3.5125,-2.2 5.3125,-3 2.9,-1.2 3.28125,-1.8125 2.78125,-3.8125 -0.4,-1.4 -0.8875,-5.1125 -1.1875,-8.3125 -0.4,-3.9 -0.3,-6.19375 0.5,-6.59375 0.6,-0.4 1.09375,-0.0875 1.09375,0.8125 0,0.8 1.10625,2.69375 2.40625,4.09375 1.7,1.8 2.60625,2.2125 2.90625,1.3125 0.3,-0.8 0.9,-0.4125 1.5,1.1875 l 1.09375,2.5 0,-2.59375 C 98.00625,57.00625 99.1,55.5 102,53.5 c 2.4,-1.6 4.9,-4.60625 6,-6.90625 1,-2.2 1.60625,-4.38125 1.40625,-4.78125 -0.3,-0.5 -1.51875,-0.90625 -2.71875,-0.90625 -1.2,-0.1 0.1125,-0.6125 2.8125,-1.3125 4,-0.8 5.90625,-1.98125 8.90625,-5.28125 2,-2.3 4.99375,-4.4125 6.59375,-4.8125 1.6,-0.4 3.70625,-0.1125 4.90625,0.6875 1.7,1.1 2.30625,0.9 4.40625,-1 C 135.6125,27.9875 137,27 137.5,27 c 0.5,0 0.3875,0.4875 -0.3125,1.1875 -0.7,0.7 -1.1875,1.625 -1.1875,2.125 0,0.5 0.60625,0.38125 1.40625,-0.21875 0.7,-0.6 2.10625,-0.9 2.90625,-0.5 0.9,0.3 1.3,1.2 1,2 -0.4,1 0.28125,1.40625 2.28125,1.40625 1.5,0 3.59375,0.6875 4.59375,1.6875 1.7,1.5 2.025,1.5 4.125,-0.5 1.3,-1.2 2.775,-2.1875 3.375,-2.1875 0.6,0 2.40625,-0.7 3.90625,-1.5 1.6,-0.8 4.5,-1.5 6.5,-1.5 1.9,0 4.30625,-0.6125 5.40625,-1.3125 1.4,-1.1 2.8875,-1.175 6.1875,-0.375 3.1,0.6 4.825,0.58125 5.625,-0.21875 0.6,-0.6 2.4,-1.09375 4,-1.09375 1.5,0 3.6875,-0.5 4.6875,-1 1.4,-0.7 3.40625,-0.5125 7.40625,0.6875 3.4,1.1 5.70625,2.5 5.90625,3.5 0.3,1.1 1.475,1.8125 2.875,1.8125 1.4,0 5.00625,2.1125 8.40625,4.8125 3.2,2.6 6.71875,5.1 7.71875,5.5 1.2,0.4 1.6875,1.69375 1.6875,4.09375 0,2.5 0.6,3.79375 2,4.59375 1.1,0.6 2,1.90625 2,2.90625 0,1.5 1.1125,1.99375 5.8125,2.59375 3.1,0.3 8.5,1.99375 12,3.59375 3.5,1.6 6.8875,2.81875 7.6875,2.71875 0.7,-0.2 2.70625,1.39375 4.40625,3.59375 1.7,2.1 3.09375,4.39375 3.09375,5.09375 0,0.7 0.7,1.8 1.5,2.5 0.7,0.6 1.69375,3.3125 2.09375,5.8125 0.4,2.6 1.7,6.2875 3,8.1875 1.4,2 2.40625,4.9 2.40625,7 0,2 0.60625,4.49375 1.40625,5.59375 0.8,1.1 1.69375,3.8 2.09375,6 l 0.59375,3.90625 -2.5,-3 c -1.4,-1.6 -2.79375,-2.6125 -3.09375,-2.3125 -0.4,0.3 -0.19375,1.525 0.40625,2.625 0.6,1.2 1.09375,2.2875 1.09375,2.6875 0,0.3 -0.9875,1 -2.1875,1.5 l -2.3125,0.90625 2.3125,0.6875 c 1.2,0.3 2.1875,0.91875 2.1875,1.21875 0,0.3 -0.69375,1.375 -1.59375,2.375 -1.4,1.5 -1.5,2.4 -0.5,6 0.7,2.4 1.30625,9.7125 1.40625,16.3125 0.2,10.7 0.5,12.3875 2.5,15.1875 1.2,1.7 2.1875,3.9125 2.1875,4.8125 0,1.2 -0.5,1.5 -2,1 -1.4,-0.4 -2,-0.1875 -2,0.8125 0,0.8 -0.7,1.9875 -1.5,2.6875 -0.8,0.7 0.088,3.88174 0.088,5.18174 0,1.3 -1.98799,0.81826 -2.58799,0.81826 -0.5,0 0.59309,11.06366 0.0931,10.06366 -0.6,-0.9 -4.28684,-13.46366 -6.18684,-13.56366 -1.9,-0.1 -4.21875,-0.5 -5.21875,-1 -1,-0.4 -1.98125,-0.4875 -2.28125,-0.1875 -0.3,0.3 -0.0937,2.075 0.40625,3.875 0.6,1.8 1.38125,5.425 1.78125,8.125 0.4,3.2 0.20625,5.1875 -0.59375,6.1875 -0.7,0.8 -2.69375,1.5 -4.59375,1.5 -2.3,0 -3.70625,0.60625 -4.40625,1.90625 -0.5,1.1 -1,3.6 -1,5.5 0,2 -0.40625,3.59375 -0.90625,3.59375 -0.5,0 -1.2,1.1 -1.5,2.5 -0.4,1.6 -0.006,3.5125 1.09375,5.3125 0.9,1.5 2.81875,3.875 4.21875,5.375 1.3,1.6 3.19375,2.8125 4.09375,2.8125 0.9,0 2.5875,-1.0125 3.6875,-2.3125 1.1,-1.2 2.325,-3 2.625,-4 0.4,-0.9 2.87549,-6.13388 3.77549,-6.13388 1.3,0 -0.0817,5.13388 -0.68174,8.13388 -0.4,2.1 -1.3,4.50625 -2,5.40625 -0.8,0.8 -1.40625,2.4 -1.40625,3.5 -0.1,1 -0.6125,2.9 -1.3125,4 -0.7,1.2 1.45378,4.04145 -0.24622,5.54145 -2.8,2.3 2.37122,0.7898 2.37122,4.4898 3.89729,14.44241 6.16608,-5.50634 8.02994,26.37369 4.06457,11.00243 4.86375,15.76795 12.40756,22.72006 3.5,3 9.6625,6.39375 12.5625,8.09375 3.8,2.3 10.5,4.4875 25,8.1875 18.98316,3.06057 22.83973,-105.60974 0.25528,-273.898305 C 285.69803,20.25883 284.71147,20.934151 244.5,21 z"
       transform="matrix(10,0,0,-10,0,4240)"
       id="path10"
       inkscape:connector-curvature="0"
       sodipodi:nodetypes="sccsssccsscccsscsscsccccsccccccsscssscccccccccscccccccccccsccssscccsccscsccsssccsccscscsccscccsscccccscccsccccscsssscscscccscsscccsccscccccccccccs" />
    <path
       d="m 2140,3850 c -5,0 -12,-4 -15,-10 -3,-5 3,-10 15,-10 12,0 18,5 15,10 -3,6 -10,10 -15,10 z"
       id="path12"
       inkscape:connector-curvature="0" />
    <path
       d="m 1720,3423 c -41,2 -109,2 -150,0 -41,-2 -79,-8 -84,-13 -6,-6 -21,-10 -35,-11 -15,0 -39,-9 -56,-20 -16,-10 -39,-23 -50,-28 -12,-5 -26,-16 -33,-24 -7,-8 -27,-18 -45,-21 -21,-4 -49,-23 -77,-54 -25,-26 -51,-57 -58,-69 -6,-13 -12,-33 -12,-45 0,-12 -6,-29 -14,-37 -9,-10 -15,-43 -17,-91 -1,-41 2,-101 6,-132 l 8,-58 38,0 c 30,0 42,-6 59,-30 12,-17 36,-34 58,-40 20,-5 49,-10 65,-10 15,0 50,-12 77,-26 27,-14 54,-32 61,-41 7,-8 18,-25 24,-37 6,-12 22,-22 39,-24 16,-2 36,4 47,14 10,9 19,25 19,34 0,10 15,29 34,43 18,14 67,42 109,61 42,20 79,40 82,46 3,5 23,10 44,10 21,0 44,-6 50,-14 7,-8 26,-18 42,-21 16,-4 43,-18 59,-32 17,-14 30,-29 30,-35 0,-6 -7,-4 -17,3 -15,13 -16,12 -8,-11 4,-14 7,-40 7,-58 0,-18 -6,-40 -13,-48 -6,-8 -18,-14 -25,-14 -8,0 -14,4 -14,9 0,4 5,22 11,40 10,28 9,34 -7,47 -11,8 -34,22 -53,30 -18,8 -35,13 -38,10 -3,-2 5,-18 18,-35 19,-26 20,-33 10,-59 -10,-23 -21,-31 -49,-36 -26,-4 -41,-1 -55,12 -14,13 -18,26 -14,53 l 5,36 -48,-1 c -26,-1 -54,-7 -63,-15 -10,-7 -17,-19 -17,-25 0,-6 9,-29 21,-51 12,-22 35,-55 52,-72 29,-31 30,-34 14,-51 -9,-10 -17,-26 -17,-35 0,-9 -9,-21 -20,-27 -12,-6 -20,-21 -20,-36 0,-18 10,-30 35,-45 32,-19 35,-25 35,-68 0,-26 -5,-52 -12,-59 -7,-7 -27,-9 -55,-5 -34,5 -48,2 -64,-13 -16,-15 -37,-19 -89,-19 -59,0 -72,-3 -95,-25 -21,-20 -25,-32 -23,-64 l 3,-40 71,-12 c 40,-6 88,-17 108,-24 20,-6 36,-16 36,-22 0,-6 -6,-8 -14,-5 -8,3 -52,-1 -98,-10 -45,-8 -95,-20 -110,-25 -21,-8 -28,-17 -28,-37 0,-15 6,-36 14,-46 12,-17 18,-18 52,-7 22,6 65,14 97,17 31,3 80,10 109,15 29,6 57,15 62,20 6,6 22,10 37,10 15,0 31,4 34,10 3,5 19,7 34,4 16,-4 32,-1 35,5 4,6 17,11 29,11 16,0 18,3 9,12 -6,6 -26,13 -44,14 -18,2 -48,6 -65,9 -18,3 -33,11 -33,16 0,7 30,10 85,8 60,-3 89,-9 100,-20 11,-11 17,-36 18,-75 2,-47 -3,-65 -21,-91 -13,-18 -26,-49 -29,-68 -4,-27 -10,-35 -27,-35 -11,0 -34,-9 -51,-20 -16,-11 -33,-20 -37,-20 -5,0 -8,6 -8,14 0,7 -8,17 -17,20 -10,3 -29,13 -43,21 -14,8 -37,15 -51,15 -14,0 -34,-6 -45,-14 -15,-12 -17,-17 -6,-27 6,-7 12,-16 12,-19 0,-4 -11,-12 -24,-18 -16,-7 -36,-8 -55,-2 -17,5 -33,5 -36,0 -3,-5 0,-12 6,-16 7,-4 43,-9 80,-12 38,-2 69,-9 69,-13 0,-5 -20,-9 -45,-9 -34,0 -47,-4 -52,-17 -3,-10 -17,-30 -31,-45 -14,-16 -32,-28 -39,-28 -7,0 -18,10 -23,23 -5,12 -18,36 -29,52 -12,17 -21,46 -21,66 0,26 -8,43 -30,64 -16,16 -39,53 -50,83 -12,30 -27,64 -35,76 -10,13 -15,45 -15,89 0,51 5,76 19,95 10,15 21,40 25,56 4,16 2,51 -5,77 -10,39 -10,56 1,89 11,34 11,44 0,66 -11,20 -12,29 -2,42 7,9 17,28 23,42 7,18 7,30 0,42 -6,10 -11,32 -11,50 1,18 9,43 19,56 11,12 24,22 31,22 6,0 10,6 8,12 -3,7 -13,15 -24,18 -10,3 -31,13 -45,23 -20,13 -37,16 -68,11 -22,-4 -41,-10 -41,-15 0,-5 6,-9 13,-9 8,0 21,-8 30,-18 10,-10 17,-33 17,-51 0,-25 -4,-32 -15,-28 -8,4 -17,2 -20,-3 -4,-6 -14,-10 -24,-10 -9,0 -30,-13 -46,-30 -25,-26 -36,-30 -81,-30 -43,0 -56,-4 -68,-22 -9,-12 -16,-32 -16,-43 0,-12 8,-39 19,-61 10,-21 21,-70 25,-108 6,-57 13,-76 38,-109 28,-35 32,-49 38,-128 4,-48 11,-94 17,-101 6,-7 10,-34 10,-61 0,-37 5,-53 25,-75 15,-15 40,-56 58,-92 17,-36 41,-83 53,-105 13,-22 45,-78 72,-124 28,-46 60,-94 72,-107 12,-13 32,-24 44,-24 12,0 50,-26 88,-59 37,-33 79,-63 94,-66 15,-4 30,-11 33,-16 3,-5 22,-9 42,-9 20,0 50,7 66,15 15,8 38,15 49,15 11,0 40,9 63,20 23,12 61,41 83,65 23,25 41,52 41,60 0,9 12,32 27,51 21,28 27,49 31,108 l 4,72 69,80 c 68,77 69,80 69,135 0,38 -5,61 -15,69 -13,10 -19,10 -33,-4 -10,-9 -28,-16 -41,-16 -14,0 -25,9 -31,28 -6,15 -15,35 -20,44 -6,10 -10,47 -10,82 0,45 9,94 30,158 17,51 30,101 30,111 0,10 7,32 17,47 14,25 15,45 6,184 -6,86 -15,162 -21,169 -5,6 -13,29 -16,51 -6,29 -23,55 -72,105 -58,59 -63,67 -47,78 9,7 25,13 34,13 10,0 20,-4 24,-9 3,-6 19,-17 37,-25 24,-12 34,-13 45,-4 11,9 13,26 7,77 -4,45 -13,73 -27,88 -17,19 -19,31 -15,81 3,32 1,67 -4,78 -6,10 -22,31 -36,47 -19,20 -35,27 -62,27 -30,0 -44,8 -85,50 -40,40 -56,50 -83,50 -18,0 -45,9 -60,20 -19,14 -48,20 -102,23 z"
       id="path14"
       inkscape:connector-curvature="0" />
    <path
       d="m 839,2816 c -22,0 -42,-3 -45,-5 -2,-2 -4,-11 -4,-20 0,-8 -10,-25 -22,-38 -20,-21 -21,-26 -9,-80 7,-32 18,-69 25,-83 6,-14 21,-26 33,-28 18,-3 22,3 28,47 4,29 15,57 26,67 10,9 22,32 25,51 4,21 2,39 -5,46 -6,6 -11,19 -11,28 0,13 -9,16 -41,15 z"
       id="path16"
       inkscape:connector-curvature="0" />
    <path
       d="m 1121,2730 c -23,0 -44,-7 -54,-17 -8,-10 -18,-47 -22,-83 -5,-49 -3,-70 8,-84 10,-14 21,-17 40,-12 18,4 27,13 27,26 0,10 -5,22 -10,25 -6,4 -8,16 -4,28 3,12 19,39 36,60 16,20 26,42 23,47 -3,6 -23,10 -44,10 z"
       id="path18"
       inkscape:connector-curvature="0" />
    <path
       d="m 1860,2660 c -5,0 -10,-4 -10,-10 0,-5 5,-10 10,-10 6,0 10,5 10,10 0,6 -4,10 -10,10 z"
       id="path20"
       inkscape:connector-curvature="0" />
    <path
       d="m 1277,2607 c -4,3 -7,0 -7,-7 0,-7 3,-10 7,-7 3,4 3,10 0,14 z"
       id="path22"
       inkscape:connector-curvature="0" />
    <path
       d="m 1543,2410 c -7,0 -15,-6 -20,-12 -4,-7 -14,-24 -20,-37 -7,-13 -13,-38 -13,-56 0,-18 8,-38 18,-47 9,-8 31,-18 49,-21 26,-5 35,-2 48,16 8,12 15,38 15,57 0,28 -8,44 -33,68 -18,18 -38,32 -44,32 z"
       id="path24"
       inkscape:connector-curvature="0" />
    <path
       d="m 966,2270 c -10,0 -15,-28 -19,-97 -6,-95 -5,-100 26,-163 17,-36 37,-73 45,-82 9,-10 23,-18 34,-18 10,0 18,6 18,14 0,8 -5,27 -11,43 -7,15 -15,46 -20,68 -4,22 -13,65 -18,95 -6,30 -18,74 -27,98 -8,23 -21,42 -28,42 z"
       id="path26"
       inkscape:connector-curvature="0" />
    <path
       d="m 2526,1840 c -7,0 -16,-3 -19,-7 -4,-3 -7,-22 -7,-40 0,-19 10,-47 22,-63 12,-17 28,-30 35,-30 9,0 13,14 13,40 0,23 -7,54 -15,70 -9,17 -21,30 -29,30 z"
       id="path28"
       inkscape:connector-curvature="0" />
  </g>
  <path
     style="fill:#ff7f2a;stroke:none"
     d="m 149.18395,15.853468 -47.30309,21.452252 34.50731,3.475528 -18.81105,21.444226 44.28785,-29.374164 -33.64254,0.355723 z"
     id="path3019"
     inkscape:connector-curvature="0"
     sodipodi:nodetypes="ccccccc" />
  <path
     sodipodi:type="arc"
     style="fill:none;stroke:#aa0009;stroke-width:0.09131714;stroke-linecap:square;stroke-linejoin:round;stroke-miterlimit:4;stroke-opacity:1;stroke-dasharray:none"
     id="path4824-4"
     sodipodi:cx="25.419195"
     sodipodi:cy="21.930208"
     sodipodi:rx="15.044013"
     sodipodi:ry="13.487736"
     d="m 40.463208,21.930208 a 15.044013,13.487736 0 1 1 -30.088026,0 15.044013,13.487736 0 1 1 30.088026,0 z"
     transform="matrix(3.0161061,0,0,3.3641183,84.474979,281.97669)" />
  <path
     inkscape:export-ydpi="175.60976"
     inkscape:export-xdpi="175.60976"
     inkscape:export-filename="C:\Users\Kay\tiroltrailhead\images\logo_trails_5_1.png"
     clip-path="url(#clipPath4818-6)"
     transform="matrix(0.58378048,0,0,0.58378048,101.39075,295.90363)"
     inkscape:connector-curvature="0"
     id="path5022"
     d="m 29.924901,127.73935 42.438952,-23.93993 0,7.07316 26.660366,-14.690403 -0.544089,6.529073 34.8217,-17.410856 42.98304,37.542146 -4.35271,11.96996 -5.98498,11.42588 -8.16134,10.33769 -10.88178,8.70542 -11.96996,7.07316 -11.96996,4.35272 -14.69041,2.72044 -15.234491,-1.08818 -13.058139,-2.72044 -14.690406,-5.44089 -11.425871,-8.16134 -8.705426,-9.24952 -7.617248,-9.7936 -5.440891,-9.24951 z"
     style="color:#000000;fill:#00aa88;fill-opacity:1;stroke:none;stroke-width:5;marker:none;visibility:visible;display:inline;overflow:visible;enable-background:accumulate" />
  <path
     clip-path="none"
     sodipodi:nodetypes="ccccccc"
     inkscape:connector-curvature="0"
     id="path3775"
     d="m 118.31573,369.97563 25.34847,-13.51967 0.0658,4.10163 15.17037,-8.37353 -0.0349,3.91648 20.75343,-10.49223 25.1925,21.88385"
     style="color:#000000;fill:none;stroke:#ffffff;stroke-width:4.42175102;stroke-linecap:butt;stroke-linejoin:miter;stroke-miterlimit:4;stroke-opacity:1;stroke-dasharray:none;stroke-dashoffset:0;marker:none;visibility:visible;display:inline;overflow:visible;enable-background:accumulate" />
  <path
     sodipodi:type="arc"
     style="fill:none;stroke:#ffffff;stroke-width:1.38768625;stroke-linecap:square;stroke-linejoin:round;stroke-miterlimit:4;stroke-opacity:1;stroke-dasharray:none"
     id="path4812"
     sodipodi:cx="25.419195"
     sodipodi:cy="21.930208"
     sodipodi:rx="15.044013"
     sodipodi:ry="13.487736"
     d="m 40.463208,21.930208 a 15.044013,13.487736 0 1 1 -30.088026,0 15.044013,13.487736 0 1 1 30.088026,0 z"
     transform="matrix(3.0171065,0,0,3.3652344,84.464594,281.93713)" />
  <path
     transform="matrix(0.58378048,0,0,0.55138004,101.16516,-161.13024)"
     clip-path="url(#clipPath4806-6)"
     sodipodi:nodetypes="cc"
     inkscape:connector-curvature="0"
     id="path3777"
     d="m 60.835037,945.55877 0,60.17733"
     style="color:#000000;fill:none;stroke:#ffffff;stroke-width:7.57433891;stroke-linecap:butt;stroke-linejoin:miter;stroke-miterlimit:4;stroke-opacity:1;stroke-dasharray:none;stroke-dashoffset:0;marker:none;visibility:visible;display:inline;overflow:visible;enable-background:accumulate" />
  <path
     transform="matrix(0.58378048,0,0,0.58378048,98.86404,-191.18982)"
     clip-path="url(#clipPath4786-3)"
     sodipodi:nodetypes="cc"
     inkscape:connector-curvature="0"
     id="path3777-1"
     d="m 90.668661,938.26874 0,46.90841"
     style="color:#000000;fill:none;stroke:#ffffff;stroke-width:7.57433891;stroke-linecap:butt;stroke-linejoin:miter;stroke-miterlimit:4;stroke-opacity:1;stroke-dasharray:none;stroke-dashoffset:0;marker:none;visibility:visible;display:inline;overflow:visible;enable-background:accumulate" />
  <path
     transform="matrix(0.58378048,0,0,0.58378048,100.97319,-196.34888)"
     clip-path="url(#clipPath4782-5)"
     sodipodi:nodetypes="cc"
     inkscape:connector-curvature="0"
     id="path3777-4"
     d="m 110.94266,930.34054 0,49.321"
     style="color:#000000;fill:none;stroke:#ffffff;stroke-width:7.57433891;stroke-linecap:butt;stroke-linejoin:miter;stroke-miterlimit:4;stroke-opacity:1;stroke-dasharray:none;stroke-dashoffset:0;marker:none;visibility:visible;display:inline;overflow:visible;enable-background:accumulate" />
  <text
     clip-path="url(#clipPath4778-2)"
     transform="matrix(0.59030057,0,0,0.57733243,100.4898,-198.38154)"
     sodipodi:linespacing="125%"
     id="text3147"
     y="1025.2566"
     x="66.125481"
     style="font-size:20px;font-style:oblique;font-variant:normal;font-weight:normal;font-stretch:normal;line-height:125%;letter-spacing:0px;word-spacing:0px;fill:#000000;fill-opacity:1;stroke:none;font-family:Faster One;-inkscape-font-specification:Faster One"
     xml:space="preserve"><tspan
       style="font-size:20px;font-style:oblique;font-variant:normal;font-weight:bold;font-stretch:normal;letter-spacing:0px;fill:#ffffff;stroke:none;font-family:Troika;-inkscape-font-specification:Troika Bold Oblique"
       y="1025.2566"
       x="66.125481"
       id="tspan3149"
       sodipodi:role="line">irol</tspan></text>
  <a
     transform="matrix(1.2633575,0,0,1.2633575,64.580219,-887.62503)"
     id="a3852">
    <text
       xml:space="preserve"
       style="font-size:20px;font-style:oblique;font-variant:normal;font-weight:normal;font-stretch:normal;line-height:125%;letter-spacing:2px;word-spacing:0px;fill:#000000;fill-opacity:1;stroke:none;font-family:Troika;-inkscape-font-specification:Troika Oblique"
       x="93.963905"
       y="1009.4035"
       id="text3167"
       sodipodi:linespacing="125%"
       inkscape:transform-center-x="3.783326"
       inkscape:transform-center-y="-4.8353452"
       transform="matrix(0.46724746,0,0,0.45698264,27.58682,545.16914)"
       clip-path="url(#clipPath4766-2)"><tspan
         sodipodi:role="line"
         id="tspan3169"
         x="93.963905"
         y="1009.4035"
         style="font-size:20px;font-style:oblique;font-variant:normal;font-weight:bold;font-stretch:normal;letter-spacing:0px;fill:#ffffff;stroke:none;font-family:Troika;-inkscape-font-specification:Troika Bold Oblique">rail</tspan></text>
  </a>
  <text
     clip-path="url(#clipPath4758-6)"
     transform="matrix(0.59030057,0,0,0.57733243,103.13272,-199.54021)"
     sodipodi:linespacing="125%"
     id="text3179"
     y="991.4967"
     x="123.13772"
     style="font-size:20px;font-style:oblique;font-variant:normal;font-weight:normal;font-stretch:normal;line-height:125%;letter-spacing:2px;word-spacing:0px;fill:#000000;fill-opacity:1;stroke:none;font-family:Troika;-inkscape-font-specification:Troika Oblique"
     xml:space="preserve"><tspan
       style="font-size:20px;font-style:oblique;font-variant:normal;font-weight:bold;font-stretch:normal;letter-spacing:0px;fill:#ffffff;font-family:Troika;-inkscape-font-specification:Troika Bold Oblique"
       y="991.4967"
       x="123.13772"
       id="tspan3181"
       sodipodi:role="line">ead</tspan></text>
  <path
     transform="matrix(0.58378048,0,0,0.58378048,102.73302,-200.0331)"
     clip-path="url(#clipPath4754-6)"
     sodipodi:nodetypes="cc"
     inkscape:connector-curvature="0"
     id="path3777-4-7"
     d="m 119.76156,930.59758 0,50.87751"
     style="color:#000000;fill:none;stroke:#ffffff;stroke-width:7.57433891;stroke-linecap:butt;stroke-linejoin:miter;stroke-miterlimit:4;stroke-opacity:1;stroke-dasharray:none;stroke-dashoffset:0;marker:none;visibility:visible;display:inline;overflow:visible;enable-background:accumulate" />
</svg>
