<?xml version="1.0" encoding="UTF-8" standalone="no"?>
<svg
   xmlns:dc="http://purl.org/dc/elements/1.1/"
   xmlns:cc="http://creativecommons.org/ns#"
   xmlns:rdf="http://www.w3.org/1999/02/22-rdf-syntax-ns#"
   xmlns:svg="http://www.w3.org/2000/svg"
   xmlns="http://www.w3.org/2000/svg"
   xmlns:xlink="http://www.w3.org/1999/xlink"
   xmlns:sodipodi="http://sodipodi.sourceforge.net/DTD/sodipodi-0.dtd"
   xmlns:inkscape="http://www.inkscape.org/namespaces/inkscape"
   version="1.0"
   width="100%"
   height="100%"
   viewBox="0 0 1130 585.71428"
   preserveAspectRatio="xMidYMid meet"
   id="svg2"
   inkscape:version="0.48.5 r10040"
   sodipodi:docname="strava_ice_square.svg"
   inkscape:export-filename="D:\Projekte\tiroltrailhead\webmap\images\your_stencils\icedearth_banner_bgfog.png"
   inkscape:export-xdpi="200"
   inkscape:export-ydpi="200">
  <metadata
     id="metadata40">
    <rdf:RDF>
      <cc:Work
         rdf:about="">
        <dc:format>image/svg+xml</dc:format>
        <dc:type
           rdf:resource="http://purl.org/dc/dcmitype/StillImage" />
        <dc:title></dc:title>
      </cc:Work>
    </rdf:RDF>
  </metadata>
  <defs
     id="defs38">
    <clipPath
       clipPathUnits="userSpaceOnUse"
       id="clipPath3808">
      <path
         sodipodi:type="arc"
         style="fill:none;stroke:#ff8dff;stroke-width:3.5;stroke-linecap:round;stroke-linejoin:round;stroke-miterlimit:4;stroke-opacity:1;stroke-dasharray:none"
         id="path3810"
         sodipodi:cx="202.11864"
         sodipodi:cy="248.38136"
         sodipodi:rx="204.81355"
         sodipodi:ry="214.24576"
         d="m 406.93219,248.38136 a 204.81355,214.24576 0 1 1 -409.6271058,0 204.81355,214.24576 0 1 1 409.6271058,0 z"
         transform="matrix(0.94563991,0,0,0.94563991,-3.8348464,-26.086973)" />
    </clipPath>
    <clipPath
       clipPathUnits="userSpaceOnUse"
       id="clipPath3812">
      <path
         sodipodi:type="arc"
         style="fill:none;stroke:#ff8dff;stroke-width:3.5;stroke-linecap:round;stroke-linejoin:round;stroke-miterlimit:4;stroke-opacity:1;stroke-dasharray:none"
         id="path3814"
         sodipodi:cx="202.11864"
         sodipodi:cy="248.38136"
         sodipodi:rx="204.81355"
         sodipodi:ry="214.24576"
         d="m 406.93219,248.38136 a 204.81355,214.24576 0 1 1 -409.6271058,0 204.81355,214.24576 0 1 1 409.6271058,0 z"
         transform="matrix(9.2072679,0,0,-9.2952547,-42.865823,4439.6956)" />
    </clipPath>
    <clipPath
       clipPathUnits="userSpaceOnUse"
       id="clipPath3808-1">
      <path
         sodipodi:type="arc"
         style="fill:none;stroke:#ff8dff;stroke-width:3.5;stroke-linecap:round;stroke-linejoin:round;stroke-miterlimit:4;stroke-opacity:1;stroke-dasharray:none"
         id="path3810-7"
         sodipodi:cx="202.11864"
         sodipodi:cy="248.38136"
         sodipodi:rx="204.81355"
         sodipodi:ry="214.24576"
         d="m 406.93219,248.38136 a 204.81355,214.24576 0 1 1 -409.6271058,0 204.81355,214.24576 0 1 1 409.6271058,0 z"
         transform="matrix(0.94563991,0,0,0.94563991,-3.8348464,-26.086973)" />
    </clipPath>
    <clipPath
       clipPathUnits="userSpaceOnUse"
       id="clipPath3808-1-0">
      <path
         sodipodi:type="arc"
         style="fill:none;stroke:#ff8dff;stroke-width:3.5;stroke-linecap:round;stroke-linejoin:round;stroke-miterlimit:4;stroke-opacity:1;stroke-dasharray:none"
         id="path3810-7-9"
         sodipodi:cx="202.11864"
         sodipodi:cy="248.38136"
         sodipodi:rx="204.81355"
         sodipodi:ry="214.24576"
         d="m 406.93219,248.38136 a 204.81355,214.24576 0 1 1 -409.6271058,0 204.81355,214.24576 0 1 1 409.6271058,0 z"
         transform="matrix(0.94563991,0,0,0.94563991,-3.8348464,-26.086973)" />
    </clipPath>
    <clipPath
       clipPathUnits="userSpaceOnUse"
       id="clipPath3808-1-0-4">
      <path
         sodipodi:type="arc"
         style="fill:none;stroke:#ff8dff;stroke-width:3.5;stroke-linecap:round;stroke-linejoin:round;stroke-miterlimit:4;stroke-opacity:1;stroke-dasharray:none"
         id="path3810-7-9-5"
         sodipodi:cx="202.11864"
         sodipodi:cy="248.38136"
         sodipodi:rx="204.81355"
         sodipodi:ry="214.24576"
         d="m 406.93219,248.38136 a 204.81355,214.24576 0 1 1 -409.6271058,0 204.81355,214.24576 0 1 1 409.6271058,0 z"
         transform="matrix(0.94563991,0,0,0.94563991,-3.8348464,-26.086973)" />
    </clipPath>
    <clipPath
       clipPathUnits="userSpaceOnUse"
       id="clipPath3884">
      <path
         sodipodi:type="arc"
         style="fill:none;stroke:#00a0ff;stroke-opacity:1"
         id="path3886"
         sodipodi:cx="214.3582"
         sodipodi:cy="215.81009"
         sodipodi:rx="202.4239"
         sodipodi:ry="204.71896"
         d="m 416.7821,215.81009 a 202.4239,204.71896 0 1 1 -404.847804,0 202.4239,204.71896 0 1 1 404.847804,0 z"
         transform="matrix(0.92874406,0,0,0.91833212,16.651326,13.034634)" />
    </clipPath>
    <clipPath
       clipPathUnits="userSpaceOnUse"
       id="clipPath3888">
      <path
         sodipodi:type="arc"
         style="fill:none;stroke:#00a0ff;stroke-opacity:1"
         id="path3890"
         sodipodi:cx="214.3582"
         sodipodi:cy="215.81009"
         sodipodi:rx="202.4239"
         sodipodi:ry="204.71896"
         d="m 416.7821,215.81009 a 202.4239,204.71896 0 1 1 -404.847804,0 202.4239,204.71896 0 1 1 404.847804,0 z"
         transform="matrix(0.92874406,0,0,0.91833212,16.651326,13.034634)" />
    </clipPath>
    <clipPath
       clipPathUnits="userSpaceOnUse"
       id="clipPath3892">
      <path
         sodipodi:type="arc"
         style="fill:none;stroke:#00a0ff;stroke-opacity:1"
         id="path3894"
         sodipodi:cx="214.3582"
         sodipodi:cy="215.81009"
         sodipodi:rx="202.4239"
         sodipodi:ry="204.71896"
         d="m 416.7821,215.81009 a 202.4239,204.71896 0 1 1 -404.847804,0 202.4239,204.71896 0 1 1 404.847804,0 z"
         transform="matrix(0.92874406,0,0,0.91833212,16.651326,13.034634)" />
    </clipPath>
    <clipPath
       clipPathUnits="userSpaceOnUse"
       id="clipPath3900">
      <path
         sodipodi:type="arc"
         style="fill:none;stroke:#00a0ff;stroke-opacity:1"
         id="path3902"
         sodipodi:cx="214.3582"
         sodipodi:cy="215.81009"
         sodipodi:rx="202.4239"
         sodipodi:ry="204.71896"
         d="m 416.7821,215.81009 a 202.4239,204.71896 0 1 1 -404.847804,0 202.4239,204.71896 0 1 1 404.847804,0 z"
         transform="matrix(0.92874406,0,0,0.91833212,16.651326,13.034634)" />
    </clipPath>
    <clipPath
       clipPathUnits="userSpaceOnUse"
       id="clipPath4289">
      <path
         transform="matrix(-3.9341424,1.1822852,1.1690309,3.8900376,986.22198,-1413.3949)"
         d="m 416.7821,215.81009 a 202.4239,204.71896 0 1 1 -404.847804,0 202.4239,204.71896 0 1 1 404.847804,0 z"
         sodipodi:ry="204.71896"
         sodipodi:rx="202.4239"
         sodipodi:cy="215.81009"
         sodipodi:cx="214.3582"
         id="path4291"
         style="fill:none;stroke:#00a0ff;stroke-opacity:1"
         sodipodi:type="arc" />
    </clipPath>
    <clipPath
       clipPathUnits="userSpaceOnUse"
       id="clipPath3880">
      <path
         sodipodi:type="arc"
         style="fill:none;stroke:#00a0ff;stroke-opacity:1"
         id="path3882"
         sodipodi:cx="214.3582"
         sodipodi:cy="215.81009"
         sodipodi:rx="202.4239"
         sodipodi:ry="204.71896"
         d="m 416.7821,215.81009 a 202.4239,204.71896 0 1 1 -404.847804,0 202.4239,204.71896 0 1 1 404.847804,0 z"
         transform="matrix(2.9145413,-0.87587558,0.86605633,2.881867,-370.48109,-539.62499)" />
    </clipPath>
    <clipPath
       clipPathUnits="userSpaceOnUse"
       id="clipPath4563">
      <rect
         style="fill:#808080;fill-opacity:0;fill-rule:nonzero;stroke:#00a0ff;stroke-width:0.85724819;stroke-linecap:round;stroke-linejoin:round;stroke-miterlimit:4;stroke-opacity:1;stroke-dasharray:none"
         id="rect4565"
         width="379.93997"
         height="362.07959"
         x="-61.610199"
         y="35.488533"
         rx="14.52653"
         ry="14.526528" />
    </clipPath>
    <clipPath
       clipPathUnits="userSpaceOnUse"
       id="clipPath4583">
      <path
         style="fill:none;stroke:#000000;stroke-width:0.65888572px;stroke-linecap:butt;stroke-linejoin:miter;stroke-opacity:1"
         d="m -280.17553,24.021475 8.00482,-8.781046 10.74621,-8.7602351 12.01661,-7.43233652 11.57339,-4.06022638 12.53979,-2.2142037 13.46969,-0.8101542 12.84797,-0.4779602 17.39562,1.0828314 9.88853,2.522774 10.22346,4.73568687 14.52683,16.96315383 10.12169,14.943831 c 3.18901,10.218978 2.96216,19.619709 6.04872,27.824102 2.43879,6.700056 3.56468,12.524858 4.83897,18.448581 0.10854,4.951404 2.15851,0.919499 -2.57071,13.760839 0,0 -2.8486,8.234988 -1.66339,10.887688 0.99841,2.2346 3.25352,24.97058 -1.05853,29.78992 -0.009,2.38581 -2.3612,4.31791 -4.38532,5.89751 l -3.62923,2.41948 c 0,0 -3.02436,1.81461 -4.2341,5.44385 -1.20974,3.62922 -3.93167,6.04871 -3.93167,6.04871 0,0 -1.81461,2.11706 -4.2341,5.74629 -2.41949,3.62923 -3.32679,1.51218 -4.53654,8.77064 -1.20974,7.25847 -3.62923,13.91205 -5.44384,19.96076 -1.81462,6.04873 1.20974,2.41949 -2.41949,8.46821 -3.62923,6.04871 -2.41949,8.46821 -5.44385,11.49257 -3.02435,3.02436 -2.41948,3.62923 -8.4682,7.25847 -6.04872,3.62923 -8.46821,4.2341 -9.07308,7.25846 -0.60487,3.02436 -1.81461,5.44385 -0.60487,10.28282 1.20974,4.83896 1.81461,12.7023 2.41949,16.33153 0.60487,3.62924 3.02436,8.46821 3.02436,8.46821 0,0 5.44384,7.25846 8.4682,9.07308 3.02436,1.81461 6.04872,9.67795 6.04872,9.67795 0,0 1.81461,6.04871 2.41949,8.4682 0.60487,2.41949 0.60487,4.83897 3.62923,9.07307 3.02436,4.23411 6.65359,7.86334 9.67795,12.09744 3.02435,4.23411 11.49256,18.14615 11.49256,18.14615 0,0 3.02436,6.65359 5.44384,10.28283 2.41949,3.62921 18.28337,38.4555 18.28337,38.4555 -103.83611,-0.99682 -140.30769,2.27114 -252.02831,0.99856 -24.35249,-0.27739 -19.98386,-17.22946 -21.03339,-29.80787 1.04323,-57.24654 1.62107,-65.99892 43.33079,-119.69178 -59.94757,65.93388 -5.28705,0.0223 -7.51603,-16.37262 0,0 -3.02436,3.62923 -6.65359,7.25847 -10.46082,14.30198 -6.30387,4.3143 -2.41949,-3.62924 2.41949,-4.83897 5.44385,-14.51692 5.44385,-14.51692 0,0 -0.60487,-1.20974 -3.62923,4.2341 -3.02436,5.44385 -4.2341,7.25846 -6.65359,10.28282 -2.41949,3.02436 -7.25846,9.07307 -4.83898,3.62924 2.41949,-5.44385 7.25847,-13.91206 7.25847,-13.91206 0,0 4.83897,-12.70231 3.62922,-9.67795 -1.20974,3.02436 -6.04871,9.07308 -9.67794,12.09744 -3.62923,3.02436 -10.88769,12.7023 -4.83898,1.20974 6.04872,-11.49256 13.91205,-22.98512 13.91205,-22.98512 0,0 6.6536,-12.70231 7.25847,-17.54129 0.60487,-4.83896 4.2341,-10.88769 0.60487,-6.04871 -3.62923,4.83897 -9.07308,11.49256 -13.91205,18.14614 -4.83898,6.65361 -15.72667,16.33155 -22.38025,22.98513 -6.6536,6.6536 -3.02437,1.81462 -7.25847,7.25847 -4.2341,5.44385 -7.25846,9.07307 -12.09743,14.51691 -4.83897,5.44385 -12.70231,10.8877 -6.04872,3.62924 6.65359,-7.25846 9.07308,-9.07308 16.33154,-18.75102 7.25846,-9.67795 7.86333,-10.8877 13.30717,-20.56565 5.44385,-9.67795 13.30718,-22.98512 13.30718,-22.98512 0,0 -2.41949,-1.20974 1.20975,-9.07308 3.62923,-7.86333 9.67794,-18.75102 9.67794,-18.75102 l 12.70231,-18.75102 -15.12179,7.86334 c 0,0 -0.60487,-1.81462 -9.67795,1.8146 -9.07308,3.62923 -14.51692,5.44385 -19.3559,9.67795 -4.83897,4.23411 -11.49256,9.67796 -11.49256,9.67796 0,0 12.09744,-14.51694 13.91205,-17.54128 1.81462,-3.02436 5.44384,-7.86334 1.81462,-4.83898 -3.62923,3.02436 -11.49256,5.44385 -11.49256,5.44385 0,0 4.23409,-5.44385 7.86333,-6.65359 3.62923,-1.20976 9.07307,-2.41949 12.7023,-9.07308 3.62923,-6.6536 3.62923,-13.307177 11.49257,-19.355898 7.86333,-6.048712 10.28282,-11.492566 16.9364,-15.726667 6.6536,-4.23411 27.82411,-14.516922 32.05821,-16.331543 4.2341,-1.814612 12.7023,-8.77064 16.33153,-10.887693 2.15422,-1.256628 4.23411,-3.780438 10.88769,-11.0389 6.6536,-7.258463 12.70231,-13.760834 12.70231,-13.760834 z"
         id="path4585"
         inkscape:connector-curvature="0"
         sodipodi:nodetypes="ccccccccccccccccscccscssssssssscscssscscsccccccssscssscssssssssscscccsscsscsssssssc" />
    </clipPath>
  </defs>
  <sodipodi:namedview
     pagecolor="#89ffff"
     bordercolor="#666666"
     borderopacity="1"
     objecttolerance="10"
     gridtolerance="10"
     guidetolerance="10"
     inkscape:pageopacity="0"
     inkscape:pageshadow="2"
     inkscape:window-width="1462"
     inkscape:window-height="841"
     id="namedview36"
     showgrid="false"
     inkscape:zoom="0.7"
     inkscape:cx="850.91729"
     inkscape:cy="295.56713"
     inkscape:window-x="66"
     inkscape:window-y="-8"
     inkscape:window-maximized="1"
     inkscape:current-layer="g3097"
     fit-margin-top="0"
     fit-margin-left="0"
     fit-margin-right="0"
     fit-margin-bottom="0"
     inkscape:snap-grids="false">
    <inkscape:grid
       type="xygrid"
       id="grid3295"
       empspacing="5"
       visible="true"
       enabled="true"
       snapvisiblegridlinesonly="true"
       originx="748.56898px"
       originy="-29.108041px" />
  </sodipodi:namedview>
  <flowRoot
     xml:space="preserve"
     id="flowRoot3038"
     style="font-size:40px;font-style:normal;font-variant:normal;font-weight:normal;font-stretch:normal;text-align:start;line-height:125%;letter-spacing:-1px;word-spacing:0px;writing-mode:lr-tb;text-anchor:start;fill:#000000;fill-opacity:1;stroke:none;font-family:Snap ITC;-inkscape-font-specification:Snap ITC"
     clip-path="url(#clipPath3892)"
     transform="translate(748.56899,194.29327)"><flowRegion
       id="flowRegion3040"><rect
         id="rect3042"
         width="39.474957"
         height="40.392979"
         x="164.32599"
         y="152.46655" /></flowRegion><flowPara
       id="flowPara3044" /></flowRoot>  <flowRoot
     xml:space="preserve"
     id="flowRoot3801"
     style="font-size:40px;font-style:normal;font-variant:normal;font-weight:normal;font-stretch:normal;text-align:start;line-height:125%;letter-spacing:-1px;word-spacing:0px;writing-mode:lr-tb;text-anchor:start;fill:#000000;fill-opacity:1;stroke:none;font-family:Snap ITC;-inkscape-font-specification:Snap ITC"
     clip-path="url(#clipPath3888)"
     transform="translate(748.56899,194.29327)"><flowRegion
       id="flowRegion3803"><rect
         id="rect3805"
         width="123.01498"
         height="79.867935"
         x="105.57256"
         y="251.61296" /></flowRegion><flowPara
       id="flowPara3807" /></flowRoot>  <flowRoot
     xml:space="preserve"
     id="flowRoot3809"
     style="font-size:40px;font-style:normal;font-variant:normal;font-weight:normal;font-stretch:normal;text-align:start;line-height:125%;letter-spacing:-1px;word-spacing:0px;writing-mode:lr-tb;text-anchor:start;fill:#000000;fill-opacity:1;stroke:none;font-family:Snap ITC;-inkscape-font-specification:Snap ITC"
     clip-path="url(#clipPath3884)"
     transform="translate(748.56899,194.29327)"><flowRegion
       id="flowRegion3811"><rect
         id="rect3813"
         width="106.49059"
         height="84.458046"
         x="131.27719"
         y="300.26813" /></flowRegion><flowPara
       id="flowPara3815" /></flowRoot>  <g
     id="g3097"
     transform="matrix(0.99143261,0,0,0.99143261,-10.352117,101.41733)">
    <image
       y="-232.61543"
       x="7.1381636"
       id="image3888"
       xlink:href="file:///D:/Projekte/tiroltrailhead/images/pre-selection/DSC_0514.jpg"
       height="858.47699"
       width="1144.636"
       clip-path="none" />
    <rect
       ry="0"
       rx="0"
       y="-224.19533"
       x="25.643225"
       height="580.92847"
       width="1120.7668"
       id="rect3901"
       style="fill:none;stroke:none" />
    <flowRoot
       transform="matrix(3.6106279,0,0,3.7120004,200.83528,-162.298)"
       style="font-size:40px;font-style:normal;font-variant:normal;font-weight:normal;font-stretch:normal;text-align:center;line-height:125%;letter-spacing:0.04796534px;word-spacing:0px;writing-mode:lr-tb;text-anchor:middle;fill:#d7e3f4;fill-opacity:1;stroke:none;font-family:Snap ITC;-inkscape-font-specification:Snap ITC"
       id="flowRoot3817"
       xml:space="preserve"><flowRegion
         id="flowRegion3819"><rect
           style="text-align:center;letter-spacing:0.04796534px;text-anchor:middle;fill:#d7e3f4;fill-opacity:1"
           y="23.02541"
           x="-134.94928"
           height="218.4893"
           width="351.60254"
           id="rect3821" /></flowRegion><flowPara
         id="flowPara3176"
         style="font-style:normal;font-variant:normal;font-weight:normal;font-stretch:normal;text-align:center;line-height:87.99999952%;letter-spacing:0.04796534px;text-anchor:middle;fill:#162d50;fill-opacity:1;stroke:#d7e3f4;stroke-width:0.81988037;stroke-miterlimit:4;stroke-opacity:1;stroke-dasharray:none;font-family:IcedEarth;-inkscape-font-specification:IcedEarth">ICED </flowPara><flowPara
         id="flowPara3833"
         style="font-style:normal;font-variant:normal;font-weight:normal;font-stretch:normal;text-align:center;line-height:87.99999952%;letter-spacing:0.04796534px;text-anchor:middle;fill:#162d50;fill-opacity:1;fill-rule:nonzero;stroke:#d7e3f4;stroke-opacity:1;font-family:IcedEarth;-inkscape-font-specification:IcedEarth" /></flowRoot>    <flowRoot
       xml:space="preserve"
       id="flowRoot3098"
       style="font-size:40px;font-style:normal;font-variant:normal;font-weight:normal;font-stretch:normal;text-align:start;line-height:125%;letter-spacing:-1px;word-spacing:0px;writing-mode:lr-tb;text-anchor:start;fill:#000000;fill-opacity:1;stroke:none;font-family:Snap ITC;-inkscape-font-specification:Snap ITC"
       transform="matrix(0.98333172,0,0,0.98333172,15.942463,27.434821)"><flowRegion
         id="flowRegion3100"><rect
           id="rect3102"
           width="341.42856"
           height="54.285713"
           x="318.57144"
           y="251.42896" /></flowRegion><flowPara
         id="flowPara3104" /></flowRoot>    <text
       xml:space="preserve"
       style="font-size:30.97251129px;font-style:normal;font-variant:normal;font-weight:normal;font-stretch:normal;text-align:start;line-height:76.99999809%;letter-spacing:-0.77431273px;word-spacing:0px;writing-mode:lr-tb;text-anchor:start;fill:#162d50;fill-opacity:1;stroke:#d7e3f4;stroke-width:1.31633174;stroke-miterlimit:4;stroke-opacity:1;stroke-dasharray:none;font-family:Troika;-inkscape-font-specification:Troika"
       x="904.49475"
       y="155.0899"
       id="text3106"
       sodipodi:linespacing="76.999998%"
       inkscape:export-filename="D:\Projekte\tiroltrailhead\webmap\images\your_stencils\g3135.png"
       inkscape:export-xdpi="250"
       inkscape:export-ydpi="250"><tspan
         sodipodi:role="line"
         id="tspan3108"
         x="904.49475"
         y="155.0899"
         style="font-style:normal;font-variant:normal;font-weight:normal;font-stretch:normal;line-height:76.99999809%;fill:#162d50;fill-opacity:1;stroke:#d7e3f4;stroke-width:1.31633174;stroke-miterlimit:4;stroke-opacity:1;stroke-dasharray:none;font-family:Troika;-inkscape-font-specification:Troika">Winter'20 </tspan><tspan
         sodipodi:role="line"
         x="904.49475"
         y="178.93874"
         style="font-style:normal;font-variant:normal;font-weight:normal;font-stretch:normal;line-height:76.99999809%;fill:#162d50;fill-opacity:1;stroke:#d7e3f4;stroke-width:1.31633174;stroke-miterlimit:4;stroke-opacity:1;stroke-dasharray:none;font-family:Troika;-inkscape-font-specification:Troika"
         id="tspan3878">Segment Hunt</tspan></text>
    <rect
       style="fill:none;stroke:none"
       id="rect3891"
       width="1136.3528"
       height="585.1792"
       x="21.392536"
       y="-115.09409"
       rx="14.652058"
       ry="14.652058" />
    <flowRoot
       xml:space="preserve"
       id="flowRoot4110"
       style="font-size:40px;font-style:normal;font-variant:normal;font-weight:normal;font-stretch:normal;text-align:start;line-height:125%;letter-spacing:-1px;word-spacing:0px;writing-mode:lr-tb;text-anchor:start;fill:#000000;fill-opacity:1;stroke:none;font-family:Snap ITC;-inkscape-font-specification:Snap ITC"
       transform="matrix(0.99182908,0,0,0.99182908,26.209994,-73.153848)"><flowRegion
         id="flowRegion4112"><rect
           id="rect4114"
           width="201.42857"
           height="118.57143"
           x="308.57144"
           y="294.28571" /></flowRegion><flowPara
         id="flowPara4116" /></flowRoot>    <flowRoot
       transform="matrix(3.7650352,0,0,3.7677048,252.21497,-42.312283)"
       style="font-size:40px;font-style:normal;font-variant:normal;font-weight:normal;font-stretch:normal;text-align:center;line-height:125%;letter-spacing:0.04796534px;word-spacing:0px;writing-mode:lr-tb;text-anchor:middle;fill:#d7e3f4;fill-opacity:1;stroke:none;font-family:Snap ITC;-inkscape-font-specification:Snap ITC"
       id="flowRoot3817-1"
       xml:space="preserve"
       inkscape:transform-center-x="284.75311"
       inkscape:transform-center-y="-73.103444"><flowRegion
         id="flowRegion3819-7"><rect
           style="text-align:center;letter-spacing:0.04796534px;text-anchor:middle;fill:#d7e3f4;fill-opacity:1"
           y="23.02541"
           x="-134.94928"
           height="218.4893"
           width="351.60254"
           id="rect3821-4" /></flowRegion><flowPara
         id="flowPara3833-9"
         style="font-style:normal;font-variant:normal;font-weight:normal;font-stretch:normal;text-align:center;line-height:87.99999952%;letter-spacing:0.04796534px;text-anchor:middle;fill:#162d50;fill-opacity:1;fill-rule:nonzero;stroke:#d7e3f4;stroke-width:0.81988037;stroke-miterlimit:4;stroke-opacity:1;stroke-dasharray:none;font-family:IcedEarth;-inkscape-font-specification:IcedEarth">EAR</flowPara></flowRoot>    <flowRoot
       transform="matrix(3.7650352,0,0,3.7677048,363.08183,-65.259211)"
       style="font-size:40px;font-style:normal;font-variant:normal;font-weight:normal;font-stretch:normal;text-align:center;line-height:125%;letter-spacing:0.04796534px;word-spacing:0px;writing-mode:lr-tb;text-anchor:middle;fill:#d7e3f4;fill-opacity:1;stroke:none;font-family:Snap ITC;-inkscape-font-specification:Snap ITC"
       id="flowRoot3817-1-1"
       xml:space="preserve"
       inkscape:transform-center-x="287.21381"
       inkscape:transform-center-y="-73.735161"><flowRegion
         id="flowRegion3819-7-7"><rect
           style="text-align:center;letter-spacing:0.04796534px;text-anchor:middle;fill:#d7e3f4;fill-opacity:1"
           y="23.02541"
           x="-134.94928"
           height="218.4893"
           width="351.60254"
           id="rect3821-4-4" /></flowRegion><flowPara
         id="flowPara3176-0-0"
         style="font-style:normal;font-variant:normal;font-weight:normal;font-stretch:normal;text-align:center;line-height:87.99999952%;letter-spacing:0.04796534px;text-anchor:middle;fill:#162d50;fill-opacity:1;stroke:#d7e3f4;stroke-width:0.81988037;stroke-miterlimit:4;stroke-opacity:1;stroke-dasharray:none;font-family:IcedEarth;-inkscape-font-specification:IcedEarth">TH</flowPara><flowPara
         id="flowPara3833-9-9"
         style="font-style:normal;font-variant:normal;font-weight:normal;font-stretch:normal;text-align:center;line-height:87.99999952%;letter-spacing:0.04796534px;text-anchor:middle;fill:#162d50;fill-opacity:1;fill-rule:nonzero;stroke:#d7e3f4;stroke-opacity:1;font-family:IcedEarth;-inkscape-font-specification:IcedEarth" /></flowRoot>  </g>
  <image
     y="-10.690279"
     x="-424.38028"
     id="image3920"
     xlink:href="file:///D:/Projekte/tiroltrailhead/webmap/images/your_stencils/2020-11-20%2010_53_30-'Game%20of%20Thrones'_%20The%20huge%20difference%20between%20White%20Walkers%20and%20wights%20-%20Busine.jpg"
     height="494.03482"
     width="342.61633"
     clip-path="url(#clipPath4583)"
     transform="matrix(1.2197962,0,0,1.2699692,466.73689,113.7819)" />
  <g
     id="g3135"
     transform="matrix(-0.10201572,0.26577191,0.28147039,0.10161418,1024.6542,107.37474)"
     clip-path="url(#clipPath3880)"
     inkscape:export-xdpi="250"
     inkscape:export-ydpi="250">
    <g
       id="g3051">
      <path
         id="path3053"
         d="m 191.039,333.947 c -1.001,0 -1.998,-0.058 -2.987,-0.176 -8.962,-1.07 -16.093,-6.596 -20.08,-15.558 -1.706,-3.836 0.021,-8.329 3.857,-10.034 3.834,-1.704 8.328,0.021 10.035,3.856 1.772,3.985 4.46,6.22 7.991,6.64 4.147,0.492 9.063,-1.606 11.676,-5 2.397,-3.112 3.263,-7.481 2.261,-11.401 -0.64,-2.503 -2.331,-5.896 -6.753,-7.839 -13.172,-5.791 -28.175,-0.242 -45.548,6.179 C 120.026,312.248 80.864,326.727 37.326,274.96 L 19.295,253.521 c -3.632,-4.317 -5.36,-9.791 -4.868,-15.412 0.492,-5.62 3.147,-10.709 7.473,-14.329 11.735,-9.82 27.551,-13.266 42.307,-9.215 l 8.852,2.43 c 4.708,1.291 9.75,0.188 13.487,-2.956 l 24.017,-20.201 c 3.213,-2.7 8.008,-2.288 10.71,0.925 2.702,3.213 2.288,8.007 -0.924,10.71 l -24.018,20.201 c -7.563,6.36 -17.767,8.593 -27.297,5.98 l -8.851,-2.43 c -9.949,-2.731 -20.613,-0.408 -28.527,6.214 -1.207,1.01 -1.947,2.429 -2.084,3.997 -0.138,1.568 0.344,3.095 1.357,4.3 l 18.031,21.439 c 36.657,43.584 66.093,32.701 97.258,21.18 18.751,-6.933 38.14,-14.102 56.938,-5.839 7.821,3.438 13.278,9.828 15.364,17.993 2.165,8.472 0.317,17.608 -4.945,24.442 -5.234,6.799 -14.001,10.997 -22.536,10.997 z"
         style="fill:#ff901d"
         inkscape:connector-curvature="0" />
      <path
         id="path3055"
         d="m 333.481,213.91 c -3.993,0.001 -8.002,-0.824 -11.723,-2.484 -7.697,-3.434 -13.076,-9.889 -15.146,-18.177 -4.977,-19.92 5.357,-37.825 15.351,-55.139 16.61,-28.776 32.298,-55.958 -4.485,-99.436 L 299.384,17.287 c -1.017,-1.201 -2.44,-1.933 -4.009,-2.062 -1.567,-0.134 -3.093,0.361 -4.291,1.381 -7.86,6.683 -11.947,16.804 -10.932,27.072 l 0.903,9.134 c 0.971,9.834 -2.952,19.516 -10.496,25.898 L 246.6,98.98 c -3.205,2.714 -8.001,2.312 -10.713,-0.894 -2.712,-3.205 -2.312,-8.001 0.893,-10.712 l 23.959,-20.27 c 3.728,-3.153 5.666,-7.937 5.186,-12.797 l -0.903,-9.134 c -1.505,-15.228 4.556,-30.236 16.213,-40.149 4.298,-3.654 9.763,-5.415 15.384,-4.951 5.623,0.462 10.726,3.088 14.37,7.395 l 18.094,21.388 c 43.688,51.639 22.816,87.799 6.046,116.855 -9.259,16.041 -17.255,29.896 -13.768,43.855 1.17,4.686 4.23,6.925 6.59,7.977 3.696,1.649 8.148,1.531 11.62,-0.307 3.785,-2.003 6.685,-6.489 6.896,-10.666 0.179,-3.55 -1.57,-6.577 -5.199,-8.996 -3.493,-2.329 -4.438,-7.048 -2.11,-10.541 2.328,-3.493 7.048,-4.437 10.541,-2.11 8.163,5.44 12.407,13.401 11.952,22.415 -0.479,9.471 -6.493,18.85 -14.967,23.335 -4.071,2.153 -8.627,3.237 -13.203,3.237 z"
         style="fill:#ff901d"
         inkscape:connector-curvature="0" />
    </g>
    <path
       style="fill:#fed9a8"
       d="m 345.309,460.639 -47.817,3.436 -44.971,46.172 c -1.09,1.119 -2.61621,2.05175 -4.15,1.751 l -44.22648,-8.67219 c -5.39359,-1.0576 -21.29518,-5.15178 -43.18576,-12.01386 L 231.33,388.75 278.525,310.085 c 7.911,-13.186 26.202,-15.221 36.818,-4.097 l 88.557,67.843 c 13.385,10.254 14.214,30.128 1.73,41.462 l -37.222,33.79 c -6.484,5.966 -14.506,9.978 -23.099,11.556 z"
       id="path3057"
       inkscape:connector-curvature="0"
       sodipodi:nodetypes="cccssccscsccc" />
    <path
       style="fill:#f4c28c"
       d="m 403.9,373.832 -21.651,-16.587 c 2.328,9.273 -0.287,19.597 -8.036,26.632 l -37.222,33.79 c -6.484,5.965 -14.506,9.977 -23.1,11.555 l -47.817,3.436 -62.26239,70.50885 c 27.19346,6.06429 27.85978,6.06581 46.55752,9.39522 L 297.492,464.075 l 47.817,-3.436 c 8.594,-1.578 16.615,-5.59 23.1,-11.555 l 37.222,-33.79 c 12.484,-11.334 11.655,-31.208 -1.731,-41.462 z"
       id="path3059"
       inkscape:connector-curvature="0"
       sodipodi:nodetypes="ccccccccccccc" />
    <path
       id="path3061"
       d="m 336.501,335.224 8.936,9.612 c -5.031,0.537 -10.186,-1.171 -13.834,-5.095 l -8.131,-8.746 c 4.674,-0.86 9.615,0.557 13.029,4.229 z"
       style="fill:#e8d06b"
       inkscape:connector-curvature="0" />
    <polygon
       id="polygon3063"
       points="451.619,417.485 394.845,465.234 245.168,260.519 274.633,235.737 "
       style="fill:#f7bc14" />
    <path
       id="path3065"
       d="m 65.003,176.751 48.915,58.159 c 34.687,41.243 89.334,61.509 147.215,54.594 l 34.32,-4.1 9.922,-33.11 C 322.108,196.454 311.509,139.143 276.821,97.9 L 227.906,39.741 65.003,176.751 z"
       style="fill:#fed130"
       inkscape:connector-curvature="0" />
    <path
       id="path3067"
       d="m 276.821,97.901 -48.915,-58.159 -34.944,29.39 51.574,61.054 c 34.687,41.243 45.287,98.554 28.554,154.394 l -1.087,3.626 23.45,-2.801 9.922,-33.11 c 16.732,-55.839 6.133,-113.15 -28.554,-154.394 z"
       style="fill:#f7bc14"
       inkscape:connector-curvature="0" />
    <path
       id="path3069"
       d="M 243.304,45.899 68.429,192.977 c -2.547,2.142 -6.349,1.814 -8.491,-0.733 L 48.872,179.086 c -2.142,-2.547 -1.814,-6.349 0.733,-8.491 L 224.48,23.517 c 2.547,-2.142 6.349,-1.814 8.491,0.733 l 11.066,13.158 c 2.143,2.547 1.815,6.348 -0.733,8.491 z"
       style="fill:#ffb125"
       inkscape:connector-curvature="0" />
    <path
       id="path3071"
       d="M 244.037,37.408 232.971,24.25 c -2.142,-2.547 -5.944,-2.875 -8.491,-0.733 L 193.586,49.5 212.41,71.882 243.304,45.899 c 2.548,-2.143 2.876,-5.944 0.733,-8.491 z"
       style="fill:#ff901d"
       inkscape:connector-curvature="0" />
    <path
       id="path3073"
       d="m 189.094,157.089 31.298,13.717 c 0.401,0.176 0.864,0.143 1.236,-0.088 l 29.043,-18.006 c 0.938,-0.581 2.135,0.165 2.026,1.263 l -3.374,34.005 c -0.043,0.436 0.131,0.866 0.465,1.148 l 26.099,22.057 c 0.843,0.712 0.503,2.082 -0.575,2.318 l -33.383,7.299 c -0.428,0.094 -0.783,0.392 -0.948,0.798 l -12.913,31.638 c -0.417,1.022 -1.825,1.122 -2.382,0.169 l -17.258,-29.494 c -0.221,-0.378 -0.615,-0.623 -1.052,-0.655 l -34.08,-2.504 c -1.101,-0.081 -1.631,-1.389 -0.897,-2.213 l 22.717,-25.527 c 0.291,-0.327 0.403,-0.777 0.298,-1.203 l -8.15,-33.186 c -0.261,-1.07 0.819,-1.979 1.83,-1.536 z"
       style="fill:#ffffff"
       inkscape:connector-curvature="0" />
    <path
       id="path3075"
       d="m 494.125,413.381 -106.643,89.692 c -4.629,3.894 -11.638,2.762 -14.806,-2.391 L 355.05,472.015 c -2.569,-4.177 -1.692,-9.606 2.061,-12.762 l 99.047,-83.303 c 3.753,-3.156 9.251,-3.09 12.927,0.157 l 25.222,22.279 c 4.534,4.003 4.448,11.101 -0.182,14.995 z"
       style="fill:#ffb125"
       inkscape:connector-curvature="0" />
    <path
       id="path3077"
       d="m 494.307,398.384 -25.222,-22.279 c -3.675,-3.246 -9.174,-3.313 -12.927,-0.157 l -28.899,24.306 40.226,35.532 26.64,-22.405 c 4.63,-3.894 4.716,-10.992 0.182,-14.997 z"
       style="fill:#ff901d"
       inkscape:connector-curvature="0" />
    <path
       id="path3079"
       d="m 386.244,413.718 0,0 c 7.223,7.781 19.387,8.231 27.165,1.005 l 24.058,-22.35 c 7.774,-7.222 8.224,-19.378 1.004,-27.155 l 0,0 c -7.223,-7.781 -19.387,-8.231 -27.165,-1.005 l -24.058,22.35 c -7.774,7.222 -8.224,19.378 -1.004,27.155 z"
       style="fill:#f4c28c"
       inkscape:connector-curvature="0" />
    <path
       id="path3081"
       d="m 387.248,386.562 24.058,-22.35 c 7.778,-7.226 19.942,-6.776 27.165,1.005 l 0,0 c 4.188,4.512 5.79,10.497 4.883,16.138 -7.318,-6.236 -18.308,-6.143 -25.525,0.561 l -24.058,22.35 c -3.264,3.032 -5.231,6.935 -5.888,11.017 -0.569,-0.485 -1.119,-1.004 -1.64,-1.565 l 0,0 c -7.219,-7.777 -6.769,-19.933 1.005,-27.156 z"
       style="fill:#fed9a8"
       inkscape:connector-curvature="0" />
    <path
       id="path3083"
       d="m 366.97,379.037 0,0 c 7.332,7.898 19.68,8.355 27.575,1.02 l 23.633,-21.955 c 7.891,-7.331 8.348,-19.671 1.019,-27.565 l 0,0 c -7.332,-7.898 -19.68,-8.355 -27.575,-1.02 l -23.633,21.955 c -7.891,7.331 -8.348,19.67 -1.019,27.565 z"
       style="fill:#f4c28c"
       inkscape:connector-curvature="0" />
    <path
       id="path3085"
       d="m 367.989,351.471 23.633,-21.955 c 7.896,-7.335 20.243,-6.878 27.575,1.02 l 0,0 c 4.2,4.525 5.838,10.509 4.99,16.175 -7.428,-6.465 -18.69,-6.415 -26.067,0.438 l -23.633,21.955 c -3.368,3.129 -5.377,7.172 -6.009,11.391 -0.522,-0.454 -1.027,-0.939 -1.508,-1.458 l 0,0 c -7.329,-7.895 -6.872,-20.234 1.019,-27.566 z"
       style="fill:#fed9a8"
       inkscape:connector-curvature="0" />
    <path
       id="path3087"
       d="m 340.293,350.692 0,0 c 7.332,7.898 19.68,8.355 27.575,1.02 l 23.633,-21.955 c 7.891,-7.331 8.348,-19.671 1.019,-27.565 l 0,0 c -7.332,-7.898 -19.68,-8.355 -27.575,-1.02 l -23.633,21.955 c -7.891,7.332 -8.347,19.671 -1.019,27.565 z"
       style="fill:#f4c28c"
       inkscape:connector-curvature="0" />
    <path
       id="path3089"
       d="m 341.313,323.127 23.633,-21.955 c 7.896,-7.335 20.243,-6.878 27.575,1.02 l 0,0 c 0.506,0.545 0.971,1.113 1.403,1.697 -4.288,0.301 -8.505,2.01 -11.9,5.164 l -23.633,21.955 c -7.347,6.825 -8.246,17.99 -2.422,25.868 -5.686,0.399 -11.495,-1.681 -15.675,-6.184 l 0,0 c -7.329,-7.894 -6.873,-20.233 1.019,-27.565 z"
       style="fill:#fed9a8"
       inkscape:connector-curvature="0" />
    <path
       id="path3091"
       d="m 314.602,321.286 0,0 c 7.332,7.898 19.68,8.355 27.575,1.02 l 23.633,-21.955 c 7.891,-7.331 8.348,-19.671 1.019,-27.565 l 0,0 c -7.332,-7.898 -19.68,-8.355 -27.575,-1.02 l -23.633,21.955 c -7.891,7.331 -8.347,19.671 -1.019,27.565 z"
       style="fill:#f4c28c"
       inkscape:connector-curvature="0" />
    <g
       id="g3093">
      <path
         id="path3095"
         d="m 315.621,293.721 23.633,-21.955 c 7.896,-7.335 20.243,-6.878 27.575,1.02 l 0,0 c 4.196,4.52 5.835,10.497 4.993,16.157 -7.428,-6.477 -18.699,-6.431 -26.081,0.427 l -23.633,21.955 c -3.373,3.134 -5.383,7.183 -6.012,11.408 -0.517,-0.451 -1.017,-0.932 -1.494,-1.446 l 0,0 c -7.328,-7.895 -6.872,-20.235 1.019,-27.566 z"
         style="fill:#fed9a8"
         inkscape:connector-curvature="0" />
      <path
         id="path3097"
         d="m 359.758,336.216 -4.383,4.072 c -6.895,6.406 -17.536,6.161 -23.772,-0.546 l -11.034,-11.869 c -5.401,-5.81 -14.628,-5.991 -20.564,-0.404 l 0,0 c 3.322,51.398 -68.674,61.283 -68.674,61.283 l 30.601,-75.27 c 1.887,-5.615 5.152,-10.702 9.492,-14.787 l 21.733,-20.454 c 10.566,-9.944 26.988,-9.628 36.61,0.707 l 31.178,33.488 c 6.251,6.711 5.719,17.364 -1.187,23.78 z"
         style="fill:#fed9a8"
         inkscape:connector-curvature="0" />
    </g>
    <g
       id="g3099" />
    <g
       id="g3101" />
    <g
       id="g3103" />
    <g
       id="g3105" />
    <g
       id="g3107" />
    <g
       id="g3109" />
    <g
       id="g3111" />
    <g
       id="g3113" />
    <g
       id="g3115" />
    <g
       id="g3117" />
    <g
       id="g3119" />
    <g
       id="g3121" />
    <g
       id="g3123" />
    <g
       id="g3125" />
    <g
       id="g3127" />
  </g>
  <g
     transform="matrix(0.68680678,0,0,0.68680678,-171.0144,394.36849)"
     id="g3940"
     clip-path="none">
    <g
       transform="matrix(1.7364032,0,0,1.955077,-277.95329,-251.00435)"
       id="g3987">
      <path
         style="fill:#ff6600;fill-opacity:1;stroke:none"
         d="m 172.57655,23.449839 -20.94234,41.297322 6.30197,-7.462805 7.2947,-13.097743 1.3691,0.09422 -6.25573,11.66744 5.1171,-5.474514 15.34234,-22.311573 -9.31291,7.4135 -3.9549,6.609325 -1.14131,-0.30574 4.76414,-8.653586 z"
         id="path3017"
         inkscape:connector-curvature="0"
         sodipodi:nodetypes="ccccccccccccc"
         clip-path="url(#clipPath3808)"
         transform="matrix(2.6969563,-0.87812515,0.94539363,1.7976485,-107.44957,269.08617)" />
      <path
         style="fill:#ff6600;fill-opacity:1;stroke:none"
         d="m 150.88423,32.263826 8.96187,4.537956 10.96126,-1.609651 -22.48847,41.202929 14.99957,-18.700702 13.61861,-23.118663 10.29694,-2.390223 6.43883,-2.717422 z"
         id="path3017-4-4"
         inkscape:connector-curvature="0"
         sodipodi:nodetypes="ccccccccc"
         clip-path="url(#clipPath3808-1-0)"
         transform="matrix(2.005519,-0.71658421,0.82489841,1.7529931,-9.2549147,236.8105)" />
      <path
         style="fill:#ff6600;fill-opacity:1;stroke:none"
         d="m 159.03141,34.386153 7.12671,3.340659 4.47802,-1.057068 -12.73438,24.229412 8.73268,-7.973375 9.42301,-17.216391 10.04413,-4.516326 z"
         id="path3017-4-4-5"
         inkscape:connector-curvature="0"
         sodipodi:nodetypes="cccccccc"
         clip-path="url(#clipPath3808-1-0-4)"
         transform="matrix(1.923396,-0.73860028,0.79112008,1.8068514,-10.539639,256.66397)" />
    </g>
  </g>
  <rect
     style="fill:#d7e3f4;fill-opacity:0;fill-rule:nonzero;stroke:none"
     id="rect3090"
     width="1265.7151"
     height="631.42896"
     x="-1.2857208"
     y="-37.286098"
     rx="14.526528"
     ry="14.526528" />
</svg>
