<?xml version="1.0" encoding="UTF-8" standalone="no"?>
<svg
   xmlns:dc="http://purl.org/dc/elements/1.1/"
   xmlns:cc="http://creativecommons.org/ns#"
   xmlns:rdf="http://www.w3.org/1999/02/22-rdf-syntax-ns#"
   xmlns:svg="http://www.w3.org/2000/svg"
   xmlns="http://www.w3.org/2000/svg"
   xmlns:xlink="http://www.w3.org/1999/xlink"
   xmlns:sodipodi="http://sodipodi.sourceforge.net/DTD/sodipodi-0.dtd"
   xmlns:inkscape="http://www.inkscape.org/namespaces/inkscape"
   version="1.0"
   width="100%"
   height="100%"
   viewBox="0 0 462.14228 469.47855"
   preserveAspectRatio="xMidYMid meet"
   id="svg2"
   inkscape:version="0.48.5 r10040"
   sodipodi:docname="strava_pokal.svg"
   inkscape:export-filename="D:\Projekte\tiroltrailhead\webmap\images\your_stencils\icedearth.png"
   inkscape:export-xdpi="200"
   inkscape:export-ydpi="200">
  <metadata
     id="metadata40">
    <rdf:RDF>
      <cc:Work
         rdf:about="">
        <dc:format>image/svg+xml</dc:format>
        <dc:type
           rdf:resource="http://purl.org/dc/dcmitype/StillImage" />
        <dc:title></dc:title>
      </cc:Work>
    </rdf:RDF>
  </metadata>
  <defs
     id="defs38">
    <clipPath
       clipPathUnits="userSpaceOnUse"
       id="clipPath3808">
      <path
         sodipodi:type="arc"
         style="fill:none;stroke:#ff8dff;stroke-width:3.5;stroke-linecap:round;stroke-linejoin:round;stroke-miterlimit:4;stroke-opacity:1;stroke-dasharray:none"
         id="path3810"
         sodipodi:cx="202.11864"
         sodipodi:cy="248.38136"
         sodipodi:rx="204.81355"
         sodipodi:ry="214.24576"
         d="m 406.93219,248.38136 a 204.81355,214.24576 0 1 1 -409.6271058,0 204.81355,214.24576 0 1 1 409.6271058,0 z"
         transform="matrix(0.94563991,0,0,0.94563991,-3.8348464,-26.086973)" />
    </clipPath>
    <clipPath
       clipPathUnits="userSpaceOnUse"
       id="clipPath3812">
      <path
         sodipodi:type="arc"
         style="fill:none;stroke:#ff8dff;stroke-width:3.5;stroke-linecap:round;stroke-linejoin:round;stroke-miterlimit:4;stroke-opacity:1;stroke-dasharray:none"
         id="path3814"
         sodipodi:cx="202.11864"
         sodipodi:cy="248.38136"
         sodipodi:rx="204.81355"
         sodipodi:ry="214.24576"
         d="m 406.93219,248.38136 a 204.81355,214.24576 0 1 1 -409.6271058,0 204.81355,214.24576 0 1 1 409.6271058,0 z"
         transform="matrix(9.2072679,0,0,-9.2952547,-42.865823,4439.6956)" />
    </clipPath>
    <clipPath
       clipPathUnits="userSpaceOnUse"
       id="clipPath3808-1">
      <path
         sodipodi:type="arc"
         style="fill:none;stroke:#ff8dff;stroke-width:3.5;stroke-linecap:round;stroke-linejoin:round;stroke-miterlimit:4;stroke-opacity:1;stroke-dasharray:none"
         id="path3810-7"
         sodipodi:cx="202.11864"
         sodipodi:cy="248.38136"
         sodipodi:rx="204.81355"
         sodipodi:ry="214.24576"
         d="m 406.93219,248.38136 a 204.81355,214.24576 0 1 1 -409.6271058,0 204.81355,214.24576 0 1 1 409.6271058,0 z"
         transform="matrix(0.94563991,0,0,0.94563991,-3.8348464,-26.086973)" />
    </clipPath>
    <clipPath
       clipPathUnits="userSpaceOnUse"
       id="clipPath3808-1-0">
      <path
         sodipodi:type="arc"
         style="fill:none;stroke:#ff8dff;stroke-width:3.5;stroke-linecap:round;stroke-linejoin:round;stroke-miterlimit:4;stroke-opacity:1;stroke-dasharray:none"
         id="path3810-7-9"
         sodipodi:cx="202.11864"
         sodipodi:cy="248.38136"
         sodipodi:rx="204.81355"
         sodipodi:ry="214.24576"
         d="m 406.93219,248.38136 a 204.81355,214.24576 0 1 1 -409.6271058,0 204.81355,214.24576 0 1 1 409.6271058,0 z"
         transform="matrix(0.94563991,0,0,0.94563991,-3.8348464,-26.086973)" />
    </clipPath>
    <clipPath
       clipPathUnits="userSpaceOnUse"
       id="clipPath3808-1-0-4">
      <path
         sodipodi:type="arc"
         style="fill:none;stroke:#ff8dff;stroke-width:3.5;stroke-linecap:round;stroke-linejoin:round;stroke-miterlimit:4;stroke-opacity:1;stroke-dasharray:none"
         id="path3810-7-9-5"
         sodipodi:cx="202.11864"
         sodipodi:cy="248.38136"
         sodipodi:rx="204.81355"
         sodipodi:ry="214.24576"
         d="m 406.93219,248.38136 a 204.81355,214.24576 0 1 1 -409.6271058,0 204.81355,214.24576 0 1 1 409.6271058,0 z"
         transform="matrix(0.94563991,0,0,0.94563991,-3.8348464,-26.086973)" />
    </clipPath>
    <clipPath
       clipPathUnits="userSpaceOnUse"
       id="clipPath3884">
      <path
         sodipodi:type="arc"
         style="fill:none;stroke:#00a0ff;stroke-opacity:1"
         id="path3886"
         sodipodi:cx="214.3582"
         sodipodi:cy="215.81009"
         sodipodi:rx="202.4239"
         sodipodi:ry="204.71896"
         d="m 416.7821,215.81009 a 202.4239,204.71896 0 1 1 -404.847804,0 202.4239,204.71896 0 1 1 404.847804,0 z"
         transform="matrix(0.92874406,0,0,0.91833212,16.651326,13.034634)" />
    </clipPath>
    <clipPath
       clipPathUnits="userSpaceOnUse"
       id="clipPath3888">
      <path
         sodipodi:type="arc"
         style="fill:none;stroke:#00a0ff;stroke-opacity:1"
         id="path3890"
         sodipodi:cx="214.3582"
         sodipodi:cy="215.81009"
         sodipodi:rx="202.4239"
         sodipodi:ry="204.71896"
         d="m 416.7821,215.81009 a 202.4239,204.71896 0 1 1 -404.847804,0 202.4239,204.71896 0 1 1 404.847804,0 z"
         transform="matrix(0.92874406,0,0,0.91833212,16.651326,13.034634)" />
    </clipPath>
    <clipPath
       clipPathUnits="userSpaceOnUse"
       id="clipPath3892">
      <path
         sodipodi:type="arc"
         style="fill:none;stroke:#00a0ff;stroke-opacity:1"
         id="path3894"
         sodipodi:cx="214.3582"
         sodipodi:cy="215.81009"
         sodipodi:rx="202.4239"
         sodipodi:ry="204.71896"
         d="m 416.7821,215.81009 a 202.4239,204.71896 0 1 1 -404.847804,0 202.4239,204.71896 0 1 1 404.847804,0 z"
         transform="matrix(0.92874406,0,0,0.91833212,16.651326,13.034634)" />
    </clipPath>
    <clipPath
       clipPathUnits="userSpaceOnUse"
       id="clipPath3900">
      <path
         sodipodi:type="arc"
         style="fill:none;stroke:#00a0ff;stroke-opacity:1"
         id="path3902"
         sodipodi:cx="214.3582"
         sodipodi:cy="215.81009"
         sodipodi:rx="202.4239"
         sodipodi:ry="204.71896"
         d="m 416.7821,215.81009 a 202.4239,204.71896 0 1 1 -404.847804,0 202.4239,204.71896 0 1 1 404.847804,0 z"
         transform="matrix(0.92874406,0,0,0.91833212,16.651326,13.034634)" />
    </clipPath>
    <clipPath
       clipPathUnits="userSpaceOnUse"
       id="clipPath4285">
      <path
         transform="matrix(1.1509474,0,0,0.82502731,-74.841264,-1.300027)"
         d="m 416.7821,215.81009 a 202.4239,204.71896 0 1 1 -404.847804,0 202.4239,204.71896 0 1 1 404.847804,0 z"
         sodipodi:ry="204.71896"
         sodipodi:rx="202.4239"
         sodipodi:cy="215.81009"
         sodipodi:cx="214.3582"
         id="path4287"
         style="fill:none;stroke:#00a0ff;stroke-opacity:1"
         sodipodi:type="arc" />
    </clipPath>
    <clipPath
       clipPathUnits="userSpaceOnUse"
       id="clipPath4289">
      <path
         transform="matrix(-3.9341424,1.1822852,1.1690309,3.8900376,986.22198,-1413.3949)"
         d="m 416.7821,215.81009 a 202.4239,204.71896 0 1 1 -404.847804,0 202.4239,204.71896 0 1 1 404.847804,0 z"
         sodipodi:ry="204.71896"
         sodipodi:rx="202.4239"
         sodipodi:cy="215.81009"
         sodipodi:cx="214.3582"
         id="path4291"
         style="fill:none;stroke:#00a0ff;stroke-opacity:1"
         sodipodi:type="arc" />
    </clipPath>
    <clipPath
       clipPathUnits="userSpaceOnUse"
       id="clipPath4293">
      <path
         transform="matrix(1.0017158,0,0,1.0017158,-0.02375012,-0.43062127)"
         d="m 416.7821,215.81009 a 202.4239,204.71896 0 1 1 -404.847804,0 202.4239,204.71896 0 1 1 404.847804,0 z"
         sodipodi:ry="204.71896"
         sodipodi:rx="202.4239"
         sodipodi:cy="215.81009"
         sodipodi:cx="214.3582"
         id="path4295"
         style="fill:none;stroke:#00a0ff;stroke-opacity:1"
         sodipodi:type="arc" />
    </clipPath>
    <clipPath
       clipPathUnits="userSpaceOnUse"
       id="clipPath4438">
      <path
         sodipodi:nodetypes="ccccccccccccccccscccscssssssssscscssscsccccccssscssscssssssssscscccsscsscsssssssc"
         inkscape:connector-curvature="0"
         id="path4440"
         d="m -280.17553,24.021475 8.00482,-8.781046 10.74621,-8.760235 12.01661,-7.432337 11.57339,-4.060226 12.53979,-2.214204 13.46969,-0.810154 12.84797,-0.47796 17.39562,1.082831 9.88853,2.522775 10.22346,4.735686 14.52683,16.963154 10.12169,14.943831 c 3.18901,10.218983 2.96216,19.619713 6.04872,27.824103 2.43879,6.70006 3.56468,12.52486 4.83897,18.44858 0.10854,4.9514 2.15851,0.9195 -2.57071,13.76084 0,0 -2.8486,8.234987 -1.66339,10.887687 0.99841,2.2346 3.25352,24.97058 -1.05853,29.78992 -0.009,2.38581 -2.3612,4.31791 -4.38532,5.89751 l -3.62923,2.41948 c 0,0 -3.02436,1.81461 -4.2341,5.44385 -1.20974,3.62922 -3.93167,6.04871 -3.93167,6.04871 0,0 -1.81461,2.11706 -4.2341,5.74629 -2.41949,3.62923 -3.32679,1.51218 -4.53654,8.77064 -1.20974,7.25847 -3.62923,13.91205 -5.44384,19.96076 -1.81462,6.04873 1.20974,2.41949 -2.41949,8.46821 -3.62923,6.04871 -2.41949,8.46821 -5.44385,11.49257 -3.02435,3.02436 -2.41948,3.62923 -8.4682,7.25847 -6.04872,3.62923 -8.46821,4.2341 -9.07308,7.25846 -0.60487,3.02436 -1.81461,5.44385 -0.60487,10.28282 1.20974,4.83896 1.81461,12.7023 2.41949,16.33153 0.60487,3.62924 3.02436,8.46821 3.02436,8.46821 0,0 5.44384,7.25846 8.4682,9.07308 3.02436,1.81461 6.04872,9.67795 6.04872,9.67795 0,0 1.81461,6.04871 2.41949,8.4682 0.60487,2.41949 0.60487,4.83897 3.62923,9.07307 3.02436,4.23411 6.65359,7.86334 9.67795,12.09744 3.02435,4.23411 11.49256,18.14615 11.49256,18.14615 0,0 3.02436,6.65359 5.44384,10.28283 2.41949,3.62921 3.62923,8.4682 3.62923,8.4682 -113.67408,7.6652 -176.05177,-60.76193 -201.49509,-128.10043 -15.96878,7.77494 -18.86873,9.60894 -21.09771,-6.78598 0,0 -3.02436,3.62923 -6.65359,7.25847 -10.46082,14.30198 -6.30387,4.3143 -2.41949,-3.62924 2.41949,-4.83897 5.44385,-14.51692 5.44385,-14.51692 0,0 -0.60487,-1.20974 -3.62923,4.2341 -3.02436,5.44385 -4.2341,7.25846 -6.65359,10.28282 -2.41949,3.02436 -7.25846,9.07307 -4.83898,3.62924 2.41949,-5.44385 7.25847,-13.91206 7.25847,-13.91206 0,0 4.83897,-12.70231 3.62922,-9.67795 -1.20974,3.02436 -6.04871,9.07308 -9.67794,12.09744 -3.62923,3.02436 -10.88769,12.7023 -4.83898,1.20974 6.04872,-11.49256 13.91205,-22.98512 13.91205,-22.98512 0,0 6.6536,-12.70231 7.25847,-17.54129 0.60487,-4.83896 4.2341,-10.88769 0.60487,-6.04871 -3.62923,4.83897 -9.07308,11.49256 -13.91205,18.14614 -4.83898,6.65361 -15.72667,16.33155 -22.38025,22.98513 -6.6536,6.6536 -3.02437,1.81462 -7.25847,7.25847 -4.2341,5.44385 -7.25846,9.07307 -12.09743,14.51691 -4.83897,5.44385 -12.70231,10.8877 -6.04872,3.62924 6.65359,-7.25846 9.07308,-9.07308 16.33154,-18.75102 7.25846,-9.67795 7.86333,-10.8877 13.30717,-20.56565 5.44385,-9.67795 13.30718,-22.98512 13.30718,-22.98512 0,0 -2.41949,-1.20974 1.20975,-9.07308 3.62923,-7.86333 9.67794,-18.75102 9.67794,-18.75102 l 12.70231,-18.75102 -15.12179,7.86334 c 0,0 -0.60487,-1.81462 -9.67795,1.8146 -9.07308,3.62923 -14.51692,5.44385 -19.3559,9.67795 -4.83897,4.23411 -11.49256,9.67796 -11.49256,9.67796 0,0 12.09744,-14.51694 13.91205,-17.54128 1.81462,-3.02436 5.44384,-7.86334 1.81462,-4.83898 -3.62923,3.02436 -11.49256,5.44385 -11.49256,5.44385 0,0 4.23409,-5.44385 7.86333,-6.65359 3.62923,-1.20976 9.07307,-2.41949 12.7023,-9.07308 3.62923,-6.6536 3.62923,-13.307177 11.49257,-19.355897 7.86333,-6.04872 10.28282,-11.49257 16.9364,-15.72667 6.6536,-4.2341 27.82411,-14.51692 32.05821,-16.33154 4.2341,-1.81461 12.7023,-8.77064 16.33153,-10.88769 2.15422,-1.25663 4.23411,-3.78044 10.88769,-11.038905 6.6536,-7.258461 12.70231,-13.760833 12.70231,-13.760833 z"
         style="fill:none;stroke:#000000;stroke-width:0.65888572px;stroke-linecap:butt;stroke-linejoin:miter;stroke-opacity:1" />
    </clipPath>
  </defs>
  <sodipodi:namedview
     pagecolor="#89ffff"
     bordercolor="#666666"
     borderopacity="1"
     objecttolerance="10"
     gridtolerance="10"
     guidetolerance="10"
     inkscape:pageopacity="0"
     inkscape:pageshadow="2"
     inkscape:window-width="1462"
     inkscape:window-height="841"
     id="namedview36"
     showgrid="false"
     inkscape:zoom="0.77025014"
     inkscape:cx="120.91098"
     inkscape:cy="172.45243"
     inkscape:window-x="66"
     inkscape:window-y="-8"
     inkscape:window-maximized="1"
     inkscape:current-layer="svg2"
     fit-margin-top="47"
     fit-margin-left="0"
     fit-margin-right="5"
     fit-margin-bottom="47"
     inkscape:snap-grids="false">
    <inkscape:grid
       type="xygrid"
       id="grid3295"
       empspacing="5"
       visible="true"
       enabled="true"
       snapvisiblegridlinesonly="true"
       originx="54.048043px"
       originy="25.546791px" />
  </sodipodi:namedview>
  <path
     sodipodi:type="arc"
     style="fill:#004455;fill-opacity:1;fill-rule:nonzero;stroke:none"
     id="path3104"
     sodipodi:cx="214.3582"
     sodipodi:cy="215.81009"
     sodipodi:rx="202.4239"
     sodipodi:ry="204.71896"
     d="m 416.7821,215.81009 a 202.4239,204.71896 0 1 1 -404.847804,0 202.4239,204.71896 0 1 1 404.847804,0 z"
     transform="matrix(0.92715328,0,0,0.91675917,70.721389,36.832108)"
     clip-path="url(#clipPath4293)" />
  <g
     id="g3180"
     transform="matrix(0.84616535,0,0,1.1672023,114.77021,27.765118)"
     clip-path="url(#clipPath4285)">
    <flowRoot
       transform="matrix(2.6183389,0,0,2.7335663,194.50067,18.12736)"
       style="font-size:40px;font-style:normal;font-variant:normal;font-weight:normal;font-stretch:normal;text-align:center;line-height:125%;letter-spacing:-1px;word-spacing:0px;writing-mode:lr-tb;text-anchor:middle;fill:#00004d;fill-opacity:1;stroke:none;font-family:Snap ITC;-inkscape-font-specification:Snap ITC"
       id="flowRoot3817-1"
       xml:space="preserve"><flowRegion
         id="flowRegion3819-7"><rect
           style="text-align:center;text-anchor:middle;fill:#00004d;fill-opacity:1"
           y="23.02541"
           x="-134.94928"
           height="218.4893"
           width="351.60254"
           id="rect3821-4" /></flowRegion><flowPara
         style="font-style:normal;font-variant:normal;font-weight:normal;font-stretch:normal;text-align:center;line-height:87.99999952%;letter-spacing:0px;text-anchor:middle;fill:#00004d;fill-opacity:1;stroke:none;font-family:IcedEarth;-inkscape-font-specification:IcedEarth"
         id="flowPara3823-0">ICED<flowSpan
   id="flowSpan3829-9"
   style="text-align:center;line-height:87.99999952%;letter-spacing:0px;text-anchor:middle;fill:none;stroke:none">i</flowSpan></flowPara><flowPara
         id="flowPara3178"
         style="font-style:normal;font-variant:normal;font-weight:normal;font-stretch:normal;text-align:center;line-height:87.99999952%;letter-spacing:0px;text-anchor:middle;fill:#00004d;fill-opacity:1;stroke:none;font-family:IcedEarth;-inkscape-font-specification:IcedEarth">EARTH</flowPara><flowPara
         id="flowPara3833-4"
         style="font-style:normal;font-variant:normal;font-weight:normal;font-stretch:normal;text-align:center;line-height:87.99999952%;letter-spacing:0px;text-anchor:middle;fill:#00004d;fill-opacity:1;stroke:none;font-family:IcedEarth;-inkscape-font-specification:IcedEarth" /></flowRoot>    <flowRoot
       transform="matrix(2.6183389,0,0,2.7335663,188.74461,13.958703)"
       style="font-size:40px;font-style:normal;font-variant:normal;font-weight:normal;font-stretch:normal;text-align:center;line-height:125%;letter-spacing:-1px;word-spacing:0px;writing-mode:lr-tb;text-anchor:middle;fill:#ffffff;fill-opacity:1;stroke:none;font-family:Snap ITC;-inkscape-font-specification:Snap ITC"
       id="flowRoot3817"
       xml:space="preserve"><flowRegion
         id="flowRegion3819"><rect
           style="text-align:center;text-anchor:middle;fill:#ffffff;fill-opacity:1"
           y="23.02541"
           x="-134.94928"
           height="218.4893"
           width="351.60254"
           id="rect3821" /></flowRegion><flowPara
         style="font-style:normal;font-variant:normal;font-weight:normal;font-stretch:normal;text-align:center;line-height:87.99999952%;letter-spacing:0px;text-anchor:middle;fill:#ffffff;fill-opacity:1;stroke:none;font-family:IcedEarth;-inkscape-font-specification:IcedEarth"
         id="flowPara3823">ICED<flowSpan
   id="flowSpan3829"
   style="text-align:center;line-height:87.99999952%;letter-spacing:0px;text-anchor:middle;fill:none;stroke:none">i</flowSpan></flowPara><flowPara
         id="flowPara3176"
         style="font-style:normal;font-variant:normal;font-weight:normal;font-stretch:normal;text-align:center;line-height:87.99999952%;letter-spacing:0px;text-anchor:middle;fill:#ffffff;fill-opacity:1;stroke:none;font-family:IcedEarth;-inkscape-font-specification:IcedEarth">EARTH</flowPara><flowPara
         id="flowPara3833"
         style="font-style:normal;font-variant:normal;font-weight:normal;font-stretch:normal;text-align:center;line-height:87.99999952%;letter-spacing:0px;text-anchor:middle;fill:#ffffff;fill-opacity:1;stroke:none;font-family:IcedEarth;-inkscape-font-specification:IcedEarth" /></flowRoot>  </g>
  <image
     y="-10.690279"
     x="-424.38028"
     id="image3920"
     xlink:href="file:///D:/Desktop/2020-11-20%2010_53_30-'Game%20of%20Thrones'_%20The%20huge%20difference%20between%20White%20Walkers%20and%20wights%20-%20Busine.jpg"
     height="494.03482"
     width="342.61633"
     clip-path="url(#clipPath4438)"
     transform="matrix(1.0037,0,0,1.0156945,420.38184,74.939857)" />
  <g
     transform="matrix(0.72759905,0,0,0.72759905,-111.30155,171.01183)"
     id="g3940"
     clip-path="none">
    <g
       transform="matrix(1.7364032,0,0,1.955077,-277.95329,-251.00435)"
       id="g3987">
      <path
         style="fill:#ff6600;fill-opacity:1;stroke:none"
         d="m 172.57655,23.449839 -20.94234,41.297322 6.30197,-7.462805 7.2947,-13.097743 1.3691,0.09422 -6.25573,11.66744 5.1171,-5.474514 15.34234,-22.311573 -9.31291,7.4135 -3.9549,6.609325 -1.14131,-0.30574 4.76414,-8.653586 z"
         id="path3017"
         inkscape:connector-curvature="0"
         sodipodi:nodetypes="ccccccccccccc"
         clip-path="url(#clipPath3808)"
         transform="matrix(2.6969563,-0.87812515,0.94539363,1.7976485,-107.44957,269.08617)" />
      <path
         style="fill:#ff6600;fill-opacity:1;stroke:none"
         d="m 150.88423,32.263826 8.96187,4.537956 10.96126,-1.609651 -22.48847,41.202929 14.99957,-18.700702 13.61861,-23.118663 10.29694,-2.390223 6.43883,-2.717422 z"
         id="path3017-4-4"
         inkscape:connector-curvature="0"
         sodipodi:nodetypes="ccccccccc"
         clip-path="url(#clipPath3808-1-0)"
         transform="matrix(2.005519,-0.71658421,0.82489841,1.7529931,-9.2549147,236.8105)" />
      <path
         style="fill:#ff6600;fill-opacity:1;stroke:none"
         d="m 159.03141,34.386153 7.12671,3.340659 4.47802,-1.057068 -12.73438,24.229412 8.73268,-7.973375 9.42301,-17.216391 10.04413,-4.516326 z"
         id="path3017-4-4-5"
         inkscape:connector-curvature="0"
         sodipodi:nodetypes="cccccccc"
         clip-path="url(#clipPath3808-1-0-4)"
         transform="matrix(1.923396,-0.73860028,0.79112008,1.8068514,-10.539639,256.66397)" />
    </g>
  </g>
  <path
     sodipodi:nodetypes="csc"
     inkscape:connector-curvature="0"
     id="path3100"
     d="m 213.43167,98.691748 c 0,0 -1.78749,-15.97224 24.27272,-31.69721 34.45257,-20.78901 72.23799,6.04341 72.23799,6.04341"
     style="fill:none;stroke:none"
     clip-path="url(#clipPath3900)"
     transform="translate(54.048043,23.402698)" />
  <flowRoot
     xml:space="preserve"
     id="flowRoot3038"
     style="font-size:40px;font-style:normal;font-variant:normal;font-weight:normal;font-stretch:normal;text-align:start;line-height:125%;letter-spacing:-1px;word-spacing:0px;writing-mode:lr-tb;text-anchor:start;fill:#000000;fill-opacity:1;stroke:none;font-family:Snap ITC;-inkscape-font-specification:Snap ITC"
     clip-path="url(#clipPath3892)"
     transform="translate(54.048043,23.402698)"><flowRegion
       id="flowRegion3040"><rect
         id="rect3042"
         width="39.474957"
         height="40.392979"
         x="164.32599"
         y="152.46655" /></flowRegion><flowPara
       id="flowPara3044" /></flowRoot>  <flowRoot
     xml:space="preserve"
     id="flowRoot3801"
     style="font-size:40px;font-style:normal;font-variant:normal;font-weight:normal;font-stretch:normal;text-align:start;line-height:125%;letter-spacing:-1px;word-spacing:0px;writing-mode:lr-tb;text-anchor:start;fill:#000000;fill-opacity:1;stroke:none;font-family:Snap ITC;-inkscape-font-specification:Snap ITC"
     clip-path="url(#clipPath3888)"
     transform="translate(54.048043,23.402698)"><flowRegion
       id="flowRegion3803"><rect
         id="rect3805"
         width="123.01498"
         height="79.867935"
         x="105.57256"
         y="251.61296" /></flowRegion><flowPara
       id="flowPara3807" /></flowRoot>  <flowRoot
     xml:space="preserve"
     id="flowRoot3809"
     style="font-size:40px;font-style:normal;font-variant:normal;font-weight:normal;font-stretch:normal;text-align:start;line-height:125%;letter-spacing:-1px;word-spacing:0px;writing-mode:lr-tb;text-anchor:start;fill:#000000;fill-opacity:1;stroke:none;font-family:Snap ITC;-inkscape-font-specification:Snap ITC"
     clip-path="url(#clipPath3884)"
     transform="translate(54.048043,23.402698)"><flowRegion
       id="flowRegion3811"><rect
         id="rect3813"
         width="106.49059"
         height="84.458046"
         x="131.27719"
         y="300.26813" /></flowRegion><flowPara
       id="flowPara3815" /></flowRoot>  <flowRoot
     xml:space="preserve"
     id="flowRoot4442"
     style="font-size:40px;font-style:normal;font-variant:normal;font-weight:normal;font-stretch:normal;text-align:center;line-height:125%;letter-spacing:-1px;word-spacing:0px;writing-mode:lr-tb;text-anchor:middle;fill:#808080;fill-opacity:1;stroke:none;font-family:Snap ITC;-inkscape-font-specification:Snap ITC"
     transform="matrix(0.85710037,0,0,0.85710037,-9.4300689,44.349088)"><flowRegion
       id="flowRegion4444"><rect
         id="rect4446"
         width="258.35764"
         height="168.77635"
         x="238.88344"
         y="311.08844"
         style="text-align:center;text-anchor:middle;fill:#808080" /></flowRegion><flowPara
       id="flowPara4448"
       style="font-style:normal;font-variant:normal;font-weight:normal;font-stretch:normal;text-align:center;line-height:109.00000334%;text-anchor:middle;fill:#808080;font-family:Futura XBlk BT;-inkscape-font-specification:Futura XBlk BT">1st</flowPara><flowPara
       style="font-style:normal;font-variant:normal;font-weight:normal;font-stretch:normal;text-align:center;line-height:109.00000334%;text-anchor:middle;fill:#808080;font-family:Futura XBlk BT;-inkscape-font-specification:Futura XBlk BT"
       id="flowPara4450">Place</flowPara></flowRoot></svg>
