<?xml version="1.0" encoding="UTF-8" standalone="no"?>
<svg
   xmlns:dc="http://purl.org/dc/elements/1.1/"
   xmlns:cc="http://creativecommons.org/ns#"
   xmlns:rdf="http://www.w3.org/1999/02/22-rdf-syntax-ns#"
   xmlns:svg="http://www.w3.org/2000/svg"
   xmlns="http://www.w3.org/2000/svg"
   xmlns:sodipodi="http://sodipodi.sourceforge.net/DTD/sodipodi-0.dtd"
   xmlns:inkscape="http://www.inkscape.org/namespaces/inkscape"
   version="1.0"
   width="100%"
   height="100%"
   viewBox="0 0 427.78311 420.52905"
   preserveAspectRatio="xMidYMid meet"
   id="svg2"
   inkscape:version="0.48.5 r10040"
   sodipodi:docname="strava_pokal.svg"
   inkscape:export-filename="D:\Projekte\tiroltrailhead\webmap\images\your_stencils\icedearth.png"
   inkscape:export-xdpi="200"
   inkscape:export-ydpi="200">
  <metadata
     id="metadata40">
    <rdf:RDF>
      <cc:Work
         rdf:about="">
        <dc:format>image/svg+xml</dc:format>
        <dc:type
           rdf:resource="http://purl.org/dc/dcmitype/StillImage" />
        <dc:title />
      </cc:Work>
    </rdf:RDF>
  </metadata>
  <defs
     id="defs38">
    <clipPath
       clipPathUnits="userSpaceOnUse"
       id="clipPath3808">
      <path
         sodipodi:type="arc"
         style="fill:none;stroke:#ff8dff;stroke-width:3.5;stroke-linecap:round;stroke-linejoin:round;stroke-miterlimit:4;stroke-opacity:1;stroke-dasharray:none"
         id="path3810"
         sodipodi:cx="202.11864"
         sodipodi:cy="248.38136"
         sodipodi:rx="204.81355"
         sodipodi:ry="214.24576"
         d="m 406.93219,248.38136 a 204.81355,214.24576 0 1 1 -409.6271058,0 204.81355,214.24576 0 1 1 409.6271058,0 z"
         transform="matrix(0.94563991,0,0,0.94563991,-3.8348464,-26.086973)" />
    </clipPath>
    <clipPath
       clipPathUnits="userSpaceOnUse"
       id="clipPath3812">
      <path
         sodipodi:type="arc"
         style="fill:none;stroke:#ff8dff;stroke-width:3.5;stroke-linecap:round;stroke-linejoin:round;stroke-miterlimit:4;stroke-opacity:1;stroke-dasharray:none"
         id="path3814"
         sodipodi:cx="202.11864"
         sodipodi:cy="248.38136"
         sodipodi:rx="204.81355"
         sodipodi:ry="214.24576"
         d="m 406.93219,248.38136 a 204.81355,214.24576 0 1 1 -409.6271058,0 204.81355,214.24576 0 1 1 409.6271058,0 z"
         transform="matrix(9.2072679,0,0,-9.2952547,-42.865823,4439.6956)" />
    </clipPath>
    <clipPath
       clipPathUnits="userSpaceOnUse"
       id="clipPath3808-1">
      <path
         sodipodi:type="arc"
         style="fill:none;stroke:#ff8dff;stroke-width:3.5;stroke-linecap:round;stroke-linejoin:round;stroke-miterlimit:4;stroke-opacity:1;stroke-dasharray:none"
         id="path3810-7"
         sodipodi:cx="202.11864"
         sodipodi:cy="248.38136"
         sodipodi:rx="204.81355"
         sodipodi:ry="214.24576"
         d="m 406.93219,248.38136 a 204.81355,214.24576 0 1 1 -409.6271058,0 204.81355,214.24576 0 1 1 409.6271058,0 z"
         transform="matrix(0.94563991,0,0,0.94563991,-3.8348464,-26.086973)" />
    </clipPath>
    <clipPath
       clipPathUnits="userSpaceOnUse"
       id="clipPath3808-1-0">
      <path
         sodipodi:type="arc"
         style="fill:none;stroke:#ff8dff;stroke-width:3.5;stroke-linecap:round;stroke-linejoin:round;stroke-miterlimit:4;stroke-opacity:1;stroke-dasharray:none"
         id="path3810-7-9"
         sodipodi:cx="202.11864"
         sodipodi:cy="248.38136"
         sodipodi:rx="204.81355"
         sodipodi:ry="214.24576"
         d="m 406.93219,248.38136 a 204.81355,214.24576 0 1 1 -409.6271058,0 204.81355,214.24576 0 1 1 409.6271058,0 z"
         transform="matrix(0.94563991,0,0,0.94563991,-3.8348464,-26.086973)" />
    </clipPath>
    <clipPath
       clipPathUnits="userSpaceOnUse"
       id="clipPath3808-1-0-4">
      <path
         sodipodi:type="arc"
         style="fill:none;stroke:#ff8dff;stroke-width:3.5;stroke-linecap:round;stroke-linejoin:round;stroke-miterlimit:4;stroke-opacity:1;stroke-dasharray:none"
         id="path3810-7-9-5"
         sodipodi:cx="202.11864"
         sodipodi:cy="248.38136"
         sodipodi:rx="204.81355"
         sodipodi:ry="214.24576"
         d="m 406.93219,248.38136 a 204.81355,214.24576 0 1 1 -409.6271058,0 204.81355,214.24576 0 1 1 409.6271058,0 z"
         transform="matrix(0.94563991,0,0,0.94563991,-3.8348464,-26.086973)" />
    </clipPath>
    <clipPath
       clipPathUnits="userSpaceOnUse"
       id="clipPath3880">
      <path
         sodipodi:type="arc"
         style="fill:none;stroke:#00a0ff;stroke-opacity:1"
         id="path3882"
         sodipodi:cx="214.3582"
         sodipodi:cy="215.81009"
         sodipodi:rx="202.4239"
         sodipodi:ry="204.71896"
         d="m 416.7821,215.81009 a 202.4239,204.71896 0 1 1 -404.847804,0 202.4239,204.71896 0 1 1 404.847804,0 z"
         transform="matrix(2.9145413,-0.87587558,0.86605633,2.881867,-370.48109,-539.62499)" />
    </clipPath>
    <clipPath
       clipPathUnits="userSpaceOnUse"
       id="clipPath3884">
      <path
         sodipodi:type="arc"
         style="fill:none;stroke:#00a0ff;stroke-opacity:1"
         id="path3886"
         sodipodi:cx="214.3582"
         sodipodi:cy="215.81009"
         sodipodi:rx="202.4239"
         sodipodi:ry="204.71896"
         d="m 416.7821,215.81009 a 202.4239,204.71896 0 1 1 -404.847804,0 202.4239,204.71896 0 1 1 404.847804,0 z"
         transform="matrix(0.92874406,0,0,0.91833212,16.651326,13.034634)" />
    </clipPath>
    <clipPath
       clipPathUnits="userSpaceOnUse"
       id="clipPath3888">
      <path
         sodipodi:type="arc"
         style="fill:none;stroke:#00a0ff;stroke-opacity:1"
         id="path3890"
         sodipodi:cx="214.3582"
         sodipodi:cy="215.81009"
         sodipodi:rx="202.4239"
         sodipodi:ry="204.71896"
         d="m 416.7821,215.81009 a 202.4239,204.71896 0 1 1 -404.847804,0 202.4239,204.71896 0 1 1 404.847804,0 z"
         transform="matrix(0.92874406,0,0,0.91833212,16.651326,13.034634)" />
    </clipPath>
    <clipPath
       clipPathUnits="userSpaceOnUse"
       id="clipPath3892">
      <path
         sodipodi:type="arc"
         style="fill:none;stroke:#00a0ff;stroke-opacity:1"
         id="path3894"
         sodipodi:cx="214.3582"
         sodipodi:cy="215.81009"
         sodipodi:rx="202.4239"
         sodipodi:ry="204.71896"
         d="m 416.7821,215.81009 a 202.4239,204.71896 0 1 1 -404.847804,0 202.4239,204.71896 0 1 1 404.847804,0 z"
         transform="matrix(0.92874406,0,0,0.91833212,16.651326,13.034634)" />
    </clipPath>
    <clipPath
       clipPathUnits="userSpaceOnUse"
       id="clipPath3896">
      <path
         sodipodi:type="arc"
         style="fill:none;stroke:#00a0ff;stroke-opacity:1"
         id="path3898"
         sodipodi:cx="214.3582"
         sodipodi:cy="215.81009"
         sodipodi:rx="202.4239"
         sodipodi:ry="204.71896"
         d="m 416.7821,215.81009 a 202.4239,204.71896 0 1 1 -404.847804,0 202.4239,204.71896 0 1 1 404.847804,0 z"
         transform="matrix(0.82491037,0,0,0.59131595,62.062986,39.565547)" />
    </clipPath>
    <clipPath
       clipPathUnits="userSpaceOnUse"
       id="clipPath3900">
      <path
         sodipodi:type="arc"
         style="fill:none;stroke:#00a0ff;stroke-opacity:1"
         id="path3902"
         sodipodi:cx="214.3582"
         sodipodi:cy="215.81009"
         sodipodi:rx="202.4239"
         sodipodi:ry="204.71896"
         d="m 416.7821,215.81009 a 202.4239,204.71896 0 1 1 -404.847804,0 202.4239,204.71896 0 1 1 404.847804,0 z"
         transform="matrix(0.92874406,0,0,0.91833212,16.651326,13.034634)" />
    </clipPath>
    <clipPath
       clipPathUnits="userSpaceOnUse"
       id="clipPath3904">
      <path
         sodipodi:type="arc"
         style="fill:none;stroke:#00a0ff;stroke-opacity:1"
         id="path3906"
         sodipodi:cx="214.3582"
         sodipodi:cy="215.81009"
         sodipodi:rx="202.4239"
         sodipodi:ry="204.71896"
         d="m 416.7821,215.81009 a 202.4239,204.71896 0 1 1 -404.847804,0 202.4239,204.71896 0 1 1 404.847804,0 z"
         transform="matrix(0.98704909,0,0,0.9759835,261.82349,2.7670391)" />
    </clipPath>
    <clipPath
       clipPathUnits="userSpaceOnUse"
       id="clipPath3908">
      <path
         sodipodi:type="arc"
         style="fill:none;stroke:#00a0ff;stroke-opacity:1"
         id="path3910"
         sodipodi:cx="214.3582"
         sodipodi:cy="215.81009"
         sodipodi:rx="202.4239"
         sodipodi:ry="204.71896"
         d="m 416.7821,215.81009 a 202.4239,204.71896 0 1 1 -404.847804,0 202.4239,204.71896 0 1 1 404.847804,0 z"
         transform="translate(0.4918018,-0.71046736)" />
    </clipPath>
  </defs>
  <sodipodi:namedview
     pagecolor="#89ffff"
     bordercolor="#666666"
     borderopacity="1"
     objecttolerance="10"
     gridtolerance="10"
     guidetolerance="10"
     inkscape:pageopacity="0"
     inkscape:pageshadow="2"
     inkscape:window-width="1462"
     inkscape:window-height="841"
     id="namedview36"
     showgrid="false"
     inkscape:zoom="1.5405003"
     inkscape:cx="122.31857"
     inkscape:cy="195.1286"
     inkscape:window-x="66"
     inkscape:window-y="-8"
     inkscape:window-maximized="1"
     inkscape:current-layer="svg2"
     fit-margin-top="10"
     fit-margin-left="10"
     fit-margin-right="10"
     fit-margin-bottom="85"
     inkscape:snap-grids="false">
    <inkscape:grid
       type="xygrid"
       id="grid3295" />
  </sodipodi:namedview>
  <path
     sodipodi:type="arc"
     style="fill:#004455;fill-opacity:1;fill-rule:nonzero;stroke:none"
     id="path3104"
     sodipodi:cx="214.3582"
     sodipodi:cy="215.81009"
     sodipodi:rx="202.4239"
     sodipodi:ry="204.71896"
     d="m 416.7821,215.81009 a 202.4239,204.71896 0 1 1 -404.847804,0 202.4239,204.71896 0 1 1 404.847804,0 z"
     transform="matrix(0.92715328,0,0,0.91675917,16.673346,13.42941)"
     clip-path="url(#clipPath3908)" />
  <g
     transform="matrix(0.94092996,0,0,0.94092996,-229.70624,10.431044)"
     id="g3940"
     clip-path="url(#clipPath3904)">
    <g
       transform="matrix(1.7364032,0,0,1.955077,-277.95329,-251.00435)"
       id="g3987">
      <path
         style="fill:#ff6600;fill-opacity:1;stroke:none"
         d="m 172.57655,23.449839 -20.94234,41.297322 6.30197,-7.462805 7.2947,-13.097743 1.3691,0.09422 -6.25573,11.66744 5.1171,-5.474514 15.34234,-22.311573 -9.31291,7.4135 -3.9549,6.609325 -1.14131,-0.30574 4.76414,-8.653586 z"
         id="path3017"
         inkscape:connector-curvature="0"
         sodipodi:nodetypes="ccccccccccccc"
         clip-path="url(#clipPath3808)"
         transform="matrix(2.6969563,-0.87812515,0.94539363,1.7976485,-107.44957,269.08617)" />
      <path
         style="fill:#ff6600;fill-opacity:1;stroke:none"
         d="m 150.88423,32.263826 8.96187,4.537956 10.96126,-1.609651 -22.48847,41.202929 14.99957,-18.700702 13.61861,-23.118663 10.29694,-2.390223 6.43883,-2.717422 z"
         id="path3017-4-4"
         inkscape:connector-curvature="0"
         sodipodi:nodetypes="ccccccccc"
         clip-path="url(#clipPath3808-1-0)"
         transform="matrix(2.005519,-0.71658421,0.82489841,1.7529931,-9.2549147,236.8105)" />
      <path
         style="fill:#ff6600;fill-opacity:1;stroke:none"
         d="m 159.03141,34.386153 7.12671,3.340659 4.47802,-1.057068 -12.73438,24.229412 8.73268,-7.973375 9.42301,-17.216391 10.04413,-4.516326 z"
         id="path3017-4-4-5"
         inkscape:connector-curvature="0"
         sodipodi:nodetypes="cccccccc"
         clip-path="url(#clipPath3808-1-0-4)"
         transform="matrix(1.923396,-0.73860028,0.79112008,1.8068514,-10.539639,256.66397)" />
    </g>
  </g>
  <path
     sodipodi:nodetypes="csc"
     inkscape:connector-curvature="0"
     id="path3100"
     d="m 213.43167,98.691748 c 0,0 -1.78749,-15.97224 24.27272,-31.69721 34.45257,-20.78901 72.23799,6.04341 72.23799,6.04341"
     style="fill:none;stroke:none"
     clip-path="url(#clipPath3900)" />
  <g
     id="g3180"
     transform="matrix(1.1258727,0,0,1.5530312,-53.223696,-48.411895)"
     clip-path="url(#clipPath3896)">
    <flowRoot
       transform="matrix(2.6183389,0,0,2.7335663,194.50067,18.12736)"
       style="font-size:40px;font-style:normal;font-variant:normal;font-weight:normal;font-stretch:normal;text-align:center;line-height:125%;letter-spacing:-1px;word-spacing:0px;writing-mode:lr-tb;text-anchor:middle;fill:#00004d;fill-opacity:1;stroke:none;font-family:Snap ITC;-inkscape-font-specification:Snap ITC"
       id="flowRoot3817-1"
       xml:space="preserve"><flowRegion
         id="flowRegion3819-7"><rect
           style="text-align:center;text-anchor:middle;fill:#00004d;fill-opacity:1"
           y="23.02541"
           x="-134.94928"
           height="218.4893"
           width="351.60254"
           id="rect3821-4" /></flowRegion><flowPara
         style="font-style:normal;font-variant:normal;font-weight:normal;font-stretch:normal;text-align:center;line-height:87.99999952%;letter-spacing:0px;text-anchor:middle;fill:#00004d;fill-opacity:1;stroke:none;font-family:IcedEarth;-inkscape-font-specification:IcedEarth"
         id="flowPara3823-0">ICED<flowSpan
   id="flowSpan3829-9"
   style="text-align:center;line-height:87.99999952%;letter-spacing:0px;text-anchor:middle;fill:none;stroke:none">i</flowSpan></flowPara><flowPara
         id="flowPara3178"
         style="font-style:normal;font-variant:normal;font-weight:normal;font-stretch:normal;text-align:center;line-height:87.99999952%;letter-spacing:0px;text-anchor:middle;fill:#00004d;fill-opacity:1;stroke:none;font-family:IcedEarth;-inkscape-font-specification:IcedEarth">EARTH</flowPara><flowPara
         id="flowPara3833-4"
         style="font-style:normal;font-variant:normal;font-weight:normal;font-stretch:normal;text-align:center;line-height:87.99999952%;letter-spacing:0px;text-anchor:middle;fill:#00004d;fill-opacity:1;stroke:none;font-family:IcedEarth;-inkscape-font-specification:IcedEarth" /></flowRoot>    <flowRoot
       transform="matrix(2.6183389,0,0,2.7335663,188.74461,13.958703)"
       style="font-size:40px;font-style:normal;font-variant:normal;font-weight:normal;font-stretch:normal;text-align:center;line-height:125%;letter-spacing:-1px;word-spacing:0px;writing-mode:lr-tb;text-anchor:middle;fill:#ffffff;fill-opacity:1;stroke:none;font-family:Snap ITC;-inkscape-font-specification:Snap ITC"
       id="flowRoot3817"
       xml:space="preserve"><flowRegion
         id="flowRegion3819"><rect
           style="text-align:center;text-anchor:middle;fill:#ffffff;fill-opacity:1"
           y="23.02541"
           x="-134.94928"
           height="218.4893"
           width="351.60254"
           id="rect3821" /></flowRegion><flowPara
         style="font-style:normal;font-variant:normal;font-weight:normal;font-stretch:normal;text-align:center;line-height:87.99999952%;letter-spacing:0px;text-anchor:middle;fill:#ffffff;fill-opacity:1;stroke:none;font-family:IcedEarth;-inkscape-font-specification:IcedEarth"
         id="flowPara3823">ICED<flowSpan
   id="flowSpan3829"
   style="text-align:center;line-height:87.99999952%;letter-spacing:0px;text-anchor:middle;fill:none;stroke:none">i</flowSpan></flowPara><flowPara
         id="flowPara3176"
         style="font-style:normal;font-variant:normal;font-weight:normal;font-stretch:normal;text-align:center;line-height:87.99999952%;letter-spacing:0px;text-anchor:middle;fill:#ffffff;fill-opacity:1;stroke:none;font-family:IcedEarth;-inkscape-font-specification:IcedEarth">EARTH</flowPara><flowPara
         id="flowPara3833"
         style="font-style:normal;font-variant:normal;font-weight:normal;font-stretch:normal;text-align:center;line-height:87.99999952%;letter-spacing:0px;text-anchor:middle;fill:#ffffff;fill-opacity:1;stroke:none;font-family:IcedEarth;-inkscape-font-specification:IcedEarth" /></flowRoot>  </g>
  <flowRoot
     xml:space="preserve"
     id="flowRoot3038"
     style="fill:black;stroke:none;stroke-opacity:1;stroke-width:1px;stroke-linejoin:miter;stroke-linecap:butt;fill-opacity:1;font-family:Snap ITC;font-style:normal;font-weight:normal;font-size:40px;line-height:125%;letter-spacing:-1px;word-spacing:0px;-inkscape-font-specification:Snap ITC;font-stretch:normal;font-variant:normal;text-anchor:start;text-align:start;writing-mode:lr"
     clip-path="url(#clipPath3892)"><flowRegion
       id="flowRegion3040"><rect
         id="rect3042"
         width="39.474957"
         height="40.392979"
         x="164.32599"
         y="152.46655" /></flowRegion><flowPara
       id="flowPara3044" /></flowRoot>  <flowRoot
     xml:space="preserve"
     id="flowRoot3801"
     style="fill:black;stroke:none;stroke-opacity:1;stroke-width:1px;stroke-linejoin:miter;stroke-linecap:butt;fill-opacity:1;font-family:Snap ITC;font-style:normal;font-weight:normal;font-size:40px;line-height:125%;letter-spacing:-1px;word-spacing:0px;-inkscape-font-specification:Snap ITC;font-stretch:normal;font-variant:normal;text-anchor:start;text-align:start;writing-mode:lr"
     clip-path="url(#clipPath3888)"><flowRegion
       id="flowRegion3803"><rect
         id="rect3805"
         width="123.01498"
         height="79.867935"
         x="105.57256"
         y="251.61296" /></flowRegion><flowPara
       id="flowPara3807" /></flowRoot>  <flowRoot
     xml:space="preserve"
     id="flowRoot3809"
     style="fill:black;stroke:none;stroke-opacity:1;stroke-width:1px;stroke-linejoin:miter;stroke-linecap:butt;fill-opacity:1;font-family:Snap ITC;font-style:normal;font-weight:normal;font-size:40px;line-height:125%;letter-spacing:-1px;word-spacing:0px;-inkscape-font-specification:Snap ITC;font-stretch:normal;font-variant:normal;text-anchor:start;text-align:start;writing-mode:lr"
     clip-path="url(#clipPath3884)"><flowRegion
       id="flowRegion3811"><rect
         id="rect3813"
         width="106.49059"
         height="84.458046"
         x="131.27719"
         y="300.26813" /></flowRegion><flowPara
       id="flowPara3815" /></flowRoot>  <g
     id="g3135"
     transform="matrix(0.29226387,0.0878309,-0.0878309,0.29226387,77.533815,202.36919)"
     clip-path="url(#clipPath3880)">
    <g
       id="g3051">
      <path
         id="path3053"
         d="m 191.039,333.947 c -1.001,0 -1.998,-0.058 -2.987,-0.176 -8.962,-1.07 -16.093,-6.596 -20.08,-15.558 -1.706,-3.836 0.021,-8.329 3.857,-10.034 3.834,-1.704 8.328,0.021 10.035,3.856 1.772,3.985 4.46,6.22 7.991,6.64 4.147,0.492 9.063,-1.606 11.676,-5 2.397,-3.112 3.263,-7.481 2.261,-11.401 -0.64,-2.503 -2.331,-5.896 -6.753,-7.839 -13.172,-5.791 -28.175,-0.242 -45.548,6.179 C 120.026,312.248 80.864,326.727 37.326,274.96 L 19.295,253.521 c -3.632,-4.317 -5.36,-9.791 -4.868,-15.412 0.492,-5.62 3.147,-10.709 7.473,-14.329 11.735,-9.82 27.551,-13.266 42.307,-9.215 l 8.852,2.43 c 4.708,1.291 9.75,0.188 13.487,-2.956 l 24.017,-20.201 c 3.213,-2.7 8.008,-2.288 10.71,0.925 2.702,3.213 2.288,8.007 -0.924,10.71 l -24.018,20.201 c -7.563,6.36 -17.767,8.593 -27.297,5.98 l -8.851,-2.43 c -9.949,-2.731 -20.613,-0.408 -28.527,6.214 -1.207,1.01 -1.947,2.429 -2.084,3.997 -0.138,1.568 0.344,3.095 1.357,4.3 l 18.031,21.439 c 36.657,43.584 66.093,32.701 97.258,21.18 18.751,-6.933 38.14,-14.102 56.938,-5.839 7.821,3.438 13.278,9.828 15.364,17.993 2.165,8.472 0.317,17.608 -4.945,24.442 -5.234,6.799 -14.001,10.997 -22.536,10.997 z"
         style="fill:#ff901d"
         inkscape:connector-curvature="0" />
      <path
         id="path3055"
         d="m 333.481,213.91 c -3.993,0.001 -8.002,-0.824 -11.723,-2.484 -7.697,-3.434 -13.076,-9.889 -15.146,-18.177 -4.977,-19.92 5.357,-37.825 15.351,-55.139 16.61,-28.776 32.298,-55.958 -4.485,-99.436 L 299.384,17.287 c -1.017,-1.201 -2.44,-1.933 -4.009,-2.062 -1.567,-0.134 -3.093,0.361 -4.291,1.381 -7.86,6.683 -11.947,16.804 -10.932,27.072 l 0.903,9.134 c 0.971,9.834 -2.952,19.516 -10.496,25.898 L 246.6,98.98 c -3.205,2.714 -8.001,2.312 -10.713,-0.894 -2.712,-3.205 -2.312,-8.001 0.893,-10.712 l 23.959,-20.27 c 3.728,-3.153 5.666,-7.937 5.186,-12.797 l -0.903,-9.134 c -1.505,-15.228 4.556,-30.236 16.213,-40.149 4.298,-3.654 9.763,-5.415 15.384,-4.951 5.623,0.462 10.726,3.088 14.37,7.395 l 18.094,21.388 c 43.688,51.639 22.816,87.799 6.046,116.855 -9.259,16.041 -17.255,29.896 -13.768,43.855 1.17,4.686 4.23,6.925 6.59,7.977 3.696,1.649 8.148,1.531 11.62,-0.307 3.785,-2.003 6.685,-6.489 6.896,-10.666 0.179,-3.55 -1.57,-6.577 -5.199,-8.996 -3.493,-2.329 -4.438,-7.048 -2.11,-10.541 2.328,-3.493 7.048,-4.437 10.541,-2.11 8.163,5.44 12.407,13.401 11.952,22.415 -0.479,9.471 -6.493,18.85 -14.967,23.335 -4.071,2.153 -8.627,3.237 -13.203,3.237 z"
         style="fill:#ff901d"
         inkscape:connector-curvature="0" />
    </g>
    <path
       style="fill:#fed9a8"
       d="m 345.309,460.639 -47.817,3.436 -44.971,46.172 c -1.09,1.119 -2.61621,2.05175 -4.15,1.751 l -44.22648,-8.67219 c -5.39359,-1.0576 -21.29518,-5.15178 -43.18576,-12.01386 L 231.33,388.75 278.525,310.085 c 7.911,-13.186 26.202,-15.221 36.818,-4.097 l 88.557,67.843 c 13.385,10.254 14.214,30.128 1.73,41.462 l -37.222,33.79 c -6.484,5.966 -14.506,9.978 -23.099,11.556 z"
       id="path3057"
       inkscape:connector-curvature="0"
       sodipodi:nodetypes="cccssccscsccc" />
    <path
       style="fill:#f4c28c"
       d="m 403.9,373.832 -21.651,-16.587 c 2.328,9.273 -0.287,19.597 -8.036,26.632 l -37.222,33.79 c -6.484,5.965 -14.506,9.977 -23.1,11.555 l -47.817,3.436 -62.26239,70.50885 c 27.19346,6.06429 27.85978,6.06581 46.55752,9.39522 L 297.492,464.075 l 47.817,-3.436 c 8.594,-1.578 16.615,-5.59 23.1,-11.555 l 37.222,-33.79 c 12.484,-11.334 11.655,-31.208 -1.731,-41.462 z"
       id="path3059"
       inkscape:connector-curvature="0"
       sodipodi:nodetypes="ccccccccccccc" />
    <path
       id="path3061"
       d="m 336.501,335.224 8.936,9.612 c -5.031,0.537 -10.186,-1.171 -13.834,-5.095 l -8.131,-8.746 c 4.674,-0.86 9.615,0.557 13.029,4.229 z"
       style="fill:#e8d06b"
       inkscape:connector-curvature="0" />
    <polygon
       id="polygon3063"
       points="451.619,417.485 394.845,465.234 245.168,260.519 274.633,235.737 "
       style="fill:#f7bc14" />
    <path
       id="path3065"
       d="m 65.003,176.751 48.915,58.159 c 34.687,41.243 89.334,61.509 147.215,54.594 l 34.32,-4.1 9.922,-33.11 C 322.108,196.454 311.509,139.143 276.821,97.9 L 227.906,39.741 65.003,176.751 z"
       style="fill:#fed130"
       inkscape:connector-curvature="0" />
    <path
       id="path3067"
       d="m 276.821,97.901 -48.915,-58.159 -34.944,29.39 51.574,61.054 c 34.687,41.243 45.287,98.554 28.554,154.394 l -1.087,3.626 23.45,-2.801 9.922,-33.11 c 16.732,-55.839 6.133,-113.15 -28.554,-154.394 z"
       style="fill:#f7bc14"
       inkscape:connector-curvature="0" />
    <path
       id="path3069"
       d="M 243.304,45.899 68.429,192.977 c -2.547,2.142 -6.349,1.814 -8.491,-0.733 L 48.872,179.086 c -2.142,-2.547 -1.814,-6.349 0.733,-8.491 L 224.48,23.517 c 2.547,-2.142 6.349,-1.814 8.491,0.733 l 11.066,13.158 c 2.143,2.547 1.815,6.348 -0.733,8.491 z"
       style="fill:#ffb125"
       inkscape:connector-curvature="0" />
    <path
       id="path3071"
       d="M 244.037,37.408 232.971,24.25 c -2.142,-2.547 -5.944,-2.875 -8.491,-0.733 L 193.586,49.5 212.41,71.882 243.304,45.899 c 2.548,-2.143 2.876,-5.944 0.733,-8.491 z"
       style="fill:#ff901d"
       inkscape:connector-curvature="0" />
    <path
       id="path3073"
       d="m 189.094,157.089 31.298,13.717 c 0.401,0.176 0.864,0.143 1.236,-0.088 l 29.043,-18.006 c 0.938,-0.581 2.135,0.165 2.026,1.263 l -3.374,34.005 c -0.043,0.436 0.131,0.866 0.465,1.148 l 26.099,22.057 c 0.843,0.712 0.503,2.082 -0.575,2.318 l -33.383,7.299 c -0.428,0.094 -0.783,0.392 -0.948,0.798 l -12.913,31.638 c -0.417,1.022 -1.825,1.122 -2.382,0.169 l -17.258,-29.494 c -0.221,-0.378 -0.615,-0.623 -1.052,-0.655 l -34.08,-2.504 c -1.101,-0.081 -1.631,-1.389 -0.897,-2.213 l 22.717,-25.527 c 0.291,-0.327 0.403,-0.777 0.298,-1.203 l -8.15,-33.186 c -0.261,-1.07 0.819,-1.979 1.83,-1.536 z"
       style="fill:#ffffff"
       inkscape:connector-curvature="0" />
    <path
       id="path3075"
       d="m 494.125,413.381 -106.643,89.692 c -4.629,3.894 -11.638,2.762 -14.806,-2.391 L 355.05,472.015 c -2.569,-4.177 -1.692,-9.606 2.061,-12.762 l 99.047,-83.303 c 3.753,-3.156 9.251,-3.09 12.927,0.157 l 25.222,22.279 c 4.534,4.003 4.448,11.101 -0.182,14.995 z"
       style="fill:#ffb125"
       inkscape:connector-curvature="0" />
    <path
       id="path3077"
       d="m 494.307,398.384 -25.222,-22.279 c -3.675,-3.246 -9.174,-3.313 -12.927,-0.157 l -28.899,24.306 40.226,35.532 26.64,-22.405 c 4.63,-3.894 4.716,-10.992 0.182,-14.997 z"
       style="fill:#ff901d"
       inkscape:connector-curvature="0" />
    <path
       id="path3079"
       d="m 386.244,413.718 0,0 c 7.223,7.781 19.387,8.231 27.165,1.005 l 24.058,-22.35 c 7.774,-7.222 8.224,-19.378 1.004,-27.155 l 0,0 c -7.223,-7.781 -19.387,-8.231 -27.165,-1.005 l -24.058,22.35 c -7.774,7.222 -8.224,19.378 -1.004,27.155 z"
       style="fill:#f4c28c"
       inkscape:connector-curvature="0" />
    <path
       id="path3081"
       d="m 387.248,386.562 24.058,-22.35 c 7.778,-7.226 19.942,-6.776 27.165,1.005 l 0,0 c 4.188,4.512 5.79,10.497 4.883,16.138 -7.318,-6.236 -18.308,-6.143 -25.525,0.561 l -24.058,22.35 c -3.264,3.032 -5.231,6.935 -5.888,11.017 -0.569,-0.485 -1.119,-1.004 -1.64,-1.565 l 0,0 c -7.219,-7.777 -6.769,-19.933 1.005,-27.156 z"
       style="fill:#fed9a8"
       inkscape:connector-curvature="0" />
    <path
       id="path3083"
       d="m 366.97,379.037 0,0 c 7.332,7.898 19.68,8.355 27.575,1.02 l 23.633,-21.955 c 7.891,-7.331 8.348,-19.671 1.019,-27.565 l 0,0 c -7.332,-7.898 -19.68,-8.355 -27.575,-1.02 l -23.633,21.955 c -7.891,7.331 -8.348,19.67 -1.019,27.565 z"
       style="fill:#f4c28c"
       inkscape:connector-curvature="0" />
    <path
       id="path3085"
       d="m 367.989,351.471 23.633,-21.955 c 7.896,-7.335 20.243,-6.878 27.575,1.02 l 0,0 c 4.2,4.525 5.838,10.509 4.99,16.175 -7.428,-6.465 -18.69,-6.415 -26.067,0.438 l -23.633,21.955 c -3.368,3.129 -5.377,7.172 -6.009,11.391 -0.522,-0.454 -1.027,-0.939 -1.508,-1.458 l 0,0 c -7.329,-7.895 -6.872,-20.234 1.019,-27.566 z"
       style="fill:#fed9a8"
       inkscape:connector-curvature="0" />
    <path
       id="path3087"
       d="m 340.293,350.692 0,0 c 7.332,7.898 19.68,8.355 27.575,1.02 l 23.633,-21.955 c 7.891,-7.331 8.348,-19.671 1.019,-27.565 l 0,0 c -7.332,-7.898 -19.68,-8.355 -27.575,-1.02 l -23.633,21.955 c -7.891,7.332 -8.347,19.671 -1.019,27.565 z"
       style="fill:#f4c28c"
       inkscape:connector-curvature="0" />
    <path
       id="path3089"
       d="m 341.313,323.127 23.633,-21.955 c 7.896,-7.335 20.243,-6.878 27.575,1.02 l 0,0 c 0.506,0.545 0.971,1.113 1.403,1.697 -4.288,0.301 -8.505,2.01 -11.9,5.164 l -23.633,21.955 c -7.347,6.825 -8.246,17.99 -2.422,25.868 -5.686,0.399 -11.495,-1.681 -15.675,-6.184 l 0,0 c -7.329,-7.894 -6.873,-20.233 1.019,-27.565 z"
       style="fill:#fed9a8"
       inkscape:connector-curvature="0" />
    <path
       id="path3091"
       d="m 314.602,321.286 0,0 c 7.332,7.898 19.68,8.355 27.575,1.02 l 23.633,-21.955 c 7.891,-7.331 8.348,-19.671 1.019,-27.565 l 0,0 c -7.332,-7.898 -19.68,-8.355 -27.575,-1.02 l -23.633,21.955 c -7.891,7.331 -8.347,19.671 -1.019,27.565 z"
       style="fill:#f4c28c"
       inkscape:connector-curvature="0" />
    <g
       id="g3093">
      <path
         id="path3095"
         d="m 315.621,293.721 23.633,-21.955 c 7.896,-7.335 20.243,-6.878 27.575,1.02 l 0,0 c 4.196,4.52 5.835,10.497 4.993,16.157 -7.428,-6.477 -18.699,-6.431 -26.081,0.427 l -23.633,21.955 c -3.373,3.134 -5.383,7.183 -6.012,11.408 -0.517,-0.451 -1.017,-0.932 -1.494,-1.446 l 0,0 c -7.328,-7.895 -6.872,-20.235 1.019,-27.566 z"
         style="fill:#fed9a8"
         inkscape:connector-curvature="0" />
      <path
         id="path3097"
         d="m 359.758,336.216 -4.383,4.072 c -6.895,6.406 -17.536,6.161 -23.772,-0.546 l -11.034,-11.869 c -5.401,-5.81 -14.628,-5.991 -20.564,-0.404 l 0,0 c 3.322,51.398 -68.674,61.283 -68.674,61.283 l 30.601,-75.27 c 1.887,-5.615 5.152,-10.702 9.492,-14.787 l 21.733,-20.454 c 10.566,-9.944 26.988,-9.628 36.61,0.707 l 31.178,33.488 c 6.251,6.711 5.719,17.364 -1.187,23.78 z"
         style="fill:#fed9a8"
         inkscape:connector-curvature="0" />
    </g>
    <g
       id="g3099" />
    <g
       id="g3101" />
    <g
       id="g3103" />
    <g
       id="g3105" />
    <g
       id="g3107" />
    <g
       id="g3109" />
    <g
       id="g3111" />
    <g
       id="g3113" />
    <g
       id="g3115" />
    <g
       id="g3117" />
    <g
       id="g3119" />
    <g
       id="g3121" />
    <g
       id="g3123" />
    <g
       id="g3125" />
    <g
       id="g3127" />
  </g>
</svg>
