<?xml version="1.0" encoding="UTF-8" standalone="no"?>
<svg
   xmlns:dc="http://purl.org/dc/elements/1.1/"
   xmlns:cc="http://creativecommons.org/ns#"
   xmlns:rdf="http://www.w3.org/1999/02/22-rdf-syntax-ns#"
   xmlns:svg="http://www.w3.org/2000/svg"
   xmlns="http://www.w3.org/2000/svg"
   xmlns:sodipodi="http://sodipodi.sourceforge.net/DTD/sodipodi-0.dtd"
   xmlns:inkscape="http://www.inkscape.org/namespaces/inkscape"
   version="1.0"
   width="100%"
   height="100%"
   viewBox="0 0 115.37371 115.37371"
   preserveAspectRatio="xMidYMid meet"
   id="svg2"
   inkscape:version="0.48.5 r10040"
   sodipodi:docname="strava_spokes.svg"
   inkscape:export-filename="D:\Projekte\tiroltrailhead\webmap\images\your_stencils\strava_spokes.png"
   inkscape:export-xdpi="200"
   inkscape:export-ydpi="200">
  <metadata
     id="metadata40">
    <rdf:RDF>
      <cc:Work
         rdf:about="">
        <dc:format>image/svg+xml</dc:format>
        <dc:type
           rdf:resource="http://purl.org/dc/dcmitype/StillImage" />
        <dc:title></dc:title>
      </cc:Work>
    </rdf:RDF>
  </metadata>
  <defs
     id="defs38">
    <clipPath
       clipPathUnits="userSpaceOnUse"
       id="clipPath3808">
      <path
         sodipodi:type="arc"
         style="fill:none;stroke:#ff8dff;stroke-width:3.5;stroke-linecap:round;stroke-linejoin:round;stroke-miterlimit:4;stroke-opacity:1;stroke-dasharray:none"
         id="path3810"
         sodipodi:cx="202.11864"
         sodipodi:cy="248.38136"
         sodipodi:rx="204.81355"
         sodipodi:ry="214.24576"
         d="m 406.93219,248.38136 a 204.81355,214.24576 0 1 1 -409.6271058,0 204.81355,214.24576 0 1 1 409.6271058,0 z"
         transform="matrix(0.94563991,0,0,0.94563991,-3.8348464,-26.086973)" />
    </clipPath>
    <clipPath
       clipPathUnits="userSpaceOnUse"
       id="clipPath3812">
      <path
         sodipodi:type="arc"
         style="fill:none;stroke:#ff8dff;stroke-width:3.5;stroke-linecap:round;stroke-linejoin:round;stroke-miterlimit:4;stroke-opacity:1;stroke-dasharray:none"
         id="path3814"
         sodipodi:cx="202.11864"
         sodipodi:cy="248.38136"
         sodipodi:rx="204.81355"
         sodipodi:ry="214.24576"
         d="m 406.93219,248.38136 a 204.81355,214.24576 0 1 1 -409.6271058,0 204.81355,214.24576 0 1 1 409.6271058,0 z"
         transform="matrix(9.2072679,0,0,-9.2952547,-42.865823,4439.6956)" />
    </clipPath>
    <clipPath
       clipPathUnits="userSpaceOnUse"
       id="clipPath3816">
      <path
         sodipodi:type="arc"
         style="fill:none;stroke:#ff8dff;stroke-width:3.5;stroke-linecap:round;stroke-linejoin:round;stroke-miterlimit:4;stroke-opacity:1;stroke-dasharray:none"
         id="path3818"
         sodipodi:cx="202.11864"
         sodipodi:cy="248.38136"
         sodipodi:rx="204.81355"
         sodipodi:ry="214.24576"
         d="m 406.93219,248.38136 a 204.81355,214.24576 0 1 1 -409.6271058,0 204.81355,214.24576 0 1 1 409.6271058,0 z"
         transform="matrix(9.4563991,0,0,-9.1429752,-38.348464,4369.7026)" />
    </clipPath>
    <clipPath
       clipPathUnits="userSpaceOnUse"
       id="clipPath3808-1">
      <path
         sodipodi:type="arc"
         style="fill:none;stroke:#ff8dff;stroke-width:3.5;stroke-linecap:round;stroke-linejoin:round;stroke-miterlimit:4;stroke-opacity:1;stroke-dasharray:none"
         id="path3810-7"
         sodipodi:cx="202.11864"
         sodipodi:cy="248.38136"
         sodipodi:rx="204.81355"
         sodipodi:ry="214.24576"
         d="m 406.93219,248.38136 a 204.81355,214.24576 0 1 1 -409.6271058,0 204.81355,214.24576 0 1 1 409.6271058,0 z"
         transform="matrix(0.94563991,0,0,0.94563991,-3.8348464,-26.086973)" />
    </clipPath>
    <clipPath
       clipPathUnits="userSpaceOnUse"
       id="clipPath3808-1-0">
      <path
         sodipodi:type="arc"
         style="fill:none;stroke:#ff8dff;stroke-width:3.5;stroke-linecap:round;stroke-linejoin:round;stroke-miterlimit:4;stroke-opacity:1;stroke-dasharray:none"
         id="path3810-7-9"
         sodipodi:cx="202.11864"
         sodipodi:cy="248.38136"
         sodipodi:rx="204.81355"
         sodipodi:ry="214.24576"
         d="m 406.93219,248.38136 a 204.81355,214.24576 0 1 1 -409.6271058,0 204.81355,214.24576 0 1 1 409.6271058,0 z"
         transform="matrix(0.94563991,0,0,0.94563991,-3.8348464,-26.086973)" />
    </clipPath>
    <clipPath
       clipPathUnits="userSpaceOnUse"
       id="clipPath3808-1-0-4">
      <path
         sodipodi:type="arc"
         style="fill:none;stroke:#ff8dff;stroke-width:3.5;stroke-linecap:round;stroke-linejoin:round;stroke-miterlimit:4;stroke-opacity:1;stroke-dasharray:none"
         id="path3810-7-9-5"
         sodipodi:cx="202.11864"
         sodipodi:cy="248.38136"
         sodipodi:rx="204.81355"
         sodipodi:ry="214.24576"
         d="m 406.93219,248.38136 a 204.81355,214.24576 0 1 1 -409.6271058,0 204.81355,214.24576 0 1 1 409.6271058,0 z"
         transform="matrix(0.94563991,0,0,0.94563991,-3.8348464,-26.086973)" />
    </clipPath>
    <clipPath
       clipPathUnits="userSpaceOnUse"
       id="clipPath4493">
      <path
         transform="matrix(0.88438783,0,0,0.88438783,58.874709,43.13597)"
         d="m 239.53257,192.03185 a 62.966557,62.966557 0 1 1 -125.93312,0 62.966557,62.966557 0 1 1 125.93312,0 z"
         sodipodi:ry="62.966557"
         sodipodi:rx="62.966557"
         sodipodi:cy="192.03185"
         sodipodi:cx="176.56601"
         id="path4495"
         style="fill:none;stroke:#000000;stroke-width:0.40000001;stroke-linecap:round;stroke-linejoin:round;stroke-miterlimit:4;stroke-opacity:1;stroke-dasharray:none"
         sodipodi:type="arc" />
    </clipPath>
  </defs>
  <sodipodi:namedview
     pagecolor="#152424"
     bordercolor="#666666"
     borderopacity="1"
     objecttolerance="10"
     gridtolerance="10"
     guidetolerance="10"
     inkscape:pageopacity="0"
     inkscape:pageshadow="2"
     inkscape:window-width="1462"
     inkscape:window-height="841"
     id="namedview36"
     showgrid="false"
     inkscape:zoom="3.0810006"
     inkscape:cx="63.990217"
     inkscape:cy="71.512144"
     inkscape:window-x="66"
     inkscape:window-y="-8"
     inkscape:window-maximized="1"
     inkscape:current-layer="svg2"
     fit-margin-top="2"
     fit-margin-left="2"
     fit-margin-right="2"
     fit-margin-bottom="2"
     inkscape:snap-grids="false">
    <inkscape:grid
       type="xygrid"
       id="grid3295"
       empspacing="5"
       visible="true"
       enabled="true"
       snapvisiblegridlinesonly="true"
       originx="-157.34068px"
       originy="-149.87559px" />
  </sodipodi:namedview>
  <path
     transform="matrix(0.88438783,0,0,0.88438783,-98.776443,-112.15787)"
     d="m 239.53257,192.03185 a 62.966557,62.966557 0 1 1 -125.93312,0 62.966557,62.966557 0 1 1 125.93312,0 z"
     sodipodi:ry="62.966557"
     sodipodi:rx="62.966557"
     sodipodi:cy="192.03185"
     sodipodi:cx="176.56601"
     id="path4472-1"
     style="fill:#494949;stroke:none;stroke-width:0.40000001000000002;stroke-linecap:round;stroke-linejoin:round;stroke-miterlimit:4;stroke-opacity:1;stroke-dasharray:none;fill-opacity:1"
     sodipodi:type="arc" />
  <g
     id="g3925"
     transform="matrix(-4.5059047,0,0,-4.5059047,281.98149,283.07713)">
    <text
       id="text3915"
       font-weight="bold"
       font-size="5px"
       y="115"
       x="0"
       style="font-size:5px;font-weight:bold;fill:#000000;font-family:'\'Helvetica Neue\', Helvetica, Arial-Unicode, Arial, Sans-serif'">Created by Arthur Shlain</text>
    <text
       id="text3917"
       font-weight="bold"
       font-size="5px"
       y="120"
       x="0"
       style="font-size:5px;font-weight:bold;fill:#000000;font-family:'\'Helvetica Neue\', Helvetica, Arial-Unicode, Arial, Sans-serif'">from the Noun Project</text>
  </g>
  <g
     id="g4010"
     transform="matrix(0.34072362,0,0,0.26741766,-63.61288,-0.81459644)">
    <g
       id="g3992">
      <g
         id="g3987"
         transform="matrix(1.2581281,0,0,1.4165703,-101.45358,-64.360031)">
        <path
           transform="matrix(2.6969563,-0.87812515,0.94539363,1.7976485,-107.44957,269.08617)"
           clip-path="url(#clipPath3808)"
           sodipodi:nodetypes="ccccccccccccc"
           inkscape:connector-curvature="0"
           id="path3017"
           d="m 172.57655,23.449839 -20.94234,41.297322 6.30197,-7.462805 7.2947,-13.097743 1.3691,0.09422 -6.25573,11.66744 5.1171,-5.474514 15.34234,-22.311573 -9.31291,7.4135 -3.9549,6.609325 -1.14131,-0.30574 4.76414,-8.653586 z"
           style="fill:#ff6600;fill-opacity:1;stroke:none" />
        <path
           transform="matrix(2.005519,-0.71658421,0.82489841,1.7529931,-9.2549147,236.8105)"
           clip-path="url(#clipPath3808-1-0)"
           sodipodi:nodetypes="ccccccccc"
           inkscape:connector-curvature="0"
           id="path3017-4-4"
           d="m 150.88423,32.263826 8.96187,4.537956 10.96126,-1.609651 -22.48847,41.202929 14.99957,-18.700702 13.61861,-23.118663 10.29694,-2.390223 6.43883,-2.717422 z"
           style="fill:#ff6600;fill-opacity:1;stroke:none" />
        <path
           transform="matrix(1.923396,-0.73860028,0.79112008,1.8068514,-10.539639,256.66397)"
           clip-path="url(#clipPath3808-1-0-4)"
           sodipodi:nodetypes="cccccccc"
           inkscape:connector-curvature="0"
           id="path3017-4-4-5"
           d="m 159.03141,34.386153 7.12671,3.340659 4.47802,-1.057068 -12.73438,24.229412 8.73268,-7.973375 9.42301,-17.216391 10.04413,-4.516326 z"
           style="fill:#ff6600;fill-opacity:1;stroke:none" />
      </g>
    </g>
  </g>
  <path
     id="path3913"
     d="M 198.76567,396.84382 C 300.24315,405.72045 390.0278,330.38623 398.90444,228.90424 407.78107,127.42676 332.44685,37.642107 230.96486,28.765472 129.48738,19.884332 39.702718,95.223062 30.826088,196.70505 21.949458,298.18253 97.283678,387.96718 198.76567,396.84382 z M 35.359028,228.72851 l 0.18925,0.88316 72.887512,-15.65802 45.02751,9.67418 -39.00311,24.4941 -73.847272,10.21488 0.20727,1.49146 c -2.71706,-10.0707 -4.52844,-20.47484 -5.46116,-31.09976 z m 155.021152,-9.156 1.13098,1.45541 c 0.0586,0.15771 0.11715,0.3064 0.17573,0.46411 l 0.0721,1.86995 -2.16284,-1.35628 0.78403,-2.43319 z m -0.8381,-4.75373 -1.56805,-2.01414 1.56805,-2.01864 0.56774,1.7573 c -0.004,0.19376 -0.027,0.39202 -0.0225,0.59028 l -0.54521,1.6852 z m 2.14932,-10.73306 c -0.0676,0.16221 -0.11716,0.31992 -0.17123,0.48664 l -1.1445,1.46442 -0.78403,-2.43319 2.16284,-1.36079 -0.0631,1.84292 z m -2.81169,-2.69453 -1.41936,-4.41128 4.52844,-0.97328 -0.13068,3.51911 -2.9784,1.86545 z m -1.25715,3.45152 1.08142,3.34789 -2.15833,2.77564 -2.84773,-3.66331 3.92464,-2.46022 z m 1.08142,12.57598 -1.08142,3.34789 -3.92464,-2.46473 2.84773,-3.6588 2.15833,2.77564 z m 0.17573,6.79941 2.9784,1.86995 0.13068,3.51461 -4.53294,-0.97328 1.42386,-4.41128 z m 3.19919,7.7096 0.19826,5.43413 -7.98896,1.10394 2.47824,-7.68257 5.31246,1.1445 z m -0.005,-38.24612 -5.31697,1.1445 -2.47374,-7.67806 7.98897,1.10395 -0.19826,5.42961 z m -5.16377,8.94873 -4.60053,2.88829 -4.95649,-6.36685 7.88984,-1.69422 1.66718,5.17278 z m -1.79785,10.17433 -3.33437,4.28963 -6.83096,-4.28963 6.83546,-4.28962 3.32987,4.28962 z m -2.80718,7.28605 4.60053,2.88829 -1.67169,5.17278 -7.88534,-1.69422 4.9565,-6.36685 z m 2.23943,10.21489 -2.74409,8.50264 -15.74814,2.17635 9.76429,-12.55345 8.72794,1.87446 z m -1.02734,10.53931 8.84509,-1.2211 0.32893,8.92169 -14.05392,7.43474 4.8799,-15.13533 z m 8.84509,-54.85939 -8.8496,-1.2211 -4.87539,-15.13083 14.05392,7.43474 -0.32893,8.91719 z m -7.81775,9.3137 -8.72794,1.87446 -9.75979,-12.54894 15.74814,2.17635 2.73959,8.49813 z m -4.15444,11.42247 -7.56542,4.74923 -13.46364,-8.45759 15.54537,-3.33887 5.48369,7.04723 z m 0,12.16144 -5.48369,7.04723 -15.54537,-3.33887 13.46364,-8.45758 7.56542,4.74922 z m -7.0202,9.02533 -10.51678,13.52222 -42.9593,5.94329 36.72763,-23.06122 16.74845,3.59571 z m -9.30019,15.62647 16.97374,-2.34757 -5.26289,16.30236 -38.34075,20.27657 26.6299,-34.23136 z m 13.57629,15.51834 15.13984,-8.00699 0.63984,17.11793 -29.08562,32.16765 13.30594,-41.27859 z m 15.13984,-84.49022 -15.13984,-8.00699 -13.30594,-41.26958 29.08111,32.16315 -0.63533,17.11342 z m -11.7514,9.85441 -16.96473,-2.34757 -26.62088,-34.22685 38.32722,20.27206 5.25839,16.30236 z m -7.66454,13.28341 -16.74845,3.60022 -36.72313,-23.06122 42.9548,5.93878 10.51678,13.52222 z m -2.66299,15.10379 -14.50901,9.10644 -42.40057,-9.10644 42.40057,-9.10643 14.50901,9.10643 z M 41.036468,260.55372 109.8191,251.04175 51.057602,287.9361 c -4.041797,-8.79553 -7.425734,-17.93801 -10.021134,-27.38238 z m 10.570854,28.56293 0.513673,0.81106 63.132235,-39.63844 45.62228,-6.31278 -28.28356,36.35815 -65.889847,34.85317 0.441579,0.82909 c -5.934277,-8.47561 -11.120573,-17.48291 -15.53636,-26.90025 z m 16.306869,27.97716 61.311849,-32.42449 -42.585309,54.74674 C 79.80978,332.48598 73.551078,325.0242 67.914191,317.09381 z m 19.659263,23.28201 0.734462,0.56774 45.766474,-58.84261 40.71085,-21.53372 -14.13953,43.84246 -49.99301,55.28294 0.72094,0.65786 C 102.86649,354.35764 94.895549,347.6844 87.573454,340.37582 z m 24.863586,20.70463 46.52797,-51.45293 -21.30842,66.07459 c -8.85411,-4.1995 -17.26663,-9.11544 -25.21955,-14.62166 z m 25.90444,14.9596 1.42838,0.45961 22.88098,-70.94998 30.88798,-34.15476 1.70774,46.02331 -28.07179,69.0575 0.84711,0.34245 c -10.305,-2.76212 -20.24052,-6.34882 -29.6804,-10.77813 z m 85.60769,-188.19812 -2.35659,-2.60892 4.09587,-2.16283 1.75279,4.28962 -3.49207,0.48213 z m 4.36171,1.67169 0.95976,2.3656 -1.82489,-0.39201 c -0.13968,-0.0856 -0.28387,-0.17123 -0.42355,-0.25684 l -1.23913,-1.36979 2.52781,-0.34696 z m -8.28185,-6.00637 -3.64978,-4.03278 5.4161,-5.98384 3.03698,7.47529 -4.8033,2.54133 z m 1.2211,4.70867 -1.76181,0.24783 c -0.18925,-0.0406 -0.38751,-0.0541 -0.58126,-0.0856 l -1.63114,-0.86063 2.25746,-1.19407 1.71675,1.89248 z m -3.2803,-3.62274 -3.10457,1.64465 -3.10907,-1.64465 3.10907,-3.4335 3.10457,3.4335 z m -5.51522,2.92433 -1.64015,0.86964 c -0.16672,0.0225 -0.33344,0.0496 -0.50467,0.0856 l -1.82489,-0.25684 1.71225,-1.89248 2.25746,1.19407 z m -2.75311,-4.01026 -4.8033,-2.54133 3.04149,-7.47079 5.41159,5.98384 -3.64978,4.02828 z m -1.56355,1.72576 -2.35208,2.60442 -3.48757,-0.47763 1.74829,-4.29413 4.09136,2.16734 z m -4.19049,4.63207 -1.2211,1.35178 c -0.1487,0.0856 -0.28838,0.18474 -0.44158,0.27035 l -1.82489,0.40102 0.96426,-2.3656 2.52331,0.34245 z m 12.68862,2.7441 c 11.1386,0.97328 19.40694,10.82318 18.42916,21.96629 -0.97328,11.13859 -10.82319,19.40693 -21.96629,18.43365 -11.1386,-0.97327 -19.40693,-10.82769 -18.42915,-21.96628 0.96877,-11.14311 10.82318,-19.41144 21.96628,-18.43366 z m -10.85472,45.15818 2.35659,2.60892 -4.09587,2.17184 -1.7528,-4.29863 3.49208,-0.48213 z m -4.36172,-1.67169 -0.96426,-2.37011 1.8294,0.39201 c 0.13968,0.0856 0.28387,0.17573 0.43257,0.25684 l 1.23461,1.36529 -2.53232,0.35597 z m 8.28186,6.00186 3.65429,4.03729 -5.4161,5.98835 -3.04149,-7.4798 4.8033,-2.54584 z m -1.22561,-4.70416 1.7573,-0.24332 c 0.19376,0.036 0.39652,0.0451 0.59028,0.0811 l 1.63114,0.86514 -2.26197,1.19406 -1.71675,-1.89698 z m 3.2803,3.61824 3.10907,-1.64015 3.10908,1.64465 -3.10908,3.43801 -3.10907,-3.44251 z m 5.51973,-2.91983 1.64015,-0.86513 c 0.17123,-0.0315 0.34245,-0.0541 0.51368,-0.0856 l 1.82038,0.25233 -1.72125,1.89698 -2.25296,-1.19857 z m 2.75311,4.01026 4.8033,2.54133 -3.04149,7.47529 -5.41159,-5.98384 3.64978,-4.03278 z m 1.56355,-1.72576 2.35659,-2.60892 3.48306,0.48213 -1.75279,4.29413 -4.08686,-2.16734 z m 4.18599,-4.63207 1.2211,-1.34727 c 0.1532,-0.0901 0.29288,-0.18925 0.45059,-0.27937 l 1.82038,-0.39201 -0.96426,2.37011 -2.52781,-0.35146 z m -26.66144,0.67138 -4.60053,0.63533 -0.16672,-4.63207 3.44251,0.73897 1.32474,3.25777 z m 0.87414,2.14931 2.04568,5.0376 -7.13284,3.77595 -0.3019,-8.07007 5.38906,-0.74348 z m 2.90181,7.13735 3.3614,8.27285 -10.66548,11.80096 -0.59027,-15.89683 7.89435,-4.17698 z m 4.30313,10.58888 6.45246,15.86529 -16.3339,40.17915 -1.60411,-43.34229 11.48555,-12.70215 z m 1.68071,-1.85643 5.99285,-6.62368 5.98384,6.61917 -5.98835,14.73431 -5.98834,-14.7298 z m 13.65739,1.85643 11.49006,12.69764 -1.60861,43.33779 -16.3339,-40.16563 6.45245,-15.8698 z m 0.94174,-2.31603 3.3614,-8.27285 7.89435,4.17247 -0.59028,15.89233 -10.66547,-11.79195 z m 4.21753,-10.3726 2.05018,-5.0376 5.38005,0.74348 -0.29739,8.06557 -7.13284,-3.77145 z m 2.92433,-7.18691 1.32473,-3.26228 3.4335,-0.73897 -0.17122,4.63658 -4.58701,-0.63533 z m 2.35208,-5.78559 0.70743,-1.73477 c 0.10814,-0.13067 0.2343,-0.25233 0.34245,-0.38751 l 1.54101,-0.96426 -0.0946,2.55485 -2.49627,0.53169 z m 1.02735,-33.53745 c -0.10815,-0.13517 -0.22079,-0.27035 -0.33795,-0.40102 l -0.6894,-1.71224 2.50078,0.5362 0.0946,2.55485 -1.56805,-0.97779 z m -2.0547,-4.63657 -1.32924,-3.25777 4.60053,-0.63984 0.16672,4.62757 -3.43801,-0.72996 z m -2.20338,-5.4161 -2.04568,-5.0376 7.13284,-3.77144 0.3019,8.06106 -5.38906,0.74798 z m -2.90181,-7.13285 -3.3614,-8.27284 10.66547,-11.79646 0.59028,15.89233 -7.89435,4.17697 z m -4.30314,-10.58887 -6.45245,-15.86529 16.3339,-40.17465 1.60411,43.33779 -11.48556,12.70215 z m -1.6807,1.85643 -5.99285,6.62368 -5.98384,-6.62368 5.98834,-14.73431 5.98835,14.73431 z m -13.6574,-1.86094 -11.49005,-12.69764 1.60861,-43.33779 16.3339,40.17465 -6.45246,15.86078 z m -0.94173,2.32054 -3.3614,8.26834 -7.89435,-4.17698 0.59027,-15.88331 10.66548,11.79195 z m -4.21753,10.36809 -2.05018,5.0376 -5.37555,-0.74347 0.29289,-8.06107 7.13284,3.76694 z m -2.92433,7.19593 -1.32473,3.25777 -3.43801,0.74347 0.17122,-4.63657 4.59152,0.63533 z m -2.35659,5.78558 -0.70292,1.73928 c -0.10814,0.12617 -0.2343,0.24783 -0.34245,0.3785 l -1.54102,0.96877 0.0946,-2.54584 2.49176,-0.54071 z m -1.02734,33.53294 c 0.11264,0.13969 0.2298,0.27486 0.34245,0.40554 l 0.6894,1.70773 -2.50078,-0.5362 -0.0946,-2.55485 1.56355,0.97778 z m -26.4001,158.65741 26.12524,-64.26771 2.57287,69.31883 c -9.84991,-0.9192 -19.42496,-2.64046 -28.69811,-5.05112 z m 47.78963,5.7991 v -8.94422 c 0,-1.24363 -1.00933,-2.25295 -2.25296,-2.25295 -1.24363,0 -2.25295,1.00932 -2.25295,2.25295 v 8.94873 c -4.45634,-0.0496 -8.93971,-0.2298 -13.45463,-0.62632 l 1.12648,-0.0405 -2.76212,-74.48711 17.34322,-42.67092 17.34323,42.6574 -2.76212,74.50063 0.93723,0.0315 c -4.38425,0.37849 -8.81355,0.56774 -13.26538,0.63082 z m 14.58561,-0.74798 2.57287,-69.32334 26.14326,64.30827 c -9.31821,2.43319 -18.92029,4.10939 -28.71613,5.01507 z m 29.54972,-5.21783 1.30221,-0.52719 -28.07179,-69.06201 1.70774,-46.02781 30.88798,34.16377 22.88549,70.94997 0.89667,-0.28838 c -9.47591,4.41579 -19.36638,8.06107 -29.6083,10.79165 z M 238.03913,221.51906 c 0.0676,-0.16221 0.11716,-0.32442 0.17123,-0.48213 l 1.13999,-1.46442 0.78853,2.43319 -2.16283,1.36079 0.0631,-1.84743 z m -0.0676,-19.26724 2.16284,1.35627 -0.78854,2.42869 -1.13098,-1.45992 c -0.0586,-0.1532 -0.11715,-0.30189 -0.17573,-0.4596 l -0.0676,-1.86544 z m 1.64916,10.81417 c 0.005,-0.19376 0.027,-0.39202 0.0225,-0.58577 l 0.54522,-1.68971 1.56805,2.01413 -1.56805,2.01865 -0.56775,-1.7573 z m 1.40585,-4.87089 1.08141,-3.34788 3.92465,2.46923 -2.84773,3.6588 -2.15833,-2.78015 z m -0.18024,-6.79941 -2.9739,-1.87445 -0.13067,-3.5101 4.53294,0.96877 -1.42837,4.41578 z m -2.9784,24.69236 2.9784,-1.86995 1.41936,4.41128 -4.52843,0.97328 0.13067,-3.51461 z m 4.24005,-5.32147 -1.08141,-3.3524 2.15833,-2.77563 2.84773,3.6633 -3.92465,2.46473 z m 5.31697,-0.68039 4.9565,6.37135 -7.88534,1.69422 -1.67169,-5.17278 4.60053,-2.89279 z m -2.80718,-7.28155 3.33437,-4.28962 6.83095,4.28962 -6.83095,4.28963 -3.33437,-4.28963 z m 2.80718,-7.28154 -4.60053,-2.89279 1.67169,-5.17278 7.88534,1.69422 -4.9565,6.37135 z m -4.46084,-10.69702 -5.31697,-1.13999 -0.19826,-5.43412 7.98897,-1.10845 -2.47374,7.68256 z m -5.30796,37.09712 5.31246,-1.14 2.47825,7.68257 -7.98897,-1.10394 0.19826,-5.43863 z m 7.52937,-1.61762 8.72793,-1.87446 9.7643,12.55345 -15.74814,-2.17635 -2.74409,-8.50264 z m 4.15444,-11.42247 7.56542,-4.74472 13.46364,8.45308 -15.54087,3.33887 -5.48819,-7.04723 z m 0,-12.15693 5.48369,-7.05174 15.54987,3.34338 -13.46814,8.45308 -7.56542,-4.74472 z m 4.57349,-9.55252 -8.73244,-1.87446 2.73959,-8.49813 15.74814,-2.18086 -9.75529,12.55345 z m -7.70059,-12.41377 -8.84509,1.2211 -0.32893,-8.92169 14.04941,-7.43023 -4.87539,15.13082 z m -8.84509,54.8639 8.84509,1.2211 4.8799,15.13533 -14.05392,-7.43474 0.32893,-8.92169 z m 11.32785,1.56355 16.96473,2.34757 26.62989,34.23587 -38.33623,-20.27657 -5.25839,-16.30687 z m 7.66454,-13.2789 16.74394,-3.59571 36.72763,23.06122 -42.95028,-5.93879 -10.52129,-13.52672 z m 2.66299,-15.1038 14.50901,-9.10643 42.40057,9.10643 -42.40057,9.10644 -14.50901,-9.10644 z m 14.08546,-11.50357 -16.74845,-3.60022 10.51678,-13.52222 42.9593,-5.94329 -36.72763,23.06573 z m -7.44826,-19.2267 -16.97374,2.34758 5.26289,-16.29786 38.33624,-20.28107 -26.62539,34.23135 z m -13.57629,-15.52284 -15.13534,8.007 -0.63984,-17.11794 29.08562,-32.16314 -13.31044,41.27408 z m -15.13984,84.49923 15.13984,8.007 13.31044,41.27408 -29.09012,-32.16765 0.63984,-17.11343 z m 55.11622,124.60629 -21.2949,-66.03403 46.54599,51.47095 c -7.98446,5.51973 -16.43754,10.37259 -25.25109,14.56308 z m 26.34603,-15.36063 0.67138,-0.60829 -49.99752,-55.28295 -14.13953,-43.83795 40.71536,21.53372 45.76647,58.83811 0.6849,-0.5317 c -7.31759,7.29506 -15.25249,13.95028 -23.70106,19.88906 z m 24.70587,-20.85783 -42.59882,-54.76927 61.32086,32.4335 c -5.65491,7.95292 -11.9001,15.43723 -18.72204,22.33577 z m 19.47002,-23.40367 0.45059,-0.84711 -65.88985,-34.85317 -28.27905,-36.35815 45.61778,6.30827 63.13673,39.64295 0.74798,-1.18956 c -4.46986,9.62011 -9.78232,18.72654 -15.78418,27.29677 z m 16.12213,-28.0808 -58.78854,-36.91237 68.72406,9.50295 c -2.59991,9.48944 -5.91626,18.64994 -9.93552,27.40942 z m 10.28698,-28.71162 0.12616,-0.90569 -73.84277,-10.21488 -39.00761,-24.4941 45.0275,-9.66967 72.88301,15.65351 0.23881,-1.09944 c -0.92371,10.56634 -2.79366,20.81728 -5.4251,30.73027 z m 5.49269,-31.86576 -67.82287,-14.5721 67.83189,-14.57209 c 0.76149,9.55702 0.79754,19.28527 -0.009,29.14419 z m -0.11264,-30.50047 -0.18925,-0.88316 -72.88752,15.66253 -45.0275,-9.66967 39.00311,-24.49861 73.84727,-10.21488 -0.20276,-1.47794 c 2.71255,10.05718 4.52392,20.45681 5.45665,31.08173 z m -5.68195,-31.8252 -68.76461,9.51196 58.74798,-36.88984 c 4.0418,8.79102 7.42123,17.9335 10.01663,27.37788 z m -10.56184,-28.55392 -0.51818,-0.82008 -63.12322,39.63845 -45.62679,6.30826 28.27455,-36.35364 65.89435,-34.85317 -0.43707,-0.82458 c 5.93428,8.48462 11.12057,17.48291 15.53636,26.90476 z m -16.31587,-27.98617 -61.30734,32.42899 42.5808,-54.746741 c 6.83095,6.925576 13.09416,14.391861 18.72654,22.317751 z m -19.64124,-23.259485 -0.75249,-0.585767 -45.76196,58.842612 -40.71085,21.52921 14.13502,-43.82893 49.99752,-55.287456 -0.71193,-0.653356 c 8.51165,5.992853 16.48259,12.666098 23.80469,19.983687 z m -24.8771,-20.71815 -46.53248,51.452925 21.30843,-66.079091 c 8.8586,4.194997 17.27563,9.115445 25.22405,14.626166 z m -25.89994,-14.964109 -1.43288,-0.464108 -22.88098,70.949972 -30.88798,34.15927 -1.70774,-46.03233 28.07179,-69.057491 -0.84711,-0.342449 c 10.30951,2.771131 20.24503,6.362338 29.6849,10.787136 z M 260.40194,38.435145 234.2767,102.70286 231.70383,33.384022 c 9.84991,0.91921 19.42496,2.640465 28.69811,5.051123 z m -29.82909,-5.181793 -1.12648,0.0451 2.76212,74.482608 -17.34773,42.67092 -17.34773,-42.66191 2.76211,-74.496118 -0.91019,-0.0315 c 10.2239,-0.87415 20.64606,-0.93273 31.2079,-0.009 z m -32.55066,0.13067 -2.56836,69.318838 -26.14326,-64.299256 c 9.31821,-2.437694 18.92029,-4.113892 28.71162,-5.019582 z m -29.55423,5.222348 -1.29319,0.527191 28.06728,69.052989 -1.70323,46.02782 -30.88798,-34.15025 -22.88549,-70.958992 -0.86964,0.283872 c 9.46691,-4.411281 19.34385,-8.061064 29.57225,-10.78263 z m -30.79785,11.345868 21.29941,66.034032 -46.55051,-51.466442 c 7.98446,-5.519734 16.43754,-10.377099 25.2511,-14.56759 z m -26.37757,15.383158 -0.64435,0.585768 50.00203,55.291956 14.13953,43.82893 -40.71085,-21.52921 -45.761972,-58.842606 -0.689404,0.52719 C 94.936102,77.915882 102.85298,71.274179 111.29254,65.335396 z M 86.622708,86.166194 129.22153,140.94448 67.896168,108.50647 c 5.65491,-7.95292 11.9046,-15.43723 18.72654,-22.340276 z m -19.479026,23.417186 -0.446085,0.84261 65.894353,34.85317 28.27455,36.35364 -45.62229,-6.31728 -63.127721,-39.63394 -0.761497,1.21209 c 4.474363,-9.62461 9.786825,-18.74006 15.78869,-27.31029 z m -16.117621,28.07179 58.784029,36.90786 -68.715042,-9.50295 c 2.5954,-9.48944 5.911746,-18.64544 9.931013,-27.40491 z m -10.286983,28.71162 -0.12616,0.90118 73.847272,10.21939 39.00311,24.4896 -45.023,9.67417 -72.887512,-15.66252 -0.23882,1.10394 c 0.92371,-10.56634 2.79366,-20.81277 5.42511,-30.72576 z m -5.4927,31.86576 67.822882,14.57209 -67.831892,14.5721 c -0.7615,-9.55252 -0.79754,-19.28978 0.009,-29.14419 z"
     inkscape:connector-curvature="0"
     style="fill:#cccccc;fill-opacity:1;stroke:none"
     clip-path="url(#clipPath4493)"
     transform="translate(-157.34068,-155.27976)" />
</svg>
