<?xml version="1.0" encoding="UTF-8" standalone="no"?>
<svg
   xmlns:dc="http://purl.org/dc/elements/1.1/"
   xmlns:cc="http://creativecommons.org/ns#"
   xmlns:rdf="http://www.w3.org/1999/02/22-rdf-syntax-ns#"
   xmlns:svg="http://www.w3.org/2000/svg"
   xmlns="http://www.w3.org/2000/svg"
   xmlns:xlink="http://www.w3.org/1999/xlink"
   xmlns:sodipodi="http://sodipodi.sourceforge.net/DTD/sodipodi-0.dtd"
   xmlns:inkscape="http://www.inkscape.org/namespaces/inkscape"
   version="1.0"
   width="100%"
   height="100%"
   viewBox="0 0 462.14228 469.47855"
   preserveAspectRatio="xMidYMid meet"
   id="svg2"
   inkscape:version="0.48.5 r10040"
   sodipodi:docname="strava_pokal.svg"
   inkscape:export-filename="D:\Projekte\tiroltrailhead\webmap\images\your_stencils\icedearth_1st.png"
   inkscape:export-xdpi="200"
   inkscape:export-ydpi="200">
  <metadata
     id="metadata40">
    <rdf:RDF>
      <cc:Work
         rdf:about="">
        <dc:format>image/svg+xml</dc:format>
        <dc:type
           rdf:resource="http://purl.org/dc/dcmitype/StillImage" />
        <dc:title></dc:title>
      </cc:Work>
    </rdf:RDF>
  </metadata>
  <defs
     id="defs38">
    <clipPath
       clipPathUnits="userSpaceOnUse"
       id="clipPath3808">
      <path
         sodipodi:type="arc"
         style="fill:none;stroke:#ff8dff;stroke-width:3.5;stroke-linecap:round;stroke-linejoin:round;stroke-miterlimit:4;stroke-opacity:1;stroke-dasharray:none"
         id="path3810"
         sodipodi:cx="202.11864"
         sodipodi:cy="248.38136"
         sodipodi:rx="204.81355"
         sodipodi:ry="214.24576"
         d="m 406.93219,248.38136 a 204.81355,214.24576 0 1 1 -409.6271058,0 204.81355,214.24576 0 1 1 409.6271058,0 z"
         transform="matrix(0.94563991,0,0,0.94563991,-3.8348464,-26.086973)" />
    </clipPath>
    <clipPath
       clipPathUnits="userSpaceOnUse"
       id="clipPath3812">
      <path
         sodipodi:type="arc"
         style="fill:none;stroke:#ff8dff;stroke-width:3.5;stroke-linecap:round;stroke-linejoin:round;stroke-miterlimit:4;stroke-opacity:1;stroke-dasharray:none"
         id="path3814"
         sodipodi:cx="202.11864"
         sodipodi:cy="248.38136"
         sodipodi:rx="204.81355"
         sodipodi:ry="214.24576"
         d="m 406.93219,248.38136 a 204.81355,214.24576 0 1 1 -409.6271058,0 204.81355,214.24576 0 1 1 409.6271058,0 z"
         transform="matrix(9.2072679,0,0,-9.2952547,-42.865823,4439.6956)" />
    </clipPath>
    <clipPath
       clipPathUnits="userSpaceOnUse"
       id="clipPath3808-1">
      <path
         sodipodi:type="arc"
         style="fill:none;stroke:#ff8dff;stroke-width:3.5;stroke-linecap:round;stroke-linejoin:round;stroke-miterlimit:4;stroke-opacity:1;stroke-dasharray:none"
         id="path3810-7"
         sodipodi:cx="202.11864"
         sodipodi:cy="248.38136"
         sodipodi:rx="204.81355"
         sodipodi:ry="214.24576"
         d="m 406.93219,248.38136 a 204.81355,214.24576 0 1 1 -409.6271058,0 204.81355,214.24576 0 1 1 409.6271058,0 z"
         transform="matrix(0.94563991,0,0,0.94563991,-3.8348464,-26.086973)" />
    </clipPath>
    <clipPath
       clipPathUnits="userSpaceOnUse"
       id="clipPath3808-1-0">
      <path
         sodipodi:type="arc"
         style="fill:none;stroke:#ff8dff;stroke-width:3.5;stroke-linecap:round;stroke-linejoin:round;stroke-miterlimit:4;stroke-opacity:1;stroke-dasharray:none"
         id="path3810-7-9"
         sodipodi:cx="202.11864"
         sodipodi:cy="248.38136"
         sodipodi:rx="204.81355"
         sodipodi:ry="214.24576"
         d="m 406.93219,248.38136 a 204.81355,214.24576 0 1 1 -409.6271058,0 204.81355,214.24576 0 1 1 409.6271058,0 z"
         transform="matrix(0.94563991,0,0,0.94563991,-3.8348464,-26.086973)" />
    </clipPath>
    <clipPath
       clipPathUnits="userSpaceOnUse"
       id="clipPath3808-1-0-4">
      <path
         sodipodi:type="arc"
         style="fill:none;stroke:#ff8dff;stroke-width:3.5;stroke-linecap:round;stroke-linejoin:round;stroke-miterlimit:4;stroke-opacity:1;stroke-dasharray:none"
         id="path3810-7-9-5"
         sodipodi:cx="202.11864"
         sodipodi:cy="248.38136"
         sodipodi:rx="204.81355"
         sodipodi:ry="214.24576"
         d="m 406.93219,248.38136 a 204.81355,214.24576 0 1 1 -409.6271058,0 204.81355,214.24576 0 1 1 409.6271058,0 z"
         transform="matrix(0.94563991,0,0,0.94563991,-3.8348464,-26.086973)" />
    </clipPath>
    <clipPath
       clipPathUnits="userSpaceOnUse"
       id="clipPath3884">
      <path
         sodipodi:type="arc"
         style="fill:none;stroke:#00a0ff;stroke-opacity:1"
         id="path3886"
         sodipodi:cx="214.3582"
         sodipodi:cy="215.81009"
         sodipodi:rx="202.4239"
         sodipodi:ry="204.71896"
         d="m 416.7821,215.81009 a 202.4239,204.71896 0 1 1 -404.847804,0 202.4239,204.71896 0 1 1 404.847804,0 z"
         transform="matrix(0.92874406,0,0,0.91833212,16.651326,13.034634)" />
    </clipPath>
    <clipPath
       clipPathUnits="userSpaceOnUse"
       id="clipPath3888">
      <path
         sodipodi:type="arc"
         style="fill:none;stroke:#00a0ff;stroke-opacity:1"
         id="path3890"
         sodipodi:cx="214.3582"
         sodipodi:cy="215.81009"
         sodipodi:rx="202.4239"
         sodipodi:ry="204.71896"
         d="m 416.7821,215.81009 a 202.4239,204.71896 0 1 1 -404.847804,0 202.4239,204.71896 0 1 1 404.847804,0 z"
         transform="matrix(0.92874406,0,0,0.91833212,16.651326,13.034634)" />
    </clipPath>
    <clipPath
       clipPathUnits="userSpaceOnUse"
       id="clipPath3892">
      <path
         sodipodi:type="arc"
         style="fill:none;stroke:#00a0ff;stroke-opacity:1"
         id="path3894"
         sodipodi:cx="214.3582"
         sodipodi:cy="215.81009"
         sodipodi:rx="202.4239"
         sodipodi:ry="204.71896"
         d="m 416.7821,215.81009 a 202.4239,204.71896 0 1 1 -404.847804,0 202.4239,204.71896 0 1 1 404.847804,0 z"
         transform="matrix(0.92874406,0,0,0.91833212,16.651326,13.034634)" />
    </clipPath>
    <clipPath
       clipPathUnits="userSpaceOnUse"
       id="clipPath3900">
      <path
         sodipodi:type="arc"
         style="fill:none;stroke:#00a0ff;stroke-opacity:1"
         id="path3902"
         sodipodi:cx="214.3582"
         sodipodi:cy="215.81009"
         sodipodi:rx="202.4239"
         sodipodi:ry="204.71896"
         d="m 416.7821,215.81009 a 202.4239,204.71896 0 1 1 -404.847804,0 202.4239,204.71896 0 1 1 404.847804,0 z"
         transform="matrix(0.92874406,0,0,0.91833212,16.651326,13.034634)" />
    </clipPath>
    <clipPath
       clipPathUnits="userSpaceOnUse"
       id="clipPath4285">
      <path
         transform="matrix(1.1509474,0,0,0.82502731,-74.841264,-1.300027)"
         d="m 416.7821,215.81009 a 202.4239,204.71896 0 1 1 -404.847804,0 202.4239,204.71896 0 1 1 404.847804,0 z"
         sodipodi:ry="204.71896"
         sodipodi:rx="202.4239"
         sodipodi:cy="215.81009"
         sodipodi:cx="214.3582"
         id="path4287"
         style="fill:none;stroke:#00a0ff;stroke-opacity:1"
         sodipodi:type="arc" />
    </clipPath>
    <clipPath
       clipPathUnits="userSpaceOnUse"
       id="clipPath4289">
      <path
         transform="matrix(-3.9341424,1.1822852,1.1690309,3.8900376,986.22198,-1413.3949)"
         d="m 416.7821,215.81009 a 202.4239,204.71896 0 1 1 -404.847804,0 202.4239,204.71896 0 1 1 404.847804,0 z"
         sodipodi:ry="204.71896"
         sodipodi:rx="202.4239"
         sodipodi:cy="215.81009"
         sodipodi:cx="214.3582"
         id="path4291"
         style="fill:none;stroke:#00a0ff;stroke-opacity:1"
         sodipodi:type="arc" />
    </clipPath>
    <clipPath
       clipPathUnits="userSpaceOnUse"
       id="clipPath4293">
      <path
         transform="matrix(1.0017158,0,0,1.0017158,-0.02375012,-0.43062127)"
         d="m 416.7821,215.81009 a 202.4239,204.71896 0 1 1 -404.847804,0 202.4239,204.71896 0 1 1 404.847804,0 z"
         sodipodi:ry="204.71896"
         sodipodi:rx="202.4239"
         sodipodi:cy="215.81009"
         sodipodi:cx="214.3582"
         id="path4295"
         style="fill:none;stroke:#00a0ff;stroke-opacity:1"
         sodipodi:type="arc" />
    </clipPath>
  </defs>
  <sodipodi:namedview
     pagecolor="#89ffff"
     bordercolor="#666666"
     borderopacity="1"
     objecttolerance="10"
     gridtolerance="10"
     guidetolerance="10"
     inkscape:pageopacity="0"
     inkscape:pageshadow="2"
     inkscape:window-width="1462"
     inkscape:window-height="841"
     id="namedview36"
     showgrid="false"
     inkscape:zoom="0.77025014"
     inkscape:cx="120.91098"
     inkscape:cy="172.45243"
     inkscape:window-x="66"
     inkscape:window-y="-8"
     inkscape:window-maximized="1"
     inkscape:current-layer="svg2"
     fit-margin-top="47"
     fit-margin-left="0"
     fit-margin-right="5"
     fit-margin-bottom="47"
     inkscape:snap-grids="false">
    <inkscape:grid
       type="xygrid"
       id="grid3295"
       empspacing="5"
       visible="true"
       enabled="true"
       snapvisiblegridlinesonly="true"
       originx="54.048043px"
       originy="25.546791px" />
  </sodipodi:namedview>
  <path
     sodipodi:type="arc"
     style="fill:#004455;fill-opacity:1;fill-rule:nonzero;stroke:none"
     id="path3104"
     sodipodi:cx="214.3582"
     sodipodi:cy="215.81009"
     sodipodi:rx="202.4239"
     sodipodi:ry="204.71896"
     d="m 416.7821,215.81009 a 202.4239,204.71896 0 1 1 -404.847804,0 202.4239,204.71896 0 1 1 404.847804,0 z"
     transform="matrix(0.92715328,0,0,0.91675917,70.721389,36.832108)"
     clip-path="url(#clipPath4293)" />
  <g
     id="g3180"
     transform="matrix(0.84616535,0,0,1.1672023,114.77021,27.765118)"
     clip-path="url(#clipPath4285)">
    <flowRoot
       transform="matrix(2.6183389,0,0,2.7335663,194.50067,18.12736)"
       style="font-size:40px;font-style:normal;font-variant:normal;font-weight:normal;font-stretch:normal;text-align:center;line-height:125%;letter-spacing:-1px;word-spacing:0px;writing-mode:lr-tb;text-anchor:middle;fill:#00004d;fill-opacity:1;stroke:none;font-family:Snap ITC;-inkscape-font-specification:Snap ITC"
       id="flowRoot3817-1"
       xml:space="preserve"><flowRegion
         id="flowRegion3819-7"><rect
           style="text-align:center;text-anchor:middle;fill:#00004d;fill-opacity:1"
           y="23.02541"
           x="-134.94928"
           height="218.4893"
           width="351.60254"
           id="rect3821-4" /></flowRegion><flowPara
         style="font-style:normal;font-variant:normal;font-weight:normal;font-stretch:normal;text-align:center;line-height:87.99999952%;letter-spacing:0px;text-anchor:middle;fill:#00004d;fill-opacity:1;stroke:none;font-family:IcedEarth;-inkscape-font-specification:IcedEarth"
         id="flowPara3823-0">ICED<flowSpan
   id="flowSpan3829-9"
   style="text-align:center;line-height:87.99999952%;letter-spacing:0px;text-anchor:middle;fill:none;stroke:none">i</flowSpan></flowPara><flowPara
         id="flowPara3178"
         style="font-style:normal;font-variant:normal;font-weight:normal;font-stretch:normal;text-align:center;line-height:87.99999952%;letter-spacing:0px;text-anchor:middle;fill:#00004d;fill-opacity:1;stroke:none;font-family:IcedEarth;-inkscape-font-specification:IcedEarth">EARTH</flowPara><flowPara
         id="flowPara3833-4"
         style="font-style:normal;font-variant:normal;font-weight:normal;font-stretch:normal;text-align:center;line-height:87.99999952%;letter-spacing:0px;text-anchor:middle;fill:#00004d;fill-opacity:1;stroke:none;font-family:IcedEarth;-inkscape-font-specification:IcedEarth" /></flowRoot>    <flowRoot
       transform="matrix(2.6183389,0,0,2.7335663,188.74461,13.958703)"
       style="font-size:40px;font-style:normal;font-variant:normal;font-weight:normal;font-stretch:normal;text-align:center;line-height:125%;letter-spacing:-1px;word-spacing:0px;writing-mode:lr-tb;text-anchor:middle;fill:#ffffff;fill-opacity:1;stroke:none;font-family:Snap ITC;-inkscape-font-specification:Snap ITC"
       id="flowRoot3817"
       xml:space="preserve"><flowRegion
         id="flowRegion3819"><rect
           style="text-align:center;text-anchor:middle;fill:#ffffff;fill-opacity:1"
           y="23.02541"
           x="-134.94928"
           height="218.4893"
           width="351.60254"
           id="rect3821" /></flowRegion><flowPara
         style="font-style:normal;font-variant:normal;font-weight:normal;font-stretch:normal;text-align:center;line-height:87.99999952%;letter-spacing:0px;text-anchor:middle;fill:#ffffff;fill-opacity:1;stroke:none;font-family:IcedEarth;-inkscape-font-specification:IcedEarth"
         id="flowPara3823">ICED<flowSpan
   id="flowSpan3829"
   style="text-align:center;line-height:87.99999952%;letter-spacing:0px;text-anchor:middle;fill:none;stroke:none">i</flowSpan></flowPara><flowPara
         id="flowPara3176"
         style="font-style:normal;font-variant:normal;font-weight:normal;font-stretch:normal;text-align:center;line-height:87.99999952%;letter-spacing:0px;text-anchor:middle;fill:#ffffff;fill-opacity:1;stroke:none;font-family:IcedEarth;-inkscape-font-specification:IcedEarth">EARTH</flowPara><flowPara
         id="flowPara3833"
         style="font-style:normal;font-variant:normal;font-weight:normal;font-stretch:normal;text-align:center;line-height:87.99999952%;letter-spacing:0px;text-anchor:middle;fill:#ffffff;fill-opacity:1;stroke:none;font-family:IcedEarth;-inkscape-font-specification:IcedEarth" /></flowRoot>  </g>
  <image
     y="-10.690279"
     x="-424.38028"
     id="image3920"
     xlink:href="file:///D:/Desktop/2020-11-20%2010_53_30-'Game%20of%20Thrones'_%20The%20huge%20difference%20between%20White%20Walkers%20and%20wights%20-%20Busine.jpg"
     height="494.03482"
     width="342.61633"
     clip-path="none"
     transform="matrix(1.0037,0,0,1.0156945,420.38184,74.939857)" />
  <path
     style="fill:none;stroke:#000000;stroke-width:0.66526335px;stroke-linecap:butt;stroke-linejoin:miter;stroke-opacity:1"
     d="m 139.16966,99.338337 8.03444,-8.91886 10.78597,-8.897723 12.06107,-7.548983 11.61621,-4.12395 12.58619,-2.248954 13.51953,-0.822869 12.8955,-0.485462 17.45999,1.099826 9.92512,2.562368 10.26128,4.810011 14.58058,17.229382 10.15914,15.178367 c 3.20081,10.37936 2.97312,19.92763 6.0711,28.26079 2.44782,6.80521 3.57787,12.72143 4.85688,18.73812 0.10894,5.02911 2.16649,0.93393 -2.58022,13.97681 0,0 -2.85914,8.36423 -1.66955,11.05856 1.0021,2.26967 3.26556,25.36248 -1.06245,30.25746 -0.009,2.42325 -2.36993,4.38568 -4.40154,5.99007 l -3.64266,2.45745 c 0,0 -3.03555,1.84309 -4.24977,5.52929 -1.21421,3.68618 -3.94621,6.14364 -3.94621,6.14364 0,0 -1.82133,2.15029 -4.24977,5.83648 -2.42844,3.68619 -3.3391,1.53591 -4.55332,8.90829 -1.21422,7.37239 -3.64266,14.13039 -5.46399,20.27403 -1.82133,6.14366 1.21422,2.45746 -2.42844,8.60112 -3.64266,6.14364 -2.42844,8.60111 -5.46399,11.67294 -3.03554,3.07182 -2.42843,3.68619 -8.49953,7.37238 -6.0711,3.68619 -8.49955,4.30056 -9.10665,7.37238 -0.60711,3.07183 -1.82133,5.52929 -0.60711,10.44421 1.21421,4.9149 1.82132,12.90165 2.42844,16.58784 0.60711,3.6862 3.03555,8.60112 3.03555,8.60112 0,0 5.46398,7.37237 8.49953,9.21547 3.03555,1.84309 6.0711,9.82984 6.0711,9.82984 0,0 1.82133,6.14364 2.42845,8.60111 0.6071,2.45746 0.6071,4.91491 3.64265,9.21546 3.03555,4.30057 6.67821,7.98676 9.71376,12.28731 3.03554,4.30056 11.53508,18.43094 11.53508,18.43094 0,0 3.03555,6.75802 5.46399,10.44422 2.42844,3.68617 3.64265,8.6011 3.64265,8.6011 -114.09467,7.7855 -176.70316,-61.71556 -202.240617,-130.1109 -16.027865,7.89696 -18.938544,9.75975 -21.175772,-6.89248 0,0 -3.03555,3.68619 -6.678208,7.37238 -10.499525,14.52645 -6.327194,4.38202 -2.428442,-3.68619 2.428442,-4.91492 5.463992,-14.74476 5.463992,-14.74476 0,0 -0.607108,-1.22873 -3.642658,4.30055 -3.03555,5.52929 -4.249766,7.37238 -6.678208,10.44421 -2.428442,3.07182 -7.285316,9.21546 -4.856884,3.68619 2.428442,-5.52928 7.285326,-14.1304 7.285326,-14.1304 0,0 4.856874,-12.90166 3.642648,-9.82984 -1.214216,3.07183 -6.07109,9.21548 -9.713748,12.2873 -3.642658,3.07183 -10.927975,12.90166 -4.856885,1.22873 6.071101,-11.67293 13.963525,-23.34586 13.963525,-23.34586 0,0 6.678218,-12.90167 7.285326,-17.81659 0.607108,-4.91491 4.249767,-11.05857 0.607108,-6.14364 -3.642658,4.91491 -9.10665,11.67293 -13.963524,18.43093 -4.856884,6.75804 -15.784859,16.58787 -22.463057,23.34587 -6.678218,6.75803 -3.03556,1.8431 -7.285326,7.37239 -4.249767,5.52929 -7.285317,9.21547 -12.1421909,14.74475 -4.8568742,5.52928 -12.7493086,11.05857 -6.0711003,3.68619 6.6782083,-7.37237 9.1066502,-9.21547 16.3919672,-19.0453 7.285316,-9.82984 7.892424,-11.05858 13.356406,-20.88842 5.463992,-9.82984 13.356417,-23.34586 13.356417,-23.34586 0,0 -2.428442,-1.22873 1.214226,-9.21548 3.642658,-7.98674 9.713748,-19.04531 9.713748,-19.04531 l 12.749309,-19.0453 -15.177741,7.98675 c 0,0 -0.607108,-1.8431 -9.713758,1.84308 -9.106651,3.68619 -14.570633,5.52928 -19.427517,9.82984 -4.856874,4.30056 -11.535083,9.82985 -11.535083,9.82985 0,0 12.142201,-14.74478 13.963525,-17.81658 1.821334,-3.07183 5.463982,-7.98676 1.821334,-4.91493 -3.642658,3.07183 -11.535083,5.52929 -11.535083,5.52929 0,0 4.249757,-5.52929 7.892425,-6.75802 3.642658,-1.22874 9.10664,-2.45746 12.749298,-9.21547 3.642658,-6.75803 3.642658,-13.51603 11.535093,-19.65968 7.892424,-6.14365 10.320866,-11.67294 16.999065,-15.97349 6.678218,-4.30056 27.927059,-14.74476 32.176825,-16.58786 4.249769,-1.84309 12.749299,-8.90829 16.391959,-11.05857 2.16219,-1.27635 4.24977,-3.83977 10.92797,-11.21215 6.67822,-7.37238 12.74931,-13.976803 12.74931,-13.976803 z"
     id="path4440"
     inkscape:connector-curvature="0"
     sodipodi:nodetypes="ccccccccccccccccscccscssssssssscscssscsccccccssscssscssssssssscscccsscsscsssssssc" />
  <g
     transform="matrix(0.72759905,0,0,0.72759905,-111.30155,171.01183)"
     id="g3940"
     clip-path="none">
    <g
       transform="matrix(1.7364032,0,0,1.955077,-277.95329,-251.00435)"
       id="g3987">
      <path
         style="fill:#ff6600;fill-opacity:1;stroke:none"
         d="m 172.57655,23.449839 -20.94234,41.297322 6.30197,-7.462805 7.2947,-13.097743 1.3691,0.09422 -6.25573,11.66744 5.1171,-5.474514 15.34234,-22.311573 -9.31291,7.4135 -3.9549,6.609325 -1.14131,-0.30574 4.76414,-8.653586 z"
         id="path3017"
         inkscape:connector-curvature="0"
         sodipodi:nodetypes="ccccccccccccc"
         clip-path="url(#clipPath3808)"
         transform="matrix(2.6969563,-0.87812515,0.94539363,1.7976485,-107.44957,269.08617)" />
      <path
         style="fill:#ff6600;fill-opacity:1;stroke:none"
         d="m 150.88423,32.263826 8.96187,4.537956 10.96126,-1.609651 -22.48847,41.202929 14.99957,-18.700702 13.61861,-23.118663 10.29694,-2.390223 6.43883,-2.717422 z"
         id="path3017-4-4"
         inkscape:connector-curvature="0"
         sodipodi:nodetypes="ccccccccc"
         clip-path="url(#clipPath3808-1-0)"
         transform="matrix(2.005519,-0.71658421,0.82489841,1.7529931,-9.2549147,236.8105)" />
      <path
         style="fill:#ff6600;fill-opacity:1;stroke:none"
         d="m 159.03141,34.386153 7.12671,3.340659 4.47802,-1.057068 -12.73438,24.229412 8.73268,-7.973375 9.42301,-17.216391 10.04413,-4.516326 z"
         id="path3017-4-4-5"
         inkscape:connector-curvature="0"
         sodipodi:nodetypes="cccccccc"
         clip-path="url(#clipPath3808-1-0-4)"
         transform="matrix(1.923396,-0.73860028,0.79112008,1.8068514,-10.539639,256.66397)" />
    </g>
  </g>
  <path
     sodipodi:nodetypes="csc"
     inkscape:connector-curvature="0"
     id="path3100"
     d="m 213.43167,98.691748 c 0,0 -1.78749,-15.97224 24.27272,-31.69721 34.45257,-20.78901 72.23799,6.04341 72.23799,6.04341"
     style="fill:none;stroke:none"
     clip-path="url(#clipPath3900)"
     transform="translate(54.048043,23.402698)" />
  <flowRoot
     xml:space="preserve"
     id="flowRoot3038"
     style="font-size:40px;font-style:normal;font-variant:normal;font-weight:normal;font-stretch:normal;text-align:start;line-height:125%;letter-spacing:-1px;word-spacing:0px;writing-mode:lr-tb;text-anchor:start;fill:#000000;fill-opacity:1;stroke:none;font-family:Snap ITC;-inkscape-font-specification:Snap ITC"
     clip-path="url(#clipPath3892)"
     transform="translate(54.048043,23.402698)"><flowRegion
       id="flowRegion3040"><rect
         id="rect3042"
         width="39.474957"
         height="40.392979"
         x="164.32599"
         y="152.46655" /></flowRegion><flowPara
       id="flowPara3044" /></flowRoot>  <flowRoot
     xml:space="preserve"
     id="flowRoot3801"
     style="font-size:40px;font-style:normal;font-variant:normal;font-weight:normal;font-stretch:normal;text-align:start;line-height:125%;letter-spacing:-1px;word-spacing:0px;writing-mode:lr-tb;text-anchor:start;fill:#000000;fill-opacity:1;stroke:none;font-family:Snap ITC;-inkscape-font-specification:Snap ITC"
     clip-path="url(#clipPath3888)"
     transform="translate(54.048043,23.402698)"><flowRegion
       id="flowRegion3803"><rect
         id="rect3805"
         width="123.01498"
         height="79.867935"
         x="105.57256"
         y="251.61296" /></flowRegion><flowPara
       id="flowPara3807" /></flowRoot>  <flowRoot
     xml:space="preserve"
     id="flowRoot3809"
     style="font-size:40px;font-style:normal;font-variant:normal;font-weight:normal;font-stretch:normal;text-align:start;line-height:125%;letter-spacing:-1px;word-spacing:0px;writing-mode:lr-tb;text-anchor:start;fill:#000000;fill-opacity:1;stroke:none;font-family:Snap ITC;-inkscape-font-specification:Snap ITC"
     clip-path="url(#clipPath3884)"
     transform="translate(54.048043,23.402698)"><flowRegion
       id="flowRegion3811"><rect
         id="rect3813"
         width="106.49059"
         height="84.458046"
         x="131.27719"
         y="300.26813" /></flowRegion><flowPara
       id="flowPara3815" /></flowRoot>  <flowRoot
     xml:space="preserve"
     id="flowRoot4442"
     style="font-size:40px;font-style:normal;font-variant:normal;font-weight:normal;font-stretch:normal;text-align:center;line-height:125%;letter-spacing:-1px;word-spacing:0px;writing-mode:lr-tb;text-anchor:middle;fill:#808080;fill-opacity:1;stroke:none;font-family:Snap ITC;-inkscape-font-specification:Snap ITC"
     transform="matrix(0.85710037,0,0,0.85710037,-9.4300689,44.349088)"><flowRegion
       id="flowRegion4444"><rect
         id="rect4446"
         width="258.35764"
         height="168.77635"
         x="238.88344"
         y="311.08844"
         style="text-align:center;text-anchor:middle;fill:#808080" /></flowRegion><flowPara
       id="flowPara4448"
       style="font-style:normal;font-variant:normal;font-weight:normal;font-stretch:normal;text-align:center;line-height:109.00000334%;text-anchor:middle;fill:#808080;font-family:Futura XBlk BT;-inkscape-font-specification:Futura XBlk BT">1st</flowPara><flowPara
       style="font-style:normal;font-variant:normal;font-weight:normal;font-stretch:normal;text-align:center;line-height:109.00000334%;text-anchor:middle;fill:#808080;font-family:Futura XBlk BT;-inkscape-font-specification:Futura XBlk BT"
       id="flowPara4450">Place</flowPara></flowRoot></svg>
