<?xml version="1.0" encoding="UTF-8" standalone="no"?>
<svg
   xmlns:dc="http://purl.org/dc/elements/1.1/"
   xmlns:cc="http://creativecommons.org/ns#"
   xmlns:rdf="http://www.w3.org/1999/02/22-rdf-syntax-ns#"
   xmlns:svg="http://www.w3.org/2000/svg"
   xmlns="http://www.w3.org/2000/svg"
   xmlns:sodipodi="http://sodipodi.sourceforge.net/DTD/sodipodi-0.dtd"
   xmlns:inkscape="http://www.inkscape.org/namespaces/inkscape"
   version="1.0"
   width="100%"
   height="100%"
   viewBox="0 0 427.78311 420.52905"
   preserveAspectRatio="xMidYMid meet"
   id="svg2"
   inkscape:version="0.48.5 r10040"
   sodipodi:docname="THead.svg"
   inkscape:export-filename="D:\Downloads\00096878_0726_thumb_00023929\your_stencils\THead.png"
   inkscape:export-xdpi="200"
   inkscape:export-ydpi="200">
  <metadata
     id="metadata40">
    <rdf:RDF>
      <cc:Work
         rdf:about="">
        <dc:format>image/svg+xml</dc:format>
        <dc:type
           rdf:resource="http://purl.org/dc/dcmitype/StillImage" />
        <dc:title />
      </cc:Work>
    </rdf:RDF>
  </metadata>
  <defs
     id="defs38">
    <clipPath
       clipPathUnits="userSpaceOnUse"
       id="clipPath3808">
      <path
         sodipodi:type="arc"
         style="fill:none;stroke:#ff8dff;stroke-width:3.5;stroke-linecap:round;stroke-linejoin:round;stroke-miterlimit:4;stroke-opacity:1;stroke-dasharray:none"
         id="path3810"
         sodipodi:cx="202.11864"
         sodipodi:cy="248.38136"
         sodipodi:rx="204.81355"
         sodipodi:ry="214.24576"
         d="m 406.93219,248.38136 a 204.81355,214.24576 0 1 1 -409.6271058,0 204.81355,214.24576 0 1 1 409.6271058,0 z"
         transform="matrix(0.94563991,0,0,0.94563991,-3.8348464,-26.086973)" />
    </clipPath>
    <clipPath
       clipPathUnits="userSpaceOnUse"
       id="clipPath3812">
      <path
         sodipodi:type="arc"
         style="fill:none;stroke:#ff8dff;stroke-width:3.5;stroke-linecap:round;stroke-linejoin:round;stroke-miterlimit:4;stroke-opacity:1;stroke-dasharray:none"
         id="path3814"
         sodipodi:cx="202.11864"
         sodipodi:cy="248.38136"
         sodipodi:rx="204.81355"
         sodipodi:ry="214.24576"
         d="m 406.93219,248.38136 a 204.81355,214.24576 0 1 1 -409.6271058,0 204.81355,214.24576 0 1 1 409.6271058,0 z"
         transform="matrix(9.2072679,0,0,-9.2952547,-42.865823,4439.6956)" />
    </clipPath>
    <clipPath
       clipPathUnits="userSpaceOnUse"
       id="clipPath3816">
      <path
         sodipodi:type="arc"
         style="fill:none;stroke:#ff8dff;stroke-width:3.5;stroke-linecap:round;stroke-linejoin:round;stroke-miterlimit:4;stroke-opacity:1;stroke-dasharray:none"
         id="path3818"
         sodipodi:cx="202.11864"
         sodipodi:cy="248.38136"
         sodipodi:rx="204.81355"
         sodipodi:ry="214.24576"
         d="m 406.93219,248.38136 a 204.81355,214.24576 0 1 1 -409.6271058,0 204.81355,214.24576 0 1 1 409.6271058,0 z"
         transform="matrix(9.4563991,0,0,-9.1429752,-38.348464,4369.7026)" />
    </clipPath>
  </defs>
  <sodipodi:namedview
     pagecolor="#89ffff"
     bordercolor="#666666"
     borderopacity="1"
     objecttolerance="10"
     gridtolerance="10"
     guidetolerance="10"
     inkscape:pageopacity="0"
     inkscape:pageshadow="2"
     inkscape:window-width="1451"
     inkscape:window-height="841"
     id="namedview36"
     showgrid="false"
     inkscape:zoom="0.5719556"
     inkscape:cx="290.94964"
     inkscape:cy="204.18805"
     inkscape:window-x="77"
     inkscape:window-y="-8"
     inkscape:window-maximized="1"
     inkscape:current-layer="svg2"
     fit-margin-top="10"
     fit-margin-left="10"
     fit-margin-right="10"
     fit-margin-bottom="85" />
  <g
     id="g3925"
     transform="matrix(-4.5059047,0,0,-4.5059047,439.32217,438.35689)"
     style="stroke:none;stroke-opacity:1">
    <path
       id="path3911"
       d="M 53.922,5.171 C 29.163,3.005 7.337,21.319 5.171,46.078 3.005,70.836 21.319,92.663 46.078,94.829 70.836,96.995 92.663,78.68 94.829,53.922 96.995,29.164 78.68,7.337 53.922,5.171 z M 46.34,91.84 C 23.269,89.821 6.142,69.41 8.16,46.34 10.179,23.27 30.59,6.142 53.66,8.16 76.731,10.179 93.858,30.59 91.84,53.66 89.821,76.731 69.41,93.858 46.34,91.84 z"
       inkscape:connector-curvature="0"
       style="stroke:none;stroke-opacity:1" />
    <path
       id="path3913"
       d="M 53.573,9.156 C 31.052,7.186 11.126,23.905 9.156,46.427 7.186,68.948 23.905,88.874 46.427,90.844 68.948,92.815 88.874,76.095 90.844,53.573 92.814,31.052 76.095,11.126 53.573,9.156 z m 36.265,37.31 -0.042,-0.196 -16.176,3.475 -9.993,-2.147 8.656,-5.436 16.389,-2.267 -0.046,-0.331 c 0.603,2.235 1.005,4.544 1.212,6.902 z M 55.434,48.498 55.183,48.175 C 55.17,48.14 55.157,48.107 55.144,48.072 l -0.016,-0.415 0.48,0.301 -0.174,0.54 z m 0.186,1.055 0.348,0.447 -0.348,0.448 -0.126,-0.39 c 10e-4,-0.043 0.006,-0.087 0.005,-0.131 l 0.121,-0.374 z m -0.477,2.382 c 0.015,-0.036 0.026,-0.071 0.038,-0.108 l 0.254,-0.325 0.174,0.54 -0.48,0.302 0.014,-0.409 z m 0.624,0.598 0.315,0.979 -1.005,0.216 0.029,-0.781 0.661,-0.414 z m 0.279,-0.766 -0.24,-0.743 0.479,-0.616 0.632,0.813 -0.871,0.546 z m -0.24,-2.791 0.24,-0.743 0.871,0.547 -0.632,0.812 -0.479,-0.616 z m -0.039,-1.509 -0.661,-0.415 -0.029,-0.78 1.006,0.216 -0.316,0.979 z m -0.71,-1.711 -0.044,-1.206 1.773,-0.245 -0.55,1.705 -1.179,-0.254 z m 10e-4,8.488 1.18,-0.254 0.549,1.704 -1.773,-0.245 0.044,-1.205 z m 1.146,-1.986 1.021,-0.641 1.1,1.413 -1.751,0.376 -0.37,-1.148 z M 56.603,50 57.343,49.048 58.859,50 57.342,50.952 56.603,50 z m 0.623,-1.617 -1.021,-0.641 0.371,-1.148 1.75,0.376 -1.1,1.413 z m -0.497,-2.267 0.609,-1.887 3.495,-0.483 -2.167,2.786 -1.937,-0.416 z m 0.228,-2.339 -1.963,0.271 -0.073,-1.98 3.119,-1.65 -1.083,3.359 z m -1.963,12.175 1.964,0.271 1.082,3.358 -3.119,-1.65 0.073,-1.979 z m 1.735,-2.067 1.937,-0.416 2.166,2.785 -3.495,-0.483 -0.608,-1.886 z m 0.922,-2.535 1.679,-1.054 2.988,1.877 -3.45,0.741 -1.217,-1.564 z m 0,-2.699 1.217,-1.564 3.45,0.741 -2.988,1.877 -1.679,-1.054 z m 1.558,-2.003 2.334,-3.001 9.534,-1.319 -8.151,5.118 -3.717,-0.798 z m 2.064,-3.468 -3.767,0.521 1.168,-3.618 8.509,-4.5 -5.91,7.597 z m -3.013,-3.444 -3.36,1.777 -0.142,-3.799 6.455,-7.139 -2.953,9.161 z m -3.36,18.751 3.36,1.777 2.953,9.159 -6.454,-7.138 0.141,-3.798 z m 2.608,-2.187 3.765,0.521 5.908,7.596 -8.506,-4.499 -1.167,-3.618 z m 1.701,-2.948 3.717,-0.799 8.15,5.118 -9.533,-1.318 -2.334,-3.001 z M 59.8,50 63.02,47.979 72.43,50 63.02,52.021 59.8,50 z M 88.578,39.403 73.313,41.514 86.354,33.326 c 0.897,1.952 1.648,3.981 2.224,6.077 z m -2.346,-6.339 -0.114,-0.18 -14.011,8.797 -10.125,1.401 6.277,-8.069 14.623,-7.735 -0.098,-0.184 c 1.317,1.881 2.468,3.88 3.448,5.97 z m -3.619,-6.209 -13.607,7.196 9.451,-12.15 c 1.516,1.538 2.905,3.194 4.156,4.954 z M 78.25,21.688 78.087,21.562 67.93,34.621 58.895,39.4 62.033,29.67 73.128,17.401 72.968,17.255 c 1.888,1.33 3.657,2.811 5.282,4.433 z M 72.732,17.093 62.406,28.512 67.135,13.848 c 1.965,0.932 3.832,2.023 5.597,3.245 z m -5.749,-3.32 -0.317,-0.102 -5.078,15.746 -6.855,7.58 -0.379,-10.214 6.23,-15.326 -0.188,-0.076 c 2.287,0.613 4.492,1.409 6.587,2.392 z m -18.999,41.767 0.523,0.579 -0.909,0.48 -0.389,-0.952 0.775,-0.107 z m -0.968,-0.371 -0.213,-0.525 0.405,0.087 c 0.031,0.019 0.063,0.038 0.094,0.057 l 0.275,0.304 -0.561,0.077 z m 1.838,1.333 0.81,0.895 -1.202,1.328 -0.674,-1.659 1.066,-0.564 z m -0.271,-1.045 0.391,-0.055 c 0.042,0.009 0.086,0.012 0.129,0.019 l 0.362,0.191 -0.501,0.265 -0.381,-0.42 z M 49.311,56.261 50,55.896 50.69,56.261 50,57.023 49.311,56.261 z m 1.224,-0.649 0.364,-0.193 c 0.037,-0.005 0.074,-0.011 0.112,-0.019 l 0.405,0.057 -0.38,0.42 -0.501,-0.265 z m 0.611,0.89 1.066,0.564 -0.675,1.658 -1.201,-1.328 0.81,-0.894 z m 0.347,-0.383 0.522,-0.578 0.774,0.106 -0.388,0.953 -0.908,-0.481 z m 0.93,-1.028 0.271,-0.3 c 0.033,-0.019 0.064,-0.041 0.098,-0.06 l 0.405,-0.089 -0.214,0.525 -0.56,-0.076 z m -2.816,-0.609 c -2.472,-0.216 -4.307,-2.402 -4.09,-4.875 0.216,-2.472 2.402,-4.307 4.875,-4.091 2.472,0.216 4.307,2.403 4.09,4.875 -0.215,2.473 -2.402,4.308 -4.875,4.091 z m 2.409,-10.022 -0.523,-0.579 0.909,-0.482 0.389,0.954 -0.775,0.107 z m 0.968,0.371 0.214,0.526 -0.406,-0.087 c -0.031,-0.019 -0.063,-0.039 -0.096,-0.057 l -0.274,-0.303 0.562,-0.079 z m -1.838,-1.332 -0.811,-0.896 1.202,-1.329 0.675,1.66 -1.066,0.565 z m 0.272,1.044 -0.39,0.054 c -0.043,-0.008 -0.088,-0.01 -0.131,-0.018 l -0.362,-0.192 0.502,-0.265 0.381,0.421 z M 50.69,43.74 50,44.104 49.31,43.739 50,42.976 50.69,43.74 z m -1.225,0.648 -0.364,0.192 c -0.038,0.007 -0.076,0.012 -0.114,0.019 l -0.404,-0.056 0.382,-0.421 0.5,0.266 z m -0.611,-0.89 -1.066,-0.564 0.675,-1.659 1.201,1.328 -0.81,0.895 z m -0.347,0.383 -0.523,0.579 -0.773,-0.107 0.389,-0.953 0.907,0.481 z m -0.929,1.028 -0.271,0.299 c -0.034,0.02 -0.065,0.042 -0.1,0.062 l -0.404,0.087 0.214,-0.526 0.561,0.078 z m 5.917,-0.149 1.021,-0.141 0.037,1.028 -0.764,-0.164 -0.294,-0.723 z m -0.194,-0.477 -0.454,-1.118 1.583,-0.838 0.067,1.791 -1.196,0.165 z m -0.644,-1.584 -0.746,-1.836 2.367,-2.619 0.131,3.528 -1.752,0.927 z m -0.955,-2.35 -1.432,-3.521 3.625,-8.917 0.356,9.619 -2.549,2.819 z m -0.373,0.412 -1.33,1.47 -1.328,-1.469 1.329,-3.27 1.329,3.269 z m -3.031,-0.412 -2.55,-2.818 0.357,-9.618 3.625,8.914 -1.432,3.522 z m -0.209,0.514 -0.746,1.836 -1.752,-0.926 0.131,-3.527 2.367,2.617 z m -0.936,2.302 -0.455,1.118 -1.194,-0.165 0.066,-1.79 1.583,0.837 z m -0.649,1.595 -0.294,0.724 -0.762,0.164 0.038,-1.029 1.018,0.141 z m -0.522,1.284 -0.157,0.385 c -0.024,0.029 -0.052,0.056 -0.076,0.086 l -0.342,0.214 0.021,-0.567 0.554,-0.118 z m -0.228,7.443 c 0.024,0.03 0.049,0.06 0.075,0.089 l 0.153,0.38 -0.555,-0.119 -0.021,-0.567 0.348,0.217 z m 0.456,1.029 0.295,0.723 -1.021,0.142 -0.037,-1.027 0.763,0.162 z m 0.489,1.202 0.454,1.118 -1.583,0.837 -0.067,-1.789 1.196,-0.166 z m 0.644,1.583 0.746,1.836 -2.367,2.618 -0.131,-3.527 1.752,-0.927 z m 0.955,2.35 1.432,3.521 -3.625,8.916 -0.356,-9.618 2.549,-2.819 z m 0.373,-0.412 1.33,-1.47 1.328,1.47 -1.329,3.27 -1.329,-3.27 z m 3.031,0.413 2.55,2.818 -0.357,9.618 -3.625,-8.916 1.432,-3.52 z m 0.209,-0.515 0.746,-1.835 1.752,0.927 -0.131,3.525 -2.367,-2.617 z m 0.936,-2.301 0.455,-1.118 1.193,0.165 -0.065,1.789 -1.583,-0.836 z m 0.649,-1.597 0.294,-0.723 0.763,-0.165 -0.038,1.029 -1.019,-0.141 z m 0.523,-1.284 0.156,-0.386 c 0.024,-0.028 0.052,-0.055 0.076,-0.084 l 0.342,-0.215 -0.021,0.565 -0.553,0.12 z m 0.228,-7.442 c -0.025,-0.031 -0.051,-0.061 -0.076,-0.09 l -0.153,-0.379 0.555,0.119 0.021,0.567 -0.347,-0.217 z M 60.106,11.302 54.308,25.565 53.737,10.181 c 2.186,0.204 4.311,0.586 6.369,1.121 z M 49.5,10.015 V 12 c 0,0.276 0.224,0.5 0.5,0.5 0.276,0 0.5,-0.224 0.5,-0.5 v -1.986 c 0.989,0.011 1.984,0.051 2.986,0.139 l -0.25,0.009 0.613,16.531 -3.849,9.47 -3.849,-9.467 0.613,-16.534 -0.208,-0.007 c 0.973,-0.084 1.956,-0.126 2.944,-0.14 z M 46.263,10.181 45.692,25.566 39.89,11.294 c 2.068,-0.54 4.199,-0.912 6.373,-1.113 z m -6.558,1.158 -0.289,0.117 6.23,15.327 -0.379,10.215 -6.855,-7.582 -5.079,-15.746 -0.199,0.064 c 2.103,-0.98 4.298,-1.789 6.571,-2.395 z m 5.152,36.727 c -0.015,0.036 -0.026,0.072 -0.038,0.107 l -0.253,0.325 -0.175,-0.54 0.48,-0.302 -0.014,0.41 z m 0.015,4.276 -0.48,-0.301 0.175,-0.539 0.251,0.324 c 0.013,0.034 0.026,0.067 0.039,0.102 l 0.015,0.414 z m -0.366,-2.4 c -10e-4,0.043 -0.006,0.087 -0.005,0.13 L 44.38,50.447 44.032,50 l 0.348,-0.448 0.126,0.39 z m -0.312,1.081 -0.24,0.743 -0.871,-0.548 0.632,-0.812 0.479,0.617 z m 0.04,1.509 0.66,0.416 0.029,0.779 -1.006,-0.215 0.317,-0.98 z m 0.661,-5.48 -0.661,0.415 -0.315,-0.979 1.005,-0.216 -0.029,0.78 z m -0.941,1.181 0.24,0.744 -0.479,0.616 -0.632,-0.813 0.871,-0.547 z m -1.18,0.151 -1.1,-1.414 1.75,-0.376 0.371,1.148 -1.021,0.642 z M 43.397,50 42.657,50.952 41.141,50 42.657,49.048 43.397,50 z m -0.623,1.616 1.021,0.642 -0.371,1.148 -1.75,-0.376 1.1,-1.414 z m 0.99,2.374 1.18,0.253 0.044,1.206 -1.773,0.246 0.549,-1.705 z m 1.178,-8.233 -1.179,0.253 -0.55,-1.705 1.773,0.245 -0.044,1.207 z m -1.671,0.359 -1.937,0.416 -2.167,-2.786 3.495,0.483 0.609,1.887 z m -0.922,2.535 -1.679,1.053 -2.988,-1.876 3.449,-0.741 1.218,1.564 z m 0,2.698 -1.217,1.565 -3.451,-0.742 2.989,-1.876 1.679,1.053 z m -1.015,2.12 1.938,0.416 -0.608,1.886 -3.495,0.484 2.165,-2.786 z m 1.709,2.755 1.963,-0.271 0.073,1.98 -3.118,1.649 1.082,-3.358 z m 1.963,-12.176 -1.963,-0.271 -1.083,-3.359 3.119,1.65 -0.073,1.98 z m -2.514,-0.347 -3.765,-0.521 -5.91,-7.598 8.508,4.5 1.167,3.619 z m -1.701,2.947 -3.716,0.798 -8.151,-5.118 9.532,1.318 2.335,3.002 z M 40.2,50 36.98,52.021 27.57,50 36.98,47.979 40.2,50 z m -3.126,2.553 3.717,0.799 -2.334,3.001 -9.534,1.319 8.151,-5.119 z m 1.653,4.267 3.767,-0.521 -1.168,3.617 -8.508,4.501 5.909,-7.597 z m 3.013,3.445 3.359,-1.777 0.142,3.799 -6.455,7.138 2.954,-9.16 z m 3.36,-18.753 -3.36,-1.777 -2.954,-9.16 6.456,7.139 -0.142,3.798 z M 32.868,13.858 37.594,28.513 27.264,17.09 c 1.772,-1.225 3.648,-2.302 5.604,-3.232 z m -5.847,3.409 -0.149,0.135 11.096,12.269 3.138,9.729 -9.036,-4.779 -10.157,-13.058 -0.152,0.118 c 1.624,-1.619 3.385,-3.096 5.26,-4.414 z m -5.483,4.629 9.454,12.155 -13.609,-7.198 c 1.255,-1.765 2.641,-3.426 4.155,-4.957 z m -4.321,5.194 -0.1,0.188 14.623,7.735 6.276,8.069 -10.124,-1.4 -14.012,-8.798 -0.166,0.264 c 0.992,-2.135 2.171,-4.156 3.503,-6.058 z m -3.578,6.232 13.047,8.192 -15.252,-2.109 c 0.577,-2.106 1.313,-4.139 2.205,-6.083 z m -2.283,6.372 -0.028,0.201 16.388,2.267 8.657,5.436 -9.993,2.146 -16.175,-3.474 -0.053,0.244 c 0.205,-2.345 0.62,-4.62 1.204,-6.82 z M 10.137,46.766 25.189,50 10.135,53.234 c -0.169,-2.121 -0.177,-4.28 0.002,-6.468 z m 0.025,6.769 0.042,0.196 16.176,-3.476 9.993,2.146 -8.656,5.437 -16.389,2.267 0.045,0.328 c -0.602,-2.232 -1.004,-4.54 -1.211,-6.898 z m 1.261,7.063 15.261,-2.111 -13.038,8.187 c -0.897,-1.951 -1.647,-3.98 -2.223,-6.076 z m 2.344,6.337 0.115,0.182 14.009,-8.797 10.126,-1.4 -6.275,8.068 -14.624,7.735 0.097,0.183 c -1.317,-1.883 -2.468,-3.88 -3.448,-5.971 z m 3.621,6.211 13.606,-7.197 -9.45,12.15 c -1.516,-1.537 -2.906,-3.194 -4.156,-4.953 z m 4.359,5.162 0.167,0.13 10.156,-13.059 9.035,-4.778 -3.137,9.727 -11.096,12.27 0.158,0.145 c -1.889,-1.33 -3.658,-2.811 -5.283,-4.435 z m 5.521,4.598 10.327,-11.419 -4.729,14.665 C 30.9,85.221 29.032,84.129 27.268,82.906 z m 5.748,3.321 0.318,0.103 5.078,-15.746 6.855,-7.581 0.379,10.216 -6.23,15.326 0.188,0.076 c -2.288,-0.615 -4.493,-1.412 -6.588,-2.394 z m 6.878,2.471 5.798,-14.263 0.571,15.384 c -2.186,-0.204 -4.311,-0.586 -6.369,-1.121 z m 6.62,1.15 0.25,-0.01 -0.613,-16.53 3.85,-9.47 3.85,9.468 -0.613,16.533 0.202,0.007 c -2.269,0.194 -4.582,0.207 -6.926,0.002 z m 7.224,-0.029 0.57,-15.384 5.802,14.27 c -2.068,0.541 -4.199,0.913 -6.372,1.114 z m 6.559,-1.159 0.287,-0.117 -6.229,-15.325 0.378,-10.215 6.855,7.579 5.079,15.748 0.193,-0.063 c -2.101,0.979 -4.293,1.789 -6.563,2.393 z m 6.835,-2.518 -4.727,-14.655 10.331,11.422 c -1.772,1.225 -3.648,2.303 -5.604,3.233 z m 5.854,-3.414 0.143,-0.13 -11.097,-12.271 -3.138,-9.727 9.035,4.778 10.156,13.059 0.153,-0.117 c -1.622,1.616 -3.379,3.09 -5.252,4.408 z m 5.475,-4.623 -9.454,-12.157 13.61,7.199 c -1.255,1.765 -2.642,3.426 -4.156,4.958 z m 4.323,-5.197 0.099,-0.187 -14.624,-7.735 -6.275,-8.068 10.125,1.402 14.01,8.796 0.169,-0.269 c -0.993,2.136 -2.172,4.159 -3.504,6.061 z m 3.577,-6.23 -13.046,-8.191 15.25,2.109 c -0.576,2.106 -1.312,4.138 -2.204,6.082 z m 2.283,-6.372 0.028,-0.2 -16.389,-2.268 -8.656,-5.435 9.992,-2.147 16.176,3.476 0.053,-0.245 c -0.205,2.345 -0.62,4.619 -1.204,6.819 z M 89.863,53.234 74.811,50 89.865,46.766 c 0.169,2.12 0.177,4.281 -0.002,6.468 z"
       inkscape:connector-curvature="0"
       style="stroke:none;stroke-opacity:1" />
    <text
       id="text3915"
       font-weight="bold"
       font-size="5px"
       y="115"
       x="0"
       style="font-size:5px;font-weight:bold;fill:#000000;font-family:'\'Helvetica Neue\', Helvetica, Arial-Unicode, Arial, Sans-serif';stroke:none;stroke-opacity:1">Created by Arthur Shlain</text>
    <text
       id="text3917"
       font-weight="bold"
       font-size="5px"
       y="120"
       x="0"
       style="font-size:5px;font-weight:bold;fill:#000000;font-family:'\'Helvetica Neue\', Helvetica, Arial-Unicode, Arial, Sans-serif';stroke:none;stroke-opacity:1">from the Noun Project</text>
  </g>
  <g
     transform="matrix(0.1,0,0,-0.10011094,22.121199,425.69361)"
     id="g4"
     style="fill:#000000;stroke:none"
     clip-path="url(#clipPath3816)">
    <path
       d="m 1206.5169,920.31926 823.1125,-266.38342 684.0074,342.26144 551.8739,705.41722 -188.799,2345.3269 C 2067.2153,4075.2882 1699.7388,4098.0551 358.13133,4073.813 348.85775,3057.4811 533.66756,1644.4796 1206.5169,920.31926 z"
       id="path6"
       inkscape:connector-curvature="0"
       sodipodi:nodetypes="ccccccc" />
    <path
       sodipodi:type="arc"
       style="fill:none;stroke:none"
       id="path3963"
       sodipodi:cx="130.25487"
       sodipodi:cy="47.671162"
       sodipodi:rx="62.067753"
       sodipodi:ry="35.841942"
       d="m 192.32262,47.671162 c 0,19.794958 -27.78868,35.841941 -62.06775,35.841941 -34.279076,0 -62.067755,-16.046983 -62.067755,-35.841941 0,-19.794958 27.788679,-35.841942 62.067755,-35.841942 33.69242,0 61.23207,15.52192 62.04948,34.972379 l -62.04948,0.869563 z"
       transform="matrix(10,0,0,-9.9889183,-163.83266,4170.3792)"
       sodipodi:start="0"
       sodipodi:end="6.2589219" />
  </g>
  <g
     transform="matrix(0.10812093,0,0,-0.10170297,17.317477,429.25996)"
     id="g8"
     style="fill:#ffffff;stroke:none"
     clip-path="url(#clipPath3812)">
    <path
       d="m -209.8163,4148.1674 c 7.78371,-1405.6188 51.7738,-1807.4679 50.69497,-3226.55311 C 523.05436,1080.2339 1002.9003,1168 1039,1180 c 47,12 98,28 113,36 16,8 78.4407,41.83 100.4407,63.83 21,21 7.4951,36.1703 7.5593,43.17 0.054,5.8938 51.6811,31.1494 1.4068,117.9049 -26,41 -89.4407,113.245 -103.4407,143.245 -13,30 -46.4915,74.17 -67.4915,108.17 -21,35 -57.4746,27.6801 -63.4746,27.6801 -6,0 -21,-10 -34,-22 -13,-12 -26,-18 -30,-15 -4,4 -1,13 5,19 7,7 34.4576,55.3199 34.4576,65.3199 0,10 -35.4576,6.6801 -51.4576,35.6801 -17,28 -37,72 -45,97 -8,25 -18,79 -22,120 -7,72 -8,76 -55,121 -32,31 -51,60 -60,90 -6,24 -13,103 -14,174 -1,72 -6,141 -10,155 -4,14 -18,37 -29,51 -12,14 -34,50 -48,80 -13,30 -30,86 -35,124 -6,39 -9,106 -6,151 4,52 1,89 -6,103 -7,12 -9,31 -6,41 4,11 13,20 21,20 8,0 19,11 24,24 5,13 14,27 19,31 6,3 11,15 11,26 0,16 -5,19 -20,14 -15,-5 -20,-2 -20,13 0,11 17,40 38,65 20,25 49,55 64,66 15,12 36,37 48,56 18,30 20,38 9,51 -11,14 -10,19 6,31 11,8 35,22 53,30 29,12 33,18 28,38 -4,14 -9,51 -12,83 -4,39 -3,62 5,66 6,4 11,1 11,-8 0,-8 11,-27 24,-41 17,-18 26,-22 29,-13 3,8 9,4 15,-12 l 11,-25 0,26 c 1,19 12,34 41,54 24,16 49,46 60,69 10,22 16,44 14,48 -3,5 -15,9 -27,9 -12,1 1,6 28,13 40,8 59,20 89,53 20,23 50,44 66,48 16,4 37,1 49,-7 17,-11 23,-9 44,10 13,12 27,22 32,22 5,0 4,-5 -3,-12 -7,-7 -12,-16 -12,-21 0,-5 6,-4 14,2 7,6 21,9 29,5 9,-3 13,-12 10,-20 -4,-10 3,-14 23,-14 15,0 36,-7 46,-17 17,-15 20,-15 41,5 13,12 28,22 34,22 6,0 24,7 39,15 16,8 45,15 65,15 19,0 43,6 54,13 14,11 29,12 62,4 31,-6 48,-6 56,2 6,6 24,11 40,11 15,0 37,5 47,10 14,7 34,5 74,-7 34,-11 57,-25 59,-35 3,-11 15,-18 29,-18 14,0 50,-21 84,-48 32,-26 67,-51 77,-55 12,-4 17,-17 17,-41 0,-25 6,-38 20,-46 11,-6 20,-19 20,-29 0,-15 11,-20 58,-26 31,-3 85,-20 120,-36 35,-16 69,-28 77,-27 7,2 27,-14 44,-36 17,-21 31,-44 31,-51 0,-7 7,-18 15,-25 7,-6 17,-33 21,-58 4,-26 17,-63 30,-82 14,-20 24,-49 24,-70 0,-20 6,-45 14,-56 8,-11 17,-38 21,-60 l 6,-39 -25,30 c -14,16 -28,26 -31,23 -4,-3 -2,-15 4,-26 6,-12 11,-23 11,-27 0,-3 -10,-10 -22,-15 l -23,-9 23,-7 c 12,-3 22,-9 22,-12 0,-3 -7,-14 -16,-24 -14,-15 -15,-24 -5,-60 7,-24 13,-97 14,-163 2,-107 5,-124 25,-152 12,-17 22,-39 22,-48 0,-12 -5,-15 -20,-10 -14,4 -20,2 -20,-8 0,-8 -7,-20 -15,-27 -8,-7 -15,-23 -15,-36 0,-13 -14.0051,12.4679 -20.0051,12.4679 -5,0 -2.9949,-29.4679 -7.9949,-19.4679 -6,9 -24,17 -43,18 -19,1 19.4598,-31.4679 9.4598,-26.4679 -52.43,15.7873 -8.791,-21.9795 -40.4394,-33.961 6,-18 8.2828,-19.0516 12.2828,-46.0516 4,-32 -32.3032,-53.5195 -40.3032,-63.5195 -7,-8 -27,-15 -46,-15 -23,0 -37,-6 -44,-19 -5,-11 -10,-36 -10,-55 0,-20 -4,-36 -9,-36 -5,0 -12,-11 -15,-25 -4,-16 0,-35 11,-53 9,-15 28,-39 42,-54 13,-16 32,-28 41,-28 9,0 26,10 37,23 11,12 -47.7467,201.9112 -44.7467,211.9112 4,9 59.7965,64.2755 68.7965,64.2755 13,0 38.9502,-226.1867 32.9502,-256.1867 -4,-21 -13,-45 -20,-54 -8,-8 -14,-24 -14,-35 -1,-10 -6,-29 -13,-40 -7,-12 -27,-34 -44,-49 -28,-23 -14.4461,-33 -14.4461,-70 0,-37 -7.2737,-67.9036 11.7263,-192.6564 52.1455,-160.6771 -11.1315,-74.8082 128.7417,-277.485 125.0992,-82.7764 87.9312,-136.3577 625.0331,-345.0416 0,0 183.7063,-69.9886 466.4792,-132.45492 13.2455,1502.14222 10.0807,2517.28452 23.5461,3180.84382 -1759.7117,18.2096 -2367.2244,-3.5386 -3983.8966,-10.0385 z"
       id="path10"
       inkscape:connector-curvature="0"
       sodipodi:nodetypes="ccccsscccsscsscsccccsccccccsscssscccccccccscccccccccccsccssscccsccscsccsssccsccscscsccscccsscccccscccsccccscsssscsccccscsscccsccscccccscccccc"
       style="fill:#8a916f;fill-opacity:1" />
    <path
       d="m 2140,3850 c -5,0 -12,-4 -15,-10 -3,-5 3,-10 15,-10 12,0 18,5 15,10 -3,6 -10,10 -15,10 z"
       id="path12"
       inkscape:connector-curvature="0" />
    <g
       id="g3969">
      <path
         sodipodi:nodetypes="scscsscs"
         inkscape:connector-curvature="0"
         id="path28"
         d="m 2487.8907,2402.9108 c -21.2129,-17.6599 -25.6835,-46.5506 -30.0892,-52.6951 11.6186,-68.6256 -27.7727,-40.4168 -27.7727,-68.0667 0,-29.186 -4.9938,-39.0845 10.4423,-76.9072 17.6227,-26.1138 72.9671,-130.9001 125.7439,-54.9131 47.3684,68.2001 83.4686,146.8837 -16.9555,169.9251 -34.1258,7.8299 36.6998,102.5034 24.9514,127.0811 -13.2171,26.1138 -77.2561,-36.8781 -86.3202,-44.4241 z" />
      <path
         inkscape:connector-curvature="0"
         id="path14"
         d="m 1720,3423 c -41,2 -109,2 -150,0 -41,-2 -79,-8 -84,-13 -6,-6 -21,-10 -35,-11 -15,0 -39,-9 -56,-20 -16,-10 -39,-23 -50,-28 -12,-5 -26,-16 -33,-24 -7,-8 -27,-18 -45,-21 -21,-4 -49,-23 -77,-54 -25,-26 -51,-57 -58,-69 -6,-13 -12,-33 -12,-45 0,-12 -6,-29 -14,-37 -9,-10 -15,-43 -17,-91 -1,-41 2,-101 6,-132 l 8,-58 38,0 c 30,0 42,-6 59,-30 12,-17 36,-34 58,-40 20,-5 49,-10 65,-10 15,0 50,-12 77,-26 27,-14 54,-32 61,-41 7,-8 18,-25 24,-37 6,-12 22,-22 39,-24 16,-2 36,4 47,14 10,9 19,25 19,34 0,10 15,29 34,43 18,14 67,42 109,61 42,20 79,40 82,46 3,5 23,10 44,10 21,0 44,-6 50,-14 7,-8 26,-18 42,-21 16,-4 43,-18 59,-32 17,-14 30,-29 30,-35 0,-6 -7,-4 -17,3 -15,13 -16,12 -8,-11 4,-14 7,-40 7,-58 0,-18 -6,-40 -13,-48 -6,-8 -18,-14 -25,-14 -8,0 -14,4 -14,9 0,4 5,22 11,40 10,28 9,34 -7,47 -11,8 -34,22 -53,30 -18,8 -35,13 -38,10 -3,-2 5,-18 18,-35 19,-26 20,-33 10,-59 -10,-23 -21,-31 -49,-36 -26,-4 -41,-1 -55,12 -14,13 -18,26 -14,53 l 5,36 -48,-1 c -26,-1 -54,-7 -63,-15 -10,-7 -17,-19 -17,-25 0,-6 9,-29 21,-51 12,-22 35,-55 52,-72 29,-31 30,-34 14,-51 -9,-10 -17,-26 -17,-35 0,-9 -9,-21 -20,-27 -12,-6 -20,-21 -20,-36 0,-18 10,-30 35,-45 32,-19 35,-25 35,-68 0,-26 -5,-52 -12,-59 -7,-7 -27,-9 -55,-5 -34,5 -48,2 -64,-13 -16,-15 -37,-19 -89,-19 -59,0 -72,-3 -95,-25 -21,-20 -25,-32 -23,-64 l 3,-40 71,-12 c 40,-6 88,-17 108,-24 20,-6 36,-16 36,-22 0,-6 -6,-8 -14,-5 -8,3 -52,-1 -98,-10 -45,-8 -95,-20 -110,-25 -21,-8 -28,-17 -28,-37 0,-15 6,-36 14,-46 12,-17 18,-18 52,-7 22,6 65,14 97,17 31,3 80,10 109,15 29,6 57,15 62,20 6,6 22,10 37,10 15,0 31,4 34,10 3,5 19,7 34,4 16,-4 32,-1 35,5 4,6 17,11 29,11 16,0 18,3 9,12 -6,6 -26,13 -44,14 -18,2 -48,6 -65,9 -18,3 -33,11 -33,16 0,7 30,10 85,8 60,-3 89,-9 100,-20 11,-11 17,-36 18,-75 2,-47 -3,-65 -21,-91 -13,-18 -26,-49 -29,-68 -4,-27 -10,-35 -27,-35 -11,0 -34,-9 -51,-20 -16,-11 -73.735,-38.2339 -77.735,-38.2339 -5,0 32.735,24.2339 32.735,32.2339 0,7 -8,17 -17,20 -10,3 -29,13 -43,21 -14,8 -37,15 -51,15 -14,0 -34,-6 -45,-14 -15,-12 -17,-17 -6,-27 6,-7 12,-16 12,-19 0,-4 -11,-12 -24,-18 -16,-7 -36,-8 -55,-2 -17,5 -33,5 -36,0 -3,-5 0,-12 6,-16 7,-4 43,-9 80,-12 38,-2 69,-9 69,-13 0,-5 -20,-9 -45,-9 -34,0 -47,-4 -52,-17 -3,-10 -17,-30 -31,-45 -14,-16 -32,-28 -39,-28 -7,0 -18,10 -23,23 -5,12 -18,36 -29,52 -12,17 -21,46 -21,66 0,26 -8,43 -30,64 -16,16 -39,53 -50,83 -12,30 -27,64 -35,76 -10,13 -15,45 -15,89 0,51 5,76 19,95 10,15 21,40 25,56 4,16 2,51 -5,77 -10,39 -10,56 1,89 11,34 11,44 0,66 -11,20 -12,29 -2,42 7,9 17,28 23,42 7,18 7,30 0,42 -6,10 -11,32 -11,50 1,18 9,43 19,56 11,12 24,22 31,22 6,0 10,6 8,12 -3,7 -13,15 -24,18 -10,3 -31,13 -45,23 -20,13 -37,16 -68,11 -22,-4 -41,-10 -41,-15 0,-5 6,-9 13,-9 8,0 21,-8 30,-18 10,-10 17,-33 17,-51 0,-25 -4,-32 -15,-28 -8,4 -17,2 -20,-3 -4,-6 -14,-10 -24,-10 -9,0 -30,-13 -46,-30 -25,-26 -36,-30 -81,-30 -43,0 -56,-4 -68,-22 -9,-12 -16,-32 -16,-43 0,-12 8,-39 19,-61 10,-21 21,-70 25,-108 6,-57 13,-76 38,-109 28,-35 32,-49 38,-128 4,-48 11,-94 17,-101 6,-7 10,-34 10,-61 0,-37 5,-53 25,-75 15,-15 40,-56 58,-92 17,-36 41,-83 53,-105 13,-22 45,-78 72,-124 28,-46 60,-94 72,-107 12,-13 32,-24 44,-24 12,0 50,-26 88,-59 37,-33 79,-63 94,-66 15,-4 30,-11 33,-16 3,-5 22,-9 42,-9 20,0 50,7 66,15 15,8 38,15 49,15 11,0 40,9 63,20 23,12 61,41 83,65 23,25 41,52 41,60 0,9 12,32 27,51 21,28 27,49 31,108 l 4,72 69,80 c 68,77 69,80 69,135 0,38 -5,61 -15,69 -13,10 -19,10 -33,-4 -10,-9 -28,-16 -41,-16 -14,0 -25,9 -31,28 -6,15 -15,35 -20,44 -6,10 -10,47 -10,82 0,45 9,94 30,158 17,51 30,101 30,111 0,10 7,32 17,47 14,25 15,45 6,184 -6,86 -15,162 -21,169 -5,6 -13,29 -16,51 -6,29 -23,55 -72,105 -58,59 -63,67 -47,78 9,7 25,13 34,13 10,0 20,-4 24,-9 3,-6 19,-17 37,-25 24,-12 34,-13 45,-4 11,9 13,26 7,77 -4,45 -13,73 -27,88 -17,19 -19,31 -15,81 3,32 1,67 -4,78 -6,10 -22,31 -36,47 -19,20 -35,27 -62,27 -30,0 -44,8 -85,50 -40,40 -56,50 -83,50 -18,0 -45,9 -60,20 -19,14 -48,20 -102,23 z"
         sodipodi:nodetypes="csscccscccsccccsccsscsccscccscccsccscsscccccccsccccssccscscsscsscccccssccsccccsscccssccscscccscsscssccsccsccssccsccscccscsccccccccsccccsscsccscscscsccssccccssccsscsccsccccsccsccscsccccccsccscccccscscc" />
      <path
         inkscape:connector-curvature="0"
         id="path16"
         d="m 839,2816 c -22,0 -42,-3 -45,-5 -2,-2 -4,-11 -4,-20 0,-8 -10,-25 -22,-38 -20,-21 -21,-26 -9,-80 7,-32 18,-69 25,-83 6,-14 21,-26 33,-28 18,-3 22,3 28,47 4,29 15,57 26,67 10,9 22,32 25,51 4,21 2,39 -5,46 -6,6 -11,19 -11,28 0,13 -9,16 -41,15 z" />
      <path
         inkscape:connector-curvature="0"
         id="path18"
         d="m 1121,2730 c -23,0 -44,-7 -54,-17 -8,-10 -18,-47 -22,-83 -5,-49 -3,-70 8,-84 10,-14 21,-17 40,-12 18,4 27,13 27,26 0,10 -5,22 -10,25 -6,4 -8,16 -4,28 3,12 19,39 36,60 16,20 26,42 23,47 -3,6 -23,10 -44,10 z" />
      <path
         inkscape:connector-curvature="0"
         id="path24"
         d="m 1543,2410 c -7,0 -15,-6 -20,-12 -4,-7 -14,-24 -20,-37 -7,-13 -13,-38 -13,-56 0,-18 8,-38 18,-47 9,-8 31,-18 49,-21 26,-5 35,-2 48,16 8,12 15,38 15,57 0,28 -8,44 -33,68 -18,18 -38,32 -44,32 z" />
      <path
         inkscape:connector-curvature="0"
         id="path26"
         d="m 966,2270 c -10,0 -15,-28 -19,-97 -6,-95 -5,-100 26,-163 17,-36 37,-73 45,-82 9,-10 23,-18 34,-18 10,0 18,6 18,14 0,8 -5,27 -11,43 -7,15 -15,46 -20,68 -4,22 -13,65 -18,95 -6,30 -18,74 -27,98 -8,23 -21,42 -28,42 z" />
    </g>
    <path
       d="m 1860,2660 c -5,0 -10,-4 -10,-10 0,-5 5,-10 10,-10 6,0 10,5 10,10 0,6 -4,10 -10,10 z"
       id="path20"
       inkscape:connector-curvature="0" />
    <path
       d="m 1277,2607 c -4,3 -7,0 -7,-7 0,-7 3,-10 7,-7 3,4 3,10 0,14 z"
       id="path22"
       inkscape:connector-curvature="0" />
  </g>
  <path
     style="fill:#fc4c0f;stroke:none;fill-opacity:0.94117647"
     d="m 348.77683,61.360305 -31.65787,1.408403 11.53369,13.493659 -20.39521,10.364876 24.95211,-5.925234 10.30299,-2.446597 -13.5079,-10.312644 z"
     id="path3019"
     inkscape:connector-curvature="0"
     sodipodi:nodetypes="cccccccc" />
  <path
     style="fill:#fc4c0f;stroke:none;fill-opacity:0.94117647"
     d="m 385.88292,116.1832 -45.51612,-18.314396 7.60135,26.411046 -35.38744,1.52896 38.96242,7.6494 16.08801,3.15851 -12.42317,-23.19414 z"
     id="path3019-7"
     inkscape:connector-curvature="0"
     sodipodi:nodetypes="cccccccc" />
  <path
     style="fill:#fc4c0f;stroke:none;fill-opacity:0.94117647"
     d="m 411.88669,201.10935 -57.48132,-44.91118 -2.48142,38.0581 -52.84726,-14.28416 53.35793,27.93961 22.03208,11.53656 -6.27586,-36.06757 z"
     id="path3019-4"
     inkscape:connector-curvature="0"
     sodipodi:nodetypes="cccccccc" />
  <path
     style="fill:#fc4c0f;stroke:none;fill-opacity:0.94117647"
     d="m 305.25628,32.566729 -25.74458,1.145331 9.37933,10.973216 -16.58564,8.42885 20.29137,-4.818477 8.37853,-1.989603 -10.9848,-8.386374 z"
     id="path3019-48"
     inkscape:connector-curvature="0"
     sodipodi:nodetypes="cccccccc" />
  <path
     style="fill:#fc4c0f;stroke:none;fill-opacity:0.94117647"
     d="m 74.595684,64.957525 24.90953,-1.970332 -7.715738,11.678385 16.965534,6.131323 -20.100516,-2.214972 -8.299718,-0.914588 9.569317,-9.380783 z"
     id="path3019-2"
     inkscape:connector-curvature="0"
     sodipodi:nodetypes="cccccccc" />
  <path
     style="fill:#fc4c0f;stroke:none;fill-opacity:0.94117647"
     d="m 41.031871,105.35204 31.1983,-12.553306 -5.210225,18.103026 24.255754,1.04801 -26.706166,5.24315 -11.027271,2.16496 8.515263,-15.89806 z"
     id="path3019-7-4"
     inkscape:connector-curvature="0"
     sodipodi:nodetypes="cccccccc" />
  <path
     style="fill:#fc4c0f;stroke:none;fill-opacity:0.94117647"
     d="m 15.881346,162.98254 44.632749,-26.80853 -3.963521,29.66899 37.057337,-3.83299 -39.406119,14.28815 -16.271217,5.89972 9.462526,-26.94571 z"
     id="path3019-4-5"
     inkscape:connector-curvature="0"
     sodipodi:nodetypes="cccccccc" />
  <path
     style="fill:#fc4c0f;stroke:none;fill-opacity:0.94117647"
     d="m 110.91215,38.667259 19.71469,0.877072 -7.18251,8.40307 12.70096,6.454645 -15.53873,-3.689893 -6.41611,-1.523599 8.41193,-6.422118 z"
     id="path3019-48-5"
     inkscape:connector-curvature="0"
     sodipodi:nodetypes="cccccccc" />
  <path
     style="fill:#fc4c0f;stroke:none;fill-opacity:0.94117647"
     d="m 262.03275,15.88792 -18.07742,0.804233 6.58601,7.70521 -11.64616,5.918598 14.24826,-3.383455 5.88327,-1.397066 -7.71335,-5.888772 z"
     id="path3019-48-1"
     inkscape:connector-curvature="0"
     sodipodi:nodetypes="cccccccc" />
  <path
     style="fill:#fc4c0f;stroke:none;fill-opacity:0.94117647"
     d="m 164.01236,16.112903 18.07742,0.804233 -6.58601,7.70521 11.64616,5.918597 -14.24826,-3.383455 -5.88327,-1.397065 7.71335,-5.888772 z"
     id="path3019-48-1-7"
     inkscape:connector-curvature="0"
     sodipodi:nodetypes="cccccccc" />
  <path
     style="fill:#fc4c0f;stroke:none;fill-opacity:0.94117647"
     d="m 217.44775,28.114273 -0.65231,-14.662375 -6.24961,5.341832 -4.8005,-9.4460579 2.74428,11.5565899 1.13315,4.771849 4.77631,-6.256205 z"
     id="path3019-48-1-1"
     inkscape:connector-curvature="0"
     sodipodi:nodetypes="cccccccc" />
  <path
     style="fill:#fc4c0f;stroke:none;fill-opacity:0.94117647"
     d="m 12.550629,239.42808 39.763424,-44.46392 8.11798,28.95162 40.880087,-20.03478 -39.111674,30.66165 -16.149639,12.66052 -0.646369,-28.90826 z"
     id="path3019-4-5-1"
     inkscape:connector-curvature="0"
     sodipodi:nodetypes="cccccccc" />
</svg>
