<?xml version="1.0" encoding="utf-8"?>
<!-- Generator: Adobe Illustrator 16.0.0, SVG Export Plug-In . SVG Version: 6.00 Build 0)  -->
<!DOCTYPE svg PUBLIC "-//W3C//DTD SVG 1.1//EN" "http://www.w3.org/Graphics/SVG/1.1/DTD/svg11.dtd">
<svg version="1.1" id="Ebene_1" xmlns="http://www.w3.org/2000/svg" xmlns:xlink="http://www.w3.org/1999/xlink" x="0px" y="0px"
	 width="728.735px" height="412.069px" viewBox="0 0 728.735 412.069" enable-background="new 0 0 728.735 412.069"
	 xml:space="preserve">
<g>
	<g>
		<defs>
			<path id="SVGID_1_" d="M328.243,208.604c0-108.827,88.343-197.041,197.314-197.041c108.971,0,197.317,88.214,197.317,197.041
				c0,108.822-88.347,197.045-197.317,197.045C416.586,405.649,328.243,317.426,328.243,208.604L328.243,208.604z"/>
		</defs>
		<use xlink:href="#SVGID_1_"  overflow="visible" fill="#008BD0"/>
		<clipPath id="SVGID_2_">
			<use xlink:href="#SVGID_1_"  overflow="visible"/>
		</clipPath>
		<path clip-path="url(#SVGID_2_)" fill="#FFFFFF" d="M350.86,77.681c30.995,34.805,49.854,80.657,49.854,130.897l9.738-0.004
			c0-51.893-19.181-99.325-50.804-135.624L350.86,77.681L350.86,77.681z"/>
	</g>
	<path fill="#FFFFFF" d="M400.701,208.604c0-68.837,55.875-124.644,124.807-124.644s124.818,55.807,124.818,124.644
		c0,68.832-55.887,124.639-124.818,124.639S400.701,277.436,400.701,208.604L400.701,208.604z"/>
	<g>
		<defs>
			<path id="SVGID_3_" d="M6.351,208.604c0-108.827,88.341-197.041,197.312-197.041c108.974,0,197.312,88.214,197.312,197.041
				c0,108.822-88.338,197.045-197.312,197.045C94.691,405.649,6.351,317.426,6.351,208.604L6.351,208.604z"/>
		</defs>
		<use xlink:href="#SVGID_3_"  overflow="visible" fill="#008BD0"/>
		<clipPath id="SVGID_4_">
			<use xlink:href="#SVGID_3_"  overflow="visible"/>
		</clipPath>
		<path clip-path="url(#SVGID_4_)" fill="#FFFFFF" d="M378.104,339.506c-30.995-34.806-49.86-80.657-49.86-130.902h-9.732
			c0,51.899,19.18,99.33,50.801,135.63L378.104,339.506L378.104,339.506z"/>
	</g>
	<path fill="#FFFFFF" d="M78.85,208.604c0-68.837,55.883-124.644,124.813-124.644c68.936,0,124.809,55.807,124.809,124.644
		c0,68.839-55.874,124.646-124.809,124.646C134.733,333.25,78.85,277.443,78.85,208.604L78.85,208.604z"/>
	<path fill="#008BD0" d="M410.268,208.597c0-63.478,51.517-114.932,115.093-114.932c63.563,0,115.08,51.455,115.08,114.932
		c0,63.471-51.518,114.926-115.08,114.926C461.784,323.523,410.268,272.068,410.268,208.597L410.268,208.597z"/>
	<g>
		<defs>
			<path id="SVGID_5_" d="M87.502,208.381c0-63.477,51.523-114.929,115.086-114.929c63.561,0,115.084,51.453,115.084,114.929
				c0,63.482-51.523,114.932-115.084,114.932C139.025,323.313,87.502,271.864,87.502,208.381L87.502,208.381z"/>
		</defs>
		<use xlink:href="#SVGID_5_"  overflow="visible" fill="#FFFFFF"/>
		<clipPath id="SVGID_6_">
			<use xlink:href="#SVGID_5_"  overflow="visible"/>
		</clipPath>
		<polygon clip-path="url(#SVGID_6_)" fill="#E2001A" points="88.711,77.459 317.585,77.459 317.585,169.737 88.711,169.737 
			88.711,77.459 		"/>
		<polygon clip-path="url(#SVGID_6_)" fill="#E2001A" points="317.585,339.606 88.711,339.606 88.711,247.327 317.585,247.327 
			317.585,339.606 		"/>
	</g>
	<polygon fill="#FFE500" points="535.678,137.757 524.892,129.936 514.116,137.757 518.226,125.098 507.451,117.279 
		520.781,117.279 524.892,104.625 529.001,117.279 542.33,117.279 531.556,125.101 535.678,137.757 	"/>
	<polygon fill="#FFE500" points="579.95,147.206 569.175,139.39 558.4,147.206 562.511,134.549 551.736,126.727 565.053,126.727 
		569.175,114.076 573.285,126.727 586.615,126.727 575.841,134.549 579.95,147.206 	"/>
	<polygon fill="#FFE500" points="491.64,147.728 480.865,139.912 470.079,147.728 474.201,135.074 463.426,127.254 476.743,127.254 
		480.865,114.6 484.976,127.254 498.306,127.254 487.53,135.074 491.64,147.728 	"/>
	<polygon fill="#FFE500" points="611.127,181.08 600.352,173.261 589.577,181.08 593.688,168.419 582.913,160.604 596.229,160.604 
		600.352,147.947 604.474,160.604 617.792,160.604 607.005,168.419 611.127,181.08 	"/>
	<polygon fill="#FFE500" points="461.105,181.447 450.33,173.627 439.556,181.447 443.665,168.796 432.879,160.974 446.208,160.974 
		450.33,148.324 454.44,160.974 467.77,160.974 456.983,168.796 461.105,181.447 	"/>
	<polygon fill="#FFE500" points="622.717,223.248 611.941,215.429 601.167,223.248 605.276,210.593 594.49,202.775 607.819,202.775 
		611.941,190.121 616.052,202.775 629.382,202.778 618.595,210.593 622.717,223.248 	"/>
	<polygon fill="#FFE500" points="449.738,223.248 438.951,215.429 428.176,223.248 432.299,210.593 421.511,202.775 
		434.841,202.775 438.951,190.121 443.073,202.775 456.391,202.778 445.616,210.593 449.738,223.248 	"/>
	<polygon fill="#FFE500" points="461.637,267.526 450.849,259.701 440.074,267.526 444.196,254.875 433.409,247.05 446.739,247.05 
		450.849,234.393 454.972,247.05 468.289,247.05 457.514,254.875 461.637,267.526 	"/>
	<polygon fill="#FFE500" points="492.961,296.795 482.174,288.977 471.398,296.795 475.521,284.139 464.734,276.327 
		478.064,276.327 482.174,263.663 486.296,276.327 499.627,276.327 488.839,284.151 492.961,296.795 	"/>
	<polygon fill="#FFE500" points="535.678,311.797 524.892,303.973 514.116,311.792 518.226,299.135 507.451,291.322 
		520.781,291.322 524.892,278.665 529.001,291.322 542.33,291.322 531.556,299.135 535.678,311.797 	"/>
	<polygon fill="#FFE500" points="610.078,269.143 599.304,261.331 588.527,269.143 592.638,256.492 581.851,248.672 
		595.181,248.672 599.304,236.015 603.413,248.672 616.742,248.672 605.956,256.492 610.078,269.143 	"/>
	<polygon fill="#FFE500" points="578.63,297.178 567.854,289.36 557.08,297.178 561.189,284.522 550.415,276.703 563.732,276.703 
		567.854,264.044 571.978,276.703 585.307,276.703 574.52,284.522 578.63,297.178 	"/>
	<polygon fill="#FFFFFF" points="70.747,145.741 75.558,137.75 45.516,119.713 40.709,127.715 70.747,145.741 	"/>
	<polygon fill="#FFFFFF" points="81.333,127.347 87.187,121.077 69.466,104.986 69.534,104.912 95.404,112.274 103.319,103.804 
		77.683,79.931 71.867,86.164 89.372,102.262 89.307,102.339 63.814,94.782 55.702,103.48 81.333,127.347 	"/>
	<path fill="#FFFFFF" d="M129.833,61.775l-12.438,7.461l3.418,5.674l4.69-2.817l3.567,5.933c-0.521,0.781-1.453,1.574-2.527,2.216
		c-5.856,3.514-12.176,2.453-15.718-3.435c-4.211-7.007-0.512-12.916,5.992-16.816c1.892-1.132,5.104-2.416,8.476-2.453
		l-3.283-6.921c-3.595,0.639-7.896,2.928-9.883,4.116c-11.019,6.609-16.366,15.724-9.565,27.027
		c6.825,11.352,18.514,9.84,26.515,5.039c2.755-1.653,6.492-4.014,10.793-8.353L129.833,61.775L129.833,61.775z"/>
	<polygon fill="#FFFFFF" points="151.667,75.364 176.058,68.835 174.34,62.448 158.967,66.558 156.918,58.902 170.93,55.156 
		169.214,48.767 155.196,52.513 153.327,45.536 168.168,41.568 166.453,35.171 142.592,41.562 151.667,75.364 	"/>
	<polygon fill="#FFFFFF" points="187.179,66.755 195.763,66.903 195.88,42.987 195.976,42.99 207.809,67.113 219.411,67.314 
		220.016,32.323 211.484,32.172 211.215,55.94 211.123,55.94 199.688,31.965 187.79,31.762 187.179,66.755 	"/>
	<polygon fill="#FFFFFF" points="230.843,69.486 239.977,71.424 247.268,37.195 238.128,35.251 230.843,69.486 	"/>
	<polygon fill="#FFFFFF" points="251.02,74.296 274.091,84.553 276.787,78.509 262.242,72.044 265.476,64.808 278.731,70.705 
		281.435,64.657 268.173,58.761 271.116,52.161 285.149,58.403 287.84,52.355 265.278,42.327 251.02,74.296 	"/>
	<path fill="#FFFFFF" d="M328.57,79.857l-7.461-5.613l-12.145,16.098c-2.777,3.687-6.14,6.057-9.954,3.19
		c-3.808-2.87-2.45-6.742,0.333-10.433l12.145-16.097l-7.455-5.61l-13.089,17.338c-5.77,7.643-3.4,14.835,3.9,20.325
		c7.3,5.489,14.867,5.792,20.643-1.861L328.57,79.857L328.57,79.857z"/>
	<path fill-rule="evenodd" clip-rule="evenodd" fill="#FFFFFF" d="M315.104,116.412l5.486,7.551l11.213-8.14l1.148,1.583
		c2.042,2.801,1.53,4.659-2.222,9.738l-3.938,5.334l5.727,7.868l5.708-8.354c2.414-3.925,4.456-5.65,3.333-8.557l0.08-0.056
		c3.505,3.03,7.325,2.99,11.108,0.246c4.875-3.536,4.166-9.284,0.506-14.314l-9.8-13.471L315.104,116.412L315.104,116.412z
		 M343.579,107.275l1.443,1.99c2.105,2.882,3.536,5.869,0.895,7.792c-3.209,2.319-5.536-0.704-7.307-3.135l-1.444-1.984
		L343.579,107.275L343.579,107.275z"/>
	<path fill-rule="evenodd" clip-rule="evenodd" fill="#FFFFFF" d="M439.26,366.228l12.935,6.017
		c5.492,2.561,12.663,4.03,16.082-3.301c1.752-3.729,0.654-6.906-3.036-9.646l0.05-0.08c3.949,0.45,6.936-0.778,8.738-4.642
		c2.456-5.27-0.643-9.749-6.345-12.415l-14.106-6.572L439.26,366.228L439.26,366.228z M453.503,357.044l2.505,1.167
		c2.814,1.309,5.875,3.11,4.32,6.449c-1.457,3.11-4.776,2.098-7.764,0.703l-2.419-1.123L453.503,357.044L453.503,357.044z
		 M459.032,345.191l2.382,1.104c2.728,1.272,5.246,2.765,3.925,5.573c-1.197,2.591-4.283,1.968-6.961,0.71l-2.283-1.062
		L459.032,345.191L459.032,345.191z"/>
	<path fill-rule="evenodd" clip-rule="evenodd" fill="#FFFFFF" d="M503.674,350.763l6.9,1.099l1.085-6.9l-6.887-1.086
		L503.674,350.763L503.674,350.763z M492.764,349.042l6.888,1.085l1.085-6.893l-6.887-1.086L492.764,349.042L492.764,349.042z
		 M515.991,354.527l-8.911-1.407l-3.048,19.23c-0.691,4.4-2.48,7.937-7.035,7.22c-4.555-0.716-5.159-4.641-4.456-9.041l3.049-19.223
		l-8.91-1.42l-3.284,20.717c-1.456,9.134,3.839,14.188,12.564,15.564c8.715,1.389,15.293-1.79,16.749-10.93L515.991,354.527
		L515.991,354.527z"/>
	<path fill-rule="evenodd" clip-rule="evenodd" fill="#FFFFFF" d="M528.198,388.568l8.998-0.784l-1.172-13.312l1.888-0.16
		c3.319-0.296,4.616,1.049,6.962,6.678l2.468,5.912l9.368-0.815l-4.085-8.886c-2.049-3.949-2.469-6.493-5.431-7.011l-0.013-0.099
		c4.258-1.395,6.122-4.566,5.727-9.054c-0.506-5.788-5.628-8.066-11.614-7.541l-16.033,1.401L528.198,388.568L528.198,388.568z
		 M534.802,360.476l2.37-0.203c3.419-0.303,6.615,0.006,6.887,3.141c0.333,3.813-3.32,4.227-6.22,4.48l-2.371,0.21L534.802,360.476
		L534.802,360.476z"/>
	<path fill-rule="evenodd" clip-rule="evenodd" fill="#FFFFFF" d="M566.41,366.778c3.852,10.034,11.787,14.199,22.117,10.244
		c10.319-3.956,13.429-12.361,9.565-22.396c-3.888-10.127-11.7-14.237-22.117-10.244
		C565.571,348.375,562.511,356.651,566.41,366.778L566.41,366.778z M575.1,363.438c-2.099-5.468-1.839-10.86,3.271-12.823
		c5.121-1.963,8.936,1.876,11.033,7.344c2,5.202,1.839,10.861-3.271,12.824C581.012,372.745,577.099,368.647,575.1,363.438
		L575.1,363.438z"/>
	<path fill="#FFFFFF" d="M618.397,361.056c3.011-0.987,6.467-2.9,9.021-4.752c6.085-4.412,10.639-10.664,5.479-17.748
		c-7.183-9.874-17.958,2.5-21.18-1.925c-1.739-2.396,1.211-4.776,3.05-6.109c2.073-1.507,4.491-2.654,6.998-3.16l-3.641-5.985
		c-2.297,0.715-5.172,2.196-7.802,4.109c-5.492,3.986-10.613,10.454-5.824,17.038c7.231,9.954,17.847-2.653,21.549,2.438
		c1.604,2.19-0.259,4.259-2.567,5.937c-3.023,2.197-6.22,3.314-8.85,3.66L618.397,361.056L618.397,361.056z"/>
</g>
</svg>
