<?xml version="1.0" encoding="UTF-8" standalone="no"?>
<!-- Created with Inkscape (http://www.inkscape.org/) -->

<svg
   xmlns:dc="http://purl.org/dc/elements/1.1/"
   xmlns:cc="http://creativecommons.org/ns#"
   xmlns:rdf="http://www.w3.org/1999/02/22-rdf-syntax-ns#"
   xmlns:svg="http://www.w3.org/2000/svg"
   xmlns="http://www.w3.org/2000/svg"
   xmlns:sodipodi="http://sodipodi.sourceforge.net/DTD/sodipodi-0.dtd"
   xmlns:inkscape="http://www.inkscape.org/namespaces/inkscape"
   width="276.37796"
   height="198.42519"
   id="svg2"
   version="1.1"
   inkscape:version="0.48.4 r9939"
   inkscape:export-filename="C:\Users\Kay\tiroltrail-webmap\images\logo_trails.png"
   inkscape:export-xdpi="300"
   inkscape:export-ydpi="300"
   sodipodi:docname="logo_trails.svg">
  <defs
     id="defs4" />
  <sodipodi:namedview
     id="base"
     pagecolor="#ffffff"
     bordercolor="#666666"
     borderopacity="1.0"
     inkscape:pageopacity="0"
     inkscape:pageshadow="2"
     inkscape:zoom="1.0971112"
     inkscape:cx="176.16246"
     inkscape:cy="131.05261"
     inkscape:document-units="px"
     inkscape:current-layer="g2993"
     showgrid="false"
     fit-margin-top="10"
     fit-margin-left="10"
     fit-margin-right="10"
     fit-margin-bottom="10"
     inkscape:window-width="1366"
     inkscape:window-height="706"
     inkscape:window-x="1672"
     inkscape:window-y="-8"
     inkscape:window-maximized="1"
     units="mm" />
  <metadata
     id="metadata7">
    <rdf:RDF>
      <cc:Work
         rdf:about="">
        <dc:format>image/svg+xml</dc:format>
        <dc:type
           rdf:resource="http://purl.org/dc/dcmitype/StillImage" />
        <dc:title></dc:title>
      </cc:Work>
    </rdf:RDF>
  </metadata>
  <g
     inkscape:label="Ebene 1"
     inkscape:groupmode="layer"
     id="layer1"
     transform="translate(-107.97011,-392.18094)">
    <g
       transform="matrix(3.0734826,0,0,-2.933698,78.014841,590.36311)"
       inkscape:label="logo_trails"
       id="g2993">
      <path
         style="fill:#1a1a1a;fill-opacity:1;fill-rule:nonzero;stroke:none"
         d="m 78.037278,54.442437 c -1.138681,-0.0048 -2.31638,-0.09655 -3.537354,-0.282696 -26.549802,-4.047716 -19.043613,-43.683923 7.380205,-39.419814 25.120881,4.057906 19.310311,39.799339 -3.842851,39.70251 z m 5.225634,-8.344975 c 3.388783,-10e-4 6.75147,-0.190277 9.765238,-0.190277 -2.333991,-3.11981 -7.808523,-6.162473 -11.893009,-6.463958 l 0,-20.653134 -8.168069,0 0,20.653134 -6.420832,0 -2.572621,0 c 4.259065,5.757524 11.833974,6.656503 19.289293,6.654235 z"
         id="path3086"
         inkscape:connector-curvature="0" />
      <path
         style="fill:#1a1a1a;fill-opacity:1;fill-rule:nonzero;stroke:none"
         d="m 12.816737,53.525641 0,-6.124396 2.108508,0 0,3.062198 2.108508,0 -1.054254,-11.738427 5.271268,0 -1.054253,11.738427 2.108507,0 0,-3.062198 2.108508,0 0,6.124396 -11.596792,0"
         id="path3084"
         inkscape:connector-curvature="0" />
      <path
         style="fill:#1a1a1a;fill-opacity:1;fill-rule:nonzero;stroke:none"
         d="m 26.522037,53.525641 c 0.268308,-3.334734 2.894454,-3.334734 3.162762,0 l -3.162762,0"
         id="path3082"
         inkscape:connector-curvature="0" />
      <path
         style="fill:#1a1a1a;fill-opacity:1;fill-rule:nonzero;stroke:none"
         d="m 50.769875,53.525641 0,-14.800625 5.271268,0 -1.054253,14.800625 -4.217015,0"
         id="path3080"
         inkscape:connector-curvature="0" />
      <path
         style="fill:#1a1a1a;fill-opacity:1;fill-rule:nonzero;stroke:none"
         d="m 25.467783,49.44271 0,-10.717694 5.271269,0 -1.054253,10.717694 -4.217016,0"
         id="path3078"
         inkscape:connector-curvature="0" />
      <path
         style="fill:#1a1a1a;fill-opacity:1;fill-rule:nonzero;stroke:none"
         d="m 31.793306,49.44271 0,-10.717694 5.271269,0 -1.054253,8.676229 4.217014,-1.020733 c -0.190819,2.372183 -1.467521,3.572564 -3.689887,2.041465 l -4.744143,1.020733"
         id="path3076"
         inkscape:connector-curvature="0" />
      <path
         style="fill:#1a1a1a;fill-opacity:1;fill-rule:nonzero;stroke:none"
         d="m 45.193654,50.104137 c -0.948417,-0.0011 -1.982495,-0.354536 -3.065706,-1.185149 -4.194875,-3.21684 0.440079,-14.500715 6.742409,-9.682346 3.473881,2.675779 0.892935,10.872872 -3.676703,10.867495 z m -0.750348,-2.701923 2.111692,0 0,-6.637925 -2.111692,0 0,6.637925 z"
         id="path2997"
         inkscape:connector-curvature="0" />
      <path
         style="fill:#008000;fill-opacity:1;fill-rule:nonzero;stroke:none"
         d="m 50.062088,37.533941 0,-2.549703 1.055846,0 0,2.549703 -1.055846,0 z m 3.162179,0 0,-10.204247 3.16218,0 -0.525243,10.204247 -2.636937,0 z m -25.828036,-0.505591 0,-4.082786 1.055846,0 0,2.038674 1.58109,0 -0.530603,-7.654544 3.162179,0 -0.525243,7.654544 1.581089,0 0,-2.038674 1.055846,0 0,4.082786 -7.380204,0 z m 17.804678,-2.517084 c -1.584331,-0.02254 -2.975462,-0.328311 -3.574872,-2.07673 l 3.692783,0.511028 -3.692783,-1.533084 c 0,-4.390171 2.485909,-3.996023 6.329718,-4.082786 l -0.530603,7.143517 c -0.745225,0 -1.504094,0.0483 -2.224243,0.03805 z m -9.368626,-0.03805 0,-7.143517 3.162179,0 -0.530603,5.61587 2.636934,-0.511028 0,2.038675 -5.26851,0 z m 13.17396,0 0,-7.143517 3.162178,0 -0.525243,7.143517 -2.636935,0 z m -5.268513,-4.593814 1.58109,0 0,-1.016619 -1.58109,0 0,1.016619 z"
         id="path3001"
         inkscape:connector-curvature="0" />
      <path
         style="fill:#008000;fill-opacity:1;fill-rule:nonzero;stroke:none"
         d="m 11.054732,25.796611 c 0.162355,-2.041465 1.226591,-12.626681 5.273872,-8.165572 l 0.525244,0 c 4.04728,-4.461109 5.106156,6.124107 5.268511,8.165572 l -3.162179,0 -0.525243,-6.632489 -1.055846,6.632489 -2.106333,0 -0.530603,-7.143516 -0.525244,0 0,7.143516 -3.162179,0 z m 17.397345,0 0,-9.187627 5.793756,0 0,6.637924 -3.162179,0 0,2.549703 -2.631577,0 z m -5.799115,-2.549703 0,-6.637924 5.268513,0 0,2.044111 -3.162179,-0.511028 3.162179,1.022055 0,4.082786 -5.268513,0 z m 12.123473,0 0.525244,-6.637924 2.111693,0 0,5.104841 1.050487,0 0,-5.104841 2.111691,0 0,5.104841 1.050487,0 0,-5.104841 2.636936,0 c -0.898752,6.883821 -2.685018,6.637415 -9.486538,6.637924 z m 10.011782,0 0,-2.044111 3.167538,0.511028 -3.167538,-1.016619 0,-4.088222 5.799114,0 -0.525243,6.637924 -5.273871,0 z m 6.854961,0 0,-9.187625 3.162179,0 -0.525244,2.549701 3.16218,0 0,6.637924 -5.799115,0 z m -26.883882,-1.533083 1.055846,0 0,-1.016619 -1.055846,0 0,1.016619 z m 6.324358,0 1.055846,0 0,-3.571758 -1.055846,0 0,3.571758 z m 23.196459,0 1.055848,0 0,-3.571758 -1.055848,0 0,3.571758 z m -7.380204,-2.549703 1.055846,0 0,-1.022055 -1.055846,0 0,1.022055 z"
         id="path3005"
         inkscape:connector-curvature="0" />
      <text
         xml:space="preserve"
         style="font-size:2.4018805px;font-style:normal;font-variant:normal;font-weight:normal;font-stretch:normal;line-height:125%;letter-spacing:0px;word-spacing:0px;fill:#000000;fill-opacity:1;stroke:none;font-family:Miriam Fixed;-inkscape-font-specification:Miriam Fixed"
         x="11.561101"
         y="-10.649709"
         id="text3089"
         sodipodi:linespacing="125%"
         transform="scale(0.98618142,-1.0140122)"><tspan
           sodipodi:role="line"
           id="tspan3091"
           x="11.561101"
           y="-10.649709"
           style="font-size:3.4312582px;font-style:normal;font-variant:normal;font-weight:normal;font-stretch:normal;letter-spacing:-0.00171564px;font-family:Miriam Fixed;-inkscape-font-specification:Miriam Fixed">gimoya.github.io/tiroltrail-webmap/map.html</tspan></text>
    </g>
  </g>
</svg>
