<?xml version="1.0" encoding="UTF-8" standalone="no"?>
<!-- Created with Inkscape (http://www.inkscape.org/) -->

<svg
   xmlns:dc="http://purl.org/dc/elements/1.1/"
   xmlns:cc="http://creativecommons.org/ns#"
   xmlns:rdf="http://www.w3.org/1999/02/22-rdf-syntax-ns#"
   xmlns:svg="http://www.w3.org/2000/svg"
   xmlns="http://www.w3.org/2000/svg"
   xmlns:sodipodi="http://sodipodi.sourceforge.net/DTD/sodipodi-0.dtd"
   xmlns:inkscape="http://www.inkscape.org/namespaces/inkscape"
   width="160"
   height="160.00002"
   id="svg2"
   version="1.1"
   inkscape:version="0.48.4 r9939"
   sodipodi:docname="logo_4.svg"
   inkscape:export-filename="C:\Users\Kay\tiroltrail-webmap\images\logo_4.png"
   inkscape:export-xdpi="304.02609"
   inkscape:export-ydpi="304.02609">
  <defs
     id="defs4" />
  <sodipodi:namedview
     id="base"
     pagecolor="#ffffff"
     bordercolor="#666666"
     borderopacity="1.0"
     inkscape:pageopacity="0"
     inkscape:pageshadow="2"
     inkscape:zoom="2.0843077"
     inkscape:cx="101.57929"
     inkscape:cy="59.567417"
     inkscape:document-units="px"
     inkscape:current-layer="layer1"
     showgrid="false"
     showguides="true"
     inkscape:guide-bbox="true"
     fit-margin-top="5"
     fit-margin-left="5"
     fit-margin-right="5"
     fit-margin-bottom="5"
     inkscape:window-width="1366"
     inkscape:window-height="706"
     inkscape:window-x="-8"
     inkscape:window-y="-8"
     inkscape:window-maximized="1">
    <sodipodi:guide
       orientation="0,1"
       position="212.6226,80.314105"
       id="guide2991" />
    <sodipodi:guide
       orientation="1,0"
       position="80.314094,-9.9270841"
       id="guide2993" />
  </sodipodi:namedview>
  <metadata
     id="metadata7">
    <rdf:RDF>
      <cc:Work
         rdf:about="">
        <dc:format>image/svg+xml</dc:format>
        <dc:type
           rdf:resource="http://purl.org/dc/dcmitype/StillImage" />
        <dc:title></dc:title>
      </cc:Work>
    </rdf:RDF>
  </metadata>
  <g
     inkscape:label="Ebene 1"
     inkscape:groupmode="layer"
     id="layer1"
     transform="translate(-65.992559,-229.96358)">
    <path
       sodipodi:type="arc"
       style="fill:#ffffff;fill-opacity:1;fill-rule:nonzero;stroke:none"
       id="path2985-1"
       sodipodi:cx="120.77392"
       sodipodi:cy="342.64578"
       sodipodi:rx="290.40021"
       sodipodi:ry="290.40021"
       d="m 411.17413,342.64578 c 0,160.38361 -130.01661,290.40021 -290.40021,290.40021 -160.383608,0 -290.40021,-130.0166 -290.40021,-290.40021 0,-160.3836 130.016602,-290.400205 290.40021,-290.400205 158.77388,0 288.11399,127.514495 290.37087,286.272335"
       sodipodi:start="0"
       sodipodi:end="6.2689704"
       sodipodi:open="true"
       transform="matrix(0.2754819,0,0,0.2754819,112.72153,215.57088)" />
    <path
       style="fill:#666666;fill-opacity:1"
       d="m 146.08418,384.79634 c -0.42727,-0.24823 -0.96625,-1.4391 -1.68439,-3.7217 -0.74712,-2.37459 -1.35235,-3.24254 -2.7747,-3.97902 -0.6858,-0.35513 -1.01056,-0.41991 -2.08141,-0.4152 -2.29887,0.0103 -3.52308,0.96097 -4.82451,3.74725 -0.91547,1.95998 -1.61073,2.999 -2.17988,3.25772 -0.46145,0.20979 -1.54282,-0.0141 -1.9897,-0.4119 -0.43416,-0.38646 -0.72943,-1.55328 -0.97723,-3.86156 -0.28147,-2.6221 -0.61717,-3.50274 -1.70837,-4.48153 -1.68854,-1.51461 -4.08234,-1.61273 -6.00599,-0.24617 -0.24986,0.17752 -0.95654,0.9923 -1.57035,1.81065 -1.24763,1.66331 -2.13136,2.58368 -2.68447,2.79576 -0.49952,0.19154 -1.6489,-0.31944 -2.03252,-0.90355 -0.33316,-0.5073 -0.36807,-1.57368 -0.14984,-4.57777 0.17404,-2.39591 -0.0575,-3.37177 -1.05679,-4.45331 -0.9869,-1.06817 -2.0034,-1.52603 -3.39237,-1.52801 -1.43259,-0.002 -2.44724,0.46085 -3.87982,1.77009 -0.55724,0.50925 -1.43541,1.22088 -1.95143,1.58137 -1.22545,0.8561 -1.75785,0.86919 -2.64996,0.0652 l -0.65496,-0.59036 0.0875,-1.11064 c 0.0509,-0.64629 0.30797,-1.73913 0.61487,-2.61385 0.46304,-1.31994 0.52537,-1.68648 0.51133,-3.00641 -0.0194,-1.82155 -0.3257,-2.62628 -1.36215,-3.57808 -1.47603,-1.35546 -3.557441,-1.53402 -5.504514,-0.4722 -2.182369,1.19013 -3.38059,1.71942 -4.067383,1.79665 -0.658231,0.074 -0.75012,0.0372 -1.263634,-0.50598 -0.951537,-1.00657 -0.884822,-1.27972 1.372739,-5.6209 0.504861,-0.97082 0.53182,-1.1072 0.53182,-2.68995 0,-1.86737 -0.218755,-2.48646 -1.215255,-3.4393 -1.395251,-1.33406 -3.291095,-1.558 -5.763236,-0.68074 -0.910782,0.3232 -1.86223,0.53694 -2.628749,0.59051 -1.16757,0.0816 -1.211018,0.0716 -1.546442,-0.35373 -0.1898,-0.24074 -0.424107,-0.70077 -0.520655,-1.02226 -0.237241,-0.79 0.09922,-1.42531 1.706378,-3.22212 1.67815,-1.87616 1.925285,-2.23776 2.21944,-3.24732 0.280477,-0.96248 0.224533,-1.92787 -0.193824,-3.34652 -0.353245,-1.1978 -1.444901,-2.25827 -2.699095,-2.62204 -0.749244,-0.2173 -1.240973,-0.24022 -2.901845,-0.13522 -2.257744,0.14274 -3.450489,0.10576 -3.876712,-0.12037 -0.382745,-0.20298 -0.739923,-1.07881 -0.739923,-1.81429 0,-0.49501 0.12015,-0.70355 0.759953,-1.31879 0.417964,-0.40195 1.414311,-1.17794 2.214082,-1.72442 2.178775,-1.48881 2.865811,-2.71341 2.676375,-4.77056 -0.282808,-3.07149 -1.529105,-4.23828 -4.982769,-4.66485 -2.285156,-0.28225 -3.433121,-0.60816 -3.754475,-1.06585 -0.148923,-0.21214 -0.243837,-0.69234 -0.243837,-1.23392 0,-0.71835 0.06775,-0.94783 0.356875,-1.20924 0.541804,-0.48985 1.666834,-1.09692 2.870409,-1.5489 1.651643,-0.62022 2.20083,-0.94245 2.904719,-1.70428 0.814022,-0.88107 1.080885,-1.64447 1.064819,-3.046 -0.0335,-2.9185 -1.005306,-4.13626 -4.104059,-5.14271 -1.554854,-0.50501 -2.881543,-1.19675 -3.186861,-1.66166 -0.337301,-0.51358 -0.174611,-1.75103 0.296756,-2.2575 0.390642,-0.41973 1.912939,-0.9213 3.509064,-1.1562 2.452806,-0.36096 3.7303,-1.10421 4.461811,-2.59587 0.39497,-0.80541 0.422987,-0.99134 0.363987,-2.41566 -0.05564,-1.34237 -0.124876,-1.6542 -0.532395,-2.39743 -0.488976,-0.89184 -0.767517,-1.12806 -3.199902,-2.71391 -1.634459,-1.06557 -2.108972,-1.56627 -2.108972,-2.22536 0,-0.65767 0.462108,-1.70202 0.851722,-1.92483 0.227014,-0.12982 1.278188,-0.2009 3.205287,-0.21675 3.342925,-0.0275 4.032201,-0.21775 5.142646,-1.41965 1.00019,-1.08253 1.331529,-2.29256 1.091292,-3.98503 -0.21582,-1.5205 -0.586311,-2.18913 -1.996931,-3.60407 -1.537003,-1.54166 -2.267154,-2.51537 -2.267154,-3.02341 0,-0.44903 0.504468,-1.48505 0.870784,-1.78835 0.405226,-0.33554 1.820869,-0.22087 4.030656,0.32651 2.193024,0.54323 2.991706,0.54728 4.178368,0.0211 0.975501,-0.4325 1.661145,-1.06826 2.147609,-1.99146 0.366165,-0.69484 0.424741,-0.99026 0.41161,-2.07598 -0.01907,-1.57428 -0.21228,-2.28055 -0.953503,-3.48428 -2.076628,-3.37256 -2.181588,-3.71695 -1.431832,-4.69768 0.902584,-1.18058 1.587562,-1.1382 4.467046,0.27647 0.960464,0.47187 2.120231,0.92869 2.577286,1.01517 2.327607,0.4404 4.656474,-1.04147 5.117344,-3.2562 0.25951,-1.24715 0.0755,-2.64171 -0.63424,-4.80647 -0.944666,-2.8813 -0.945266,-2.90041 -0.11379,-3.72996 0.57775,-0.57636 0.80633,-0.70055 1.2896,-0.70055 0.71717,0 1.65155,0.52525 3.271,1.83873 1.81915,1.47544 2.36273,1.71609 3.87553,1.7157 1.06449,-3e-4 1.39656,-0.0676 2.06183,-0.41764 0.93969,-0.49451 1.49607,-1.05879 2.00081,-2.02916 0.41799,-0.80363 0.46282,-1.95745 0.2251,-5.79321 -0.14771,-2.38322 -0.11012,-2.47381 1.23923,-2.98793 1.17546,-0.44788 1.38257,-0.30313 4.32123,3.02026 1.22334,1.3835 2.10964,1.85317 3.65252,1.93555 1.29854,0.0692 2.14935,-0.22241 3.11455,-1.06788 0.99716,-0.87345 1.37167,-1.88287 1.62567,-4.38158 0.2607,-2.56445 0.36381,-3.15322 0.65261,-3.72668 0.23076,-0.45822 0.99701,-0.78675 1.89426,-0.81212 0.78502,-0.0222 1.44267,0.69085 2.55063,2.76546 0.51023,0.95537 1.15188,2.00076 1.42587,2.32311 1.13916,1.34018 3.26061,1.93483 4.92952,1.38179 1.63902,-0.54314 2.56468,-1.76475 3.28922,-4.34107 0.22865,-0.81306 0.6021,-1.94269 0.82988,-2.5103 0.46154,-1.15028 0.91731,-1.47046 2.09318,-1.47046 1.24061,0 1.64065,0.64077 2.77999,4.45259 0.33123,1.10818 0.5481,1.52183 1.14526,2.18445 1.04547,1.16013 2.06258,1.64098 3.46699,1.63906 0.81759,-0.001 1.30627,-0.0945 1.854,-0.35414 1.00096,-0.47457 2.1047,-1.68917 2.66286,-2.93025 0.55668,-1.23788 1.94915,-3.3311 2.30708,-3.46814 0.48293,-0.18489 1.4203,-0.10045 1.97412,0.17768 0.70986,0.35661 0.92017,1.04435 1.12491,3.67868 0.18632,2.39727 0.44247,3.23073 1.28711,4.18807 1.58145,1.79245 4.10046,2.149 6.05542,0.8571 0.38609,-0.25512 1.12914,-1.01404 1.65124,-1.68645 1.40251,-1.80632 2.5997,-2.88402 3.20386,-2.88402 0.70504,0 1.52296,0.38313 1.83625,0.86011 0.23481,0.35758 0.25432,0.64605 0.14792,2.18893 -0.23812,3.45268 -0.1884,4.86808 0.19639,5.59245 0.53111,0.99977 1.82772,2.07475 2.86562,2.37578 1.7151,0.49743 3.21238,0.076 4.95013,-1.39306 1.42736,-1.2067 3.13019,-2.34551 3.50716,-2.34551 0.47893,0 1.16476,0.40597 1.64227,0.97214 0.37809,0.44828 0.41667,0.59483 0.32435,1.23199 -0.0576,0.39774 -0.42066,1.66262 -0.80676,2.81081 -0.40438,1.20266 -0.70195,2.38112 -0.70195,2.77992 0,1.17539 0.41227,2.22732 1.22749,3.13193 1.01288,1.12394 1.99915,1.57002 3.47558,1.57204 1.09337,0.001 1.21604,-0.0395 3.37827,-1.13008 1.56096,-0.78727 2.47505,-1.1538 3.00387,-1.20449 0.71239,-0.0683 0.7968,-0.0352 1.34429,0.52725 0.3213,0.33005 0.6265,0.76836 0.67823,0.97399 0.12763,0.50729 -0.27669,1.50149 -1.25149,3.07736 -1.4251,2.30375 -1.602,2.75542 -1.60086,4.08683 0.002,1.39498 0.43029,2.40037 1.42782,3.34567 1.49939,1.42089 3.2566,1.68929 5.74477,0.87748 0.73143,-0.23864 1.81219,-0.51641 2.4017,-0.61727 0.94136,-0.16104 1.12189,-0.15063 1.48328,0.0857 0.44352,0.28994 1.04992,1.33499 1.04992,1.80939 0,0.49739 -0.9348,1.79765 -2.30197,3.20193 -1.76587,1.81383 -2.05587,2.39426 -2.05545,4.11407 0,1.15086 0.0615,1.46121 0.42408,2.15037 0.47067,0.89461 1.22205,1.62166 2.23278,2.16049 0.63556,0.33883 0.81816,0.35477 3.58821,0.3131 3.7971,-0.0571 4.02833,0.0221 4.45317,1.52634 0.26822,0.94973 -0.33449,1.63956 -3.05596,3.49764 -0.6794,0.46388 -1.42205,1.06403 -1.65027,1.33367 -1.27226,1.50307 -1.53513,3.565 -0.67375,5.28473 0.85646,1.71002 2.10458,2.4302 4.8441,2.7952 2.08733,0.2781 3.24431,0.60674 3.629,1.03083 0.15879,0.17505 0.31911,0.65297 0.35881,1.06965 0.11912,1.25065 -0.25364,1.53493 -4.53936,3.46147 -1.8078,0.81266 -2.8236,2.17802 -2.99104,4.02035 -0.11137,1.22551 0.29539,2.48468 1.09574,3.39183 0.81944,0.92877 1.35108,1.23563 3.31473,1.91327 3.24168,1.11868 3.9276,1.85522 3.24516,3.48471 -0.31334,0.74824 -1.16181,1.10473 -3.74312,1.57263 -2.3109,0.41891 -3.37948,0.89376 -4.12522,1.8331 -0.78827,0.99295 -1.09069,1.84523 -1.09452,3.08448 -0.002,0.93804 0.0757,1.28005 0.47975,2.0867 0.56277,1.1236 1.12781,1.6594 2.72112,2.58029 2.09816,1.21266 3.13745,2.1371 3.13892,2.792 0,0.19407 -0.11512,0.64183 -0.25678,0.99504 -0.42544,1.0608 -0.78304,1.16115 -4.1833,1.17389 -2.72844,0.0103 -2.98105,0.036 -3.60377,0.36749 -1.04966,0.55878 -1.73857,1.24958 -2.2185,2.2246 -0.37585,0.76358 -0.44126,1.0897 -0.43421,2.16487 0.0113,1.70465 0.32751,2.2707 2.45763,4.39728 0.94057,0.93902 1.85536,2.00012 2.03283,2.35801 0.29683,0.59851 0.30406,0.69637 0.0903,1.21999 -0.12784,0.31312 -0.42439,0.73869 -0.65906,0.94571 -0.39278,0.34658 -0.52141,0.36931 -1.62317,0.28691 -0.65811,-0.0492 -1.91027,-0.27931 -2.7826,-0.5113 -1.18685,-0.31566 -1.82668,-0.40311 -2.54227,-0.34751 -1.67359,0.13007 -3.08578,1.09496 -3.83363,2.61935 -0.36965,0.75347 -0.43875,1.09116 -0.42677,2.08577 0.017,1.41636 0.22862,1.96639 1.38883,3.60965 0.97403,1.37954 1.84559,3.01017 1.84471,3.45128 -0.002,0.48423 -0.58213,1.29061 -1.1361,1.57643 -0.69962,0.36094 -1.50825,0.15053 -4.17649,-1.08675 -1.90716,-0.88437 -2.14507,-0.95591 -3.17203,-0.95369 -1.32836,0.002 -2.28465,0.39711 -3.26465,1.34594 -0.97922,0.94811 -1.3316,1.84612 -1.32258,3.37079 0.006,1.11566 0.0859,1.45467 0.66801,2.85723 0.36332,0.87525 0.78346,2.05881 0.93368,2.63015 0.25937,0.98664 0.25912,1.06005 -0.005,1.46217 -0.34203,0.52077 -1.16745,1.03981 -1.65491,1.04059 -0.56193,0.001 -1.55398,-0.56279 -3.27546,-1.8612 -2.02123,-1.52448 -2.70527,-1.82757 -4.13287,-1.83127 -1.39672,-0.004 -2.31081,0.40642 -3.33058,1.4941 -1.31646,1.40414 -1.55909,2.60915 -1.04239,5.17748 0.43412,2.15788 0.44202,3.87063 0.0197,4.29187 -0.46042,0.45934 -1.52818,0.70704 -2.07455,0.48124 -0.52613,-0.21743 -1.73161,-1.35817 -3.22169,-3.0488 -1.40822,-1.59767 -2.28463,-2.07183 -3.83176,-2.07301 -1.88913,-0.001 -3.4402,0.95724 -4.31742,2.66842 -0.35637,0.69521 -0.41923,1.07272 -0.53085,3.18777 -0.19243,3.64713 -0.39291,4.10408 -1.87762,4.2795 l -0.8218,0.0971 -0.74632,-0.78282 c -0.42028,-0.44083 -1.12215,-1.50086 -1.60665,-2.42646 -1.47029,-2.80899 -2.56267,-3.64337 -4.76153,-3.63699 -1.44763,0.004 -2.31678,0.34802 -3.31258,1.31037 -0.91486,0.88413 -1.22366,1.52602 -1.62631,3.38058 -0.68595,3.15944 -1.15272,3.85382 -2.58494,3.84533 -0.4462,-0.002 -0.93699,-0.0779 -1.09066,-0.16713 z"
       id="path3051"
       inkscape:connector-curvature="0"
       inkscape:export-xdpi="304.02609"
       inkscape:export-ydpi="304.02609" />
    <path
       sodipodi:type="arc"
       style="fill:#008f98;fill-opacity:1;fill-rule:nonzero;stroke:none"
       id="path2985"
       sodipodi:cx="120.77392"
       sodipodi:cy="342.64578"
       sodipodi:rx="290.40021"
       sodipodi:ry="290.40021"
       d="m 411.17413,342.64578 c 0,160.38361 -130.01661,290.40021 -290.40021,290.40021 -160.383608,0 -290.40021,-130.0166 -290.40021,-290.40021 0,-160.3836 130.016602,-290.400205 290.40021,-290.400205 158.77388,0 288.11399,127.514495 290.37087,286.272335"
       sodipodi:start="0"
       sodipodi:end="6.2689704"
       sodipodi:open="true"
       transform="matrix(0.21522023,0,0,0.21522023,119.99959,236.21927)" />
    <text
       xml:space="preserve"
       style="font-size:12.83656979px;font-style:normal;font-variant:normal;font-weight:normal;font-stretch:normal;line-height:125%;letter-spacing:0px;word-spacing:0px;fill:#ffffff;fill-opacity:1;stroke:none;font-family:Permanent Marker;-inkscape-font-specification:Permanent Marker"
       x="105.61391"
       y="283.37946"
       id="text2987"
       sodipodi:linespacing="125%"
       transform="scale(0.90928905,1.0997603)"><tspan
         sodipodi:role="line"
         id="tspan2989"
         x="105.61391"
         y="283.37946"
         style="font-size:52px;font-style:normal;font-variant:normal;font-weight:normal;font-stretch:normal;line-height:0%;letter-spacing:-12.52000046px;word-spacing:0px;fill:#ffffff;fill-opacity:1;stroke:none;font-family:Permanent Marker;-inkscape-font-specification:Permanent Marker"
         dy="0"
         dx="0"><tspan
           style="font-size:52px;font-style:normal;font-variant:normal;font-weight:normal;font-stretch:normal;line-height:0%;letter-spacing:-12.52000046px;word-spacing:0px;fill:#ffffff;fill-opacity:1;stroke:none;font-family:Permanent Marker;-inkscape-font-specification:Permanent Marker"
           id="tspan2997"
           dx="0 0"
           dy="0 20 20">TWM</tspan></tspan></text>
  </g>
</svg>
