<?xml version="1.0" encoding="UTF-8" standalone="no"?>
<!-- Created with Inkscape (http://www.inkscape.org/) -->

<svg
   xmlns:dc="http://purl.org/dc/elements/1.1/"
   xmlns:cc="http://creativecommons.org/ns#"
   xmlns:rdf="http://www.w3.org/1999/02/22-rdf-syntax-ns#"
   xmlns:svg="http://www.w3.org/2000/svg"
   xmlns="http://www.w3.org/2000/svg"
   xmlns:sodipodi="http://sodipodi.sourceforge.net/DTD/sodipodi-0.dtd"
   xmlns:inkscape="http://www.inkscape.org/namespaces/inkscape"
   width="153.53851"
   height="154.4727"
   id="svg3509"
   version="1.1"
   inkscape:version="0.48.4 r9939"
   sodipodi:docname="logo_trails_5_6.svg"
   inkscape:export-filename="C:\Users\Kay\tiroltrailhead\images\logo_trails_5_6_wh.png"
   inkscape:export-xdpi="200"
   inkscape:export-ydpi="200">
  <defs
     id="defs3511">
    <clipPath
       clipPathUnits="userSpaceOnUse"
       id="clipPath4802">
      <path
         sodipodi:type="arc"
         style="fill:none;stroke:#aa0009;stroke-width:0.09131714;stroke-linecap:square;stroke-linejoin:round;stroke-miterlimit:4;stroke-opacity:1;stroke-dasharray:none"
         id="path4804"
         sodipodi:cx="25.419195"
         sodipodi:cy="21.930208"
         sodipodi:rx="15.044013"
         sodipodi:ry="13.487736"
         d="m 40.463208,21.930208 a 15.044013,13.487736 0 1 1 -30.088026,0 15.044013,13.487736 0 1 1 30.088026,0 z"
         transform="matrix(5.168221,0,0,5.7645544,-28.994055,823.43811)" />
    </clipPath>
    <clipPath
       clipPathUnits="userSpaceOnUse"
       id="clipPath4798">
      <path
         sodipodi:type="arc"
         style="fill:none;stroke:#aa0009;stroke-width:0.09131714;stroke-linecap:square;stroke-linejoin:round;stroke-miterlimit:4;stroke-opacity:1;stroke-dasharray:none"
         id="path4800"
         sodipodi:cx="25.419195"
         sodipodi:cy="21.930208"
         sodipodi:rx="15.044013"
         sodipodi:ry="13.487736"
         d="m 40.463208,21.930208 a 15.044013,13.487736 0 1 1 -30.088026,0 15.044013,13.487736 0 1 1 30.088026,0 z"
         transform="matrix(5.168221,0,0,5.7645544,-28.994055,-23.9242)" />
    </clipPath>
    <clipPath
       clipPathUnits="userSpaceOnUse"
       id="clipPath4794">
      <path
         sodipodi:type="arc"
         style="fill:none;stroke:#aa0009;stroke-width:0.09131714;stroke-linecap:square;stroke-linejoin:round;stroke-miterlimit:4;stroke-opacity:1;stroke-dasharray:none"
         id="path4796"
         sodipodi:cx="25.419195"
         sodipodi:cy="21.930208"
         sodipodi:rx="15.044013"
         sodipodi:ry="13.487736"
         d="m 40.463208,21.930208 a 15.044013,13.487736 0 1 1 -30.088026,0 15.044013,13.487736 0 1 1 30.088026,0 z"
         transform="matrix(5.168221,0,0,5.7645544,-28.994055,823.43811)" />
    </clipPath>
    <clipPath
       clipPathUnits="userSpaceOnUse"
       id="clipPath4790">
      <path
         sodipodi:type="arc"
         style="fill:none;stroke:#aa0009;stroke-width:0.09131714;stroke-linecap:square;stroke-linejoin:round;stroke-miterlimit:4;stroke-opacity:1;stroke-dasharray:none"
         id="path4792"
         sodipodi:cx="25.419195"
         sodipodi:cy="21.930208"
         sodipodi:rx="15.044013"
         sodipodi:ry="13.487736"
         d="m 40.463208,21.930208 a 15.044013,13.487736 0 1 1 -30.088026,0 15.044013,13.487736 0 1 1 30.088026,0 z"
         transform="matrix(5.168221,0,0,5.7645544,-28.994055,-23.9242)" />
    </clipPath>
    <clipPath
       clipPathUnits="userSpaceOnUse"
       id="clipPath4774">
      <path
         sodipodi:type="arc"
         style="fill:none;stroke:#aa0009;stroke-width:0.09131714;stroke-linecap:square;stroke-linejoin:round;stroke-miterlimit:4;stroke-opacity:1;stroke-dasharray:none"
         id="path4776"
         sodipodi:cx="25.419195"
         sodipodi:cy="21.930208"
         sodipodi:rx="15.044013"
         sodipodi:ry="13.487736"
         d="m 40.463208,21.930208 a 15.044013,13.487736 0 1 1 -30.088026,0 15.044013,13.487736 0 1 1 30.088026,0 z"
         transform="matrix(5.168221,0,0,5.7645544,-28.994055,823.43811)" />
    </clipPath>
    <clipPath
       clipPathUnits="userSpaceOnUse"
       id="clipPath4770">
      <path
         sodipodi:type="arc"
         style="fill:none;stroke:#aa0009;stroke-width:0.09131714;stroke-linecap:square;stroke-linejoin:round;stroke-miterlimit:4;stroke-opacity:1;stroke-dasharray:none"
         id="path4772"
         sodipodi:cx="25.419195"
         sodipodi:cy="21.930208"
         sodipodi:rx="15.044013"
         sodipodi:ry="13.487736"
         d="m 40.463208,21.930208 a 15.044013,13.487736 0 1 1 -30.088026,0 15.044013,13.487736 0 1 1 30.088026,0 z"
         transform="matrix(5.168221,0,0,5.7645544,-28.994055,-23.9242)" />
    </clipPath>
    <clipPath
       clipPathUnits="userSpaceOnUse"
       id="clipPath4762">
      <path
         sodipodi:type="arc"
         style="fill:none;stroke:#aa0009;stroke-width:0.09131714;stroke-linecap:square;stroke-linejoin:round;stroke-miterlimit:4;stroke-opacity:1;stroke-dasharray:none"
         id="path4764"
         sodipodi:cx="25.419195"
         sodipodi:cy="21.930208"
         sodipodi:rx="15.044013"
         sodipodi:ry="13.487736"
         d="m 40.463208,21.930208 a 15.044013,13.487736 0 1 1 -30.088026,0 15.044013,13.487736 0 1 1 30.088026,0 z"
         transform="matrix(5.168221,0,0,5.7645544,-28.994055,823.43811)" />
    </clipPath>
    <filter
       id="filter4127"
       inkscape:label="Colorize"
       x="0"
       y="0"
       width="1"
       height="1"
       inkscape:menu="Color"
       inkscape:menu-tooltip="Blend image or object with a flood color and set lightness and contrast"
       color-interpolation-filters="sRGB">
      <feColorMatrix
         id="feColorMatrix4129"
         type="saturate"
         values="1"
         result="fbSourceGraphic" />
      <feColorMatrix
         id="feColorMatrix4131"
         in="fbSourceGraphic"
         values="-1 0 0 0 1 0 -1 0 0 1 0 0 -1 0 1 0 0 0 1 0 "
         result="fbSourceGraphic" />
      <feColorMatrix
         result="fbSourceGraphicAlpha"
         in="fbSourceGraphic"
         values="0 0 0 -1 0 0 0 0 -1 0 0 0 0 -1 0 0 0 0 1 0"
         id="feColorMatrix3163" />
      <feColorMatrix
         id="feColorMatrix3165"
         type="saturate"
         values="1"
         result="fbSourceGraphic"
         in="fbSourceGraphic" />
      <feColorMatrix
         id="feColorMatrix3167"
         in="fbSourceGraphic"
         values="-1 0 0 0 1 0 -1 0 0 1 0 0 -1 0 1 0 0 0 1 0 "
         result="fbSourceGraphic" />
      <feColorMatrix
         result="fbSourceGraphicAlpha"
         in="fbSourceGraphic"
         values="0 0 0 -1 0 0 0 0 -1 0 0 0 0 -1 0 0 0 0 1 0"
         id="feColorMatrix3201" />
      <feColorMatrix
         id="feColorMatrix3203"
         values="1"
         in="fbSourceGraphic"
         type="saturate"
         result="result2" />
      <feFlood
         id="feFlood3205"
         flood-color="rgb(254,102,0)"
         flood-opacity="1"
         result="result1" />
      <feBlend
         id="feBlend3207"
         in2="result2"
         mode="multiply"
         in="result1"
         result="result3" />
      <feComposite
         id="feComposite3209"
         in2="fbSourceGraphic"
         operator="in"
         result="result4" />
    </filter>
    <clipPath
       clipPathUnits="userSpaceOnUse"
       id="clipPath4818">
      <path
         sodipodi:type="arc"
         style="fill:none;stroke:#aa0009;stroke-width:0.09131714;stroke-linecap:square;stroke-linejoin:round;stroke-miterlimit:4;stroke-opacity:1;stroke-dasharray:none"
         id="path4820"
         sodipodi:cx="25.419195"
         sodipodi:cy="21.930208"
         sodipodi:rx="15.044013"
         sodipodi:ry="13.487736"
         d="m 40.463208,21.930208 a 15.044013,13.487736 0 1 1 -30.088026,0 15.044013,13.487736 0 1 1 30.088026,0 z"
         transform="matrix(5.168221,0,0,5.7645544,-28.994055,-23.9242)" />
    </clipPath>
    <clipPath
       clipPathUnits="userSpaceOnUse"
       id="clipPath4806">
      <path
         sodipodi:type="arc"
         style="fill:none;stroke:#aa0009;stroke-width:0.09131714;stroke-linecap:square;stroke-linejoin:round;stroke-miterlimit:4;stroke-opacity:1;stroke-dasharray:none"
         id="path4808"
         sodipodi:cx="25.419195"
         sodipodi:cy="21.930208"
         sodipodi:rx="15.044013"
         sodipodi:ry="13.487736"
         d="m 40.463208,21.930208 a 15.044013,13.487736 0 1 1 -30.088026,0 15.044013,13.487736 0 1 1 30.088026,0 z"
         transform="matrix(5.168221,0,0,5.7645544,-28.994055,823.43811)" />
    </clipPath>
    <clipPath
       clipPathUnits="userSpaceOnUse"
       id="clipPath4786">
      <path
         sodipodi:type="arc"
         style="fill:none;stroke:#aa0009;stroke-width:0.09131714;stroke-linecap:square;stroke-linejoin:round;stroke-miterlimit:4;stroke-opacity:1;stroke-dasharray:none"
         id="path4788"
         sodipodi:cx="25.419195"
         sodipodi:cy="21.930208"
         sodipodi:rx="15.044013"
         sodipodi:ry="13.487736"
         d="m 40.463208,21.930208 a 15.044013,13.487736 0 1 1 -30.088026,0 15.044013,13.487736 0 1 1 30.088026,0 z"
         transform="matrix(5.168221,0,0,5.7645544,-28.994055,823.43811)" />
    </clipPath>
    <clipPath
       clipPathUnits="userSpaceOnUse"
       id="clipPath4782">
      <path
         sodipodi:type="arc"
         style="fill:none;stroke:#aa0009;stroke-width:0.09131714;stroke-linecap:square;stroke-linejoin:round;stroke-miterlimit:4;stroke-opacity:1;stroke-dasharray:none"
         id="path4784"
         sodipodi:cx="25.419195"
         sodipodi:cy="21.930208"
         sodipodi:rx="15.044013"
         sodipodi:ry="13.487736"
         d="m 40.463208,21.930208 a 15.044013,13.487736 0 1 1 -30.088026,0 15.044013,13.487736 0 1 1 30.088026,0 z"
         transform="matrix(5.168221,0,0,5.7645544,-28.994055,823.43811)" />
    </clipPath>
    <clipPath
       clipPathUnits="userSpaceOnUse"
       id="clipPath4778">
      <path
         sodipodi:type="arc"
         style="fill:none;stroke:#aa0009;stroke-width:0.09131714;stroke-linecap:square;stroke-linejoin:round;stroke-miterlimit:4;stroke-opacity:1;stroke-dasharray:none"
         id="path4780"
         sodipodi:cx="25.419195"
         sodipodi:cy="21.930208"
         sodipodi:rx="15.044013"
         sodipodi:ry="13.487736"
         d="m 40.463208,21.930208 a 15.044013,13.487736 0 1 1 -30.088026,0 15.044013,13.487736 0 1 1 30.088026,0 z"
         transform="matrix(5.1111363,0,0,5.828937,-28.673806,832.63484)" />
    </clipPath>
    <clipPath
       clipPathUnits="userSpaceOnUse"
       id="clipPath4766">
      <path
         sodipodi:type="arc"
         style="fill:none;stroke:#aa0009;stroke-width:0.09131714;stroke-linecap:square;stroke-linejoin:round;stroke-miterlimit:4;stroke-opacity:1;stroke-dasharray:none"
         id="path4768"
         sodipodi:cx="25.419195"
         sodipodi:cy="21.930208"
         sodipodi:rx="15.044013"
         sodipodi:ry="13.487736"
         d="m 40.463208,21.930208 a 15.044013,13.487736 0 1 1 -30.088026,0 15.044013,13.487736 0 1 1 30.088026,0 z"
         transform="matrix(5.1111363,0,0,5.828937,-28.673806,832.63484)" />
    </clipPath>
    <clipPath
       clipPathUnits="userSpaceOnUse"
       id="clipPath4758">
      <path
         sodipodi:type="arc"
         style="fill:none;stroke:#aa0009;stroke-width:0.09131714;stroke-linecap:square;stroke-linejoin:round;stroke-miterlimit:4;stroke-opacity:1;stroke-dasharray:none"
         id="path4760"
         sodipodi:cx="25.419195"
         sodipodi:cy="21.930208"
         sodipodi:rx="15.044013"
         sodipodi:ry="13.487736"
         d="m 40.463208,21.930208 a 15.044013,13.487736 0 1 1 -30.088026,0 15.044013,13.487736 0 1 1 30.088026,0 z"
         transform="matrix(5.1111363,0,0,5.828937,-28.673806,832.63484)" />
    </clipPath>
    <clipPath
       clipPathUnits="userSpaceOnUse"
       id="clipPath4754">
      <path
         sodipodi:type="arc"
         style="fill:none;stroke:#aa0009;stroke-width:0.09131714;stroke-linecap:square;stroke-linejoin:round;stroke-miterlimit:4;stroke-opacity:1;stroke-dasharray:none"
         id="path4756"
         sodipodi:cx="25.419195"
         sodipodi:cy="21.930208"
         sodipodi:rx="15.044013"
         sodipodi:ry="13.487736"
         d="m 40.463208,21.930208 a 15.044013,13.487736 0 1 1 -30.088026,0 15.044013,13.487736 0 1 1 30.088026,0 z"
         transform="matrix(5.168221,0,0,5.7645544,-28.994055,823.43811)" />
    </clipPath>
    <clipPath
       clipPathUnits="userSpaceOnUse"
       id="clipPath4779">
      <path
         style="color:#000000;fill:none;stroke:#00ff00;stroke-width:5;stroke-linecap:butt;stroke-linejoin:miter;stroke-miterlimit:4;stroke-opacity:1;stroke-dasharray:none;stroke-dashoffset:0;marker:none;visibility:visible;display:inline;overflow:visible;enable-background:accumulate"
         d="m -316.06026,543.58492 -20.09045,-10.21548 0,3.06464 -11.91806,-6.81032 0,3.06465 -17.02581,-8.17239 -19.40942,17.36632 -1.70258,-5.78877 1.36207,-10.89652 4.08619,-11.23703 7.83187,-8.85342 10.89652,-6.81032 10.89651,-2.0431 10.21548,1.36207 10.89652,4.42671 8.17238,7.83187 6.46981,11.23703 1.36207,7.83187 0,6.81032 z"
         id="path4781"
         inkscape:connector-curvature="0" />
    </clipPath>
    <filter
       id="filter4783"
       inkscape:label="Quadritone fantasy"
       inkscape:menu="Color"
       inkscape:menu-tooltip="Replace hue by two colors"
       height="1"
       width="1"
       y="0"
       x="0"
       color-interpolation-filters="sRGB">
      <feColorMatrix
         id="feColorMatrix4785"
         type="saturate"
         values="1"
         result="result2" />
      <feColorMatrix
         id="feColorMatrix4787"
         result="result1"
         values="50"
         type="hueRotate"
         in="result2" />
      <feColorMatrix
         id="feColorMatrix4789"
         values="1 -1 1 0 0 0 1 0 0 0 1 -1 1 0 0 0 0 0 1 0 "
         type="matrix" />
      <feColorMatrix
         id="feColorMatrix4791"
         values="300"
         type="hueRotate" />
    </filter>
    <clipPath
       clipPathUnits="userSpaceOnUse"
       id="clipPath4720">
      <path
         transform="matrix(1.5399853,0,0,1.5962841,323.00256,477.21692)"
         d="m 40.463208,21.930208 a 15.044013,13.487736 0 1 1 -30.088026,0 15.044013,13.487736 0 1 1 30.088026,0 z"
         sodipodi:ry="13.487736"
         sodipodi:rx="15.044013"
         sodipodi:cy="21.930208"
         sodipodi:cx="25.419195"
         id="path4722"
         style="fill:none;stroke:#ffffff;stroke-width:0.31890154;stroke-linecap:square;stroke-linejoin:round;stroke-miterlimit:4;stroke-opacity:1;stroke-dasharray:none"
         sodipodi:type="arc" />
    </clipPath>
    <clipPath
       clipPathUnits="userSpaceOnUse"
       id="clipPath4724">
      <path
         transform="matrix(1.5399853,0,0,1.5962841,323.00256,477.21692)"
         d="m 40.463208,21.930208 a 15.044013,13.487736 0 1 1 -30.088026,0 15.044013,13.487736 0 1 1 30.088026,0 z"
         sodipodi:ry="13.487736"
         sodipodi:rx="15.044013"
         sodipodi:cy="21.930208"
         sodipodi:cx="25.419195"
         id="path4726"
         style="fill:none;stroke:#ffffff;stroke-width:0.31890154;stroke-linecap:square;stroke-linejoin:round;stroke-miterlimit:4;stroke-opacity:1;stroke-dasharray:none"
         sodipodi:type="arc" />
    </clipPath>
    <clipPath
       clipPathUnits="userSpaceOnUse"
       id="clipPath4728">
      <path
         transform="matrix(1.5974677,0,0,1.655868,27.411078,948.19159)"
         d="m 40.463208,21.930208 a 15.044013,13.487736 0 1 1 -30.088026,0 15.044013,13.487736 0 1 1 30.088026,0 z"
         sodipodi:ry="13.487736"
         sodipodi:rx="15.044013"
         sodipodi:cy="21.930208"
         sodipodi:cx="25.419195"
         id="path4730"
         style="fill:none;stroke:#ffffff;stroke-width:0.31890154;stroke-linecap:square;stroke-linejoin:round;stroke-miterlimit:4;stroke-opacity:1;stroke-dasharray:none"
         sodipodi:type="arc" />
    </clipPath>
    <clipPath
       clipPathUnits="userSpaceOnUse"
       id="clipPath4732">
      <path
         transform="matrix(3.4570747,0,0,3.5834586,5.5778135,867.76605)"
         d="m 40.463208,21.930208 a 15.044013,13.487736 0 1 1 -30.088026,0 15.044013,13.487736 0 1 1 30.088026,0 z"
         sodipodi:ry="13.487736"
         sodipodi:rx="15.044013"
         sodipodi:cy="21.930208"
         sodipodi:cx="25.419195"
         id="path4734"
         style="fill:none;stroke:#ffffff;stroke-width:0.31890154;stroke-linecap:square;stroke-linejoin:round;stroke-miterlimit:4;stroke-opacity:1;stroke-dasharray:none"
         sodipodi:type="arc" />
    </clipPath>
    <clipPath
       clipPathUnits="userSpaceOnUse"
       id="clipPath4736">
      <path
         transform="matrix(1.5974677,0,0,1.655868,32.502779,946.84074)"
         d="m 40.463208,21.930208 a 15.044013,13.487736 0 1 1 -30.088026,0 15.044013,13.487736 0 1 1 30.088026,0 z"
         sodipodi:ry="13.487736"
         sodipodi:rx="15.044013"
         sodipodi:cy="21.930208"
         sodipodi:cx="25.419195"
         id="path4738"
         style="fill:none;stroke:#ffffff;stroke-width:0.31890154;stroke-linecap:square;stroke-linejoin:round;stroke-miterlimit:4;stroke-opacity:1;stroke-dasharray:none"
         sodipodi:type="arc" />
    </clipPath>
    <clipPath
       clipPathUnits="userSpaceOnUse"
       id="clipPath4740">
      <path
         transform="matrix(3.4570747,0,0,3.5834586,7.6249228,871.06508)"
         d="m 40.463208,21.930208 a 15.044013,13.487736 0 1 1 -30.088026,0 15.044013,13.487736 0 1 1 30.088026,0 z"
         sodipodi:ry="13.487736"
         sodipodi:rx="15.044013"
         sodipodi:cy="21.930208"
         sodipodi:cx="25.419195"
         id="path4742"
         style="fill:none;stroke:#ffffff;stroke-width:0.31890154;stroke-linecap:square;stroke-linejoin:round;stroke-miterlimit:4;stroke-opacity:1;stroke-dasharray:none"
         sodipodi:type="arc" />
    </clipPath>
    <clipPath
       clipPathUnits="userSpaceOnUse"
       id="clipPath4744">
      <path
         transform="matrix(3.4570747,0,0,3.5834586,10.839044,869.06511)"
         d="m 40.463208,21.930208 a 15.044013,13.487736 0 1 1 -30.088026,0 15.044013,13.487736 0 1 1 30.088026,0 z"
         sodipodi:ry="13.487736"
         sodipodi:rx="15.044013"
         sodipodi:cy="21.930208"
         sodipodi:cx="25.419195"
         id="path4746"
         style="fill:none;stroke:#ffffff;stroke-width:0.31890154;stroke-linecap:square;stroke-linejoin:round;stroke-miterlimit:4;stroke-opacity:1;stroke-dasharray:none"
         sodipodi:type="arc" />
    </clipPath>
    <clipPath
       clipPathUnits="userSpaceOnUse"
       id="clipPath4748">
      <path
         transform="matrix(3.4570747,0,0,3.5834586,5.5794901,869.06511)"
         d="m 40.463208,21.930208 a 15.044013,13.487736 0 1 1 -30.088026,0 15.044013,13.487736 0 1 1 30.088026,0 z"
         sodipodi:ry="13.487736"
         sodipodi:rx="15.044013"
         sodipodi:cy="21.930208"
         sodipodi:cx="25.419195"
         id="path4750"
         style="fill:none;stroke:#ffffff;stroke-width:0.31890154;stroke-linecap:square;stroke-linejoin:round;stroke-miterlimit:4;stroke-opacity:1;stroke-dasharray:none"
         sodipodi:type="arc" />
    </clipPath>
    <clipPath
       clipPathUnits="userSpaceOnUse"
       id="clipPath4752">
      <path
         transform="matrix(1.4845713,0,0,1.655868,311.37982,495.0298)"
         d="m 40.463208,21.930208 a 15.044013,13.487736 0 1 1 -30.088026,0 15.044013,13.487736 0 1 1 30.088026,0 z"
         sodipodi:ry="13.487736"
         sodipodi:rx="15.044013"
         sodipodi:cy="21.930208"
         sodipodi:cx="25.419195"
         id="path4754"
         style="fill:none;stroke:#ffffff;stroke-width:0.31890154;stroke-linecap:square;stroke-linejoin:round;stroke-miterlimit:4;stroke-opacity:1;stroke-dasharray:none"
         sodipodi:type="arc" />
    </clipPath>
    <clipPath
       clipPathUnits="userSpaceOnUse"
       id="clipPath4756">
      <path
         transform="matrix(3.4570747,0,0,3.5834586,6.5108412,21.702775)"
         d="m 40.463208,21.930208 a 15.044013,13.487736 0 1 1 -30.088026,0 15.044013,13.487736 0 1 1 30.088026,0 z"
         sodipodi:ry="13.487736"
         sodipodi:rx="15.044013"
         sodipodi:cy="21.930208"
         sodipodi:cx="25.419195"
         id="path4758"
         style="fill:none;stroke:#ffffff;stroke-width:0.31890154;stroke-linecap:square;stroke-linejoin:round;stroke-miterlimit:4;stroke-opacity:1;stroke-dasharray:none"
         sodipodi:type="arc" />
    </clipPath>
    <clipPath
       clipPathUnits="userSpaceOnUse"
       id="clipPath4760">
      <path
         transform="matrix(3.4570747,0,0,3.5834586,-0.17993623,871.98848)"
         d="m 40.463208,21.930208 a 15.044013,13.487736 0 1 1 -30.088026,0 15.044013,13.487736 0 1 1 30.088026,0 z"
         sodipodi:ry="13.487736"
         sodipodi:rx="15.044013"
         sodipodi:cy="21.930208"
         sodipodi:cx="25.419195"
         id="path4762"
         style="fill:none;stroke:#ffffff;stroke-width:0.31890154;stroke-linecap:square;stroke-linejoin:round;stroke-miterlimit:4;stroke-opacity:1;stroke-dasharray:none"
         sodipodi:type="arc" />
    </clipPath>
    <clipPath
       clipPathUnits="userSpaceOnUse"
       id="clipPath4764">
      <path
         transform="matrix(3.4570747,0,0,3.5834586,-0.17993623,24.626145)"
         d="m 40.463208,21.930208 a 15.044013,13.487736 0 1 1 -30.088026,0 15.044013,13.487736 0 1 1 30.088026,0 z"
         sodipodi:ry="13.487736"
         sodipodi:rx="15.044013"
         sodipodi:cy="21.930208"
         sodipodi:cx="25.419195"
         id="path4766"
         style="fill:none;stroke:#ffffff;stroke-width:0.31890154;stroke-linecap:square;stroke-linejoin:round;stroke-miterlimit:4;stroke-opacity:1;stroke-dasharray:none"
         sodipodi:type="arc" />
    </clipPath>
    <clipPath
       clipPathUnits="userSpaceOnUse"
       id="clipPath4768">
      <path
         transform="matrix(3.4570747,0,0,3.5834586,-0.17993623,871.98848)"
         d="m 40.463208,21.930208 a 15.044013,13.487736 0 1 1 -30.088026,0 15.044013,13.487736 0 1 1 30.088026,0 z"
         sodipodi:ry="13.487736"
         sodipodi:rx="15.044013"
         sodipodi:cy="21.930208"
         sodipodi:cx="25.419195"
         id="path4770"
         style="fill:none;stroke:#ffffff;stroke-width:0.31890154;stroke-linecap:square;stroke-linejoin:round;stroke-miterlimit:4;stroke-opacity:1;stroke-dasharray:none"
         sodipodi:type="arc" />
    </clipPath>
    <clipPath
       clipPathUnits="userSpaceOnUse"
       id="clipPath4772">
      <path
         transform="matrix(3.4570747,0,0,3.5834586,-0.17993623,24.626145)"
         d="m 40.463208,21.930208 a 15.044013,13.487736 0 1 1 -30.088026,0 15.044013,13.487736 0 1 1 30.088026,0 z"
         sodipodi:ry="13.487736"
         sodipodi:rx="15.044013"
         sodipodi:cy="21.930208"
         sodipodi:cx="25.419195"
         id="path4774"
         style="fill:none;stroke:#ffffff;stroke-width:0.31890154;stroke-linecap:square;stroke-linejoin:round;stroke-miterlimit:4;stroke-opacity:1;stroke-dasharray:none"
         sodipodi:type="arc" />
    </clipPath>
    <clipPath
       clipPathUnits="userSpaceOnUse"
       id="clipPath4776">
      <path
         transform="matrix(3.4570747,0,0,3.5834586,-0.17993623,871.98848)"
         d="m 40.463208,21.930208 a 15.044013,13.487736 0 1 1 -30.088026,0 15.044013,13.487736 0 1 1 30.088026,0 z"
         sodipodi:ry="13.487736"
         sodipodi:rx="15.044013"
         sodipodi:cy="21.930208"
         sodipodi:cx="25.419195"
         id="path4778"
         style="fill:none;stroke:#ffffff;stroke-width:0.31890154;stroke-linecap:square;stroke-linejoin:round;stroke-miterlimit:4;stroke-opacity:1;stroke-dasharray:none"
         sodipodi:type="arc" />
    </clipPath>
    <clipPath
       clipPathUnits="userSpaceOnUse"
       id="clipPath4780">
      <path
         transform="matrix(3.4570747,0,0,3.5834586,-0.17993623,24.626145)"
         d="m 40.463208,21.930208 a 15.044013,13.487736 0 1 1 -30.088026,0 15.044013,13.487736 0 1 1 30.088026,0 z"
         sodipodi:ry="13.487736"
         sodipodi:rx="15.044013"
         sodipodi:cy="21.930208"
         sodipodi:cx="25.419195"
         id="path4782"
         style="fill:none;stroke:#ffffff;stroke-width:0.31890154;stroke-linecap:square;stroke-linejoin:round;stroke-miterlimit:4;stroke-opacity:1;stroke-dasharray:none"
         sodipodi:type="arc" />
    </clipPath>
    <clipPath
       clipPathUnits="userSpaceOnUse"
       id="clipPath4784">
      <path
         transform="matrix(3.4570747,0,0,3.5834586,-0.17993623,871.98848)"
         d="m 40.463208,21.930208 a 15.044013,13.487736 0 1 1 -30.088026,0 15.044013,13.487736 0 1 1 30.088026,0 z"
         sodipodi:ry="13.487736"
         sodipodi:rx="15.044013"
         sodipodi:cy="21.930208"
         sodipodi:cx="25.419195"
         id="path4786"
         style="fill:none;stroke:#ffffff;stroke-width:0.31890154;stroke-linecap:square;stroke-linejoin:round;stroke-miterlimit:4;stroke-opacity:1;stroke-dasharray:none"
         sodipodi:type="arc" />
    </clipPath>
  </defs>
  <sodipodi:namedview
     id="base"
     pagecolor="#ffffff"
     bordercolor="#666666"
     borderopacity="1.0"
     inkscape:pageopacity="1"
     inkscape:pageshadow="2"
     inkscape:zoom="1.5400566"
     inkscape:cx="62.238298"
     inkscape:cy="71.440867"
     inkscape:document-units="px"
     inkscape:current-layer="layer1"
     showgrid="false"
     inkscape:window-width="1366"
     inkscape:window-height="705"
     inkscape:window-x="-4"
     inkscape:window-y="-4"
     inkscape:window-maximized="1"
     fit-margin-top="2"
     fit-margin-bottom="2"
     fit-margin-left="2"
     fit-margin-right="2"
     showguides="false"
     inkscape:guide-bbox="true">
    <sodipodi:guide
       orientation="1,0"
       position="32.369607,46.832623"
       id="guide4606" />
    <sodipodi:guide
       orientation="1,0"
       position="65.42793,51.653629"
       id="guide4608" />
    <sodipodi:guide
       orientation="1,0"
       position="98.715824,40.634188"
       id="guide4610" />
    <sodipodi:guide
       orientation="1,0"
       position="114.55627,51.883201"
       id="guide4612" />
    <sodipodi:guide
       orientation="0,1"
       position="55.456647,73.919969"
       id="guide4614" />
  </sodipodi:namedview>
  <metadata
     id="metadata3514">
    <rdf:RDF>
      <cc:Work
         rdf:about="">
        <dc:format>image/svg+xml</dc:format>
        <dc:type
           rdf:resource="http://purl.org/dc/dcmitype/StillImage" />
        <dc:title></dc:title>
      </cc:Work>
    </rdf:RDF>
  </metadata>
  <g
     inkscape:label="Ebene 1"
     inkscape:groupmode="layer"
     id="layer1"
     transform="translate(-275.62501,-450.85858)">
    <g
       id="g4791"
       transform="matrix(3.1539228,0,0,3.1539228,-748.58108,-1147.9734)">
      <flowRoot
         transform="matrix(0.42942992,0,0,0.46208654,311.45709,92.09566)"
         clip-path="url(#clipPath4784)"
         style="font-size:14px;font-style:normal;font-variant:normal;font-weight:normal;font-stretch:normal;line-height:125%;letter-spacing:0px;word-spacing:0px;fill:#000000;fill-opacity:1;stroke:none;font-family:Iron Maiden;-inkscape-font-specification:Iron Maiden"
         id="flowRoot3913"
         xml:space="preserve"><flowRegion
           id="flowRegion3915"><rect
             y="43"
             x="-124.5"
             height="27"
             width="79"
             id="rect3917" /></flowRegion><flowPara
           id="flowPara3919" /></flowRoot>      <flowRoot
         clip-path="url(#clipPath4780)"
         transform="matrix(0.42942992,0,0,0.46208654,311.45709,483.65039)"
         style="font-size:14px;font-style:normal;font-variant:normal;font-weight:normal;font-stretch:normal;line-height:125%;letter-spacing:0px;word-spacing:0px;fill:#ffffff;fill-opacity:1;stroke:none;font-family:Courier New;-inkscape-font-specification:Courier New"
         id="flowRoot3921"
         xml:space="preserve"><flowRegion
           id="flowRegion3923"><rect
             style="font-style:normal;font-variant:normal;font-weight:normal;font-stretch:normal;fill:#ffffff;font-family:Courier New;-inkscape-font-specification:Courier New"
             y="45"
             x="79"
             height="14"
             width="37"
             id="rect3925" /></flowRegion><flowPara
           id="flowPara3927">gimooyacojfmvd</flowPara></flowRoot>      <text
         transform="matrix(0.42942992,0,0,0.46208654,311.45709,92.09566)"
         clip-path="url(#clipPath4776)"
         x="38.635502"
         y="742.28943"
         sodipodi:linespacing="0%"
         id="text3929"
         style="font-size:12.23907757px;font-style:normal;font-variant:normal;font-weight:normal;font-stretch:normal;line-height:0%;letter-spacing:0px;word-spacing:0px;fill:#000000;fill-opacity:1;stroke:none;font-family:Iron Maiden;-inkscape-font-specification:Iron Maiden"
         xml:space="preserve"><tspan
           id="tspan4678"
           style="font-style:normal;font-variant:normal;font-weight:normal;font-stretch:normal;font-family:Courier New;-inkscape-font-specification:Courier New" /></text>
      <text
         clip-path="url(#clipPath4772)"
         transform="matrix(0.42942992,0,0,0.46208654,311.45709,483.65039)"
         sodipodi:linespacing="125%"
         id="text3938"
         y="20"
         x="291"
         style="font-size:14px;font-style:normal;font-variant:normal;font-weight:normal;font-stretch:normal;line-height:125%;letter-spacing:0px;word-spacing:0px;fill:#000000;fill-opacity:1;stroke:none;font-family:Iron Maiden;-inkscape-font-specification:Iron Maiden"
         xml:space="preserve"><tspan
           y="20"
           x="291"
           id="tspan3940"
           sodipodi:role="line" /></text>
      <flowRoot
         transform="matrix(0.42942992,0,0,0.46208654,311.45709,92.09566)"
         clip-path="url(#clipPath4768)"
         style="font-size:14px;font-style:normal;font-variant:normal;font-weight:normal;font-stretch:normal;line-height:125%;letter-spacing:0px;word-spacing:0px;fill:#000000;fill-opacity:1;stroke:none;font-family:Iron Maiden;-inkscape-font-specification:Iron Maiden"
         id="flowRoot3151"
         xml:space="preserve"><flowRegion
           id="flowRegion3153"><rect
             y="87.211502"
             x="37.046383"
             height="16.623377"
             width="0.47495362"
             id="rect3155" /></flowRegion><flowPara
           id="flowPara3157" /></flowRoot>      <flowRoot
         clip-path="url(#clipPath4764)"
         transform="matrix(0.42942992,0,0,0.46208654,311.45709,483.65039)"
         style="font-size:14px;font-style:normal;font-variant:normal;font-weight:normal;font-stretch:normal;line-height:125%;letter-spacing:0px;word-spacing:0px;fill:#000000;fill-opacity:1;stroke:none;font-family:Iron Maiden;-inkscape-font-specification:Iron Maiden"
         id="flowRoot3159"
         xml:space="preserve"><flowRegion
           id="flowRegion3161"><rect
             y="85.786644"
             x="37.521336"
             height="18.523191"
             width="15.67347"
             id="rect3163" /></flowRegion><flowPara
           id="flowPara3165">Trail</flowPara></flowRoot>      <flowRoot
         transform="matrix(0.42942992,0,0,0.46208654,311.45709,92.09566)"
         clip-path="url(#clipPath4760)"
         style="font-size:14px;font-style:normal;font-variant:normal;font-weight:normal;font-stretch:normal;line-height:125%;letter-spacing:0px;word-spacing:0px;fill:#000000;fill-opacity:1;stroke:none;font-family:Iron Maiden;-inkscape-font-specification:Iron Maiden"
         id="flowRoot3171"
         xml:space="preserve"><flowRegion
           id="flowRegion3173"><rect
             y="98.135437"
             x="130.1373"
             height="16.148422"
             width="24.222635"
             id="rect3175" /></flowRegion><flowPara
           id="flowPara3177" /></flowRoot>      <path
         inkscape:export-ydpi="175.60976"
         inkscape:export-xdpi="175.60976"
         inkscape:export-filename="C:\Users\Kay\tiroltrailhead\images\logo_trails_5_1.png"
         clip-path="url(#clipPath4756)"
         transform="matrix(0.42942992,0,0,0.46208654,308.58387,485.00124)"
         inkscape:connector-curvature="0"
         id="path5022"
         d="m 29.924901,127.73935 42.438952,-23.93993 0,7.07316 26.660366,-14.690403 -0.544089,6.529073 34.8217,-17.410856 42.98304,37.542146 -4.35271,11.96996 -5.98498,11.42588 -8.16134,10.33769 -10.88178,8.70542 -11.96996,7.07316 -11.96996,4.35272 -14.69041,2.72044 -15.234491,-1.08818 -13.058139,-2.72044 -14.690406,-5.44089 -11.425871,-8.16134 -8.705426,-9.24952 -7.617248,-9.7936 -5.440891,-9.24951 z"
         style="color:#000000;fill:#008080;fill-opacity:1;stroke:none;stroke-width:5;marker:none;visibility:visible;display:inline;overflow:visible;enable-background:accumulate" />
      <path
         transform="translate(310.95252,493.25596)"
         inkscape:connector-curvature="0"
         id="path4789"
         d="m 17.531823,46.596601 12.012545,-7.142594 0,3.246634 10.226897,-6.006273 0,3.246634 14.772184,-8.278917 5.194615,4.70762 -0.811659,-6.6556 -4.058292,-6.168604 -7.142595,-5.356946 -9.415238,-2.272644 -9.090575,1.785649 -5.681609,4.382955 -6.168605,7.304927 -0.649326,5.681609 -0.649327,6.980263 z"
         style="color:#000000;fill:#ff6600;fill-opacity:1;stroke:none;stroke-width:5;marker:none;visibility:visible;display:inline;overflow:visible;enable-background:accumulate" />
      <path
         transform="translate(0,2.516906e-4)"
         clip-path="url(#clipPath4752)"
         sodipodi:nodetypes="ccccccc"
         inkscape:connector-curvature="0"
         id="path3775"
         d="m 324.28055,542.00899 16.21141,-9.56506 0.0484,3.57128 10.3477,-6.46567 -0.0257,3.10006 14.61692,-7.98037 10.90206,10.01705"
         style="color:#000000;fill:none;stroke:#ffffff;stroke-width:2.9000001;stroke-linecap:square;stroke-linejoin:miter;stroke-miterlimit:4;stroke-opacity:1;stroke-dasharray:none;stroke-dashoffset:0;marker:none;visibility:visible;display:inline;overflow:visible;enable-background:accumulate" />
      <path
         transform="matrix(0.42942992,0,0,0.46208654,308.98382,93.44651)"
         clip-path="url(#clipPath4748)"
         sodipodi:nodetypes="cc"
         inkscape:connector-curvature="0"
         id="path3777"
         d="m 60.530927,947.79823 0,63.84177"
         style="color:#000000;fill:none;stroke:#ffffff;stroke-width:6.51013803;stroke-linecap:square;stroke-linejoin:miter;stroke-miterlimit:4;stroke-opacity:1;stroke-dasharray:none;stroke-dashoffset:0;marker:none;visibility:visible;display:inline;overflow:visible;enable-background:accumulate" />
      <path
         transform="matrix(0.42942992,0,0,0.46208654,306.72521,93.44651)"
         clip-path="url(#clipPath4744)"
         sodipodi:nodetypes="cc"
         inkscape:connector-curvature="0"
         id="path3777-1"
         d="m 90.192294,938.8484 0.169274,55.89148"
         style="color:#000000;fill:none;stroke:#ffffff;stroke-width:6.51013803;stroke-linecap:square;stroke-linejoin:miter;stroke-miterlimit:4;stroke-opacity:1;stroke-dasharray:none;stroke-dashoffset:0;marker:none;visibility:visible;display:inline;overflow:visible;enable-background:accumulate" />
      <path
         transform="matrix(0.42942992,0,0,0.46208654,308.10545,92.652353)"
         clip-path="url(#clipPath4740)"
         sodipodi:nodetypes="cc"
         inkscape:connector-curvature="0"
         id="path3777-4"
         d="m 111.62312,936.39338 0,25.2271"
         style="color:#000000;fill:none;stroke:#ffffff;stroke-width:6.51013803;stroke-linecap:square;stroke-linejoin:miter;stroke-miterlimit:4;stroke-opacity:1;stroke-dasharray:none;stroke-dashoffset:0;marker:none;visibility:visible;display:inline;overflow:visible;enable-background:accumulate" />
      <a
         clip-path="url(#clipPath4736)"
         transform="matrix(0.92932792,0,0,1,281.17408,-451.81094)"
         id="a3852" />
      <path
         transform="matrix(0.42942992,0,0,0.46208654,309.58454,93.946791)"
         clip-path="url(#clipPath4732)"
         sodipodi:nodetypes="cc"
         inkscape:connector-curvature="0"
         id="path3777-4-7"
         d="m 119.87445,929.64691 0,19.37036"
         style="color:#000000;fill:none;stroke:#ffffff;stroke-width:6.51013803;stroke-linecap:square;stroke-linejoin:miter;stroke-miterlimit:4;stroke-opacity:1;stroke-dasharray:none;stroke-dashoffset:0;marker:none;visibility:visible;display:inline;overflow:visible;enable-background:accumulate" />
      <flowRoot
         clip-path="url(#clipPath4728)"
         transform="matrix(0.92932792,0,0,1,285.90594,-453.16179)"
         style="font-size:14px;font-style:normal;font-variant:normal;font-weight:normal;font-stretch:normal;line-height:125%;letter-spacing:0px;word-spacing:0px;fill:#000000;fill-opacity:1;stroke:none;font-family:Courier New;-inkscape-font-specification:Courier New"
         id="flowRoot3885"
         xml:space="preserve"><flowRegion
           id="flowRegion3887"><rect
             style="font-style:normal;font-variant:normal;font-weight:normal;font-stretch:normal;font-family:Courier New;-inkscape-font-specification:Courier New"
             y="183.58432"
             x="138.49416"
             height="25.125046"
             width="41.670807"
             id="rect3889" /></flowRegion><flowPara
           id="flowPara3891" /></flowRoot>      <text
         clip-path="url(#clipPath4724)"
         transform="scale(0.96401656,1.0373266)"
         sodipodi:linespacing="125%"
         id="text3957"
         y="444.87421"
         x="553.86841"
         style="font-size:13.49623203px;font-style:normal;font-variant:normal;font-weight:normal;font-stretch:normal;line-height:125%;letter-spacing:0px;word-spacing:0px;fill:#000000;fill-opacity:1;stroke:none;font-family:BN Jinx;-inkscape-font-specification:BN Jinx"
         xml:space="preserve"><tspan
           y="444.87421"
           x="553.86841"
           id="tspan3959"
           sodipodi:role="line" /></text>
      <text
         clip-path="url(#clipPath4720)"
         transform="scale(0.96401656,1.0373266)"
         sodipodi:linespacing="125%"
         id="text4009"
         y="439.26202"
         x="629.78052"
         style="font-size:13.49623203px;font-style:normal;font-variant:normal;font-weight:normal;font-stretch:normal;line-height:125%;letter-spacing:0px;word-spacing:0px;fill:#000000;fill-opacity:1;stroke:none;font-family:BN Jinx;-inkscape-font-specification:BN Jinx"
         xml:space="preserve"><tspan
           y="439.26202"
           x="629.78052"
           id="tspan4011"
           sodipodi:role="line" /></text>
      <path
         sodipodi:type="arc"
         style="fill:none;stroke:#ffffff;stroke-width:1.84452653;stroke-linecap:square;stroke-linejoin:round;stroke-miterlimit:4;stroke-opacity:1;stroke-dasharray:none"
         id="path4812-1-7"
         sodipodi:cx="25.419195"
         sodipodi:cy="21.930208"
         sodipodi:rx="15.044013"
         sodipodi:ry="13.487736"
         d="m 40.463208,21.930208 c 0,7.449071 -6.735434,13.487736 -15.044013,13.487736 -8.308579,0 -15.044013,-6.038665 -15.044013,-13.487736 0,-7.449071 6.735434,-13.4877355 15.044013,-13.4877355 8.308579,0 15.044013,6.0386645 15.044013,13.4877355 z"
         transform="matrix(1.4845713,0,0,1.655868,311.36387,495.09778)" />
    </g>
  </g>
</svg>
