<?xml version="1.0" encoding="UTF-8" standalone="no"?>
<!-- Created with Inkscape (http://www.inkscape.org/) -->

<svg
   xmlns:dc="http://purl.org/dc/elements/1.1/"
   xmlns:cc="http://creativecommons.org/ns#"
   xmlns:rdf="http://www.w3.org/1999/02/22-rdf-syntax-ns#"
   xmlns:svg="http://www.w3.org/2000/svg"
   xmlns="http://www.w3.org/2000/svg"
   xmlns:xlink="http://www.w3.org/1999/xlink"
   xmlns:sodipodi="http://sodipodi.sourceforge.net/DTD/sodipodi-0.dtd"
   xmlns:inkscape="http://www.inkscape.org/namespaces/inkscape"
   width="215"
   height="215"
   id="svg2"
   version="1.1"
   inkscape:version="0.48.4 r9939"
   sodipodi:docname="logo_trails_5_3.svg"
   inkscape:export-filename="C:\Users\Kay\tiroltrailhead\images\logo_trails_5_1.png"
   inkscape:export-xdpi="175.60976"
   inkscape:export-ydpi="175.60976">
  <defs
     id="defs4">
    <clipPath
       clipPathUnits="userSpaceOnUse"
       id="clipPath4862">
      <path
         style="color:#000000;fill:none;stroke:#ffffff;stroke-width:141.49291992;stroke-linecap:butt;stroke-linejoin:miter;stroke-miterlimit:4;stroke-opacity:1;stroke-dasharray:none;stroke-dashoffset:0;marker:none;visibility:visible;display:inline;overflow:visible;enable-background:accumulate"
         d="M 3779.9869,-1427.4301 -2551.195,2446.5074 704.02727,4718.1229 2614.7559,3480.836 l 4.9998,352.3013 1152.8307,-719.2284 -2.6465,336.3976 L 5347.0406,2549.0963 7218.3253,4422.0901 9580.032,669.52414 3775.5054,-1442.43"
         id="path4864"
         inkscape:connector-curvature="0"
         sodipodi:nodetypes="ccccccccccc" />
    </clipPath>
    <clipPath
       clipPathUnits="userSpaceOnUse"
       id="clipPath7894">
      <g
         id="g7896"
         transform="matrix(4.4362803,0,0,5.0142727,-1030.3632,-27112.154)">
        <path
           style="fill:none;stroke:#ffffff;stroke-width:30;stroke-linecap:square;stroke-miterlimit:4;stroke-opacity:1"
           d="m 1177.0694,5342.1817 c -422.46356,0 -764.66375,342.4851 -764.66375,764.9486 0,88.7962 15.18086,174.1728 43.00344,253.464 l 420.92106,-241.218 1.13917,70.3434 259.72928,-143.5347 -0.5696,67.2107 355.704,-179.7031 421.7754,373.361 2.5631,-3.7023 c 16.5907,-62.6544 25.3464,-128.349 25.3464,-196.221 l 0,-10.8221 c -5.9448,-418.181 -346.7252,-754.1265 -764.9485,-754.1265 z"
           id="path7898"
           inkscape:connector-curvature="0" />
      </g>
    </clipPath>
  </defs>
  <sodipodi:namedview
     id="base"
     pagecolor="#ffffff"
     bordercolor="#666666"
     borderopacity="1.0"
     inkscape:pageopacity="0"
     inkscape:pageshadow="2"
     inkscape:zoom="1.8379342"
     inkscape:cx="65.861884"
     inkscape:cy="89.784436"
     inkscape:document-units="px"
     inkscape:current-layer="layer1"
     showgrid="false"
     fit-margin-top="5"
     fit-margin-left="5"
     fit-margin-right="5"
     fit-margin-bottom="5"
     inkscape:window-width="1366"
     inkscape:window-height="705"
     inkscape:window-x="-4"
     inkscape:window-y="-4"
     inkscape:window-maximized="1"
     showguides="false"
     inkscape:guide-bbox="true">
    <sodipodi:guide
       orientation="1,0"
       position="-92.840448,222.52874"
       id="guide3907" />
    <sodipodi:guide
       orientation="1,0"
       position="-92.840448,222.52874"
       id="guide3909" />
    <sodipodi:guide
       orientation="1,0"
       position="268.59926,10.699428"
       id="guide3947" />
    <sodipodi:guide
       orientation="1,0"
       position="327.01855,102.84043"
       id="guide3054" />
    <sodipodi:guide
       orientation="1,0"
       position="-80.016701,218.72911"
       id="guide3117" />
    <sodipodi:guide
       orientation="0,1"
       position="-3.5491676,71.493491"
       id="guide3969" />
    <sodipodi:guide
       orientation="0,1"
       position="41.571426,59.144697"
       id="guide3971" />
    <sodipodi:guide
       orientation="0,1"
       position="178.36573,43.359644"
       id="guide3973" />
    <sodipodi:guide
       orientation="0,1"
       position="206.38033,212.07976"
       id="guide3975" />
  </sodipodi:namedview>
  <metadata
     id="metadata7">
    <rdf:RDF>
      <cc:Work
         rdf:about="">
        <dc:format>image/svg+xml</dc:format>
        <dc:type
           rdf:resource="http://purl.org/dc/dcmitype/StillImage" />
        <dc:title></dc:title>
      </cc:Work>
    </rdf:RDF>
  </metadata>
  <g
     inkscape:label="Ebene 1"
     inkscape:groupmode="layer"
     id="layer1"
     transform="translate(4.9999975,-842.36229)"
     style="display:inline">
    <path
       sodipodi:type="arc"
       style="fill:#21b19c;fill-opacity:1;fill-rule:nonzero;stroke:none"
       id="path3461"
       sodipodi:cx="-30.894884"
       sodipodi:cy="-20.151756"
       sodipodi:rx="25.393055"
       sodipodi:ry="25.393055"
       d="m -5.5018291,-20.151756 c 0,14.0241967 -11.3688579,25.3930547 -25.3930549,25.3930547 -14.024197,0 -25.393055,-11.368858 -25.393055,-25.3930547 0,-14.024197 11.368858,-25.393055 25.393055,-25.393055 13.88344,0 25.1931442,11.15007 25.3904894,25.032107"
       transform="matrix(4.0365368,0,0,4.0365368,227.20834,1031.2056)"
       sodipodi:start="0"
       sodipodi:end="6.2689704"
       sodipodi:open="true"
       inkscape:export-filename="C:\Users\Kay\tiroltrailhead\images\logo_trails_5_2.png"
       inkscape:export-xdpi="250"
       inkscape:export-ydpi="250" />
    <path
       style="fill:#666666;fill-opacity:1;stroke:none"
       d="m 101.22334,852.3623 c -1.528548,0 -2.118674,0.41086 -2.718659,1.90624 -0.296108,0.73788 -0.796473,2.22421 -1.093715,3.28124 -0.941867,3.34917 -2.150445,4.91896 -4.281111,5.62498 -2.169512,0.71903 -4.925185,-0.0391 -6.406041,-1.78124 -0.356179,-0.41911 -1.180407,-1.78922 -1.84369,-3.03124 -1.4403,-2.69697 -2.291905,-3.62234 -3.312393,-3.59374 -1.166388,0.033 -2.168693,0.46684 -2.46867,1.0625 -0.375429,0.74555 -0.504823,1.50991 -0.843722,4.84373 -0.330187,3.24829 -0.828669,4.55197 -2.124931,5.68748 -1.254721,1.09903 -2.343068,1.49585 -4.031119,1.40625 -2.00567,-0.107 -3.159554,-0.7327 -4.749846,-2.53124 -3.82013,-4.3204 -4.096769,-4.51963 -5.624817,-3.93749 -1.754097,0.66845 -1.816963,0.80798 -1.624947,3.90624 0.309033,4.98639 0.262121,6.48641 -0.281241,7.53122 -0.656142,1.26137 -1.372106,1.98213 -2.593666,2.62499 -0.864817,0.45459 -1.303618,0.53086 -2.687412,0.53125 -1.966578,5.2e-4 -2.666269,-0.30074 -5.031087,-2.21874 -2.105216,-1.70753 -3.317563,-2.37499 -4.249862,-2.37499 -0.628225,0 -0.936393,0.15694 -1.687445,0.90624 -1.080872,1.07836 -1.071773,1.09808 0.156245,4.84374 0.922633,2.81409 1.149824,4.62874 0.812474,6.24998 -0.59912,2.87922 -3.630249,4.79125 -6.656034,4.21874 -0.594155,-0.11248 -2.095063,-0.69914 -3.343641,-1.3125 -3.743196,-1.8391 -4.638991,-1.87852 -5.812311,-0.34375 -0.974655,1.27491 -0.824596,1.70938 1.874939,6.09373 0.963549,1.56481 1.193911,2.4848 1.21871,4.53124 0.01706,1.41153 -0.05523,1.78425 -0.531232,2.68749 -0.632374,1.20017 -1.513049,2.03151 -2.78116,2.59374 -1.542616,0.6842 -2.586473,0.67484 -5.437323,-0.0312 -2.872615,-0.71161 -4.723056,-0.84251 -5.24983,-0.40625 -0.476198,0.3943 -1.124963,1.72881 -1.124963,2.31249 0,0.66055 0.970619,1.93344 2.968653,3.93749 1.833743,1.83951 2.313114,2.71083 2.593666,4.68749 0.312303,2.20022 -0.137247,3.78025 -1.437453,5.18748 -1.443528,1.56246 -2.341611,1.80734 -6.687283,1.84374 -2.505149,0.0205 -3.861003,0.11248 -4.1561153,0.28125 -0.5064851,0.28962 -1.0937144,1.64498 -1.0937144,2.49999 0,0.85683 0.5939557,1.48987 2.7186617,2.87499 3.162007,2.0617 3.520459,2.37191 4.156115,3.53124 0.529754,0.96628 0.646449,1.37989 0.718727,3.12499 0.07671,1.85159 0.01346,2.07801 -0.499984,3.12499 -0.950929,1.93923 -2.592515,2.9057 -5.781062,3.37499 -2.0748953,0.30538 -4.0545343,0.95439 -4.5623521,1.5 -0.6127563,0.65845 -0.8447121,2.26981 -0.4062368,2.93749 0.3969096,0.60437 2.1348764,1.53087 4.1561149,2.18749 4.028257,1.30831 5.300028,2.86218 5.343577,6.65623 0.02089,1.82205 -0.347997,2.82344 -1.406204,3.96874 -0.915009,0.99046 -1.602814,1.41249 -3.749879,2.21874 -1.5646077,0.5876 -3.0455611,1.39449 -3.7498782,2.03124 -0.3759697,0.3398 -0.4687347,0.62856 -0.4687347,1.5625 0,0.70395 0.1189043,1.31789 0.3124898,1.59374 0.4177412,0.59502 1.935492,1.00814 4.9060911,1.375 4.48963,0.55457 6.100902,2.10081 6.46854,6.09373 0.246258,2.67424 -0.636322,4.25203 -3.468638,6.18748 -1.039662,0.71043 -2.331578,1.72741 -2.874906,2.24999 -0.8317244,0.79977 -0.9999681,1.07525 -0.9999681,1.71875 0,0.95612 0.4711591,2.07997 0.9687191,2.34374 0.554073,0.29405 2.096097,0.34176 5.031086,0.15625 2.159058,-0.13649 2.807144,-0.095 3.781127,0.1875 1.630405,0.47294 3.040677,1.84909 3.499887,3.40624 0.543837,1.84415 0.61461,3.09246 0.249992,4.34373 -0.382372,1.31235 -0.693384,1.77971 -2.874907,4.21874 -2.089272,2.33583 -2.527083,3.16048 -2.218678,4.18749 0.12551,0.41793 0.409495,1.03082 0.656229,1.34382 0.436037,0.5537 0.513397,0.544 2.031184,0.4374 0.996449,-0.07 2.22217,-0.3296 3.406139,-0.7499 3.213679,-1.14061 5.685991,-0.85923 7.499756,0.8749 1.295409,1.2387 1.56245,2.0412 1.56245,4.4687 0,2.0574 -0.03117,2.238 -0.687478,3.5 -2.934731,5.6436 -3.018155,6.0041 -1.781192,7.3125 0.66754,0.704 0.80053,0.7533 1.656196,0.6563 0.892809,-0.1006 2.444094,-0.7965 5.281078,-2.3438 2.531104,-1.3801 5.237247,-1.1371 7.156018,0.625 1.347343,1.2374 1.755963,2.2884 1.781192,4.6563 0.01826,1.7159 -0.08555,2.1904 -0.687478,3.9062 -0.398957,1.137 -0.715037,2.5661 -0.781224,3.4063 l -0.124996,1.4375 0.843722,0.75 c 1.159703,1.047 1.875605,1.0501 3.468637,-0.062 0.670813,-0.4686 1.806778,-1.4006 2.531168,-2.0625 1.8623,-1.7021 3.168789,-2.3125 5.031087,-2.3125 1.805609,0 3.123177,0.6113 4.406106,2 1.299037,1.4061 1.601191,2.6667 1.374956,5.7811 -0.283694,3.9055 -0.245597,5.278 0.187494,5.9375 0.498695,0.7594 2.0068,1.4366 2.656163,1.1875 0.719016,-0.2756 1.878028,-1.4627 3.499886,-3.625 0.797937,-1.0639 1.70638,-2.144 2.031184,-2.375 2.500665,-1.7763 5.617213,-1.6252 7.812247,0.3438 1.418515,1.2723 1.852784,2.4038 2.218677,5.8125 0.32213,3.0008 0.716821,4.5288 1.281209,5.0312 0.58093,0.5164 1.962549,0.804 2.562416,0.5313 0.73987,-0.3361 1.653577,-1.7022 2.843658,-4.25 1.691795,-3.6223 3.292629,-4.861 6.281046,-4.875 1.39206,-0.01 1.795938,0.1007 2.687413,0.5625 1.849009,0.9574 2.653657,2.0693 3.624884,5.1562 0.93354,2.9675 1.632,4.5213 2.18743,4.8438 0.19976,0.1155 0.82619,0.2187 1.4062,0.2187 1.86185,0.011 2.48317,-0.8927 3.37489,-5 0.52343,-2.4109 0.9044,-3.2568 2.09368,-4.4062 1.2945,-1.251 2.4305,-1.6875 4.31236,-1.6875 2.85843,-0.01 4.27598,1.0669 6.1873,4.7187 0.62983,1.2033 1.54734,2.5833 2.09368,3.1563 l 0.96872,1.0312 1.06247,-0.125 c 1.93007,-0.228 2.18727,-0.8212 2.43742,-5.5625 0.1451,-2.7494 0.25545,-3.2522 0.71873,-4.1562 1.14032,-2.2243 3.13777,-3.4688 5.59356,-3.4688 2.01123,10e-4 3.16922,0.6104 4.99984,2.6875 1.93706,2.1978 3.50342,3.6861 4.18736,3.9688 0.71026,0.2937 2.08891,-0.028 2.68742,-0.625 0.54901,-0.5476 0.53303,-2.7571 -0.0312,-5.5625 -0.67171,-3.3386 -0.36762,-4.9244 1.3437,-6.7499 1.32569,-1.4137 2.52793,-1.9375 4.34361,-1.9375 1.85582,0 2.74733,0.3933 5.37483,2.375 2.23787,1.6878 3.51937,2.4375 4.24986,2.4375 0.63368,-9e-4 1.71157,-0.6979 2.15618,-1.375 0.34283,-0.5228 0.33714,-0.6237 0,-1.9063 -0.19529,-0.7427 -0.74641,-2.2683 -1.21871,-3.4062 -0.75669,-1.8234 -0.83672,-2.2685 -0.84372,-3.7188 -0.0117,-1.9821 0.44576,-3.1426 1.71869,-4.375 1.27397,-1.2335 2.49178,-1.75 4.21861,-1.75 1.33499,0 1.64563,0.1004 4.12487,1.25 3.46859,1.6085 4.52782,1.8755 5.43732,1.4063 0.7201,-0.3716 1.46671,-1.433 1.46871,-2.0625 10e-4,-0.5734 -1.10873,-2.6754 -2.37493,-4.4688 -1.50824,-2.1362 -1.79034,-2.846 -1.81244,-4.6875 -0.0156,-1.293 0.082,-1.7393 0.56248,-2.7186 0.97218,-1.98179 2.79297,-3.23716 4.96859,-3.40632 0.93024,-0.0724 1.76954,0.0272 3.31239,0.4375 1.13401,0.30156 2.76938,0.6241 3.62489,0.6875 1.43227,0.10706 1.58306,0.0755 2.09368,-0.375 0.30503,-0.2691 0.70881,-0.84294 0.87497,-1.25 0.27789,-0.68066 0.26085,-0.78444 -0.125,-1.56249 -0.23072,-0.46533 -1.43346,-1.87305 -2.65616,-3.09374 -2.76909,-2.76456 -3.1727,-3.50262 -3.1874,-5.71873 -0.009,-1.39775 0.0739,-1.81982 0.56249,-2.81249 0.62388,-1.2675 1.51036,-2.14858 2.8749,-2.87499 0.80949,-0.43084 1.1405,-0.45565 4.68735,-0.46875 4.4202,-0.0166 4.88426,-0.15221 5.43732,-1.53125 0.18413,-0.45913 0.34374,-1.06017 0.34374,-1.31249 -0.002,-0.85137 -1.36611,-2.04849 -4.09361,-3.62499 -2.07126,-1.19716 -2.79956,-1.88306 -3.53114,-3.34374 -0.52544,-1.04856 -0.62698,-1.49922 -0.62498,-2.71874 0.005,-1.61097 0.41276,-2.70924 1.43745,-3.99999 0.96946,-1.22124 2.33951,-1.83041 5.34358,-2.37499 3.3556,-0.60826 4.46755,-1.08972 4.87484,-2.0625 0.88716,-2.11834 -0.005,-3.07693 -4.21861,-4.53123 -2.55266,-0.88088 -3.24717,-1.26132 -4.31236,-2.46874 -1.04046,-1.17924 -1.55098,-2.84434 -1.40621,-4.43749 0.21769,-2.39498 1.52482,-4.16222 3.87488,-5.21873 5.57124,-2.50444 6.06091,-2.87409 5.90606,-4.49999 -0.0516,-0.54173 -0.26234,-1.1475 -0.46874,-1.37499 -0.50008,-0.55135 -2.00514,-0.98221 -4.71859,-1.34375 -3.56126,-0.4745 -5.19894,-1.40185 -6.3123,-3.62499 -1.11974,-2.23559 -0.77893,-4.92095 0.87497,-6.87498 0.29667,-0.35047 1.27299,-1.14695 2.15618,-1.74999 3.53781,-2.4154 4.31729,-3.29661 3.96862,-4.53123 -0.55226,-1.95556 -0.84498,-2.074 -5.78106,-2 -3.60094,0.0541 -3.82992,0.0342 -4.6561,-0.40625 -1.3139,-0.70056 -2.2943,-1.64952 -2.90615,-2.81249 -0.4712,-0.89595 -0.56248,-1.28506 -0.56248,-2.78124 -5.4e-4,-2.23572 0.39186,-2.9857 2.68741,-5.34373 1.77726,-1.82547 2.96865,-3.50963 2.96865,-4.15624 0,-0.61672 -0.76715,-1.998 -1.34371,-2.37499 -0.4698,-0.3075 -0.71371,-0.3031 -1.93743,-0.0937 -0.76635,0.13116 -2.17406,0.47094 -3.1249,0.78125 -3.23452,1.05536 -5.51937,0.72216 -7.46851,-1.125 -1.29676,-1.22889 -1.84169,-2.53026 -1.84369,-4.34374 -0.001,-1.73082 0.20987,-2.31759 2.06244,-5.31248 1.26718,-2.04867 1.79084,-3.34047 1.62494,-3.99999 -0.0673,-0.26726 -0.4573,-0.85226 -0.87497,-1.28124 -0.71172,-0.7309 -0.82387,-0.7759 -1.74994,-0.6875 -0.68747,0.0659 -1.87692,0.539 -3.90613,1.5625 -2.81078,1.41843 -2.9535,1.46874 -4.37485,1.46874 -1.91929,-0.003 -3.21444,-0.57004 -4.53111,-2.03124 -1.05976,-1.17596 -1.59369,-2.53449 -1.59369,-4.06249 0,-0.51846 0.38054,-2.06162 0.90622,-3.62499 0.50192,-1.49264 0.98766,-3.13921 1.06246,-3.65624 0.12002,-0.82834 0.054,-1.01095 -0.43748,-1.59374 -0.6207,-0.73607 -1.50235,-1.28125 -2.12493,-1.28125 -0.49002,0 -2.70688,1.49379 -4.56236,3.06249 -2.25902,1.90972 -4.20773,2.45911 -6.43729,1.8125 -1.34925,-0.39133 -3.02821,-1.79402 -3.71863,-3.09374 -0.50022,-0.9416 -0.55952,-2.79274 -0.24999,-7.28123 0.13834,-2.00575 0.11777,-2.379 -0.18749,-2.84374 -0.40725,-0.62009 -1.48966,-1.09375 -2.40617,-1.09375 -0.7854,0 -2.33291,1.4017 -4.15612,3.74999 -0.67869,0.87411 -1.65427,1.85587 -2.15618,2.18749 -2.54135,1.67949 -5.81892,1.20525 -7.87474,-1.12499 -1.09805,-1.24449 -1.41399,-2.32101 -1.6562,-5.43748 -0.26616,-3.42458 -0.54592,-4.31766 -1.4687,-4.78124 -0.71994,-0.36167 -1.93466,-0.49037 -2.56242,-0.25 -0.46529,0.1781 -2.27621,2.92198 -2.9999,4.53124 -0.72557,1.61342 -2.16744,3.19551 -3.46864,3.81249 -0.71204,0.33812 -1.34333,0.4366 -2.40617,0.43749 -1.82569,0.003 -3.1408,-0.61685 -4.49985,-2.12499 -0.77629,-0.86151 -1.06936,-1.40307 -1.49995,-2.84374 -1.48112,-4.95529 -1.98086,-5.78123 -3.59364,-5.78123 z m 11.40588,50.37484 55.4982,46.24985 8.71846,20.12493 -4.37485,11.43747 -8.15599,14.12495 -9.2497,11.43746 -19.03063,13.0625 -17.40568,5.9688 -14.71828,1.6562 -11.405874,-1.0937 -17.405685,-4.3438 -13.624557,-6.5312 -13.030826,-10.3438 -11.968361,-16.31244 -6.531038,-14.7187 c 0,0 17.385578,-31.55513 19.561864,-33.18739 l 25.592918,-17.93745 37.530029,-19.59368 z"
       id="path4998"
       inkscape:connector-curvature="0" />
    <path
       style="fill:#333333;fill-opacity:1;stroke:none"
       d="m 93.875,873.86231 11.15625,0 11.53125,0.75 11.15625,3.09375 11.15625,4.59375 10.40625,6.9375 8.84375,8.09375 10.78125,13.4375 6.15625,13.875 3.4375,17.3125 0.40625,14.59375 -2.3125,13.46875 -42.3125,-37.6875 -35.78125,18.0625 0,-6.53125 -25.40625,14.25 -0.75,-6.5625 L 30,975.01856 l -0.9375,-3.0625 -0.96875,-3.46875 -1.9375,-12.3125 0.375,-15 1.9375,-11.15625 3.84375,-10.375 5.78125,-10.78125 6.90625,-9.625 8.09375,-7.6875 10,-7.3125 15,-6.9375 15.78125,-3.4375 z"
       id="path3051"
       inkscape:connector-curvature="0" />
    <path
       style="color:#000000;fill:#000000;fill-opacity:1;stroke:none;stroke-width:5;marker:none;visibility:visible;display:inline;overflow:visible;enable-background:accumulate"
       d="m 29.924901,127.73935 42.438952,-23.93993 0,7.07316 26.660366,-14.690403 -0.544089,6.529073 34.8217,-17.410856 42.98304,37.542146 -4.35271,11.96996 -5.98498,11.42588 -8.16134,10.33769 -10.88178,8.70542 -11.96996,7.07316 -11.96996,4.35272 -14.69041,2.72044 -15.234491,-1.08818 -13.058139,-2.72044 -14.690406,-5.44089 -11.425871,-8.16134 -8.705426,-9.24952 -7.617248,-9.7936 -5.440891,-9.24951 z"
       id="path5022"
       inkscape:connector-curvature="0"
       transform="translate(0,847.36231)" />
    <path
       transform="matrix(0.55264064,0,0,0.55264064,-90.234293,700.5071)"
       sodipodi:type="arc"
       style="fill:none;stroke:#ffffff;stroke-width:5.42848253;stroke-linecap:square;stroke-miterlimit:4;stroke-opacity:1;stroke-dasharray:none"
       id="path2987-1"
       sodipodi:cx="348.75165"
       sodipodi:cy="451.2066"
       sodipodi:rx="138.41505"
       sodipodi:ry="138.41505"
       d="m 487.1667,451.2066 c 0,76.44453 -61.97053,138.41506 -138.41505,138.41506 -76.44453,0 -138.41506,-61.97053 -138.41506,-138.41506 0,-76.44452 61.97053,-138.41505 138.41506,-138.41505 75.67727,0 137.32536,60.77794 138.40107,136.44756"
       sodipodi:start="0"
       sodipodi:end="6.2689704"
       sodipodi:open="true" />
    <path
       style="color:#000000;fill:none;stroke:#ffffff;stroke-width:3;stroke-linecap:butt;stroke-linejoin:miter;stroke-miterlimit:4;stroke-opacity:1;stroke-dasharray:none;stroke-dashoffset:0;marker:none;visibility:visible;display:inline;overflow:visible;enable-background:accumulate"
       d="m 30.218044,974.90964 42.195218,-23.82284 0.112712,7.02597 25.986427,-14.34362 -0.05965,6.7088 35.550059,-17.9729 41.73003,37.03425"
       id="path3775"
       inkscape:connector-curvature="0"
       sodipodi:nodetypes="ccccccc" />
    <path
       style="color:#000000;fill:none;stroke:#ffffff;stroke-width:3;stroke-linecap:butt;stroke-linejoin:miter;stroke-miterlimit:4;stroke-opacity:1;stroke-dasharray:none;stroke-dashoffset:0;marker:none;visibility:visible;display:inline;overflow:visible;enable-background:accumulate"
       d="m 61.5,946.90608 -0.474954,67.09662"
       id="path3777"
       inkscape:connector-curvature="0"
       sodipodi:nodetypes="cc" />
    <flowRoot
       xml:space="preserve"
       id="flowRoot3913"
       style="font-size:14px;font-style:normal;font-variant:normal;font-weight:normal;font-stretch:normal;line-height:125%;letter-spacing:0px;word-spacing:0px;fill:#000000;fill-opacity:1;stroke:none;font-family:Iron Maiden;-inkscape-font-specification:Iron Maiden"><flowRegion
         id="flowRegion3915"><rect
           id="rect3917"
           width="79"
           height="27"
           x="-124.5"
           y="43" /></flowRegion><flowPara
         id="flowPara3919" /></flowRoot>    <flowRoot
       xml:space="preserve"
       id="flowRoot3921"
       style="font-size:14px;font-style:normal;font-variant:normal;font-weight:normal;font-stretch:normal;line-height:125%;letter-spacing:0px;word-spacing:0px;fill:#ffffff;fill-opacity:1;stroke:none;font-family:Courier New;-inkscape-font-specification:Courier New"
       transform="translate(0,847.36231)"><flowRegion
         id="flowRegion3923"><rect
           id="rect3925"
           width="37"
           height="14"
           x="79"
           y="45"
           style="font-style:normal;font-variant:normal;font-weight:normal;font-stretch:normal;fill:#ffffff;font-family:Courier New;-inkscape-font-specification:Courier New" /></flowRegion><flowPara
         id="flowPara3927">gimooyacojfmvd</flowPara></flowRoot>    <text
       xml:space="preserve"
       style="font-size:14px;font-style:normal;font-variant:normal;font-weight:normal;font-stretch:normal;line-height:0%;letter-spacing:0px;word-spacing:0px;fill:#000000;fill-opacity:1;stroke:none;font-family:Iron Maiden;-inkscape-font-specification:Iron Maiden"
       id="text3929"
       sodipodi:linespacing="0%"
       y="0"
       x="162.30219"
       transform="translate(3.4910142e-6,-1.6187781e-5)"><textPath
         xlink:href="#path2987-1"
         id="textPath3933"
         style="font-size:8px;font-style:normal;font-variant:normal;font-weight:bold;font-stretch:normal;text-align:start;line-height:0%;text-anchor:start;fill:#ffffff;font-family:Courier New;-inkscape-font-specification:Courier New Bold"
         dy="0 -4 0 0 0 0 0 0 0 0 0 0 0 0 0 0 0 0 0 0 0 0 0 0 0 0 0 0 0 0 0 0 0 0 0 0 0 0 0 0 0 0 0 0 0 0 0 0 0 0 0 0 0">                                                     www.gimoya.github.io/tiroltrailhead/map.html</textPath></text>
    <text
       xml:space="preserve"
       style="font-size:14px;font-style:normal;font-variant:normal;font-weight:normal;font-stretch:normal;line-height:125%;letter-spacing:0px;word-spacing:0px;fill:#000000;fill-opacity:1;stroke:none;font-family:Iron Maiden;-inkscape-font-specification:Iron Maiden"
       x="291"
       y="20"
       id="text3938"
       sodipodi:linespacing="125%"
       transform="translate(0,847.36231)"><tspan
         sodipodi:role="line"
         id="tspan3940"
         x="291"
         y="20" /></text>
    <path
       style="color:#000000;fill:none;stroke:#ffffff;stroke-width:3;stroke-linecap:butt;stroke-linejoin:miter;stroke-miterlimit:4;stroke-opacity:1;stroke-dasharray:none;stroke-dashoffset:0;marker:none;visibility:visible;display:inline;overflow:visible;enable-background:accumulate"
       d="m 90.441558,938.8484 -0.47495,59.45839"
       id="path3777-1"
       inkscape:connector-curvature="0"
       sodipodi:nodetypes="cc" />
    <path
       style="color:#000000;fill:none;stroke:#ffffff;stroke-width:3;stroke-linecap:butt;stroke-linejoin:miter;stroke-miterlimit:4;stroke-opacity:1;stroke-dasharray:none;stroke-dashoffset:0;marker:none;visibility:visible;display:inline;overflow:visible;enable-background:accumulate"
       d="m 110.42671,926.17295 0.47497,55.74797"
       id="path3777-4"
       inkscape:connector-curvature="0"
       sodipodi:nodetypes="cc" />
    <text
       xml:space="preserve"
       style="font-size:14px;font-style:normal;font-variant:normal;font-weight:normal;font-stretch:normal;line-height:125%;letter-spacing:0px;word-spacing:0px;fill:#000000;fill-opacity:1;stroke:none;font-family:Iron Maiden;-inkscape-font-specification:Iron Maiden"
       x="63.44532"
       y="1013.5663"
       id="text3147"
       sodipodi:linespacing="125%"><tspan
         sodipodi:role="line"
         id="tspan3149"
         x="63.44532"
         y="1013.5663"
         style="font-size:18px;font-weight:bold;letter-spacing:0px;fill:#ffffff;stroke:none;-inkscape-font-specification:Iron Maiden Bold">i<tspan
   style="letter-spacing:-2px"
   id="tspan5114">r</tspan><tspan
   style="letter-spacing:-0.5px"
   id="tspan5120">ol</tspan></tspan></text>
    <flowRoot
       xml:space="preserve"
       id="flowRoot3151"
       style="font-size:14px;font-style:normal;font-variant:normal;font-weight:normal;font-stretch:normal;line-height:125%;letter-spacing:0px;word-spacing:0px;fill:#000000;fill-opacity:1;stroke:none;font-family:Iron Maiden;-inkscape-font-specification:Iron Maiden"><flowRegion
         id="flowRegion3153"><rect
           id="rect3155"
           width="0.47495362"
           height="16.623377"
           x="37.046383"
           y="87.211502" /></flowRegion><flowPara
         id="flowPara3157" /></flowRoot>    <flowRoot
       xml:space="preserve"
       id="flowRoot3159"
       style="font-size:14px;font-style:normal;font-variant:normal;font-weight:normal;font-stretch:normal;line-height:125%;letter-spacing:0px;word-spacing:0px;fill:#000000;fill-opacity:1;stroke:none;font-family:Iron Maiden;-inkscape-font-specification:Iron Maiden"
       transform="translate(0,847.36231)"><flowRegion
         id="flowRegion3161"><rect
           id="rect3163"
           width="15.67347"
           height="18.523191"
           x="37.521336"
           y="85.786644" /></flowRegion><flowPara
         id="flowPara3165">Trail</flowPara></flowRoot>    <text
       xml:space="preserve"
       style="font-size:14px;font-style:normal;font-variant:normal;font-weight:normal;font-stretch:normal;line-height:125%;letter-spacing:0px;word-spacing:0px;fill:#000000;fill-opacity:1;stroke:none;font-family:Iron Maiden;-inkscape-font-specification:Iron Maiden"
       x="92.379051"
       y="997.93262"
       id="text3167"
       sodipodi:linespacing="125%"
       inkscape:transform-center-x="7.2690889"
       inkscape:transform-center-y="-9.4990724"><tspan
         sodipodi:role="line"
         id="tspan3169"
         x="92.379051"
         y="997.93262"
         style="font-size:18px;font-weight:bold;fill:#ffffff;-inkscape-font-specification:Iron Maiden Bold">rail</tspan></text>
    <flowRoot
       xml:space="preserve"
       id="flowRoot3171"
       style="font-size:14px;font-style:normal;font-variant:normal;font-weight:normal;font-stretch:normal;line-height:125%;letter-spacing:0px;word-spacing:0px;fill:#000000;fill-opacity:1;stroke:none;font-family:Iron Maiden;-inkscape-font-specification:Iron Maiden"><flowRegion
         id="flowRegion3173"><rect
           id="rect3175"
           width="24.222635"
           height="16.148422"
           x="130.1373"
           y="98.135437" /></flowRegion><flowPara
         id="flowPara3177" /></flowRoot>    <text
       xml:space="preserve"
       style="font-size:14px;font-style:normal;font-variant:normal;font-weight:normal;font-stretch:normal;line-height:125%;letter-spacing:0px;word-spacing:0px;fill:#000000;fill-opacity:1;stroke:none;font-family:Iron Maiden;-inkscape-font-specification:Iron Maiden"
       x="122.11827"
       y="982.66217"
       id="text3179"
       sodipodi:linespacing="125%"><tspan
         sodipodi:role="line"
         id="tspan3181"
         x="122.11827"
         y="982.66217"
         style="font-size:18px;font-weight:bold;fill:#ffffff;-inkscape-font-specification:Iron Maiden Bold">Ead</tspan></text>
    <path
       style="color:#000000;fill:none;stroke:#ffffff;stroke-width:3;stroke-linecap:butt;stroke-linejoin:miter;stroke-miterlimit:4;stroke-opacity:1;stroke-dasharray:none;stroke-dashoffset:0;marker:none;visibility:visible;display:inline;overflow:visible;enable-background:accumulate"
       d="m 118.97588,928.44751 0.47497,55.74797"
       id="path3777-4-7"
       inkscape:connector-curvature="0"
       sodipodi:nodetypes="cc" />
  </g>
</svg>
