<?xml version="1.0" encoding="UTF-8" standalone="no"?>
<!-- Created with Inkscape (http://www.inkscape.org/) -->

<svg
   xmlns:dc="http://purl.org/dc/elements/1.1/"
   xmlns:cc="http://creativecommons.org/ns#"
   xmlns:rdf="http://www.w3.org/1999/02/22-rdf-syntax-ns#"
   xmlns:svg="http://www.w3.org/2000/svg"
   xmlns="http://www.w3.org/2000/svg"
   xmlns:xlink="http://www.w3.org/1999/xlink"
   xmlns:sodipodi="http://sodipodi.sourceforge.net/DTD/sodipodi-0.dtd"
   xmlns:inkscape="http://www.inkscape.org/namespaces/inkscape"
   width="205"
   height="205"
   id="svg2"
   version="1.1"
   inkscape:version="0.48.4 r9939"
   sodipodi:docname="logo_trails_5_3.svg"
   inkscape:export-filename="C:\Users\Kay\tiroltrailhead\images\logo_trails_5_1.png"
   inkscape:export-xdpi="175.60976"
   inkscape:export-ydpi="175.60976">
  <defs
     id="defs4">
    <clipPath
       clipPathUnits="userSpaceOnUse"
       id="clipPath4862">
      <path
         style="color:#000000;fill:none;stroke:#ffffff;stroke-width:141.49291992;stroke-linecap:butt;stroke-linejoin:miter;stroke-miterlimit:4;stroke-opacity:1;stroke-dasharray:none;stroke-dashoffset:0;marker:none;visibility:visible;display:inline;overflow:visible;enable-background:accumulate"
         d="M 3779.9869,-1427.4301 -2551.195,2446.5074 704.02727,4718.1229 2614.7559,3480.836 l 4.9998,352.3013 1152.8307,-719.2284 -2.6465,336.3976 L 5347.0406,2549.0963 7218.3253,4422.0901 9580.032,669.52414 3775.5054,-1442.43"
         id="path4864"
         inkscape:connector-curvature="0"
         sodipodi:nodetypes="ccccccccccc" />
    </clipPath>
    <clipPath
       clipPathUnits="userSpaceOnUse"
       id="clipPath7894">
      <g
         id="g7896"
         transform="matrix(4.4362803,0,0,5.0142727,-1030.3632,-27112.154)">
        <path
           style="fill:none;stroke:#ffffff;stroke-width:30;stroke-linecap:square;stroke-miterlimit:4;stroke-opacity:1"
           d="m 1177.0694,5342.1817 c -422.46356,0 -764.66375,342.4851 -764.66375,764.9486 0,88.7962 15.18086,174.1728 43.00344,253.464 l 420.92106,-241.218 1.13917,70.3434 259.72928,-143.5347 -0.5696,67.2107 355.704,-179.7031 421.7754,373.361 2.5631,-3.7023 c 16.5907,-62.6544 25.3464,-128.349 25.3464,-196.221 l 0,-10.8221 c -5.9448,-418.181 -346.7252,-754.1265 -764.9485,-754.1265 z"
           id="path7898"
           inkscape:connector-curvature="0" />
      </g>
    </clipPath>
  </defs>
  <sodipodi:namedview
     id="base"
     pagecolor="#ffffff"
     bordercolor="#666666"
     borderopacity="1.0"
     inkscape:pageopacity="0"
     inkscape:pageshadow="2"
     inkscape:zoom="0.64980787"
     inkscape:cx="60.861887"
     inkscape:cy="84.784451"
     inkscape:document-units="px"
     inkscape:current-layer="layer1"
     showgrid="false"
     fit-margin-top="5"
     fit-margin-left="5"
     fit-margin-right="5"
     fit-margin-bottom="5"
     inkscape:window-width="1366"
     inkscape:window-height="705"
     inkscape:window-x="-4"
     inkscape:window-y="-4"
     inkscape:window-maximized="1"
     showguides="false"
     inkscape:guide-bbox="true">
    <sodipodi:guide
       orientation="1,0"
       position="-97.840445,217.52876"
       id="guide3907" />
    <sodipodi:guide
       orientation="1,0"
       position="-97.840445,217.52876"
       id="guide3909" />
    <sodipodi:guide
       orientation="1,0"
       position="263.59926,5.6994434"
       id="guide3947" />
    <sodipodi:guide
       orientation="1,0"
       position="322.01855,97.840445"
       id="guide3054" />
    <sodipodi:guide
       orientation="1,0"
       position="-85.016698,213.72913"
       id="guide3117" />
    <sodipodi:guide
       orientation="0,1"
       position="-8.5491651,66.493506"
       id="guide3969" />
    <sodipodi:guide
       orientation="0,1"
       position="36.571429,54.144712"
       id="guide3971" />
    <sodipodi:guide
       orientation="0,1"
       position="173.36573,38.359659"
       id="guide3973" />
    <sodipodi:guide
       orientation="0,1"
       position="201.38033,207.07978"
       id="guide3975" />
  </sodipodi:namedview>
  <metadata
     id="metadata7">
    <rdf:RDF>
      <cc:Work
         rdf:about="">
        <dc:format>image/svg+xml</dc:format>
        <dc:type
           rdf:resource="http://purl.org/dc/dcmitype/StillImage" />
        <dc:title></dc:title>
      </cc:Work>
    </rdf:RDF>
  </metadata>
  <g
     inkscape:label="Ebene 1"
     inkscape:groupmode="layer"
     id="layer1"
     transform="translate(0,-847.36231)"
     style="display:inline">
    <path
       sodipodi:type="arc"
       style="fill:#21b19c;fill-opacity:1;fill-rule:nonzero;stroke:none"
       id="path3461"
       sodipodi:cx="-30.894884"
       sodipodi:cy="-20.151756"
       sodipodi:rx="25.393055"
       sodipodi:ry="25.393055"
       d="m -5.5018291,-20.151756 a 25.393055,25.393055 0 1 1 -0.00257,-0.360948"
       transform="matrix(3.9577751,0,0,3.9577751,224.775,1029.6184)"
       sodipodi:start="0"
       sodipodi:end="6.2689704"
       sodipodi:open="true"
       inkscape:export-filename="C:\Users\Kay\tiroltrailhead\images\logo_trails_5_2.png"
       inkscape:export-xdpi="250"
       inkscape:export-ydpi="250" />
    <path
       style="fill:#cc00ff;fill-opacity:1;stroke:none"
       d="M 101.21875 5 C 99.69015 5 99.100005 5.41086 98.5 6.90625 C 98.203883 7.64413 97.703501 9.13046 97.40625 10.1875 C 96.464352 13.53668 95.255735 15.10647 93.125 15.8125 C 90.955417 16.53153 88.199655 15.7734 86.71875 14.03125 C 86.36256 13.61214 85.538305 12.24202 84.875 11 C 83.434654 8.30302 82.583021 7.37765 81.5625 7.40625 C 80.396074 7.43925 79.393736 7.87309 79.09375 8.46875 C 78.718308 9.2143 78.58891 9.97867 78.25 13.3125 C 77.919802 16.5608 77.421304 17.86448 76.125 19 C 74.870238 20.09903 73.781856 20.49585 72.09375 20.40625 C 70.088015 20.29925 68.934093 19.67355 67.34375 17.875 C 63.523495 13.55459 63.246847 13.35536 61.71875 13.9375 C 59.964596 14.60595 59.901728 14.74548 60.09375 17.84375 C 60.402793 22.83016 60.35588 24.33018 59.8125 25.375 C 59.156337 26.63637 58.440349 27.35713 57.21875 28 C 56.353904 28.45459 55.915089 28.53086 54.53125 28.53125 C 52.564608 28.53177 51.864895 28.23051 49.5 26.3125 C 47.394715 24.60496 46.182329 23.9375 45.25 23.9375 C 44.621754 23.9375 44.313576 24.09444 43.5625 24.84375 C 42.481593 25.92211 42.490692 25.94183 43.71875 29.6875 C 44.641413 32.5016 44.868611 34.31626 44.53125 35.9375 C 43.932111 38.81673 40.900883 40.72877 37.875 40.15625 C 37.280825 40.04377 35.779869 39.45711 34.53125 38.84375 C 30.787932 37.00464 29.892108 36.96522 28.71875 38.5 C 27.744064 39.77491 27.894127 40.20938 30.59375 44.59375 C 31.55733 46.15856 31.7877 47.07856 31.8125 49.125 C 31.82956 50.53654 31.75727 50.90926 31.28125 51.8125 C 30.648856 53.01268 29.768152 53.84402 28.5 54.40625 C 26.957334 55.09045 25.913443 55.08109 23.0625 54.375 C 20.189792 53.66339 18.339291 53.53249 17.8125 53.96875 C 17.336286 54.36305 16.6875 55.69756 16.6875 56.28125 C 16.6875 56.9418 17.658151 58.21469 19.65625 60.21875 C 21.490052 62.05827 21.969439 62.92959 22.25 64.90625 C 22.562313 67.10648 22.112748 68.68652 20.8125 70.09375 C 19.368925 71.65622 18.470813 71.9011 14.125 71.9375 C 11.619769 71.958 10.263871 72.04998 9.96875 72.21875 C 9.4622484 72.50837 8.875 73.86373 8.875 74.71875 C 8.875 75.57558 9.468975 76.20862 11.59375 77.59375 C 14.755859 79.65545 15.114323 79.96566 15.75 81.125 C 16.279771 82.09128 16.39647 82.50489 16.46875 84.25 C 16.54546 86.10159 16.48221 86.32801 15.96875 87.375 C 15.01779 89.31423 13.376151 90.28071 10.1875 90.75 C 8.1125376 91.05538 6.1328343 91.70439 5.625 92.25 C 5.0122237 92.90845 4.7802604 94.51982 5.21875 95.1875 C 5.6156725 95.79187 7.3536958 96.71838 9.375 97.375 C 13.403387 98.68331 14.6752 100.23719 14.71875 104.03125 C 14.73964 105.85331 14.370742 106.8547 13.3125 108 C 12.397462 108.99047 11.709634 109.4125 9.5625 110.21875 C 7.9978415 110.80635 6.51684 111.61325 5.8125 112.25 C 5.436518 112.5898 5.34375 112.87856 5.34375 113.8125 C 5.34375 114.51645 5.4626582 115.1304 5.65625 115.40625 C 6.0740048 116.00127 7.5918049 116.41439 10.5625 116.78125 C 15.052276 117.33582 16.6636 118.88207 17.03125 122.875 C 17.277516 125.54925 16.394908 127.12705 13.5625 129.0625 C 12.522804 129.77293 11.230846 130.78992 10.6875 131.3125 C 9.8557492 132.11227 9.6875 132.38775 9.6875 133.03125 C 9.6875 133.98738 10.158674 135.11123 10.65625 135.375 C 11.210341 135.66905 12.752415 135.71676 15.6875 135.53125 C 17.846628 135.39476 18.494735 135.43625 19.46875 135.71875 C 21.099208 136.19169 22.509525 137.56785 22.96875 139.125 C 23.512605 140.96916 23.58338 142.21747 23.21875 143.46875 C 22.836366 144.7811 22.525344 145.24846 20.34375 147.6875 C 18.25441 150.02334 17.816585 150.84799 18.125 151.875 C 18.250514 152.29294 18.534508 152.90575 18.78125 153.21875 C 19.217301 153.77255 19.294664 153.76285 20.8125 153.65625 C 21.808982 153.58625 23.034742 153.32655 24.21875 152.90625 C 27.432533 151.76571 29.904926 152.0471 31.71875 153.78125 C 33.014201 155.01995 33.28125 155.8225 33.28125 158.25 C 33.28125 160.3074 33.25008 160.488 32.59375 161.75 C 29.658924 167.3936 29.575497 167.7541 30.8125 169.0625 C 31.480062 169.7665 31.613056 169.81575 32.46875 169.71875 C 33.361588 169.61815 34.912924 168.9223 37.75 167.375 C 40.281186 165.9949 42.987417 166.2379 44.90625 168 C 46.253637 169.2374 46.66227 170.28835 46.6875 172.65625 C 46.70576 174.37215 46.60195 174.8467 46 176.5625 C 45.60103 177.6995 45.28494 179.12855 45.21875 179.96875 L 45.09375 181.40625 L 45.9375 182.15625 C 47.097241 183.20325 47.813166 183.20635 49.40625 182.09375 C 50.077084 181.62515 51.213086 180.69315 51.9375 180.03125 C 53.79986 178.32915 55.106392 177.71875 56.96875 177.71875 C 58.774418 177.71875 60.092029 178.33005 61.375 179.71875 C 62.674079 181.12485 62.976243 182.3855 62.75 185.5 C 62.466297 189.4055 62.504395 190.778 62.9375 191.4375 C 63.436212 192.1969 64.944366 192.8741 65.59375 192.625 C 66.312789 192.3494 67.471839 191.1623 69.09375 189 C 69.891712 187.9361 70.800185 186.856 71.125 186.625 C 73.625746 184.8487 76.742395 184.99975 78.9375 186.96875 C 80.356062 188.24105 80.790345 189.37255 81.15625 192.78125 C 81.47839 195.78205 81.873094 197.3101 82.4375 197.8125 C 83.018449 198.3289 84.400113 198.61645 85 198.34375 C 85.739894 198.00765 86.65363 196.64155 87.84375 194.09375 C 89.5356 190.47145 91.136486 189.23275 94.125 189.21875 C 95.517105 189.20875 95.920996 189.31945 96.8125 189.78125 C 98.66157 190.73865 99.466244 191.8506 100.4375 194.9375 C 101.37107 197.905 102.06956 199.45875 102.625 199.78125 C 102.82477 199.89675 103.45122 200 104.03125 200 C 105.89316 200.011 106.5145 199.1073 107.40625 195 C 107.9297 192.5891 108.31068 191.74315 109.5 190.59375 C 110.79454 189.34275 111.93058 188.90625 113.8125 188.90625 C 116.67102 188.89625 118.08862 189.9732 120 193.625 C 120.62985 194.8283 121.54739 196.20825 122.09375 196.78125 L 123.0625 197.8125 L 124.125 197.6875 C 126.05513 197.4595 126.31234 196.8663 126.5625 192.125 C 126.70761 189.3756 126.81796 188.87275 127.28125 187.96875 C 128.42161 185.74445 130.41913 184.5 132.875 184.5 C 134.88629 184.501 136.04432 185.1104 137.875 187.1875 C 139.81212 189.3853 141.37853 190.87355 142.0625 191.15625 C 142.77278 191.44995 144.15147 191.12825 144.75 190.53125 C 145.29903 189.98365 145.28305 187.77415 144.71875 184.96875 C 144.04702 181.63005 144.35112 180.04425 146.0625 178.21875 C 147.38823 176.80505 148.59051 176.28125 150.40625 176.28125 C 152.26213 176.28125 153.15367 176.67455 155.78125 178.65625 C 158.01919 180.34405 159.30074 181.09375 160.03125 181.09375 C 160.66495 181.09285 161.74287 180.39585 162.1875 179.71875 C 162.53034 179.19595 162.52465 179.0951 162.1875 177.8125 C 161.9922 177.0698 161.44107 175.54415 160.96875 174.40625 C 160.21204 172.58285 160.132 172.1378 160.125 170.6875 C 160.1133 168.7054 160.57078 167.5449 161.84375 166.3125 C 163.11776 165.079 164.33561 164.5625 166.0625 164.5625 C 167.39753 164.5625 167.70818 164.6629 170.1875 165.8125 C 173.6562 167.421 174.71547 167.68795 175.625 167.21875 C 176.34512 166.84715 177.09175 165.78575 177.09375 165.15625 C 177.09475 164.58285 175.98499 162.4809 174.71875 160.6875 C 173.21046 158.5513 172.92835 157.8415 172.90625 156 C 172.89065 154.707 172.98825 154.26065 173.46875 153.28125 C 174.44096 151.29953 176.26181 150.04416 178.4375 149.875 C 179.36777 149.8026 180.2071 149.9022 181.75 150.3125 C 182.88404 150.61406 184.51947 150.9366 185.375 151 C 186.80732 151.10706 186.95811 151.0755 187.46875 150.625 C 187.77379 150.3559 188.17758 149.78206 188.34375 149.375 C 188.62165 148.69433 188.60461 148.59055 188.21875 147.8125 C 187.98802 147.34717 186.78524 145.93945 185.5625 144.71875 C 182.79332 141.95418 182.3897 141.21612 182.375 139 C 182.366 137.60225 182.4489 137.18018 182.9375 136.1875 C 183.5614 134.92 184.44791 134.03892 185.8125 133.3125 C 186.62201 132.88166 186.95303 132.85685 190.5 132.84375 C 194.92034 132.82715 195.38442 132.69154 195.9375 131.3125 C 196.12163 130.85337 196.28125 130.25233 196.28125 130 C 196.27925 129.14863 194.91509 127.95151 192.1875 126.375 C 190.11618 125.17784 189.38785 124.49194 188.65625 123.03125 C 188.13079 121.98269 188.02925 121.53203 188.03125 120.3125 C 188.03625 118.70153 188.44402 117.60325 189.46875 116.3125 C 190.43824 115.09126 191.80833 114.48208 194.8125 113.9375 C 198.16821 113.32924 199.2802 112.84778 199.6875 111.875 C 200.57469 109.75665 199.6825 108.79806 195.46875 107.34375 C 192.91601 106.46287 192.22148 106.08243 191.15625 104.875 C 190.11576 103.69576 189.60522 102.03065 189.75 100.4375 C 189.96769 98.04251 191.27486 96.27527 193.625 95.21875 C 199.19642 92.7143 199.68611 92.34465 199.53125 90.71875 C 199.47965 90.17702 199.2689 89.57124 199.0625 89.34375 C 198.5624 88.7924 197.05729 88.36154 194.34375 88 C 190.78238 87.5255 189.14465 86.59814 188.03125 84.375 C 186.91147 82.1394 187.25229 79.45403 188.90625 77.5 C 189.20293 77.14952 190.17928 76.35304 191.0625 75.75 C 194.60042 73.33459 195.37993 72.45338 195.03125 71.21875 C 194.47897 69.26319 194.18624 69.14475 189.25 69.21875 C 185.64894 69.27285 185.41995 69.25295 184.59375 68.8125 C 183.2798 68.11193 182.29937 67.16297 181.6875 66 C 181.21629 65.10405 181.125 64.71493 181.125 63.21875 C 181.12446 60.98302 181.51688 60.23304 183.8125 57.875 C 185.58982 56.04953 186.78125 54.36536 186.78125 53.71875 C 186.78125 53.10203 186.01407 51.72074 185.4375 51.34375 C 184.96768 51.03625 184.72376 51.04065 183.5 51.25 C 182.73363 51.38116 181.32587 51.72094 180.375 52.03125 C 177.14038 53.08662 174.85545 52.75342 172.90625 50.90625 C 171.60945 49.67736 171.0645 48.37598 171.0625 46.5625 C 171.0615 44.83167 171.27237 44.2449 173.125 41.25 C 174.39223 39.20132 174.9159 37.90952 174.75 37.25 C 174.6827 36.98273 174.29268 36.39773 173.875 35.96875 C 173.16326 35.23785 173.0511 35.19285 172.125 35.28125 C 171.43751 35.34715 170.24802 35.82025 168.21875 36.84375 C 165.40787 38.26219 165.26515 38.3125 163.84375 38.3125 C 161.9244 38.3095 160.62921 37.74246 159.3125 36.28125 C 158.2527 35.10529 157.71875 33.74675 157.71875 32.21875 C 157.71875 31.70029 158.09931 30.15712 158.625 28.59375 C 159.12694 27.1011 159.6127 25.45453 159.6875 24.9375 C 159.80752 24.10915 159.7415 23.92654 159.25 23.34375 C 158.62928 22.60768 157.74761 22.0625 157.125 22.0625 C 156.63497 22.0625 154.41804 23.55629 152.5625 25.125 C 150.3034 27.03472 148.35463 27.58411 146.125 26.9375 C 144.7757 26.54617 143.09669 25.14348 142.40625 23.84375 C 141.90601 22.90215 141.84671 21.051 142.15625 16.5625 C 142.29459 14.55674 142.27402 14.18349 141.96875 13.71875 C 141.56149 13.09866 140.47904 12.625 139.5625 12.625 C 138.77708 12.625 137.22952 14.0267 135.40625 16.375 C 134.72754 17.24911 133.75193 18.23087 133.25 18.5625 C 130.70857 20.24199 127.43089 19.76775 125.375 17.4375 C 124.27692 16.19301 123.96097 15.11648 123.71875 12 C 123.45258 8.57541 123.17281 7.68233 122.25 7.21875 C 121.53004 6.85708 120.31528 6.72838 119.6875 6.96875 C 119.22219 7.14685 117.41121 9.89074 116.6875 11.5 C 115.96191 13.11343 114.51999 14.69552 113.21875 15.3125 C 112.50668 15.65063 111.87537 15.74911 110.8125 15.75 C 108.98675 15.753 107.6716 15.13314 106.3125 13.625 C 105.53619 12.76349 105.24311 12.22192 104.8125 10.78125 C 103.33134 5.82594 102.83158 5 101.21875 5 z M 112.625 55.375 L 168.125 101.625 L 176.84375 121.75 L 172.46875 133.1875 L 164.3125 147.3125 L 155.0625 158.75 L 136.03125 171.8125 L 118.625 177.78125 L 103.90625 179.4375 L 92.5 178.34375 L 75.09375 174 L 61.46875 167.46875 L 48.4375 157.125 L 36.46875 140.8125 L 29.9375 126.09375 C 29.9375 126.09375 47.323643 94.538517 49.5 92.90625 L 75.09375 74.96875 L 112.625 55.375 z "
       transform="translate(0,847.36231)"
       id="path4998" />
    <path
       style="fill:#333333;fill-opacity:1;stroke:none"
       d="m 93.875,873.86231 11.15625,0 11.53125,0.75 11.15625,3.09375 11.15625,4.59375 10.40625,6.9375 8.84375,8.09375 10.78125,13.4375 6.15625,13.875 3.4375,17.3125 0.40625,14.59375 -2.3125,13.46875 -42.3125,-37.6875 -35.78125,18.0625 0,-6.53125 -25.40625,14.25 -0.75,-6.5625 L 30,975.01856 l -0.9375,-3.0625 -0.96875,-3.46875 -1.9375,-12.3125 0.375,-15 1.9375,-11.15625 3.84375,-10.375 5.78125,-10.78125 6.90625,-9.625 8.09375,-7.6875 10,-7.3125 15,-6.9375 15.78125,-3.4375 z"
       id="path3051" />
    <path
       style="color:#000000;fill:#000000;stroke:none;stroke-width:5;stroke-linecap:butt;stroke-linejoin:miter;stroke-miterlimit:4;stroke-opacity:1;stroke-dasharray:none;stroke-dashoffset:0;marker:none;visibility:visible;display:inline;overflow:visible;enable-background:accumulate;fill-opacity:1"
       d="m 29.924901,127.73935 42.438952,-23.93993 0,7.07316 26.660366,-14.690403 -0.544089,6.529073 34.8217,-17.410856 42.98304,37.542146 -4.35271,11.96996 -5.98498,11.42588 -8.16134,10.33769 -10.88178,8.70542 -11.96996,7.07316 -11.96996,4.35272 -14.69041,2.72044 -15.234491,-1.08818 -13.058139,-2.72044 -14.690406,-5.44089 -11.425871,-8.16134 -8.705426,-9.24952 -7.617248,-9.7936 -5.440891,-9.24951 z"
       id="path5022"
       inkscape:connector-curvature="0"
       transform="translate(0,847.36231)" />
    <path
       transform="matrix(0.55264064,0,0,0.55264064,-90.234293,700.5071)"
       sodipodi:type="arc"
       style="fill:none;stroke:#ffffff;stroke-width:5.42848253;stroke-linecap:square;stroke-miterlimit:4;stroke-opacity:1;stroke-dasharray:none"
       id="path2987-1"
       sodipodi:cx="348.75165"
       sodipodi:cy="451.2066"
       sodipodi:rx="138.41505"
       sodipodi:ry="138.41505"
       d="m 487.1667,451.2066 a 138.41505,138.41505 0 1 1 -0.014,-1.96749"
       sodipodi:start="0"
       sodipodi:end="6.2689704"
       sodipodi:open="true" />
    <path
       style="color:#000000;fill:none;stroke:#ffffff;stroke-width:3;stroke-linecap:butt;stroke-linejoin:miter;stroke-miterlimit:4;stroke-opacity:1;stroke-dasharray:none;stroke-dashoffset:0;marker:none;visibility:visible;display:inline;overflow:visible;enable-background:accumulate"
       d="m 30.218044,974.90964 42.195218,-23.82284 0.112712,7.02597 25.986427,-14.34362 -0.05965,6.7088 35.550059,-17.9729 41.73003,37.03425"
       id="path3775"
       inkscape:connector-curvature="0"
       sodipodi:nodetypes="ccccccc" />
    <path
       style="color:#000000;fill:none;stroke:#ffffff;stroke-width:3;stroke-linecap:butt;stroke-linejoin:miter;stroke-miterlimit:4;stroke-opacity:1;stroke-dasharray:none;stroke-dashoffset:0;marker:none;visibility:visible;display:inline;overflow:visible;enable-background:accumulate"
       d="m 61.5,946.90608 -0.474954,67.09662"
       id="path3777"
       inkscape:connector-curvature="0"
       sodipodi:nodetypes="cc" />
    <flowRoot
       xml:space="preserve"
       id="flowRoot3913"
       style="font-size:14px;font-style:normal;font-variant:normal;font-weight:normal;font-stretch:normal;line-height:125%;letter-spacing:0px;word-spacing:0px;fill:#000000;fill-opacity:1;stroke:none;font-family:Iron Maiden;-inkscape-font-specification:Iron Maiden"><flowRegion
         id="flowRegion3915"><rect
           id="rect3917"
           width="79"
           height="27"
           x="-124.5"
           y="43" /></flowRegion><flowPara
         id="flowPara3919" /></flowRoot>    <flowRoot
       xml:space="preserve"
       id="flowRoot3921"
       style="font-size:14px;font-style:normal;font-variant:normal;font-weight:normal;font-stretch:normal;line-height:125%;letter-spacing:0px;word-spacing:0px;fill:#ffffff;fill-opacity:1;stroke:none;font-family:Courier New;-inkscape-font-specification:Courier New"
       transform="translate(0,847.36231)"><flowRegion
         id="flowRegion3923"><rect
           id="rect3925"
           width="37"
           height="14"
           x="79"
           y="45"
           style="font-style:normal;font-variant:normal;font-weight:normal;font-stretch:normal;fill:#ffffff;font-family:Courier New;-inkscape-font-specification:Courier New" /></flowRegion><flowPara
         id="flowPara3927">gimooyacojfmvd</flowPara></flowRoot>    <text
       xml:space="preserve"
       style="font-size:14px;font-style:normal;font-variant:normal;font-weight:normal;font-stretch:normal;line-height:0%;letter-spacing:0px;word-spacing:0px;fill:#000000;fill-opacity:1;stroke:none;font-family:Iron Maiden;-inkscape-font-specification:Iron Maiden"
       id="text3929"
       sodipodi:linespacing="0%"
       y="0"
       x="162.30219"
       transform="translate(3.4910142e-6,-1.6187781e-5)"><textPath
         xlink:href="#path2987-1"
         id="textPath3933"
         style="font-size:8px;font-style:normal;font-variant:normal;font-weight:bold;font-stretch:normal;text-align:start;line-height:0%;text-anchor:start;fill:#ffffff;font-family:Courier New;-inkscape-font-specification:Courier New Bold"
         dy="0 -4 0 0 0 0 0 0 0 0 0 0 0 0 0 0 0 0 0 0 0 0 0 0 0 0 0 0 0 0 0 0 0 0 0 0 0 0 0 0 0 0 0 0 0 0 0 0 0 0 0 0 0">                                                     www.gimoya.github.io/tiroltrailhead/map.html</textPath></text>
    <text
       xml:space="preserve"
       style="font-size:14px;font-style:normal;font-variant:normal;font-weight:normal;font-stretch:normal;line-height:125%;letter-spacing:0px;word-spacing:0px;fill:#000000;fill-opacity:1;stroke:none;font-family:Iron Maiden;-inkscape-font-specification:Iron Maiden"
       x="291"
       y="20"
       id="text3938"
       sodipodi:linespacing="125%"
       transform="translate(0,847.36231)"><tspan
         sodipodi:role="line"
         id="tspan3940"
         x="291"
         y="20" /></text>
    <path
       style="color:#000000;fill:none;stroke:#ffffff;stroke-width:3;stroke-linecap:butt;stroke-linejoin:miter;stroke-miterlimit:4;stroke-opacity:1;stroke-dasharray:none;stroke-dashoffset:0;marker:none;visibility:visible;display:inline;overflow:visible;enable-background:accumulate"
       d="m 90.441558,938.8484 -0.47495,59.45839"
       id="path3777-1"
       inkscape:connector-curvature="0"
       sodipodi:nodetypes="cc" />
    <path
       style="color:#000000;fill:none;stroke:#ffffff;stroke-width:3;stroke-linecap:butt;stroke-linejoin:miter;stroke-miterlimit:4;stroke-opacity:1;stroke-dasharray:none;stroke-dashoffset:0;marker:none;visibility:visible;display:inline;overflow:visible;enable-background:accumulate"
       d="m 110.42671,926.17295 0.47497,55.74797"
       id="path3777-4"
       inkscape:connector-curvature="0"
       sodipodi:nodetypes="cc" />
    <text
       xml:space="preserve"
       style="font-size:14px;font-style:normal;font-variant:normal;font-weight:normal;font-stretch:normal;line-height:125%;letter-spacing:0px;word-spacing:0px;fill:#000000;fill-opacity:1;stroke:none;font-family:Iron Maiden;-inkscape-font-specification:Iron Maiden"
       x="63.44532"
       y="1013.5663"
       id="text3147"
       sodipodi:linespacing="125%"><tspan
         sodipodi:role="line"
         id="tspan3149"
         x="63.44532"
         y="1013.5663"
         style="font-size:18px;font-weight:bold;letter-spacing:0px;fill:#ffffff;stroke:none;-inkscape-font-specification:Iron Maiden Bold">i<tspan
   style="letter-spacing:-2px"
   id="tspan5114">r</tspan><tspan
   style="letter-spacing:-0.5px"
   id="tspan5120">ol</tspan></tspan></text>
    <flowRoot
       xml:space="preserve"
       id="flowRoot3151"
       style="font-size:14px;font-style:normal;font-variant:normal;font-weight:normal;font-stretch:normal;line-height:125%;letter-spacing:0px;word-spacing:0px;fill:#000000;fill-opacity:1;stroke:none;font-family:Iron Maiden;-inkscape-font-specification:Iron Maiden"><flowRegion
         id="flowRegion3153"><rect
           id="rect3155"
           width="0.47495362"
           height="16.623377"
           x="37.046383"
           y="87.211502" /></flowRegion><flowPara
         id="flowPara3157" /></flowRoot>    <flowRoot
       xml:space="preserve"
       id="flowRoot3159"
       style="font-size:14px;font-style:normal;font-variant:normal;font-weight:normal;font-stretch:normal;line-height:125%;letter-spacing:0px;word-spacing:0px;fill:#000000;fill-opacity:1;stroke:none;font-family:Iron Maiden;-inkscape-font-specification:Iron Maiden"
       transform="translate(0,847.36231)"><flowRegion
         id="flowRegion3161"><rect
           id="rect3163"
           width="15.67347"
           height="18.523191"
           x="37.521336"
           y="85.786644" /></flowRegion><flowPara
         id="flowPara3165">Trail</flowPara></flowRoot>    <text
       xml:space="preserve"
       style="font-size:14px;font-style:normal;font-variant:normal;font-weight:normal;font-stretch:normal;line-height:125%;letter-spacing:0px;word-spacing:0px;fill:#000000;fill-opacity:1;stroke:none;font-family:Iron Maiden;-inkscape-font-specification:Iron Maiden"
       x="92.379051"
       y="997.93262"
       id="text3167"
       sodipodi:linespacing="125%"
       inkscape:transform-center-x="7.2690889"
       inkscape:transform-center-y="-9.4990724"><tspan
         sodipodi:role="line"
         id="tspan3169"
         x="92.379051"
         y="997.93262"
         style="font-size:18px;font-weight:bold;fill:#ffffff;-inkscape-font-specification:Iron Maiden Bold">rail</tspan></text>
    <flowRoot
       xml:space="preserve"
       id="flowRoot3171"
       style="font-size:14px;font-style:normal;font-variant:normal;font-weight:normal;font-stretch:normal;line-height:125%;letter-spacing:0px;word-spacing:0px;fill:#000000;fill-opacity:1;stroke:none;font-family:Iron Maiden;-inkscape-font-specification:Iron Maiden"><flowRegion
         id="flowRegion3173"><rect
           id="rect3175"
           width="24.222635"
           height="16.148422"
           x="130.1373"
           y="98.135437" /></flowRegion><flowPara
         id="flowPara3177" /></flowRoot>    <text
       xml:space="preserve"
       style="font-size:14px;font-style:normal;font-variant:normal;font-weight:normal;font-stretch:normal;line-height:125%;letter-spacing:0px;word-spacing:0px;fill:#000000;fill-opacity:1;stroke:none;font-family:Iron Maiden;-inkscape-font-specification:Iron Maiden"
       x="122.11827"
       y="982.66217"
       id="text3179"
       sodipodi:linespacing="125%"><tspan
         sodipodi:role="line"
         id="tspan3181"
         x="122.11827"
         y="982.66217"
         style="font-size:18px;font-weight:bold;fill:#ffffff;-inkscape-font-specification:Iron Maiden Bold">Ead</tspan></text>
    <path
       style="color:#000000;fill:none;stroke:#ffffff;stroke-width:3;stroke-linecap:butt;stroke-linejoin:miter;stroke-miterlimit:4;stroke-opacity:1;stroke-dasharray:none;stroke-dashoffset:0;marker:none;visibility:visible;display:inline;overflow:visible;enable-background:accumulate"
       d="m 118.97588,928.44751 0.47497,55.74797"
       id="path3777-4-7"
       inkscape:connector-curvature="0"
       sodipodi:nodetypes="cc" />
  </g>
</svg>
