<?xml version="1.0" encoding="UTF-8" standalone="no"?>
<!-- Created with Inkscape (http://www.inkscape.org/) -->

<svg
   xmlns:dc="http://purl.org/dc/elements/1.1/"
   xmlns:cc="http://creativecommons.org/ns#"
   xmlns:rdf="http://www.w3.org/1999/02/22-rdf-syntax-ns#"
   xmlns:svg="http://www.w3.org/2000/svg"
   xmlns="http://www.w3.org/2000/svg"
   xmlns:sodipodi="http://sodipodi.sourceforge.net/DTD/sodipodi-0.dtd"
   xmlns:inkscape="http://www.inkscape.org/namespaces/inkscape"
   width="205"
   height="205"
   id="svg2"
   version="1.1"
   inkscape:version="0.48.4 r9939"
   sodipodi:docname="C:\Users\Kay\tiroltrailhead\images\logo_trails_5_1.svg"
   inkscape:export-filename="C:\Users\Kay\tiroltrailhead\images\logo_trails_5_1.png"
   inkscape:export-xdpi="175.60976"
   inkscape:export-ydpi="175.60976">
  <defs
     id="defs4" />
  <sodipodi:namedview
     id="base"
     pagecolor="#ffffff"
     bordercolor="#666666"
     borderopacity="1.0"
     inkscape:pageopacity="0"
     inkscape:pageshadow="2"
     inkscape:zoom="1.4427592"
     inkscape:cx="101.52462"
     inkscape:cy="75.60992"
     inkscape:document-units="px"
     inkscape:current-layer="layer1"
     showgrid="false"
     fit-margin-top="5"
     fit-margin-left="5"
     fit-margin-right="5"
     fit-margin-bottom="5"
     inkscape:window-width="735"
     inkscape:window-height="535"
     inkscape:window-x="2099"
     inkscape:window-y="97"
     inkscape:window-maximized="0"
     showguides="true"
     inkscape:guide-bbox="true">
    <sodipodi:guide
       orientation="1,0"
       position="-97.840445,217.52876"
       id="guide3907" />
    <sodipodi:guide
       orientation="1,0"
       position="-97.840445,217.52876"
       id="guide3909" />
    <sodipodi:guide
       orientation="1,0"
       position="263.59926,5.6994434"
       id="guide3947" />
    <sodipodi:guide
       orientation="1,0"
       position="322.01855,97.840445"
       id="guide3054" />
    <sodipodi:guide
       orientation="1,0"
       position="-85.016698,213.72913"
       id="guide3117" />
    <sodipodi:guide
       orientation="0,1"
       position="-8.5491651,66.493506"
       id="guide3969" />
    <sodipodi:guide
       orientation="0,1"
       position="36.571429,54.144712"
       id="guide3971" />
    <sodipodi:guide
       orientation="0,1"
       position="173.36573,38.359659"
       id="guide3973" />
    <sodipodi:guide
       orientation="0,1"
       position="201.38033,207.07978"
       id="guide3975" />
  </sodipodi:namedview>
  <metadata
     id="metadata7">
    <rdf:RDF>
      <cc:Work
         rdf:about="">
        <dc:format>image/svg+xml</dc:format>
        <dc:type
           rdf:resource="http://purl.org/dc/dcmitype/StillImage" />
        <dc:title />
      </cc:Work>
    </rdf:RDF>
  </metadata>
  <g
     inkscape:label="Ebene 1"
     inkscape:groupmode="layer"
     id="layer1"
     transform="translate(0,-847.36231)">
    <path
       style="fill:#1a1a1a;fill-opacity:1;stroke:none"
       d="m 102.61911,1047.1462 c -0.55544,-0.3225 -1.25612,-1.8706 -2.18969,-4.8381 -0.971256,-3.0869 -1.758071,-4.2152 -3.607141,-5.1726 -0.891504,-0.4618 -1.313721,-0.546 -2.705826,-0.5399 -2.988514,0.014 -4.579997,1.2494 -6.271847,4.8717 -1.19012,2.5478 -2.093955,3.8987 -2.833849,4.2348 -0.599887,0.2727 -2.005662,-0.019 -2.586611,-0.5354 -0.564406,-0.5024 -0.948263,-2.0193 -1.270403,-5.0201 -0.365905,-3.4087 -0.802315,-4.5536 -2.220877,-5.8259 -2.195105,-1.969 -5.307044,-2.0964 -7.80779,-0.3201 -0.324815,0.231 -1.243493,1.29 -2.041455,2.3539 -1.621911,2.1623 -2.770765,3.3588 -3.489804,3.6344 -0.649384,0.2491 -2.143572,-0.4151 -2.642284,-1.1745 -0.433105,-0.6595 -0.478486,-2.0457 -0.194783,-5.9512 0.226243,-3.1145 -0.07475,-4.3831 -1.373829,-5.7892 -1.282971,-1.3887 -2.60442,-1.9838 -4.410088,-1.9863 -1.862358,0 -3.181401,0.599 -5.043761,2.3011 -0.724414,0.6619 -1.86603,1.5871 -2.536864,2.0557 -1.593084,1.1131 -2.285205,1.13 -3.444946,0.083 l -0.851446,-0.7675 0.11374,-1.4438 c 0.06619,-0.8402 0.400368,-2.2609 0.799338,-3.3979 0.601953,-1.7158 0.682977,-2.1926 0.664722,-3.9085 -0.02523,-2.3679 -0.423408,-3.414 -1.770795,-4.6514 -1.918833,-1.7621 -4.624675,-1.9941 -7.155861,-0.614 -2.837076,1.5473 -4.394769,2.2353 -5.287607,2.3359 -0.855694,0.097 -0.975152,0.046 -1.642714,-0.658 -1.237003,-1.3084 -1.150271,-1.6635 1.784555,-7.3071 0.656325,-1.262 0.691371,-1.4395 0.691371,-3.4969 0,-2.4275 -0.284385,-3.2325 -1.579836,-4.4712 -1.813824,-1.73411 -4.278419,-2.0254 -7.492202,-0.8849 -1.184008,0.4203 -2.420893,0.698 -3.417375,0.7677 -1.517836,0.1066 -1.574323,0.094 -2.010374,-0.4598 -0.246742,-0.313 -0.551341,-0.91104 -0.676855,-1.32898 -0.308415,-1.02701 0.128958,-1.85294 2.218298,-4.18878 2.181594,-2.43904 2.502878,-2.9091 2.885262,-4.22145 0.36463,-1.25128 0.291895,-2.5063 -0.25196,-4.35046 -0.459225,-1.55715 -1.878372,-2.93579 -3.50883,-3.40873 -0.974015,-0.28248 -1.613257,-0.31225 -3.772385,-0.17576 -2.935085,0.18551 -4.485639,0.13753 -5.03973,-0.15652 -0.497576,-0.26377 -0.961903,-1.40244 -0.961903,-2.35857 0,-0.6435 0.1561952,-0.91456 0.987946,-1.71433 0.543346,-0.52258 1.838601,-1.53139 2.878297,-2.24182 2.832408,-1.93545 3.725552,-3.52742 3.479286,-6.20167 -0.36765,-3.99293 -1.98783,-5.50978 -6.477606,-6.06435 -2.9706951,-0.36686 -4.4630516,-0.79051 -4.8808064,-1.38553 -0.1935918,-0.27585 -0.316994,-0.90011 -0.316994,-1.60406 0,-0.93394 0.087966,-1.23229 0.463948,-1.57209 0.70434,-0.63675 2.1668719,-1.42597 3.7315304,-2.01357 2.147134,-0.80625 2.861083,-1.22511 3.776121,-2.21558 1.058242,-1.1453 1.40516,-2.13773 1.384273,-3.95979 -0.04355,-3.79406 -1.3069,-5.37707 -5.3352875,-6.68538 -2.0213042,-0.65662 -3.745993,-1.55583 -4.1429155,-2.1602 -0.4384896,-0.66768 -0.2269904,-2.27629 0.3857859,-2.93474 0.5078343,-0.54561 2.4868247,-1.19769 4.5617871,-1.50307 3.188651,-0.46929 4.849389,-1.43544 5.800349,-3.37467 0.513458,-1.04699 0.549891,-1.28868 0.473181,-3.14027 -0.07228,-1.74511 -0.162328,-2.15045 -0.692099,-3.11673 -0.635677,-1.15934 -0.997782,-1.46638 -4.159891,-3.52808 -2.124775,-1.38513 -2.7416574,-2.03603 -2.7416574,-2.89286 0,-0.85502 0.6007405,-2.21274 1.1072421,-2.50236 0.2951213,-0.16877 1.6616383,-0.2612 4.1668693,-0.28173 4.345813,-0.0364 5.241869,-0.28314 6.685444,-1.84561 1.300248,-1.40723 1.730992,-2.98024 1.418679,-5.18047 -0.280561,-1.97666 -0.762201,-2.84583 -2.596003,-4.68535 -1.998099,-2.00406 -2.947306,-3.26986 -2.947306,-3.93041 0,-0.58369 0.655806,-1.93049 1.13202,-2.32479 0.526791,-0.43626 2.367136,-0.28714 5.239844,0.42447 2.850943,0.70614 3.88922,0.7115 5.431886,0.0273 1.268152,-0.56223 2.159497,-1.38875 2.791891,-2.58893 0.476017,-0.90324 0.552155,-1.28726 0.535092,-2.6988 -0.0248,-2.04644 -0.27597,-2.96465 -1.23955,-4.52946 -2.699623,-4.38437 -2.836069,-4.83207 -1.861383,-6.10698 1.173358,-1.53478 2.063835,-1.47967 5.807153,0.35944 1.248619,0.61336 2.756302,1.20718 3.350477,1.31966 3.025883,0.57252 6.053407,-1.35384 6.652546,-4.23307 0.337361,-1.62124 0.09815,-3.43422 -0.824513,-6.24832 -1.228058,-3.74567 -1.228838,-3.77063 -0.147931,-4.84899 0.751076,-0.74931 1.048234,-0.91077 1.67648,-0.91077 0.932329,0 2.147016,0.68289 4.252301,2.39043 2.364895,1.91801 3.071552,2.23092 5.038194,2.2304 1.383839,-3.9e-4 1.815525,-0.0884 2.680371,-0.54299 1.221599,-0.64287 1.944897,-1.37647 2.60106,-2.63784 0.54338,-1.04482 0.601664,-2.54475 0.292621,-7.53116 -0.192022,-3.09827 -0.143152,-3.21593 1.611002,-3.88438 1.528097,-0.58214 1.797349,-0.39402 5.617604,3.92639 1.590343,1.79855 2.742536,2.40915 4.748271,2.51615 1.688106,0.0896 2.794154,-0.28913 4.048916,-1.38816 1.296304,-1.13552 1.783178,-2.44775 2.113376,-5.69605 0.33891,-3.33383 0.472951,-4.09916 0.848393,-4.84471 0.299986,-0.59566 1.29611,-1.02271 2.462536,-1.05572 1.020521,-0.0286 1.875464,0.89803 3.31581,3.59501 0.663305,1.24202 1.497448,2.60104 1.853638,3.02015 1.480905,1.74214 4.23879,2.51524 6.408373,1.79621 2.130735,-0.70603 3.334083,-2.2941 4.275981,-5.64328 0.297251,-1.05704 0.782753,-2.52551 1.07887,-3.26339 0.600005,-1.49539 1.192503,-1.91164 2.721103,-1.91164 1.61283,0 2.13285,0.83304 3.61401,5.78835 0.43061,1.44067 0.71252,1.97834 1.48883,2.83985 1.3591,1.50814 2.68135,2.13316 4.5071,2.1307 1.06287,-8.9e-4 1.69813,-0.1222 2.4102,-0.46033 1.30124,-0.61698 2.7361,-2.19595 3.46169,-3.80938 0.72371,-1.60926 2.53392,-4.33043 2.99923,-4.50853 0.62778,-0.24037 1.84639,-0.13065 2.56635,0.23102 0.92281,0.46358 1.19622,1.35758 1.46239,4.78217 0.24222,3.11648 0.57521,4.20002 1.67324,5.44451 2.05589,2.33025 5.33061,2.79372 7.87204,1.11423 0.50193,-0.33163 1.46789,-1.3182 2.1466,-2.19231 1.82327,-2.3483 3.37963,-3.74933 4.16505,-3.74933 0.91654,0 1.97983,0.49818 2.38709,1.11827 0.30527,0.46474 0.33064,0.8398 0.1923,2.84556 -0.30954,4.4885 -0.24492,6.32851 0.25532,7.27011 0.69044,1.29973 2.37601,2.69722 3.72531,3.08855 2.22963,0.64661 4.17608,0.0988 6.43518,-1.81092 1.85554,-1.56871 4.06924,-3.04927 4.55927,-3.04927 0.62261,0 1.51423,0.52779 2.13495,1.26386 0.49155,0.58279 0.54169,0.77323 0.42167,1.60158 -0.0748,0.51703 -0.54685,2.16139 -1.04879,3.65404 -0.52569,1.56337 -0.91253,3.09543 -0.91253,3.61389 0,1.528 0.53596,2.89547 1.59576,4.07143 1.31671,1.46121 2.59888,2.04114 4.51823,2.04376 1.4214,0 1.58086,-0.0507 4.39174,-1.46914 2.02927,-1.0235 3.21756,-1.49995 3.90505,-1.56586 0.9261,-0.0884 1.03585,-0.0454 1.74759,0.6855 0.41768,0.42898 0.81441,0.99878 0.88168,1.26605 0.1659,0.65952 -0.35971,1.95197 -1.62694,4.00065 -1.85263,2.9949 -2.0826,3.58198 -2.08111,5.31281 0.002,1.81348 0.55937,3.1205 1.85617,4.34939 1.9492,1.84717 4.23358,2.19612 7.4682,1.14075 0.95087,-0.31031 2.35584,-0.67133 3.12221,-0.80249 1.22376,-0.2093 1.45845,-0.19578 1.92827,0.11172 0.57657,0.37699 1.36487,1.7355 1.36487,2.35222 0,0.64661 -1.21523,2.337 -2.99255,4.16247 -2.29562,2.35804 -2.67263,3.11258 -2.67209,5.34831 0,1.49618 0.0801,1.89956 0.55131,2.79551 0.61187,1.16297 1.58868,2.10808 2.90263,2.80865 0.8262,0.44042 1.0636,0.46109 4.66466,0.40704 4.93624,-0.074 5.23683,0.0286 5.78911,1.98416 0.34868,1.23463 -0.43482,2.13149 -3.97274,4.5469 -0.88322,0.60304 -1.84865,1.38332 -2.14533,1.7338 -1.65396,1.95403 -1.99568,4.63448 -0.8759,6.87008 1.1134,2.22314 2.73596,3.15926 6.29733,3.63376 2.71354,0.36154 4.21762,0.78883 4.71772,1.34018 0.2064,0.22749 0.41483,0.84875 0.46644,1.39048 0.15486,1.6259 -0.32974,1.99547 -5.90116,4.49992 -2.35014,1.05652 -3.67067,2.8314 -3.88836,5.22639 -0.14478,1.59315 0.38399,3.23009 1.42448,4.40933 1.06523,1.20743 1.75639,1.60641 4.30913,2.48729 4.2142,1.45431 5.10588,2.41175 4.21869,4.5301 -0.4073,0.97278 -1.51033,1.43624 -4.86604,2.0445 -3.00417,0.54458 -4.39331,1.16179 -5.3628,2.38303 -1.02473,1.29075 -1.41787,2.39875 -1.42285,4.00972 -0.002,1.21953 0.0982,1.66413 0.62366,2.71269 0.7316,1.46069 1.46616,2.15723 3.53748,3.35439 2.72759,1.57651 4.07869,2.77822 4.08059,3.62959 0,0.25233 -0.14968,0.83449 -0.33381,1.29362 -0.55308,1.37904 -1.01796,1.50943 -5.4383,1.52607 -3.54697,0.0131 -3.87537,0.0468 -4.68488,0.47764 -1.36459,0.72642 -2.26015,1.62446 -2.88405,2.89196 -0.48864,0.99268 -0.57368,1.41661 -0.5645,2.81436 0.0147,2.21612 0.42576,2.95191 3.19494,5.71648 1.22274,1.2207 2.41194,2.60012 2.64267,3.06545 0.38586,0.77805 0.39526,0.90531 0.11736,1.58598 -0.16617,0.40706 -0.55171,0.96028 -0.85675,1.22938 -0.51064,0.45054 -0.67784,0.48009 -2.11016,0.37303 -0.85553,-0.0634 -2.48333,-0.36319 -3.61737,-0.66475 -1.5429,-0.41028 -2.37467,-0.52407 -3.30494,-0.45172 -2.17569,0.16916 -4.01152,1.42351 -4.98373,3.40519 -0.48054,0.9794 -0.57039,1.4184 -0.5548,2.7114 0.0221,1.8415 0.2972,2.5564 1.80549,4.6926 1.26624,1.7934 2.39927,3.9134 2.39813,4.4868 -0.002,0.6295 -0.7568,1.6778 -1.47692,2.0494 -0.90953,0.4692 -1.96076,0.1956 -5.42946,-1.4129 -2.47932,-1.1496 -2.78859,-1.2428 -4.12362,-1.2398 -1.72689,0 -2.97007,0.5164 -4.24408,1.7499 -1.27297,1.2324 -1.73107,2.3998 -1.71935,4.3819 0.007,1.4503 0.11172,1.891 0.86843,3.7144 0.47232,1.1379 1.01849,2.6765 1.21379,3.4192 0.33715,1.2826 0.33684,1.3779 -0.006,1.9007 -0.44463,0.6771 -1.51768,1.3519 -2.15138,1.3528 -0.73051,0 -2.02017,-0.7317 -4.25811,-2.4195 -2.62758,-1.9817 -3.51684,-2.3758 -5.37272,-2.3809 -1.81574,0 -3.00403,0.5287 -4.32976,1.9424 -1.71138,1.8255 -2.02682,3.3922 -1.35509,6.7309 0.56435,2.8054 0.57463,5.0318 0.0256,5.5794 -0.59853,0.597 -1.98662,0.9193 -2.6969,0.6256 -0.68397,-0.2827 -2.25108,-1.7655 -4.1882,-3.9633 -1.83068,-2.0771 -2.96999,-2.6936 -4.98128,-2.6949 -2.45587,0 -4.47228,1.2444 -5.61264,3.4687 -0.46329,0.904 -0.54499,1.3949 -0.6901,4.1443 -0.25016,4.7413 -0.51078,5.3353 -2.44091,5.5633 l -1.06836,0.1259 -0.9702,-1.0175 c -0.54636,-0.573 -1.4588,-1.951 -2.08865,-3.1543 -1.91138,-3.6518 -3.33148,-4.7364 -6.19,-4.7282 -1.88192,0 -3.0118,0.4524 -4.30634,1.7034 -1.18932,1.1494 -1.59075,1.9838 -2.1142,4.3947 -0.89175,4.1073 -1.49853,5.0103 -3.36044,4.9991 -0.58003,0 -1.21806,-0.1017 -1.41783,-0.2172 z"
       id="path3051"
       inkscape:connector-curvature="0"
       inkscape:export-xdpi="304.02609"
       inkscape:export-ydpi="304.02609" />
    <path
       transform="matrix(0.55264064,0,0,0.55264064,-90.234293,700.5071)"
       sodipodi:type="arc"
       style="fill:none;stroke:#ffffff;stroke-width:3;stroke-linecap:square;stroke-miterlimit:4;stroke-opacity:1;stroke-dasharray:none"
       sodipodi:cx="348.75165"
       sodipodi:cy="451.2066"
       sodipodi:rx="138.41505"
       sodipodi:ry="138.41505"
       d="m 487.1667,451.2066 a 138.41505,138.41505 0 1 1 -0.014,-1.96749"
       sodipodi:start="0"
       sodipodi:end="6.2689704"
       sodipodi:open="true" />
    <path
       style="color:#000000;fill:none;stroke:#ffffff;stroke-width:3;stroke-linecap:butt;stroke-linejoin:miter;stroke-miterlimit:4;stroke-opacity:1;stroke-dasharray:none;stroke-dashoffset:0;marker:none;visibility:visible;display:inline;overflow:visible;enable-background:accumulate"
       d="m 30.218044,974.90964 42.195218,-23.82284 0.112712,7.02597 25.986427,-14.34362 -0.05965,6.7088 35.550062,-17.9729 41.73003,37.03425"
       id="path3775"
       inkscape:connector-curvature="0"
       sodipodi:nodetypes="ccccccc" />
    <path
       style="color:#000000;fill:none;stroke:#ffffff;stroke-width:3;stroke-linecap:butt;stroke-linejoin:miter;stroke-miterlimit:4;stroke-opacity:1;stroke-dasharray:none;stroke-dashoffset:0;marker:none;visibility:visible;display:inline;overflow:visible;enable-background:accumulate"
       d="m 61.5,946.90608 -0.474954,67.09662"
       id="path3777"
       inkscape:connector-curvature="0"
       sodipodi:nodetypes="cc" />
    <flowRoot
       xml:space="preserve"
       id="flowRoot3913"
       style="fill:black;stroke:none;stroke-opacity:1;stroke-width:1px;stroke-linejoin:miter;stroke-linecap:butt;fill-opacity:1;font-family:Iron Maiden;font-style:normal;font-weight:normal;font-size:14px;line-height:125%;letter-spacing:0px;word-spacing:0px;-inkscape-font-specification:Iron Maiden;font-stretch:normal;font-variant:normal"><flowRegion
         id="flowRegion3915"><rect
           id="rect3917"
           width="79"
           height="27"
           x="-124.5"
           y="43" /></flowRegion><flowPara
         id="flowPara3919" /></flowRoot>    <flowRoot
       xml:space="preserve"
       id="flowRoot3921"
       style="font-size:14px;font-style:normal;font-variant:normal;font-weight:normal;font-stretch:normal;line-height:125%;letter-spacing:0px;word-spacing:0px;fill:#ffffff;fill-opacity:1;stroke:none;font-family:Courier New;-inkscape-font-specification:Courier New"
       transform="translate(0,847.36231)"><flowRegion
         id="flowRegion3923"><rect
           id="rect3925"
           width="37"
           height="14"
           x="79"
           y="45"
           style="font-style:normal;font-variant:normal;font-weight:normal;font-stretch:normal;fill:#ffffff;font-family:Courier New;-inkscape-font-specification:Courier New" /></flowRegion><flowPara
         id="flowPara3927">gimooyacojfmvd</flowPara></flowRoot>    <text
       xml:space="preserve"
       style="font-size:14px;font-style:normal;font-variant:normal;font-weight:normal;font-stretch:normal;line-height:125%;letter-spacing:0px;word-spacing:0px;fill:#000000;fill-opacity:1;stroke:none;font-family:Iron Maiden;-inkscape-font-specification:Iron Maiden"
       x="291"
       y="20"
       id="text3938"
       sodipodi:linespacing="125%"
       transform="translate(0,847.36231)"><tspan
         sodipodi:role="line"
         id="tspan3940"
         x="291"
         y="20" /></text>
    <path
       style="color:#000000;fill:none;stroke:#ffffff;stroke-width:3;stroke-linecap:butt;stroke-linejoin:miter;stroke-miterlimit:4;stroke-opacity:1;stroke-dasharray:none;stroke-dashoffset:0;marker:none;visibility:visible;display:inline;overflow:visible;enable-background:accumulate"
       d="m 86.441558,938.8484 -0.47495,59.45839"
       id="path3777-1"
       inkscape:connector-curvature="0"
       sodipodi:nodetypes="cc" />
    <path
       style="color:#000000;fill:none;stroke:#ffffff;stroke-width:3;stroke-linecap:butt;stroke-linejoin:miter;stroke-miterlimit:4;stroke-opacity:1;stroke-dasharray:none;stroke-dashoffset:0;marker:none;visibility:visible;display:inline;overflow:visible;enable-background:accumulate"
       d="m 110.42671,926.17295 0.47497,55.74797"
       id="path3777-4"
       inkscape:connector-curvature="0"
       sodipodi:nodetypes="cc" />
    <text
       xml:space="preserve"
       style="font-size:14px;font-style:normal;font-variant:normal;font-weight:normal;font-stretch:normal;line-height:125%;letter-spacing:0px;word-spacing:0px;fill:#000000;fill-opacity:1;stroke:none;font-family:Iron Maiden;-inkscape-font-specification:Iron Maiden"
       x="65.368965"
       y="1013.5663"
       id="text3147"
       sodipodi:linespacing="125%"><tspan
         sodipodi:role="line"
         id="tspan3149"
         x="65.368965"
         y="1013.5663"
         style="font-size:16px;font-weight:bold;fill:#ffffff;stroke:none;-inkscape-font-specification:Iron Maiden Bold">irol</tspan></text>
    <flowRoot
       xml:space="preserve"
       id="flowRoot3151"
       style="fill:black;stroke:none;stroke-opacity:1;stroke-width:1px;stroke-linejoin:miter;stroke-linecap:butt;fill-opacity:1;font-family:Iron Maiden;font-style:normal;font-weight:normal;font-size:14px;line-height:125%;letter-spacing:0px;word-spacing:0px;-inkscape-font-specification:Iron Maiden;font-stretch:normal;font-variant:normal"><flowRegion
         id="flowRegion3153"><rect
           id="rect3155"
           width="0.47495362"
           height="16.623377"
           x="37.046383"
           y="87.211502" /></flowRegion><flowPara
         id="flowPara3157" /></flowRoot>    <flowRoot
       xml:space="preserve"
       id="flowRoot3159"
       style="font-size:14px;font-style:normal;font-variant:normal;font-weight:normal;font-stretch:normal;line-height:125%;letter-spacing:0px;word-spacing:0px;fill:#000000;fill-opacity:1;stroke:none;font-family:Iron Maiden;-inkscape-font-specification:Iron Maiden"
       transform="translate(0,847.36231)"><flowRegion
         id="flowRegion3161"><rect
           id="rect3163"
           width="15.67347"
           height="18.523191"
           x="37.521336"
           y="85.786644" /></flowRegion><flowPara
         id="flowPara3165">Trail</flowPara></flowRoot>    <text
       xml:space="preserve"
       style="font-size:14px;font-style:normal;font-variant:normal;font-weight:normal;font-stretch:normal;line-height:125%;letter-spacing:0px;word-spacing:0px;fill:#000000;fill-opacity:1;stroke:none;font-family:Iron Maiden;-inkscape-font-specification:Iron Maiden"
       x="90.440971"
       y="998.31732"
       id="text3167"
       sodipodi:linespacing="125%"
       inkscape:transform-center-x="7.2690889"
       inkscape:transform-center-y="-9.4990724"><tspan
         sodipodi:role="line"
         id="tspan3169"
         x="90.440971"
         y="998.31732"
         style="font-size:16px;font-weight:bold;fill:#ffffff;-inkscape-font-specification:Iron Maiden Bold">rail</tspan></text>
    <flowRoot
       xml:space="preserve"
       id="flowRoot3171"
       style="fill:black;stroke:none;stroke-opacity:1;stroke-width:1px;stroke-linejoin:miter;stroke-linecap:butt;fill-opacity:1;font-family:Iron Maiden;font-style:normal;font-weight:normal;font-size:14px;line-height:125%;letter-spacing:0px;word-spacing:0px;-inkscape-font-specification:Iron Maiden;font-stretch:normal;font-variant:normal"><flowRegion
         id="flowRegion3173"><rect
           id="rect3175"
           width="24.222635"
           height="16.148422"
           x="130.1373"
           y="98.135437" /></flowRegion><flowPara
         id="flowPara3177" /></flowRoot>    <text
       xml:space="preserve"
       style="font-size:14px;font-style:normal;font-variant:normal;font-weight:normal;font-stretch:normal;line-height:125%;letter-spacing:0px;word-spacing:0px;fill:#000000;fill-opacity:1;stroke:none;font-family:Iron Maiden;-inkscape-font-specification:Iron Maiden"
       x="124.46246"
       y="983.96906"
       id="text3179"
       sodipodi:linespacing="125%"><tspan
         sodipodi:role="line"
         id="tspan3181"
         x="124.46246"
         y="983.96906"
         style="font-size:16px;font-weight:bold;fill:#ffffff;-inkscape-font-specification:Iron Maiden Bold">Ead</tspan></text>
    <path
       style="color:#000000;fill:none;stroke:#ffffff;stroke-width:3;stroke-linecap:butt;stroke-linejoin:miter;stroke-miterlimit:4;stroke-opacity:1;stroke-dasharray:none;stroke-dashoffset:0;marker:none;visibility:visible;display:inline;overflow:visible;enable-background:accumulate"
       d="m 118.97588,928.44751 0.47497,55.74797"
       id="path3777-4-7"
       inkscape:connector-curvature="0"
       sodipodi:nodetypes="cc" />
    <path
       sodipodi:type="arc"
       style="fill:#ffffff;fill-opacity:1;fill-rule:nonzero;stroke:none"
       id="path3033"
       sodipodi:cx="184.239"
       sodipodi:cy="172.3044"
       sodipodi:rx="12.606055"
       sodipodi:ry="12.010407"
       d="m 174.88947,164.24823 a 12.606055,12.010407 0 1 1 18.52344,16.29356 L 184.239,172.3044 z"
       transform="matrix(1.0453677,0,0,1.100429,-42.776806,756.71689)"
       sodipodi:start="3.8768332"
       sodipodi:end="7.0389626" />
  </g>
</svg>
