<?xml version="1.0" encoding="UTF-8" standalone="no"?>
<!-- Created with Inkscape (http://www.inkscape.org/) -->

<svg
   xmlns:dc="http://purl.org/dc/elements/1.1/"
   xmlns:cc="http://creativecommons.org/ns#"
   xmlns:rdf="http://www.w3.org/1999/02/22-rdf-syntax-ns#"
   xmlns:svg="http://www.w3.org/2000/svg"
   xmlns="http://www.w3.org/2000/svg"
   xmlns:sodipodi="http://sodipodi.sourceforge.net/DTD/sodipodi-0.dtd"
   xmlns:inkscape="http://www.inkscape.org/namespaces/inkscape"
   width="244.95915"
   height="148.90862"
   id="svg3968"
   version="1.1"
   inkscape:version="0.48.4 r9939"
   sodipodi:docname="Peaks-Symbol.svg"
   inkscape:export-filename="C:\Users\Kay\tiroltrailhead\images\Peaks-Symbol.png"
   inkscape:export-xdpi="90"
   inkscape:export-ydpi="90">
  <defs
     id="defs3970" />
  <sodipodi:namedview
     id="base"
     pagecolor="#888888"
     bordercolor="#666666"
     borderopacity="1.0"
     inkscape:pageopacity="0.64313725"
     inkscape:pageshadow="2"
     inkscape:zoom="1.4683594"
     inkscape:cx="113.88325"
     inkscape:cy="49.216193"
     inkscape:document-units="px"
     inkscape:current-layer="layer1"
     showgrid="false"
     fit-margin-top="5"
     fit-margin-left="5"
     fit-margin-right="5"
     fit-margin-bottom="5"
     inkscape:window-width="1366"
     inkscape:window-height="705"
     inkscape:window-x="-4"
     inkscape:window-y="-4"
     inkscape:window-maximized="1" />
  <metadata
     id="metadata3973">
    <rdf:RDF>
      <cc:Work
         rdf:about="">
        <dc:format>image/svg+xml</dc:format>
        <dc:type
           rdf:resource="http://purl.org/dc/dcmitype/StillImage" />
        <dc:title></dc:title>
      </cc:Work>
    </rdf:RDF>
  </metadata>
  <g
     inkscape:label="Ebene 1"
     inkscape:groupmode="layer"
     id="layer1"
     transform="translate(-445.16909,-385.28037)">
    <path
       inkscape:connector-curvature="0"
       style="fill:#ffffff"
       d="m 684.96206,528.18899 c -0.33992,-0.55 -0.81648,-1 -1.05902,-1 -0.24254,0 -0.44098,0.45 -0.44098,1 0,0.55 0.47656,1 1.05902,1 0.58246,0 0.7809,-0.45 0.44098,-1 z"
       id="path4023" />
    <path
       style="fill:#ffffff"
       d="m 611.49318,500.84159 c 6.32381,-2.29686 11.997,-5.74459 15.14485,-9.20384 2.76831,-3.04217 6.42836,-5.53122 8.13344,-5.53122 1.73898,0 6.46909,3.94342 10.77327,8.98151 4.22022,4.93983 12.95094,12.85759 13.96452,12.83762 1.01358,-0.02 -2.80352,-5.1984 -4.7274,-6.75018 -1.92386,-1.5518 -2.81948,-6.50554 -4.38607,-9.64906 -1.56659,-3.14353 -8.70845,-7.41863 -11.793,-10.8595 -4.74196,-5.28967 -5.53427,-7.28137 -5.12907,-12.89333 0.4042,-5.59822 -0.089,-6.84745 -3.15068,-7.98003 -2.90664,-1.07524 -3.62991,-2.61998 -3.62991,-7.75271 0,-4.41521 0.8273,-6.72737 2.65848,-7.43005 2.05686,-0.7893 2.43844,-2.37604 1.68617,-7.01172 -0.56136,-3.45925 -0.20624,-6.91462 0.84022,-8.17553 0.9969,-1.20118 5.21591,-8.78974 4.61815,-9.3875 -0.59776,-0.59776 -8.59883,8.59498 -13.02271,12.95235 -6.24656,6.15263 -7.71528,8.53568 -6.57448,10.6673 2.34497,4.3816 -3.09466,13.01657 -12.88155,20.44838 -5.88133,4.46607 -10.31921,9.62291 -13.39521,15.56536 -6.85207,13.23729 -11.41029,24.40568 -4.00712,16.41753 3.29354,-3.55378 10.27987,-9.98044 19.58757,-9.98044 9.30441,0 10.69248,0.39113 10.69248,3.01291 0,3.70092 -3.5855,6.96664 -12.65575,11.52702 -6.31208,3.17362 -9.81395,6.48795 -4.89901,4.63663 1.12268,-0.42289 6.59144,-2.42156 12.15281,-4.4415 z"
       id="path4021"
       inkscape:connector-curvature="0"
       sodipodi:nodetypes="sssscsssssssscsssssssssss" />
    <path
       style="fill:#ffffff"
       d="m 466.47902,500.10155 c -4.17016,-3.04929 -0.36793,-8.26328 8.49384,-11.64763 5.88839,-2.24881 8.19335,-2.4685 10.53763,-1.00449 2.51604,1.57129 3.18292,1.29961 4.12933,-1.68228 0.68458,-2.15693 0.38942,-3.80264 -0.75016,-4.18249 -3.47235,-1.15746 -6.58832,-5.30848 -5.70762,-7.60356 0.48023,-1.25143 3.93739,-3.50143 7.68259,-4.99996 9.99839,-4.00057 13.22948,-9.86818 3.97203,-7.21318 -8.25545,2.36763 -11.03353,1.91329 -11.03353,-1.80445 0,-1.82789 1.20183,-5.15766 2.67071,-7.39947 4.30254,-6.5665 1.34707,-6.39531 -3.73595,0.21641 -2.55766,3.32685 -11.13013,13.37279 -19.04997,22.32435 -9.09421,10.27891 -14.05797,17.16602 -13.47225,18.69241 0.5101,1.32928 0.92744,3.04052 0.92744,3.80276 0,0.76221 1.65342,1.62069 3.67425,1.90769 2.02085,0.28699 4.36699,2.09939 5.21367,4.02754 1.4313,3.25948 1.80612,3.33097 5.33641,1.01784 3.43598,-2.25134 3.54166,-2.67457 1.11158,-4.45149 z"
       id="path4019"
       inkscape:connector-curvature="0" />
    <path
       style="fill:#ffffff"
       d="m 565.62199,472.09606 c -1.07872,-4.4966 -1.45069,-9.00184 -0.82659,-10.01165 0.6241,-1.00982 0.19614,-7.6156 -0.95101,-14.67952 -2.35502,-14.50161 -1.19349,-17.77772 6.42855,-18.13186 2.35995,-0.10957 -0.47578,-1.02882 -6.30158,-2.04259 -7.71551,-1.34259 -10.73709,-2.59442 -11.12507,-4.60914 -0.68254,-3.54415 24.52302,-0.24817 32.33502,1.21737 3.03642,0.56964 -8.16806,-6.32874 -8.16806,-7.18158 0,-2.38453 -4.40133,-3.51471 -13.68747,-3.51471 -4.68673,0 -9.3251,-0.80376 -10.30749,-1.78614 -2.30156,-2.30157 -8.33091,7.38755 -14.54033,13.33381 -6.01383,5.75895 -15.25288,14.99634 -11.34782,25.22158 l -5.50522,8.14131 12.82786,-4.26799 c 7.55701,-2.51432 18.99316,-1.36804 15.75215,4.64699 -2.03935,3.78485 6.28628,9.99751 9.51214,13.7662 3.22583,3.76869 5.86517,7.5772 5.86517,8.46339 0,0.88615 7.05841,7.6487 7.60869,7.09842 0.55029,-0.55029 -6.49026,-11.16728 -7.56894,-15.66389 z"
       id="path4017"
       inkscape:connector-curvature="0"
       sodipodi:nodetypes="csscsssssssscsssssc" />
    <path
       style="fill:#ffffff"
       d="m 506.84026,440.85471 c 0.75018,-3.89541 -1.71619,-3.57065 -4.29966,0.56613 -1.87526,3.00278 -1.77917,3.33825 0.81318,2.83901 1.61685,-0.31138 3.18577,-1.84369 3.48648,-3.40514 z"
       id="path4015"
       inkscape:connector-curvature="0" />
    <path
       style="fill:#ffffff"
       d="m 573.00992,407.31701 c 0.36871,-0.31957 1.67439,-6.93396 0.18298,-8.58196 -1.49141,-1.64799 -2.71165,-4.22448 -2.71165,-5.7255 0,-1.50104 -0.64935,-2.72918 -1.44299,-2.72918 -1.38174,0 -13.25402,12.33197 -13.25402,13.76722 0,0.79353 16.20505,4.154 17.22568,3.26942 z"
       id="path4001"
       inkscape:connector-curvature="0" />
    <path
       style="font-size:medium;font-style:normal;font-variant:normal;font-weight:normal;font-stretch:normal;text-indent:0;text-align:start;text-decoration:none;line-height:normal;letter-spacing:normal;word-spacing:normal;text-transform:none;direction:ltr;block-progression:tb;writing-mode:lr-tb;text-anchor:start;baseline-shift:baseline;color:#000000;fill:#ffffff;fill-opacity:1;stroke:none;stroke-width:2.11216068;marker:none;visibility:visible;display:inline;overflow:visible;enable-background:accumulate;font-family:Sans;-inkscape-font-specification:Sans"
       d="m 529.71875,453.03125 c -0.0643,0.0149 -0.12714,0.0359 -0.1875,0.0625 -4.05693,1.15419 -7.01177,2.22869 -9.09375,3.3125 -2.08198,1.08381 -3.36351,2.13592 -3.875,3.5 -0.25575,0.68204 -0.2543,1.43978 -0.0312,2.09375 0.22305,0.65397 0.61861,1.20951 1.125,1.71875 1.01279,1.01849 2.45161,1.88061 4.15625,2.71875 3.40928,1.67628 7.90627,3.21059 11.875,4.75 3.96873,1.53941 7.43492,3.2291 8.4375,4.4375 0.416,0.5014 0.60932,0.90662 0.65625,1.15625 0.0469,0.24963 0.006,0.35773 -0.125,0.5625 -0.26227,0.40954 -1.22201,1.04664 -2.75,1.53125 -3.05598,0.96921 -8.1333,1.52922 -13.5,1.9375 -5.3667,0.40828 -11.04968,0.68141 -15.53125,1.1875 -2.24078,0.25305 -4.15324,0.56164 -5.65625,1 -0.7515,0.21918 -1.42202,0.47442 -1.96875,0.8125 -0.54673,0.33808 -1.64617,1.60625 -1.94109,2.25129 -0.8856,1.93689 -1.31952,2.86203 -0.49668,4.63984 0.82284,1.77781 1.35889,3.62568 3.19082,5.01973 3.66385,2.78809 6.59812,5.47001 12.77822,7.30466 12.3602,3.6693 28.61364,6.79408 40.12465,8.30687 9.54504,1.2544 22.71709,3.14159 33.65957,4.66104 10.94248,1.51945 20.68661,2.82873 28.24342,3.95798 0.54408,0.19044 24.74989,4.59565 24.90373,4.04011 0.15384,-0.55553 -23.05435,-7.15871 -23.61889,-7.27527 -5.20299,-1.45232 -15.03316,-3.00841 -26,-4.53125 -10.96684,-1.52284 -23.03259,-2.99758 -32.5625,-4.25 -11.497,-1.51094 -27.10889,-3.68627 -39.21875,-7.28125 -6.05493,-1.79749 -11.24036,-3.96447 -14.53125,-6.46875 -1.64545,-1.25214 -2.80876,-2.57906 -3.4375,-3.9375 -0.62874,-1.35844 -0.74134,-2.75595 -0.28125,-4.375 -0.009,0.031 0.0224,-0.10187 0.3125,-0.28125 0.29009,-0.17938 0.7658,-0.37571 1.40625,-0.5625 1.28089,-0.37358 3.15992,-0.69089 5.34375,-0.9375 4.36766,-0.49323 10.0305,-0.74491 15.4375,-1.15625 5.407,-0.41134 10.54232,-0.93464 14,-2.03125 1.72884,-0.54831 3.82739,-1.20397 4.59734,-2.40625 0.38497,-0.60114 0.42392,-1.78069 0.28586,-2.51512 -0.13806,-0.73443 -0.58721,-1.20114 -1.15394,-1.88422 -1.72259,-2.07624 -5.79928,-3.32117 -9.82301,-4.88191 -4.02373,-1.56074 -8.51185,-3.11072 -11.71875,-4.6875 -1.60345,-0.78839 -2.88819,-1.57172 -3.59375,-2.28125 -0.35278,-0.35477 -0.54201,-0.69418 -0.625,-0.9375 -0.083,-0.24332 -0.0952,-0.40245 0,-0.65625 0.19034,-0.5076 1.00453,-1.40129 2.875,-2.375 1.87047,-0.97371 4.7109,-2.02491 8.6875,-3.15625 0.54814,-0.0982 0.95755,-0.68623 0.85937,-1.23437 -0.0982,-0.54815 -0.68623,-0.95755 -1.23437,-0.85938 z"
       id="path4083"
       inkscape:connector-curvature="0"
       sodipodi:nodetypes="ccsscssssccssssssssssscscsssssccssssssssssccscscc" />
  </g>
</svg>
