<?xml version="1.0" encoding="utf-8"?>
<!-- Generator: Adobe Illustrator 22.0.1, SVG Export Plug-In . SVG Version: 6.00 Build 0)  -->
<svg version="1.1" baseProfile="tiny" id="Ebene_1" xmlns="http://www.w3.org/2000/svg" xmlns:xlink="http://www.w3.org/1999/xlink"
	 x="0px" y="0px" viewBox="0 0 161.4 56.6" xml:space="preserve">
<g>
	<path fill-rule="evenodd" fill="#E3001F" d="M1.7,24.2l-0.3,9.2c0,0,0.1,2.9,0.1,6.4c0.1,3.5,0.1,7.5-0.1,9.3
		c-0.1,1.8-0.1,5.4-0.1,5.4L1.4,55l0.9,0c0,0,5.1,0,5.5,0.1c2.5,0.2,15,0.3,26.3,0.2c2,0,3.9-0.1,5.9-0.1c1.1,0,2.2,0.1,3.3,0.1
		c5.2,0.1,10.6,0.1,15.8-0.1c2.8-0.1,5.9-0.3,8.6,0c2,0.2,4,0,6,0.2c1.4,0.1,4.2,0,5.6-0.2c0.7-0.1,5.2,0,5.4,0
		c0.8-0.1,1.5-0.1,2.1-0.2c2.1,0,4.3,0,6.4,0c0.8,0,1.7,0.1,2.9,0c0.8,0,1.6,0,2.4,0c5.8,0,10.3,0,11,0c2.4,0,20.2,0.2,23.3,0.4
		c3.1,0.1,7.3,0.4,11.1,0.3c5.3-0.1,16.3-0.1,16.3-0.1l0-1.2l0,0c0.4-0.5,0-3,0.2-3.9c0.4-1.6,0.2-3.3-0.1-4.9l0.1-6.3
		c0,0-0.1-5.2-0.2-11.3c-0.1-6.2-0.1-13.3,0-16.5c0.1-3.1,0.3-9.7,0-9.9c-0.3-0.2-17.3-0.3-20.7-0.3c-7.1,0-14.7,0.3-21.7,0.1
		c-5.2-0.1-11.1-0.8-16.4-0.5c-2.8,0.2-5,0.2-7.8,0.2c-1.6,0-4.8,0.3-6.7,0.1c-1.4-0.1-4.2-0.4-5.6,0c-0.7,0.2-6.1,0-6.3,0
		C67.7,1.3,67,1.3,64.4,1.3c-3.6,0-6.1-0.4-9.6-0.1c-2.3,0.2-6.8,0.2-9,0.4c-3.2,0.2-7.1,0-9.7,0c-3.3,0-6.9,0.1-10.2-0.1
		c-5.9-0.4-9.5,0.2-15.4-0.3C8,1.1,1.8,0.9,1.5,1.6c-0.4,1,0,5.2-0.2,6.8c-0.6,5,0.4,10,0.5,15.3C1.7,23.7,1.7,24.2,1.7,24.2z"/>
	<path fill="#FFFFFF" d="M23.5,5.5c3,0,6,0.1,8.5,0.2c2.8,0.1,19.4,0.3,21.9,0.2l0.1,0c0.5,0,3.3,0,7.3,0c1,0,2,0,3.1,0
		c0.8,0,1.5,0,2.3,0c0.1,0,0.3,0,0.4,0c1,0,1.7,0,2.3,0c2,0,4,0,6,0c0.6,0,1.2-0.1,2-0.1l0.1,0c0.5,0,2.2,0,3.5,0
		c0.7,0,1.3,0,1.6-0.1c0.9-0.1,2.5-0.2,3.8-0.2c0.6,0,1.1,0,1.5,0c1.9,0.1,3.8,0,5.7,0.1c1,0.1,2.1,0.1,3.1,0.1c1.7,0,3.4-0.1,5-0.1
		c2.2-0.1,4.4-0.1,6.7-0.1c2.8,0,5.6,0,8.3,0c1,0,2.1,0,3.1,0c1.9,0,3.7-0.1,5.6-0.1c3,0,6.1-0.1,9.1-0.1c7.5,0,14.1,0,15.8,0.2
		c0.4,0,6.6,0.2,6.6,0.2s-0.4,3.4-0.5,4.9c-0.1,1.5-0.1,4.9,0,7.8c0.1,2.9,0.1,5.4,0.1,5.4s-0.3,7.8-0.5,7.8c0.1,4.5,1.2,9,0.6,13.3
		c-0.2,1.4,0.2,5-0.2,5.8c-0.1,0.3-1.8,0.4-3.7,0.4c-1.7,0-3.7-0.1-4.8-0.1c-1.8-0.1-3.4-0.1-4.9-0.1c-1.7,0-3.3,0.1-5.1,0.1
		c-1.4,0-3,0-4.7-0.1c-1.9-0.1-4-0.1-6.1-0.1c-1.1,0-2.1,0-3.1,0c-0.1,0-0.3,0-0.4,0c-1.6,0-3.6,0-5.7,0c-1.2,0-2.4,0-3.4,0.1
		c-2.1,0.1-6.4,0.2-8.5,0.3c-0.9,0.1-1.7,0.1-2.4,0.1c-2.1,0-4-0.1-6.4-0.1c-0.1,0-0.2,0-0.3,0c-2.5,0-3.2,0-10,0.2h0
		c-0.3,0-2.4-0.1-4.1,0c-0.9,0-1.7,0-1.9,0.1c-0.5,0.1-1.3,0.2-2.1,0.2c-1.2,0-2.4-0.1-3.2-0.2c-0.2,0-0.4,0-0.7,0
		c-1.4,0-3.2,0.3-4.6,0.3c-0.4,0-0.7,0-1-0.1c-1.1-0.2-2.1-0.2-3.1-0.2c-1.4,0-2.8,0.1-4.3,0.2c-0.9,0-1.7,0.1-2.6,0.1
		c-4.2,0-8.8-0.4-12.9-0.5c-1.7,0-3.4,0-5.1,0c-4.5,0-9.1,0.1-13.5,0.2c-0.6,0-1.3,0-1.9,0C22.4,51.3,6,50.8,6,50.8s0-5.4,0.1-8.1
		c0.1-2.7,0.1-8.6,0-13.9c-0.1-5.1-0.2-9.5-0.2-9.5L6,14c-0.2-1.4-0.4-2.8-0.1-4.2c0.2-0.8-0.2-2.8,0.2-3.3l0,0l0-1c0,0,3,0,6.5,0
		c3.1,0,6.5,0,8.9-0.1C22.1,5.5,22.8,5.5,23.5,5.5 M23.5,4.5c-0.7,0-1.4,0-2,0c-1.9,0-4.9,0.1-8.8,0.1c-3.5,0-6.5,0-6.5,0l-1,0l0,1
		l0,0.7C4.9,6.8,4.9,7.5,4.9,8.4c0,0.4,0,1,0,1.2c-0.4,1.5-0.2,3,0,4.5l-0.1,5.2c0,0.1,0.1,4.5,0.2,9.5c0.1,6.9,0.1,11.7,0,13.8
		C5,45.3,5,50.6,5,50.8l0,1l1,0c0.7,0,16.5,0.5,19.7,0.5c0.6,0,1.3,0,1.9,0c2.2,0,4.5,0,6.7-0.1c2.2,0,4.5-0.1,6.8-0.1
		c1.9,0,3.6,0,5.1,0c1.7,0,3.5,0.1,5.4,0.2c2.5,0.1,5,0.3,7.5,0.2c1,0,1.8,0,2.7-0.1c0.4,0,0.8,0,1.2-0.1c1.1-0.1,2.1-0.1,3.1-0.1
		c1.1,0,2,0.1,3,0.2c0.4,0.1,0.7,0.1,1.2,0.1c0.8,0,1.6-0.1,2.4-0.2c0.8-0.1,1.5-0.2,2.2-0.2c0.2,0,0.4,0,0.6,0
		c0.7,0.1,2.1,0.2,3.3,0.2c1,0,1.8-0.1,2.3-0.2c0,0,0.3,0,1.6-0.1c1.2,0,2.7,0,3.4,0c0.3,0,0.6,0,0.6,0c6.1-0.2,7.3-0.2,9.2-0.2
		l0.8,0l0.3,0c1.2,0,2.3,0,3.3,0.1c1,0,2,0.1,3.1,0.1c0.9,0,1.7,0,2.5-0.1c1.1-0.1,2.9-0.1,4.6-0.2c1.5,0,2.9-0.1,3.9-0.1
		c0.9-0.1,2.1-0.1,3.4-0.1c1.1,0,2.2,0,3.3,0c0.9,0,1.7,0,2.4,0l0.4,0l1.5,0l1.6,0c1.9,0,4.1,0,6,0.1c1.5,0.1,3,0.1,4.7,0.1
		c0.9,0,1.7,0,2.5,0c0.8,0,1.7,0,2.5,0c1.8,0,3.2,0,4.8,0.1c1.2,0.1,3.1,0.2,4.8,0.1c3.6,0,4.3-0.3,4.6-1c0.3-0.6,0.3-1.8,0.2-3.6
		c0-1-0.1-2,0-2.5c0.4-2.8,0.1-5.7-0.2-8.5c-0.2-1.6-0.3-3.2-0.4-4.8c0.1-0.3,0.1-0.7,0.1-1.2c0.1-0.7,0.1-1.7,0.2-2.7
		c0.1-1.9,0.2-3.9,0.2-3.9l0,0l0,0c0,0-0.1-2.5-0.1-5.3c-0.1-3.9-0.1-6.5,0-7.7c0.1-1.5,0.5-4.8,0.5-4.9l0.1-1.1l-1.1,0
		c-2.4-0.1-6.2-0.2-6.5-0.2c-1.7-0.1-8.3-0.2-15.9-0.2c-3.1,0-6.2,0-9.1,0.1c-1.4,0-2.9,0.1-4.3,0.1l-1.3,0l-0.9,0
		c-0.7,0-1.5,0-2.2,0l-0.2,0c-2.7,0-5.4,0-8.1,0c-2.5,0-4.7,0.1-6.7,0.1l-1.2,0c-1.2,0-2.5,0.1-3.8,0.1c-1.2,0-2.2,0-3.1-0.1
		c-1.1-0.1-2.2-0.1-3.3-0.1c-0.8,0-1.6,0-2.4,0c-0.4,0-1,0-1.6,0c-0.6,0-2.7,0-4,0.2c0,0-0.3,0-1.4,0c-0.8,0-1.7,0-2.5,0
		c-0.4,0-0.8,0-1,0c-0.1,0-0.2,0-0.2,0c-0.7,0.1-1.4,0.1-1.9,0.1c-2,0-4,0-6,0c-0.8,0-1.5,0-2.3,0l-0.4,0c-0.8,0-1.5,0-2.3,0l-3.1,0
		c-3.3,0-5.8,0-6.8,0l-0.4,0l-0.1,0c-2.4,0-19-0.1-21.9-0.2l-1.4-0.1C28.4,4.5,25.9,4.4,23.5,4.5z"/>
	<path fill="#FFFFFF" d="M29.7,25.7c0.6,0,1.1,0.5,1.1,1.1c0,0.2,0,0.4,0,0.8c0,0.3,0,0.7,0,1.4l0,0.8c0,1.5-0.4,2-1.4,2.1l-0.9,0
		l-0.9-0.1l-0.6,0c-1.1,0-1.4,0.4-1.4,2.6l0,0.6c0,1,0,1.6,0,1.7l-0.1,1.9c0,0.2,0,0.6,0.1,1.2c0,0.2,0,0.4,0,0.6
		c0,1-0.4,1.5-1.3,1.5l-0.1,0l-2-0.1c-0.5,0-0.9,0-1.3,0c-0.3,0-0.6,0-0.8,0c-0.7,0-1.2-0.5-1.2-1.3c0-0.2,0-0.4,0-0.7
		c0.1-0.7,0.1-1.4,0.1-2L19,35.7l0-0.4l0-2.3c0-1.6,0-2.5,0-2.7l0.1-2.9c0-0.4,0-1.3-0.1-2.8c0-0.9-0.1-1.8-0.1-2.5l0.1-1.9
		c0-0.4,0-0.8,0-1.4c0-0.6-0.1-1-0.1-1.3c0-1.3,0.6-1.9,1.8-1.9l2,0l3.1-0.1l1.1,0.1c0.6,0,1.3,0,2-0.1c0.4,0,0.7-0.1,1.1-0.1
		c0.7,0,1.1,0.1,1.3,0.4c0.2,0.2,0.2,0.5,0.2,1.6l0,1.1c0,0.6,0,1.2,0,1.6c0,0.1,0,0.2,0,0.4c0,0.7-0.5,1.2-1.2,1.2
		c-0.1,0-0.4,0-1.1,0c-0.1,0-0.4,0-1,0c-0.3,0-0.6,0-0.9,0l-0.3,0c-1.1,0-1.5,0.2-1.5,1l0,0.9l0,1.1c0,0.7,0.5,1,1.6,1l0.3,0l0.7,0
		l0.7,0L29.7,25.7z"/>
	<path fill="#FFFFFF" d="M33.8,19.7c0-0.4,0-0.9,0-1.4c0-0.4,0-0.8,0-1.1c0-1.2,0.3-1.5,1.4-1.5l0.5,0l1,0.1c0.4,0,0.9,0,1.5-0.1
		c0.5-0.1,0.8-0.1,1.1-0.1c0.8,0,1.3,0.4,1.3,1.1c0,0.2,0,0.4,0,0.7c-0.1,0.7-0.1,1.9-0.1,3.1l0,0.5l0.1,2.3l0,2.4l0,1.9l0,2.7
		l0.1,2.1l0,1c0,1.2,0.7,2,1.8,2l0.7,0l0.9,0c0.1,0,0.4,0,0.9,0l0.3,0c1.2,0,1.5,0.4,1.5,2.7l0,0.6l-0.1,1.7c0,1.2-0.3,1.5-1.4,1.5
		c-0.2,0-0.4,0-0.6,0c-0.6-0.1-1.1-0.1-1.3-0.1l-1,0.1l-1.5,0l-1.5,0c-0.1,0-0.7,0-1.7,0c-0.6,0-1,0-1.3,0c-0.7,0-1.1,0.1-1.1,0.1
		c-1.1,0-1.5-0.5-1.5-1.9c0-0.4,0-0.9,0.1-1.4c0.1-0.9,0.1-1.6,0.1-1.9L33.8,35l0-1.1l-0.1-1.8c0-0.3,0-0.8,0.1-1.5
		c0-0.6,0.1-1.1,0.1-1.4l-0.1-2.2l0-1.9l-0.1-2.5L33.8,19.7z"/>
	<path fill="#FFFFFF" d="M49.8,31.3c0-0.6,0.2-1.3,0.3-2.1c0.2-1,0.3-1.7,0.4-2.1l0.2-1.7c0-0.2,0.1-0.7,0.3-1.4
		c0.2-0.5,0.3-1.1,0.4-1.9c0.2-1,0.2-1.8,0.3-2.4c0.1-1,0.1-1.7,0.2-2c0.1-0.5,0.5-1.3,0.8-1.6c0.4-0.4,0.9-0.6,2.2-0.6
		c0.2,0,0.5,0,0.7,0l1.9,0.1c0.6,0,1.3,0,2,0c0.6,0,0.9-0.1,1.3-0.1c0.5,0,0.6,0,1,0.2c0.3,0.1,0.6,0.3,0.8,0.5
		c0.3,0.4,0.4,0.6,0.4,1.8c0,0.4,0.1,0.9,0.2,1.6c0.1,0.5,0.1,0.8,0.2,1.1c0.2,1.7,0.4,2.8,0.4,3.1l0.5,2.7l0.4,2l0.4,2.1l0.2,1.9
		c0.2,1.4,0.6,3.8,1.1,6.1c0.1,0.7,0.2,1.4,0.2,1.7c0,0.9-0.5,1.5-1.1,1.5c-0.2,0-0.5,0-0.7,0c-0.4,0-0.9-0.1-1.6,0l-1.9,0l-0.1,0
		c-1.1,0-1.4-0.2-1.4-1.5c-0.1-1.6-0.6-2.2-1.7-2.2l-0.2,0l-0.6,0c-0.1,0-0.3,0-0.5,0l-0.5,0c-0.8,0-1.2,0.7-1.2,1.9
		c0,1.5-0.3,1.8-1.7,1.8l-0.6,0c-0.7,0-1.2,0-1.6,0c-0.5,0-0.9,0-1.3,0l-0.2,0c-0.9,0-1.3-0.3-1.3-1.1l0.3-1.8l0.4-2.4l0.5-2.6
		L49.8,31.3z M56.1,28.9c0,0.2,0,0.3,0,0.5c0,1,0.6,1.6,1.5,1.6c0.7,0,1.1-0.5,1.1-1.5c0-0.7-0.1-2-0.3-2.8L58.1,25
		c-0.1-0.5-0.2-0.9-0.2-1.3c0-0.5-0.2-0.7-0.4-0.7c-0.2,0-0.4,0.2-0.4,0.6c-0.1,0.4-0.2,0.8-0.3,1.5l-0.1,0.4l-0.2,1.2l-0.2,1.1
		L56.1,28.9z"/>
	<path fill="#FFFFFF" d="M78.6,34.3c0.2,0.2,0.7,0.3,1.1,0.3c0.2,0,0.4,0,0.6-0.1c0.2,0,0.3,0,0.4,0c0.6,0,0.9,0.4,0.9,1.3
		c0,0.1,0,0.3,0,0.4c0,0.6,0,1.1,0,1.8c0,0.6,0,1.1,0.1,1.5c0,0.4,0.1,0.7,0.1,0.9c0,0.9-0.5,1.4-1.5,1.4l-1.4,0
		c-1.2,0-1.4,0-2.7-0.3c-1.7-0.4-2.3-0.7-3.2-1.4c-0.7-0.7-1.7-1.8-2.2-2.5c-0.3-0.4-0.6-1-0.9-1.8c-0.8-1.7-0.9-2.3-1-4.7l-0.2-2.9
		l0-0.5c0-1,0.2-2.8,0.5-4.4c0.5-2.4,1.2-3.9,2.5-5c0.3-0.3,0.7-0.6,1.4-1.1c0.7-0.6,1.3-0.9,1.7-1.2c0.9-0.5,3-0.9,4.6-0.9
		c1.5,0,2,0.3,2.1,1.4c0,0.2,0,0.4,0,0.6c0,0.3,0,0.7,0,1.4c0,0.9,0.1,2,0.1,2.5l0,0.4c0,0.9-0.4,1.4-1.1,1.4c-0.1,0-0.3,0-0.7-0.1
		c-0.2,0-0.4,0-0.6,0c-0.9,0-2.2,0.8-2.7,1.7c-0.5,0.9-0.8,2.9-0.8,4.7c0,2.1,0.8,4.3,1.8,4.8l0.6,0.3L78.6,34.3z"/>
	<path fill="#FFFFFF" d="M85.4,34c0-0.7,0-1.4-0.1-2.1c0-1.1-0.1-1.8-0.1-2c0-0.4,0-1,0.1-1.7c0.1-1,0.1-1.7,0.1-2
		c0-0.4,0-1.1-0.1-2.1c0-0.7-0.1-1.3-0.1-1.8c0-0.4,0-1,0.1-1.8c0-0.6,0-1,0-1.4c0-0.3,0-0.8,0-1.6c0-0.3,0-0.5,0-0.7
		c0-0.9,0.4-1.4,1.1-1.4l0.1,0l0.8,0.1l1.4,0l1.7-0.1c0.1,0,0.2,0,0.3,0c1,0,1.4,0.3,1.4,1.2c0,0.2,0,0.5-0.1,0.9
		c-0.2,0.9-0.2,1.1-0.2,1.3c0,0.2,0,0.7,0.1,1.4c0,0.6,0,1.1,0,1.5c-0.1,0.7-0.1,1.2-0.1,1.3c0,1,0.6,1.7,1.5,1.7c1.3,0,2-0.8,2-2.5
		c0-0.1,0-0.2,0-0.3l-0.1-1.8l0-1.8c0-0.2,0-0.6-0.1-1c0-0.2,0-0.4,0-0.6c0-0.9,0.4-1.3,1.3-1.3c0.2,0,0.4,0,0.7,0
		c0.7,0.1,1.2,0.1,1.7,0.1l1.4-0.1l0.2,0c1.2,0,1.6,0.5,1.6,1.8c0,0.3,0,0.6,0,0.8c0,0.6-0.1,1.1-0.1,1.5l0,2.4l-0.1,2.1l0.1,3.2
		l-0.1,3.3c0,1.1,0,2,0.1,2.8c0.1,1.6,0.2,2.5,0.2,2.7l-0.1,1.8L102,40c0,0.8-0.6,1.3-1.5,1.3c-0.2,0-0.4,0-0.6,0
		c-0.7,0-1.1-0.1-1.3-0.1c-0.2,0-0.6,0-1.1,0.1c-0.3,0-0.6,0-0.8,0c-1.1,0-1.4-0.3-1.4-1.4c0-0.1,0-0.2,0-0.3l0.1-1.3
		c0-0.1,0-0.9,0-2.4c0-0.4,0-0.9,0-1.3c0-0.5,0.1-0.9,0.1-1.1c0-1.3-0.9-2.2-2-2.2c-0.7,0-1.3,0.4-1.5,1c-0.1,0.2-0.1,0.7-0.2,1.3
		c0,0.4,0,0.8,0,1.1l0,0.5l0.1,1.6c0,0.3,0,0.7,0,1.1c-0.1,0.6-0.1,1-0.1,1.3c0,0.5,0,0.7,0,0.9c0,0.7-0.5,1.2-1.1,1.2
		c-0.2,0-0.4,0-0.7,0c-0.4,0-0.8-0.1-1.4-0.1c-0.4,0-0.9,0-1.3,0.1c-0.3,0-0.6,0-0.8,0c-1,0-1.4-0.5-1.4-1.5c0-0.2,0-0.6,0.1-0.9
		c0.1-1,0.1-1.6,0.1-1.7l0-1.4L85.4,34z"/>
	<path fill="#FFFFFF" d="M106.4,31c0-0.6,0.2-1.3,0.3-2.1c0.2-1,0.3-1.7,0.4-2.1l0.2-1.7c0-0.2,0.1-0.7,0.3-1.4
		c0.2-0.5,0.3-1.1,0.4-1.9c0.2-1,0.2-1.8,0.3-2.4c0.1-1,0.1-1.7,0.2-2c0.1-0.5,0.5-1.3,0.8-1.6c0.4-0.4,0.9-0.6,2.2-0.6
		c0.2,0,0.5,0,0.7,0l1.9,0.1c0.6,0,1.3,0,2,0c0.6,0,0.9-0.1,1.3-0.1c0.5,0,0.6,0,1,0.2c0.3,0.1,0.6,0.3,0.8,0.5
		c0.3,0.4,0.4,0.6,0.4,1.8c0,0.4,0.1,0.9,0.2,1.6c0.1,0.5,0.1,0.8,0.2,1.1c0.2,1.7,0.4,2.8,0.4,3.1l0.5,2.7l0.4,2l0.4,2.1l0.2,1.9
		c0.2,1.4,0.6,3.8,1.1,6.1c0.1,0.7,0.2,1.4,0.2,1.7c0,0.9-0.5,1.5-1.1,1.5c-0.2,0-0.5,0-0.7,0c-0.4,0-0.9-0.1-1.6,0l-1.9,0l-0.1,0
		c-1.1,0-1.4-0.2-1.4-1.5c-0.1-1.6-0.6-2.2-1.7-2.2l-0.2,0l-0.6,0c-0.1,0-0.3,0-0.5,0l-0.5,0c-0.8,0-1.2,0.7-1.2,1.9
		c0,1.5-0.3,1.8-1.7,1.8l-0.6,0c-0.7,0-1.2,0-1.6,0c-0.5,0-0.9,0-1.3,0l-0.2,0c-0.9,0-1.3-0.3-1.3-1.1l0.3-1.8l0.4-2.4l0.5-2.6
		L106.4,31z M112.7,28.6c0,0.2,0,0.3,0,0.5c0,1,0.6,1.6,1.5,1.6c0.7,0,1.1-0.5,1.1-1.5c0-0.7-0.1-2-0.3-2.8l-0.3-1.7
		c-0.1-0.5-0.2-0.9-0.2-1.3c0-0.5-0.2-0.7-0.4-0.7c-0.2,0-0.4,0.2-0.4,0.6c-0.1,0.4-0.2,0.8-0.3,1.5l-0.1,0.4l-0.2,1.2l-0.2,1.1
		L112.7,28.6z"/>
	<path fill="#FFFFFF" d="M142.7,35.4c0,1.9-1.3,3.8-3.4,5c-1.5,0.8-2.4,1.1-4.8,1.1c-2.6,0-3.5-0.2-5.2-1.1
		c-2.4-1.2-3.2-2.8-3.3-6.2c0-0.6,0-1.1,0-1.7c0-1.2,0.1-2.1,0.1-2.6c0-0.4,0-1.6-0.2-3.5c0-1.1-0.1-2-0.1-2.7l0.1-2.7
		c0-0.3,0-1,0-2c0-0.5,0-1,0-1.4c0-0.5,0-0.9,0-1.4c0-0.9,0.4-1.3,1.2-1.3l1.1,0l1.2,0l1.5-0.1l0.2,0c1.1,0,1.6,0.4,1.6,1.3
		c0,0.4,0,0.8-0.1,1.5c0,0.6,0,1.4,0,2.2c0,0.8,0.1,1.3,0,1.6l-0.1,1.1l0,2l-0.1,2.5l0.1,2l0,1.5l-0.1,1.8l0,0.3
		c0,1.8,0.5,2.5,1.7,2.5c1.3,0,1.9-0.8,1.9-2.7l0-1.6l0-1.5l0.1-1.7c0-0.2,0-1-0.1-2.5l-0.1-2.9c0-0.7,0-1.2,0-1.5l0.1-1.8l-0.1-1.7
		l0-0.4c0-1.5,0.4-2.1,1.3-2.1c0.2,0,0.4,0,0.6,0c0.6,0.1,1.2,0.1,1.9,0.1c1,0,1.6-0.1,1.7-0.1c0.9,0,1.3,0.4,1.3,1.4
		c0,0.2,0,1-0.1,1.8c0,1-0.1,1.8,0,2.2l0.1,3.3l-0.1,3.5c0,0.6,0,1.5,0.1,2.7c0.1,1.1,0.1,1.9,0.1,2.4l-0.1,1.7L142.7,35.4z"/>
</g>
</svg>
