<?xml version="1.0" encoding="utf-8"?>
<!-- Generator: Adobe Illustrator 21.0.0, SVG Export Plug-In . SVG Version: 6.00 Build 0)  -->
<svg version="1.1" id="Vrstva_1" xmlns="http://www.w3.org/2000/svg" xmlns:xlink="http://www.w3.org/1999/xlink" x="0px" y="0px"
	 viewBox="0 0 795.1 552.5" style="enable-background:new 0 0 795.1 552.5;" xml:space="preserve">
<style type="text/css">
	.st0{fill:#FFFFFF;}
	.st1{fill-rule:evenodd;clip-rule:evenodd;fill:#BCBDBF;}
	.st2{fill-rule:evenodd;clip-rule:evenodd;fill:#D93832;}
	.st3{fill-rule:evenodd;clip-rule:evenodd;fill:#0C5AA4;}
	.st4{fill-rule:evenodd;clip-rule:evenodd;fill:#FFFFFF;stroke:#0C5AA4;stroke-width:7.4936;stroke-miterlimit:3.8637;}
	.st5{fill-rule:evenodd;clip-rule:evenodd;fill:#0B5BA5;}
	.st6{fill:#221F20;}
	.st7{fill:#0C5AA4;}
</style>
<g id="Hintergrund">
</g>
<g id="Hilfslinien">
</g>
<path class="st0" d="M0,1.4v469.7c0,44,36,80,80,80h635c44,0,80-36,80-80V1.4H0z"/>
<g>
	<g>
		<g>
			<g>
				<path class="st1" d="M176.6,334.5l20.2-53.6l19.2,53.6L176.6,334.5z M130.3,397.6l55.7-145.5h20.6l56.1,145.5h-23.4l-16.7-41.8
					H169l-16.3,41.8H130.3z"/>
				<path class="st1" d="M297,333.7v-41.5h18.4c0,0,21.1-1.9,21.1,19.8c0,21.3-22.5,21.5-22.5,21.5L297,333.7z M280.1,387.7V275.9
					h35.3c0,0,36.8-1.7,37.4,37.1c0.4,31.5-31.1,31.3-31.1,31.3l30.9,42.6h-20.7l-34.6-50.3l0.2,51H280.1z"/>
				<path class="st1" d="M408.5,371.8v-35.7h13.1c0,0,19.4-2.4,19.6,18.2c0.2,18.6-20.3,17.4-20.3,17.4H408.5z M408.1,322.1v-29.5
					l12.2,0c0,0,15.4-0.5,15.4,14.6c-0.1,14.9-13.3,14.9-13.3,14.9L408.1,322.1z M391.5,387.7V276h29.9c0,0,31.3,1.3,30.9,30.1
					c-0.3,17.8-11.1,20.3-11.1,20.3v1.3c0,0,18.1,6,16.7,29.5c-1.9,30.4-33.6,30.4-33.6,30.4H391.5z"/>
				<path class="st1" d="M614.7,333.7v-41.5h18.4c0,0,21.1-1.9,21.1,19.8c0,21.3-22.5,21.5-22.5,21.5L614.7,333.7z M597.8,387.7
					V275.9h35.3c0,0,36.8-1.7,37.4,37.1c0.4,31.5-31.1,31.3-31.1,31.3l30.9,42.6h-20.7L615,336.6l0.2,51H597.8z"/>
				<g>
					<polygon class="st1" points="496.5,386.9 496.5,276 553.7,276 553.7,292.4 513.2,292.4 513.2,324.2 553.7,324.2 553.7,340 
						513.4,340 513.4,371 553.7,371 553.7,386.9 					"/>
				</g>
			</g>
			<g>
				<path class="st2" d="M170.8,332.6L191,279l19.2,53.6L170.8,332.6z M124.6,395.7l55.7-145.5h20.6L257,395.7h-23.4l-16.7-41.8
					h-53.6l-16.3,41.8H124.6z"/>
				<path class="st2" d="M291.2,331.8v-41.5h18.4c0,0,21.1-1.9,21.1,19.8c0,21.3-22.5,21.5-22.5,21.5L291.2,331.8z M274.3,385.8V274
					h35.3c0,0,36.8-1.7,37.4,37.1c0.4,31.5-31.1,31.3-31.1,31.3l30.9,42.6h-20.7l-34.6-50.3l0.2,51H274.3z"/>
				<path class="st2" d="M402.8,369.9v-35.7h13.1c0,0,19.4-2.4,19.6,18.2c0.2,18.6-20.3,17.4-20.3,17.4H402.8z M402.4,320.2v-29.5
					l12.2,0c0,0,15.4-0.6,15.4,14.6c-0.1,14.9-13.3,14.9-13.3,14.9L402.4,320.2z M385.8,385.8V274.1h29.9c0,0,31.3,1.3,30.9,30.1
					c-0.3,17.8-11.1,20.3-11.1,20.3v1.3c0,0,18.1,6,16.7,29.5c-1.9,30.4-33.6,30.4-33.6,30.4H385.8z"/>
				<path class="st2" d="M609,331.8v-41.5h18.4c0,0,21.1-1.9,21.1,19.8c0,21.3-22.5,21.5-22.5,21.5L609,331.8z M592.1,385.8V274
					h35.3c0,0,36.8-1.7,37.4,37.1c0.4,31.5-31.1,31.3-31.1,31.3l30.9,42.6h-20.7l-34.6-50.3l0.2,51H592.1z"/>
				<g>
					<polygon class="st2" points="490.7,385 490.7,274 548,274 548,290.5 507.5,290.5 507.5,322.3 548,322.3 548,338.1 507.7,338.1 
						507.7,369.1 548,369.1 548,385 					"/>
				</g>
			</g>
			<g>
				<path class="st3" d="M294.2,209.5L446.8,88.8c0,0,20.3-13.7,37.5,5c3.8,4.1,69.6,99.5,69.6,99.5l29.6-22l5.5,8l-69.1,51.6
					c0,0-15.8,10.9-24.5,1.3c-0.5-0.5-7.6-10.9-12.9-18.7c-3.2-4.7-5.7-8.4-5.7-8.4l-0.8-1.3l-44-69.5c0,0-6.5-12.3-15.7-5.4
					c-2.8,2.1-114.6,90-114.6,90L294.2,209.5z"/>
				<path class="st4" d="M223.4,215.3l131.9-104.5c0,0,20.3-13.7,37.5,5c3.8,4.1,69.6,99.5,69.6,99.5l29.6-21.7l5.5,7.7l-69.1,51.6
					c0,0-15.8,10.9-24.5,1.3c-0.8-0.8-18.7-27-18.7-27l-44.8-70.7c0,0-6.5-12.3-15.7-5.4c-2.8,2.1-92,75.3-92,75.3L223.4,215.3z"/>
				<g>
					<polygon class="st5" points="491.3,190.6 498.9,202.8 483.3,214.9 475.1,202.7 					"/>
				</g>
			</g>
		</g>
		<g>
			<path class="st6" d="M578.6,200.9c7.6,0,14.4,5.5,14.4,14c0,8.5-6.8,14-14.4,14c-7.6,0-14.4-5.5-14.4-14
				C564.2,206.4,571,200.9,578.6,200.9z M578.6,225.9c5.8,0,10.6-4.6,10.6-11c0-6.4-4.8-11-10.6-11c-5.9,0-10.6,4.6-10.6,11
				C568,221.3,572.7,225.9,578.6,225.9z M573,207h5.9c3.9,0,6.1,1.2,6.1,4.6c0,2.9-1.8,4-4.1,4.2l4.2,6.9h-3.3L578,216h-1.9v6.7H573
				V207z M576.1,213.6h2.8c1.8,0,3.1-0.3,3.1-2.2c0-1.7-1.8-1.9-3.2-1.9h-2.6V213.6z"/>
		</g>
	</g>
	<g>
		<path class="st7" d="M126,412.9h21.3c8.6,0,14.4,2.7,14.4,11c0,4.3-2.2,7.4-6.1,9.5c5.5,1.3,8.3,5.5,8.3,11c0,9-7.8,12.9-16,12.9
			H126V412.9z M135.9,430.9H146c3.5,0,6.1-1.6,6.1-5.3c0-4.2-3.3-5.1-6.8-5.1h-9.3V430.9z M135.9,449.7h10.6c3.9,0,7.3-1.2,7.3-5.8
			c0-4.5-2.9-6.3-7.2-6.3h-10.8V449.7z"/>
		<path class="st7" d="M170.8,435c0.5-8.3,8-10.7,15.4-10.7c6.5,0,14.4,1.4,14.4,9.1v16.7c0,2.9,0.3,5.8,1.1,7.1h-9
			c-0.4-1-0.7-2-0.8-3.1c-2.9,2.9-7,4-11,4c-6.2,0-11.2-3-11.2-9.6c0-7.3,5.6-9,11.2-9.8c5.5-0.8,10.6-0.6,10.6-4.2
			c0-3.8-2.7-4.3-5.8-4.3c-3.4,0-5.6,1.4-6,4.8H170.8z M191.6,441.6c-1.5,1.3-4.7,1.4-7.5,1.9c-2.8,0.6-5.3,1.5-5.3,4.7
			c0,3.3,2.6,4.1,5.5,4.1c7,0,7.3-5.5,7.3-7.4V441.6z"/>
		<path class="st7" d="M204.4,425.2h9.6l7.4,22h0.1l7.2-22h9.3l-13.7,36.2c-2,5.2-5.1,7.3-11.3,7.3c-1.8,0-3.7-0.1-5.5-0.4v-7.3
			c1.8,0.3,3.6,0.4,5.3,0.4c1.8,0,3.5-1.7,3.5-4c0-0.7-0.1-1.4-0.4-2L204.4,425.2z"/>
		<path class="st7" d="M250.1,443.4c0.3,5.6,3,8.1,8,8.1c3.6,0,6.5-2.2,7.2-4.2h7.9c-2.5,7.6-7.9,10.8-15.3,10.8
			c-10.3,0-16.7-7-16.7-16.9c0-9.6,6.8-17,16.7-17c10.5,0,16,8.6,16,16.3v2.8H250.1z M264.8,437.8c-0.9-4.5-2.9-6.8-7.2-6.8
			c-5.7,0-7.3,4.3-7.5,6.8H264.8z"/>
		<path class="st7" d="M280.6,425.2h8.6v6h0.1c1.6-4,6.1-6.8,10.5-6.8c0.6,0,1.4,0.1,2,0.3v8.2c-0.8-0.2-2.2-0.3-3.2-0.3
			c-6.6,0-8.9,4.7-8.9,10.3v14.5h-9V425.2z"/>
		<path class="st7" d="M307.1,412.9h9v7.3h-9V412.9z M307.1,425.2h9v32.1h-9V425.2z"/>
		<path class="st7" d="M331.8,446.8c0.1,3.9,3.4,5.4,6.9,5.4c2.6,0,5.9-1,5.9-4.1c0-2.7-3.7-3.6-10.2-5c-5.2-1.1-10.4-2.9-10.4-8.6
			c0-8.2,7.2-10.3,14.3-10.3c7.2,0,13.7,2.4,14.4,10.3h-8.6c-0.3-3.4-2.9-4.3-6.1-4.3c-2.9,0-5,0.7-5,3c0,2.4,2.5,3.2,8.6,4.4
			c7.3,1.4,12,3.6,12,9.4c0,8.4-7.5,11.2-15,11.2c-7.6,0-15-2.8-15.4-11.3H331.8z"/>
		<path class="st7" d="M382.7,436.5c-0.6-3.6-2.9-5.5-6.7-5.5c-5.8,0-7.7,5.7-7.7,10.4c0,4.6,1.8,10.1,7.5,10.1
			c4.2,0,6.6-2.6,7.3-6.5h8.6c-1.1,8.5-7.2,13.2-15.8,13.2c-9.9,0-16.5-6.8-16.5-16.5c0-10,6.1-17.4,16.7-17.4
			c7.7,0,14.8,4,15.4,12.2H382.7z"/>
		<path class="st7" d="M398.4,412.9h9v16.7h0.2c2.3-3.6,6.2-5.3,9.6-5.3c9.6,0,12,5.3,12,13.2v19.8h-9v-18.1c0-5.3-1.6-7.9-5.8-7.9
			c-4.9,0-7,2.7-7,9.2v16.8h-9V412.9z"/>
		<path class="st7" d="M444.9,443.4c0.3,5.6,3,8.1,8,8.1c3.6,0,6.5-2.2,7.2-4.2h7.9c-2.5,7.6-7.9,10.8-15.3,10.8
			c-10.3,0-16.7-7-16.7-16.9c0-9.6,6.8-17,16.7-17c10.5,0,16,8.6,16,16.3v2.8H444.9z M459.6,437.8c-0.9-4.5-2.9-6.8-7.2-6.8
			c-5.7,0-7.3,4.3-7.5,6.8H459.6z"/>
		<path class="st7" d="M475.5,425.2h8.6v6h0.1c1.6-4,6.1-6.8,10.5-6.8c0.6,0,1.4,0.1,2,0.3v8.2c-0.8-0.2-2.2-0.3-3.2-0.3
			c-6.6,0-8.9,4.7-8.9,10.3v14.5h-9V425.2z"/>
		<path class="st7" d="M517.7,412.9h9.9l7.2,30.2h0.1l7.9-30.2h9.3l7.7,30.6h0.1l7.5-30.6h9.6l-12.2,44.4H555l-7.6-30.2h-0.1
			l-7.7,30.2h-9.9L517.7,412.9z"/>
		<path class="st7" d="M578,435c0.5-8.3,8-10.7,15.4-10.7c6.5,0,14.4,1.4,14.4,9.1v16.7c0,2.9,0.3,5.8,1.1,7.1h-9
			c-0.4-1-0.7-2-0.8-3.1c-2.9,2.9-7,4-11,4c-6.2,0-11.2-3-11.2-9.6c0-7.3,5.6-9,11.2-9.8c5.5-0.8,10.6-0.6,10.6-4.2
			c0-3.8-2.7-4.3-5.8-4.3c-3.4,0-5.6,1.4-6,4.8H578z M598.8,441.6c-1.5,1.3-4.7,1.4-7.5,1.9c-2.8,0.6-5.3,1.5-5.3,4.7
			c0,3.3,2.6,4.1,5.5,4.1c7,0,7.3-5.5,7.3-7.4V441.6z"/>
		<path class="st7" d="M616.6,412.9h9v44.4h-9V412.9z"/>
		<path class="st7" d="M657.6,453.2h-0.1c-2.1,3.5-5.8,5-9.9,5c-9.9,0-14.7-8.3-14.7-17.2c0-8.6,4.9-16.6,14.5-16.6
			c3.9,0,7.7,1.6,9.8,4.8h-0.1h0.1v-16.2h9v44.4h-8.6V453.2z M649.8,430.9c-5.9,0-7.9,5-7.9,10.2c0,5,2.3,10.3,7.9,10.3
			c6,0,7.7-5.1,7.7-10.4C657.5,435.9,655.6,430.9,649.8,430.9z"/>
	</g>
</g>
</svg>
