<?xml version="1.0" encoding="UTF-8" standalone="no"?>
<!-- Generator: Adobe Illustrator 21.0.0, SVG Export Plug-In . SVG Version: 6.00 Build 0)  -->

<svg
   xmlns:dc="http://purl.org/dc/elements/1.1/"
   xmlns:cc="http://creativecommons.org/ns#"
   xmlns:rdf="http://www.w3.org/1999/02/22-rdf-syntax-ns#"
   xmlns:svg="http://www.w3.org/2000/svg"
   xmlns="http://www.w3.org/2000/svg"
   xmlns:sodipodi="http://sodipodi.sourceforge.net/DTD/sodipodi-0.dtd"
   xmlns:inkscape="http://www.inkscape.org/namespaces/inkscape"
   version="1.1"
   x="0px"
   y="0px"
   viewBox="0 0 841 595"
   style="enable-background:new 0 0 841 595;"
   xml:space="preserve"
   id="svg2"
   inkscape:version="0.48.5 r10040"
   width="100%"
   height="100%"
   sodipodi:docname="grarber_logo_footer.svg"><metadata
   id="metadata94"><rdf:RDF><cc:Work
       rdf:about=""><dc:format>image/svg+xml</dc:format><dc:type
         rdf:resource="http://purl.org/dc/dcmitype/StillImage" /></cc:Work></rdf:RDF></metadata><defs
   id="defs92" /><sodipodi:namedview
   pagecolor="#894343"
   bordercolor="#666666"
   borderopacity="1"
   objecttolerance="10"
   gridtolerance="10"
   guidetolerance="10"
   inkscape:pageopacity="0"
   inkscape:pageshadow="2"
   inkscape:window-width="1465"
   inkscape:window-height="841"
   id="namedview90"
   showgrid="false"
   inkscape:zoom="0.39663866"
   inkscape:cx="420.5"
   inkscape:cy="297.5"
   inkscape:window-x="63"
   inkscape:window-y="-8"
   inkscape:window-maximized="1"
   inkscape:current-layer="svg2" />
<style
   type="text/css"
   id="style4">
	.st0{opacity:0.58;}
	.st1{fill-rule:evenodd;clip-rule:evenodd;fill:#FFFFFF;stroke:#FFFFFF;stroke-miterlimit:10;}
	.st2{fill:#FFFFFF;}
	.st3{fill:#FFFFFF;stroke:#FFFFFF;stroke-miterlimit:10;}
	.st4{display:none;}
</style>
<g
   id="Hintergrund"
   style="fill:#000000">
</g>

<g
   id="Hilfslinien"
   style="fill:#000000">
</g>
<g
   id="Guides"
   class="st4">
</g>
<style
   id="style3216"
   type="text/css">
	.st0{fill:#FFFFFF;}
	.st1{fill-rule:evenodd;clip-rule:evenodd;fill:#BCBDBF;}
	.st2{fill-rule:evenodd;clip-rule:evenodd;fill:#D93832;}
	.st3{fill-rule:evenodd;clip-rule:evenodd;fill:#0C5AA4;}
	.st4{fill-rule:evenodd;clip-rule:evenodd;fill:#FFFFFF;stroke:#0C5AA4;stroke-width:7.4936;stroke-miterlimit:3.8637;}
	.st5{fill-rule:evenodd;clip-rule:evenodd;fill:#0B5BA5;}
	.st6{fill:#221F20;}
	.st7{fill:#0C5AA4;}
</style><g
   id="g3356"
   transform="translate(21.01695,26.292371)">
</g><g
   id="g3358"
   transform="translate(21.01695,26.292371)">
</g><g
   id="g3362"
   transform="translate(21.01695,26.292371)">
	<g
   id="g3364">
		<g
   id="g3366">
			<g
   id="g3368">
				<path
   id="path3370"
   d="m 176.6,334.5 20.2,-53.6 19.2,53.6 -39.4,0 z M 130.3,397.6 186,252.1 h 20.6 l 56.1,145.5 H 239.3 L 222.6,355.8 H 169 l -16.3,41.8 h -22.4 z"
   class="st1"
   inkscape:connector-curvature="0"
   style="fill:#bcbdbf;fill-rule:evenodd" />
				<path
   id="path3372"
   d="m 297,333.7 v -41.5 h 18.4 c 0,0 21.1,-1.9 21.1,19.8 0,21.3 -22.5,21.5 -22.5,21.5 l -17,0.2 z m -16.9,54 V 275.9 h 35.3 c 0,0 36.8,-1.7 37.4,37.1 0.4,31.5 -31.1,31.3 -31.1,31.3 l 30.9,42.6 h -20.7 l -34.6,-50.3 0.2,51 h -17.4 z"
   class="st1"
   inkscape:connector-curvature="0"
   style="fill:#bcbdbf;fill-rule:evenodd" />
				<path
   id="path3374"
   d="m 408.5,371.8 v -35.7 h 13.1 c 0,0 19.4,-2.4 19.6,18.2 0.2,18.6 -20.3,17.4 -20.3,17.4 h -12.4 z m -0.4,-49.7 v -29.5 l 12.2,0 c 0,0 15.4,-0.5 15.4,14.6 -0.1,14.9 -13.3,14.9 -13.3,14.9 l -14.3,0 z m -16.6,65.6 V 276 h 29.9 c 0,0 31.3,1.3 30.9,30.1 -0.3,17.8 -11.1,20.3 -11.1,20.3 v 1.3 c 0,0 18.1,6 16.7,29.5 -1.9,30.4 -33.6,30.4 -33.6,30.4 h -32.8 z"
   class="st1"
   inkscape:connector-curvature="0"
   style="fill:#bcbdbf;fill-rule:evenodd" />
				<path
   id="path3376"
   d="m 614.7,333.7 v -41.5 h 18.4 c 0,0 21.1,-1.9 21.1,19.8 0,21.3 -22.5,21.5 -22.5,21.5 l -17,0.2 z m -16.9,54 V 275.9 h 35.3 c 0,0 36.8,-1.7 37.4,37.1 0.4,31.5 -31.1,31.3 -31.1,31.3 l 30.9,42.6 h -20.7 l -34.6,-50.3 0.2,51 h -17.4 z"
   class="st1"
   inkscape:connector-curvature="0"
   style="fill:#bcbdbf;fill-rule:evenodd" />
				<g
   id="g3378">
					<polygon
   id="polygon3380"
   points="553.7,324.2 553.7,340 513.4,340 513.4,371 553.7,371 553.7,386.9 496.5,386.9 496.5,276 553.7,276 553.7,292.4 513.2,292.4 513.2,324.2 "
   class="st1"
   style="fill:#bcbdbf;fill-rule:evenodd" />
				</g>
			</g>
			<g
   id="g3382">
				<path
   id="path3384"
   d="M 170.8,332.6 191,279 l 19.2,53.6 -39.4,0 z m -46.2,63.1 55.7,-145.5 h 20.6 L 257,395.7 H 233.6 L 216.9,353.9 H 163.3 L 147,395.7 h -22.4 z"
   class="st2"
   inkscape:connector-curvature="0"
   style="fill:#d93832;fill-rule:evenodd" />
				<path
   id="path3386"
   d="m 291.2,331.8 v -41.5 h 18.4 c 0,0 21.1,-1.9 21.1,19.8 0,21.3 -22.5,21.5 -22.5,21.5 l -17,0.2 z m -16.9,54 V 274 h 35.3 c 0,0 36.8,-1.7 37.4,37.1 0.4,31.5 -31.1,31.3 -31.1,31.3 l 30.9,42.6 h -20.7 l -34.6,-50.3 0.2,51 h -17.4 z"
   class="st2"
   inkscape:connector-curvature="0"
   style="fill:#d93832;fill-rule:evenodd" />
				<path
   id="path3388"
   d="m 402.8,369.9 v -35.7 h 13.1 c 0,0 19.4,-2.4 19.6,18.2 0.2,18.6 -20.3,17.4 -20.3,17.4 h -12.4 z m -0.4,-49.7 v -29.5 l 12.2,0 c 0,0 15.4,-0.6 15.4,14.6 -0.1,14.9 -13.3,14.9 -13.3,14.9 l -14.3,0 z m -16.6,65.6 V 274.1 h 29.9 c 0,0 31.3,1.3 30.9,30.1 -0.3,17.8 -11.1,20.3 -11.1,20.3 v 1.3 c 0,0 18.1,6 16.7,29.5 -1.9,30.4 -33.6,30.4 -33.6,30.4 h -32.8 z"
   class="st2"
   inkscape:connector-curvature="0"
   style="fill:#d93832;fill-rule:evenodd" />
				<path
   id="path3390"
   d="m 609,331.8 v -41.5 h 18.4 c 0,0 21.1,-1.9 21.1,19.8 0,21.3 -22.5,21.5 -22.5,21.5 l -17,0.2 z m -16.9,54 V 274 h 35.3 c 0,0 36.8,-1.7 37.4,37.1 0.4,31.5 -31.1,31.3 -31.1,31.3 l 30.9,42.6 h -20.7 l -34.6,-50.3 0.2,51 h -17.4 z"
   class="st2"
   inkscape:connector-curvature="0"
   style="fill:#d93832;fill-rule:evenodd" />
				<g
   id="g3392">
					<polygon
   id="polygon3394"
   points="548,322.3 548,338.1 507.7,338.1 507.7,369.1 548,369.1 548,385 490.7,385 490.7,274 548,274 548,290.5 507.5,290.5 507.5,322.3 "
   class="st2"
   style="fill:#d93832;fill-rule:evenodd" />
				</g>
			</g>
			<g
   id="g3396">
				<path
   id="path3398"
   d="M 294.2,209.5 446.8,88.8 c 0,0 20.3,-13.7 37.5,5 3.8,4.1 69.6,99.5 69.6,99.5 l 29.6,-22 5.5,8 -69.1,51.6 c 0,0 -15.8,10.9 -24.5,1.3 -0.5,-0.5 -7.6,-10.9 -12.9,-18.7 -3.2,-4.7 -5.7,-8.4 -5.7,-8.4 l -0.8,-1.3 -44,-69.5 c 0,0 -6.5,-12.3 -15.7,-5.4 -2.8,2.1 -114.6,90 -114.6,90 l -7.5,-9.4 z"
   class="st3"
   inkscape:connector-curvature="0"
   style="fill:#0c5aa4;fill-rule:evenodd" />
				<path
   id="path3400"
   d="M 223.4,215.3 355.3,110.8 c 0,0 20.3,-13.7 37.5,5 3.8,4.1 69.6,99.5 69.6,99.5 l 29.6,-21.7 5.5,7.7 -69.1,51.6 c 0,0 -15.8,10.9 -24.5,1.3 -0.8,-0.8 -18.7,-27 -18.7,-27 l -44.8,-70.7 c 0,0 -6.5,-12.3 -15.7,-5.4 -2.8,2.1 -92,75.3 -92,75.3 l -9.3,-11.1 z"
   class="st4"
   inkscape:connector-curvature="0"
   style="fill:#ffffff;fill-rule:evenodd;stroke:#0c5aa4;stroke-width:7.49359989;stroke-miterlimit:3.86369991" />
				<g
   id="g3402">
					<polygon
   id="polygon3404"
   points="483.3,214.9 475.1,202.7 491.3,190.6 498.9,202.8 "
   class="st5"
   style="fill:#0b5ba5;fill-rule:evenodd" />
				</g>
			</g>
		</g>
		<g
   id="g3406">
			<path
   id="path3408"
   d="m 578.6,200.9 c 7.6,0 14.4,5.5 14.4,14 0,8.5 -6.8,14 -14.4,14 -7.6,0 -14.4,-5.5 -14.4,-14 0,-8.5 6.8,-14 14.4,-14 z m 0,25 c 5.8,0 10.6,-4.6 10.6,-11 0,-6.4 -4.8,-11 -10.6,-11 -5.9,0 -10.6,4.6 -10.6,11 0,6.4 4.7,11 10.6,11 z M 573,207 h 5.9 c 3.9,0 6.1,1.2 6.1,4.6 0,2.9 -1.8,4 -4.1,4.2 l 4.2,6.9 h -3.3 L 578,216 h -1.9 v 6.7 H 573 V 207 z m 3.1,6.6 h 2.8 c 1.8,0 3.1,-0.3 3.1,-2.2 0,-1.7 -1.8,-1.9 -3.2,-1.9 h -2.6 v 4.1 z"
   class="st6"
   inkscape:connector-curvature="0"
   style="fill:#221f20" />
		</g>
	</g>
	<g
   id="g3410">
		<path
   id="path3412"
   d="m 126,412.9 h 21.3 c 8.6,0 14.4,2.7 14.4,11 0,4.3 -2.2,7.4 -6.1,9.5 5.5,1.3 8.3,5.5 8.3,11 0,9 -7.8,12.9 -16,12.9 H 126 v -44.4 z m 9.9,18 H 146 c 3.5,0 6.1,-1.6 6.1,-5.3 0,-4.2 -3.3,-5.1 -6.8,-5.1 H 136 v 10.4 z m 0,18.8 h 10.6 c 3.9,0 7.3,-1.2 7.3,-5.8 0,-4.5 -2.9,-6.3 -7.2,-6.3 h -10.8 v 12.1 z"
   class="st7"
   inkscape:connector-curvature="0"
   style="fill:#0c5aa4" />
		<path
   id="path3414"
   d="m 170.8,435 c 0.5,-8.3 8,-10.7 15.4,-10.7 6.5,0 14.4,1.4 14.4,9.1 v 16.7 c 0,2.9 0.3,5.8 1.1,7.1 h -9 c -0.4,-1 -0.7,-2 -0.8,-3.1 -2.9,2.9 -7,4 -11,4 -6.2,0 -11.2,-3 -11.2,-9.6 0,-7.3 5.6,-9 11.2,-9.8 5.5,-0.8 10.6,-0.6 10.6,-4.2 0,-3.8 -2.7,-4.3 -5.8,-4.3 -3.4,0 -5.6,1.4 -6,4.8 h -8.9 z m 20.8,6.6 c -1.5,1.3 -4.7,1.4 -7.5,1.9 -2.8,0.6 -5.3,1.5 -5.3,4.7 0,3.3 2.6,4.1 5.5,4.1 7,0 7.3,-5.5 7.3,-7.4 v -3.3 z"
   class="st7"
   inkscape:connector-curvature="0"
   style="fill:#0c5aa4" />
		<path
   id="path3416"
   d="m 204.4,425.2 h 9.6 l 7.4,22 h 0.1 l 7.2,-22 h 9.3 l -13.7,36.2 c -2,5.2 -5.1,7.3 -11.3,7.3 -1.8,0 -3.7,-0.1 -5.5,-0.4 V 461 c 1.8,0.3 3.6,0.4 5.3,0.4 1.8,0 3.5,-1.7 3.5,-4 0,-0.7 -0.1,-1.4 -0.4,-2 l -11.5,-30.2 z"
   class="st7"
   inkscape:connector-curvature="0"
   style="fill:#0c5aa4" />
		<path
   id="path3418"
   d="m 250.1,443.4 c 0.3,5.6 3,8.1 8,8.1 3.6,0 6.5,-2.2 7.2,-4.2 h 7.9 c -2.5,7.6 -7.9,10.8 -15.3,10.8 -10.3,0 -16.7,-7 -16.7,-16.9 0,-9.6 6.8,-17 16.7,-17 10.5,0 16,8.6 16,16.3 v 2.8 h -23.8 z m 14.7,-5.6 c -0.9,-4.5 -2.9,-6.8 -7.2,-6.8 -5.7,0 -7.3,4.3 -7.5,6.8 h 14.7 z"
   class="st7"
   inkscape:connector-curvature="0"
   style="fill:#0c5aa4" />
		<path
   id="path3420"
   d="m 280.6,425.2 h 8.6 v 6 h 0.1 c 1.6,-4 6.1,-6.8 10.5,-6.8 0.6,0 1.4,0.1 2,0.3 v 8.2 c -0.8,-0.2 -2.2,-0.3 -3.2,-0.3 -6.6,0 -8.9,4.7 -8.9,10.3 v 14.5 h -9 v -32.2 z"
   class="st7"
   inkscape:connector-curvature="0"
   style="fill:#0c5aa4" />
		<path
   id="path3422"
   d="m 307.1,412.9 h 9 v 7.3 h -9 v -7.3 z m 0,12.3 h 9 v 32.1 h -9 v -32.1 z"
   class="st7"
   inkscape:connector-curvature="0"
   style="fill:#0c5aa4" />
		<path
   id="path3424"
   d="m 331.8,446.8 c 0.1,3.9 3.4,5.4 6.9,5.4 2.6,0 5.9,-1 5.9,-4.1 0,-2.7 -3.7,-3.6 -10.2,-5 -5.2,-1.1 -10.4,-2.9 -10.4,-8.6 0,-8.2 7.2,-10.3 14.3,-10.3 7.2,0 13.7,2.4 14.4,10.3 h -8.6 c -0.3,-3.4 -2.9,-4.3 -6.1,-4.3 -2.9,0 -5,0.7 -5,3 0,2.4 2.5,3.2 8.6,4.4 7.3,1.4 12,3.6 12,9.4 0,8.4 -7.5,11.2 -15,11.2 -7.6,0 -15,-2.8 -15.4,-11.3 h 8.6 z"
   class="st7"
   inkscape:connector-curvature="0"
   style="fill:#0c5aa4" />
		<path
   id="path3426"
   d="m 382.7,436.5 c -0.6,-3.6 -2.9,-5.5 -6.7,-5.5 -5.8,0 -7.7,5.7 -7.7,10.4 0,4.6 1.8,10.1 7.5,10.1 4.2,0 6.6,-2.6 7.3,-6.5 h 8.6 c -1.1,8.5 -7.2,13.2 -15.8,13.2 -9.9,0 -16.5,-6.8 -16.5,-16.5 0,-10 6.1,-17.4 16.7,-17.4 7.7,0 14.8,4 15.4,12.2 h -8.8 z"
   class="st7"
   inkscape:connector-curvature="0"
   style="fill:#0c5aa4" />
		<path
   id="path3428"
   d="m 398.4,412.9 h 9 v 16.7 h 0.2 c 2.3,-3.6 6.2,-5.3 9.6,-5.3 9.6,0 12,5.3 12,13.2 v 19.8 h -9 v -18.1 c 0,-5.3 -1.6,-7.9 -5.8,-7.9 -4.9,0 -7,2.7 -7,9.2 v 16.8 h -9 v -44.4 z"
   class="st7"
   inkscape:connector-curvature="0"
   style="fill:#0c5aa4" />
		<path
   id="path3430"
   d="m 444.9,443.4 c 0.3,5.6 3,8.1 8,8.1 3.6,0 6.5,-2.2 7.2,-4.2 h 7.9 c -2.5,7.6 -7.9,10.8 -15.3,10.8 -10.3,0 -16.7,-7 -16.7,-16.9 0,-9.6 6.8,-17 16.7,-17 10.5,0 16,8.6 16,16.3 v 2.8 h -23.8 z m 14.7,-5.6 c -0.9,-4.5 -2.9,-6.8 -7.2,-6.8 -5.7,0 -7.3,4.3 -7.5,6.8 h 14.7 z"
   class="st7"
   inkscape:connector-curvature="0"
   style="fill:#0c5aa4" />
		<path
   id="path3432"
   d="m 475.5,425.2 h 8.6 v 6 h 0.1 c 1.6,-4 6.1,-6.8 10.5,-6.8 0.6,0 1.4,0.1 2,0.3 v 8.2 c -0.8,-0.2 -2.2,-0.3 -3.2,-0.3 -6.6,0 -8.9,4.7 -8.9,10.3 v 14.5 h -9 v -32.2 z"
   class="st7"
   inkscape:connector-curvature="0"
   style="fill:#0c5aa4" />
		<path
   id="path3434"
   d="m 517.7,412.9 h 9.9 l 7.2,30.2 h 0.1 l 7.9,-30.2 h 9.3 l 7.7,30.6 h 0.1 l 7.5,-30.6 h 9.6 l -12.2,44.4 H 555 l -7.6,-30.2 h -0.1 l -7.7,30.2 h -9.9 l -12,-44.4 z"
   class="st7"
   inkscape:connector-curvature="0"
   style="fill:#0c5aa4" />
		<path
   id="path3436"
   d="m 578,435 c 0.5,-8.3 8,-10.7 15.4,-10.7 6.5,0 14.4,1.4 14.4,9.1 v 16.7 c 0,2.9 0.3,5.8 1.1,7.1 h -9 c -0.4,-1 -0.7,-2 -0.8,-3.1 -2.9,2.9 -7,4 -11,4 -6.2,0 -11.2,-3 -11.2,-9.6 0,-7.3 5.6,-9 11.2,-9.8 5.5,-0.8 10.6,-0.6 10.6,-4.2 0,-3.8 -2.7,-4.3 -5.8,-4.3 -3.4,0 -5.6,1.4 -6,4.8 H 578 z m 20.8,6.6 c -1.5,1.3 -4.7,1.4 -7.5,1.9 -2.8,0.6 -5.3,1.5 -5.3,4.7 0,3.3 2.6,4.1 5.5,4.1 7,0 7.3,-5.5 7.3,-7.4 v -3.3 z"
   class="st7"
   inkscape:connector-curvature="0"
   style="fill:#0c5aa4" />
		<path
   id="path3438"
   d="m 616.6,412.9 h 9 v 44.4 h -9 v -44.4 z"
   class="st7"
   inkscape:connector-curvature="0"
   style="fill:#0c5aa4" />
		<path
   id="path3440"
   d="m 657.6,453.2 h -0.1 c -2.1,3.5 -5.8,5 -9.9,5 -9.9,0 -14.7,-8.3 -14.7,-17.2 0,-8.6 4.9,-16.6 14.5,-16.6 3.9,0 7.7,1.6 9.8,4.8 h -0.1 0.1 V 413 h 9 v 44.4 h -8.6 v -4.2 z m -7.8,-22.3 c -5.9,0 -7.9,5 -7.9,10.2 0,5 2.3,10.3 7.9,10.3 6,0 7.7,-5.1 7.7,-10.4 0,-5.1 -1.9,-10.1 -7.7,-10.1 z"
   class="st7"
   inkscape:connector-curvature="0"
   style="fill:#0c5aa4" />
	</g>
</g></svg>