<?xml version="1.0" encoding="UTF-8" standalone="no"?>
<!DOCTYPE svg PUBLIC "-//W3C//DTD SVG 1.1//EN" "http://www.w3.org/Graphics/SVG/1.1/DTD/svg11.dtd">
<svg width="100%" height="100%" viewBox="0 0 191 82" version="1.1" xmlns="http://www.w3.org/2000/svg" xmlns:xlink="http://www.w3.org/1999/xlink" xml:space="preserve" xmlns:serif="http://www.serif.com/" style="fill-rule:evenodd;clip-rule:evenodd;stroke-linejoin:round;stroke-miterlimit:2;">
    <g transform="matrix(1,0,0,1,-75,-22)">
        <g transform="matrix(1,0,0,2.46111,0,0)">
            <g transform="matrix(0.996817,0,0,0.992488,-40.8534,7.3611)">
                <g transform="matrix(2.14392,0,0,0.871118,178.914,10.9803)">
                    <path d="M0,15.346L3.868,-3.904L0.732,-3.904L-3.92,19.25L1.948,19.25L2.732,15.346L0,15.346Z" style="fill:#e41e25;fill-rule:nonzero;"/>
                </g>
                <g transform="matrix(2.14392,0,0,0.871118,215.987,27.7486)">
                    <path d="M0,-23.154L2.562,-23.154C6.188,-23.154 7.24,-18.67 5.833,-11.669C3.686,-0.982 0.067,0 -1.871,0L-4.652,0L0,-23.154ZM-0.342,-5.588C1.118,-5.619 2.083,-9.182 2.522,-11.362C3.027,-13.879 3.481,-17.381 2.028,-17.381L-0.342,-5.588Z" style="fill:#e41e25;fill-rule:nonzero;"/>
                </g>
                <g transform="matrix(2.14392,0,0,0.871118,253.039,28.097)">
                    <path d="M0,-23.554L-3.042,-8.415C-3.603,-5.62 -5.045,0 -8.733,0C-12.421,0 -11.604,-5.62 -11.042,-8.415L-8.001,-23.554L-4.813,-23.554L-7.738,-8.998C-7.861,-8.384 -8.037,-7.585 -8.066,-6.972C-8.102,-6.327 -7.998,-5.835 -7.56,-5.835C-7.107,-5.835 -6.805,-6.327 -6.604,-6.941C-6.381,-7.585 -6.236,-8.384 -6.118,-8.967L-3.188,-23.554L0,-23.554Z" style="fill:#e41e25;fill-rule:nonzero;"/>
                </g>
                <g transform="matrix(2.14392,0,0,0.871118,256.213,7.57897)">
                    <path d="M0,23.154L0.171,13.512L0.128,13.573C-0.085,14.709 -0.282,15.845 -0.51,16.981L-1.75,23.154L-4.938,23.154L-0.286,0L2.792,0C5.559,0 7.238,1.597 6.01,7.708C5.498,10.257 4.479,12.529 3.015,13.512L3.453,23.154L0,23.154ZM0.952,10.717C1.796,10.717 2.539,9.274 2.841,7.769C3.248,5.742 2.796,4.883 1.902,4.975L0.755,10.686L0.952,10.717Z" style="fill:#e41e25;fill-rule:nonzero;"/>
                </g>
                <g transform="matrix(2.14392,0,0,0.871118,275.165,27.7486)">
                    <path d="M0,-23.154L3.031,-23.154L2.777,-9.212L2.821,-9.273C3.233,-11.945 3.529,-14.586 4.066,-17.258L5.25,-23.154L8.313,-23.154L3.661,0L0.598,0L0.907,-13.358L0.863,-13.296C0.503,-11.116 0.212,-8.966 -0.226,-6.787L-1.59,0L-4.652,0L0,-23.154Z" style="fill:#e41e25;fill-rule:nonzero;"/>
                </g>
                <g transform="matrix(2.14392,0,0,0.871118,289.087,14.3751)">
                    <path d="M0,7.552C0.178,8.843 0.685,10.132 1.497,10.132C1.935,10.132 2.54,9.61 2.744,8.597C2.854,8.044 2.841,7.644 2.753,7.307C2.68,6.969 2.548,6.693 2.4,6.416C1.967,5.464 1.598,4.574 1.414,3.468C1.24,2.393 1.249,1.104 1.588,-0.585C2.131,-3.287 3.993,-8.2 6.713,-8.2C7.478,-8.2 8.214,-7.74 8.744,-7.034L7.331,-0.002C7.19,-1.169 6.69,-2.489 5.956,-2.489C5.581,-2.489 5.022,-1.967 4.843,-1.076C4.745,-0.585 4.799,-0.155 4.897,0.213C4.994,0.582 5.167,0.889 5.283,1.165C5.771,2.086 6.129,2.946 6.279,3.99C6.444,5.034 6.4,6.262 6.049,8.013C5.185,12.312 2.962,15.752 0.743,15.752C-0.069,15.752 -0.83,15.414 -1.456,14.799L0,7.552Z" style="fill:#e41e25;fill-rule:nonzero;"/>
                </g>
                <g transform="matrix(2.14392,0,0,0.871118,142.443,15.5676)">
                    <path d="M0,4.805L2.908,-9.171L-7.413,-9.171L-12.23,13.976L10.34,13.976L12.248,4.805L0,4.805Z" style="fill:#fedd01;fill-rule:nonzero;"/>
                </g>
                <g transform="matrix(2.14392,0,0,0.871118,124.234,14.9519)">
                    <path d="M0,7.876L7.76,12.048C8.144,12.333 8.569,12.482 8.979,12.627C9.249,12.722 9.503,12.811 9.739,12.934C10.787,13.485 15.92,18.484 18.514,21.075C18.731,21.235 19.486,21.923 19.846,22.253C20.075,22.424 20.528,22.711 20.836,22.727C21.171,22.745 21.858,22.575 22.066,22.383C22.247,22.213 22.332,21.986 22.239,21.627C22.202,21.486 22.057,21.409 21.771,21.267C21.562,21.163 21.122,21.147 20.954,21.066C20.601,20.895 20.417,20.66 19.887,20.224C19.824,20.161 18.549,19.109 17.819,18.471L17.461,18.159C16.933,17.703 16.361,17.207 15.873,16.672L23.248,20.855C23.713,21.153 24.377,21.353 25.022,21.303C25.472,21.268 25.797,21.084 26.079,20.699C26.229,20.496 26.087,19.886 25.828,19.799C25.658,19.742 25.468,19.693 25.324,19.713C24.913,19.77 24.366,19.62 24.155,19.501C23.835,19.334 23.572,19.316 22.871,18.937C22.215,18.583 21.575,18.238 21.29,18.087C19.508,17.151 17.626,16.133 15.947,14.904C15.471,14.395 15.072,13.421 14.759,12.657L14.65,12.316L17.135,11.397L17.18,11.329C17.278,11.178 17.51,11.08 17.778,10.967C17.872,10.927 17.971,10.885 18.07,10.838C18.898,10.447 20.439,9.716 19.891,8.01C19.535,6.905 18.476,6.556 17.624,6.276C17.335,6.181 17.061,6.091 16.858,5.984L16.777,5.958C16.41,5.905 16.035,5.735 15.748,5.5L15.894,5.458L16.107,5.408L15.892,3.459L15.246,2.964C15.24,2.752 15.308,2.669 15.482,2.458C16.314,1.446 16.492,0.493 16.656,-0.833C16.891,-1.228 16.967,-1.673 16.902,-2.354L16.555,-3.434C16.635,-3.916 17.002,-4.336 17.357,-4.743C17.491,-4.897 17.623,-5.048 17.74,-5.2C18.132,-5.718 18.435,-6.318 18.729,-6.898C18.943,-7.323 19.146,-7.724 19.379,-8.092C19.719,-8.622 19.929,-9.108 20.152,-9.622C20.222,-9.783 20.294,-9.949 20.373,-10.122C20.453,-10.3 20.436,-10.579 20.404,-10.955C20.396,-11.047 20.387,-11.127 20.386,-11.183L20.529,-11.318C20.679,-11.446 20.806,-11.581 20.847,-11.797L30.927,-13.417C31.038,-13.013 31.268,-12.663 31.596,-12.663L31.666,-12.669C32.009,-12.726 32.153,-13.153 32.142,-13.612L32.65,-13.858L32.594,-14.053L32.065,-14.114C31.954,-14.519 31.725,-14.869 31.396,-14.869L31.325,-14.863C31.018,-14.81 30.84,-14.448 30.849,-13.952L20.667,-12.586C20.406,-12.957 19.951,-13.169 19.344,-13.169C19.004,-13.169 18.639,-13.104 18.315,-12.984C17.953,-12.849 17.641,-11.863 17.768,-11.471C17.869,-11.154 18.119,-11.122 18.256,-11.118L18.229,-11.108L18.064,-11.037C17.473,-10.697 17.136,-10.313 16.779,-9.905C16.687,-9.801 16.594,-9.695 16.492,-9.585C16.21,-9.274 15.952,-8.905 15.701,-8.547C15.557,-8.341 15.417,-8.141 15.283,-7.967C15.224,-7.896 15.174,-7.794 15.117,-7.676C15.071,-7.581 14.974,-7.381 14.898,-7.299L14.677,-7.401C14.506,-7.482 14.398,-7.533 14.319,-7.55C13.992,-7.629 13.54,-7.57 13.047,-7.388C12.587,-7.218 12.35,-6.91 12.179,-6.686C12.102,-6.585 12.023,-6.483 11.971,-6.463L11.27,-6.203C10.378,-5.873 10.102,-5.43 9.782,-4.915C9.677,-4.747 9.563,-4.563 9.417,-4.368C9.232,-4.129 8.93,-3.893 8.636,-3.663C8.376,-3.46 8.106,-3.249 7.903,-3.026L7.848,-2.928C7.788,-2.721 7.705,-2.516 7.622,-2.309C7.542,-2.109 7.46,-1.901 7.392,-1.682L1.592,3.398L-0.087,1.875L-0.076,2.451C-0.067,2.902 -0.084,3.243 -0.2,3.642L-0.244,3.794L0.451,4.399L-0.651,5.362C-0.949,5.118 -1.309,5.054 -1.534,5.236C-1.778,5.434 -1.797,5.825 -1.621,6.212L-2.241,6.956L-2.109,7.113L-1.327,6.652C-1.134,6.844 -0.791,6.946 -0.607,6.898C-0.472,6.863 -0.292,6.762 -0.215,6.564C-0.078,6.213 -0.235,5.938 -0.235,5.938L-0.304,5.813L0.921,4.808L6.635,9.784L0.167,6.225C0.167,6.225 0.25,7.058 0.196,7.329C0.117,7.72 0,7.876 0,7.876M9.193,7.805C8.775,8.027 8.535,8.265 8.302,8.497L8.116,8.676L8.004,8.492C7.904,8.319 7.8,8.142 7.621,8.006L7.301,7.765L7.227,8.159C7.21,8.256 7.181,8.339 7.133,8.422L2.09,3.849L7.275,-0.405C7.295,-0.278 7.323,-0.148 7.366,-0.013C7.564,0.601 7.999,0.695 8.317,0.763C8.598,0.823 8.727,0.859 8.801,1.094C8.844,1.226 8.807,1.352 8.743,1.547C8.667,1.775 8.572,2.059 8.684,2.406L8.867,2.973C8.897,3.07 8.821,3.23 8.747,3.383C8.694,3.493 8.642,3.604 8.609,3.715L8.542,3.944C8.311,4.719 8.093,5.452 8.419,6.468L8.447,6.554L8.831,6.796C8.876,6.9 8.922,7.03 8.963,7.148C9.012,7.288 9.058,7.411 9.076,7.441L9.193,7.805Z" style="fill-rule:nonzero;stroke:#fff;stroke-width:0.47px;"/>
                </g>
                <g transform="matrix(2.14392,0,0,0.871118,200.737,27.749)">
                    <path d="M0,-23.154L-7.481,0L-4.199,0L-3.084,-3.904L-1.054,-3.904L-1.558,0L1.739,0L3.891,-23.154L0,-23.154ZM-1.97,-7.802L-0.409,-13.266C0.006,-14.709 0.381,-16.183 0.764,-17.627L0.796,-17.627C0.584,-16.183 0.35,-14.709 0.154,-13.266L-0.551,-7.802L-1.97,-7.802Z" style="fill:#e41e25;fill-rule:nonzero;"/>
                </g>
            </g>
        </g>
    </g>
</svg>
