<?xml version="1.0" standalone="no"?>
<!DOCTYPE svg PUBLIC "-//W3C//DTD SVG 20010904//EN"
 "http://www.w3.org/TR/2001/REC-SVG-20010904/DTD/svg10.dtd">
<svg version="1.0" xmlns="http://www.w3.org/2000/svg"
 width="1555.000000pt" height="965.000000pt" viewBox="0 0 1555.000000 965.000000"
 preserveAspectRatio="xMidYMid meet">
<metadata>
Created by potrace 1.16, written by Peter Selinger 2001-2019
</metadata>
<g transform="translate(0.000000,965.000000) scale(0.100000,-0.100000)"
fill="#000000" stroke="none">
<path d="M6245 9511 c-245 -32 -416 -166 -466 -364 -7 -29 -10 -84 -7 -140 12
-204 125 -407 353 -633 171 -170 427 -336 768 -499 92 -44 167 -84 167 -89 0
-12 -501 -1299 -509 -1308 -4 -5 -901 698 -944 741 -4 4 0 39 10 77 12 52 17
111 16 234 0 145 -3 177 -26 262 -65 244 -227 458 -426 561 -192 100 -475 137
-1055 137 l-229 0 -71 47 c-698 460 -1486 791 -2115 889 -122 19 -412 26 -516
13 -516 -67 -812 -378 -828 -871 l-2 -78 -152 0 -153 0 0 -345 0 -345 243 0
242 0 60 -117 c70 -136 200 -338 314 -487 l81 -107 0 -949 0 -950 390 0 390 0
0 585 c0 322 3 585 6 585 3 0 23 -13 43 -28 189 -148 620 -396 926 -533 l150
-67 3 -271 2 -271 395 0 395 0 0 126 0 125 23 -7 c12 -3 104 -33 204 -65 308
-99 798 -248 1508 -459 374 -111 687 -206 695 -211 9 -5 -268 -9 -657 -9
l-673 0 0 -1650 0 -1650 1270 0 1270 0 0 345 0 345 -875 0 -875 0 0 350 0 350
790 0 790 0 0 340 0 340 -790 0 -790 0 0 275 0 275 845 0 845 0 0 165 c0 142
2 165 15 165 14 0 505 -158 513 -165 2 -1 -22 -42 -53 -89 -131 -200 -211
-436 -256 -756 -19 -132 -16 -512 5 -650 57 -378 185 -660 407 -894 284 -300
634 -447 1069 -450 508 -3 883 166 1139 514 106 143 257 486 264 598 l2 35
-374 118 c-206 66 -376 117 -379 114 -3 -2 -18 -55 -34 -117 -95 -371 -305
-562 -618 -561 -189 0 -322 54 -451 183 -117 115 -178 258 -214 495 -45 299
-25 649 51 876 37 114 128 255 191 296 30 20 11 26 363 -110 630 -242 1267
-533 1662 -761 l118 -68 2 -776 3 -777 393 -3 392 -2 0 492 0 493 81 -80 c263
-260 430 -546 483 -827 42 -220 1 -510 -101 -727 -37 -78 -166 -206 -267 -264
-175 -102 -340 -142 -586 -141 -173 1 -288 15 -467 58 -115 27 -146 22 -170
-29 -16 -34 -13 -67 10 -98 16 -23 189 -68 355 -93 158 -24 413 -23 542 1 260
49 458 151 618 320 154 163 246 419 259 720 12 292 -71 570 -250 843 -106 162
-281 359 -449 505 l-58 50 0 78 0 79 545 0 545 0 2 -687 3 -688 393 -3 392 -2
0 1650 0 1650 -395 0 -395 0 0 -620 0 -620 -545 0 -545 0 0 159 0 159 53 7
c525 70 802 263 848 593 28 201 -44 455 -204 721 -31 52 -57 96 -57 98 0 1
270 3 600 3 l600 0 0 340 0 340 -790 0 -790 0 0 1295 0 1295 -390 0 -390 0 0
-1055 c0 -580 -3 -1055 -6 -1055 -4 0 -36 22 -73 49 -73 54 -329 222 -403 265
l-48 28 0 899 0 899 -395 0 -395 0 0 -710 c0 -390 -4 -710 -8 -710 -5 0 -37
12 -73 26 -120 49 -283 107 -663 234 l-378 127 -207 514 -207 514 -389 0 -389
0 -102 -260 c-87 -222 -104 -259 -120 -257 -31 6 -362 175 -474 242 -130 78
-350 236 -455 327 -152 132 -278 317 -305 450 -16 77 -7 178 21 239 51 109
194 207 348 239 76 16 295 22 376 10 80 -12 48 2 -45 19 -103 20 -254 27 -335
17z m-4560 -263 c364 -53 813 -203 1281 -428 182 -87 428 -220 539 -291 l60
-39 -327 0 -328 0 0 -1281 0 -1280 -22 7 c-42 13 -302 140 -418 204 -219 120
-436 259 -612 392 l-78 59 0 604 0 605 470 0 470 0 -2 343 -3 342 -1085 5
-1085 5 2 90 c5 191 64 337 188 461 67 68 96 89 175 127 95 45 176 70 287 86
100 15 348 10 488 -11z m879 -935 c-1 -7 -2 -92 -2 -188 l-2 -175 -465 0 -465
0 0 -1305 0 -1305 -240 0 -240 0 0 1305 0 1305 -470 0 -470 0 0 188 c0 104 2
191 4 193 2 2 532 2 1178 -1 930 -4 1173 -8 1172 -17z m2006 13 c80 -3 154 -8
165 -10 11 -2 45 -7 75 -11 98 -12 211 -44 289 -81 113 -54 232 -177 295 -305
58 -117 85 -225 91 -354 12 -286 -95 -524 -301 -671 -125 -89 -272 -140 -510
-174 -82 -12 -151 -24 -153 -26 -5 -5 -13 0 104 -69 359 -210 433 -292 820
-910 93 -148 184 -294 202 -322 l34 -53 -293 0 -293 0 -259 388 c-357 533
-437 644 -535 743 -145 146 -239 175 -563 178 l-188 2 0 -656 0 -655 -245 0
-245 0 0 1493 c0 822 2 1496 4 1498 6 6 1334 1 1506 -5z m4039 -1487 l599
-1494 -260 -3 c-144 -1 -263 0 -265 2 -3 2 -49 121 -104 263 -55 142 -115 300
-135 351 l-36 92 -682 0 -683 0 -128 -355 -129 -355 -254 0 c-237 0 -254 1
-249 18 2 9 113 294 245 632 261 670 633 1625 802 2060 l107 275 284 5 c156 3
285 5 287 4 1 -1 272 -673 601 -1495z m1679 -3 l2 -1496 -245 0 -245 0 0 1494
c0 1400 1 1495 17 1498 9 2 119 2 243 2 l225 -2 3 -1496z m1312 179 l0 -1295
790 0 790 0 0 -190 0 -190 -1030 0 -1030 0 0 1485 0 1485 240 0 240 0 0 -1295z
m-10600 585 c0 -110 -3 -200 -7 -200 -15 0 -243 369 -243 392 0 5 56 8 125 8
l125 0 0 -200z m8380 -623 c96 -36 196 -74 223 -86 l47 -20 0 -841 0 -840 395
0 395 0 2 646 3 645 140 -90 c77 -50 194 -130 260 -178 l120 -88 3 -468 2
-467 470 0 469 0 71 -107 c83 -126 167 -294 206 -413 24 -73 28 -102 28 -205
1 -116 0 -123 -31 -186 -80 -161 -259 -258 -578 -313 -49 -9 -96 -16 -102 -16
-10 0 -13 81 -13 370 l0 370 -395 0 -395 0 0 -346 c0 -324 -1 -345 -17 -340
-10 2 -72 19 -138 36 -66 17 -167 47 -225 66 l-105 34 -44 66 c-94 143 -264
292 -432 379 -183 94 -408 149 -653 159 l-128 4 -137 83 c-367 222 -905 594
-1419 979 l-112 85 497 3 c274 1 503 0 508 -2 6 -2 71 -162 145 -355 l135
-351 427 0 c236 0 428 2 428 5 0 3 -181 456 -401 1007 -221 552 -404 1011
-406 1020 -4 14 55 -3 288 -81 162 -55 373 -128 469 -164z m-3387 -293 c254
-202 468 -372 475 -379 11 -10 -22 -104 -188 -531 -111 -286 -208 -534 -215
-551 l-14 -33 422 0 422 0 109 303 c60 166 110 303 112 305 1 2 101 -70 221
-160 408 -307 952 -687 1262 -880 l74 -46 -34 -7 c-216 -46 -478 -181 -633
-326 l-65 -60 -328 108 -328 109 -3 77 -3 77 -244 0 -244 0 -413 124 c-227 69
-559 168 -738 221 -179 53 -363 108 -410 123 l-85 27 403 5 402 5 -37 60
c-265 427 -562 893 -627 984 -86 122 -239 289 -306 336 -22 15 -40 31 -40 36
0 4 14 11 32 14 61 14 200 78 276 128 89 58 192 160 242 240 19 31 36 57 38
57 2 0 211 -165 465 -366z m-2058 -194 c159 -23 229 -70 358 -242 89 -119 690
-1008 685 -1013 -4 -5 -711 211 -1015 310 l-263 86 0 434 0 435 83 0 c45 0
114 -5 152 -10z m5384 -1925 c351 -69 619 -250 771 -520 55 -96 111 -239 97
-247 -17 -9 -436 -108 -458 -108 -11 0 -19 6 -19 14 0 26 -79 171 -125 228
-89 114 -240 207 -395 244 -107 26 -297 23 -405 -5 -365 -96 -575 -375 -629
-834 -25 -211 -16 -515 20 -712 71 -394 275 -638 602 -721 105 -27 253 -32
358 -13 257 47 465 240 567 528 18 49 36 93 39 96 5 5 454 -130 466 -140 1 -1
-11 -39 -28 -85 -125 -339 -330 -572 -610 -696 -97 -42 -275 -89 -376 -99 -98
-9 -293 -9 -384 0 -423 41 -807 311 -1005 705 -113 224 -166 474 -167 790 -1
201 5 281 33 436 60 340 191 601 405 804 186 177 385 279 644 329 142 27 150
28 345 25 110 -1 200 -8 254 -19z m-2189 -215 l0 -190 -847 -2 -848 -3 -3
-400 c-1 -220 0 -410 3 -422 l5 -23 788 -2 c742 -3 787 -4 786 -20 -1 -10 -2
-94 -3 -188 l-1 -170 -790 0 -790 0 0 -492 c0 -271 4 -497 8 -503 5 -7 308
-10 877 -10 l870 0 3 -190 2 -191 -32 2 c-18 1 -522 2 -1120 3 l-1088 1 0
1495 0 1495 1090 0 1090 0 0 -190z m4210 -430 l0 -620 694 0 c623 0 694 2 700
16 3 9 6 288 6 620 l0 604 240 0 240 0 0 -1497 0 -1498 -236 2 c-130 1 -238 4
-240 6 -2 2 -5 309 -6 683 l-3 679 -697 3 -698 2 -2 -686 -3 -686 -237 -2
-238 -1 -2 1498 -3 1497 243 0 242 0 0 -620z m-2169 105 c134 -34 283 -145
343 -255 l27 -49 -228 93 c-126 51 -292 117 -371 146 -100 38 -138 56 -128 62
46 26 262 28 357 3z m1422 -181 l107 -26 0 -329 c0 -181 -2 -329 -4 -329 -2 0
-70 36 -152 81 -158 86 -593 302 -632 314 -13 4 -22 9 -19 11 2 3 113 31 246
63 132 32 243 60 246 63 3 2 -11 54 -30 114 -19 60 -35 110 -35 110 0 1 37 -9
83 -23 45 -13 130 -35 190 -49z"/>
<path d="M392 8138 c2 -17 10 -23 28 -24 14 -1 113 -5 220 -8 107 -4 227 -9
265 -11 39 -2 144 -7 235 -10 91 -4 166 -8 167 -9 3 -2 17 -604 28 -1186 3
-157 7 -361 10 -455 3 -93 7 -336 11 -540 3 -203 8 -373 11 -377 2 -5 12 -8
22 -8 25 0 30 47 32 325 1 127 3 253 4 280 1 28 5 235 9 460 4 226 9 453 11
505 2 52 6 271 10 485 6 371 11 504 17 510 3 3 88 7 428 20 69 3 163 8 210 10
47 3 129 5 183 6 95 1 97 2 97 25 l0 24 -1001 0 -1000 0 3 -22z"/>
<path d="M3234 8033 c3 -92 8 -348 11 -568 3 -220 8 -461 10 -535 2 -74 8
-324 11 -555 4 -231 8 -445 9 -475 1 -30 3 -131 4 -223 l1 -168 27 3 c31 4 28
-16 37 238 4 102 9 217 11 255 4 66 7 146 20 465 7 168 16 304 21 309 5 5 48
8 254 16 102 3 199 8 215 10 17 2 120 7 230 11 110 3 211 8 225 9 14 1 58 3
98 3 54 2 72 5 72 16 0 8 -10 14 -22 13 -33 -1 -768 15 -798 18 -14 1 -82 3
-152 3 l-128 2 0 631 0 632 568 -6 c312 -4 587 -9 612 -13 77 -11 212 -54 275
-87 35 -18 92 -63 135 -107 122 -122 173 -254 172 -445 0 -218 -82 -395 -235
-511 -73 -55 -53 -52 81 12 209 101 313 278 313 534 1 174 -40 298 -142 433
-28 37 -71 83 -96 102 -58 44 -176 93 -288 118 -85 19 -130 21 -823 24 l-733
4 5 -168z"/>
<path d="M3550 7474 l0 -477 463 6 c461 6 499 8 612 28 125 22 250 111 304
217 68 133 68 341 0 474 -51 101 -194 196 -324 217 -33 5 -284 10 -557 10
l-498 1 0 -476z m991 317 c35 -6 70 -26 157 -92 130 -98 138 -112 129 -242 -9
-133 -71 -224 -178 -262 -71 -25 -199 -34 -581 -41 l-368 -7 0 326 0 327 398
-1 c218 0 418 -4 443 -8z"/>
<path d="M4569 6425 c24 -33 84 -120 135 -194 73 -108 146 -194 364 -428 150
-161 280 -293 289 -293 11 0 13 4 6 13 -53 67 -169 232 -257 367 -188 286
-280 389 -434 488 -41 26 -90 61 -110 77 l-36 30 43 -60z"/>
<path d="M7597 8153 c-4 -7 -134 -342 -796 -2062 -122 -316 -219 -576 -217
-579 3 -2 11 -2 18 0 12 5 52 91 256 551 l66 147 145 0 c81 0 209 2 286 5 77
2 372 7 656 10 l515 7 128 -273 c71 -151 147 -313 169 -361 23 -49 47 -88 54
-88 18 0 29 -31 -157 460 -86 228 -307 814 -491 1302 l-334 888 -57 0 c-32 0
-58 -2 -58 -4 0 -3 105 -274 234 -603 129 -329 286 -733 351 -898 64 -165 123
-315 131 -334 l14 -33 -163 6 c-89 3 -243 8 -342 11 -99 3 -234 7 -300 10 -66
2 -219 7 -340 10 -227 6 -366 13 -371 17 -1 2 144 410 322 908 178 497 324
906 324 907 0 7 -39 2 -43 -4z"/>
<path d="M7452 7166 c-144 -396 -262 -724 -262 -728 0 -5 241 -8 536 -8 507 0
536 1 529 18 -4 9 -124 332 -267 717 -143 385 -263 705 -266 711 -4 7 -125
-313 -270 -710z m429 -151 c83 -225 154 -416 156 -422 4 -10 -62 -13 -311 -13
-227 0 -316 3 -316 11 0 25 305 848 311 841 4 -4 76 -191 160 -417z"/>
<path d="M10030 7663 c-1 -109 -3 -232 -5 -273 -2 -41 -6 -264 -9 -495 -4
-231 -9 -460 -11 -510 -2 -49 -7 -267 -11 -482 l-6 -393 52 0 52 0 -6 348 c-4
191 -9 412 -11 492 -2 80 -7 314 -10 520 -3 206 -8 431 -10 500 -2 69 -5 205
-6 302 0 98 -4 180 -9 183 -5 3 -9 -84 -10 -192z"/>
<path d="M11329 8008 c-1 -73 -3 -167 -4 -208 -1 -41 -6 -293 -9 -560 -4 -267
-9 -568 -11 -670 -2 -102 -7 -387 -11 -634 l-6 -448 218 6 c121 4 275 9 344
11 69 2 249 7 400 11 151 3 295 8 320 9 25 2 119 4 210 5 297 3 324 24 45 34
-99 4 -220 9 -270 11 -49 2 -175 7 -280 10 -104 3 -224 8 -265 10 -41 2 -169
7 -285 10 -198 6 -275 11 -280 17 -3 3 -8 250 -20 858 -3 146 -7 353 -10 460
-3 107 -8 371 -12 585 -3 215 -7 415 -8 445 -1 30 -3 81 -3 113 -2 56 -2 57
-32 57 l-30 0 -1 -132z"/>
<path d="M8840 4465 c-8 -2 -49 -9 -90 -15 -281 -45 -521 -200 -678 -436 -123
-185 -215 -455 -252 -739 -5 -38 -8 -169 -6 -290 2 -181 7 -239 25 -330 64
-312 181 -545 367 -729 204 -202 439 -301 739 -311 139 -4 234 6 360 39 294
78 494 246 639 534 34 67 38 92 17 92 -5 0 -29 -37 -55 -82 -126 -224 -311
-365 -556 -422 -138 -32 -186 -37 -365 -36 -105 0 -177 6 -240 19 -455 94
-717 450 -770 1046 -8 88 -8 433 0 500 44 378 143 616 329 792 123 118 241
188 406 244 281 94 611 61 863 -86 91 -54 241 -194 298 -278 32 -49 45 -61 62
-59 12 2 24 6 26 8 2 1 -22 41 -53 88 -103 155 -297 314 -465 382 -133 54
-204 66 -401 70 -102 1 -192 1 -200 -1z"/>
<path d="M5130 4413 c-3 -40 1 -1087 5 -1253 2 -118 5 -476 6 -795 1 -319 4
-606 7 -639 l4 -59 282 7 c154 4 346 9 426 11 80 2 318 7 529 11 211 3 391 8
400 9 9 2 63 4 121 4 98 1 106 2 107 21 1 11 -1 21 -5 24 -4 2 -177 7 -384 11
-208 4 -408 9 -445 10 -38 1 -241 6 -453 10 -345 7 -498 11 -523 14 -8 1 -4
154 8 371 2 41 7 143 10 225 3 83 8 191 10 240 2 50 7 165 11 257 5 143 9 168
23 172 9 3 142 7 296 11 154 3 321 8 370 10 50 2 216 7 370 11 154 4 298 8
320 9 22 1 82 3 133 4 85 1 92 3 92 21 0 19 -7 20 -127 21 -71 1 -146 3 -168
4 -22 1 -150 5 -285 9 -448 11 -664 18 -730 21 -36 2 -118 4 -182 4 l-118 1 0
550 0 550 108 1 c59 0 125 2 147 4 22 1 146 5 275 9 129 3 285 8 345 11 61 3
187 7 280 10 390 11 550 18 554 21 11 10 -17 13 -194 18 -104 4 -242 8 -305
11 -63 3 -221 7 -350 11 -129 3 -271 7 -315 9 -44 2 -206 7 -360 10 -154 4
-283 9 -287 12 -5 2 -8 1 -8 -4z"/>
<path d="M12910 3744 l0 -626 -232 6 c-223 6 -334 10 -658 21 -80 2 -273 8
-429 11 -157 4 -294 8 -305 9 -12 1 -44 3 -72 4 l-51 1 -8 138 c-4 75 -8 144
-10 152 -1 8 -5 78 -9 155 -4 77 -9 156 -11 175 -2 19 -7 85 -10 145 -10 196
-25 398 -31 404 -2 2 -5 -65 -5 -150 -1 -85 -2 -172 -4 -194 -1 -22 -5 -173
-9 -335 -4 -162 -9 -333 -11 -380 -2 -47 -7 -193 -10 -325 -3 -132 -7 -292
-10 -355 -3 -63 -7 -221 -10 -350 -3 -129 -8 -301 -11 -382 l-6 -148 76 0 76
0 0 660 0 660 58 1 c31 0 75 2 97 4 22 1 173 5 335 9 162 4 333 9 380 11 47 3
182 7 300 10 118 3 297 8 397 11 l181 6 1 -137 c1 -76 3 -141 5 -144 2 -3 7
-109 11 -236 3 -126 8 -243 10 -260 2 -16 6 -129 10 -250 4 -121 9 -231 10
-245 1 -14 3 -42 3 -63 2 -34 5 -38 25 -35 l22 3 6 295 c4 162 9 464 13 670 4
206 9 454 11 550 3 96 7 308 10 470 3 162 8 377 11 478 l6 182 -76 0 -76 0 0
-626z"/>
<path d="M1920 4350 l0 -340 470 0 470 0 0 -1310 0 -1310 390 0 390 0 0 1310
0 1310 470 0 470 0 0 340 0 340 -1330 0 -1330 0 0 -340z m2505 0 l0 -190 -467
0 -468 0 0 -1305 c0 -1236 -1 -1305 -17 -1305 -10 0 -118 -1 -241 -3 l-222 -2
0 1308 0 1307 -465 0 -464 0 -3 190 -3 190 1175 0 1175 0 0 -190z"/>
<path d="M2240 4375 c0 -12 15 -15 73 -16 39 -1 83 -3 97 -4 14 -2 102 -6 195
-10 94 -4 172 -9 175 -10 3 -2 79 -6 170 -10 91 -4 176 -9 190 -10 14 -2 30
-4 36 -4 8 -1 12 -91 13 -303 1 -167 4 -379 6 -473 2 -93 7 -440 11 -770 4
-330 8 -631 9 -670 1 -38 2 -139 3 -222 l2 -153 25 0 c24 0 25 2 27 73 1 39 2
106 3 147 1 41 5 302 9 580 4 278 9 555 11 615 2 61 7 349 11 640 3 292 7 531
8 532 4 5 101 13 216 18 139 6 279 13 385 20 39 3 131 7 205 11 139 7 150 8
150 25 0 5 -387 9 -1015 9 -896 0 -1015 -2 -1015 -15z"/>
<path d="M15025 4537 l-90 -52 -3 -73 -3 -72 -44 0 -45 0 0 -80 0 -80 45 0 45
0 0 -232 c0 -271 4 -287 80 -325 51 -26 159 -31 220 -10 38 13 38 15 24 125
-4 36 -9 42 -22 37 -49 -19 -79 -17 -96 6 -13 20 -16 54 -16 211 l0 188 65 0
65 0 0 80 0 80 -65 0 -64 0 -3 125 -3 124 -90 -52z"/>
<path d="M14285 4341 c-45 -12 -87 -36 -116 -68 -26 -27 -69 -103 -69 -121 0
-5 33 -14 73 -21 39 -7 79 -15 88 -17 11 -3 21 6 29 26 17 41 57 60 124 60 64
0 101 -25 111 -77 8 -40 7 -41 -169 -79 -155 -33 -218 -67 -253 -133 -44 -85
-23 -194 50 -258 44 -38 92 -53 172 -53 69 1 120 17 176 55 22 16 41 26 42 24
2 -2 7 -17 13 -34 l9 -30 98 -3 c53 -1 97 -1 97 1 0 3 -8 22 -17 43 -14 32
-18 85 -23 294 -7 272 -10 289 -62 336 -52 48 -87 58 -218 60 -69 2 -138 0
-155 -5z m241 -453 c-8 -72 -28 -105 -77 -130 -80 -41 -169 -4 -169 71 0 25 7
44 20 56 20 18 165 63 209 64 23 1 23 0 17 -61z"/>
<path d="M13742 3713 l3 -98 98 -3 97 -3 0 101 0 100 -100 0 -101 0 3 -97z"/>
<path d="M13700 3393 c-56 -21 -70 -96 -24 -132 27 -21 32 -21 851 -21 704 0
828 2 852 15 58 30 55 101 -6 133 -16 9 -236 12 -840 11 -450 0 -825 -3 -833
-6z"/>
</g>
</svg>
