<svg id="Ebene_1" data-name="Ebene 1" xmlns="http://www.w3.org/2000/svg" viewBox="0 0 291.65 134.34"><defs><style>.cls-1{fill:#f8ad07;}.cls-2{fill:#004f9f;}.cls-3{fill:#0bbbef;}.cls-4{fill:#fff;}</style></defs><path class="cls-1" d="M97.91,108.41c-.08-.14-.26-.13-.36-.26a.18.18,0,0,0,.11-.1.42.42,0,0,0,0-.38.71.71,0,0,1,0-.2c-.71-.48-.51.44-.81.7-.19-.24-.42-.5-.77-.3-.35,0-.48.41-.77.56s-.26.4-.11.63c-.16-.13-.3-.38-.54-.12a1.13,1.13,0,0,1-.35.82h0l.15.4h0a3.27,3.27,0,0,1-1.18-.32c-.62-.44-.64-.15-.54.47a2.05,2.05,0,0,1,0,.49l-.18.82c.5.49,0,.5-.22.64.14.2.42.28.39.63s-.2.71.06,1c-.51.32,0,1-.38,1.39,0-.27-.06-.55-.1-.88-.2.25-.06.6-.29.75v.39c.16,0,.09.48.37.25h0l.13.15h0c0,.24-.09.48-.1.71,0-.17-.1-.33-.38-.45,0,.36-.12.76.17,1.07a1.41,1.41,0,0,0,.21-.59.79.79,0,0,0,.27.63l0,0a.22.22,0,0,1,0,.08,1.77,1.77,0,0,1-.16.22.23.23,0,0,0,0,.23c-.24.08-.46.18-.31.58.1,0,.21-.15.31,0l-.06.06c-.08.23-.3.27-.43.44-.12.43.37.58.32,1l-.13.07h0c-.33.26-.13.65-.17,1l0,.86a.78.78,0,0,0,.08.9h0a.15.15,0,0,0,0,.14l-.13.61c.18.32.34.82.64.55a.55.55,0,0,0,.06.51c.63,0,1.35.1,1.35-1h0l.06-2c-.11-.21-.05-.45-.1-.67l0-.1c.12-.23,0-.55.14-.76a11.88,11.88,0,0,0-.2-2.06h0c.06-.14.13-.29.19-.44h0c0-.27,0-.55,0-.82l0-.42c-.23-.32.18-.76-.16-1.06h0s0-.06-.07-.08a.11.11,0,0,1,.07.08,1.49,1.49,0,0,0,0-1h0c0-.13,0-.27,0-.4a.76.76,0,0,0,0-1c-.29-.38.06-.5.17-.72l.35-.05.18.08c-.43.64-.16,1,.37,1.23l-.18.21h0c-.19,0-.41-.06-.52.21s0,.25,0,.38h0c0,.43-.16.88.12,1.28l0,.19a.22.22,0,0,0-.1.11.91.91,0,0,0,.07.74,2.2,2.2,0,0,0,.06,1.27h0l0,.41-.18.19a.66.66,0,0,0,.14.2h0a1.16,1.16,0,0,0,0,.86l.34.22c-.45.39-.36.9-.21,1.41a3.58,3.58,0,0,0-.06,2.12c.16.55-.22,1.34.46,1.68l.13-.18a.83.83,0,0,0,0,.18c.32.22.54.82,1,.55s.18-.78.21-1.19h.06a2.5,2.5,0,0,0,0-1c0-.22-.05-.43-.08-.65l.06-.21-.06-.83h0c-.07-.63.17-1.29-.14-1.89h0a13.48,13.48,0,0,0,.14-2.29h0c0-.69,0-1.37,0-2.06h0V115c0-.42.42-.81,0-1.25h0a.59.59,0,0,0-.16-.48,2.44,2.44,0,0,0,0-.27h0a1.14,1.14,0,0,0,.34-.68h0l.15,0c0,.42.27.68.34,1-.46.11-.24.39-.12.66h0a13.83,13.83,0,0,0,.13,3.69h0c-.19.08-.2.26-.24.47a29.67,29.67,0,0,0,.07,3.13l.06.83-.09.23a1.53,1.53,0,0,0,0,.82,2.92,2.92,0,0,0,.36,1.24c0,.32-.41.78.09.9.29.08.27-.4.25-.7a18.47,18.47,0,0,0-.08-2.68h0c0-.07,0-.15.08-.22a4.57,4.57,0,0,0,.07-1.65c0-.08,0-.17,0-.25a.29.29,0,0,0,0-.22c.16-.25,0-.59.16-.84,0-.2,0-.39,0-.58a14.85,14.85,0,0,0,0-2.31c0-.08,0-.15.07-.22a4.16,4.16,0,0,0,0-1.22l-.09-.42.09-.46a.14.14,0,0,0-.08,0v-.08s.11-.07.11-.16-.07-.5.1-.72c0-.22,0-.47-.18-.62h0c-.11-.21.18-.42,0-.64,0-.12,0-.25,0-.38h0c.27-.3.08-.71.16-1a1.11,1.11,0,0,0-.23-.46.19.19,0,0,0,.12-.16c0-.13,0-.17-.12-.22a.09.09,0,0,1-.11,0h0a.35.35,0,0,1,.35-.24.2.2,0,0,0,0-.28Zm-2.57,2.32a.28.28,0,0,0-.22,0s0,0,0,.06v-.06c0-.17-.1-.35-.16-.53l0,0C95.32,110.22,95.31,110.49,95.34,110.73ZM97.93,99.1c0-.23.09-.48.31-.54s.21.17.21.33l-.18.24,0,.39h0c.16.1.31.21.16.46-.11,0-.23,0-.3-.12h0a1.46,1.46,0,0,1-.64.47.25.25,0,0,0-.12,0,1.75,1.75,0,0,0-.36-.36c-.91-.52.33-.51.15-.85l-.3-.2a.39.39,0,0,1-.11-.59c.32-.34.22.2.36.28l.44.29.19.2Zm-7.8,3.32c.11-1.08.11-1.08.69-1,.06.29.55.11.45.49s-.35.34-.6.33h0c.35.85.69-.17,1,0h0c.09.28-.09.44-.2.63a.3.3,0,0,0-.16,0H91.1C90.72,102.87,90.23,103.2,90.13,102.42Zm6.05-2.07c-.16-.22-.16-.64-.53-.6l-.18.82s0,0,0,.05,0,0,.06,0a.38.38,0,0,0,0,.4l.06.18c0,.09,0,.17,0,.26-.34.26-.48.53,0,.83L96,102c.24-.29,1,0,.73-.82a2.28,2.28,0,0,0,.22-.22c0-.13-.05-.27-.07-.41A.91.91,0,0,1,96.18,100.35Zm-.58.24s0,0,0,0l.05,0Zm.54-1.76c-.51,0-.66.43-.86.75l-.36,0c0-.07,0-.13,0-.19l-.65-.62c.41-.24.56.29.85.2A.88.88,0,0,1,96.14,98.83Zm3-3.25c-.17.3-.46.29-.76.36.23-.32,0-.74.26-1C98.93,95,99,95.35,99.16,95.58Zm-4.3,8.35c0,.2-.11.39-.16.59-.26-.1-.73,0-.51-.61C94.42,103.57,94.64,103.78,94.86,103.93Zm-1.52,1.2h0s.11.07.15.11.49.18.41.57c0,.12-.19.32-.2.24-.08-.39-.73,0-.59-.65l-.33,0a.45.45,0,0,1,0-.69c.31-.3.35.21.54.26A1.1,1.1,0,0,1,93.34,105.13Zm.85-3.09a1.12,1.12,0,0,1-.41.87c-.23.25-.26-.08-.29-.27C93.74,102.47,93.8,102,94.19,102Zm3.93-.42c.2.51-.05.5-.27.53.16.08.24.22.1.51-.33,0-.74.06-.15.49.17.13.11.35.1.54h0c.26.15.22.42.21.67h0c.08.85-.35.54-.7.43l-.33-.22h0c-.06-.29-.6-.54,0-.87h0c0-.2,0-.41,0-.62a1.4,1.4,0,0,1,0-.81l-.53.8c-.12,0-.38-.11-.2-.23s.19-1,.74-.6a.25.25,0,0,0,.17,0l.36-.68.18,0Zm-2.49,1.86c-.67-.35-.1-.69,0-1A1,1,0,0,1,95.63,103.48Zm3-4.57c0-.28,0-.56,0-.84H99C98.91,98.37,99.26,98.94,98.63,98.91Zm-.22-1.24a.55.55,0,0,1,0-.37c.28-.41.39.3.64.16v.18C98.81,97.72,98.61,98,98.41,97.67Zm.21,3.48c-.07.42-.32.08-.49,0,0-.14,0-.28,0-.42C98.34,100.82,98.69,100.72,98.62,101.15Zm-6.55,8.44c-.28-.24-.12-.59-.18-.89C92.47,108.85,92.31,109.21,92.07,109.59Zm.11,3.45c-.07.37.4.95-.28,1.06v-.37Zm1-10.14c.11.28-.21.35-.28.55s.24.35.08.57-.31,0-.3,0c.11-.3-.61-.4-.12-.75a.15.15,0,0,1,.16-.07h0c0-.1,0-.2,0-.3S93.11,102.62,93.22,102.9Zm-1.51,2.89c.05-.35-.13-.75.18-1v.41c.1.12.28.19.18.42A.38.38,0,0,1,91.71,105.79Zm2.35-4.57h.28c0,.56-.43.41-.67.59-.48,0-1,0-1.06-.81h0c.27-.49-.23-.68-.37-1.12.48.12,1.13-.12.75.86v0c.41-.07.87-.2.54.63h0a.39.39,0,0,1,.14.08Zm3,4.37c-.12-.28-.08-.6.3-.62v.39C97.28,105.41,97.17,105.72,97.11,105.59Zm.65-10.65h.35c-.14.17,0,.65-.36.53S97.69,95.12,97.76,94.94Zm-4.17,5.14.44.29v.19a.4.4,0,0,1-.47-.31S93.58,100.14,93.59,100.08Zm-3.31-.56Zm1.59-1.26a.41.41,0,0,1-.16.44c0,.23,0,.49-.17.65L91,99.09l.33-.41c0-.13,0-.26,0-.38a.42.42,0,0,0-.14-.06c-.25.2-.48.2-.69-.14.19-.33.5,0,.69-.2h0l.14-.08c-.18-.22-.47-.55.1-.49a6,6,0,0,0,1,.1c.19-.14.38-.2.56,0l.65-.64c0,.54-.3.76-.47,1.05-.2.59-.58.21-.89.23a.33.33,0,0,1-.37.16Zm.23-2.51c.24.27.56.49.48.85s-.39.32-.67.24-.26-.17,0-.25C92.38,96.44,91.84,96.09,92.1,95.75Zm-.57,5.43c-.16,0-.32,0-.38-.19l.09-.66C91.37,100.61,92.2,100.58,91.53,101.18Zm.85-6-1.2.6c-.19.32-.45.21-.74.16a.77.77,0,0,1,.72-.39C91.45,94.89,92,95.23,92.38,95.17Zm0,0h0Zm-3.19,4.6a3.77,3.77,0,0,1,.12-1.5c.25.26.14,1.36.76.48a.41.41,0,0,1,.63.12c.25.55-.36.38-.46.67s-.41.23-.6.39a.07.07,0,0,1,0,.06c-.08.74-.62.1-.85.38C88.85,100,89.13,100,89.23,99.75Zm3-.94c.41-.08.53.25.82.44C92.68,99.34,92.42,99.32,92.26,98.81Zm1.15-3.37c-.07.15-.22.13-.36.11s-.18,0-.12-.19a.26.26,0,0,1,.36-.17C93.37,95.22,93.46,95.27,93.41,95.44Zm-3.56,2.75c-.16-.17-.09-.36-.07-.72.19.33.36.47.22.69C90,98.19,89.87,98.21,89.85,98.19Zm4-1.67c-.37.2-.53,0-.75-.22C93.36,96.11,93.55,96.3,93.81,96.52Zm-1-1.71-.4.33c0-.21,0-.42.2-.48C92.68,94.65,92.76,94.75,92.83,94.81Zm-.4.33v0h0Zm2.13,10.61c-.26-.28-.52-.54-.82-.85C94.67,105,94.67,105,94.56,105.75Zm0,2.35c.09-.31.35-.39.59-.47l.52,0c-.11.57-.66.27-.89.62C94.63,108.27,94.47,108.26,94.51,108.1Zm-1.36-1.46.76,0c-.31.46-.55.11-.77.15s-.35.31-.55,0c0,0,0-.12,0-.18Zm.17.83c.23-.09.46-.29.65.1C93.71,107.8,93.51,107.7,93.32,107.47Zm0,0c-.58.73.15.86.56,1.29-.84.26-1.18-1.42-2-.5,0-.2,0-.41-.05-.61a1.55,1.55,0,0,1,.06-1v0c.25.78.86.71,1.4.81h0Zm1.38-.49c.1,0,.16.18.24.27s0,.14,0,.2a.31.31,0,0,1-.33-.26C94.56,107.08,94.59,106.94,94.69,107Zm-5.48-5.36c.08-.32-.14-.54-.24-.85.45-.07.9-.12,1.14-.62,0,.18.48.31.1.52S89.63,101.43,89.21,101.62Zm7.48,3.56h0c0,.4,0,.81,0,1.22s0,.93-.35.94-.84.28-1.1-.3a4.31,4.31,0,0,1,.19-2.08c.24-.41.48-.14.72,0h0c.21,0,.31-.52.59-.2A.27.27,0,0,1,96.69,105.18Zm2.82-23.77s0,0,.06.07a.27.27,0,0,0,.33-.14,2.68,2.68,0,0,0-.41-1,4.58,4.58,0,0,0,.2-1.88c0-.32-.2-.24-.34,0h0c-.26,0-.54.09-.57-.38.11-.28-.08-.67.24-.87l.19.1a.37.37,0,0,0,.35,0c.16-.11.13-.3.15-.47a.63.63,0,0,0,0-.83l-.21-.63a2.7,2.7,0,0,1,.35-1.46l-.17-.33c-.15-.36-.43-.3-.69-.29h0c-.15-.22-.44-.27-.5-.59h0a1.24,1.24,0,0,0,.14-.76c.27.11.37.6.73.53A2.39,2.39,0,0,0,99.52,71c0-.14,0-.19-.15-.23-.35-.39.36-.46.18-.79-.14-.15-.32-.22-.46-.36.11,0,.2-.14.28-.25s-.05-.45,0-.68.17-.62-.16-.82c-.06-.35.61-.87-.18-1.07a1.71,1.71,0,0,1,0-.4.31.31,0,0,0,.15-.41c.08-.23,0-.41-.1-.61.44-.41.41-.58-.21-1.26,0-.43.35-.81.13-1.28l0-.35a.16.16,0,0,0,0-.09s-.07,0-.13,0h-.06a4.66,4.66,0,0,0,.28-.82c-.08-.34-.33-.67-.1-1.06,0-.2,0-.41,0-.61h0c-.06-.42-.13-.84-.19-1.26a9.51,9.51,0,0,1,0-2.5l-.09-.43h0l.09-.3c-.15-.43,0-.9-.12-1.34-.34-.49.14-1.27-.42-1.68l.15-.43c0-.2,0-.4.07-.6.46-.53-.26-1-.08-1.46a.51.51,0,0,0-.12-.61l-.2-.45c.06-.13.11-.27.17-.41h0c0-.67,0-1.33,0-2a.22.22,0,0,0-.14-.2h0v-.9h0a.2.2,0,0,0,0-.26l0-.79c-.16-.35,0-.74-.12-1.09h-.07v-.42c0-.35.12-.75-.18-1,0-.56.2-1.15-.13-1.68h0c0-.14,0-.29,0-.43h0V39c.11-.36-.28-.68-.09-1.05a2.11,2.11,0,0,0,0-1l-.24-2.09a9.51,9.51,0,0,0-.34-2.71h0a5,5,0,0,0-.17-1.58c-.16-.43,0-.91-.13-1.34l-.06-.41h0c0-.47,0-.94,0-1.4-.16-.43,0-.89-.12-1.32l-.24-1h0a.44.44,0,0,0-.14-.42h0a.53.53,0,0,0-.54-.44h0l-.39-.39h0c-.19-.31-.46-.1-.69-.17h0a.46.46,0,0,0-.71,0c-.18,0-.38-.05-.53.14s-.71-.07-.91.4A15.65,15.65,0,0,0,88.65,26c-.27.2-.74-.07-.86.49v0h0v0l-.88.06h0c-.29.28-.6-.2-.9,0h0l-.53.19c-.44.14-1-.09-1.28.57h0c-.12,0-.27,0-.32.18s-.6-.05-.76.35a.44.44,0,0,0,0,.1c-.17,0-.34-.19-.51,0h0c-.17,0-.38.1-.47-.2l-.78.22-.16,0c-.24.39-.48-.06-.72,0l-.18.21c-.47.09-.94-.2-1.42,0,0,.34-.14.3-.31.23v0c-.2-.18-.38-.12-.55.05s-.11.24-.21.32c-.58.07-.86.54-1.07,1.11-.33.12-.4-1.18-.89-.22H75l-.72.42c-.62-.39-.48.62-.88.65h0l-.09-.19c-.21,0-.31.11-.35.33,0,0,0,0,0,.05l-.1,0c0,.13-.11.25-.16.38s-.07,0-.09.08a1.68,1.68,0,0,0,0,.59h.07a2.17,2.17,0,0,1-.07.24,4.13,4.13,0,0,0,0,.93.39.39,0,0,0,.1.08h0a1.48,1.48,0,0,1,0,.21l-.15.26v.28c0,.11,0,.23.16.27s0,0,0,0c-.11.35,0,.74-.12,1.08,0,.54,0,1.09,0,1.64a4.71,4.71,0,0,0,0,1.06.33.33,0,0,0,.13.15l0,0c-.15.1-.08.32-.18.45,0,.34,0,.67.07,1h0c0,.35-.07.71-.11,1.06a.23.23,0,0,0,0,.23c0,.25,0,.5,0,.74h0a.13.13,0,0,0-.13.06c0,.49,0,1,0,1.47a.22.22,0,0,0,0,.21.81.81,0,0,0,.06.81.17.17,0,0,1,.12,0c.09.41-.41.61-.29,1,0,.07,0,.14,0,.2h0v1.06c-.06.19-.2.35-.13.57h0A1.49,1.49,0,0,1,72,48.22h0l0,.41a2.5,2.5,0,0,0,.37.36,1.09,1.09,0,0,0,0,.44.17.17,0,0,0-.14,0c-.41-.6-.33.12-.47.26,0,.09.08.19.13.29a.68.68,0,0,0-.09.17,2.22,2.22,0,0,1-.08.81c0,.33,0,.65.07,1h0c.16.35-.32.74.06,1.07,0,.23.12.47-.13.62a.11.11,0,0,0,0,.15.52.52,0,0,0-.13.5c-.1.39.12.69.2,1s-.6.3-.41.8h0l.16.45.09.11c-.27.52-.46,1,.46.9h0c.16.28.14.44-.18.32-.15,0-.28-.18-.34.05s-.26.35-.36.55V59c.13.29,0,.71.34.89a.26.26,0,0,1,.09.09l0,0a.27.27,0,0,1-.09,0,.17.17,0,0,0-.14.12c0,.21-.83.38,0,.61.19,0,.16.23.17.39h0c-.25.13-.08.74-.54.64-.12.47,0,.75.31.7a4.83,4.83,0,0,1-.14.66c0,.11-.08.23-.14.34a1.48,1.48,0,0,0-.12,1.18.62.62,0,0,1-.22.77c.1.28.36.24.54.37a.28.28,0,0,0,0,.27l-.06.09c.41.38.22.64-.16.73-.22.06-.39,0-.48.34s.4.27.39.59a1.5,1.5,0,0,1-.24,1c-.16.34-.5.73.18.83a.19.19,0,0,1-.13.25.31.31,0,0,0,0,.19h0c0,.31-.35.83.3.86,0,0,0,.08,0,.13a.44.44,0,0,0-.08.11c-.18.29-.48.44-.63.77s.18.35.36.44a.36.36,0,0,1,0,.42.41.41,0,0,1-.11.07c-.12,0-.23,0-.27.19v1.1c.07.27.52,0,.46.48v0h-.12a.58.58,0,0,1-.33.63c-.16.21-.14.34,0,.4h0a.78.78,0,0,0,0,.22c-.31.09-.16.37-.14.61s0,.25-.13.35a.39.39,0,0,0,.14.21h0l0,.27c.07.44.48.15.65.39a1,1,0,0,0-.49.45c-.64.58-.25,1.38-.32,2.08,0,.29-.09.61.18.82h0l-.06.62h0l-.14,0a.39.39,0,0,0-.08.4.56.56,0,0,0,0,.12c-.15.36.06.79-.16,1.13l.06.24,0,1.23c.08.21.15.42.22.63h0c0,.14-.07.28-.11.42-.35.37-.07.85-.17,1.26s-.1.61.17.82l-.15.23c-.26.37-.08.81-.13,1.22a2.24,2.24,0,0,0,.11.31c0,.11,0,.22,0,.33,0,.26,0,.51,0,.77,0,0-.08.06-.1.1-.08.34.06.71-.1,1,0,.41,0,.82,0,1.22h0V97c-.11.26.1.41.14.61-.18.09-.14.26-.12.42h0a9.44,9.44,0,0,0,.13,2.71,48.36,48.36,0,0,0-.49,5.24h0c0,.48,0,1,0,1.45h0v.21c-.08.42-.15.83-.22,1.25a2.24,2.24,0,0,0,0,1.12,1,1,0,0,1-.15.34c-.07.7-.14,1.4-.22,2.09a3,3,0,0,0,0,.9,1.71,1.71,0,0,0-.11.14l0,.21c0,.34,0,.69,0,1l0,0h0l0,0c-.32.29-.24.67-.16,1-.18.55-.56,1.26-.13,1.67a1.84,1.84,0,0,0,1.92.64c1.31-.46,2,0,1.92,1.23h0A2.7,2.7,0,0,0,71.8,121h0c-.24.91.42,1,.85,1.21s.67-.55,1.08-.14c.33.21.73-.08,1.06.18.29-.16.66.21.9-.19h0c.28.29.69-.39.93.17h0c.21.44.56.16.85.21l.19.09a6.35,6.35,0,0,0,1.07,0,.48.48,0,0,0,.18-.07c0,.08.1.11.13.18.51.13.27-.41.41-.62l.36-.27a1.31,1.31,0,0,0-.06.56.49.49,0,0,0-.13.18,1.16,1.16,0,0,0,1,.7,6.86,6.86,0,0,1,2.73.64c.12.25.31.14.48.15a.43.43,0,0,1,.16,0c.21.12.47,0,.67.15h0c.42-.23.9.08,1.31-.21.08-.28.45-.41.32-.81.07-.21.23-.23.38-.27a1.41,1.41,0,0,0,.54-.11,21.61,21.61,0,0,0,.14-4.62h0a8.86,8.86,0,0,0,0-2.52h0a1.24,1.24,0,0,0,.19-.85,30.24,30.24,0,0,1,.2-4.36.87.87,0,0,0,.16-.52,7.43,7.43,0,0,1,.13.93s.05,0,.08.06c0,.19,0,.39,0,.58v.34c-.1.12,0,.31,0,.47s0,.6,0,.9h.09v.11l0,0a.68.68,0,0,0,0,.56l0,.07a.66.66,0,0,0-.07.42c0,.14,0,.29,0,.43v1.48l0,0a2.38,2.38,0,0,0,0,1c0,.35,0,.7,0,1s-.28.8-.17,1.25c0,.15,0,.3,0,.45h0c.06.21.12.41.17.62a.28.28,0,0,0,0,.18V121a2.29,2.29,0,0,0,.15,1.44c-.53,1,.42.33.52.63a.1.1,0,0,0,0,.07s.07,0,.11-.06a0,0,0,0,1,0,0,.37.37,0,0,1-.07.14c0,.19,0,.37.27.32a.19.19,0,0,1,.14,0c.09-.31.35-.5.44-.81-.19-.39.14-.7.12-1.06-.06-.08-.1-.17-.17-.25.14-.22.06-.48.07-.72l-.06-.11a.69.69,0,0,0,0-.58l-.06-.22a8.85,8.85,0,0,0,0-2.3h.06a2.24,2.24,0,0,0,0-1.06.94.94,0,0,1-.1-.1.75.75,0,0,0,.07-.12v0l.19-.18,0-.36c0-.08,0-.16,0-.24v-.1l0-.1h0l-.15-1.46h0a.58.58,0,0,0,.11-.63H90a.88.88,0,0,0,0-.62.1.1,0,0,0,0,0,3,3,0,0,0-.05-1.31h0L90,111l.18-1c.15-.17.27,0,.39.07l.06,0a.66.66,0,0,0-.09.27l0,0a1.56,1.56,0,0,0-.16.2c0,.14.07.28.1.41a.07.07,0,0,0,.09,0c0,.13,0,.25,0,.38a1,1,0,0,0-.1.17,12.79,12.79,0,0,0,.07,1.52,10.74,10.74,0,0,1,0,2.47.12.12,0,0,0,.16.06c0,.5-.31,1,.15,1.46a.6.6,0,0,0-.09.13v0l-.23,0c0,.12,0,.24,0,.36s.09.28.14.41a1.42,1.42,0,0,1-.07.22,3.51,3.51,0,0,1-.08,1.12l0,3.33c-.16.33.25.51.15.82s-.26.46,0,.68c.08.08.25.15.31.1.25-.22-.08-.53,0-.78a.31.31,0,0,0,.15-.41c0-1.89,0-3.77,0-5.66a.47.47,0,0,0,0-.43l0,0a.58.58,0,0,0,0-.57c-.19-.58.24-1.1.12-1.68-.34-.62.17-1.23,0-1.85a1.54,1.54,0,0,1,0-1.1c-.14-.48.29-1.13-.34-1.45h0a1.21,1.21,0,0,1-.05-.18c.6-.42.36-1.09.37-1.69a2.07,2.07,0,0,0-.16-1.86,1.49,1.49,0,0,0,0-.21c0-.12.11-.35,0-.33-.37.08-.77.33-.56-.5,0-.12-.14-.16-.27-.15-.65,0-.17-.43-.21-.66.68.17,1.12-.19,1.41-.88h0c.17.14.19.55.52.41.07-.49-.15-.63-.52-.61h0a.48.48,0,0,0-.48-.37c-.07.55-.32.82-.82.82-.15,0-.47-.3-.51.19h0a.69.69,0,0,1-.34.83c.1-.6-.22-.49-.52-.43-.07-.22-.14-.43-.22-.65s-.23-.24-.33-.38a1.11,1.11,0,0,1,0-.19c.41-.3.5-.6,0-.9h0c0-.12,0-.25,0-.37s.11-.43.17-.64h0l.06,0c.25-.43,0-.84,0-1.26a2.49,2.49,0,0,1,.16-1.05h0c-.07-.34-.13-.69-.19-1a.4.4,0,0,0,0-.19c.19,0,.56,0,.5-.24-.15-.65.3-.77.55-1.06.15,0,.35,0,.32-.19s-.31-.15-.48-.19l-.19-.21c0-.12.07-.32.13-.34.89-.25.69-.89.43-1.56-.23-.07-.46-.06-.52.23s.19.18.31.22h0c.1.76-.48.89-.85,1.21h0c0-.2,0-.41,0-.61.14-.33.35-.64.16-1.05s.11-.64.41-.78h0c.15.21.27.17.37-.05.27,0,.4-.18.27-.46s-.3,0-.44,0l-.19,0-.34-.23h0c0-.13,0-.25,0-.38.17-.08.16-.26.17-.43h0c.41.25.7-.21,1.07-.24.9-.12,1.53,1.15,2.5.65.11,0,.38.18.3,0-.18-.45-.22-1.15-.94-1s-.21-.39-.23-.64a1.27,1.27,0,0,1,0-.2h0a.33.33,0,0,0,.17,0l.69,0h0c.46.36.83.91,1.43,1l.36.24h0c0,.06,0,.13,0,.19-.49.34,0,.7,0,1,.19.31.51.17.75.32h0a.74.74,0,0,1-.29,0,.52.52,0,0,0-.36.1c-.19-.14-.54,0-.6-.36-.46-.17-.82.52-1.29.18v.24l-.14,0c-.21-.2-.48-.15-.72-.21h0c-.06-.57-.46-.33-.72-.41a1,1,0,0,0-1.09-.52c.27.4.63.37.9.55,0,.39.28.39.53.4-.12.26,0,.93-.55.36-.17-.19-.31-.53-.53-.19s.24.43.34.66a.45.45,0,0,0-.47.49.42.42,0,0,0,.23.27c.33,0,.31-.35.44-.55h0c.43.48.64,0,.83-.33s.12-.54.45-.49c0,.69.29.26.49.18a.85.85,0,0,0,.86,0c0,.9.35.19.56.17h0c.22-.13,0,.79.38.24.58-.13.83.13.7.83l-.18,0c-.14,0-.29-.06-.43-.11-.62-.22-.46.11-.25.48h0c-.09.39.39.48.34.86h0c-.25.41-.53.81.24.85a2.59,2.59,0,0,1,.64.19l.18.23h0c.26.87.38.87,1.06,0h0c.53-.16.75.6,1.24.58.19-1-.2-1.55-1.06-1.67l-.36-.62h0a1.1,1.1,0,0,0,0-.18h0c.5.12.73-.34,1-.66l.22-.4a1.54,1.54,0,0,0,.17-.19,2.09,2.09,0,0,1,1.12-.25c.1,0,.26,0,.25-.2a.67.67,0,0,0-.12-.36,3.65,3.65,0,0,0-.54-.32,2.17,2.17,0,0,0-.38-.46,1.72,1.72,0,0,0,.37.07l.37,0c.6-.12.16-.66.28-1h0c.31-.09,0-.29.07-.43-.22-.44-.55.18-.78-.07L99,91l.17-.07c.24-.16.18-.46.26-.7s.19-.28.16-.47a.52.52,0,0,0-.3-.21h0v-.16c.27-.29.1-.34-.06-.41a1.61,1.61,0,0,0,.24-.45.77.77,0,0,0,.34-.81,3.22,3.22,0,0,1-.63-.54.25.25,0,0,0-.19.09.43.43,0,0,0,.11-.42l-.35-.23-.44,0-.11-.07c-.52.35-.29-.11-.3-.32.4.7.8,0,1.2,0-.07-.36.71.13.37-.5a.37.37,0,0,0-.29-.13,1.42,1.42,0,0,0,.46-.23.75.75,0,0,0,.17-.62c0-.46,0-.82-.52-.85h0l-.25-.2c0-.14.07-.29.11-.43s.41-.06.32-.41h0l.36.21c0-.21,0-.42,0-.63.15-.12,0-.23,0-.34a.13.13,0,0,0-.16-.11.22.22,0,0,0-.14-.21h0C99.39,81.62,99.36,81.46,99.51,81.41ZM96.07,91.52a1.17,1.17,0,0,0,.15-.32.27.27,0,0,0,0-.18s0,0,.06,0c.17-.22.13-.68.5-.69l.07,0a.32.32,0,0,0,.17.31h0a.25.25,0,0,0,0,.17c-.21.17-.58-.29-.69.21.33.1.67.32,1,0l.12.06.13,0A5.2,5.2,0,0,0,96.07,91.52ZM95.24,91H95a4.23,4.23,0,0,1,.05-.5.74.74,0,0,0,.21.5Zm-1.37-3,0,0c-.15-.14-.08-.25,0-.36A1.93,1.93,0,0,0,93.87,87.91Zm3,1.67-.35-.26H96L96,89.25,95.7,89h0a.22.22,0,0,0-.1-.25,3.08,3.08,0,0,1,.16-.38c.19.21.38.24.55,0h.08c.2-.08.41,0,.62,0a1.94,1.94,0,0,0,.09,1.14Zm.21-6.06c.08,0,.08.08,0,.1l0-.07a.53.53,0,0,0-.52-.13,0,0,0,0,1,0,0c-.27-.26-.58.12-.86-.06v-.07l0-.06h0l.21-.19a.48.48,0,0,0,.12,0,.83.83,0,0,0,.69-.4h0C96.66,83,96.93,83.24,97.08,83.52Zm-23-39.82c.23-.19.42-.38.19-.69a1.86,1.86,0,0,0,1.43-.24h0a.39.39,0,0,1,.14.4c-.17.07-.27.31-.49.24h0c-.26,0-.53-.1-.72.2l-.12.15a.53.53,0,0,1-.1-.06A.42.42,0,0,0,74.06,43.7Zm.66-1.36h0c-.13.11-.24.25-.42.22a.85.85,0,0,0,0-.68l0-.05a.3.3,0,0,0,.05-.34.38.38,0,0,0,.07-.21s0,0,0,0l.11-.12c0,.37.32.52.41.83ZM75,51.66a.61.61,0,0,0-.34-.29.87.87,0,0,0,0-1s-.07,0-.1-.07a1.83,1.83,0,0,0,.13-.16v0h0c-.09.28.07.38.26.46s.06,0,.09-.06h0c-.11.4.23.42.38.61,0,.13,0,.26,0,.4C75.32,51.54,75.14,51.51,75,51.66ZM91.31,72.73c0,.28-.14.36-.31.35,0-.23.08-.4.25-.44A.47.47,0,0,1,91.31,72.73Zm-1-20.38h0c-.11-.11-.26-.07-.38-.13h0l.5-.19A.31.31,0,0,0,90.26,52.35Zm-8-1.85L82,50.36C82.25,50.18,82.25,50.33,82.24,50.5Zm-3,44.86ZM89.5,68.92c.2.08.41.19.47-.24l.33-.05.07.09a1.51,1.51,0,0,0,.28.22,1.19,1.19,0,0,1-1.21.06S89.49,69,89.5,68.92Zm.69,14.46c-.21,0-.54,0-.45-.37.25.35.6.33,1,.13a.55.55,0,0,0,.12.24C90.63,83.3,90.4,83.43,90.19,83.38ZM75.86,46h0ZM74.8,36.41h0a.44.44,0,0,0,.37-.26.36.36,0,0,0,.47.25l0,0v.26l-.12,0c-.2.07-.34.18-.28.38-.31,0-.14-.47-.39-.53H74.8Zm1,9.83s.06-.08.08-.13c.17.08.18.26.22.43a2,2,0,0,1,0,.24h0c-.17-.24-.35-.47-.63-.28a.7.7,0,0,0,0-.29A.37.37,0,0,0,75.78,46.24Zm-.65-2.4h0ZM74.67,53a.34.34,0,0,0-.06-.12l0-.19s0,0,0,0a.33.33,0,0,0,.22,0c-.39.5.11.79.25,1.17h0l-.1,0s0,0,0-.07c-.15-.18-.29-.41-.49-.44A.51.51,0,0,0,74.67,53Zm11.09,57.13a.38.38,0,0,1-.15.36,1.39,1.39,0,0,0-.13-.42A.26.26,0,0,1,85.76,110.13Zm4.39-21.24a.46.46,0,0,0-.15.16,0,0,0,0,1,0,0l-.33,0a1.13,1.13,0,0,1,.38-.71l.07-.11h0s0,0,0,0,0,0,0,0h0A.79.79,0,0,0,90.15,88.89ZM73.91,43.81h0v0ZM71.05,84.93Zm-.18-4.81h0Zm27.77-4.9a2.6,2.6,0,0,0,0,.4h0a.57.57,0,0,1-.85-.13C98.05,75.22,98.36,75.29,98.64,75.22Zm.17-6.31a.66.66,0,0,0,0-.24l.17.07A.58.58,0,0,0,98.81,68.91ZM69.65,109.32ZM94.71,87.26a.27.27,0,0,0-.15.18c-.08-.17-.09-.41-.3-.45C94.47,86.91,94.56,87.16,94.71,87.26Zm-5.48,17.9h0Zm3.6-14.91,0,0c-.07-.24.27-.53,0-.67s-.25.24-.36.43L92.3,90h-.19a.15.15,0,0,0,0-.09c.15-.12.16-.24,0-.37s0,0,0,0c-.24-.22,0-.3.08-.42l.08,0a2.66,2.66,0,0,1,2.36.65l0,.06c-.09.22-.18.46-.42.52,0,0,0-.06-.08-.08a.3.3,0,0,0-.21,0C93.64,89.78,93.23,90.09,92.83,90.25Zm5.93-8a.11.11,0,0,0,.09-.07c.2.07.36,0,.53-.11a.78.78,0,0,0-.32.43h0C99,82.42,98.86,82.33,98.76,82.25Z"/><path class="cls-2" d="M73,61.05c.34-.2.2-1.36,1-.67.31-.19.62,0,.92,0,0,.14,0,.28,0,.42h-.36a1,1,0,0,0-.24,0,1,1,0,0,1,.09.85c-.15.8.31.2.48.28a3.8,3.8,0,0,1,.59.47c.29.31.11.53-.17.6C74.58,63.22,73.15,62,73,61.05Zm2.24-14.77c0,.22,0,.44,0,.67l.38-.23c.32,0,.27.21.25.43a1,1,0,0,1-.82.47c.28.36,0,.45-.19.62-.37.29-.44,0-.47-.34a1.1,1.1,0,0,1,0-.18.21.21,0,0,1-.13.05l-.38.27c0,.34.08.7-.35.73-.11.06-.22.17-.31.16s-.14-.23,0-.33.37-.37.56-.55c-.11-.39.2-.57.31-.85-.38,0-.14-.29-.13-.47.29-.38.62.09.92-.06l0-.38c-.12-.28-.23-.73-.55-.59-1.06.47-1.1-.5-1.36-1.21l.2,0a1.55,1.55,0,0,0,1.12,0,.55.55,0,0,1-.32-.47l.48.06,0,.34c.19-.08.39-.22.56.05.15.69.68.13,1,.41.09.43-.3.25-.41.42C75.21,45.51,75.05,45.79,75.23,46.28Zm-.69,1.25h0s0,0,0,0ZM67,8.62a.41.41,0,0,0-.08.4.39.39,0,0,0,.08.1V9.5a1.21,1.21,0,0,1,0,.19c.29.12.24-.18.3-.33h0a.52.52,0,0,0,.25,0l.05,0a.89.89,0,0,1,.13.59h-.18c-.23-.06-.39.1-.55.27a.2.2,0,0,1,0,.11c.24.26.41.09.56-.14h0c.16.06.21.43.41.29s.1-.5.11-.77h0c.06-.25-.08-.43-.16-.64.27-.24.16-.58.19-.88,0-.07,0-.15,0-.22V7.07h0c-.09-.57.31-1.38-.56-1.55-.07.44.15.94-.2,1.33l-.18.42c-.3.31-.14.72-.17,1.09h0C67,8.45,67,8.54,67,8.62Zm8.14,28.11c-.32,0-.41-.21-.22-.54v0c.16-.32,0-.51-.21-.67-.69,0-.69,0-.44.61.11.3-.11.35-.26.44-.41-.71-.84-.46-1.27,0l1,.07c0,.07,0,.15,0,.23.15.17,0,.44.13.61l.14.23a1,1,0,0,0,1.25,0,.23.23,0,0,1,.09-.18c.2-.25.63,0,.73-.45l0-.1v-.11C75.74,36.6,75.43,36.75,75.14,36.73ZM70.36,60.94c.09.17.17.35.26.52.54-.37.29-.62-.1-.84.58-.51,1.38-.36,2-.89.53.1.4-.62.71-.79.68.65,1.36,1.28,2.29.59.09.07.15,0,.2-.05.37.15.74.36,1.09,0v-.31a3.11,3.11,0,0,1-.61-.69h0c-.27.25-.59.16-.89.16a.13.13,0,0,1-.07.06l.07-.06c-.7-.75-1.22-.88-1.88-.47h0c-.22.32-.47.14-.64,0-.35-.33-.4,0-.52.25-.17-.22-.34-.45-.52-.67-.71,0-.34.38-.15.68a.75.75,0,0,0,.89.19l.39.28c-.21.28-.81.18-.61.86-1-.53-1.81-.55-2.41.67h0c-.17,0-.46-.16-.48.1s.27.34.5.3h0Zm4-4.35c.32.38,1.15.3.8,1.35-.13.39.31.37.51,0v-.22c.15-.34.18-.76.54-.93a.19.19,0,0,1,.13,0c.1,0,.21,0,.21-.2l-.2-.56C75.76,56.48,74.92,55.63,74.38,56.59Zm2.05-3c-.32.18-.23-.28-.39-.34-.17-.31-.33-.68-.73-.38-.37.48-.87.42-1.35.43a1.44,1.44,0,0,0-.74-.72c0-.2.32-.48-.08-.51-.12,0-.65,0-.33.56h0c.26.54.81.66,1.14,1.11A.74.74,0,0,0,74,54c.49.37.78-.2,1.08-.41.46-.31.72-.16.79.32s.33.4.62.41c.54,0,.17-.48.31-.68Q76.6,53.32,76.43,53.63Zm.13,21.16c-.47-.72-.69-.65-1.28.35a4.71,4.71,0,0,0,.87.58c.17.07.3.5.53.18a.55.55,0,0,0,0-.6A1.59,1.59,0,0,1,76.56,74.79ZM63.69,12.43c.28.28.31-.23.49-.28h.57a1.74,1.74,0,0,0,.18-.88c-.12-.25-.42-.2-.55-.44L64,11a1.52,1.52,0,0,0,0-.21h0c0-.45,0-.9,0-1.35h0c0-.45,0-.9,0-1.34s-.16-.28-.34-.2c0,.51,0,1,0,1.54s0,.75-.08,1.13a.08.08,0,0,0,.09,0h0a1.33,1.33,0,0,0,0,.79h0C63.61,11.76,63.39,12.13,63.69,12.43Zm12,57.27c.18-.37.3-.84.82-.4.21.18.31-.09.31-.34-.28-.34-.27-1-1-.73s.06.8-.32,1c0,0,0,.25,0,.39-.28,0-.71-.74-.79.24.15.26.42.15.62.25a.34.34,0,0,0,.2-.44A.17.17,0,0,0,75.66,69.7ZM70.24,6.84c.45-.07-.08-.36.09-.57s.06-.49.08-.74V5.31a1.21,1.21,0,0,0,0-.88h-.18a.89.89,0,0,0,0-.88c-.28.11-.15.53-.37.69a.94.94,0,0,0,0,.16h0l-.06,2C69.83,6.73,70,6.88,70.24,6.84Zm3.54,34.37c.16.31-.24.41-.18.67h0c-.09.33-.55.44-.4.92l.38-.27a.33.33,0,0,0,.2-.17L74,42.1h0l.35-.06a.59.59,0,0,0,.24-.18,4.5,4.5,0,0,0-.2.51c.08,1.12,1.19,1,1.57,1.81,0-.3.08-.53.12-.76.18-.83-.43-.69-.77-.87-.92-.19.17-.8-.18-1.1.33-.22.13-.59.18-.89-.33-.08-.7.49-1-.14-.11-.2-.35.14-.5.3-.25,0-.5-.27-.77,0,.25.23.45.52.8.47Zm2.8,21.86-1.12.84h0c-.15,0-.4-.06-.4.14,0,.89,0,.88-.63.73a1.42,1.42,0,0,0-.46,0h0c-.58-.34-.84.63-1.38.47h0l-1.65,0c-.1-.37-.28-.48-.56-.23-.09.38-.47.36-.66.63.14.31.77,0,.55.77-.15.52.36,0,.49.23l.2-.09h0c.19,0,.46.19.52-.17s-.18-.25-.34-.28c0-.26.21-.25.38-.28h0c.29.29.56.57.92.07.09-.13.19.08.23.21a.39.39,0,0,0,.4-.2c.55,0,.94.64,1.53.46a.36.36,0,0,0,.21.56c.24.09.37-.15.47-.37l-.19-.25c.13-.12.26-.25.38-.38.27-.32,0-1,.52-1.15a.15.15,0,0,0,.09-.19c.56,0,.28-.51.34-.81A.55.55,0,0,0,76.58,63.07ZM64.18,2.45A7.29,7.29,0,0,0,64,.17a6,6,0,0,0-.19,2.06Zm.56,5.94a7.56,7.56,0,0,0,0,2.42.12.12,0,0,0,.18,0,4.27,4.27,0,0,0,.12-2.27,3.35,3.35,0,0,0,0-1.75h0c.07-1,.15-1.89.23-2.84l.06-1.78c.14-.41-.1-.88.14-1.28l0-.23c0-.21,0-.42,0-.63-.23-.2-.26.08-.36.2l-.38.42h.31c-.19.56-.55,1.07-.36,1.73,0,.16,0,.31,0,.46l.06,1.32a7.85,7.85,0,0,0,0,2.42h0A2.79,2.79,0,0,0,64.74,8.39ZM70.35,20c.06.11.27.09.41.12a1,1,0,0,0,.94-.88c-.57-.5-.68.58-1.15.46C70.42,19.62,70.2,19.72,70.35,20Zm4.74,13.34a.46.46,0,0,0-.26-.15,2.22,2.22,0,0,1-.89,0c.11-.13.17-.27,0-.48h-.65c-.08.65-.07,1.21.71,1.08l.73.43C74.58,33.71,75.2,33.74,75.09,33.29ZM63.24,10.82c0-.29,0-.58,0-.87s-.06-.46-.12-.69h0A.38.38,0,0,0,63.22,9c0-.41,0-.83-.07-1.24l0-.86h0c0-.38.05-.76.08-1.14a5.86,5.86,0,0,0,0-2,2.28,2.28,0,0,0,0-.26l-.07,0c0-.42.19-.86-.15-1.23l0,1.29h0L63,3.79c-.18.64.09,1.33-.15,2,0,.29,0,.59,0,.88a.24.24,0,0,0,0,.27h0a.91.91,0,0,0,0,.82l.08,0c0,.15-.07.31-.1.46a2.91,2.91,0,0,0,.06,1.1c-.06.8-.11,1.6-.16,2.47C63.19,11.55,63.05,11.08,63.24,10.82Zm7.7-5.72c.08.32-.15.83.39.87a.77.77,0,0,0,0-.88c0-.22,0-.44,0-.66a.38.38,0,0,0-.39-.2v.64C70.86,4.93,70.86,5,70.94,5.1ZM66.08,8.4,66,7.08a2.63,2.63,0,0,0-.15,2C66.1,8.91,66.07,8.64,66.08,8.4Zm-1.5,112c0,.61,0,1.21,0,1.82.21.34.39.17.41-.12a3.35,3.35,0,0,0-.08-1.54h0C64.84,120.4,64.8,120.14,64.58,120.37ZM74,29l.16-.3c-.28-.74-.77.09-1.1-.2l-.52.41C73,29.14,73.5,28.58,74,29Zm.18-3.28c-.68,1.12.62.31.57.81.22.11.39.11.41-.24,0-.13,0-.27,0-.41l-.55-.07A.29.29,0,0,1,74.15,25.68Zm-1-7.08a.44.44,0,0,0-.16-.06c-.1.88.41.51.74.49l.18.24v-.08l.73-.05a.8.8,0,0,0-.53-.43C73.7,18.06,73.49,18,73.2,18.6ZM39.73,129.08a1.15,1.15,0,0,0,0,1.2c.07.15.14.38.32.21s0-.32,0-.49S40,129.32,39.73,129.08ZM74.34,81.75l.57-.19c.36.1.55,0,.34-.45C74.92,81.27,74.05,80.38,74.34,81.75Zm-7,37c0-.37,0-.73,0-1.1,0-.19,0-.39-.2-.49a1.62,1.62,0,0,0,0,1.62A.57.57,0,0,1,67.37,118.76Zm-29.3,11.33c.07.43-.23,1,.32,1.36v-1.36C38.28,129.84,38.17,129.84,38.07,130.09Zm6.18,2.33c.07.41-.16.91.24,1.3a1.9,1.9,0,0,0-.06-1.52ZM68.75,8.2c0,.21.08.41.32.42-.06.21-.3.33-.25.61.32,0,.41-.31.61-.43V8.67l-.35-.05a.82.82,0,0,0,.2-.87l0-.44c-.3-.24-.43,0-.54.26S68.93,8,68.75,8.2Zm3.57-.72a1.57,1.57,0,0,0,.22-1.36c-.46.18-.14.77-.44,1a.57.57,0,0,1,0,.18C72.1,7.47,72.2,7.73,72.32,7.48Zm2,14.36c-.38-.5-.9.08-1.31-.24C73.34,22.55,73.86,22,74.33,21.84ZM68.89,4.63l.56-.2c0-.28,0-.57,0-.85l-.56,0A1.93,1.93,0,0,1,68.89,4.63Zm-1-2.83c.12-.15.25-.3.38-.44-.12-.37.27-1-.35-1.1a.12.12,0,0,0,0,.21C67.93.91,67.93,1.36,67.94,1.8Zm8.43,78.05c-.81,0-.28.63-.36,1-.19.06-.47-.13-.56.26.19,0,.39.38.58,0h0a.65.65,0,0,0,.16-.09C76.59,80.69,76.32,80.23,76.37,79.85Zm-.69-31-.2-.12c-.13.21-.48.23-.37.63l.36.44c.29,0,.42-.11.35-.45.37,0,.77,0,.78-.67C76.26,48.5,76,48.8,75.68,48.86ZM71.14,9.3c.26-.52.43-1-.21-1.35C71,8.39,70.79,8.91,71.14,9.3ZM62,.46l0,0a.3.3,0,0,0-.39,0c-.12.31-.25.61-.37.92C61.78,1.46,62,1.1,62,.46ZM74.59,32.83a.09.09,0,0,1,.13,0c.23.25.49.18.74,0a.48.48,0,0,0,.19-.52,1.73,1.73,0,0,0-.93,0C74.47,32.37,74.32,32.54,74.59,32.83Zm-10-1.69c-.29.12,0,.3.13.43l.38,0c.07-.19.45-.21.31-.44S64.85,31.05,64.62,31.14ZM76.38,84.68c0,.42-.06.71-.48.58s0-.43-.06-.64h0l-.75,0c-.36-.16-.32.21-.41.42a4,4,0,0,1,.79.41c0,.21.39,0,.35.34s-.2.29-.38.2-.29,0-.37.17c.09.19.19.37.4.4a2.28,2.28,0,0,1,.22.22c.31-.1.59-.16.52.44l-.59-.05h0c-.25.5-.69.45-1.08.53a.53.53,0,0,1-.46.37c-.07.15-.13.3-.19.46s-.23.11-.3.24c-.47.34-.85-.2-1.28-.16h0c0,.13,0,.25-.18.28s-.08-.17-.14-.34h0a1.48,1.48,0,0,1-.55-.3c0,.28.25.64-.21.77.08.47.26.81.63.87a1.55,1.55,0,0,1,.24-.27c.51-.19,1-.75,1.57-.45.36.5,1,.06,1.35.48h0l.42,0a2.26,2.26,0,0,0,.11-.22c.51-.38.39.26.55.46,0,.28.09.66-.35.61h-.39c-.12,0-.21.06-.19.22.32,0,.55.23.69.45.36.52-.08.39-.3.41,0-.37-.26-.43-.46-.55a.67.67,0,0,1-.06.12.43.43,0,0,1-.61,0c-.34-.26-.61-.51-.95.1-.17.31-.64.11-1-.06h0a.48.48,0,0,1-.71.27c-.4-.15-.6,0-.33.55a.13.13,0,0,1,.15,0l.06,0-.06,0,.57,0h0a.88.88,0,0,1,1.09-.21c-.11.35-.53,0-.55.43h-.17l-.3.17c0,.4.27.43.51.49-.1-.15-.13-.3.16-.46.3.72.63.16,1,0l.08.11a1.45,1.45,0,0,1,.11.26.62.62,0,0,1,.27,0,1.13,1.13,0,0,1,0-.32s0,0,0,0a1,1,0,0,1-.45,0c-.1-.92.5-.23.71-.41s.65-.51,1,0a2.26,2.26,0,0,1,0,.26.74.74,0,0,1,.2.61h0c0,.16.22.33,0,.5l-.73,0c0,.59-.94.52-.61,1.3.21.21-.22.45,0,.66h0c.14.39,0,1.2.75.63a.53.53,0,0,1,.1.73c-.18.26-.43.33-.64.14-.37-.34-.45,0-.61.26l-.19,0h0c-.68.53-.69-.09-.75-.6h0c-.29,0-.61.06-.86-.2l-.45.37h0l-.25,0a10.94,10.94,0,0,0,2.37,1.54.34.34,0,0,1,.08.09c.14-.14.41,0,.49-.29a.11.11,0,0,0,.15,0c.49.1.08.29,0,.45l-.2.19h0c.85.24.4.7.14,1.13v1.3c0,.27.18.72-.33.66-.25.24-.26.85-.77.68-.64.74-.43,1.15.37,1.32a.67.67,0,0,1-.2.92c.11,0,.21,0,.24.18s-.06.29-.08.44h0c0,.35-.51,0-.52.44a.66.66,0,0,1-.28.42l0,0c0,.14.08.28.13.42l.19,0a.79.79,0,0,1,.16.73h0l-.16.24c-.17.12-.54,0-.4.48l0,0,0,0c-.14.32.23.59.07.92s-.55,0-.57.45a.62.62,0,0,1,.24.67,2.64,2.64,0,0,1-.25.87.45.45,0,0,0,0,.2c-.17.27,0,.78-.42.88A18.4,18.4,0,0,1,71,114.7a1.69,1.69,0,0,1-1.37,1h0c-.37.24-.73.6-1.16.3a.42.42,0,0,1-.12-.08l-.58.07c-.13.28-.27.55-.6.51-.38-.64-.76-.66-1.12,0-.06.19-.19.2-.33.18a1.35,1.35,0,0,1-.78-.65c0,.36-.05.77-.55.5a.6.6,0,0,0,0-.19l-.36.2-.45.89c0,.23,0,.45.07.68a.85.85,0,0,1-.15.66c.34.11.2.39.14.65s0,.26,0,.39h0c0,.18,0,.36,0,.54h0c0,.5,0,1,0,1.5h0v1.57c-.3,0-.25-.3-.34-.47a.58.58,0,0,1,.08-.76.46.46,0,0,1-.28-.06c-.15.19-.64,0-.48.56.51-.24.29.27.36.48l-.21.44h0c0,.44-.11.89-.16,1.33a.21.21,0,0,1,0,.25,1,1,0,0,1,0,.84l0,.22a.22.22,0,0,1-.31,0,.4.4,0,0,1,0,.19c-.12.23-.35.38-.28.73.17.78-.3.55-.63.52-.15.4.86.65.1,1.12l-.31.27c.34.09.27.38.24.65h0L61,130.87h0L60.41,132c0,.17,0,.36-.17.43-.28.82-.68,1.34-1.49.81-.12.1-.28.17-.35.31-.36.61-.73,1.11-1.38.42-.06-.07-.23,0-.35,0s-.13.62-.45.21c-.08-.16-.28-.1-.36-.25h-.13s0,.05,0,.07c-.2.14-.44,0-.64.17a3.17,3.17,0,0,0-2.2-.71v.09c-.3.33-.58-.35-.88,0s-.61,1-1.19.45l-.39-.06c-.22,0-.29-.19-.37-.36-.4.23-.9.23-1.23.64a1.85,1.85,0,0,0-.14.14c-.51-.82-1.57.13-2-.87-.52.61-.57,0-.72-.37-.07-.05-.17-.14-.19-.12-.17.21.14.73-.3.74s-.39-.59-.42-.79c-.09-.64-.43-1.17-.47-1.82a.64.64,0,0,1-.15-.43v0c-.15-.08-.14-.36-.26-.47,0,.5.25,1-.1,1.48l-.06-.33a1.18,1.18,0,0,1-.16-.29,7.39,7.39,0,0,0-.15,1.15l-.06.23a2.33,2.33,0,0,1,.18,1.55c-.4-.22-.22-.64-.39-.88a.86.86,0,0,1,0-.57.53.53,0,0,1-.29-.34c0-.13,0-.27,0-.4h0l-.21-.25c-.16-.35.05-.77-.16-1.11,0-.14,0-.29,0-.44h0l-.26-.86a1.29,1.29,0,0,1-.22-.3,1.47,1.47,0,0,1-.14.73h0q-.06.09-.12.06s0,0,0,0h0l0,.06c.09.25.3.47.17.79l0,1.09h0c.31.36.11.79.12,1.19-.31,0-.33-.26-.32-.52h0a29.37,29.37,0,0,0-.71-3.74.21.21,0,0,0-.23-.2,3.55,3.55,0,0,1-.28,1.29l.08.23c.38.46,0,1,.21,1.54.24.22-.17.46,0,.68,0,.23.1.47-.23.42a1.09,1.09,0,0,1-.16-.88l-.25-.66a1.91,1.91,0,0,1,0-1.06s0,0,0,0-.12-.06-.13-.16a.08.08,0,0,0,0-.11c-.27-.36-.35-1-1-.76,0,0-.06-.07-.09-.1l0,0c.09.12.07.3.14.44,0,.55,0,1.11,0,1.67-.5.35-.4-.23-.52-.47.32-.62,0-1.14-.2-1.69h0c-.22,0-.27.14-.22.36s-.12.4-.35.36l-.22-.27c-.18-.1-.35-.39-.52,0h0a4.71,4.71,0,0,1-.21.52v0c.33.31-.06.89.21,1.22-.16.45-.37.49-.53,0a5,5,0,0,1-.17-1c-.77,0-.55-.88-.84-1.3a.74.74,0,0,1-.07-.56c-.08.12-.16.23-.3.25L35,128c-.27-.25-.6,0-.89-.16l0-.08c-.4.46-.76,0-1.14-.06h0c-.72-.44-1.77-.5-1.66-1.92h0l-.36-1.53c0-.29,0-.59-.05-.88a2.08,2.08,0,0,1-.19-1.1h0c-.14-.52-.27-1-.4-1.56l.08-.08c0-.15,0-.29,0-.44s0,0-.05,0,0-.39-.17-.53h0c-.25-.39.07-.91-.2-1.29v0c-.18-.35.05-.78-.16-1.13v-.65c-.32-.53-.08-1.23-.4-1.76a.66.66,0,0,1,0-.65s0,0-.06,0a3.76,3.76,0,0,0-.1-.75c0-.33,0-.66,0-1h0l-.24-.88c-.16-.38,0-.81-.15-1.19l0-.35c-.19-.36,0-.79-.16-1.15,0-.27.05-.54.07-.81l-.06-.47a5.49,5.49,0,0,1-.21-2,16.64,16.64,0,0,1-.39-2.64.94.94,0,0,1-.06-.62h.11l0,0c-.14-.13-.1-.36-.18-.52.31-.64,0-1.28,0-1.92h0c-.22-.33-.1-.72-.13-1.08h0c0-.3,0-.59,0-.89a1.28,1.28,0,0,1,0-1.1.53.53,0,0,1-.1-.12,5,5,0,0,0-.09-1.28c0-.43.07-.85.1-1.27a4.85,4.85,0,0,1-.08-1.74,29,29,0,0,1-.37-3.62,15,15,0,0,1,.06-2.59A7.18,7.18,0,0,1,27,84.21h0c0-.09-.07-.17-.11-.26a1.35,1.35,0,0,1,0-.77v-.05a.39.39,0,0,1,0-.26c0-.08,0-.16,0-.24a.58.58,0,0,1,0-.43.54.54,0,0,1,.07-.13l0-.26a.16.16,0,0,1-.08-.06.58.58,0,0,1,0-.43c.45-.45,0-.89,0-1.34-.12-.38.07-.81-.12-1.18,0-.27-.05-.54-.08-.8s-.09-.73,0-1.09c0-.15,0-.31-.05-.46a.8.8,0,0,1,.11-.57h0a.79.79,0,0,1-.2-.71c.55-.65-.37-1.33,0-2-.25-.37-.05-.75,0-1.12h0l0-.68h0l-.23-.63c0-.27,0-.54,0-.8a2.46,2.46,0,0,0-.09-.39,4.55,4.55,0,0,0-.09-1.28.09.09,0,0,0,0-.12.73.73,0,0,0,0-.8v0c0-.4.27-.75.16-1.17h0a.75.75,0,0,1-.07-.44l.09-.22c0-.12,0-.24,0-.35A.33.33,0,0,1,26.2,65a3.81,3.81,0,0,0,.11-1.68c0-.16,0-.33,0-.49h0l-.1-.23c-.05-.36-.2-.74.09-1.07l.16,0c0-.16.06-.4-.18-.46-.38-.34.12-.73,0-1.09s.6-.17.41-.67l-.31-.22c-.37-.46-.05-.6.24-.76a.33.33,0,0,1,.23.12h0l-.11-.13c-.18-.25-.53-.26-.63-.62.07-.49.37-.67.86-.73-.57-.24-1-.47-.72-1.17C25.9,55.43,26,55,26,54.65h0a.67.67,0,0,0,0-.2.75.75,0,0,1,.38-.37c-.12,0-.24,0-.36-.16a2.09,2.09,0,0,0,0-.25c.27-.47-.11-1.06.19-1.52-.09,0-.17,0-.21-.18A12.61,12.61,0,0,1,26.19,50a.37.37,0,0,1,.21-.09,2.75,2.75,0,0,1-.39-.37,1.21,1.21,0,0,0,0-.19,3.62,3.62,0,0,1,.5-.65,1.64,1.64,0,0,0-.12-.46h0c-.06-.07-.13-.14-.19-.22l-.06-.23.82,0c-.38-.23-1.09-.11-.8-1.06.27-.35-.15-.44-.2-.67a.73.73,0,0,1,.36-.94.49.49,0,0,1-.28-.45l.12-.81a.27.27,0,0,1,0-.26l.09,0c.15-.65-.17-1.26-.12-1.9-.22-.07-.14-.27-.13-.44l.45-.24a.92.92,0,0,1-.14-.14s0,0,0-.06-.23.12-.29-.11,0-.37,0-.56.15-.32.22-.47-.05-.28-.08-.42-.17-.05-.16-.06c.06-1-.31-2,0-3,0-.81,0-1.63,0-2.45l-.08,0c-.06-.24,0-.53-.15-.74.34-1.3-.15-2.6,0-3.9l-.06,0a4.43,4.43,0,0,1,0-1.54c.14-.26-.12-.44-.1-.67l-.09-2.21a7.87,7.87,0,0,1,0-1.68s.05-.05.07-.07v-.22h0s0,0-.07,0c-.07-.31,0-.63-.1-.93,0-.48,0-1,0-1.45,0-.15,0-.3,0-.45s-.18-.54.14-.6.16.24.17.4,0,.43,0,.64l0,0a2,2,0,0,1,.27.83l0,0a1.13,1.13,0,0,1,0-.18A6.93,6.93,0,0,1,26.18,19c.54-.08,0-1.2.76-1.08a.41.41,0,0,1,.21.6h0c.13-.27,0-.87.53-.65l.56.48h0c.12,0,.19-.07.2-.21s.15-.36.37-.25l.19.24c.25.22.5-.48.75,0h0c.5.46.85-.7,1.47-.13.27.26.44,0,.61.56h0c.1,0,.18,0,.18-.17.21-.16.27.08.37.2l0,0a1.22,1.22,0,0,0,.07-.17.75.75,0,0,1-.17-.53l.57-.44a1.79,1.79,0,0,0,1.23,0l.71,0c1.15-.06,1.58-.52,1.88-2a.43.43,0,0,1,0-.2,7.7,7.7,0,0,1,.18-2.44c-.08-1.15.16-2,1.33-2.12l.76-.48c.23-.23.61-.09.79-.45.1.07.17.24.32.16a.4.4,0,0,1,.07.28s0,0,0,0c.19.23.12.54.14.83l.39,0c0-.3-.35-.76,0-.85s.93-.31,1.32.2h0l.23-.24h0c.28-.33.63-.14.95-.2h0c.15-.35.39-.76-.27-.62-.24,0-.36-.13-.4-.33s.13-.3.27-.37l.55,0h0c0-.08,0-.17,0-.26l1.53-1.43A.39.39,0,0,1,45,6.64c.62,0,.72-.94,1.32-.95.28-.2.67-.06.92-.38.1-.11.17-.3.34-.23a.57.57,0,0,1,.1-.39c.18-.25.35-.52.65-.56,0-.06,0-.11.08-.12a1.07,1.07,0,0,0,.91-.18h0c.24-.2.41-.5.74-.52a.29.29,0,0,1,.06-.19h0l0-.42h.06c.21.15.46.35.66.1.45-.55.59-.11.78.27.74.28.28.88.26,1.36h0c0,.23-.05.61.35.41a2.21,2.21,0,0,1,1.18-.36l.15-.16c0-.06,0-.11.07-.08l2.23-.91c.76.29,1.32-.48,2-.5.2,0,.39-.2.61-.12l.21-.21c.27-.27.54-.56.92-.24a.57.57,0,0,0,0,.18h0c.14,0,.29.05.37-.17.24-.2.38,0,.51.2.4,1,.13,2,.26,3.07-.17.65.54,1.39-.12,2h0l.42,0a.22.22,0,0,0,0-.16c0-.18,0-.36,0-.54v-.4h-.07c.16-.36-.18-1,.4-1.12-.06-.21-.11-.43-.17-.65h0c-.21-.24-.13-.56-.17-.85l.14-.09h0c.15-.24-.06-.63.23-.82h0c.07-.14.17-.39.27-.3s.08.37,0,.55l0,.41h0l.18.23.35-.46h0c0-.08,0-.15.07-.23l-.06-1.55a.62.62,0,0,0,0-.19c.09-.36-.09-.78.2-1.08l0,1.24c.08.08.11.19.19.28s0,.28,0,.42c-.17.26,0,.58-.12.86,0,0,0,0-.07,0a.4.4,0,0,1,.06.42,2.11,2.11,0,0,0,0,.25,2.51,2.51,0,0,1,0,1.09h-.07v.42h0c0,.9,0,1.8,0,2.7,0,.14,0,.27,0,.41a5.92,5.92,0,0,0,0,2.14c.06.32.12.69-.33.69A.56.56,0,0,1,62,11a.45.45,0,0,0,.16.46c.19.09.19.29.18.48a.48.48,0,0,0,.41.24h0c.61,0,.49.37.33.79h0a.72.72,0,0,1-.76.87c-.31,0-.5.21-.76.27h0l-.52,0c-.38.63.31.37.38.63h0l.56-.2a.55.55,0,0,1,.18,0h0c.27-.05.51-.27.81-.11s.4.3.29.57-.35,0-.53,0-.38,0-.42.1.1.29.24.36a5,5,0,0,1,1,.18c.64.24-.23.27,0,.47H62.8c-.22.17-.65-.35-.73.45,0,.35-.55-.45-.93-.26h0l-.34,0h0l.18.46,0,.41c.43-.06.47.3.52.66.13.67.55,0,.78.25.21-.06.43,0,.42.25s-.29.11-.43.22a5.77,5.77,0,0,1,1.5,1.71.43.43,0,0,1,.43.5c-.07.25-.28,0-.43-.08h0c-.3.29-.62.57-.9.89-.14.15-.23.31-.44.13s-.19-.4,0-.61c-.14-.2-.35-.15-.54-.18a.4.4,0,0,1-.12-.21l-.41,0c-.19.19-.07.25,0,.31h.09a.39.39,0,0,1,.21.17c.17.53.27.95-.45,1s-.49.41-.12.76h0c.37.09.83-.44,1.12.22h0a.37.37,0,0,0,0-.18c0-.19-.11-.47.1-.52s.23.24.28.43l.18.1c.19.08.42.15.18.46h0c-.12.77-.69,0-.93.39H61.2v.43c.31.23.16.58.16.89h0a1.18,1.18,0,0,1,.4.83h0a.2.2,0,0,0,.15.06l.41-.42h0l.92.19v.66h0l-.6.65H62c0,.31.19.59.13.92h0a3.49,3.49,0,0,1,.53.22c.17.1.47-.16.54.21,0,.09-.11.24-.2.32-.38.38-.34-.33-.59-.32h0a1,1,0,0,1,0,.79s0,0,0,0a1.06,1.06,0,0,1,.76.2h0c.23,0,.47.1.59-.27s.39-.3.64-.12.2.38.29.57a3.87,3.87,0,0,0,.32-.37.24.24,0,0,1,.19-.28c0,.29.5.18.37.6-.18.6-.59.36-.94.35a.12.12,0,0,1-.14,0h0l-.43.4h0c-.36.14-.66.32-.55.82a.25.25,0,0,1,0,.12v.15h0c-.18.8-.09,1.89-1.27,1.59-.3-.08-.16.46-.43.41l-.18.25h0c.41.32-.17,1.15.5,1.33h0l.23,0h0c0-1,.31-1.1,1.5-.61h0A1.37,1.37,0,0,0,64.92,34c0-.25-.19-.32-.35-.4-.27.19-.62.38-.77,0s.31-.55.52-.76.4-.06.6-.09c0,.14.09.18.2.16.06-.41.27-.56.6-.44.16.06.14.2,0,.29h0c-.1.78.37.58.73.58a.32.32,0,0,1,.21.24l.17.44-.06.09h0a.36.36,0,0,1,0-.1c.12,0,.22.39.37,0,.12,0,.24-.31.34,0s.08.38-.11.43a3.21,3.21,0,0,1-.62,0c-.29.16-.58,0-.87,0l-.25,0c-.58-.12-1.05.63-1.65.25-.07.23-.18.39-.41.4.06.14.13.28.19.43.25.15.6.1.74.48v0s0,0,0,0l.72.46c.44.46.67.87-.15,1.08l0,.08v.09c-.23.31-.48.47-.75.05h0a.37.37,0,0,1-.38-.4h0l-.14,0s0,.06,0,.08c-.25.2-.59.22-.83.46l.05,0a.55.55,0,0,1-.05.75l.13,0,.71,0h0l.19,0c.07.13.15.26.23.39-.18.12-.33.11-.44-.11l-.74.23.22.21h0c.34.25.68.55,1.1.21h0a1.34,1.34,0,0,1,1.51-.87l.58-.62.36-.08a1,1,0,0,1,.56.16c.08.8-.64.35-.83.72-.58-.57-.41.39-.67.46.13.49.66,0,.81.43.11.15.21.3.32.44h.38a.85.85,0,0,1,1.18.47c.21-.12.43-.33.58.1,0,.15.09.29-.05.34-.31.09-.44-.16-.52-.45-.29.3,0,1-.61,1.08a.15.15,0,0,0,0,.26h0a1.58,1.58,0,0,1,1,.34l.52.27h0c.33-.25.65-.51,1,0l.72.89h0c.21.18.5.28.56.65.31,0,.58-.35.92-.16V44l0,.08c-.32.48-.64.72-1,0l-.34,0-.58.24c0-.18,0-.35,0-.52a.58.58,0,0,1-.25-.15c-.05.19-.07.4-.31.45-.07-.41-.8-.23-.57-.89h0c0-.25-.24-.14-.36-.22s-.41,0-.4-.37h0l-.93-.31a1.26,1.26,0,0,1-.56-1.08c0-.09-.08-.14-.17-.08h0c-.17.41-.43.83-.81.49a.52.52,0,0,1,.22-.84c0-.32.28-.41.37-.66L66,40.06l-.54.06h-.76c0,.17-.17.43-.12.49.73.85-.15,1-.43,1.33-.16.12-.1.5-.4.46h0c0,.48-.36.73-.55,1.09a.7.7,0,0,0,.22.2c.31-.09.59-.33.91-.28,0,.62-.54.36-.76.63h0l-.35.13c-.2.08-.45.2-.32.5s.3.36.54.1a1.36,1.36,0,0,1,.49-.26c.24-.41.51-.51.81-.08h0c.56-.41.56-.41.18-.76-.07-.06-.14-.11-.07-.24.2-.41.49-.33.8-.22a1.38,1.38,0,0,0,1.65,1c.38-.46,1.33-.44,1.5.11s-.33.29-.52.43l-.58-.06c0,.15.06.48-.13.36-.86-.52-1.78-.21-2.67-.35v.1L65,45h0c.38,0,.32.66.71.68.2.73-.33.79-.65.77a1.41,1.41,0,0,0-1.55.87l.06.07a1.53,1.53,0,0,1,.16.76,2.58,2.58,0,0,0,2,0c.36-.37-.63-.27-.18-.77s.55.21.82.2c.38-.58-.77-.63-.3-1.24.44.47.88,0,1.32,0a1.2,1.2,0,0,1,.94-.62l.19.38.19.08c.13-.24.26-.5.56-.47,0-.26.07-.55.27-.57s.31.27.3.54a3.32,3.32,0,0,0,2.3-.53c.32-.26.51.11.75.19-.09.42-.52.26-.65.58-.12.1-.32.17-.37.31-.41,1.22-.87.76-1.4.11a2.54,2.54,0,0,0-.63-.41c-.18-.12-.3-.42-.56-.21,0,.49-.31.64-.59.83h0a1.29,1.29,0,0,0-.23.15c.34,1-.61,1-.91,1.42a.2.2,0,0,1-.27,0,.08.08,0,0,0,0,0,.39.39,0,0,1-.38,0,.67.67,0,0,1-.06-.12s0,0,0,0c-.3.16-.68.11-.91.46-.53.49-1.24.66-1.69,1.31-.12.56.34.62.56.89h0c.67-.72,1.38-1,2.14-.21.27.28.57.13.86.21-.36.49-.64,1.25-1.35.49-.27-.29-.61-.11-.87,0a.94.94,0,0,1-.79.15h0v.25c0,.42.7,0,.56.64.38.11,1,0,.58.86.23.1.32-.35.57-.2.44-.07.79.23,1.17.42-.38,1.17-.68.21-1-.06-.18.17-.36.34-.55.5l-1.5,0c-.37.39-.81-.65-1,0s.47.47.72.71,0,.71.37.73a.27.27,0,0,0,.08-.07c.29-.2.32.49.62.25a.63.63,0,0,0,.92,0,1.42,1.42,0,0,1,1.49-.26c.2-.34.3-.82.76-.83-.19-.61.23-.38.45-.44a.83.83,0,0,0,0-.69h0l1-1.49c-.26.4.36,1.39-.59,1.32-.2.36.28.53.18.87.36-.09.71-.18.74.47-.38-.12-1,.86-1.14-.32-.16.18-.33.33-.56.29-.2.36-.39.72-.58,1.08-.79.86-1.84.95-2.79,1.34h0a.53.53,0,0,0,.34.66c.26.16.29.32.06.58s-.08.36.17.34h0a1,1,0,0,1,.36-.6l.18.11h0c.7-.31,1,.12,1.07.85-.51-.39-.59.32-.89.47h0a.39.39,0,0,0,.2.44h.43a.35.35,0,0,1-.11.33,2,2,0,0,1,.42,0l.94.12c-.58.17-1,.25-1.25.72,0,.06.2.33.33.47.47.48.93.33,1.32-.11.65.68-.84.65-.22,1.29h.4c.39-.33.65.14,1,.23-.37-.74-.06-.92.53-.88-.11.28.19.64-.13.88a3.45,3.45,0,0,1-.39,1.51h0a.25.25,0,0,0,.15,0c.15.53.21,1.13-.44,1s-1.32.39-1.92.77h0l.13-.06c.29-.11.69-.3.75.21s-.42.71-.78.91c-.43.36-.58,1.43-1.44.78-.1-.08-.39.1-.41-.2s.41-.07.46-.45c-.17-.3-.45-.17-.7-.15l-.19.43h0a1.79,1.79,0,0,0,0,.23h0c-.11.69.58.33.71.72-.08.35-.5,0-.55.4,0,.22,0,.44,0,.66-.32.61.19.59.42.66s.58-.15.88,0h0c.36,0,.8.13.73.57a.83.83,0,0,1-.93.52h0c.2.62-.58.69-.5,1.24.56.08.88-.66,1.51-.56.32,0,.54.14.61.44s-.26.57-.5.61a10.27,10.27,0,0,1-1.47.06h0c-.12.35-.49-.1-.6.27a2.46,2.46,0,0,1,.07.29h0c.31.08.59.18.5.66,0,.13,0,.26.07.39h0a.53.53,0,0,0,.26-.76c-.15-.39,0-.44.27-.19h0c.45.14.62-.75,1.12-.43.31-.18.61-.43.94,0,.41-.08.79-.09,1,.44,0,.41,1.06.41.31,1.11-.83.18-.84.55-.18,1.07l.76-.63c.11-.31.34-.23.55-.23a.21.21,0,0,1,.12-.25h0c.24-.39-.54-.69-.11-1s.65,0,.94.25c.26-.32,1-.08.82-.92h0c-.23,0-.25-.24-.1-.35s.42.14.59.33v0l.56.19c0-.62.25-.89.8-.74.21.06.66-.51.53.32l-1.31.44a.32.32,0,0,0,.28.24.29.29,0,0,1,.16,0,.61.61,0,0,1,.3,0c.16-.16.33-.28.55-.19l.19.19c-.08.47-.38.23-.6.25.49.59.24,1-.35,1.22a.49.49,0,0,0-.17.06l-.18.25a2.83,2.83,0,0,0-.37,1.08,1.09,1.09,0,0,1-.65,1.29h-.1c.09.25.32.28.55.28h0c.67-.4,1.32-.66,1.73.41-.1.37,0,1-.63.56a1.19,1.19,0,0,0-.9-.13v0h0c-.06.16-.19.35-.15.46.1.29.57.44.05.85a2.8,2.8,0,0,1-1.65.61c-.12,0-.28-.14-.22-.26s.27-.49.44-.52c.41-.06.65-.16.42-.7h0c-.27-.2-.39-.62-.76-.67s-.22.77-.65.42a.61.61,0,0,1-.14-.81,2.12,2.12,0,0,0,0-.72h0l-.22,0h0c-.27,0-.31-.36-.53-.43h0c-.49.19-.74,0-.77-.61-.31-.43-.63.08-.94,0A.45.45,0,0,1,69,76v0a.48.48,0,0,1,0-.42,2.12,2.12,0,0,0,0-.5.86.86,0,0,1,.09-.42.72.72,0,0,1-.08-.26.75.75,0,0,1-.81-.16c0,.3-.21.43-.47.38a.89.89,0,0,1-.84.76h0a.49.49,0,0,1,.08.23c.2.16.73-.17.63.44h0l.25.64a.44.44,0,0,0,.16,0c0,.18,0,.4.19.46h0c.35-.18.4.23.57.41h0c.63-.22.79.6,1.39.7-.53.42-.84-.21-1.22-.06h-.14a.15.15,0,0,0,.13,0l-.13.36c0,.05,0,.08,0,.1-1,.77-2.22,1.25-2.58,2.82.24,0,.44.68.72.06.46-.09.87-.09.88.65s.57.88,1.13.63,1-.26.84.67c.35.24,0,.45,0,.67l.54.24c.07-.22.48.22.41-.32,0-.24.22-.44.29-.14.15.68.66.17.93.5L71.4,85h0c.26,0,.26.25.31.45a1.84,1.84,0,0,1,1.1-.19h0s0-.08.07-.1a.38.38,0,0,1,.18,0c0-.14.08-.28.11-.42-.33.32-.56.22-.67-.3-.08-.37-.19-.76-.55-.79-.8-.07-.89-.58-.76-1.26-.25.14-.25-.4-.43-.45-.65.09-.62.08-.85-.7-.11-.35-.41-.23-.65-.19l-.82.45c-.41.23-.62,0-.72-.43s-.22-.72.37-.66c.26,0,.55.45.82,0a.33.33,0,0,1,.46-.25c.51.16.88.1,1.08-.59.06-.23.35-.4.57-.51s.3.07.39.18,0,.26-.13.34a1.68,1.68,0,0,0-.5,1.69l.57-.17c.24-.16.52,1,.74,0,.54-.54.29.47.58.42a1.83,1.83,0,0,0,1.1.2c-.06-.18-.26-.45-.06-.54.41-.18.11.57.45.57-.1.15-.22.27-.4.2-.19.48-.94-.13-1,.68h0c.11.31.29.33.51.17a.66.66,0,0,1,1,.1l-.74.39h0l0,.22h1l.36-.19c.13.26.38.28.57.42a.52.52,0,0,0,0,.21c.22.25.78,0,.72.65h0A.35.35,0,0,1,76.38,84.68ZM73,77.83h0v0ZM70.87,98.76v0a.72.72,0,0,1-.67-.15.64.64,0,0,1-.16.55c0,.08.1.16.16.24h0l.23,0h.33l.08-.14,0-.07A.83.83,0,0,1,70.87,98.76Zm-2.22,1.9-.33-.39-.34,0s0,.08-.06.1a.55.55,0,0,1-.15.08v0C68.07,100.41,68.32,101.07,68.65,100.66Zm-.45-2.23c-.15-.09-.24,0-.28.12A1.55,1.55,0,0,1,68.2,98.43Zm1.17,1.64c-.45.21-.79-.24-1.18-.36.09.26.37.3.47.54h0a.36.36,0,0,1,.35.35l.08,0c.14.13.15.34.23.51a.17.17,0,0,1,.1,0A2,2,0,0,1,69.37,100.07Zm-1.61-7.15c0,.25.14.47.18.72C68.17,93.31,68.46,93,67.76,92.92ZM62.3,59.72h-.16s0,.08,0,.12a.65.65,0,0,0,.15-.11Zm5.08,50.67h0ZM62.23,59.68l.06,0,0,0Zm-.69-21.34Zm8.77,50.75c-.16.15-.34.27-.5.42v.1A2.25,2.25,0,0,0,70.31,89.09ZM63.45,57.91a.93.93,0,0,0,0,.14S63.44,58,63.45,57.91Zm2.93,21.42a.89.89,0,0,0,0-.43.16.16,0,0,1-.2-.06h-.11s0,0,0,.06a1.64,1.64,0,0,1-.14.3A.57.57,0,0,1,66.38,79.33Zm-2.8-21.94c-.06.12-.12.24-.17.36a.19.19,0,0,1,0,.15l.45.43c.18-.45.53-.84.41-1.42v0c-.18.1-.31.07-.4-.05,0,.22,0,.42-.22.54Zm-.47.07-.11,0a.6.6,0,0,1-.19-.06.49.49,0,0,1-.28.43A2.68,2.68,0,0,1,63,58l.2-.26ZM61,25.1a1.17,1.17,0,0,1-.37-.08.53.53,0,0,1,.05.32l.2,0A.29.29,0,0,1,61,25.1Zm.27-12.16a1.55,1.55,0,0,1-.48-.07s0,0,0,0l-.11.12a.57.57,0,0,1,.2.18h0A1.87,1.87,0,0,1,61.3,12.94ZM26.76,70.33h0Zm10.54,56.5a1,1,0,0,1,.09.31c.08,0,.15-.08.17-.16A.27.27,0,0,0,37.3,126.83ZM67.35,83.56c-.17.2-.35.49-.51.09,0,.44.78.54.34,1.12a.24.24,0,0,0-.05.13h0c0,.06.16,0,.19.07a1,1,0,0,1,.28.41.45.45,0,0,0,.09.1c.31-.1.66-.36.79.21h0a.73.73,0,0,1,.19.07c0-.14.14-.21.24-.17.63.23.87-.32,1.17-.75a.53.53,0,0,1-.64-.51s0,0-.07,0a1.23,1.23,0,0,1-1.12-.12s0,0,0,0c-.14.17-.31.28-.48.13A1,1,0,0,1,67.35,83.56Zm-1.1-10.83h0Zm-.77-5.31a.16.16,0,0,1-.1,0S65.44,67.46,65.48,67.42Zm1-4.76c-.28.1-.53,0-.59-.3l-.21.13c.31.24.66.38,1,.61a.74.74,0,0,1,.48-.55A2.17,2.17,0,0,0,66.47,62.66ZM64.15,51.48h0c-.12-.21-.34-.19-.51-.29-.26.37-.69.31-1,.57l-.13.11c.07.18.2.25.47.18a2,2,0,0,1,.65,0l.12-.11A1.5,1.5,0,0,1,64.15,51.48ZM64,36.81a.4.4,0,0,1,.26-.12c0,.12,0,.24,0,.36l.28,0a3.15,3.15,0,0,1,0-.92C64.34,36.37,64.05,36.51,64,36.81ZM61.76,4.64s0,0,0,0a1.05,1.05,0,0,1,.06.93s0-.06.08-.07l.05,0a.84.84,0,0,1,0-.54.24.24,0,0,1,.1-.1,1,1,0,0,0-.1-.52A.5.5,0,0,1,61.76,4.64ZM26.47,54.06a3.11,3.11,0,0,1,.46-.1A.93.93,0,0,0,26.47,54.06Zm.29,4.35h0Zm21.87,74.34a1.4,1.4,0,0,1-.17-.2,1.59,1.59,0,0,1-.08.33h.11S48.59,132.79,48.63,132.75Zm1.44.57h0Zm25.77-78c.07-.09.28-.06.2-.27s-.39-.13-.57-.26c-.13,0-.27-.25-.39,0a.23.23,0,0,0,.14.33A4.77,4.77,0,0,0,75.84,55.35ZM64.57,123.41a.24.24,0,0,1,0,.15c.16.12.28.34.52.2,0-.34.09-.7-.18-1C64.64,122.86,64.73,123.23,64.57,123.41ZM71.71,21.62c.36.26.71.5.91-.21C72.31,21.43,72,21.26,71.71,21.62Zm-1.5,10.57c-.12-.29-.36-.2-.56-.23-.22-.68-.57-.55-1-.22h0c-.19-.16-.28-.52-.61-.42-.16-.36-.45-.21-.7-.22s-.6-.14-.39.43l.4,0h0l.55,0h0c.3,0,.28.68.7.46.09,0,.11-.1.06-.19.24.07.52-.07.72.19a.29.29,0,0,0-.05.22C69.65,32.64,69.92,32.88,70.21,32.19Zm5.6,46,.6.93c.24-.3,0-.57,0-.85A.46.46,0,0,0,75.81,78.22Zm0-36.83c.24,0,.5.09.36-.38l-.69-.41c0,.12,0,.24,0,.36S75.61,41.4,75.86,41.39ZM69.07,20.06l.2.25c.48-.21.48-.21.4-.79C69.38,19.57,69.45,20.16,69.07,20.06Zm-2,12.8c.26.28.56,0,.81.17,0-.13,0-.26.07-.39C67.66,32.75,67.29,32.41,67.06,32.86ZM71.5,2.2c0-.35,0-.7,0-1-.21-.19-.26.08-.37.17l0,.46C71.16,2,71,2.51,71.5,2.2Zm4.55,60.26c-.09.46.35.23.54.33.07-.14.13-.28.19-.42C76.54,62.46,76.16,62,76.05,62.46Zm-1.45-38a.34.34,0,0,0,0-.27c-.19-.37-.44,0-.66-.07a.21.21,0,0,1,0,.19C74.12,24.58,74.36,24.53,74.6,24.41ZM73.4,7.08c0-.37.12-.77-.18-1.08C73.1,6.4,72.71,6.87,73.4,7.08Zm-.94,23.67a1.15,1.15,0,0,1,.75-.08l.19-.24a3.9,3.9,0,0,0-.8-.2C72.17,30.23,72.4,30.54,72.46,30.75Zm-2.11-9.27c.3-.22.3-.51,0-.8-.12.17-.23.34-.35.5S70.09,21.67,70.35,21.48ZM68.14,122.73a.61.61,0,0,0,0-.66c0-.15,0-.3,0-.45-.34.29-.34.77,0,1.32A1.48,1.48,0,0,1,68.14,122.73Zm-1.91,0c-.56-.15-.21.43-.36.61l.22.39v0C66.34,123.48,66.18,123.11,66.23,122.78Zm-1.65-3.57V120c.18.23.26,0,.36-.11.27-.26,0-.46,0-.68s.29-.59.06-.92l-.06,0h0a.54.54,0,0,0-.14-.52l-.38-.16c0,.23-.07.49.14.67h0C64.53,118.62,64.56,118.92,64.58,119.21Zm1.49-109c0-.31.09-.68-.2-.92C65.65,9.63,65.52,10,66.07,10.16ZM70,18.09c0,.29.15.52.4.36s.18-.4,0-.59Zm-.75,4.85c.27.8.79-.06,1.13.23l.45-.13c.14,0,.43.25.4-.15s-.3-.16-.48-.18l-.37.24-.75-.05Zm4.35,4.57c.2-.22.54.43.69-.15l-.15-.25C73.83,27,73.64,27.09,73.61,27.51ZM76,72.28l0,.42c.32,0,.54-.23.78-.42C76.57,71.7,76.3,72.38,76,72.28ZM75.94,38c0-.19-.21-.29-.41-.28-.13.21-.47.38-.06.66C75.64,38.26,75.92,38.16,75.94,38Zm.29,20.17h0Zm0,0c.22,0,.42.3.73,0C76.68,58,76.5,57.4,76.23,58.17Zm-4.34,3.37c.17,0,.31.33.48.06s0-.28-.13-.34-.48-.4-.49.2A.11.11,0,0,1,71.89,61.54ZM73,24.47c.25,0,.53.07.71-.23-.12-.5-.43-.23-.65-.18S73,24.32,73,24.47Zm-1.88,7.28c-.38-.14-.6.11-.78.44.47.64.65-.12,1-.27.34.14.46-.15.61-.39C71.52,30.88,71.39,31.63,71.14,31.75ZM66.16,2c-.2.24-.35.45,0,.83A.76.76,0,0,0,66.16,2Zm8,29.7A.44.44,0,0,0,74,32c0,.26.23.17.35.24s.15-.17.23-.26C74.44,31.86,74.4,31.54,74.17,31.66Zm-6,92.4a.8.8,0,0,0,0-.89C67.63,123.47,67.87,123.76,68.13,124.06Zm4.65-91c-.07-.39-.44-.15-.69-.16a.21.21,0,0,1-.06.19c-.44,0-.94-.15-1.25.43a3.4,3.4,0,0,0,1.51-.23C72.49,33.26,72.84,33.38,72.78,33Zm2.87-1.72-.7-.21c0,.44.24.4.47.49S75.63,31.48,75.65,31.32ZM72.51,2.6a.39.39,0,0,0,.23-.27c0-.11-.09-.32-.16-.33s-.17.22-.25.34S72.37,2.64,72.51,2.6ZM76.4,39.89a.63.63,0,0,0-.37-.65C75.45,40,76.18,39.75,76.4,39.89Zm.23,25.45c0,.15.08.27.22.21a.35.35,0,0,0,.08-.26c0-.08-.09-.14-.16-.25C76.7,65.17,76.63,65.25,76.63,65.34ZM75.47,88.15a.85.85,0,0,0,.22.09.69.69,0,0,0-.22.12c-.06.25-.28.56.17.61.13,0,.24.21.39.07s.11-.27.17-.4a.67.67,0,0,0-.27-.39.58.58,0,0,0,.29-.11C76,87.42,75.71,88,75.47,88.15Zm.19-57.72c-.14-.42-.44-.43-.75-.44C75,30.58,75.4,30.29,75.66,30.43ZM73,16.77l.2.05.35-.28c.06-.42-.17-.29-.35-.27A.62.62,0,0,0,73,16.77Zm-5.09-12c0-.24.22-.48,0-.72-.21.13-.09.38-.14.57Zm-1.29,27c0-.34-.14-.46-.4-.45C66.4,31.4,65.93,32.29,66.63,31.75ZM65.87,5.1c.35-.39.13-.89.19-1.33C65.72,4.16,65.94,4.66,65.87,5.1Zm.23,112.34c0-.36-.18-.36-.39-.17v.62h0c0,.14,0,.28,0,.42s0,.25,0,.38.28.38.53.26L66,117.68A2.17,2.17,0,0,0,66.1,117.44ZM63.61,6.19c0,.24,0,.51.2.67C64.11,6.49,64.06,6.26,63.61,6.19ZM63.06,2c.12-.14.24-.29.37-.43,0-.14,0-.27,0-.41,0-.35.16-.74-.14-1.11a1.59,1.59,0,0,0-.18,1.1C63.07,1.42,63.06,1.71,63.06,2Zm.88,2.69c.1-.17.14-.42-.14-.5l-.15.39C63.75,4.63,63.85,4.84,63.94,4.68Zm2.28,115.77v-.08L66,120a.53.53,0,0,0-.08.63C66.05,120.84,66.11,120.51,66.22,120.45Zm1,1.58a.78.78,0,0,0,0-1.09C67.19,121.3,67.2,121.66,67.2,122ZM69.43,7V6.9c-.17-.12-.32-.31-.55-.27C68.87,7.13,69.13,7.11,69.43,7Zm2,2.73c.09-.21-.14-.25-.28-.28L71,9.72C71.12,9.76,71.3,10,71.42,9.76ZM71.33,61c.22-.17.68-.06.54-.64C71.67,60.59,71.32,60.6,71.33,61ZM72.66,3.77c-.41-.18-.33.21-.39.44C72.52,4.22,72.65,4.06,72.66,3.77Zm2.57,31c.06-.23.26-.5-.13-.59,0,.13-.09.18-.2.14C74.63,34.89,75.2,34.58,75.23,34.8ZM75,29.51h.26l.17-.33a.85.85,0,0,0-.31-.06C74.86,29.15,75,29.35,75,29.51Zm-7.66.61c.28-.27.85-.21.81-.88,0-.21-.05-.45-.34-.39-.19.45-1,.06-.93.84C66.86,30,67.22,30.2,67.31,30.12ZM65.42,22.5c0-.2,0-.54-.23-.64a.35.35,0,0,0-.34.08c-.23.28.22.47.11.75C65.12,22.6,65.48,23.15,65.42,22.5Zm-.46.2h0ZM68,18.26c-.73-.32-.87.06-1.06.77Zm-.52-2.16c.45-.27.75-.51.43-1.08a.84.84,0,0,0,0-1c0,.34-.44.65,0,1h0C67.77,15.32,67.4,15.54,67.51,16.1Zm2.2,9.08-.44-.06c0-.23-.1-.44-.35-.37-.06,0-.1.14-.14.22l.3.18c-.11.31-.43.12-.6.35C69,25.94,69.34,25.5,69.71,25.18ZM64.5,26.61c.11-.47-.39-.27-.57-.44a1.58,1.58,0,0,1-.12-.15c-.33.22,0,.45,0,.67C64,26.54,64.42,27,64.5,26.61Zm6.19,2.86c.14.05.24,0,.25-.21a.44.44,0,0,0-.28-.49c-.07,0-.18.16-.48.46A5.33,5.33,0,0,0,70.69,29.47ZM66,19.5c.22.05.21-.18.21-.35s0-.3-.18-.3-.15.17-.18.38C65.91,19.29,66,19.49,66,19.5Zm-1.79-2.75c-.41-.23-.67-.23-.92,0C63.59,16.65,63.81,17.07,64.24,16.75Zm6.31,13.46c-.44-.37-.65,0-.9.12A.81.81,0,0,0,70.55,30.21Zm-2.41-2.65c0,.14,0,.3.16.31s.17-.21.2-.36,0-.31-.2-.27S68.14,27.41,68.14,27.56ZM68,24.92c-.29-.18-.41-.45-.84-.28C67.43,24.91,67.57,25.2,68,24.92Zm-1,3.38c.48-.19.74-.2.85-.62C67.56,27.59,67.37,27.76,67.05,28.3Zm.76-8.37c-.28-.33-.44-.54-.76-.4C67.15,19.92,67.35,20,67.81,19.93Zm1.64-4.26c.23,0,.41-.13.32-.46,0-.06-.14-.13-.2-.12C69.25,15.19,69.37,15.44,69.45,15.67Zm0,0Zm0,0Zm-.71,0a.27.27,0,0,0,0,.2c.13.18.28,0,.41,0s.19-.14.29-.21a2.61,2.61,0,0,1-.27-.06C69,15.56,68.85,15.38,68.74,15.69ZM72,13.35c.07,0,.2,0,.21-.08.07-.23.14-.48-.16-.59C71.82,12.89,72.07,13.14,72,13.35Zm-.9-.94c0,.29.31.19.64.28a2.69,2.69,0,0,0-.22-.39C71.34,12.14,71.1,12.17,71.1,12.41Zm-5,9.49c-.16,0-.18.19-.14.33s.12.19.18.19a.25.25,0,0,0,.22-.28A.24.24,0,0,0,66.06,21.9Zm.08,3.86c-.2-.07-.23,0-.23.15s0,.28.2.3.28-.05.24-.23S66.18,25.8,66.14,25.76Zm0-9c.11-.41,0-.61-.4-.89C65.89,16.23,65.78,16.52,66.13,16.74Zm-.63,10.7c-.35-.18-.62-.19-.86.07C64.9,27.44,65.22,28,65.5,27.44Zm-1,.12h0l.08-.07A.19.19,0,0,0,64.54,27.56ZM64,19.89c.27,0,.18-.36.28-.75-.21.15-.3.18-.36.26S63.81,19.89,64,19.89Zm-.13,4.27c.26.21.46.1.59-.17a.29.29,0,0,0-.09-.25C64.1,23.66,64,23.86,63.89,24.16Zm-.37,1.16a.18.18,0,0,0,.21.24.39.39,0,0,0,.28-.21c.09-.22-.11-.17-.25-.24S63.55,25.22,63.52,25.32Zm0,3.2c.07.2.24.07.34-.09l0-.1v-.1c0-.14,0-.45-.19-.35A.82.82,0,0,0,63.51,28.52Zm4.41-16c.17,0,.2-.16.17-.31a1.28,1.28,0,0,0-.14-.34c-.24,0-.19.2-.19.33S67.75,12.51,67.92,12.52Zm2.62,14c-.15.3,0,.54.06,1C70.77,27,70.88,26.72,70.54,26.5ZM73,15.24c.26.22-.19.66.18.85C73.24,15.78,73.79,15.32,73,15.24Zm.18-.92c-.22.08-.54-.06-.63.29,0,.15.15.18.27.18C72.82,14.48,73.37,14.77,73.21,14.32ZM71,13.78c0,.2.08.26.17.19a2.13,2.13,0,0,0,.26-.26c-.07-.05-.15-.17-.19-.15A1,1,0,0,0,71,13.78ZM69.9,26.28c-.11,0-.18,0-.15.17a1.38,1.38,0,0,0,.18.34s.18-.06.19-.11A.4.4,0,0,0,69.9,26.28Zm-.76-15.81c-.12,0-.22.14-.17.36l.2.29a2.05,2.05,0,0,0,.16-.38C69.36,10.58,69.28,10.43,69.14,10.47ZM68.86,15l.1-.12a1.19,1.19,0,0,0-.13-.25c-.14-.14-.32-.32-.37.05C68.45,14.75,68.72,14.88,68.86,15ZM67,16.64c.22.25,0,.59.4.68C67.3,17.12,67.57,16.74,67,16.64Zm-2.32-1.3c-.21.11-.14.35-.16.55l.2.07a.43.43,0,0,0,.11-.55A.14.14,0,0,0,64.71,15.34ZM64,21.2c-.13,0-.24,0-.19.17a.33.33,0,0,0,.2.18c.1,0,.18-.05.15-.17A.57.57,0,0,0,64,21.2Zm0,6.54a.45.45,0,0,1,.18.07l.38,0c0-.07,0-.15,0-.22l-.35-.24C63.83,27.28,63.85,27.47,64,27.74Zm.87-2.57c0,.15.06.18.15.19.27,0,.27-.2.27-.42C65.1,24.89,64.93,24.89,64.87,25.17Zm.42-.23h0ZM65,22.7Zm-.13.51s.13.08.15.05c.21-.19,0-.37,0-.56A.36.36,0,0,0,64.82,23.21Zm.05-3.12a.89.89,0,0,0-.08.3c0,.14.12.24.25.18s.06-.19,0-.27S65,20.18,64.87,20.09Zm.86,4.54s-.07-.12-.11-.12c-.26,0-.28.21-.32.42C65.48,24.89,65.68,24.9,65.73,24.63ZM65.34,21a.46.46,0,0,0,.1.26s.13-.05.23-.09a1.19,1.19,0,0,0-.16-.29C65.41,20.82,65.34,20.92,65.34,21Zm.6-6.31s-.15.14-.15.2a2.11,2.11,0,0,0,.16.46,1.53,1.53,0,0,0,.11-.34C66.07,14.92,66.1,14.74,65.94,14.72ZM66.36,31c.09-.45.29-.68,0-1.06A1,1,0,0,0,66.36,31Zm.85-15.8c0-.16-.23-.19-.5-.08a1.56,1.56,0,0,0,.26.21C67.08,15.36,67.29,15.53,67.21,15.18Zm-.3,12c.12.3.32.18.47,0s.56.09.45-.27-.41.11-.64,0S66.82,26.94,66.91,27.16Zm1.9,1.49s.15-.08.18-.15,0-.21-.12-.2a.32.32,0,0,0-.21.15C68.59,28.58,68.69,28.62,68.81,28.65Zm0-4.85c0,.07.09.18.15.2s.14,0,.42-.13a2.16,2.16,0,0,0-.37-.18C68.92,23.69,68.85,23.76,68.78,23.8Zm.48-.88h0v0Zm-.44,0a.68.68,0,0,0,0,.29l.45-.27C69.11,22.72,69,22.65,68.82,22.91Zm1.77,5.38a.36.36,0,0,0,.57,0C71,28.35,70.84,28,70.59,28.29Zm1-1.93a.52.52,0,0,0,.27-.22c0-.09,0-.21-.13-.18a2.55,2.55,0,0,0-.44.21C71.43,26.27,71.52,26.38,71.58,26.36ZM68.3,70.62A1.15,1.15,0,0,0,70,70.51h0a1.55,1.55,0,0,1,.5-1.75,1.53,1.53,0,0,0,.24-.44c-.32-.29-1,.1-1-.76-.41.37-1,.13-1.4.54-.14.21-.39.33-.4.64-.37,0-.75-.1-.91.44l.51.69h0A2.91,2.91,0,0,1,68.3,70.62Zm4.37-4.52ZM73,71.6h0c.28-.25.75.1.93-.42-.23-.26-.51.17-.75-.06v.09c-.68-.42-1,.46-1.63.51C72.17,72.43,72.61,72.22,73,71.6Zm-2.08-3.54c.68-.53.11-.76-.18-1-.25.15-.55.38-.49.68A.56.56,0,0,0,70.94,68.06Zm3.39.46c0-.17,0-.34.18-.45s.47-.24.36-.52-.35-.27-.55-.33c-.56-.17-.83.51-1.3.64-1.34-.1-1.34-.1-1.5,1.33h0l-.38.67c-.43,0-.38.37-.37.7-.22.15-.34.45-.63.52s-.39.16-.24.46.09.47.32.48.25-.24.27-.47.16-.46.44-.31c.39.51.57.05.79-.23l.34-.3h0l.83.27c0-.55.5,0,.57-.42-.33-.11-.74.21-1-.25l-.38.2h0l-.51-.26h0l-.29-.37a.64.64,0,0,0,.45-.56.26.26,0,0,0,.18-.09c.35-.52.73-.53,1.13-.08h0c.44.1.81.75,1.34.27l.15-.23h0C75.31,68.64,74.2,68.82,74.33,68.52Zm-2.18,4.54c0,.12,0,.22.13.17a.63.63,0,0,0,.27-.24c0-.11,0-.19-.29-.2C72.26,72.81,72.19,72.93,72.15,73.06Zm-6-3.79c0,.08,0,.23.07.26s.22-.07.24-.21-.06-.18-.14-.41A1.21,1.21,0,0,0,66.16,69.27Zm6.27-2.7c0,.07.19.15.22.12s0-.38,0-.58C72.53,66.22,72.29,66.28,72.43,66.57Zm.24-.47h0ZM69.63,34a1.35,1.35,0,0,0,2.49-.2,2.22,2.22,0,0,1-2.48.2Zm-2.25,2.42c.45-.1.66-.48.7-1a.83.83,0,0,0-.71.35h0l-.39,0h0a.19.19,0,0,0-.15,0c-.49.17-.59.46-.23.92-.06.21-.13.42-.2.63l.25.07a.39.39,0,0,0,.23-.17.35.35,0,0,0,.3.14v-.06a.28.28,0,0,0,.18,0l.33-.45h-.51C67.11,36.57,67.09,36.44,67.38,36.37Zm-2.81-.45,0,0h0Zm3.78,1.77L68,37.51c-.06.32-.16.67.31.65.2.32.38.7.75.22,0-.19,0-.37.21-.46C69.06,37.29,68.68,37.65,68.35,37.69Zm1.3,1c.3.21.44,0,.54-.34s.11-.49.4-.48h0c.47.42,1-.36,1-.28.88.89.55-.22.68-.53a.17.17,0,0,0,.14,0h0c.28.38.66.06,1,.2a.2.2,0,0,0,0-.24c-.24-.52-.76.42-1-.26-.15-.12-.32-.61-.4,0h0l-1.5.9h0c-.19,0-.4-.13-.57.09l-.49.16A.51.51,0,0,0,69.65,38.7Zm3.79-4.37c-.33-.12-.51-.55-.9-.51a.38.38,0,0,0-.07.28C72.7,34.59,73.09,34.32,73.44,34.33Zm-7.5,1.76s0-.23,0-.25-.38-.19-.66.09C65.51,36.18,65.71,36.26,65.94,36.09Zm2.82-1.16c.06.07.4,0,.44-.16.12-.3-.13-.29-.29-.33h0C68.84,34.6,68.57,34.72,68.76,34.93Zm-3.43.22c-.11-.19-.36-.15-.6.18l.35,0C65.24,35.4,65.45,35.35,65.33,35.15Zm.3,2.58c0,.32.26.11.4.17l0-.42C65.87,37.47,65.63,37.5,65.63,37.73ZM73.06,39c-.14-.27-.35,0-.46.08-.29.28-.61,0-.89.13h0c-.13.55-1,.06-.91.88-.35-.35-.69-.68-.78.21-.15.26-.55-.26-.57.19s.35.28.57.3a.61.61,0,0,0,.18,0c.41.15.82.25,1-.43h0l.56-.27h0c.51.34.75-.32,1.14-.43S73.15,39.24,73.06,39Zm-1.69,3.18a.39.39,0,0,0,.1.25c.29.22.6.07.89,0s.29-.26.46-.42c-.35-.27-.52,0-.65,0A.62.62,0,0,0,71.37,42.22ZM74,37.71h0v0h0Zm-.75.9h0c.27,0,.17.67.53.52s.1-.37,0-.56a1.08,1.08,0,0,0,.18-.86C73.37,37.62,73.25,38.08,73.2,38.61Zm1.87.4c-.22.15-.5.1-.51.47,0,.07.11.2.16.19C75,39.62,75.1,39.4,75.07,39Zm-6.1.36a2.33,2.33,0,0,0,.2.34.9.9,0,0,0,.08-.28c0-.14,0-.29-.16-.31A.17.17,0,0,0,69,39.37Zm-.86,37.1c.25.44.51.07.76,0C68.62,76.06,68.36,76.19,68.11,76.47Zm2.94,2.11a.59.59,0,0,0-.23-.8A.63.63,0,0,0,71.05,78.58Zm-1.79.71c0,.12.07.32.12.33s.19-.16.21-.31-.08-.29-.23-.27S69.25,79.21,69.26,79.29ZM65.68,43.2h0Zm7,3.07c0,.79.12.86,1,.46C73.5,46,72.88,46.67,72.64,46.27Zm-7-3.07h0Zm.67-.5c-.15.31-.91-.55-.67.5C65.88,43,66.27,43.13,66.36,42.7Zm-2,.62c.61-.74.61-.74.18-1A1.39,1.39,0,0,0,64.37,43.32Zm4.89,11.56c-.17.14-.44.38-.3.55.26.33.35-.19.53-.29.6.51,1.13.32,1.63-.2l.2.21h0l.39.4,0,.42-.23.19c-.13.23-.29.46-.4.7a.48.48,0,0,0,0,.59c.24.27.39,0,.56-.13s-.08-.37.17-.4h0l.21.33c.65-.64,1.51-.66,2.22-1.09a.89.89,0,0,0,.48-.87c0-.23-.29-.76-.42-.54-.36.59-.51-.13-.74-.06s-.4-.13-.45.1.2.27.36.32c0,.58-.46.45-.7.65h0l-.53-.26h0c-.08-.27-.16-.55-.45-.6h0l-.72-.21c-.13,0-.3,0-.37-.22.38,0,.62-.35,1-.47,0-.27,0-.79-.19-.65s-.88.22-.93.87h0c-.09.2-.25.17-.4.16Zm3.9-.91c-.19-.45-.59-.44-1.32,0C72.28,54.2,72.73,54.85,73.16,54Zm-3.77-2.38c.07-.46-.38-.52-.36-.87l-.81.86C68.62,51.85,69,51.42,69.39,51.59Zm-1.63.64c-.17.34.19.57.12.89.43.25.58-.29.57-.47C68.44,52.18,68.08,52.18,67.76,52.23Zm3.57-1.76c-.27-.4-.49,0-.73.06a.71.71,0,0,0,.64.47C71.43,51,71.3,50.66,71.33,50.47Zm-6.14,3.76c-.18.17,0,.28.12.38l.35-.13C65.5,54.4,65.46,54,65.19,54.23ZM71,53.52c-.32-.32-.45-.55-.71-.32C70.41,53.41,70.59,53.45,71,53.52Zm-.48-.82c0,.23.14.19.24.14a.34.34,0,0,0,.13-.24c0-.06-.12-.11-.2-.18C70.64,52.53,70.55,52.61,70.54,52.7Zm.83,10.45a.74.74,0,0,0,.87.56,8.13,8.13,0,0,0,2.25-.14c-.71-.39-1.42-.6-1.57-1.48l-.26.1h-.77l-.22-.2h0A.91.91,0,0,0,71.37,63.15ZM69.89,49.3c.44-.11,1-.86,1.48-.29.25.28.56.36.8.6l-.06.07c0,.84.3.89.78.65a1.53,1.53,0,0,0,0,.3s0,0,0,.08a1,1,0,0,1-.77-.2c-.33.1-.43.43-.58.74s-.19.75.14.79.8.39.86-.42c0-.5.38-.42.68-.37h0l.68.07a.42.42,0,0,1,.21.51c-.22.6.11.64.47.65h0c-.09.56.26.39.49.41l0-.41v0c.28,0,.31-.39.53-.47v-.4h0c-.12-.16-.23-.33-.35-.5.34-.17.71.34,1.09,0a1.75,1.75,0,0,0-.92-.36h0L75.29,50a.12.12,0,0,0-.16,0c-.26-.46-.55-.36-.84,0s-.59.53-.9,0l-.15,0h0c0-.14,0-.28,0-.43s.27-.24.26-.34c0-.27-.24-.13-.35-.09a3.31,3.31,0,0,0-.56.29c-.72-.16-1.07-1.12-1.85-1.16-.37-.39-.75-.08-1.12,0h0c-.23-.13-.38.09-.56.18,0-.21,0-.41-.19-.5s-.21.15-.25.3l.42.22C69.14,49,69,49.51,69.89,49.3Zm2-2.17s-.06.18,0,.2c.23.18.47.23.88-.17C72.35,47.24,72.21,46.75,71.91,47.13ZM67.53,58.62c.31-.2-.12-.74.29-.9,0-.22-.17-.55-.09-.64s.32,0,.43.2l.31-.24h0a1.87,1.87,0,0,1,1.72,0,.55.55,0,0,1,.19.08c.06.15.12.29.19.44-.14.52-.41.53-.74.26a1.47,1.47,0,0,0,0,.88c-.08.5-.14,1-.76.57a4.62,4.62,0,0,0-1.1-.38c-.13.18-.25.41-.48.3C67.43,59.13,67.5,58.81,67.53,58.62Zm2.31-1.09ZM64,13.18c.06,0,.13-.08.18-.12,0-.23-.14-.28-.27-.26s-.2.08-.12.21A.32.32,0,0,0,64,13.18Zm10.06,7a2.44,2.44,0,0,0-.24-.29c-.39,0-.59.18-.56.65A.74.74,0,0,0,74,20.16Zm-.24,72.37v0h0ZM67.38,5.31V4.21a.37.37,0,0,0-.18,0C67.27,4.52,67.05,4.87,67.38,5.31Zm-5.9-3.46a.36.36,0,0,0,.06.27c.12.14.21,0,.28-.09a.24.24,0,0,0-.07-.34C61.6,1.62,61.51,1.72,61.48,1.85Zm6.28.61v.86h.38C68.11,3,68.31,2.5,67.76,2.46Zm0,48.23v0h0Zm-1-2.06c.08,1.12.35,1.23,1.36.72C67.81,48.7,67.1,49.4,66.77,48.63Zm1.43,1.8c0-.24-.15-.18-.24-.18-.29,0-.23.23-.19.44C67.94,50.67,68.15,50.68,68.2,50.43Zm.45,5.08a1.3,1.3,0,0,0-.85.74C68.22,56.12,68.47,56,68.65,55.51Zm-4.49-7.63a1,1,0,0,0,.21.22c0-.13.13-.25.1-.3a.24.24,0,0,0-.21-.14C64.16,47.66,64.09,47.76,64.16,47.88ZM69.5,85.33a3.34,3.34,0,0,0-.16-.83c-.1.36-.17.48-.14.53S69.23,85.55,69.5,85.33Z"/><path class="cls-3" d="M33.45,72.29c0-.42.67-.22.51-.77h0a1.34,1.34,0,0,0-.3-1h0c-.13-.19-.25-.38-.37-.57s.14-.59,0-.89a.41.41,0,0,0,.12-.14c.31-.39,1.11-.77,0-1.2,0-.12,0-.25,0-.38h0c.52-.08.16-.4.12-.63s0-.5,0-.76a.64.64,0,0,0-.36-.33h0c-.12-.33.3-.24.39-.4h0a.24.24,0,0,0,0-.26c-.24-.25-.24-.8-.7-.81.2-.31.63-.35.71-.81-.15-.51-.52-.18-.78-.28,0,.19-.06.29-.11.33v-.22c0-.13-.12-.15-.19-.2a.39.39,0,0,1-.15,0h0l.19-.36.34.11h0a.39.39,0,0,0,.56-.36c0-.33-.2-.38-.42-.41s-.16-.23-.23-.36l.42-.41c.17-.47-.37-.31-.39-.6l.18-.41c.08-.32-.07-.4-.29-.41h0a.6.6,0,0,1-.06-.19h0c0-.61.48-.18.68-.37a2.63,2.63,0,0,1-.1-1.31c0-.55-.19-.3-.37-.13l-.2-.18.07-.21c.06-.26.33-.47.15-.79l-.17-.21c-.11-.19-.26-.36-.13-.62s0-.36-.16-.45l0,0a.13.13,0,0,1,0-.06c.24-.06.66.16.52-.48a1.49,1.49,0,0,0,0-.21c.27-.21.12-.56.22-.83l-.07-.05a.31.31,0,0,0-.21-.32.46.46,0,0,0,.05-.2l.06-.22c.06-.28-.42-.27-.24-.61l-.15-.58a.81.81,0,0,0-.12-.14l0-.06a.58.58,0,0,0,0-.81c-.19-.31,0-.53.13-.78h.14a1.58,1.58,0,0,0-.19-1.39l-.13,0h0c0-.13,0-.26,0-.39h0c.53-.46.17-.74-.15-1a.75.75,0,0,0-.05-.16h0a1.14,1.14,0,0,0,.34-1.23h0c0-.18.17-.48.11-.54-.54-.56-.23-1.13,0-1.69a.57.57,0,0,0,0-.54,1.84,1.84,0,0,0-.17-.22c0-.21.28-.41,0-.63a.8.8,0,0,1-.23-.36c.07,0,.12-.07.1-.19s.09-.42.13-.63c-.18-.17,0-.57-.28-.67a.58.58,0,0,0,.13-.51c0-.06,0-.13,0-.2a.34.34,0,0,0,.13-.39h0V37.51c.06-.12.11-.25.17-.37h0c0-.27,0-.54,0-.81a.2.2,0,0,0,0-.25h0c.2-.35,0-.81.17-1.16.24-.66-.21-1.32,0-2h0l.14-.19c-.19-.34,0-.69,0-1l.18-.38c0-.27,0-.55,0-.82a3.87,3.87,0,0,0-.27-1.62h0c-.34-.84-.81,0-1.21-.12-.42.45-.92.06-1.37.16a.46.46,0,0,0-.08.3c-.07-.18-.17-.27-.43-.07,0,.12,0,.24,0,.36s.25.21.41.18c-.12.23-.36.15-.53.27a10.67,10.67,0,0,0-.5,2.77h0l-.18.74.14,0c0,.22,0,.45-.14.61h0l-.34.56c-.18-.06-.28,0-.35.23s0,.4,0,.59c.22.19.4.45.63.52a.19.19,0,0,0-.1.16c-.06.33.16.43.41.43l.08,0a.43.43,0,0,0,0,0l-.09.06a.84.84,0,0,0-.23.78.14.14,0,0,1,0,.06c-.39.24-.07.49.07.74a.81.81,0,0,0-.08.38l-.37-.15h0c-.08-.23-.17-.45-.27-.72a1.38,1.38,0,0,0-.06.91h0l-.18.44a.49.49,0,0,1,0,.17c-.07.2,0,.28.08.34s-.09.11-.11.25l.06.39c0,.34,0,.69,0,1,0,.13,0,.26,0,.38a1.79,1.79,0,0,0,0,1c0,.13,0,.27,0,.4h0a23,23,0,0,1-.31,3,.62.62,0,0,0,.62.3l0,0c0,1.1.59.15.85.31.35-.23.45.13.62.32a.42.42,0,0,0,.09.19,1.19,1.19,0,0,0,.6.2h0c0,.26,0,.49.39.51-.11.27-.56.14-.51.6h0c-.22-1.11-.84-1.28-1.68-1l.31.54c-.34.36-.69,0-1,0h0a.47.47,0,0,1-.16,0,1.11,1.11,0,0,0-.75.34,1.72,1.72,0,0,0,.42-.89,1.15,1.15,0,0,0,.33.21c.28-.54.48-1.06-.17-1.45-.34-.33-.08-.81-.23-1.19a1,1,0,0,0-.13-.78c.2-.47,0-1,0-1.42-.28-.4.1-.79,0-1.18l0-.42a1,1,0,0,0,.05-.55c0-.08-.05-.17-.08-.25,0-.23,0-.45,0-.67l.07-.09a1.93,1.93,0,0,1,0-.24c.14-.32-.05-.7.13-1-.36-.33.08-.83-.16-1.19a1.58,1.58,0,0,0-.52-.12,1.2,1.2,0,0,0,.25-.33c0,.16.06.34.27.26.25-.29.09-.67.17-1,.11-.87,0-1.77.16-2.65,0-.38,0-.76,0-1.14h0a1.23,1.23,0,0,0,.2-.8h0a1.47,1.47,0,0,0-.17-1h0l.17-.33h0a.52.52,0,0,0,.1-.69c-.11-.14-.34.07-.47.24l-.33.4a.83.83,0,0,0,0,.33.69.69,0,0,0-.3.09c-.35.22-.35.61-.37,1s-.11.5,0,.74c-.1.14-.06.34-.16.48v1.36l.17.41-.23.24c0,.45,0,.92,0,1.38,0,0,0,0,0,0a.53.53,0,0,0-.13.19,1.68,1.68,0,0,0,.25.94h0l-.22.44a.33.33,0,0,0,0,.17c0,.34,0,.68,0,1l0,.38h0v1h0A6.27,6.27,0,0,0,26,41.72c0,.68,0,1.35,0,2h0c-.08.25.07.4.15.59h0a1.29,1.29,0,0,0-.18.8h0c0,.27.09.59-.17.8-.14,0,0,.8-.34.2,0-.34,0-.67,0-1-.18-.23,0-.52-.11-.78l0-.06a.4.4,0,0,0,0-.34.1.1,0,0,0-.05,0l.13-.24-.13-.13v-.2c-.14-.25.16-.52.05-.77,0,0,0,0,0,0s.06,0,.06-.11c0-.44-.05-.87-.08-1.3h0l.09-1c-.15-.25,0-.55-.11-.81l-.06,0,0-1.39h0v-.13h0c.08-.16.06-.35.13-.52l0-.89h0a2.11,2.11,0,0,0,0-.25v-.39l.06-1c.18-.1.14-.26.1-.43s0-.4,0-.61h0v-.58c0-.14.05-.28.07-.42,0-.33.19-.7-.2-.9a.55.55,0,0,0-.22.06c-.11-.17-.39-.07-.43-.35a.36.36,0,0,0-.38-.2h0s-.05,0-.07,0-.05,0-.06.06c-.1.21.07.54-.21.67l-.35-.25c0-.14,0-.28,0-.42.07-.3,0-.49-.49-1-1-1.32-1.56-1.43-2.78-.6-.42,0-.52.49-.82.66a2.74,2.74,0,0,0-.89.93h0c-.33.27-.54.73-1,.85a.17.17,0,0,0-.08.18l-.27.17,0-.34a.25.25,0,0,0,.1-.2,13.62,13.62,0,0,1,.07-2.12.61.61,0,0,0-.31-.73,1.3,1.3,0,0,0-.71-1.19c-.24.26-.59,0-.84.21l-.5.43c-.59,0-.89.51-1.22,1h0l-.79,0c-.18.11-.13.33-.17.51a.14.14,0,0,1,0,.06l-.36,0,0-.06c-.21.3-.51.17-.77.24s-.65-.11-.76.4c0,.14.09.27.14.41h0c-.19.32-.54-.2-.71.18l-.33.4h0l-.36.4-.32.21h0l-.5.22-.7,0-.67,0a.26.26,0,0,0-.34.2c-.33-.08-.45.29-.68.42,0,0,0,.07,0,.1h0v-.1a2.33,2.33,0,0,0-1,.83c-.18.09-.41.06-.53.3l-.34.42-.86,1.4c-.36.47,0,1.14-.34,1.6h0c-.28.29-.11.67-.14,1a1.16,1.16,0,0,0,0,.18c-.58.29-.25-.65-.65-.62-.22.14-.17.41-.16.66h0a1.39,1.39,0,0,1-.53.57c-.06-.14-.12-.28-.17-.42a.23.23,0,0,0-.35,0l-.18.54-.51.64-.3.23c-.18.05-.2.21-.2.39s-.13.4-.2.6a1.75,1.75,0,0,0,0,.72.19.19,0,0,0,.1.1c-.08.32,0,.53.29.61h0a.77.77,0,0,0,0,.15.37.37,0,0,0-.34.16h0a.15.15,0,0,0-.14.07v1.19a1.1,1.1,0,0,0,.4.26c-.2.05-.32.27-.38.58s0,.36,0,.54a.58.58,0,0,0,.17.23c0,.13.07.27.1.41,0,.3-.08.61-.13.92a.17.17,0,0,0-.15.05v1.81l.23.27a.34.34,0,0,0-.22.15c0,.15,0,.31.13.4,0,.26,0,.52,0,.78l0,.41h0c0,.13-.23.24-.06.4a.41.41,0,0,1,0,.19.55.55,0,0,0,0,.5l0,.08a3.18,3.18,0,0,0,.05,1l0,.59a.59.59,0,0,0,.13.61,1.7,1.7,0,0,1,0,.22.36.36,0,0,0,.05.35s-.05,0-.06.07c-.06.26,0,.54-.1.78a10.79,10.79,0,0,1,0,3,.8.8,0,0,0,.13.19.46.46,0,0,0,0,.14c-.09.65.4,1.33-.07,2l.15.55c.15.18.35.16.54.2a.58.58,0,0,0-.56.18c0,.46,0,.92,0,1.38v.49h0c0,.17-.09.42.17.49h0c0,.34-.38.69,0,1-.16.27,0,.55,0,.83a1,1,0,0,0-.19.75c.17.19-.07.58.26.69a.25.25,0,0,0,.13-.09L1,68c-.09.26-.46,0-.5.34,0,.13,0,.27,0,.4.18.06.16.23.15.39h0c-.24.2-.22.43-.17.75a4.47,4.47,0,0,1,0,1.46,6.86,6.86,0,0,0,.13,3.4c0,.25.11.3.28.32a1.66,1.66,0,0,1-.26.27.2.2,0,0,0-.3-.13v.54h0c0,.14,0,.19.12.21h0a1.28,1.28,0,0,1-.13,1h0c0,.35-.13.73.14,1-.24.85.06,1.73-.12,2.58,0,.24.16.21.29.24a1.33,1.33,0,0,0,0,.19c-.54.5-.36,1-.06,1.6a.56.56,0,0,0-.06.38s0,0,.05.06c-.26.15-.21.45-.21.73a4.5,4.5,0,0,1,.1,1.42h0c-.19.12-.14.31-.14.51a12,12,0,0,1,0,3.05,2,2,0,0,1,0,1.11c0,.38.11.76.16,1.13A11.93,11.93,0,0,0,.4,94.5h0c0,.14,0,.29,0,.43h0c0,.28-.15.58.11.8h0a9.14,9.14,0,0,0,.05,3.61l.18.39a1.83,1.83,0,0,0-.21.61,18.21,18.21,0,0,0,0,5.16v.23h0c-.46,1.19.18,2.39,0,3.59v1.41a17.11,17.11,0,0,0,.35,4.79h0a7.41,7.41,0,0,1,.06.77c-.07.87.69,1.55.35,2.44-.07.33.08.68-.1,1l0,.39-.18,2-.06.43.06.1,0,0c0,.25,0,.5,0,.75l-.09.14a1,1,0,0,0,.05.56c.28.34.57-.16.85,0,.27-.26.67.1.92-.26,0-.06,0-.11,0-.16l.13-.12c.07.44.29.29.46.14s-.16-.23-.11-.4.31,0,.45,0a2.33,2.33,0,0,0,.76.74l.14,0c.3.1.59.32.88,0,.27,0,.53.47.82,0l.2,0h0c.24-.06.43.49.69.08l.15,0h0c.14.26.22-.09.35-.05a.13.13,0,0,1,0-.11.45.45,0,0,0,0,.11,1.19,1.19,0,0,0,1,.53c.57-.12,1.24.54,1.71-.28.34-.14.23.8.68.39.24-.26.65,0,.85-.4h0c.34,0,.07-.29.16-.41l.36-.19c0,.28-.07.61.34.41l.12-.08a2,2,0,0,1,.05.26h.14a.24.24,0,0,0,.09.13.4.4,0,0,0,.43,0,.3.3,0,0,1,0-.1c.24.13.41-.19.64-.13l0,.33c.1,0,.22.16.29,0a.52.52,0,0,0-.1-.61l-.06-.16c0-.15,0-.29.08-.44s0,0,0,0a1.39,1.39,0,0,1,.68-.94h0l.14,0h0c0,.14,0,.23.19.21a.27.27,0,0,1,.37.18l-.18.2c-.23.13-.6.11-.48.61h0c0,.26,0,.51,0,.77s0,.37,0,.56h0c-.06.26.26.22.26.44s.19.2.34.11.13-.31.06-.48h0l.34-.13.07,0a.71.71,0,0,0,.24.3c0,.12,0,.24,0,.35s-.19.3-.29.45l-.52-.22c0,.39.13.59.49.42l0-.06h0l-.05.06c.26-.08.3,1,.7.17l-.38-.2.39-.38h0l.45,0,0,.11c.41.13.71,0,.86-.5h0l.17,0c0,.23.24.16.35.26a1.26,1.26,0,0,0,.58,0l.09,0,.25.17h0c-.06.39.1.55.42.54s.5-.11.73.09l.31,0c.42.33.64-.15.93-.32l0,0a.68.68,0,0,1,0,.32c.29.39.39,0,.55-.18.33.38.59,1,1.18.54.57-.15,1.13.41,1.71,0h0a.91.91,0,0,0,.79.37c.09,0,.19,0,.23-.17h0s0,.07.08.08a1.52,1.52,0,0,0,.6,0c.35,0,.39-.38.5-.66v-1c.08-.26-.11-.41-.18-.61.2-.11.2-.32.18-.54a1.19,1.19,0,0,0-.21-.44l0-.06c0-.14.07-.28.11-.42h0a.37.37,0,0,0,.12-.2l-.15-.31a1.7,1.7,0,0,1,0-.22c0-.4,0-.8.05-1.2a.1.1,0,0,1,.1,0,1.65,1.65,0,0,0,.41-.34c0,.15.15.21.33.19.37,0,.6-.36.84-.64s.12-.53.2-.79a.53.53,0,0,0,.05-.39.29.29,0,0,1,0-.09c.07-.16,0-.39.13-.53-.19-.6.41-1,.25-1.62h0a25.4,25.4,0,0,0,.81-4.17c.13-.55-.05-1.13.12-1.68l0-.06,0,0c.19-.4,0-.87.15-1.27,0-.33.37-.58.13-.95a4,4,0,0,1,.2-1.38h0c.09-1.07.17-2.14.25-3.21a.86.86,0,0,0,0-.55l0,0c.07-.21,0-.45.12-.65s0-.65-.05-1,.05-.66.08-1a6.1,6.1,0,0,0,0-1.48.47.47,0,0,0-.08-.14v-.14c.08,0,.11-.16.17-.23.2-.39,0-.86.16-1.25,0-.19.09-.37.14-.56h0l.06-.58h0c.26-.57,0-1.2.14-1.79h0c.13-1.07.26-2.15.38-3.23.14-.31-.05-.69.14-1l0-1h0c.31-.63.1-1.34.22-2a3,3,0,0,0,.07-.9v0a.13.13,0,0,0,.08-.07,1.38,1.38,0,0,1,.14-1c0-.16,0-.32,0-.47,0-.38,0-.76.07-1.14h0c-.14-.54.4-1.26-.33-1.63h0v-.16h0c.8-.12.34-.81.42-1.26h0c0-.26.09-.52.13-.77l0-.1a1.05,1.05,0,0,0,0-.61v0a.33.33,0,0,0,0-.24,1.58,1.58,0,0,0,.07-1c0-.41.2-.84-.1-1.22h0c-.1-.17-.48-.23-.17-.56.38,0,.55-.25.48-.71s.2-1.14-.49-1.32h0l.15-.59h0c.12,0,.3.07.3-.2A1.11,1.11,0,0,0,33.8,73c-.12-.18-.27-.15-.43-.1h0l0-.06A.94.94,0,0,1,33.45,72.29ZM29.88,60.73h0c.28-.06.32.31.52.38h0c.29.37.57.09.85,0h0l0,.34c-.21,0-.31.22-.38.43a1.09,1.09,0,0,0-.76-.42l-.06,0-.14-.18Zm.17-4.41v-.39a.34.34,0,0,0,.35-.21.33.33,0,0,1-.34-.19h0c0-.2,0-.39,0-.59l.18-.21s0,.06,0,.08a.65.65,0,0,0,.59.08l.13-.08c.1.1.19.21.28.31.12.27.24.54.35.82l-.35.2c-.18.06-.46-.36-.55.14h0Zm-4.76,6.23a1,1,0,0,1,.66-.21h0c.06.26.11.52.38.18.08.1.25.13.2.33h-.16a.42.42,0,0,0-.29.44c-.18-.17-.36-.11-.54,0a.32.32,0,0,0-.2.21,1.26,1.26,0,0,0-.45.36c-.12-.21-.63,0-.44-.54h0l.27-.26Zm5.56.09a1.72,1.72,0,0,1,0-.39c.1.18.22.34.39.36s.13.16.06.26l-.45-.13S30.85,62.68,30.85,62.64ZM19.58,121.07a.76.76,0,0,0,0,.21,2,2,0,0,1-.42,0,.42.42,0,0,0,.36-.16.37.37,0,0,0,0-.18h0c0,.06.06.09.09.12A0,0,0,0,1,19.58,121.07Zm6.86-51.34a.36.36,0,0,0,.14.16.45.45,0,0,0-.15.41c-.32-.1-.62-.13-.84.18l-.12-.19c0-.34-.32-.75.19-1C25.88,69.56,26.11,69.8,26.44,69.73ZM29.37,65a.76.76,0,0,1-.4-.28,0,0,0,0,1,0,0l.05.07a.5.5,0,0,0,.55-.16C29.53,64.79,29.38,64.87,29.37,65Zm.87,5.8a1.34,1.34,0,0,1,0-.2.64.64,0,0,0,.47-.11h0C30.66,70.81,30.51,70.94,30.24,70.84ZM1.71,53.71a.74.74,0,0,0,.09.18H1.4C1.57,53.79,1.64,53.74,1.71,53.71ZM31,51a.52.52,0,0,0,0,.28c-.15,0-.31.07-.44,0A.75.75,0,0,0,31,51Zm-4.93,8.89a.48.48,0,0,0,.15.32,1.29,1.29,0,0,1-.67.09A1.85,1.85,0,0,1,26.08,59.92Zm0,2.18,0,0s0,0-.05,0V62c-.24-.44-.54-.59-.91-.41a.47.47,0,0,0-.06-.09c-.18-.21-.34-.42-.63-.26l0,.08-.08-.16a.21.21,0,0,0,.12-.2,1.37,1.37,0,0,0,1,.19C26,61.15,26.15,61.51,26.1,62.1ZM25,50.73c.16-.31.6-.44.49-.93.32-.14.2-.45.17-.73l.12.12h.06a.22.22,0,0,0,0,.08s-.06,0-.08.06a1,1,0,0,0,.23.71c-.29.3.21.75,0,1.07h0c-.44.22-.76,0-1-.39ZM.38,42.32h0l0,0h0Zm14.1,79.55c.06.08.12.13.19.13l-.23.18A1.46,1.46,0,0,0,14.48,121.87ZM32.29,56.35l0,0h0ZM30.13,45.23s0,.06,0,.1h-.35c.16-.59.86-1,.41-1.79h.34a1.22,1.22,0,0,1,.35,1.2.83.83,0,0,0,.08.12l-.14,0C30.58,44.89,30.2,44.69,30.13,45.23Zm-1.74-5.44h.11a.5.5,0,0,0,.21-.22,2.1,2.1,0,0,1-.18.37A.67.67,0,0,0,28.39,39.79Zm1.87,0,.25.29c-.18.1-.19.29-.19.47a6,6,0,0,0-.25-.75A.31.31,0,0,0,30.26,39.78Zm-.55-3.23h0m-.81,5.31V41.8h0a.83.83,0,0,0,.27.23c-.41.85-.34,1.06.38,1.3h0l.26.15c-.47.13-.78-.39-1.19-.52C28.76,42.61,28.75,42.2,28.89,41.86Zm-.34,4.28c0-.14-.06-.27,0-.42h0l.14,0c-.07.44.49.22.48.59Zm1.83,0a.43.43,0,0,1,0-.38.9.9,0,0,0,.2.28l0,0v0h0A.25.25,0,0,0,30.38,46.1Zm.84,2.62s0,0,0,.05h0c-.17.14-.33.28-.49.44.09-.27-.06-.41-.21-.56A.57.57,0,0,0,31.22,48.72Zm-3.69,1.09c-.56-.3.1-.69-.06-1,0-.09,0-.39.2-.29s.12.28.17.42h0c.19,1,.67.23,1,.23,0,.13,0,.27,0,.4l.68.78h0c-.12.5.25.57.46.79a1,1,0,0,0-.36,1.53,1.54,1.54,0,0,1-.09.67c-.09.23-.4.53,0,.72s.51-.14.65-.46,0-.38.12-.54a1.31,1.31,0,0,0,.47.54.15.15,0,0,0,.09,0c-.11.16-.09.25,0,.3-.19.28-.63.19-.72.6-.49-.28-1,.16-1.52,0-.13-.05,0,.3,0,.47a1.11,1.11,0,0,1-1,0h0a1.07,1.07,0,0,0-.19-1.35c-.09.24-.6-.23-.42.22s-.07.84.24,1.14v.22h0c-.13,0-.36-.25-.34.12s.29.31.51.26c.39.29.83-.37,1.24.1.06.07.08-.23.12-.41a1.19,1.19,0,0,1,.81,0,.09.09,0,0,0,.05,0l0,.28h0l-.18.23h0c-.31-.19-.39.14-.45.34s.11.26.26.27.12.13.17,0H30c0,1.25,0,1.35.8,1.61-.61.11.15.75-.08,1l-.21.35a.24.24,0,0,1-.11-.1c-.36-.06-.75,0-.77.48s.45.4.74.47c.12,0,0,0,.09,0a.7.7,0,0,1,.19.06l.18.15c0,.28.09.46.36.39a.27.27,0,0,0-.07.13s0,0,0,.05c-.29,0-.51-.21-.78-.27-.19-.38-.46-.1-.69-.1h0l-.18-.22c-.5-.29-1-.41-1.4.19h-.06c-.18-.52.46-.56.43-1-.73,0-1.45-.53-2.19-.07h0a1.69,1.69,0,0,0-1.21-.15h0a.22.22,0,0,1,0-.38h0c.19-.24.76-.37.16-.81l-.16-.21h0c-.05-.27-.09-.55-.13-.82.2-.11.39.26.6-.05-.22-.21-.5-.36-.49-.74.95.47.32-.55.54-.77a.32.32,0,0,0,0-.09s0-.08,0-.08c-.42-.08-.89-.07-1-.65l.1,0c.65-.11.71-.81.95-1.33A3.15,3.15,0,0,0,27.51,53a.51.51,0,0,0,0-.21,1.11,1.11,0,0,0,.48,0c-.13.07-.26.14-.17.36.25.33.43.82,1,.58-.26-.23-.51-.45-.15-.77.24-.12.4-.42.69-.4-.53-.56-.59,0-.69.4l-.51-.2h0a.58.58,0,0,0-.35-.59c-.19.2-.58-.51-.67.19h0c-.53.4-1.26.19-1.71.8-.41.28-.56,0-.66-.41,0-.2.41-.19.23-.48s-.28.06-.43.09h0l-.12,0c.2-.68.8-.28,1.14-.57h0a1.37,1.37,0,0,1,.55.17c.52.44.46,0,.49-.4h0c.42.15.48.12.36-.21s0-.28.17-.35C27.69,50.76,27.37,50.17,27.53,49.81Zm.06-2.88a.66.66,0,0,0-.06-.2A.23.23,0,0,1,27.59,46.93Zm-17.22-15s0,0,0,.05a.5.5,0,0,0,0-.12ZM1,68ZM28.53,31a2.48,2.48,0,0,1,0-.67c.11.2.22.4.32.6C28.78,31.25,28.67,31.42,28.53,31Zm-.05,3.13-.31-.22a.64.64,0,0,1,0-.2,12.65,12.65,0,0,0,.14-1.62c.1-.09.16-.3.34-.18a6.12,6.12,0,0,1-.14,1.6h-.05C28.49,33.75,28.48,34,28.48,34.16Zm.37,15.36h0Zm-1.18.88,1.18-.86C28.9,50.35,28.63,50.58,27.67,50.4Zm.51,2.33h0Zm2.23,3c.08-.21.16-.45.41-.33.06,0,.13.2.12.22C30.79,55.81,30.59,55.7,30.41,55.72Zm0,0h0Zm-1.21,3h0c0-.3.2-.31.35-.16s0,.57-.06.8-.22-.06-.3-.19c-.42-.39-.84-.71-1.43-.46-.33.15-.36-.67-.77-.37-.07-.21-.26-.43-.13-.63s.36.15.49.11C28.15,57.58,28.54,58.49,29.19,58.7ZM27,58.32Zm-.15-1.62c.28,0,.55,0,.63.58l-.67-.52h0c-.31-.11-.52.06-.66.36a.56.56,0,0,1,0-.8C26.41,56.21,26.61,56.52,26.83,56.7Zm-.71.43h0Zm3.76,1.62c0-.18,0-.33.21-.36a.33.33,0,0,1,.26.33.31.31,0,0,1-.25.34C29.91,59.1,29.88,58.92,29.88,58.75Zm-3.38-.64c0,.17,0,.43-.16.47s-.23-.18-.27-.31.1-.26.22-.32S26.54,57.94,26.5,58.11Zm.51-2c-.32-.25-.49-.34-.52-.69C26.76,55.5,26.86,55.67,27,56.14Zm0,2.18h0Zm0,0c0,.25.07.55-.23.77A.72.72,0,0,1,27,58.33Zm.5-2.15c.05-.13.26,0,.36.1h0l.67.25-.46-.74c.54.2.85.37.81.94a.61.61,0,0,1-.45.7c-.36.07-.15-.4-.29-.55s-.19-.11-.29-.16h0C27.66,56.59,27.38,56.5,27.48,56.18Zm-1.53-2c-.14-.66.27-.05.38-.22s.29-.1.38.14-.06.39-.26.46S25.94,54.58,26,54.13Zm.18,3h0Zm0,0c.16,0,.33,0,.26.31,0,.07-.13.18-.16.16S26.14,57.3,26.13,57.13Zm2.38,2.41h0Zm0,0c0-.15,0-.35.23-.3s.12.17.1.23C28.78,59.71,28.63,59.55,28.51,59.53Z"/><path class="cls-4" d="M145.49,65.23V81.07c0,5.93-2.46,10.12-9.83,10.12a14.7,14.7,0,0,1-7.52-1.75l1.31-4.71A11.46,11.46,0,0,0,135,86.31c3.15,0,4.77-1.57,4.77-3.46V81.12h-.09a6.61,6.61,0,0,1-5,2c-4.92,0-8.41-3.77-8.41-8.94,0-5.39,3.47-9.29,8.1-9.29A7,7,0,0,1,139.56,67h.09v-1.8ZM136,77.92A3.92,3.92,0,1,0,132.15,74,3.76,3.76,0,0,0,136,77.92Z"/><path class="cls-4" d="M166.38,74.19a17.32,17.32,0,0,1-.14,1.73H153.82a4.09,4.09,0,0,0,4.32,3.14,5.68,5.68,0,0,0,4.42-2.2l3.1,3.48a10.17,10.17,0,0,1-8.14,3.48A9.13,9.13,0,0,1,148,74.35a9.05,9.05,0,0,1,9.27-9.47c5.32,0,9.08,3.88,9.08,9.31Zm-12.54-1.75,6.83,0a3.29,3.29,0,0,0-3.32-2.86A3.42,3.42,0,0,0,153.84,72.44Z"/><path class="cls-4" d="M197.91,72.84V83.47H192.1V74.2c0-2.42-.65-4.11-2.66-4.11-1.69,0-3,1.4-3,4.24v9.14h-5.8V74.2c0-2.42-.69-4.11-2.68-4.11-1.8,0-3.13,1.4-3.13,4.24v9.14H169V65.23h5.82v2.06h.09a6.74,6.74,0,0,1,5.1-2.41,5.71,5.71,0,0,1,5.22,2.63h.09a7.88,7.88,0,0,1,6.16-2.63C195.29,64.88,197.91,67.09,197.91,72.84Z"/><path class="cls-4" d="M218.7,74.19a17.32,17.32,0,0,1-.14,1.73H206.14a4.08,4.08,0,0,0,4.31,3.14,5.7,5.7,0,0,0,4.43-2.2L218,80.34a10.14,10.14,0,0,1-8.13,3.48,9.13,9.13,0,0,1-9.49-9.47,9.05,9.05,0,0,1,9.27-9.47c5.31,0,9.08,3.88,9.08,9.31Zm-12.54-1.75,6.82,0a3.28,3.28,0,0,0-3.31-2.86A3.41,3.41,0,0,0,206.16,72.44Z"/><path class="cls-4" d="M220.65,59.66a3.65,3.65,0,1,1,3.64,3.4A3.44,3.44,0,0,1,220.65,59.66Zm.73,5.57h5.8V83.47h-5.8Z"/><path class="cls-4" d="M242.25,64.88c3.81,0,6.54,1.9,6.54,7.65V83.47H243V74c0-3-1-3.88-2.91-3.88s-3.35,1.38-3.35,4.22v9.16h-5.83V65.23h5.83v2.2h0a7.19,7.19,0,0,1,5.52-2.55Z"/><path class="cls-4" d="M270.68,56V83.47h-5.53v-2h-.08a6.25,6.25,0,0,1-5.2,2.32c-5,0-8.6-3.81-8.6-9.45s3.61-9.49,8.32-9.49a6.69,6.69,0,0,1,5.17,2.28h.08V56Zm-9.61,22.66a4,4,0,0,0,4-4.29,4,4,0,0,0-4-4.34c-2.22,0-3.92,1.73-3.92,4.34s1.62,4.29,3.9,4.29Z"/><path class="cls-4" d="M291.64,74.19a17.32,17.32,0,0,1-.14,1.73H279.08a4.09,4.09,0,0,0,4.32,3.14,5.68,5.68,0,0,0,4.42-2.2l3.1,3.48a10.17,10.17,0,0,1-8.14,3.48,9.12,9.12,0,0,1-9.48-9.47c0-5.53,3.91-9.47,9.26-9.47s9.09,3.88,9.09,9.31ZM279.1,72.44l6.83,0a3.29,3.29,0,0,0-3.31-2.86A3.42,3.42,0,0,0,279.1,72.44Z"/><path class="cls-4" d="M138.57,95.73V102c-.53,0-1.07,0-1.36,0a3.85,3.85,0,0,0-4.19,4.14v8.19H127.2V96.06H133V98.5h.07a6.62,6.62,0,0,1,5.28-2.79A.65.65,0,0,1,138.57,95.73Z"/><path class="cls-4" d="M158.09,105a17.08,17.08,0,0,1-.14,1.73H145.53a4.09,4.09,0,0,0,4.32,3.15,5.68,5.68,0,0,0,4.42-2.2l3.1,3.48a10.16,10.16,0,0,1-8.14,3.47,9.12,9.12,0,0,1-9.49-9.46c0-5.54,3.92-9.47,9.27-9.47s9.08,3.88,9.08,9.3Zm-12.54-1.74,6.83,0a3.28,3.28,0,0,0-3.32-2.86A3.42,3.42,0,0,0,145.55,103.27Z"/><path class="cls-4" d="M169.17,114.66a9.12,9.12,0,0,1-9.46-9.46c0-5.63,4-9.49,9.76-9.49a10,10,0,0,1,7.88,3.64l-3.9,3.33a4.69,4.69,0,0,0-3.77-1.76,4,4,0,0,0-4.09,4.22,4,4,0,0,0,4.15,4.32,4.84,4.84,0,0,0,3.71-1.66l4,3.48a10.62,10.62,0,0,1-8.27,3.38Z"/><path class="cls-4" d="M197.5,103.3v11h-5.82v-9.58c0-2.93-1-3.8-3-3.8s-3.4,1.35-3.4,4.19h0v9.19h-5.82V86.85h5.82V98.17h.07a7.32,7.32,0,0,1,5.63-2.46C194.73,95.71,197.5,97.55,197.5,103.3Z"/><path class="cls-4" d="M212.32,95.71c3.81,0,6.54,1.9,6.54,7.65V114.3H213v-9.5c0-3-1-3.88-2.91-3.88s-3.35,1.38-3.35,4.22v9.16h-5.83V96.06h5.83v2.2h0a7.16,7.16,0,0,1,5.51-2.55Z"/><path class="cls-4" d="M221.58,90.49a3.65,3.65,0,1,1,3.64,3.4A3.44,3.44,0,0,1,221.58,90.49Zm.73,5.57h5.8V114.3h-5.8Z"/><path class="cls-4" d="M232.42,108.56v-7.75h-2V96.06h2V90.23l5.83-.62v6.45h4.42v4.75h-4.42v6.66c0,1.19.27,2.08,1.38,2.08a4.36,4.36,0,0,0,1.8-.46l1.44,4.3a9.16,9.16,0,0,1-5.09,1.25C234.66,114.64,232.42,112.7,232.42,108.56Z"/><path class="cls-4" d="M252,109.53v.07h7.75v4.7H244.37v-3.9l7.88-9.59v-.07h-7.19V96.06h15v3.86Z"/><path class="cls-3" d="M131.78,39.23c1.82,0,3.05,1.05,3.05,3.54v4.9h-1.9V43.26c0-1.75-.66-2.3-1.81-2.3s-2.15.9-2.15,2.53v4.17h-1.91V39.35H129v1.14h0a3.64,3.64,0,0,1,2.79-1.26Z"/><path class="cls-3" d="M144.77,39.35v8.31H143V46.55h0a3.14,3.14,0,0,1-2.64,1.25,4,4,0,0,1-4-4.25,4,4,0,0,1,4-4.32,3.22,3.22,0,0,1,2.57,1.12h0v-1Zm-1.83,4.2a2.38,2.38,0,1,0-4.75,0,2.35,2.35,0,0,0,2.39,2.52A2.38,2.38,0,0,0,142.94,43.55Z"/><path class="cls-3" d="M149.32,47.8c-1.43,0-2.32-.91-2.32-2.77V41h-1V39.35h1V36.59l1.9-.2v3h2.45V41H148.9v3.88c0,.85.27,1.16.8,1.16a2.89,2.89,0,0,0,1.23-.36l.5,1.64a3.89,3.89,0,0,1-2.11.5Z"/><path class="cls-3" d="M160,39.35v8.31H158.1V46.58h0a3.31,3.31,0,0,1-2.56,1.22c-1.83,0-3.11-.92-3.11-3.39V39.35h1.91V43.9c0,1.66.5,2.16,1.65,2.16s2.13-.93,2.13-2.73v-4Z"/><path class="cls-3" d="M166.74,39.24v2.12l-.57,0a2.2,2.2,0,0,0-2.27,2.39v3.94H162V39.35h1.9V40.6h0a3.17,3.17,0,0,1,2.58-1.37Z"/><path class="cls-3" d="M166.71,46.53A1.29,1.29,0,1,1,168,47.8,1.28,1.28,0,0,1,166.71,46.53Z"/><path class="cls-3" d="M186.74,39.35l-2.85,8.31h-1.77l-1.55-5.23h0L179,47.66h-1.72l-2.85-8.31h1.93l1.79,5.47h0l1.6-5.47h1.59L183,44.83h0l1.8-5.48Z"/><path class="cls-3" d="M195.15,44.17H189.1a2.29,2.29,0,0,0,2.37,1.9,2.57,2.57,0,0,0,2.07-1l1.33,1.14a4.27,4.27,0,0,1-3.5,1.58,4.1,4.1,0,0,1-4.25-4.3,4,4,0,0,1,4-4.27,3.91,3.91,0,0,1,4,4.18A6.52,6.52,0,0,1,195.15,44.17ZM191.27,41a2.1,2.1,0,0,0-2.14,1.67h4.16a2,2,0,0,0-2-1.67Z"/><path class="cls-3" d="M196.45,36.85a1.29,1.29,0,1,1,1.29,1.27A1.27,1.27,0,0,1,196.45,36.85Zm.32,2.5h1.91v8.31h-1.91Z"/><path class="cls-3" d="M205.48,39.23c1.82,0,3.05,1.05,3.05,3.54v4.9h-1.9V43.26c0-1.75-.66-2.3-1.81-2.3s-2.15.9-2.15,2.53v4.17h-1.91V39.35h1.91v1.14h0a3.66,3.66,0,0,1,2.79-1.26Z"/><path class="cls-3" d="M210.35,46.53a1.29,1.29,0,1,1,1.3,1.27A1.28,1.28,0,0,1,210.35,46.53Z"/><path class="cls-3" d="M219,35.12h1.91V47.66H219Z"/><path class="cls-3" d="M230.56,44.17h-6.05a2.29,2.29,0,0,0,2.37,1.9,2.57,2.57,0,0,0,2.07-1l1.33,1.14a4.27,4.27,0,0,1-3.5,1.58,4.1,4.1,0,0,1-4.25-4.3,4,4,0,0,1,4.05-4.27,3.91,3.91,0,0,1,4,4.18A4.86,4.86,0,0,1,230.56,44.17ZM226.68,41a2.1,2.1,0,0,0-2.14,1.67h4.16a2,2,0,0,0-2-1.67Z"/><path class="cls-3" d="M240.74,43.55a4,4,0,0,1-4,4.25,3.22,3.22,0,0,1-2.7-1.25h0v1.11h-1.82V35.12h1.91v5.23h0a3.31,3.31,0,0,1,2.63-1.12A4,4,0,0,1,240.74,43.55Zm-1.93,0a2.4,2.4,0,0,0-2.4-2.59A2.43,2.43,0,0,0,234,43.55a2.39,2.39,0,0,0,2.43,2.52A2.35,2.35,0,0,0,238.81,43.55Z"/><path class="cls-3" d="M249.86,44.17h-6.05a2.3,2.3,0,0,0,2.37,1.9,2.56,2.56,0,0,0,2.07-1l1.33,1.14a4.27,4.27,0,0,1-3.5,1.58,4.1,4.1,0,0,1-4.25-4.3,4,4,0,0,1,4-4.27,3.91,3.91,0,0,1,4,4.18A4.86,4.86,0,0,1,249.86,44.17ZM246,41a2.11,2.11,0,0,0-2.14,1.67H248A2,2,0,0,0,246,41Z"/><path class="cls-3" d="M256.18,39.23c1.82,0,3.05,1.05,3.05,3.54v4.9h-1.9V43.26c0-1.75-.66-2.3-1.81-2.3s-2.15.9-2.15,2.53v4.17h-1.91V39.35h1.91v1.14h0a3.66,3.66,0,0,1,2.79-1.26Z"/></svg>