<?xml version="1.0" standalone="no"?>
<!DOCTYPE svg PUBLIC "-//W3C//DTD SVG 20010904//EN"
 "http://www.w3.org/TR/2001/REC-SVG-20010904/DTD/svg10.dtd">
<svg version="1.0" xmlns="http://www.w3.org/2000/svg"
 width="1181.000000pt" height="1181.000000pt" viewBox="0 0 1181.000000 1181.000000"
 preserveAspectRatio="xMidYMid meet">
<metadata>
Created by potrace 1.16, written by Peter Selinger 2001-2019
</metadata>
<g transform="translate(0.000000,1181.000000) scale(0.100000,-0.100000)"
fill="#000000" stroke="none">
<path d="M1900 7710 l0 -180 235 0 235 0 0 -665 0 -665 205 0 205 0 0 665 0
665 240 0 240 0 0 180 0 180 -680 0 -680 0 0 -180z m1270 0 l0 -90 -235 0
-235 0 0 -665 0 -665 -120 0 -120 0 0 665 0 665 -235 0 -235 0 0 90 0 90 590
0 590 0 0 -90z"/>
<path d="M2082 7725 c2 -3 105 -9 228 -15 122 -5 225 -12 229 -16 3 -3 11
-294 17 -647 7 -353 12 -643 13 -644 0 -2 7 -3 15 -3 15 0 21 166 32 886 l7
411 75 7 c41 3 118 7 171 7 53 1 125 5 161 9 36 4 -164 8 -444 8 -280 1 -507
0 -504 -3z"/>
<path d="M3350 7046 l0 -846 205 0 205 0 0 335 0 335 51 0 c90 0 139 -19 194
-74 28 -28 133 -174 233 -323 l183 -273 245 0 246 0 -23 38 c-109 177 -291
461 -337 526 -31 43 -79 98 -106 122 l-50 43 30 11 c130 48 214 122 270 236
36 72 38 82 42 193 5 133 -9 199 -59 287 -36 64 -126 149 -184 175 -108 48
-151 52 -662 56 l-483 5 0 -846z m1035 730 c80 -23 147 -67 191 -127 97 -132
109 -306 31 -452 -64 -122 -175 -181 -400 -212 -26 -3 -45 -10 -43 -14 3 -4
40 -28 83 -53 149 -87 200 -146 383 -437 l117 -186 -130 -3 c-72 -1 -136 -1
-142 2 -6 2 -89 120 -185 262 -96 142 -197 281 -225 309 -66 68 -115 84 -272
92 l-123 6 0 -336 0 -337 -120 0 -120 0 0 756 0 755 448 -3 c386 -4 455 -7
507 -22z"/>
<path d="M3523 7358 c18 -976 18 -988 39 -988 13 0 18 7 18 28 0 54 23 597 26
600 3 4 405 31 463 32 19 0 32 3 28 6 -5 5 -372 33 -454 34 l-33 0 0 317 0
316 313 -6 c370 -7 395 -12 483 -102 61 -62 85 -124 85 -220 0 -100 -24 -159
-92 -227 -31 -32 -52 -58 -45 -58 7 0 40 14 74 31 109 54 152 133 152 278 0
71 -5 96 -26 141 -34 74 -96 135 -164 162 -53 22 -69 23 -464 26 l-409 3 6
-373z"/>
<path d="M3670 7375 l0 -246 283 3 c317 3 340 8 404 81 72 83 72 241 0 324
-64 73 -87 78 -404 81 l-283 4 0 -247z m551 145 c98 -27 138 -171 68 -247 -45
-49 -78 -55 -311 -61 l-218 -5 0 162 0 161 213 0 c116 0 228 -5 248 -10z"/>
<path d="M4182 6859 c27 -70 382 -488 416 -489 19 0 15 9 -26 64 -21 28 -60
85 -86 126 -82 128 -148 202 -231 260 -43 29 -76 47 -73 39z"/>
<path d="M6780 7045 l0 -845 204 0 205 0 0 845 1 845 -205 0 -205 0 0 -845z
m320 0 l0 -755 -120 0 -120 0 0 755 0 755 120 0 120 0 0 -755z"/>
<path d="M6977 7500 c-4 -113 -9 -378 -12 -590 -3 -212 -8 -420 -11 -462 l-5
-78 32 0 32 0 -8 478 c-4 262 -10 563 -14 667 l-6 190 -8 -205z"/>
<path d="M7450 7040 l0 -840 605 0 605 0 0 180 0 180 -400 0 -400 0 -1 183
c-1 100 0 397 1 660 l2 477 -206 0 -206 0 0 -840z m320 90 l0 -660 400 0 400
0 0 -90 0 -90 -520 0 -520 0 0 750 0 750 120 0 120 0 0 -660z"/>
<path d="M7636 7618 c-3 -51 -8 -358 -12 -681 l-7 -588 109 6 c60 3 258 10
439 16 182 6 332 13 334 15 2 2 2 6 -1 9 -3 3 -179 10 -391 17 -213 7 -391 14
-396 17 -7 5 -31 905 -31 1179 0 93 -2 102 -19 102 -16 0 -19 -11 -25 -92z"/>
<path d="M5464 7502 c-78 -202 -147 -385 -154 -407 -7 -22 -26 -69 -43 -105
-37 -80 -77 -187 -84 -220 -2 -14 -17 -52 -33 -86 -25 -51 -200 -491 -200
-501 0 -2 98 -3 219 -3 l219 0 65 188 65 187 289 3 290 2 69 -190 69 -190 223
0 c122 0 222 2 222 5 0 10 -179 453 -203 500 -14 28 -30 68 -37 90 -23 71
-173 449 -197 494 -13 24 -23 50 -23 57 0 8 -48 133 -106 279 l-106 265 -202
0 -201 0 -141 -368z m521 206 c117 -292 565 -1428 565 -1433 0 -3 -57 -4 -126
-3 l-127 3 -53 145 c-30 80 -61 164 -70 188 l-16 42 -351 0 -352 0 -65 -190
-65 -190 -124 0 c-113 0 -123 1 -117 18 4 9 136 353 294 764 l287 748 141 0
142 0 37 -92z"/>
<path d="M5731 7688 c-5 -13 -122 -312 -260 -665 -138 -353 -251 -644 -251
-647 0 -3 6 -6 13 -6 8 0 47 77 91 179 l78 179 393 7 c216 4 398 6 405 3 7 -2
50 -85 96 -183 74 -161 104 -211 104 -175 0 7 -114 309 -252 671 l-253 659
-34 0 c-27 0 -32 -3 -29 -17 3 -10 85 -220 182 -466 98 -247 175 -451 172
-455 -6 -5 -736 15 -742 21 -2 1 68 198 155 437 191 525 176 480 156 480 -8 0
-19 -10 -24 -22z"/>
<path d="M5796 7573 c-4 -10 -40 -110 -81 -223 -40 -113 -98 -272 -129 -354
-31 -82 -56 -153 -56 -157 0 -5 124 -9 275 -9 174 0 275 4 275 10 0 13 -262
733 -270 743 -4 5 -10 0 -14 -10z m68 -378 c10 -22 20 -49 21 -60 2 -11 19
-64 39 -117 l36 -98 -155 0 -154 0 25 73 c14 39 32 97 40 127 8 30 21 64 28
75 7 11 23 49 36 84 l24 64 21 -54 c12 -30 30 -72 39 -94z"/>
<path d="M6274 5966 c-151 -35 -265 -99 -372 -211 -75 -77 -150 -197 -157
-248 -1 -12 -16 -60 -31 -107 -28 -82 -29 -91 -29 -290 0 -243 11 -301 86
-457 53 -111 106 -173 216 -255 32 -24 67 -51 77 -60 34 -31 184 -78 287 -90
176 -21 363 15 497 94 101 60 161 132 236 280 42 84 67 147 69 172 l2 40 -180
58 c-99 32 -187 58 -195 58 -10 0 -19 -17 -27 -50 -44 -184 -158 -293 -308
-292 -86 0 -155 25 -214 78 -94 85 -133 211 -133 429 0 216 9 259 73 355 66
100 162 150 283 150 141 -1 253 -87 287 -221 9 -34 18 -49 30 -49 22 0 378 86
385 93 10 10 -25 113 -68 198 -73 147 -204 256 -373 309 -90 29 -344 38 -441
16z m381 -91 c161 -42 288 -142 357 -281 23 -46 39 -86 37 -88 -4 -3 -214 -56
-223 -56 -2 0 -15 24 -30 54 -29 60 -102 134 -164 165 -67 34 -169 47 -254 33
-98 -17 -149 -42 -217 -107 -104 -99 -140 -204 -148 -435 -10 -302 50 -476
200 -574 157 -104 382 -83 502 45 42 45 105 157 105 186 0 6 4 15 10 18 10 6
209 -51 222 -63 11 -11 -50 -141 -98 -209 -116 -162 -304 -242 -544 -231 -312
16 -535 203 -621 524 -29 109 -32 350 -6 474 67 310 272 515 559 559 82 13
237 6 313 -14z"/>
<path d="M6344 5841 c-288 -46 -456 -262 -495 -636 -20 -190 23 -409 107 -546
46 -77 141 -169 212 -207 89 -47 163 -65 276 -65 227 0 389 88 480 262 40 77
41 81 24 81 -7 0 -26 -23 -43 -51 -36 -61 -116 -139 -173 -168 -65 -33 -158
-51 -272 -51 -166 0 -272 40 -366 136 -91 92 -136 215 -155 417 -20 214 18
428 99 553 139 214 442 295 670 180 72 -36 146 -99 178 -150 31 -49 32 -50 53
-37 27 17 -94 158 -186 214 -97 60 -273 89 -409 68z"/>
<path d="M2850 5780 l0 -180 235 0 235 0 0 -665 0 -665 205 0 205 0 0 665 0
665 235 0 235 0 0 180 0 180 -675 0 -675 0 0 -180z m1270 0 l0 -90 -240 0
-240 0 0 -665 0 -665 -115 0 -115 0 0 665 0 665 -240 0 -240 0 0 90 0 90 595
0 595 0 0 -90z"/>
<path d="M3035 5774 c6 -2 108 -8 228 -13 120 -5 220 -11 223 -14 5 -5 23
-849 24 -1124 0 -166 1 -173 20 -173 19 0 20 7 20 103 0 170 22 1192 26 1196
1 2 101 7 221 12 120 5 225 11 233 13 8 2 -214 4 -495 4 -280 0 -505 -1 -500
-4z"/>
<path d="M4310 5113 l0 -846 398 6 c218 4 511 7 650 7 l252 0 0 175 0 175
-445 0 -445 0 0 175 0 175 400 0 400 0 0 175 0 175 -400 0 -400 0 0 94 c0 51
-3 115 -7 141 l-6 48 436 -7 437 -7 0 181 0 180 -635 0 -635 0 0 -847z m1190
667 l0 -90 -435 0 -435 0 0 -220 0 -220 405 0 405 0 0 -95 0 -95 -405 0 -405
0 0 -260 0 -260 450 0 450 0 0 -90 0 -90 -570 0 -570 0 0 755 0 755 555 0 555
0 0 -90z"/>
<path d="M4480 5537 c0 -156 3 -474 7 -706 l6 -423 96 6 c53 3 268 9 479 12
354 6 382 8 382 24 0 16 -29 18 -397 24 -219 3 -427 9 -463 12 l-65 6 14 311
c7 172 15 314 17 316 3 3 182 10 399 16 217 6 397 14 401 18 4 4 4 10 0 14 -4
4 -186 13 -404 19 -218 7 -398 13 -400 13 -1 1 -1 124 0 274 l3 272 430 13
c237 8 432 16 434 18 12 11 -29 14 -334 23 -182 6 -392 13 -467 16 l-138 6 0
-284z"/>
<path d="M7312 5115 l1 -845 203 0 204 0 0 350 0 350 275 0 275 0 0 -350 0
-350 204 0 204 0 1 845 0 845 -204 0 -205 0 0 -315 0 -315 -275 0 -275 0 0
315 0 315 -205 0 -205 0 2 -845z m328 440 l0 -315 360 0 360 0 0 315 0 315
115 0 115 0 0 -755 0 -755 -115 0 -115 0 0 350 0 350 -360 0 -360 0 0 -350 0
-350 -120 0 -120 0 0 755 0 755 120 0 120 0 0 -315z"/>
<path d="M7511 5740 c-14 -527 -31 -1147 -35 -1222 l-4 -98 44 0 44 0 0 344 0
344 233 6 c127 3 325 8 438 10 l206 4 11 -296 c7 -163 12 -323 12 -354 0 -50
3 -58 18 -58 21 0 19 -30 39 1003 l6 357 -41 0 -42 0 0 -310 0 -310 -52 0
c-89 0 -822 21 -825 23 -1 2 -9 120 -18 262 -9 143 -20 278 -24 300 l-9 40 -1
-45z"/>
<path d="M9508 5878 c-42 -26 -48 -34 -48 -64 0 -27 -4 -34 -20 -34 -17 0 -20
-7 -20 -45 0 -38 3 -45 20 -45 19 0 20 -7 20 -112 0 -71 5 -122 13 -138 16
-32 75 -52 125 -42 35 8 37 10 37 47 0 38 -2 40 -32 43 l-33 3 0 100 0 99 30
0 c29 0 30 2 30 45 0 43 -1 45 -30 45 l-30 0 0 65 c0 36 -3 65 -7 64 -5 0 -29
-14 -55 -31z"/>
<path d="M9155 5783 c-48 -10 -76 -28 -95 -58 -28 -46 -26 -53 26 -61 38 -5
48 -3 65 15 27 29 84 29 100 0 14 -28 5 -34 -77 -49 -34 -7 -76 -20 -93 -31
-73 -44 -66 -158 11 -190 43 -18 113 -15 145 6 24 16 27 16 35 1 6 -11 23 -16
60 -16 48 0 50 1 43 23 -4 12 -10 86 -14 164 -5 127 -8 145 -27 163 -31 32
-115 47 -179 33z"/>
<path d="M8822 5288 c-18 -18 -14 -56 7 -68 13 -6 168 -10 436 -10 268 0 423
4 436 10 21 12 25 50 7 68 -17 17 -869 17 -886 0z"/>
</g>
</svg>
