<?xml version="1.0" encoding="utf-8"?>
<!-- Generator: Adobe Illustrator 19.0.0, SVG Export Plug-In . SVG Version: 6.00 Build 0)  -->
<svg version="1.1" id="Logo" xmlns="http://www.w3.org/2000/svg" xmlns:xlink="http://www.w3.org/1999/xlink" x="0px" y="0px"
	 viewBox="-210 234 537.5 93" style="enable-background:new -210 234 537.5 93;" xml:space="preserve">
<style type="text/css">
	.st0{fill:#FFCD05;}
	.st1{fill:#333333;}
</style>
<g id="Triangle">
	<polygon class="st0" points="-204,319 -160.2,243 -116.3,319 	"/>
</g>
<path id="Fork" class="st1" d="M-160.5,291.5l6.8,4.2v17h8.1c0,0,0-15,0-20.4l-9.7-7v-21.5h-9.4v21.5l-9.7,7c0,5.4,0,20.4,0,20.4
	h8.1v-17l6.4-4.6"/>
<g id="Trailforks_Text">
	<polygon class="st1" points="-119.5,259.1 -108,259.1 -108,317 -108,318.8 -88.6,318.8 -88.6,311.4 -88.6,259.1 -77.1,259.1 
		-77.1,244.1 -119.5,244.1 	"/>
	<path class="st1" d="M-31.4,276.2c1.4-2,2.2-5.9,2.2-11.7c0-6.4-1-11-3.1-13.9c-2-2.9-4.7-4.7-7.9-5.4s-9.4-1.1-18.6-1.1h-13.7
		v62.6v12h19.4v-17.6v-16c2.7,0,4.3,0.5,5,1.4c0.6,1,0.9,3.4,0.9,7.4v5.4v19.4h18v-19.6c0-1.9,0-3.5,0-4.9c-0.1-3.1-0.2-5.2-0.4-6.1
		c-0.3-1.3-1.1-2.8-2.5-4.4c-1.3-1.6-3.9-2.9-7.7-3.8C-35.7,279.4-32.9,278.2-31.4,276.2z M-48.6,272.6c-0.9,0.6-2.4,0.9-4.6,0.9
		v-16.6c2.2,0,3.8,0.4,4.6,1.1s1.3,2.3,1.3,4.7v4.1C-47.3,270.1-47.7,272-48.6,272.6z"/>
	<path class="st1" d="M11.8,244.1h-28.1l-6.4,48.1l-3.5,26.6h20.1l1.2-13.4H2l1,13.4h19.8l-5.7-38.1L11.8,244.1z M-5.2,292.2
		c0.1-1.5,0.3-3.2,0.5-5.1c0.6-6.5,1.7-15.2,3.3-26.3c0.7,9.3,1.5,17.6,2.2,24.7c0.2,2.4,0.5,4.6,0.7,6.7
		C1.5,292.2-5.2,292.2-5.2,292.2z"/>
	<polygon class="st1" points="26.2,278.1 26.2,318.8 45.6,318.8 45.6,272.4 45.6,244.1 26.2,244.1 	"/>
	<polygon class="st1" points="89.4,259.7 89.4,318.8 108.8,318.8 108.8,287.5 120.8,287.5 120.8,273.2 108.8,273.2 108.8,264.8 
		108.8,259.1 122.2,259.1 122.2,244.1 89.4,244.1 	"/>
	<path class="st1" d="M167.3,250.4c-1.9-2.6-4.5-4.6-7.7-5.9s-6.8-2-10.8-2c-4.2,0-7.9,0.7-11.1,2.1c-3.2,1.4-5.7,3.4-7.5,6
		c-1.9,2.6-3,5.4-3.3,8.6c-0.3,2.3-0.4,5.7-0.5,10.3c0,1.7,0,3.6,0,5.7V288c0,7.7,0.2,13.1,0.6,16.1c0.4,3.1,1.5,5.9,3.5,8.5
		c1.9,2.6,4.5,4.6,7.7,5.9s6.8,2,10.8,2c4.2,0,7.9-0.7,11.1-2.1s5.7-3.4,7.5-6c1.9-2.6,3-5.4,3.3-8.6c0.4-3.1,0.5-8.4,0.5-15.9v-6.7
		v-6c0-7.7-0.2-13.1-0.6-16.1C170.4,255.9,169.2,253,167.3,250.4z M151.9,297.6c0,4.4-0.2,7.2-0.6,8.3c-0.4,1.2-1.2,1.8-2.5,1.8
		s-2.1-0.5-2.5-1.5s-0.5-3.7-0.5-8v-23.7v-11.2c0-3.8,0.3-6.2,0.8-6.9c0.5-0.8,1.3-1.2,2.3-1.2c1.2,0,2,0.5,2.4,1.5
		c0.4,1,0.6,3.2,0.6,6.7v12.7L151.9,297.6L151.9,297.6z"/>
	<path class="st1" d="M219.7,276.2c1.4-2,2.2-5.9,2.2-11.7c0-6.4-1-11-3.1-13.9c-2-2.9-4.7-4.7-7.9-5.4c-3.2-0.7-9.4-1.1-18.6-1.1
		h-13.7V283v35.8H198v-30.7v-2.9c2.7,0,4.3,0.5,5,1.4c0.3,0.5,0.6,1.5,0.8,3c0.1,1.2,0.2,2.6,0.2,4.4v24.8h18v-19.7
		c0-1.8,0-3.4,0-4.8c-0.1-3.2-0.2-5.3-0.4-6.2c-0.3-1.3-1.1-2.8-2.5-4.4c-1.3-1.6-3.9-2.9-7.7-3.8
		C215.5,279.4,218.3,278.2,219.7,276.2z M202.6,272.6c-0.9,0.6-2.4,0.9-4.6,0.9v-16.6c2.2,0,3.8,0.4,4.6,1.1
		c0.8,0.7,1.3,2.3,1.3,4.7v4.1C203.9,270.1,203.4,272,202.6,272.6z"/>
	<polygon class="st1" points="264.6,277.9 275.7,244.1 257.5,244.1 248.8,273.2 248.8,244.1 229.4,244.1 229.4,296.3 229.4,318.8 
		248.8,318.8 248.8,301.4 248.8,286.8 252.7,302.3 256.7,318.8 276.8,318.8 273.5,307.8 	"/>
	<path class="st1" d="M318.1,283.8c-2.2-3.3-7.7-7.5-16.3-12.6c-3-1.8-4.8-3.3-5.5-4.6c-0.7-1.3-1-3.1-1-5.6c0-1.9,0.3-3.4,0.9-4.3
		c0.6-1,1.5-1.4,2.7-1.4c1.1,0,1.8,0.4,2.3,1.1c0.5,0.7,0.7,2.4,0.7,4.9v5.5h18v-3c0-5.9-0.6-10.1-1.7-12.6
		c-1.2-2.5-3.5-4.5-7.1-6.2c-3.6-1.6-7.8-2.4-12.9-2.4c-4.6,0-8.5,0.7-11.8,2.2s-5.6,3.6-7.1,6.2c-1.5,2.6-2.2,6.8-2.2,12.5
		c0,4,0.5,7.2,1.5,9.8s2.3,4.6,3.9,6c1.6,1.4,4.8,3.8,9.6,7c4.8,3.2,7.9,5.4,9.1,6.8c1.2,1.4,1.8,4.2,1.8,8.6c0,2-0.3,3.5-0.9,4.5
		c-0.6,1-1.6,1.5-2.9,1.5s-2.2-0.4-2.7-1.2s-0.8-2.6-0.8-5.4V292h-18v5c0,5.2,0.5,9.3,1.5,12.3c0.1,0.2,0.1,0.4,0.2,0.7
		c1.1,3,3.5,5.6,7.2,7.5c3.7,2,8.1,3,13.3,3c4.7,0,8.8-0.8,12.3-2.5c0,0,0.1,0,0.1-0.1c3.6-1.7,6-3.8,7.2-6.3s1.9-6.4,1.9-11.8
		C321.4,292.4,320.3,287.1,318.1,283.8z"/>
	<polygon class="st1" points="72.8,264.5 72.8,244.1 53.4,244.1 53.4,270.2 53.4,318.8 84.7,318.8 84.7,303.9 72.8,303.9 	"/>
</g>
</svg>
