<?xml version="1.0" encoding="UTF-8" standalone="no"?>
<!-- Created with Inkscape (http://www.inkscape.org/) -->

<svg
   xmlns:dc="http://purl.org/dc/elements/1.1/"
   xmlns:cc="http://creativecommons.org/ns#"
   xmlns:rdf="http://www.w3.org/1999/02/22-rdf-syntax-ns#"
   xmlns:svg="http://www.w3.org/2000/svg"
   xmlns="http://www.w3.org/2000/svg"
   xmlns:sodipodi="http://sodipodi.sourceforge.net/DTD/sodipodi-0.dtd"
   xmlns:inkscape="http://www.inkscape.org/namespaces/inkscape"
   width="732.85718"
   height="121.42865"
   id="svg3809"
   version="1.1"
   inkscape:version="0.48.5 r10040"
   inkscape:export-filename="D:\Projekte\tiroltrailhead\guiding\images\bikegruppe.png"
   inkscape:export-xdpi="200"
   inkscape:export-ydpi="200"
   sodipodi:docname="Neues Dokument 5">
  <defs
     id="defs3811" />
  <sodipodi:namedview
     id="base"
     pagecolor="#ffffff"
     bordercolor="#666666"
     borderopacity="1.0"
     inkscape:pageopacity="0.0"
     inkscape:pageshadow="2"
     inkscape:zoom="1.802534"
     inkscape:cx="366.42859"
     inkscape:cy="28.083148"
     inkscape:document-units="px"
     inkscape:current-layer="layer1"
     showgrid="false"
     fit-margin-top="10"
     fit-margin-left="10"
     fit-margin-right="10"
     fit-margin-bottom="10"
     inkscape:window-width="1465"
     inkscape:window-height="841"
     inkscape:window-x="63"
     inkscape:window-y="-8"
     inkscape:window-maximized="1" />
  <metadata
     id="metadata3814">
    <rdf:RDF>
      <cc:Work
         rdf:about="">
        <dc:format>image/svg+xml</dc:format>
        <dc:type
           rdf:resource="http://purl.org/dc/dcmitype/StillImage" />
        <dc:title></dc:title>
      </cc:Work>
    </rdf:RDF>
  </metadata>
  <g
     inkscape:label="Ebene 1"
     inkscape:groupmode="layer"
     id="layer1"
     transform="translate(-69.285713,-395.93359)">
    <rect
       style="fill:#00ca57;fill-opacity:1;stroke:none"
       id="rect4340"
       width="712.85718"
       height="101.42865"
       x="79.285713"
       y="405.93359"
       ry="17.142899"
       rx="17.857164" />
    <path
       sodipodi:type="inkscape:offset"
       inkscape:radius="0.90129191"
       inkscape:original="M 345.5 430.78125 C 342.14277 430.3976 340.36401 431.7849 341.25 434.09375 C 342.21518 436.60896 348.375 435.77494 348.375 433.125 C 348.375 431.66546 347.59576 431.02074 345.5 430.78125 z M 302.375 432.125 L 302.09375 454.09375 C 301.94517 466.18074 302.07817 476.69522 302.375 477.46875 C 302.80622 478.5925 304.91815 478.7879 312.84375 478.40625 C 328.14152 477.66961 329.37593 476.24188 329.375 459.5625 C 329.37423 445.77875 328.15078 444.2788 315.625 442.75 L 310.375 442.125 L 309.875 437.125 C 309.37976 432.1726 309.34167 432.125 305.875 432.125 L 302.375 432.125 z M 362.375 432.125 L 362.09375 454.09375 C 361.94517 466.18074 362.06146 476.67061 362.34375 477.40625 C 362.66498 478.24335 364.08667 478.63394 366.125 478.4375 C 369.09196 478.15157 369.41951 477.76022 369.875 474.1875 C 370.15 472.0305 370.85247 470.09842 371.4375 469.90625 C 372.02254 469.71408 374.57144 471.60707 377.09375 474.09375 C 381.34938 478.28927 385.04929 479.7746 386.28125 477.78125 C 386.56521 477.3218 383.89525 473.45919 380.34375 469.1875 C 376.79225 464.9158 373.875 461.02951 373.875 460.5625 C 373.875 460.09549 376.76539 456.21824 380.3125 451.96875 C 383.85961 447.71926 386.56082 443.88985 386.28125 443.4375 C 384.99788 441.36097 381.2124 442.93024 377.21875 447.21875 C 371.11394 453.77429 370.01376 452.9404 369.65625 441.40625 L 369.375 432.125 L 365.875 432.125 L 362.375 432.125 z M 757.375 432.125 L 757.0625 437.375 C 756.8107 441.74854 756.44841 442.625 754.875 442.625 C 751.86875 442.625 751.50921 444.52794 754.3125 445.59375 C 756.81593 446.54555 756.88295 446.78565 756.90625 456.34375 C 756.94462 472.06767 758.48167 476.07763 765.03125 477.625 C 769.63257 478.71209 769.46562 478.69063 770.1875 477.96875 C 770.54165 477.6146 769.4666 475.79017 767.8125 473.90625 L 764.8125 470.46875 L 765.09375 458.34375 C 765.36503 446.59366 765.45213 446.18245 767.6875 445.65625 C 770.82649 444.91734 770.92272 443.33803 767.875 442.625 C 765.71789 442.12033 765.30642 441.34236 764.875 437.0625 C 764.38037 432.1556 764.33739 432.125 760.875 432.125 L 757.375 432.125 z M 729.21875 442.96875 C 722.68812 443.37452 716.86735 446.5408 718.21875 450.0625 C 719.14211 452.46874 721.28594 451.91555 723.71875 448.625 C 726.64442 444.66781 730.86992 444.53188 733.84375 448.3125 C 736.32861 451.47154 736.35156 457.95968 733.875 458.28125 C 723.22347 459.66427 722.41814 459.92561 719.71875 462.625 C 714.71213 467.63162 717.04476 475.42259 724.1875 477.53125 C 725.9404 478.04873 730.975 478.37945 735.375 478.28125 L 743.375 478.125 L 743.375 464.0625 C 743.375 447.64563 742.54744 445.39286 735.75 443.5625 C 733.6531 442.99786 731.39563 442.83349 729.21875 442.96875 z M 104.375 443.125 L 104.09375 459.5625 C 103.94207 468.61638 104.04058 476.60388 104.3125 477.3125 C 104.68074 478.27213 108.11172 478.625 117.78125 478.625 C 132.99749 478.625 139.79443 477.39241 143.9375 473.90625 C 149.14851 469.52147 150.18535 466.28577 150.28125 454.125 L 150.375 443.125 L 146.875 443.125 L 143.375 443.125 L 142.875 457.4375 C 142.39812 471.11576 142.279 471.8823 139.96875 473.75 C 138.60124 474.85554 136.42401 475.57551 134.96875 475.40625 L 132.375 475.125 L 131.875 459.125 L 131.375 443.125 L 127.875 443.125 L 124.375 443.125 L 123.875 457.4375 C 123.39808 471.11715 123.28001 471.88149 120.96875 473.75 C 119.44974 474.97803 117.39765 475.5946 115.46875 475.40625 L 112.375 475.125 L 111.875 459.125 L 111.375 443.125 L 107.875 443.125 L 104.375 443.125 z M 162.375 443.125 L 162.09375 459.5625 C 161.94207 468.61638 162.04058 476.60388 162.3125 477.3125 C 162.68074 478.27213 166.11171 478.625 175.78125 478.625 C 190.99749 478.625 197.79447 477.39241 201.9375 473.90625 C 207.14851 469.52147 208.18535 466.28577 208.28125 454.125 L 208.375 443.125 L 204.875 443.125 L 201.375 443.125 L 200.875 457.4375 C 200.39812 471.11576 200.279 471.8823 197.96875 473.75 C 196.60124 474.85554 194.42401 475.57551 192.96875 475.40625 L 190.375 475.125 L 189.875 459.125 L 189.375 443.125 L 185.875 443.125 L 182.375 443.125 L 181.875 457.4375 C 181.39808 471.11715 181.28001 471.88149 178.96875 473.75 C 177.44973 474.97803 175.39765 475.5946 173.46875 475.40625 L 170.375 475.125 L 169.875 459.125 L 169.375 443.125 L 165.875 443.125 L 162.375 443.125 z M 220.375 443.125 L 220.09375 459.5625 C 219.94207 468.61638 220.04058 476.60388 220.3125 477.3125 C 220.68075 478.27213 224.11172 478.625 233.78125 478.625 C 248.99749 478.625 255.79447 477.39241 259.9375 473.90625 C 265.14851 469.52147 266.18535 466.28577 266.28125 454.125 L 266.375 443.125 L 262.875 443.125 L 259.375 443.125 L 258.875 457.4375 C 258.39812 471.11576 258.279 471.8823 255.96875 473.75 C 254.60124 474.85554 252.42401 475.57551 250.96875 475.40625 L 248.375 475.125 L 247.875 459.125 L 247.375 443.125 L 243.875 443.125 L 240.375 443.125 L 239.875 457.4375 C 239.39808 471.11715 239.28001 471.88149 236.96875 473.75 C 235.44974 474.97803 233.39765 475.5946 231.46875 475.40625 L 228.375 475.125 L 227.875 459.125 L 227.375 443.125 L 223.875 443.125 L 220.375 443.125 z M 482.78125 443.125 C 467.61047 443.125 465.375 445.26687 465.375 460 C 465.375 475.03475 466.8467 477.1727 478.03125 478.40625 C 483.58152 479.01839 484.41062 479.39565 484.6875 481.34375 C 485.10567 484.28595 480.75818 488.625 477.375 488.625 C 475.7344 488.625 473.71296 487.44685 471.90625 485.46875 C 468.75887 482.02278 465.65663 482.06719 466.5625 485.53125 C 467.26011 488.19891 469.15888 489.68789 473.125 490.6875 C 477.39235 491.76303 485.81427 490.85909 488.625 489.03125 C 491.96847 486.85697 492.375 483.91396 492.375 462.625 L 492.375 443.125 L 482.78125 443.125 z M 504.375 443.125 L 504.09375 459.5625 C 503.94207 468.61638 504.05835 476.63126 504.34375 477.375 C 504.67097 478.22772 506.07126 478.63542 508.125 478.4375 L 511.375 478.125 L 511.875 464.90625 C 512.21089 456.03592 512.78867 451.27104 513.65625 450.40625 C 514.36655 449.69824 517.51655 448.9047 520.65625 448.625 C 525.94309 448.15401 526.375 447.94031 526.375 445.625 L 526.375 443.125 L 515.375 443.125 L 504.375 443.125 z M 536.375 443.125 L 536.0625 452.625 C 535.47505 470.49815 537.6439 476.77488 544.71875 477.90625 C 546.18868 478.1413 550.975 478.28385 555.375 478.21875 L 563.375 478.125 L 563.375 460.625 L 563.375 443.125 L 559.875 443.125 L 556.375 443.125 L 555.875 459.125 L 555.375 475.125 L 552.3125 475.40625 C 550.3836 475.5946 548.33151 474.97803 546.8125 473.75 C 544.50124 471.88149 544.35192 471.11715 543.875 457.4375 L 543.375 443.125 L 539.875 443.125 L 536.375 443.125 z M 575.375 443.125 L 575.09375 465.09375 C 574.94517 477.18074 575.06146 487.67061 575.34375 488.40625 C 575.66498 489.24335 577.08667 489.63394 579.125 489.4375 C 582.2463 489.13669 582.39581 488.91686 582.875 484.125 L 583.375 479.125 L 588.625 478.46875 C 601.34356 476.91642 602.375 475.58531 602.375 460.625 C 602.375 444.60078 600.8779 443.1385 584.375 443.125 L 575.375 443.125 z M 614.375 443.125 L 614.09375 465.09375 C 613.94517 477.18074 614.06146 487.67061 614.34375 488.40625 C 614.66498 489.24335 616.08667 489.63394 618.125 489.4375 C 621.2463 489.13669 621.39581 488.91686 621.875 484.125 L 622.375 479.125 L 627.625 478.46875 C 640.34356 476.91642 641.375 475.58531 641.375 460.625 C 641.375 444.60078 639.8779 443.1385 623.375 443.125 L 614.375 443.125 z M 410.875 443.15625 C 407.11012 443.15485 403.34862 443.73594 401.5625 444.90625 C 397.44738 447.60257 395.72139 457.89447 397.53125 468.84375 C 398.25432 473.21819 401.92136 477.29038 405.71875 477.9375 C 409.89339 478.64891 418.16429 477.6433 420.5 476.125 C 423.22759 474.35197 424.23688 470.68068 422.21875 469.90625 C 421.30782 469.5567 419.58293 470.5646 417.84375 472.46875 C 414.31803 476.32892 410.7291 476.5416 407.28125 473.09375 C 405.24594 471.05843 404.81376 469.77865 405.0625 466.34375 L 405.375 462.125 L 414.875 461.625 L 424.375 461.125 L 424.6875 457.9375 C 425.17985 452.85717 423.08161 446.80254 420.1875 444.90625 C 418.39939 443.73452 414.63988 443.15765 410.875 443.15625 z M 666.875 443.15625 C 663.11012 443.15485 659.34863 443.73594 657.5625 444.90625 C 653.44738 447.60258 651.72139 457.89447 653.53125 468.84375 C 654.25432 473.21819 657.92136 477.29037 661.71875 477.9375 C 665.89339 478.64891 674.16429 477.6433 676.5 476.125 C 679.22759 474.35197 680.23688 470.68068 678.21875 469.90625 C 677.30782 469.5567 675.58293 470.5646 673.84375 472.46875 C 670.31803 476.32892 666.7291 476.5416 663.28125 473.09375 C 661.24594 471.05843 660.81376 469.77865 661.0625 466.34375 L 661.375 462.125 L 670.875 461.625 L 680.375 461.125 L 680.6875 457.9375 C 681.17985 452.85717 679.08161 446.80254 676.1875 444.90625 C 674.39939 443.73452 670.63988 443.15765 666.875 443.15625 z M 341.375 444.125 L 341.09375 460.0625 C 340.9417 468.84042 341.05798 476.63029 341.34375 477.375 C 341.67168 478.22957 343.06945 478.6356 345.125 478.4375 L 348.375 478.125 L 348.375 461.125 L 348.375 444.125 L 344.875 444.125 L 341.375 444.125 z M 410.875 445.625 C 413.87101 445.625 417.03141 450.47058 416.6875 454.5625 C 416.39196 458.07887 416.32978 458.11439 411.34375 458.40625 C 405.46482 458.75037 404.875 458.37445 404.875 454.09375 C 404.875 450.34486 408.21878 445.625 410.875 445.625 z M 588.875 445.625 C 589.475 445.625 591.0875 446.7125 592.4375 448.0625 C 594.71924 450.34424 594.875 451.24453 594.875 460.625 C 594.875 470.00547 594.71924 470.87451 592.4375 473.15625 C 590.10664 475.48711 585.08074 476.48699 583.53125 474.9375 C 583.16458 474.57083 582.875 468.93958 582.875 462.40625 C 582.875 451.12753 583.0132 450.39305 585.34375 448.0625 C 586.69375 446.7125 588.275 445.625 588.875 445.625 z M 627.875 445.625 C 628.475 445.625 630.0875 446.7125 631.4375 448.0625 C 633.71924 450.34424 633.875 451.24453 633.875 460.625 C 633.875 470.00547 633.71924 470.87451 631.4375 473.15625 C 629.10664 475.48711 624.08074 476.48699 622.53125 474.9375 C 622.16458 474.57083 621.875 468.93958 621.875 462.40625 C 621.875 451.12753 622.0132 450.39305 624.34375 448.0625 C 625.69375 446.7125 627.275 445.625 627.875 445.625 z M 666.875 445.625 C 669.87101 445.625 673.03141 450.47058 672.6875 454.5625 C 672.39196 458.07887 672.32978 458.11439 667.34375 458.40625 C 661.46482 458.75037 660.875 458.37445 660.875 454.09375 C 660.875 450.34486 664.21878 445.625 666.875 445.625 z M 313.625 445.8125 C 316.01445 445.58185 317.51518 446.14017 319.375 448 C 321.73135 450.35635 321.875 451.17688 321.875 460.625 C 321.875 470.00547 321.71924 470.87451 319.4375 473.15625 C 316.76348 475.83027 311.16703 476.53937 310.3125 474.3125 C 310.03799 473.59725 309.93952 466.95975 310.09375 459.5625 L 310.375 446.125 L 313.625 445.8125 z M 481.15625 445.8125 L 484.375 446.125 L 484.65625 458.375 C 484.92895 470.28187 484.88171 470.71204 482.46875 473.125 C 479.36957 476.22419 478.41616 476.22866 475.34375 473.15625 C 473.06201 470.87451 472.875 470.00547 472.875 460.625 C 472.875 451.17688 473.0499 450.35635 475.40625 448 C 477.26607 446.14017 478.7668 445.58185 481.15625 445.8125 z M 441.53125 458.6875 C 439.99425 458.71453 438.74648 458.83601 438.15625 459.0625 C 437.37932 459.36063 437.05014 460.08007 437.40625 460.65625 C 438.23617 461.9991 453.375 461.49555 453.375 460.125 C 453.375 459.32258 446.14224 458.6064 441.53125 458.6875 z M 732.1875 461.8125 C 735.07992 462.09254 735.40847 462.4518 735.6875 465.8125 C 735.85681 467.85172 735.50067 470.42057 734.90625 471.53125 C 731.78671 477.36017 724.875 475.2069 724.875 468.40625 C 724.875 464.42743 728.21767 461.42813 732.1875 461.8125 z M 283.875 470.125 C 278.57827 470.125 278.37507 470.20778 278.0625 472.9375 C 277.88398 474.49646 277.97139 476.4425 278.28125 477.25 C 278.69989 478.34092 280.21559 478.63114 284.125 478.40625 L 289.375 478.125 L 289.375 474.125 L 289.375 470.125 L 283.875 470.125 z M 697.875 470.125 C 692.57827 470.125 692.37507 470.20778 692.0625 472.9375 C 691.88398 474.49646 691.97139 476.4425 692.28125 477.25 C 692.69989 478.34092 694.21559 478.63114 698.125 478.40625 L 703.375 478.125 L 703.375 474.125 L 703.375 470.125 L 697.875 470.125 z "
       style="fill:none;stroke:#ffffff;stroke-width:3.5;stroke-miterlimit:4;stroke-opacity:1;stroke-dasharray:none"
       id="path3830"
       d="m 345.59375,429.875 c -1.81821,-0.20778 -3.32804,0.0276 -4.375,0.84375 -1.04696,0.81617 -1.34941,2.28835 -0.8125,3.6875 0.36215,0.94373 1.21166,1.52296 2.09375,1.8125 0.88209,0.28954 1.83441,0.34724 2.78125,0.21875 0.94684,-0.12849 1.87421,-0.41608 2.625,-0.9375 0.75079,-0.52142 1.375,-1.36334 1.375,-2.375 0,-0.89017 -0.31944,-1.75593 -1,-2.3125 -0.68056,-0.55657 -1.5615,-0.80883 -2.6875,-0.9375 z m -43.3125,1.34375 a 0.90138204,0.90138204 0 0 0 -0.8125,0.90625 l -0.28125,21.96875 c -0.0744,6.05001 -0.0832,11.69097 -0.0312,15.9375 0.026,2.12327 0.0725,3.8894 0.125,5.1875 0.0262,0.64905 0.0602,1.18695 0.0937,1.59375 0.0335,0.4068 8.4e-4,0.56375 0.15625,0.96875 0.19283,0.50252 0.65164,0.94879 1.1875,1.1875 0.53586,0.23871 1.16227,0.36206 2,0.4375 1.67546,0.15088 4.18223,0.0976 8.15625,-0.0937 3.83783,-0.1848 6.81687,-0.41667 9.1875,-0.9375 2.37063,-0.52083 4.19668,-1.36101 5.46875,-2.8125 2.54413,-2.90298 2.75047,-7.63807 2.75,-16 -3.9e-4,-6.91854 -0.22268,-10.93023 -2.375,-13.5625 -1.07616,-1.31614 -2.61732,-2.17975 -4.59375,-2.78125 -1.97643,-0.6015 -4.44646,-0.99087 -7.59375,-1.375 l -4.5,-0.53125 -0.4375,-4.28125 c -0.24782,-2.47819 -0.27461,-3.78857 -1.09375,-4.8125 -0.40957,-0.51196 -1.03698,-0.80464 -1.65625,-0.90625 -0.61927,-0.10161 -1.28752,-0.0937 -2.15625,-0.0937 l -3.5,0 a 0.90138204,0.90138204 0 0 0 -0.0937,0 z m 60,0 a 0.90138204,0.90138204 0 0 0 -0.8125,0.90625 l -0.28125,21.96875 c -0.0744,6.04959 -0.0771,11.70236 -0.0312,15.9375 0.0229,2.11757 0.0449,3.86634 0.0937,5.15625 0.0244,0.64496 0.0622,1.16055 0.0937,1.5625 0.0316,0.40195 -0.004,0.55201 0.15625,0.96875 0.30315,0.79 1.03761,1.24845 1.84375,1.46875 0.80614,0.2203 1.77914,0.26186 2.875,0.15625 0.7597,-0.0732 1.37713,-0.14906 1.9375,-0.3125 0.56037,-0.16344 1.08372,-0.46799 1.46875,-0.90625 0.77005,-0.87653 0.9256,-2.00335 1.15625,-3.8125 0.12959,-1.01649 0.34063,-1.99314 0.59375,-2.6875 0.11636,-0.31919 0.24666,-0.55479 0.34375,-0.71875 0.0283,0.0136 0.0308,0.0146 0.0625,0.0312 0.2925,0.15353 0.72954,0.41871 1.21875,0.78125 0.97843,0.72507 2.23426,1.8142 3.46875,3.03125 2.18294,2.15211 4.23492,3.62273 6.03125,4.34375 0.89816,0.36051 1.72337,0.54149 2.53125,0.4375 0.80788,-0.10399 1.59087,-0.56871 2.03125,-1.28125 0.35,-0.5663 0.11254,-0.85046 0.0312,-1.09375 -0.0813,-0.24329 -0.1655,-0.47716 -0.3125,-0.75 -0.294,-0.54569 -0.73214,-1.20535 -1.28125,-2 -1.09823,-1.58931 -2.67861,-3.62809 -4.46875,-5.78125 -1.76741,-2.12581 -3.37086,-4.17198 -4.53125,-5.71875 -0.5802,-0.77339 -1.06297,-1.43509 -1.375,-1.90625 -0.12754,-0.19258 -0.18136,-0.31858 -0.25,-0.4375 0.068,-0.11856 0.12355,-0.24552 0.25,-0.4375 0.30936,-0.46969 0.79865,-1.13569 1.375,-1.90625 1.1527,-1.54111 2.73568,-3.57382 4.5,-5.6875 1.78678,-2.14059 3.36324,-4.17389 4.46875,-5.75 0.55275,-0.78806 0.98364,-1.42842 1.28125,-1.96875 0.1488,-0.27016 0.26037,-0.5088 0.34375,-0.75 0.0417,-0.1206 0.0778,-0.24361 0.0937,-0.40625 0.016,-0.16264 0.0525,-0.40025 -0.125,-0.6875 -0.45171,-0.73088 -1.2402,-1.20536 -2.0625,-1.3125 -0.8223,-0.10714 -1.69442,0.063 -2.59375,0.4375 -1.79865,0.74905 -3.7875,2.29193 -5.84375,4.5 -1.51051,1.62203 -2.71536,2.79389 -3.5625,3.375 -0.42357,0.29055 -0.76217,0.40494 -0.9375,0.4375 -0.17533,0.0326 -0.14288,0.027 -0.21875,-0.0312 -0.15173,-0.11642 -0.57551,-0.88437 -0.8125,-2.40625 -0.23699,-1.52188 -0.37981,-3.72418 -0.46875,-6.59375 l -0.28125,-9.28125 a 0.90138204,0.90138204 0 0 0 -0.90625,-0.875 l -3.5,0 -3.5,0 a 0.90138204,0.90138204 0 0 0 -0.0937,0 z m 395,0 a 0.90138204,0.90138204 0 0 0 -0.8125,0.84375 l -0.3125,5.25 c -0.12467,2.16546 -0.31345,3.44543 -0.53125,3.96875 -0.1089,0.26166 -0.15404,0.30617 -0.21875,0.34375 -0.0647,0.0376 -0.22157,0.0937 -0.53125,0.0937 -0.84665,0 -1.5422,0.13077 -2.125,0.40625 -0.5828,0.27548 -1.09457,0.75013 -1.21875,1.40625 -0.12418,0.65612 0.18011,1.31543 0.625,1.78125 0.44489,0.46582 1.05367,0.82461 1.84375,1.125 0.61534,0.23395 0.98401,0.42032 1.1875,0.59375 0.20349,0.17343 0.33018,0.36516 0.46875,0.9375 0.27713,1.14468 0.33211,3.59804 0.34375,8.375 0.0193,7.89114 0.3915,12.88886 1.6875,16.28125 1.296,3.39239 3.69602,5.06489 7.125,5.875 2.29958,0.54329 3.37733,0.82267 4.1875,0.875 0.40508,0.0262 0.82351,-0.0362 1.15625,-0.21875 0.33274,-0.18253 0.48964,-0.39589 0.65625,-0.5625 0.26168,-0.26168 0.3404,-0.58106 0.34375,-0.8125 0.003,-0.23144 -0.0378,-0.41135 -0.0937,-0.59375 -0.11198,-0.3648 -0.29427,-0.72063 -0.53125,-1.125 -0.47396,-0.80874 -1.1729,-1.77239 -2.03125,-2.75 L 765.71875,470.125 766,458.375 c 0.13559,-5.87306 0.23376,-8.95271 0.53125,-10.40625 0.14874,-0.72677 0.30557,-0.97418 0.4375,-1.09375 0.13193,-0.11957 0.40287,-0.2179 0.9375,-0.34375 0.85345,-0.2009 1.5274,-0.46299 2.0625,-0.8125 0.5351,-0.34951 0.98885,-0.84234 1.03125,-1.53125 0.0424,-0.68891 -0.38962,-1.26265 -0.90625,-1.625 -0.51663,-0.36235 -1.16518,-0.61719 -2,-0.8125 -0.9909,-0.23183 -1.26689,-0.35683 -1.5625,-0.90625 -0.29561,-0.54942 -0.53661,-1.7581 -0.75,-3.875 -0.24756,-2.45586 -0.2687,-3.76741 -1.09375,-4.78125 -0.41253,-0.50692 -1.03915,-0.77657 -1.65625,-0.875 -0.6171,-0.0984 -1.28932,-0.0937 -2.15625,-0.0937 l -3.5,0 a 0.90138204,0.90138204 0 0 0 -0.0937,0 z m -28.125,10.84375 c -3.39359,0.21086 -6.59629,1.11007 -8.875,2.5 -1.13936,0.69496 -2.05981,1.51408 -2.625,2.5 -0.56519,0.98592 -0.71282,2.18785 -0.28125,3.3125 0.27677,0.72126 0.69668,1.3149 1.28125,1.6875 0.58457,0.3726 1.3021,0.45487 1.96875,0.28125 1.3333,-0.34723 2.53521,-1.45988 3.8125,-3.1875 1.34246,-1.81577 2.87351,-2.64156 4.34375,-2.6875 1.47024,-0.0459 2.98833,0.68311 4.34375,2.40625 1.05789,1.34491 1.68132,3.62369 1.6875,5.5 0.003,0.93815 -0.14225,1.7489 -0.375,2.28125 -0.23275,0.53235 -0.45233,0.68821 -0.6875,0.71875 -5.33008,0.69207 -8.18533,1.10249 -10.1875,1.71875 -2.00217,0.61626 -3.09765,1.53515 -4.46875,2.90625 -2.71809,2.71809 -3.50344,6.29743 -2.5625,9.4375 0.94094,3.14007 3.57134,5.83662 7.40625,6.96875 1.05117,0.31032 2.72435,0.48797 4.78125,0.625 2.0569,0.13703 4.45727,0.20602 6.6875,0.15625 l 8,-0.15625 a 0.90138204,0.90138204 0 0 0 0.875,-0.90625 l 0,-14.0625 c 0,-8.22358 -0.15721,-12.92141 -1.3125,-16.03125 -0.57765,-1.55492 -1.48036,-2.70622 -2.65625,-3.53125 -1.17589,-0.82503 -2.604,-1.34403 -4.34375,-1.8125 -2.21132,-0.59545 -4.55202,-0.76545 -6.8125,-0.625 z m -624.875,0.15625 a 0.90138204,0.90138204 0 0 0 -0.8125,0.90625 l -0.28125,16.4375 c -0.076,4.53465 -0.0711,8.77052 -0.0312,12 0.0199,1.61474 0.0479,2.99291 0.0937,4 0.0229,0.50355 0.0318,0.92197 0.0625,1.25 0.0307,0.32803 0.0241,0.46804 0.15625,0.8125 0.25315,0.65972 0.83423,0.95298 1.46875,1.15625 0.63452,0.20327 1.44214,0.33017 2.53125,0.4375 2.17821,0.21465 5.46677,0.3125 10.3125,0.3125 15.26491,0 22.31543,-1.20606 26.75,-4.9375 2.66654,-2.24375 4.36618,-4.32638 5.34375,-7.375 0.97757,-3.04862 1.26435,-6.98838 1.3125,-13.09375 l 0.0937,-11 a 0.90138204,0.90138204 0 0 0 -0.90625,-0.90625 l -3.5,0 -3.5,0 a 0.90138204,0.90138204 0 0 0 -0.90625,0.875 l -0.5,14.3125 c -0.23837,6.8371 -0.39518,10.46572 -0.75,12.46875 -0.35482,2.00303 -0.69837,2.28679 -1.8125,3.1875 -1.15257,0.93177 -3.2823,1.56096 -4.34375,1.4375 l -1.8125,-0.1875 -0.46875,-15.21875 -0.5,-16 a 0.90138204,0.90138204 0 0 0 -0.90625,-0.875 l -3.5,0 -3.5,0 a 0.90138204,0.90138204 0 0 0 -0.90625,0.875 l -0.5,14.3125 c -0.23839,6.83782 -0.39532,10.46603 -0.75,12.46875 -0.35468,2.00272 -0.69776,2.2863 -1.8125,3.1875 -1.32509,1.07126 -3.16574,1.60135 -4.84375,1.4375 l -2.3125,-0.21875 -0.46875,-15.1875 -0.5,-16 a 0.90138204,0.90138204 0 0 0 -0.90625,-0.875 l -3.5,0 -3.5,0 a 0.90138204,0.90138204 0 0 0 -0.0937,0 z m 58,0 a 0.90138204,0.90138204 0 0 0 -0.8125,0.90625 l -0.28125,16.4375 c -0.076,4.53465 -0.0711,8.77052 -0.0312,12 0.0199,1.61474 0.0479,2.99291 0.0937,4 0.0229,0.50355 0.0318,0.92197 0.0625,1.25 0.0307,0.32803 0.0241,0.46804 0.15625,0.8125 0.25315,0.65972 0.83423,0.95298 1.46875,1.15625 0.63452,0.20327 1.44214,0.33017 2.53125,0.4375 2.17821,0.21465 5.46677,0.3125 10.3125,0.3125 15.26491,0 22.31547,-1.20606 26.75,-4.9375 2.66654,-2.24375 4.36618,-4.32638 5.34375,-7.375 0.97757,-3.04862 1.26435,-6.98838 1.3125,-13.09375 l 0.0937,-11 a 0.90138204,0.90138204 0 0 0 -0.90625,-0.90625 l -3.5,0 -3.5,0 a 0.90138204,0.90138204 0 0 0 -0.90625,0.875 l -0.5,14.3125 c -0.23837,6.8371 -0.39518,10.46572 -0.75,12.46875 -0.35482,2.00303 -0.69837,2.28679 -1.8125,3.1875 -1.15257,0.93177 -3.2823,1.56096 -4.34375,1.4375 l -1.8125,-0.1875 -0.46875,-15.21875 -0.5,-16 a 0.90138204,0.90138204 0 0 0 -0.90625,-0.875 l -3.5,0 -3.5,0 a 0.90138204,0.90138204 0 0 0 -0.90625,0.875 l -0.5,14.3125 c -0.23839,6.83782 -0.39532,10.46603 -0.75,12.46875 -0.35468,2.00272 -0.69776,2.2863 -1.8125,3.1875 -1.3251,1.07126 -3.16574,1.60135 -4.84375,1.4375 l -2.3125,-0.21875 -0.46875,-15.1875 -0.5,-16 a 0.90138204,0.90138204 0 0 0 -0.90625,-0.875 l -3.5,0 -3.5,0 a 0.90138204,0.90138204 0 0 0 -0.0937,0 z m 58,0 a 0.90138204,0.90138204 0 0 0 -0.8125,0.90625 l -0.28125,16.4375 c -0.076,4.53465 -0.0711,8.77052 -0.0312,12 0.0199,1.61474 0.0479,2.99291 0.0937,4 0.0229,0.50355 0.0318,0.92197 0.0625,1.25 0.0307,0.32803 0.0241,0.46804 0.15625,0.8125 0.25316,0.65971 0.83423,0.95298 1.46875,1.15625 0.63452,0.20327 1.44214,0.33017 2.53125,0.4375 2.17821,0.21465 5.46677,0.3125 10.3125,0.3125 15.26491,0 22.31547,-1.20606 26.75,-4.9375 2.66654,-2.24375 4.36618,-4.32638 5.34375,-7.375 0.97757,-3.04862 1.26435,-6.98838 1.3125,-13.09375 l 0.0937,-11 a 0.90138204,0.90138204 0 0 0 -0.90625,-0.90625 l -3.5,0 -3.5,0 a 0.90138204,0.90138204 0 0 0 -0.90625,0.875 l -0.5,14.3125 c -0.23837,6.8371 -0.39518,10.46572 -0.75,12.46875 -0.35482,2.00303 -0.69837,2.28679 -1.8125,3.1875 -1.15257,0.93177 -3.2823,1.56096 -4.34375,1.4375 l -1.8125,-0.1875 -0.46875,-15.21875 -0.5,-16 a 0.90138204,0.90138204 0 0 0 -0.90625,-0.875 l -3.5,0 -3.5,0 a 0.90138204,0.90138204 0 0 0 -0.90625,0.875 l -0.5,14.3125 c -0.23839,6.83782 -0.39532,10.46603 -0.75,12.46875 -0.35468,2.00272 -0.69776,2.2863 -1.8125,3.1875 -1.32509,1.07126 -3.16574,1.60135 -4.84375,1.4375 l -2.3125,-0.21875 -0.46875,-15.1875 -0.5,-16 a 0.90138204,0.90138204 0 0 0 -0.90625,-0.875 l -3.5,0 -3.5,0 a 0.90138204,0.90138204 0 0 0 -0.0937,0 z m 262.5,0 c -7.62781,0 -12.24228,0.456 -15.03125,3.15625 -1.39449,1.35012 -2.2198,3.21383 -2.6875,5.59375 -0.4677,2.37992 -0.59375,5.32518 -0.59375,9.03125 0,7.54678 0.31388,11.9687 2.3125,14.875 0.99931,1.45315 2.41758,2.44165 4.25,3.09375 1.83242,0.6521 4.08406,1.03249 6.90625,1.34375 2.75994,0.30439 4.32086,0.56042 5.03125,0.875 0.3552,0.15729 0.49428,0.28154 0.59375,0.4375 0.0995,0.15596 0.15778,0.41475 0.21875,0.84375 0.13917,0.97918 -0.63451,2.63905 -1.96875,3.96875 -1.33424,1.3297 -3.13122,2.28125 -4.4375,2.28125 -1.20911,0 -3.11137,-0.98125 -4.8125,-2.84375 -1.67443,-1.83329 -3.32413,-2.89463 -4.875,-2.875 -0.77544,0.01 -1.58256,0.45725 -1.9375,1.1875 -0.35494,0.73025 -0.32094,1.57421 -0.0625,2.5625 0.38906,1.48776 1.17105,2.74196 2.375,3.6875 1.20395,0.94554 2.79091,1.60761 4.84375,2.125 2.32795,0.58673 5.55922,0.60936 8.625,0.28125 3.06578,-0.32811 5.90041,-0.96131 7.59375,-2.0625 0.90677,-0.58968 1.69407,-1.31879 2.28125,-2.375 0.58718,-1.05621 0.9817,-2.3868 1.25,-4.28125 0.53659,-3.78889 0.625,-9.84978 0.625,-20.5 l 0,-19.5 a 0.90138204,0.90138204 0 0 0 -0.90625,-0.90625 l -9.59375,0 z m 21.5,0 a 0.90138204,0.90138204 0 0 0 -0.8125,0.90625 l -0.28125,16.4375 c -0.076,4.53525 -0.0772,8.78992 -0.0312,12.03125 0.023,1.62066 0.0442,2.98482 0.0937,4 0.0248,0.50759 0.0611,0.91741 0.0937,1.25 0.0326,0.33259 0.0272,0.50758 0.15625,0.84375 0.30046,0.78299 1.037,1.23985 1.84375,1.46875 0.80675,0.2289 1.76984,0.294 2.875,0.1875 l 3.25,-0.3125 a 0.90138204,0.90138204 0 0 0 0.8125,-0.875 l 0.5,-13.21875 c 0.16744,-4.42174 0.39827,-7.82551 0.6875,-10.1875 0.14462,-1.181 0.30334,-2.10545 0.46875,-2.75 0.16541,-0.64455 0.38452,-1.00939 0.34375,-0.96875 0.001,-0.001 0.26589,-0.15581 0.65625,-0.3125 0.39036,-0.15669 0.92503,-0.34622 1.53125,-0.5 1.21243,-0.30756 2.7599,-0.55197 4.28125,-0.6875 2.65326,-0.23637 4.07409,-0.34083 5.15625,-0.90625 0.54108,-0.28271 0.96866,-0.77457 1.15625,-1.3125 0.18759,-0.53793 0.21875,-1.08065 0.21875,-1.6875 l 0,-2.5 a 0.90138204,0.90138204 0 0 0 -0.90625,-0.90625 l -11,0 -11,0 a 0.90138204,0.90138204 0 0 0 -0.0937,0 z m 32,0 a 0.90138204,0.90138204 0 0 0 -0.8125,0.875 l -0.3125,9.5 c -0.29504,8.97643 0.0728,15.08925 1.5,19.25 1.42723,4.16075 4.12637,6.33304 7.90625,6.9375 1.71505,0.27425 6.38337,0.40928 10.8125,0.34375 l 8,-0.0937 a 0.90138204,0.90138204 0 0 0 0.90625,-0.90625 l 0,-17.5 0,-17.5 a 0.90138204,0.90138204 0 0 0 -0.90625,-0.90625 l -3.5,0 -3.5,0 a 0.90138204,0.90138204 0 0 0 -0.90625,0.875 l -0.5,16 -0.46875,15.1875 -2.28125,0.21875 c -1.67801,0.16385 -3.51866,-0.36624 -4.84375,-1.4375 -1.11628,-0.90245 -1.48195,-1.18598 -1.84375,-3.1875 -0.3618,-2.00152 -0.51163,-5.63161 -0.75,-12.46875 l -0.5,-14.3125 a 0.90138204,0.90138204 0 0 0 -0.90625,-0.875 l -3.5,0 -3.5,0 a 0.90138204,0.90138204 0 0 0 -0.0937,0 z m 39,0 a 0.90138204,0.90138204 0 0 0 -0.8125,0.90625 l -0.28125,21.96875 c -0.0744,6.04959 -0.0771,11.70236 -0.0312,15.9375 0.023,2.11757 0.0449,3.86634 0.0937,5.15625 0.0244,0.64496 0.0622,1.16055 0.0937,1.5625 0.0316,0.40195 -0.004,0.55201 0.15625,0.96875 0.30315,0.79 1.03761,1.24845 1.84375,1.46875 0.80614,0.2203 1.77914,0.26186 2.875,0.15625 0.79007,-0.0761 1.41588,-0.13771 2,-0.3125 0.58412,-0.17479 1.13489,-0.51326 1.5,-1.03125 0.73022,-1.03598 0.82212,-2.37744 1.0625,-4.78125 l 0.4375,-4.28125 4.5,-0.5625 c 0.0126,-0.002 0.0187,0.002 0.0312,0 3.17543,-0.38812 5.6743,-0.76857 7.65625,-1.375 1.98979,-0.60883 3.50033,-1.49713 4.5625,-2.875 2.12434,-2.75575 2.3125,-6.99913 2.3125,-14.5 0,-4.02009 -0.0848,-7.16372 -0.5,-9.65625 -0.41517,-2.49253 -1.19318,-4.38785 -2.59375,-5.75 -1.40057,-1.36215 -3.34862,-2.09536 -5.90625,-2.5 -2.55763,-0.40464 -5.76723,-0.49661 -9.90625,-0.5 l -9,0 a 0.90138204,0.90138204 0 0 0 -0.0937,0 z m 39,0 a 0.90138204,0.90138204 0 0 0 -0.8125,0.90625 l -0.28125,21.96875 c -0.0744,6.04959 -0.0771,11.70236 -0.0312,15.9375 0.023,2.11757 0.0449,3.86634 0.0937,5.15625 0.0244,0.64496 0.0622,1.16055 0.0937,1.5625 0.0316,0.40195 -0.004,0.55201 0.15625,0.96875 0.30315,0.79 1.03761,1.24845 1.84375,1.46875 0.80614,0.2203 1.77914,0.26186 2.875,0.15625 0.79007,-0.0761 1.41588,-0.13771 2,-0.3125 0.58412,-0.17479 1.13489,-0.51326 1.5,-1.03125 0.73022,-1.03598 0.82212,-2.37744 1.0625,-4.78125 l 0.4375,-4.28125 4.5,-0.5625 c 0.0126,-0.002 0.0187,0.002 0.0312,0 3.17543,-0.38812 5.6743,-0.76857 7.65625,-1.375 1.98979,-0.60883 3.50033,-1.49713 4.5625,-2.875 2.12434,-2.75575 2.3125,-6.99913 2.3125,-14.5 0,-4.02009 -0.0848,-7.16372 -0.5,-9.65625 -0.41517,-2.49253 -1.19318,-4.38785 -2.59375,-5.75 -1.40057,-1.36215 -3.34862,-2.09536 -5.90625,-2.5 -2.55763,-0.40464 -5.76723,-0.49661 -9.90625,-0.5 l -9,0 a 0.90138204,0.90138204 0 0 0 -0.0937,0 z M 410.875,442.25 c -3.85784,-0.001 -7.65558,0.49298 -9.8125,1.90625 -2.44895,1.60461 -3.88464,5.06696 -4.625,9.46875 -0.74036,4.40179 -0.70111,9.81005 0.21875,15.375 0.78835,4.76938 4.58632,9.07633 8.90625,9.8125 2.25382,0.38408 5.39966,0.29741 8.34375,-0.0625 2.94409,-0.35991 5.59455,-0.90046 7.09375,-1.875 1.55954,-1.01375 2.59188,-2.52045 3,-4 0.20406,-0.73978 0.27611,-1.48674 0.0625,-2.1875 -0.21361,-0.70076 -0.78088,-1.33706 -1.53125,-1.625 -0.90363,-0.34675 -1.78176,-0.0119 -2.65625,0.5 -0.87449,0.51186 -1.77125,1.30934 -2.6875,2.3125 -1.66572,1.82373 -3.2583,2.66355 -4.71875,2.75 -1.46045,0.0865 -2.95569,-0.54944 -4.5625,-2.15625 -0.97342,-0.97343 -1.47672,-1.67223 -1.75,-2.5 -0.27328,-0.82777 -0.30857,-1.8906 -0.1875,-3.5625 l 0.25,-3.40625 8.71875,-0.46875 9.5,-0.5 a 0.90138204,0.90138204 0 0 0 0.84375,-0.8125 l 0.3125,-3.1875 c 0.26135,-2.69674 -0.16524,-5.58876 -1.03125,-8.09375 -0.86601,-2.50499 -2.14365,-4.64683 -3.875,-5.78125 -2.15909,-1.41483 -5.95578,-1.90482 -9.8125,-1.90625 z m 256,0 c -3.85784,-0.001 -7.65557,0.49298 -9.8125,1.90625 -2.44895,1.60461 -3.88464,5.06696 -4.625,9.46875 -0.74036,4.40179 -0.70111,9.81005 0.21875,15.375 0.78835,4.76938 4.58633,9.07632 8.90625,9.8125 2.25382,0.38408 5.39966,0.29741 8.34375,-0.0625 2.94409,-0.35991 5.59455,-0.90046 7.09375,-1.875 1.55954,-1.01375 2.59188,-2.52045 3,-4 0.20406,-0.73978 0.27611,-1.48674 0.0625,-2.1875 -0.21361,-0.70076 -0.78088,-1.33706 -1.53125,-1.625 -0.90363,-0.34675 -1.78176,-0.0119 -2.65625,0.5 -0.87449,0.51186 -1.77125,1.30934 -2.6875,2.3125 -1.66572,1.82373 -3.2583,2.66355 -4.71875,2.75 -1.46045,0.0865 -2.95569,-0.54944 -4.5625,-2.15625 -0.97342,-0.97343 -1.47672,-1.67223 -1.75,-2.5 -0.27328,-0.82777 -0.30857,-1.8906 -0.1875,-3.5625 l 0.25,-3.40625 8.71875,-0.46875 9.5,-0.5 a 0.90138204,0.90138204 0 0 0 0.84375,-0.8125 l 0.3125,-3.1875 c 0.26135,-2.69674 -0.16524,-5.58876 -1.03125,-8.09375 -0.86601,-2.50499 -2.14365,-4.64683 -3.875,-5.78125 -2.15909,-1.41483 -5.95578,-1.90482 -9.8125,-1.90625 z m -325.59375,0.96875 a 0.90138204,0.90138204 0 0 0 -0.8125,0.875 l -0.28125,15.9375 a 0.90138204,0.90138204 0 0 0 0,0.0312 c -0.0762,4.39755 -0.0772,8.53642 -0.0312,11.6875 0.023,1.57554 0.0441,2.88468 0.0937,3.875 0.0248,0.49516 0.061,0.92365 0.0937,1.25 0.0327,0.32635 0.0301,0.48361 0.15625,0.8125 0.30031,0.7826 1.03701,1.24 1.84375,1.46875 0.80674,0.22875 1.76928,0.29406 2.875,0.1875 l 3.25,-0.3125 a 0.90138204,0.90138204 0 0 0 0.8125,-0.90625 l 0,-17 0,-17 a 0.90138204,0.90138204 0 0 0 -0.90625,-0.90625 l -3.5,0 -3.5,0 a 0.90138204,0.90138204 0 0 0 -0.0937,0 z m 69.59375,3.3125 c 1.01211,0 2.38493,0.96242 3.40625,2.53125 1.02132,1.56883 1.65017,3.65073 1.5,5.4375 -0.0737,0.87659 -0.12225,1.48809 -0.21875,1.875 -0.0965,0.38691 -0.17105,0.49225 -0.3125,0.59375 -0.2829,0.20301 -1.47765,0.38543 -3.96875,0.53125 -2.9186,0.17084 -4.41235,0.026 -4.875,-0.28125 -0.23132,-0.15365 -0.35342,-0.31731 -0.46875,-0.8125 -0.11533,-0.49519 -0.15625,-1.26302 -0.15625,-2.3125 0,-1.60648 0.76893,-3.60791 1.84375,-5.125 1.07482,-1.51709 2.45573,-2.4375 3.25,-2.4375 z m 178,0 c -0.98852,-0.64299 8.09343,4.56403 1,0.5625 0.59187,0.40316 1.30381,0.96006 1.9375,1.59375 1.10621,1.10621 1.51805,1.6276 1.8125,3.15625 0.29445,1.52865 0.34375,4.096 0.34375,8.78125 0,4.68525 -0.0496,7.23008 -0.34375,8.75 -0.29414,1.51992 -0.70483,2.04858 -1.8125,3.15625 -0.98196,0.98196 -2.72246,1.77635 -4.3125,2.09375 -1.50442,0.30031 -2.77359,0.0818 -3.21875,-0.25 -0.001,-0.006 0.001,-0.0247 0,-0.0312 -0.0319,-0.15524 -0.0891,-0.40764 -0.125,-0.71875 -0.0749,-0.64851 -0.12898,-1.56367 -0.1875,-2.6875 -0.11705,-2.24765 -0.1875,-5.2779 -0.1875,-8.53125 0,-5.63568 0.0434,-8.63807 0.34375,-10.375 0.30031,-1.73693 0.70565,-2.20565 1.84375,-3.34375 0.63615,-0.63615 1.35306,-1.19079 1.9375,-1.59375 0.29222,-0.20148 0.55585,-0.37459 0.75,-0.46875 0.19415,-0.0942 0.34102,-0.0937 0.21875,-0.0937 z m 39,0 c -0.98852,-0.64299 8.09343,4.56403 1,0.5625 0.59187,0.40316 1.30381,0.96006 1.9375,1.59375 1.10621,1.10621 1.51805,1.6276 1.8125,3.15625 0.29445,1.52865 0.34375,4.096 0.34375,8.78125 0,4.68525 -0.0496,7.23008 -0.34375,8.75 -0.29414,1.51992 -0.70483,2.04858 -1.8125,3.15625 -0.98196,0.98196 -2.72246,1.77635 -4.3125,2.09375 -1.50442,0.30031 -2.77359,0.0818 -3.21875,-0.25 -0.001,-0.006 0.001,-0.0247 0,-0.0312 -0.0319,-0.15524 -0.0891,-0.40764 -0.125,-0.71875 -0.0749,-0.64851 -0.12898,-1.56367 -0.1875,-2.6875 -0.11705,-2.24765 -0.1875,-5.2779 -0.1875,-8.53125 0,-5.63568 0.0434,-8.63807 0.34375,-10.375 0.30031,-1.73693 0.70565,-2.20565 1.84375,-3.34375 0.63615,-0.63615 1.35306,-1.19079 1.9375,-1.59375 0.29222,-0.20148 0.55585,-0.37459 0.75,-0.46875 0.19415,-0.0942 0.34102,-0.0937 0.21875,-0.0937 z m 39,0 c 1.01211,0 2.38493,0.96242 3.40625,2.53125 1.02132,1.56883 1.65017,3.65073 1.5,5.4375 -0.0737,0.87659 -0.12225,1.48809 -0.21875,1.875 -0.0965,0.38691 -0.17105,0.49225 -0.3125,0.59375 -0.2829,0.20301 -1.47765,0.38543 -3.96875,0.53125 -2.9186,0.17084 -4.41235,0.026 -4.875,-0.28125 -0.23132,-0.15365 -0.35342,-0.31731 -0.46875,-0.8125 -0.11533,-0.49519 -0.15625,-1.26302 -0.15625,-2.3125 0,-1.60648 0.76893,-3.60791 1.84375,-5.125 1.07482,-1.51709 2.45573,-2.4375 3.25,-2.4375 z m -353.15625,0.1875 c 2.21507,-0.21382 3.27908,0.15407 5.03125,1.90625 1.14766,1.14766 1.57568,1.66515 1.875,3.1875 0.29932,1.52235 0.34375,4.09301 0.34375,8.8125 0,4.68525 -0.0496,7.23008 -0.34375,8.75 -0.29414,1.51992 -0.70483,2.04858 -1.8125,3.15625 -1.14287,1.14287 -3.06469,1.94666 -4.71875,2.15625 -0.82703,0.10479 -1.60857,0.0604 -2.125,-0.0937 -0.51643,-0.15411 -0.72249,-0.35919 -0.8125,-0.59375 0.046,0.11986 -0.005,-0.0745 -0.0312,-0.3125 -0.0258,-0.23796 -0.0716,-0.59073 -0.0937,-1 -0.0444,-0.81853 -0.074,-1.92069 -0.0937,-3.25 -0.0394,-2.65861 -0.0144,-6.15474 0.0625,-9.84375 l 0.25,-12.625 2.46875,-0.25 z m 167.34375,0 2.4375,0.25 0.25,11.4375 c 0.13632,5.952 0.1938,9.04024 -0.0625,10.78125 -0.2563,1.74101 -0.65413,2.12288 -1.84375,3.3125 -1.51707,1.51707 -2.38671,2.06006 -2.9375,2.0625 -0.55079,0.002 -1.43441,-0.52816 -2.9375,-2.03125 -1.10912,-1.10912 -1.54272,-1.63732 -1.84375,-3.15625 -0.30103,-1.51893 -0.34375,-4.06575 -0.34375,-8.75 0,-4.7185 0.0376,-7.25987 0.34375,-8.78125 0.3062,-1.52138 0.75718,-2.06968 1.90625,-3.21875 1.75217,-1.75218 2.81618,-2.12007 5.03125,-1.90625 z M 441.5,457.78125 c -1.57589,0.0277 -2.76999,0.0974 -3.65625,0.4375 -0.57511,0.22069 -1.06371,0.62298 -1.3125,1.15625 -0.24879,0.53327 -0.2378,1.21355 0.0937,1.75 0.21624,0.34989 0.47835,0.4866 0.71875,0.59375 0.2404,0.10715 0.49805,0.18567 0.78125,0.25 0.5664,0.12866 1.26853,0.18786 2.0625,0.25 1.58795,0.12428 3.5606,0.1593 5.53125,0.0937 1.97065,-0.0655 3.91574,-0.20963 5.40625,-0.4375 0.74525,-0.11393 1.36544,-0.263 1.875,-0.4375 0.25478,-0.0872 0.48885,-0.18098 0.71875,-0.34375 0.2299,-0.16277 0.5625,-0.46828 0.5625,-0.96875 0,-0.38865 -0.21298,-0.66484 -0.375,-0.8125 -0.16202,-0.14766 -0.31515,-0.24103 -0.46875,-0.3125 -0.30719,-0.14295 -0.65518,-0.21546 -1.0625,-0.3125 -0.81465,-0.19409 -1.87977,-0.36295 -3.09375,-0.5 -2.42796,-0.27411 -5.42083,-0.44777 -7.78125,-0.40625 z m 290.59375,4.9375 c 0.83317,-0.12617 2.81072,0.92685 2.15625,0.53125 0.20544,0.23392 0.39393,0.97108 0.53125,2.625 0.15552,1.87316 -0.26397,4.48577 -0.65625,5.21875 -1.40732,2.6296 -3.42692,3.27901 -5.125,2.75 -1.69808,-0.52901 -3.21875,-2.34251 -3.21875,-5.4375 0,-3.47403 2.83863,-6.02385 6.3125,-5.6875 z m -448.21875,6.5 c -2.65306,0 -4.02952,-0.0735 -5.15625,0.46875 -0.56336,0.27114 -1.01605,0.79915 -1.21875,1.34375 -0.2027,0.5446 -0.26441,1.11962 -0.34375,1.8125 -0.096,0.83811 -0.10323,1.72995 -0.0625,2.5625 0.0407,0.83255 0.11222,1.55287 0.34375,2.15625 0.33009,0.86018 1.20691,1.44509 2.28125,1.65625 1.07434,0.21116 2.48519,0.20786 4.46875,0.0937 l 5.25,-0.28125 a 0.90138204,0.90138204 0 0 0 0.84375,-0.90625 l 0,-4 0,-4 a 0.90138204,0.90138204 0 0 0 -0.90625,-0.90625 l -5.5,0 z m 414,0 c -2.65306,0 -4.02952,-0.0735 -5.15625,0.46875 -0.56336,0.27114 -1.01605,0.79915 -1.21875,1.34375 -0.2027,0.5446 -0.26441,1.11962 -0.34375,1.8125 -0.096,0.83811 -0.10323,1.72995 -0.0625,2.5625 0.0407,0.83255 0.11222,1.55287 0.34375,2.15625 0.33009,0.86018 1.20691,1.44509 2.28125,1.65625 1.07434,0.21116 2.48519,0.20786 4.46875,0.0937 l 5.25,-0.28125 a 0.90138204,0.90138204 0 0 0 0.84375,-0.90625 l 0,-4 0,-4 a 0.90138204,0.90138204 0 0 0 -0.90625,-0.90625 l -5.5,0 z" />
  </g>
</svg>
