<?xml version="1.0" encoding="UTF-8" standalone="no"?>
<!-- Created with Inkscape (http://www.inkscape.org/) -->

<svg
   xmlns:dc="http://purl.org/dc/elements/1.1/"
   xmlns:cc="http://creativecommons.org/ns#"
   xmlns:rdf="http://www.w3.org/1999/02/22-rdf-syntax-ns#"
   xmlns:svg="http://www.w3.org/2000/svg"
   xmlns="http://www.w3.org/2000/svg"
   xmlns:sodipodi="http://sodipodi.sourceforge.net/DTD/sodipodi-0.dtd"
   xmlns:inkscape="http://www.inkscape.org/namespaces/inkscape"
   width="205.51181"
   height="283.46457"
   id="svg2"
   version="1.1"
   inkscape:version="0.48.5 r10040"
   sodipodi:docname="hangman.pdf">
  <defs
     id="defs4" />
  <sodipodi:namedview
     id="base"
     pagecolor="#3e3a42"
     bordercolor="#666666"
     borderopacity="1.0"
     inkscape:pageopacity="0.49411765"
     inkscape:pageshadow="2"
     inkscape:zoom="1.979899"
     inkscape:cx="144.52204"
     inkscape:cy="125.93018"
     inkscape:document-units="mm"
     inkscape:current-layer="g2991"
     showgrid="false"
     inkscape:window-width="1461"
     inkscape:window-height="841"
     inkscape:window-x="1411"
     inkscape:window-y="-8"
     inkscape:window-maximized="1"
     fit-margin-top="0"
     fit-margin-left="0"
     fit-margin-right="0"
     fit-margin-bottom="0"
     units="mm" />
  <metadata
     id="metadata7">
    <rdf:RDF>
      <cc:Work
         rdf:about="">
        <dc:format>image/svg+xml</dc:format>
        <dc:type
           rdf:resource="http://purl.org/dc/dcmitype/StillImage" />
        <dc:title></dc:title>
      </cc:Work>
    </rdf:RDF>
  </metadata>
  <g
     inkscape:label="Ebene 1"
     inkscape:groupmode="layer"
     id="layer1"
     transform="translate(-149.43582,-349.85555)">
    <g
       id="g2991"
       transform="matrix(0.125,0,0,-0.125,158.83929,882.18361)"
       style="fill:#000000;stroke:none">
      <rect
         style="fill:#fc4c02;fill-opacity:1;fill-rule:nonzero;stroke:none"
         id="rect3847"
         width="1644.0945"
         height="2267.7166"
         x="-1568.8667"
         y="-4258.6245"
         transform="scale(-1,-1)" />
      <path
         d="m 563.73961,4140.9768 c -17.31012,-2.2776 -46.00847,-6.3774 -63.77411,-9.1105 -103.86069,-14.1215 -140.75857,-25.0541 -154.42445,-46.464 -6.3774,-10.0217 6.37742,-21.8655 24.14306,-21.8655 l 13.66588,0 -0.45554,-28.2428 c 0,-15.9435 2.27766,-90.1947 5.01083,-165.3571 4.05268,-296.6711 15.68741,-593.3179 37.80893,-889.1932 l -27.78728,-40.0867 c -31.43152,-45.5529 -55.11905,-84.2728 -55.11905,-91.1057 0,-5.0109 -46.46398,-86.5507 -70.60705,-124.8152 -20.95434,-32.3426 -70.60704,-117.5266 -91.10585,-154.8799 -33.70918,-62.4075 -37.35341,-68.7849 -57.85223,-97.9388 -95.69013,-201.9468 -253.30178,-270.071 46.46399,-184.0339 21.40988,6.3774 42.81976,13.2104 47.83057,15.4881 27.7873,12.2993 102.4941,37.8089 173.10116,59.2188 46.91952,14.1213 172.64561,33.2536 264.207,40.5421 561.44263,16.5207 309.10453,135.6762 253.7298,89.2837 -5.46631,6.3774 -11.8437,11.3883 -14.12138,11.3883 -1.82212,0 -10.47721,10.9328 -18.67674,24.143 -8.655,12.7549 -40.99757,49.1972 -71.97355,80.1732 -30.97607,31.4316 -72.88475,76.529 -92.92803,100.2165 -69.24046,82.9063 -128.9148,152.6022 -163.99055,190.8667 -19.58776,21.4099 -38.26446,45.0974 -41.9087,52.8414 -6.83294,14.5769 -12.29928,-3.6443 -18.6767,478.3058 -1.36659,106.5939 -3.64424,199.9774 -5.01083,207.2659 -1.82212,9.566 0.45554,17.7655 8.19953,28.2427 5.92189,7.7441 20.95436,29.6095 34.1647,48.2861 20.95435,29.6095 94.7501,122.993 115.70446,146.225 4.55528,4.5553 25.96515,31.887 48.2861,60.5854 21.8654,28.6983 56.94118,73.7957 77.43996,99.761 20.49887,25.9651 43.27532,56.03 51.0193,67.4183 59.86736,61.2698 234.71066,33.925 347.56886,44.1863 32.7981,3.1887 50.5637,3.6442 53.7525,0.4555 2.7331,-2.7331 5.4663,-41.4533 6.3775,-88.3726 1.3664,-45.5529 4.0996,-97.0279 6.3772,-113.8823 5.922,-39.631 5.922,-220.9317 0,-245.9859 -2.2776,-10.9327 -7.2884,-44.1864 -10.9326,-74.2513 -4.0997,-30.0649 -11.3883,-76.9844 -16.3991,-104.7718 -10.4771,-59.2187 -10.9327,-78.8065 -2.2776,-90.6503 10.9327,-14.1213 9.1105,-76.0734 -2.2777,-98.3943 -15.4879,-30.5205 -136.2032,-177.6564 -163.9905,-199.9773 -26.4207,-20.9544 -24.1431,-41.4533 4.5553,-41.4533 9.5661,0 35.0757,29.1539 65.5962,75.1624 11.3883,17.7656 30.065,46.0084 41.4531,62.8631 11.3883,16.8544 20.499,31.8869 20.499,33.2535 0,4.5554 14.1213,16.399 16.399,14.1215 1.3665,-1.3665 -0.9111,-12.2993 -5.0108,-24.5986 -7.2885,-20.9544 -13.6659,-43.2753 -34.6202,-119.8043 -5.0108,-18.6767 -12.2994,-66.0517 -15.4882,-104.7717 -3.6441,-38.7199 -9.1105,-82.9063 -12.2992,-97.9388 -8.1995,-37.8089 -7.7439,-92.4724 0.9111,-109.327 7.2884,-14.577 23.6875,-20.0433 33.7092,-11.8437 6.3774,5.4663 9.1105,43.2752 14.5768,202.2549 1.8223,41.9087 4.5554,76.0735 6.3775,76.0735 1.8221,0 5.9218,-6.833 9.5661,-14.5771 3.1887,-8.1994 20.9543,-46.9194 39.631,-85.6395 18.6768,-38.7198 36.8979,-78.8065 40.5422,-88.8281 14.1214,-38.2645 34.6202,-76.0735 45.0973,-82.4508 14.1215,-9.5662 29.154,-4.5553 29.154,10.0216 0,16.399 -15.9436,47.3751 -55.1191,108.8715 -35.9868,56.4857 -62.4075,108.8715 -82.9063,163.9906 -23.232,63.3186 -23.6875,66.0517 -12.7549,107.5049 14.577,55.1191 16.3991,56.4857 27.3318,20.9543 10.0216,-32.7981 45.5529,-105.2272 59.2189,-121.1708 9.566,-10.9326 22.3209,-12.7548 25.9651,-3.1888 3.1887,8.1996 -12.7549,43.2754 -26.8762,60.13 -14.1214,16.3991 -30.976,50.5638 -43.7309,87.0061 -12.2992,35.0757 -12.2992,102.9496 0,105.2273 4.0997,0.4555 9.1106,-3.6443 12.2993,-10.4773 8.655,-19.1321 31.887,-30.5204 56.0302,-27.7872 53.2969,5.4663 142.125,70.1516 164.4461,119.8042 14.5768,30.9759 14.1213,78.3511 -0.4556,104.7719 l -8.1718,17.2961 c -39.4077,36.8227 -60.2583,42.4207 -81.5675,43.2891 -18.6767,0 -32.3425,-3.6442 -53.7524,-13.6659 -30.5204,-15.0324 -80.1732,-56.03 -80.1732,-66.5072 0,-3.6442 -3.1888,-6.3774 -6.833,-6.3774 -7.744,0 -9.1104,10.4772 -2.2776,22.3209 2.2776,4.5554 6.3775,31.8871 9.1106,60.1299 2.7332,28.6983 6.8329,65.1408 9.1106,81.5398 7.744,54.2079 10.0215,282.8837 3.6442,381.2779 -3.1887,50.5639 -4.5553,98.3944 -3.1887,106.1385 4.0998,20.4988 -18.8708,24.5385 -32.5368,29.5493 -216.2625,7.4846 -434.6199,-2.8239 -648.02399,-38.66 z m 164.90164,-37.3534 c 2.73315,0.4556 6.3774,-0.9111 8.19946,-3.1886 1.36665,-2.7333 -12.29925,-20.4989 -30.0649,-40.0867 -36.44234,-40.0866 -91.56139,-110.6936 -135.29221,-173.5566 -35.53129,-51.4749 -86.09505,-106.1384 -89.28375,-96.5721 -3.18871,9.566 -18.22117,215.0097 -18.6767,250.0855 l 0,29.6093 29.6094,5.4664 c 16.39907,3.1887 39.63106,5.922 51.47482,5.922 12.29929,0.4554 38.71999,3.6441 59.21881,7.2883 20.49882,3.6443 56.03011,8.1996 78.35104,10.4773 22.77647,2.2776 43.2753,4.5552 46.46403,4.5552 z m 634.66625,-534.5637 c 1.1603,0.061 2.3379,0.061 3.5303,0 7.9495,-0.4137 16.8546,-3.5302 30.5205,-9.7938 47.375,-21.8654 65.5962,-89.7392 37.8088,-140.303 -16.8545,-30.976 -116.6154,-102.0386 -143.9472,-102.4941 -13.2103,0 -40.542,28.6983 -53.7524,56.9411 -16.8546,34.6203 -18.2212,51.9304 -8.655,84.7285 6.8329,23.6875 12.7547,33.2537 31.887,52.3859 22.7764,22.3209 66.0518,48.7416 92.0169,56.4857 3.7153,1.1529 7.1097,1.8685 10.5911,2.0497 z M 422.06999,2845.4515 c 4.09976,0 5.92187,-18.2211 6.83293,-71.5181 0.45553,-39.631 2.73319,-105.6828 5.01082,-147.1361 2.27766,-41.453 3.18871,-75.6178 2.27766,-76.5288 -0.91107,-0.9111 -11.38823,8.655 -23.68753,20.9543 -36.89788,38.2645 -55.57458,32.3426 -24.14306,-6.8329 22.32094,-28.6984 22.77646,-33.2537 2.73317,-30.065 -11.84374,1.8221 -19.13223,0 -29.6094,-7.2884 -19.58775,-14.1215 -17.76564,-18.6767 6.83294,-18.6767 15.488,0 25.50963,-3.1887 39.63106,-13.2104 29.15387,-20.0433 39.63104,-30.5204 39.63104,-38.7199 0,-9.1107 -1.36659,-9.1107 -21.86541,1.3665 -30.52046,15.488 -95.66115,18.2213 -90.65032,3.6443 0.91105,-2.7332 13.66587,-7.2886 28.69835,-10.0216 43.27528,-7.2886 38.26445,-10.4774 -52.84141,-35.9869 -23.68753,-6.3773 -57.39669,-17.3101 -75.16234,-23.6876 -51.93034,-19.5877 -54.66351,-18.2212 -37.3534,20.0433 6.37741,14.1213 21.86541,52.8415 35.07575,85.1841 25.50964,63.774 69.69599,153.9689 90.65034,185.4003 7.28846,10.9328 25.05411,40.9977 39.17552,67.4183 26.42069,48.2862 46.91952,86.0952 51.01929,92.4727 0.91105,1.8219 4.55529,3.1886 7.744,3.1886 z m 93.26962,-28.129 c 0.30321,0.078 0.68329,0 1.02495,-0.1134 3.64422,-1.3664 20.49882,-20.4987 37.3534,-42.8197 31.43152,-41.4532 141.66961,-188.1335 160.80185,-214.5543 5.92187,-7.7441 13.21034,-16.8546 16.39904,-20.4988 17.76564,-18.6767 40.08662,-49.1972 40.08662,-55.1191 0,-8.1995 -43.27532,-12.7547 -113.88236,-11.8438 -26.4207,0.4556 -63.7741,-0.9109 -82.90633,-2.7331 -22.32094,-2.2777 -35.5313,-1.8222 -35.5313,0.911 0,7.7441 27.33177,42.3643 33.25365,42.3643 3.1887,0 10.02164,-2.7331 14.57694,-6.3775 6.37741,-4.5552 11.38824,-5.0108 16.85458,-2.2775 12.2993,6.3774 10.02165,16.399 -5.46634,25.5095 -7.28849,4.0999 -13.66589,9.5662 -13.66589,11.3883 0,5.4663 -17.31011,4.5553 -20.49881,-0.9109 -1.3666,-2.2778 -4.55529,-4.5554 -7.28848,-4.5554 -5.01083,0 -5.46634,16.8546 0,20.0432 1.82212,1.3665 5.01082,8.1995 6.3774,15.0325 1.36659,7.2885 6.83296,17.7656 11.84378,23.6876 10.47717,11.8437 11.84376,16.8545 5.46635,20.4988 -5.92188,3.6442 -30.52046,-25.5096 -44.18635,-52.8415 -8.19953,-15.9435 -13.21034,-21.4099 -16.39905,-18.221 -3.1887,3.1887 -5.46635,54.6634 -7.28847,140.303 -1.70823,107.1916 -1.47268,131.959 3.07482,133.1284 z"
         id="path2993"
         inkscape:connector-curvature="0"
         sodipodi:nodetypes="cccscccccsccccccccscccccccccccsccsccccccccscssscccccccscsccsccccccccccccccccsscccccccccccsccccsccsscccccccsscssccccscscccccccsccscccccsccsscccscscccccsccc" />
      <path
         id="path2995"
         d="m 1321.3988,3461.3586 c 0,-2.7331 -3.6442,-9.1105 -7.7439,-13.6659 -7.2886,-8.1995 -7.2886,-8.655 1.8219,-10.9326 6.3775,-1.8221 10.4773,-6.8329 11.3883,-14.5769 2.2777,-17.3102 11.8438,-17.7657 13.6659,-0.4556 0.9111,11.8438 4.0998,15.9435 12.7549,18.2211 l 11.3882,2.7332 -11.8438,5.0108 c -6.8329,2.7333 -13.2103,8.1996 -14.5769,11.8438 -3.1887,8.1995 -16.8546,10.0217 -16.8546,1.8221 z"
         inkscape:connector-curvature="0" />
      <path
         id="path2997"
         d="m 1372.8736,3401.2289 c -11.3882,-5.4665 -13.2103,-9.5662 -5.9219,-14.1216 6.3774,-4.0997 5.9219,-21.8653 -0.9109,-28.6983 -4.0999,-4.0997 -3.6444,-5.4663 2.733,-5.4663 4.5553,0 9.1107,4.0997 10.4773,9.1105 1.3665,5.0109 6.3773,9.1107 10.9326,9.1107 10.0217,0 10.9326,6.8329 3.1888,24.143 -6.3775,13.6659 -5.922,13.2104 -20.4989,5.922 z"
         inkscape:connector-curvature="0" />
      <path
         id="path2999"
         d="m 1290.626,3377.0622 c -0.1255,-7.0093 30.007,-41.2599 36.7805,-40.9825 10.7188,-0.4863 9.6374,6.8703 -3.4789,23.2494 -18.8362,23.2154 -32.2127,30.3989 -33.3016,17.7331 z"
         inkscape:connector-curvature="0" />
      <flowRoot
         xml:space="preserve"
         id="flowRoot3992"
         style="font-size:40px;font-style:normal;font-variant:normal;font-weight:normal;font-stretch:normal;text-align:start;line-height:125%;letter-spacing:-1px;word-spacing:0px;writing-mode:lr-tb;text-anchor:start;fill:#000000;fill-opacity:1;stroke:none;font-family:Snap ITC;-inkscape-font-specification:Snap ITC"
         transform="translate(-32,0)"><flowRegion
           id="flowRegion3994"><rect
             id="rect3996"
             width="22.857143"
             height="117.14286"
             x="1385.7142"
             y="575.2193" /></flowRegion><flowPara
           id="flowPara3998" /></flowRoot>      <text
         xml:space="preserve"
         style="font-size:320px;font-style:normal;font-variant:normal;font-weight:normal;font-stretch:normal;text-align:start;line-height:125%;letter-spacing:-8px;word-spacing:0px;writing-mode:lr-tb;text-anchor:start;fill:#000000;fill-opacity:1;stroke:none;font-family:Snap ITC;-inkscape-font-specification:Snap ITC"
         x="7565.8569"
         y="-2181.4285"
         id="text2998"
         sodipodi:linespacing="125%"
         transform="scale(1,-1)"><tspan
           sodipodi:role="line"
           id="tspan3000"
           x="7565.8569"
           y="-2181.4285" /></text>
      <text
         xml:space="preserve"
         style="font-size:142.37139893px;font-style:normal;font-variant:normal;font-weight:normal;font-stretch:normal;text-align:start;line-height:77.99999714%;letter-spacing:-3.5592854px;word-spacing:0px;writing-mode:lr-tb;text-anchor:start;fill:#000000;fill-opacity:1;stroke:none;font-family:Snap ITC;-inkscape-font-specification:Snap ITC"
         x="673.83936"
         y="-2109.2874"
         id="text3006"
         sodipodi:linespacing="77.999997%"
         transform="matrix(0.96346742,0.10161432,0.10446856,-1.0268998,0,0)"
         inkscape:transform-center-x="6.4630432"
         inkscape:transform-center-y="0.17277717"><tspan
           sodipodi:role="line"
           id="tspan3008"
           x="673.83936"
           y="-2109.2874"
           style="font-style:normal;font-variant:normal;font-weight:normal;font-stretch:normal;line-height:77.99999714%;font-family:CARVEDWOOD;-inkscape-font-specification:CARVEDWOOD">Your</tspan><tspan
           sodipodi:role="line"
           x="673.83936"
           y="-1998.2375"
           style="font-style:normal;font-variant:normal;font-weight:normal;font-stretch:normal;line-height:77.99999714%;font-family:CARVEDWOOD;-inkscape-font-specification:CARVEDWOOD"
           id="tspan3018">Local</tspan></text>
      <text
         xml:space="preserve"
         style="font-size:407.31451416000004000px;font-style:normal;font-variant:normal;font-weight:normal;font-stretch:normal;text-align:start;line-height:125%;letter-spacing:-10.18286037000000000px;word-spacing:0px;writing-mode:lr-tb;text-anchor:start;fill:#000000;fill-opacity:1;stroke:#fffaa8;font-family:Snap ITC;-inkscape-font-specification:Snap ITC;stroke-opacity:1;stroke-width:6.66141738;stroke-miterlimit:4;stroke-dasharray:none"
         x="885.36462"
         y="-1929.276"
         id="text3002-1"
         sodipodi:linespacing="125%"
         transform="matrix(0.93855476,0.0681045,0.06629019,-1.0606577,0,0)"><tspan
           sodipodi:role="line"
           id="tspan3004-7"
           x="885.36462"
           y="-1929.276"
           style="font-style:normal;font-variant:normal;font-weight:normal;font-stretch:normal;letter-spacing:40px;font-family:HoganMania;-inkscape-font-specification:HoganMania;stroke:#fffaa8;stroke-opacity:1;stroke-width:6.66141738;stroke-miterlimit:4;stroke-dasharray:none">TrailS</tspan></text>
      <flowRoot
         xml:space="preserve"
         id="flowRoot3031"
         style="font-size:56px;font-style:normal;font-variant:normal;font-weight:normal;font-stretch:normal;text-align:start;line-height:125%;letter-spacing:-1px;word-spacing:0px;writing-mode:lr-tb;text-anchor:start;fill:#000000;fill-opacity:1;stroke:none;font-family:Arial Nova Cond;-inkscape-font-specification:Arial Nova Cond"
         transform="matrix(0.73388265,1.2869266,1.0590764,-0.71957485,-385.03736,2734.7245)"
         inkscape:transform-center-x="16.293649"
         inkscape:transform-center-y="-27.756297"><flowRegion
           id="flowRegion3033"><rect
             id="rect3035"
             width="567.14282"
             height="171.42857"
             x="71.428574"
             y="382.36218"
             style="font-size:56px;font-style:normal;font-variant:normal;font-weight:normal;font-stretch:normal;font-family:Arial Nova Cond;-inkscape-font-specification:Arial Nova Cond"
             ry="0" /></flowRegion><flowPara
           id="flowPara3037"
           style="font-size:56px;font-style:normal;font-variant:normal;font-weight:normal;font-stretch:normal;font-family:Arial Nova Cond;-inkscape-font-specification:Arial Nova Cond">tiroltrailhead.com</flowPara></flowRoot>      <g
         transform="matrix(0.70982909,3.2863183,3.2430734,-0.71001077,-83.701918,2635.3361)"
         style="font-size:40px;font-style:normal;font-variant:normal;font-weight:normal;font-stretch:normal;text-align:start;line-height:125%;letter-spacing:-1px;word-spacing:0px;writing-mode:lr-tb;text-anchor:start;fill:#000000;fill-opacity:1;font-family:Snap ITC;-inkscape-font-specification:Snap ITC"
         id="flowRoot3984">
        <path
           d="m 167.24849,260.86635 c -0.12356,-1.05244 -0.24266,-2.10579 -0.3573,-3.16004 -0.11474,-1.05424 -0.26156,-2.10182 -0.44045,-3.14276 -0.42581,-2.21803 -0.92788,-4.41448 -1.50622,-6.58935 -0.37565,-1.28877 -0.7822,-2.56603 -1.21967,-3.8318 -0.12128,-0.43683 -0.23054,-0.87927 -0.32778,-1.3273 -0.0973,-0.44799 -0.23287,-0.87242 -0.40661,-1.2733 -0.68743,-1.50026 -1.3794,-2.9982 -2.07591,-4.49383 -0.69661,-1.49557 -1.45086,-2.94671 -2.26275,-4.35342 -0.92401,-1.59513 -1.8693,-3.17545 -2.83587,-4.74096 -0.96666,-1.56543 -2.01382,-3.06187 -3.1415,-4.48932 -1.50865,-1.90985 -3.03023,-3.80246 -4.56474,-5.67785 -0.42603,-0.4209 -0.89306,-0.79866 -1.4011,-1.13326 -0.36914,-0.21595 -0.69218,-0.47515 -0.96911,-0.77759 -0.69917,-1.01178 -1.3975,-2.02504 -2.09499,-3.03981 -0.69756,-1.01465 -1.34656,-2.06391 -1.94703,-3.14779 -0.49992,-0.94742 -0.94661,-1.93279 -1.34009,-2.95611 -0.39354,-1.0232 -0.78875,-2.04564 -1.18565,-3.06734 -0.21914,-0.55553 -0.37562,-1.13488 -0.46943,-1.73806 -0.36302,-2.37875 -0.83078,-4.72454 -1.40326,-7.03737 -0.57254,-2.31268 -1.20589,-4.60555 -1.90006,-6.87861 -0.29756,-1.03572 -0.32744,-1.98521 -0.0896,-2.84847 0.23776,-0.86309 0.67083,-1.61566 1.29922,-2.2577 0.3834,-0.37893 0.85674,-0.65877 1.42001,-0.83951 0.56322,-0.18058 1.10603,-0.25162 1.62844,-0.21312 0.60954,0.071 1.21271,0.24851 1.80952,0.53261 0.59675,0.28427 1.18876,0.56945 1.77603,0.85553 1.7086,0.78514 3.2996,1.77495 4.773,2.96942 1.47334,1.19464 2.84582,2.53616 4.11745,4.02457 0.78751,0.9372 1.5153,1.94291 2.18337,3.01712 0.66799,1.07436 1.32882,2.1499 1.9825,3.22664 0.4072,0.6303 0.86061,1.20689 1.36024,1.72977 0.49954,0.52303 2.05173,2.4829 2.56918,3.05978 0.22411,-0.40385 3.14157,3.31838 4.8183,3.08716 0.12884,-2.09895 -5.61221,-9.50718 -6.2652,-11.48531 -0.44655,-1.17587 -0.91683,-2.34112 -1.41082,-3.49573 -0.49407,-1.15446 -0.83835,-2.38774 -1.03282,-3.69985 -0.0736,-0.51418 -0.26488,-1.02753 -0.57384,-1.54006 -0.30904,-0.51237 -0.65727,-0.87596 -1.0447,-1.09079 -0.54118,-0.28638 -1.02417,-0.62891 -1.44899,-1.0276 -0.42489,-0.39852 -0.84092,-0.81918 -1.2481,-1.26197 -0.92388,-0.9977 -1.89676,-1.90729 -2.91866,-2.72877 -1.02198,-0.82129 -2.1529,-1.44288 -3.39278,-1.86477 -0.89426,-0.28382 -1.78417,-0.57998 -2.66972,-0.88847 -1.72939,-0.6359 -3.44092,-0.91909 -5.13462,-0.84959 -1.69373,0.0697 -3.37431,0.54969 -5.04173,1.43999 -2.09879,1.11223 -3.71301,2.82917 -4.84266,5.15081 -0.44797,0.89863 -0.91825,1.7835 -1.41083,2.6546 -0.49261,0.87128 -0.96792,1.75471 -1.42594,2.65029 -0.68208,1.46046 -1.33967,2.94028 -1.97277,4.43947 -0.17353,0.40909 -0.34741,0.82152 -0.52164,1.2373 -0.17424,0.41593 -0.38772,0.78732 -0.64043,1.11418 -0.76923,0.95428 -1.2464,1.9748 -1.43152,3.06158 -0.18514,1.08693 -0.1414,2.23453 0.13122,3.44282 0.34678,1.41509 0.68422,2.83299 1.01231,4.25371 0.45619,2.3286 0.99384,4.62447 1.61295,6.88761 0.6191,2.26325 1.42063,4.45868 2.40459,6.58629 0.45751,0.98299 0.88273,1.98563 1.27565,3.00794 0.39289,1.02241 0.79038,2.04197 1.19248,3.05871 0.0952,0.12997 0.30583,0.3615 0.63197,0.69461 0.32611,0.33319 0.48169,0.6666 0.46674,1.00025 0.66894,0.66756 1.34807,1.33409 2.03739,1.99959 0.68928,0.66558 1.34933,1.36847 1.98015,2.10867 2.55427,3.11808 5.61039,5.34045 9.16837,6.66712 1.18816,0.45614 2.21337,1.16569 3.07562,2.12865 0.86218,0.96302 1.61631,2.06496 2.26239,3.30584 0.34244,0.63866 0.77923,1.17433 1.31038,1.60702 0.85393,0.62816 1.7106,1.25215 2.57001,1.87197 0.85933,0.61988 1.59144,1.41523 2.19633,2.38605 0.36068,0.59881 0.69763,1.22281 1.01087,1.87198 0.31315,0.64921 0.53779,1.3164 0.67391,2.00158 0.12776,0.78141 0.17096,1.5827 0.1296,2.40386 -0.0414,0.82119 -0.0702,1.6394 -0.0864,2.45463 -0.0197,0.72552 -0.31731,1.1652 -0.89278,1.31903 -0.48364,0.16345 -0.9622,0.20664 -1.43567,0.12959 -0.87296,-0.19429 -1.72807,-0.21319 -2.56533,-0.0567 -0.83732,0.15652 -1.67659,0.34534 -2.5178,0.56646 -0.6342,0.13882 -1.28141,0.21471 -1.94164,0.22769 -0.66029,0.013 -1.31722,0.007 -1.97079,-0.0174 -1.07891,-0.0466 -2.15895,-0.12543 -3.24014,-0.23635 -1.08124,-0.11089 -2.153,-0.11659 -3.2153,-0.0171 -1.57149,0.21306 -3.11209,0.25386 -4.6218,0.1224 -1.50975,-0.13145 -2.97727,-0.6076 -4.40256,-1.42847 -0.91233,-0.53347 -1.84706,-0.9072 -2.80419,-1.1212 -0.95715,-0.21398 -1.93615,-0.32023 -2.93702,-0.31878 -0.37335,-0.0122 -0.74805,-0.0414 -1.12408,-0.0877 -0.37606,-0.0462 -0.74679,-0.0491 -1.11221,-0.009 -0.96335,0.11785 -1.8979,0.36745 -2.80364,0.74879 -2.50485,1.12776 -5.08385,2.32966 -7.73702,3.60572 6.34878,3.8563 5.22875,4.05551 6.6334,4.56693 1.979,0.98663 5.45187,-0.13059 7.54034,0.52052 1.10952,0.35622 2.19665,0.76554 3.26137,1.22795 1.0647,0.46241 2.10251,1.01788 3.11342,1.66642 0.43339,0.27806 0.9018,0.49592 1.40524,0.65357 0.50341,0.15764 1.00314,0.24554 1.4992,0.26369 2.82379,0.0648 5.64759,0.0504 8.47142,-0.0432 1.93146,-0.0718 3.86296,-0.15 5.79448,-0.23472 2.20977,-0.0422 4.41263,0.0433 6.60861,0.25649 2.1959,0.21321 4.38833,0.46179 6.5773,0.74574 0.72421,0.0962 1.37988,0.0524 1.96702,-0.13141 0.58704,-0.18383 1.13616,-0.54947 1.64734,-1.0969 0.87959,-0.9251 1.53766,-1.9509 1.97421,-3.07742 0.43644,-1.12652 0.57036,-2.38884 0.40176,-3.78697 z"
           style="font-size:144px;font-family:CARVEDWOOD;-inkscape-font-specification:CARVEDWOOD"
           id="path3067"
           inkscape:connector-curvature="0"
           sodipodi:nodetypes="ccccccccccccccccccccccccccccccccccccccccccccccccccccsccccccccccccccccccccccccccccscccccccccscscccccccccc" />
        <path
           d="m 229.22463,189.62903 c -0.29645,-0.87591 -0.67421,-1.68422 -1.13326,-2.42493 -0.88355,-1.35974 -1.63942,-2.79696 -2.26762,-4.31167 -0.62831,-1.51453 4.35176,0.57725 4.06593,-1.15561 -0.20646,-1.35445 -6.28199,-5.85856 -7.35232,-6.08137 -0.56813,-0.14439 -1.13116,-0.20535 -1.6891,-0.18288 -2.50274,0.31233 -5.00542,0.63392 -7.50806,0.96479 -0.60292,0.0579 -1.20579,0.0531 -1.80862,-0.0144 -0.81333,-0.0793 -1.62644,-0.16889 -2.43933,-0.26873 -0.81297,-0.0997 -1.62752,-0.16512 -2.44365,-0.19638 -1.33178,-0.0344 -2.6628,-0.045 -3.99307,-0.0319 -1.33034,0.0133 -2.66136,0.011 -3.99307,-0.007 -0.42107,-0.0138 -0.82925,0.019 -1.22452,0.0983 -0.39533,0.0795 -0.77435,0.24543 -1.13704,0.49787 -0.8345,0.55376 -1.69705,0.6992 -2.58765,0.43632 -1.19137,-0.27711 -2.38992,-0.33327 -3.59564,-0.16848 -1.02543,0.10973 -2.0522,0.19067 -3.0803,0.24281 -1.02813,0.0523 -2.05238,0.15234 -3.07274,0.30006 -1.0404,0.18228 -2.08006,0.33342 -3.119,0.45341 -1.03895,0.12018 -2.08582,0.12264 -3.1406,0.007 -0.95351,-0.0772 -1.91206,-0.0854 -2.87564,-0.0245 -0.50352,-0.003 -0.83531,0.11004 -0.99539,0.34001 -0.16008,0.23016 -0.20748,0.65778 -0.14219,1.28285 0.0319,0.63248 0.0833,1.25983 0.15408,1.88205 0.28724,2.11578 0.46441,4.23364 0.53153,6.35356 0.0671,2.12009 -0.0448,4.24874 -0.3357,6.38596 -0.11268,0.8493 -0.19116,1.72049 -0.23544,2.61356 -0.0443,0.89322 -0.0954,1.82345 -0.15335,2.79069 3.13015,0.98031 2.61748,2.44881 3.52348,3.61787 0.91072,-1.32505 2.84177,3.05186 3.12057,-0.23601 0.89452,-1.34249 -0.39952,-11.50511 0.60914,-12.68846 0.80164,-0.8913 1.67222,-1.68611 2.61176,-2.38443 0.93951,-0.69816 1.87706,-1.39469 2.81265,-2.08959 0.5388,-0.43659 1.10165,-0.73791 1.68855,-0.90395 0.58686,-0.16588 1.2048,-0.082 1.8538,0.25163 0.12646,0.0607 0.26301,0.0914 0.40967,0.0922 0.14662,9.3e-4 0.29182,0.0101 0.4356,0.0274 1.09388,0.15848 2.18491,0.34568 3.27308,0.56159 0.68999,0.12131 1.14124,0.33929 1.35376,0.65393 0.21246,0.31481 0.3228,0.91906 0.33101,1.81276 0.003,0.67615 -0.0115,1.35006 -0.0432,2.02174 -0.0269,0.40759 -0.025,0.81078 0.006,1.20958 0.29469,2.4334 0.59229,4.87177 0.89279,7.31511 0.047,0.40038 0.0724,0.80357 0.0763,1.20958 0.03,2.2054 0.0218,4.40857 -0.0245,6.60951 -0.0154,1.36133 -0.15747,2.69091 -0.42623,3.98876 -0.44973,1.9659 -0.75201,3.95325 -0.90684,5.96206 -0.15488,2.00891 -0.25915,4.0247 -0.31283,6.04738 -0.13515,4.13255 -0.2105,8.26721 -0.22608,12.404 0.003,1.37321 0.0317,2.74557 0.0855,4.11709 0.0538,1.37158 0.0704,2.74142 0.0499,4.10953 -0.0309,2.01254 0.0453,4.01094 0.2286,5.99518 0.18327,1.98428 0.39987,3.96215 0.64979,5.93362 0.18006,1.41173 0.41892,2.81283 0.71657,4.20331 0.2976,1.39048 0.59297,2.78007 0.88613,4.16875 0.48788,2.30012 0.98084,4.59593 1.47886,6.88743 0.28077,1.43446 0.55437,2.87107 0.82079,4.30986 0.0916,0.39839 0.20493,0.8083 0.33984,1.22975 0.36746,-0.16963 0.63326,-0.40459 0.79739,-0.70488 2.22406,-5.47608 4.3369,8.97248 5.35033,4.50522 0.24788,-2.21757 -3.57763,-17.10145 -3.31096,-19.31903 0.10715,-0.77236 0.23117,-1.54239 0.37205,-2.31009 0.14082,-0.76768 0.26016,-1.53843 0.35802,-2.31225 0.28964,-2.58019 0.55988,-5.16255 0.8107,-7.74709 0.16221,-1.51424 0.32913,-3.02778 0.50076,-4.54063 0.17156,-1.51279 0.31184,-3.02849 0.42083,-4.5471 0.0422,-0.84575 0.0287,-1.69648 -0.0405,-2.55219 -0.0692,-0.85564 -0.10182,-1.70889 -0.0977,-2.55974 0.0835,-2.3781 0.19869,-4.75406 0.3456,-7.12791 0.0904,-2.46785 0.21044,-4.93358 0.36,-7.39719 0.16769,-2.16994 0.32183,-4.33795 0.46241,-6.50404 0.14052,-2.16597 0.19421,-4.34334 0.1611,-6.53211 -0.0135,-1.22431 0.044,-2.45111 0.17244,-3.68041 0.12836,-1.22917 0.24848,-2.45849 0.36035,-3.68797 0.13005,-1.51383 0.26444,-3.02773 0.4032,-4.5417 0.19747,-2.18462 0.39427,-4.37003 0.59039,-6.55624 0.0465,-0.70743 0.36811,-1.08663 0.96478,-1.13759 0.68705,-0.0918 1.37134,-0.14958 2.05288,-0.17333 0.68146,-0.0236 1.37187,0.0327 2.07123,0.16901 0.45286,0.0844 0.91936,0.0778 1.39948,-0.0198 0.48004,-0.0974 0.94762,-0.23001 1.40273,-0.39779 0.63018,-0.28144 1.24313,-0.26703 1.83885,0.0432 1.15674,0.69464 2.32792,1.33447 3.51356,1.91949 1.15598,0.54437 2.26171,1.19854 3.31718,1.96252 1.05536,0.76414 2.07936,1.59939 3.07202,2.50575 0.40097,0.3903 0.77537,0.37447 1.12318,-0.0475 0.7161,-0.75255 0.87785,-1.72838 0.48528,-2.92748 z"
           style="font-size:144px;font-family:CARVEDWOOD;-inkscape-font-specification:CARVEDWOOD"
           id="path3069"
           inkscape:connector-curvature="0"
           sodipodi:nodetypes="cccccccccccccccccccccccccccccccccccccccccccccccccsccccccccccccccccsccccccccccccccccccccc" />
        <path
           d="m 277.04246,264.54407 c -0.57571,-0.75827 -1.03752,-1.58458 -1.38544,-2.47893 -0.34802,-0.89435 -0.52795,-1.91649 -0.53981,-3.06645 -0.009,-1.08369 -0.0912,-2.14544 -0.2466,-3.18523 -0.15551,-1.03978 -0.34355,-2.0612 -0.56411,-3.06428 -0.32357,-1.32429 -0.8098,-2.54347 -1.4587,-3.65755 -0.55228,-0.95709 -1.21467,-1.81628 -1.98717,-2.57757 -0.58376,-0.54573 -1.20445,-1.05729 -1.86209,-1.53466 -0.65772,-0.47733 -1.17653,-1.05872 -1.55643,-1.74418 -0.58942,-1.22468 -1.12137,-2.49402 -1.59586,-3.80803 -0.47458,-1.31395 -0.95397,-2.62505 -1.43818,-3.93331 -1.16354,-1.01635 -2.11393,-2.24369 -2.85116,-3.68203 -0.28803,-0.26156 -0.51843,-0.57355 -0.69119,-0.93598 -0.31276,-0.11948 -0.56859,-0.29228 -0.76751,-0.5184 -2.10769,-2.7376 -4.14623,-5.53932 -6.1156,-8.40517 -0.12873,-0.21907 -0.17373,-0.51847 -0.135,-0.89819 0.0387,-0.37962 0.11247,-0.74742 0.2214,-1.10338 0.38012,-1.40465 0.88411,-2.7856 1.51198,-4.14283 0.76939,-1.47881 1.9251,-3.3533 3.46711,-5.62348 1.54195,-2.27007 2.59901,-3.70897 3.1712,-4.31671 0.23852,-0.43841 0.49147,-0.86896 0.75887,-1.29166 0.56515,-0.887 1.40034,-2.21676 2.50556,-3.98929 1.10514,-1.7724 1.85394,-3.04132 2.24638,-3.80677 1.01802,-2.2199 2.1556,-4.39235 3.41275,-6.51736 0.666,-1.12488 1.29587,-2.25892 1.88961,-3.40214 0.59365,-1.14305 7.22817,2.3965 8.08579,1.13538 -0.90055,-0.46449 -7.60257,-5.65288 -8.28828,-6.0819 -0.68582,-0.42884 -1.45122,-0.87344 -2.29623,-1.33378 -0.76627,-0.375 -2.44098,-1.01312 -5.02415,-1.91437 -2.58325,-0.90107 -5.08622,-1.74431 -7.50892,-2.52973 -2.42276,-0.78523 -3.77652,-1.19168 -4.06128,-1.21934 -1.20874,0.17706 -2.74298,0.18492 -4.60272,0.0236 -1.85979,-0.16115 -3.18631,-0.28757 -3.97957,-0.37925 -1.04511,-0.0802 -2.13008,-0.0679 -3.2549,0.0367 -1.12485,0.10485 -2.54209,0.20925 -4.25172,0.31319 -0.92718,0.0821 -1.80881,0.26445 -2.64489,0.54719 -0.8361,0.28293 -1.67957,0.46389 -2.5304,0.54288 -0.17209,0.0104 -0.34633,0.033 -0.52272,0.0677 -0.69696,0.48369 -1.27295,1.03712 -1.72797,1.6603 -0.005,0.009 -0.0113,0.02 -0.0202,0.0331 0.15923,0.90878 0.33143,1.88029 0.51659,2.91452 0.18515,1.03442 0.30911,1.73377 0.37188,2.09806 0.12914,0.86119 0.18584,1.75614 0.1701,2.68484 -0.0158,0.92887 -0.0451,1.8483 -0.088,2.75829 -0.0271,1.01955 -0.0582,2.02759 -0.0932,3.02413 -0.0351,0.9967 -0.12732,2.02526 -0.27683,3.08571 -0.1309,0.80976 -0.24748,1.61962 -0.34974,2.4296 -0.10228,0.81012 -0.12634,1.58759 -0.0722,2.33242 0.1559,2.11828 0.19328,4.01077 0.11214,5.67748 -0.0812,1.66684 -0.0499,3.56149 0.0938,5.68397 0.10101,1.12546 0.11463,2.26112 0.0409,3.40699 -0.0738,1.14598 -0.22323,2.76404 -0.44837,4.85418 -0.0596,0.69836 -0.0844,1.56216 -0.0745,2.59143 0.01,1.02936 0.0232,1.89209 0.04,2.58819 0.0391,1.62305 0.12107,3.23228 0.24587,4.82771 0.1248,1.59551 0.21756,3.20223 0.27828,4.82016 0.0241,1.20623 0.006,2.42619 -0.0549,3.65989 -0.0607,1.23377 -0.0923,2.45841 -0.0949,3.67394 0.0239,1.08739 0.0819,2.16305 0.17388,3.22699 0.092,1.06399 0.11753,2.14542 0.0767,3.24428 -0.0914,1.64883 -0.22617,3.31014 -0.40445,4.98396 -0.1783,1.67384 -0.35739,3.34704 -0.53729,5.01959 -0.0759,0.56439 -0.17683,1.13625 -0.30276,1.71556 -0.12595,0.57933 -0.18006,1.1321 -0.16236,1.65832 0.30816,4.60674 0.66671,9.19403 1.07567,13.7619 0.0349,0.35105 0.0975,0.70408 0.18774,1.0591 0.0902,0.35501 0.1841,0.75269 0.28169,1.19303 0.71911,-0.63873 5.46492,4.57065 5.77527,3.98071 -1.53874,-12.08248 5.66356,-13.50303 0.199,-23.46681 0.8364,-3.04644 1.40526,-4.97401 1.70659,-5.78269 0.67576,-1.70747 1.30455,-3.42243 1.88638,-5.14488 0.5818,-1.7224 1.15299,-3.44564 1.71358,-5.16971 0.41205,-1.23428 0.68229,-2.45346 0.81071,-3.65755 0.0606,-0.7139 0.0833,-1.41829 0.068,-2.11318 -0.0153,-0.69481 -0.0265,-1.39056 -0.0335,-2.08725 0.1315,-0.0561 0.26589,-0.11228 0.40319,-0.16847 0.70773,0.63851 1.41512,1.276 2.12217,1.91247 0.70701,0.63654 1.21064,1.48894 1.5109,2.55723 0.12358,0.44783 0.33358,0.84893 0.63,1.20328 0.29637,0.35442 0.58556,0.70979 0.86759,1.06613 0.51524,0.63986 1.02116,1.28977 1.51774,1.94974 0.52442,0.79429 1.03285,1.6044 1.52529,2.43033 0.49239,0.82597 1.06202,1.56768 1.7089,2.22512 0.95318,1.07296 2.43612,3.26647 4.44883,6.58054 2.01264,3.3141 3.57478,5.89028 4.68642,7.72856 0.85098,0.27849 1.62101,0.67191 2.31009,1.18025 0.68899,0.50835 1.24518,1.18868 1.66857,2.04099 0.20771,0.43818 0.46612,0.84449 0.77525,1.21894 0.30904,0.37446 0.66214,0.67997 1.05929,0.91655 1.25454,0.7209 2.53036,1.41389 3.82747,2.07898 1.29701,0.66509 2.58723,1.34008 3.87067,2.02497 0.60762,0.35207 1.01081,0.1476 1.20958,-0.61343 0.23419,-0.9487 0.35718,-1.86141 0.369,-2.73812 0.0117,-0.87671 -0.22313,-1.65838 -0.70451,-2.34501 z m -27.06733,-55.65815 c -0.41637,0.53546 -0.78428,1.10875 -1.10375,1.71987 -0.31953,0.61124 -0.6716,1.20145 -1.05622,1.77064 -1.63561,2.23922 -3.28054,4.47119 -4.93482,6.69591 -0.45914,0.703 -0.88009,1.43259 -1.26286,2.18877 -0.17282,-0.0657 -0.34562,-0.13147 -0.5184,-0.19727 0.04,-0.61879 0.20109,-2.21644 0.4833,-4.79296 0.28217,-2.57641 0.58941,-5.22087 0.9217,-7.93339 0.33225,-2.7124 0.59351,-4.58204 0.78378,-5.60894 0.16197,-0.7507 0.31677,-1.47033 0.46438,-2.15889 0.14758,-0.68842 0.26638,-1.50669 0.3564,-2.45481 0.0777,-1.48809 -0.0273,-2.85403 -0.315,-4.09782 -0.28771,-1.24365 -0.40351,-2.56423 -0.34739,-3.96175 0.11086,-1.06311 0.26926,-2.24869 0.4752,-3.55675 1.44502,0.37555 2.83562,0.73338 4.1718,1.0735 1.33613,0.34028 2.63061,0.71683 3.88345,1.12967 0.5379,0.21619 1.02695,0.52375 1.46716,0.92267 0.44016,0.39907 0.93029,0.70303 1.4704,0.91186 0.75758,0.14507 1.90201,0.439 3.43328,0.88181 1.5312,0.44296 2.13059,1.21461 1.79818,2.31495 -0.49485,1.02618 -0.96321,2.05876 -1.40507,3.09776 -0.44193,1.03913 -0.89516,2.07532 -1.35969,3.10856 -0.26187,0.55878 -0.60075,1.07862 -1.01663,1.5595 -2.15353,2.43651 -4.28326,4.89888 -6.3892,7.38711 z"
           style="font-size:144px;font-family:CARVEDWOOD;-inkscape-font-specification:CARVEDWOOD"
           id="path3071"
           inkscape:connector-curvature="0"
           sodipodi:nodetypes="ccccccccccccccccccsccsccscccccccccccccccccccccscccccccscccccccccccccccsccsccccccccccccccccccccccscccccscscccccccccccccc" />
        <path
           d="m 323.81228,261.39482 c -0.43434,-2.10746 -0.64896,-4.31483 -0.64385,-6.62211 0.005,-2.30726 0.0579,-4.64063 0.15858,-7.00011 0.0883,-1.5458 -0.025,-2.98146 -0.33984,-4.30699 -0.49365,-1.66969 -0.99501,-4.45953 -1.50406,-8.36953 -0.50913,-3.90993 -0.25449,-6.91361 0.76391,-9.01104 1.03159,-1.57695 1.55454,-2.86819 1.56886,-3.87374 0.0142,-1.00545 -0.406,-1.88378 -1.2607,-2.63498 -0.70555,-0.64104 -1.2522,-1.42092 -1.63997,-2.33961 -0.38784,-0.9186 -0.56118,-2.00446 -0.52001,-3.2576 0.008,-1.35799 -0.14821,-3.6757 -0.46997,-6.95313 -0.32185,-3.2773 -0.58758,-6.19152 -0.79721,-8.74267 -0.0388,-0.47833 -0.23958,-1.86401 -0.60245,-4.15705 -0.36294,-2.29288 -0.80244,-4.78266 -1.31848,-7.46936 -0.0735,-0.40383 -0.17572,-0.7955 -0.30671,-1.17502 -0.49996,-1.31582 -0.98331,-2.6454 -1.45007,-3.98875 -0.54699,-1.67317 -1.05578,-3.36947 -1.52638,-5.08889 -0.21147,-0.64526 -0.30123,-1.34605 -0.26928,-2.10238 0.0951,-0.72148 4.63158,2.68694 4.58599,2.0684 -0.0457,-0.61835 -4.83803,-5.16771 -5.35345,-5.49123 -1.16066,-0.66566 -2.35729,-1.29109 -3.58988,-1.8763 -0.11307,-0.023 -0.29162,0.0261 -0.53567,0.14724 -0.24411,0.12136 -0.39386,0.22444 -0.44928,0.30924 -0.77689,2.02686 -1.48248,4.04427 -2.11677,6.05224 -0.29642,1.00846 -0.97513,2.85805 -2.03613,5.54878 -1.06105,2.6909 -2.16456,4.96781 -3.31052,6.83074 -0.64957,1.06069 -1.28797,2.43467 -1.91518,4.12195 -0.62725,1.68743 -1.1346,3.08301 -1.52206,4.18674 -0.41221,1.14848 -0.7614,2.29141 -1.04759,3.42877 -0.28621,1.13751 -0.585,2.27791 -0.89638,3.42122 -0.73561,2.46795 -1.44744,4.93368 -2.13549,7.39719 -0.80497,3.12649 -1.58112,6.24789 -2.32845,9.3642 -0.12424,0.55138 -0.3391,1.03017 -0.64458,1.43638 -0.30549,0.4063 -0.77703,0.73245 -1.4146,0.97846 -1.07807,0.42676 -2.15326,0.99315 -3.22555,1.69918 -1.29119,0.84507 -2.56797,1.74266 -3.83036,2.69277 -0.13938,0.10272 -0.27822,0.2253 -0.41651,0.36773 -0.1383,0.14251 -0.23466,0.28056 -0.28907,0.41417 -0.42192,1.06875 -0.77904,2.12522 -1.07135,3.1694 -0.0497,0.20494 -0.0568,0.40786 -0.0213,0.60876 0.0356,0.20097 0.10986,0.34988 0.22284,0.44675 0.59219,0.48504 1.1923,0.96185 1.80034,1.43044 0.60803,0.46866 1.25638,0.88319 1.94506,1.2436 0.83065,0.43047 1.3959,1.04198 1.69575,1.83454 0.29985,0.79262 0.37443,1.75837 0.22374,2.89724 -0.17496,1.3181 -0.34776,2.63328 -0.51839,3.94556 -0.4452,3.73437 -1.41815,7.58103 -2.91884,11.54001 -0.80615,1.9903 -1.53094,3.97123 -2.17438,5.9428 -0.35564,1.1819 -0.67574,2.3601 -0.96029,3.53461 -0.28455,1.17452 -0.58988,2.35164 -0.916,3.53138 -0.42174,1.44148 -0.86093,2.88566 -1.31759,4.33254 -0.45665,1.44688 -0.88,2.88746 -1.27006,4.32175 -0.50735,1.94924 -0.87071,3.85818 -1.09007,5.7268 -0.0745,0.69031 -0.10086,1.36452 -0.0792,2.02264 0.0217,0.65808 0.037,1.31825 0.0461,1.98051 0.13993,-0.007 0.27768,-0.0135 0.41328,-0.0202 0.54719,-1.05672 4.59626,5.63009 5.11465,4.57195 0.51291,-1.04376 3.14526,-12.44458 5.05325,-16.10728 1.908,-3.66271 -1.16937,-6.03118 0.64423,-9.71213 1.81358,-3.68094 2.83524,-6.07065 3.06497,-7.16913 0.15527,-1.08358 0.39191,-2.1938 0.70991,-3.33067 0.46567,-1.55898 1.00381,-3.13138 1.6144,-4.7172 0.61057,-1.58579 0.93163,-3.13191 0.96317,-4.63836 0.003,-0.84324 0.0944,-1.72817 0.27485,-2.6548 0.18044,-0.92657 0.34658,-1.84641 0.49842,-2.75954 0.0632,-0.46733 0.21859,-0.85415 0.46601,-1.16045 0.24739,-0.30623 0.63925,-0.60917 1.17557,-0.9088 1.48436,-0.79892 2.77434,-1.14032 3.86994,-1.02419 1.09557,0.11619 2.16236,0.31695 3.20037,0.60228 1.38595,0.32594 2.81297,0.57698 4.28106,0.75311 0.56157,0.0295 1.06124,0.12173 1.49902,0.27665 0.43772,0.15498 0.7574,0.49812 0.95903,1.02941 1.52227,4.21941 3.05681,8.43375 4.60362,12.64304 0.92659,2.62222 1.77474,5.2977 2.54444,8.02645 0.377,1.24175 0.57188,2.5843 0.58463,4.02763 -0.01,0.90786 0.16764,1.54265 0.53298,1.90438 0.36527,0.36174 0.922,0.77477 1.67019,1.2391 0.95752,0.57297 3.89935,3.97873 4.31714,3.85204 -3.96252,-6.11291 4.31754,1.48345 0.7804,-1.99878 0.64582,-1.33576 0.40782,-2.9864 0.43719,-4.25245 0.0248,-1.05979 -0.0552,-2.05523 -0.23994,-2.98634 z m -12.68624,-42.62057 c -0.0592,0.76207 -0.22093,1.27812 -0.4851,1.54816 -0.26424,0.27014 -0.73805,0.38767 -1.42144,0.35262 -1.76595,-0.023 -3.50335,-0.0982 -5.21219,-0.22554 -1.70889,-0.12724 -3.31705,-0.45334 -4.82448,-0.97829 -0.78472,-0.29296 0.53508,1.7957 0.34169,1.07335 0.2344,-3.02773 2.70032,-4.77844 0.65629,-6.09973 -0.53056,-0.32793 3.02238,-1.3597 0.38998,-2.40949 1.19108,-3.22958 1.05831,-6.82156 2.22207,-10.04694 0.75357,-2.25591 1.49276,-4.51187 2.21757,-6.76791 0.42453,-1.17856 1.50304,-1.28471 1.98379,-2.46773 0.15501,-0.0436 1.06198,-1.31615 1.21128,-1.36563 0.15382,0.62743 -0.64644,2.70353 0.36061,5.92565 1.007,3.22227 1.51759,5.73599 1.53178,7.54118 -0.0531,0.55974 -0.0464,1.08773 0.0202,1.58398 0.3045,1.98573 0.59471,3.97842 0.87065,5.97808 0.27588,1.99977 0.32165,4.11918 0.13733,6.35824 z"
           style="font-size:144px;font-family:CARVEDWOOD;-inkscape-font-specification:CARVEDWOOD"
           id="path3073"
           inkscape:connector-curvature="0"
           sodipodi:nodetypes="ccccccccccccccccccccccccscscccccccccccccccccccccscsccccccssccscsccccccccccccccccccacccccccccccccccca" />
        <path
           d="m 395.83408,160.44925 c -0.19986,0.37921 -0.38274,0.7413 -0.54863,1.08628 -0.16602,0.34519 -0.3561,0.65797 -0.57023,0.93833 -2.58891,3.24846 -5.18712,6.49177 -7.79462,9.72995 -0.51485,0.66417 -1.02029,1.33472 -1.5163,2.01166 -0.17574,0.27153 -0.37734,0.50193 -0.6048,0.69119 -1.30897,0.9185 -2.51249,1.96128 -3.61057,3.12836 -1.09819,1.16725 -2.1732,2.36124 -3.22502,3.58195 -0.62695,0.69464 -1.17205,1.44211 -1.63528,2.24241 -0.46333,0.80048 -0.79855,1.68978 -1.00565,2.66793 -0.3142,1.41942 -0.75579,2.797 -1.32478,4.13274 -1.10307,2.86636 -2.31266,5.67288 -3.62876,8.41957 -0.86133,1.70075 -1.76024,3.37892 -2.69672,5.03454 -0.93657,1.65574 -1.85347,3.32312 -2.75073,5.00213 -0.67106,1.35988 -1.27297,2.76002 -1.80573,4.20043 -0.53667,1.48492 -1.0949,2.96041 -1.6747,4.4265 -0.47709,1.09294 -0.97196,2.17665 -1.48462,3.25112 -0.51273,1.07457 -1.00184,2.16188 -1.46734,3.26192 -0.69578,1.80721 -1.35337,3.63599 -1.97278,5.48633 -0.0809,0.13971 -0.17835,0.25347 -0.29232,0.34127 -0.15386,-0.0223 -0.25946,-0.0511 -0.31679,-0.0864 -0.17162,-0.1382 -0.32378,-0.29372 -0.45647,-0.46655 -0.59699,-0.8261 -1.08173,-1.70029 -1.4542,-2.62257 -0.37254,-0.92221 -0.59339,-1.91663 -0.66257,-2.98328 -0.0425,-0.85219 -0.15516,-1.6875 -0.33786,-2.50593 -0.18275,-0.81834 -0.49589,-1.59101 -0.93941,-2.31801 -0.70618,-1.10747 -1.36528,-2.24218 -1.97728,-3.40412 -0.61204,-1.16183 -1.11309,-2.38869 -1.50315,-3.68059 -0.2417,-0.71849 -0.5345,-1.42264 -0.87839,-2.11245 -0.4816,-1.06286 -0.9739,-2.12262 -1.47688,-3.1793 -0.50303,-1.05656 -0.9352,-2.139 -1.29653,-3.24734 -0.32632,-1.1305 -0.67342,-2.23929 -1.04129,-3.32636 -0.36789,-1.08694 -0.91551,-2.10788 -1.64283,-3.06284 -1.36206,-1.77824 -1.11965,-2.8356 -2.00325,-4.90522 -0.88362,-2.06948 -0.37985,-6.84459 -1.20189,-8.94698 -0.90263,-2.24509 -4.50765,-2.67989 -5.37139,-4.94963 -0.0864,0.033 -0.17281,0.0666 -0.2592,0.1008 -0.008,0.83537 -0.0734,1.6747 -0.1953,2.51798 -0.12189,0.84347 0.0776,1.66012 0.59849,2.44995 -0.29424,0.52994 -0.35916,1.04089 -0.19476,1.53286 0.16439,0.49213 0.30611,0.98293 0.42516,1.47238 0.24635,1.62216 0.53015,3.23434 0.85139,4.83654 0.32123,1.60235 0.73966,3.18213 1.25531,4.73934 0.19867,0.61755 0.34525,1.25528 0.43973,1.91319 0.0945,0.65805 0.18452,1.3163 0.27018,1.97476 0.13937,1.08788 0.3286,2.15761 0.56771,3.20918 0.23908,1.0517 0.61624,2.06851 1.13146,3.05042 1.11934,2.12211 1.80093,4.40976 2.04478,6.86295 0.3253,2.7971 0.81045,5.55418 1.45546,8.27125 0.64497,2.71718 1.34252,5.42098 2.09265,8.11142 0.87765,3.11351 1.16565,6.27235 0.86399,9.47652 -0.21485,1.74442 -0.22691,3.43237 -0.0362,5.06387 0.19069,1.63156 0.70674,3.23779 1.54816,4.81873 1.66871,3.10818 3.16418,6.30427 4.48644,9.58829 1.32221,3.28404 2.58045,6.60001 3.77473,9.94793 0.34791,0.94072 0.72698,1.88703 1.13723,2.83892 0.41018,0.95189 0.8375,1.95435 1.28194,3.0074 0.42542,-0.78222 4.80955,5.02043 5.11228,4.31635 0.30267,-0.7041 -1.61375,-8.05443 -1.50218,-8.79776 0.17199,-1.38476 -1.49618,-2.67077 -1.21145,-4.0197 0.28466,-1.34893 0.75997,-2.63981 1.42594,-3.87265 0.13701,-0.32975 0.2474,-0.67535 0.3312,-1.03679 1.03291,-2.99083 2.05866,-5.98599 3.07724,-8.98548 1.12747,-3.29466 2.21897,-6.60373 3.27452,-9.92723 0.30988,-1.01825 0.5929,-2.04526 0.84905,-3.08103 0.25606,-1.0357 0.53944,-2.06163 0.85013,-3.07778 0.6162,-1.92105 1.25027,-3.83485 1.90221,-5.74139 0.65185,-1.90646 1.26576,-3.82637 1.84173,-5.75974 0.88377,-3.10122 1.8449,-6.16892 2.88338,-9.2031 1.03839,-3.03408 2.27708,-5.98549 3.71606,-8.85426 0.3108,-0.60849 0.56028,-1.26158 0.74843,-1.95929 0.18805,-0.69757 0.28128,-1.38702 0.27972,-2.06835 -0.004,-1.09944 0.13578,-2.13497 0.42083,-3.10658 0.28495,-0.97146 0.66786,-1.92167 1.14875,-2.85062 0.99704,-1.92161 1.98433,-3.84896 2.96186,-5.78206 0.97742,-1.93295 1.80739,-3.9449 2.48991,-6.03587 0.34365,-1.05602 0.76394,-2.07216 1.26088,-3.04844 0.49683,-0.9761 2.12148,0.21109 2.62148,-0.76446 0.89903,-1.72495 2.02914,-0.96537 2.84009,-2.74199 0.81082,-1.77642 1.87771,-0.1647 2.17927,-2.16631 3.60566,-3.59142 3.91652,-6.07965 4.76107,-10.04824 -0.0181,-0.38145 -5.27065,-4.64512 -5.63201,-5.00897 z"
           style="font-size:144px;font-family:CARVEDWOOD;-inkscape-font-specification:CARVEDWOOD"
           id="path3075"
           inkscape:connector-curvature="0"
           sodipodi:nodetypes="ccccccccscccsccccccccccccccccccccccccccccccsccccccccccccccccccccccccccccccccccccccc" />
        <path
           d="m 441.62478,261.39482 c -0.43434,-2.10746 -0.64896,-4.31483 -0.64385,-6.62211 0.005,-2.30726 0.0579,-4.64063 0.15858,-7.00011 0.0883,-1.5458 -0.025,-2.98146 -0.33984,-4.30699 -0.49365,-1.66969 -0.99501,-4.45953 -1.50406,-8.36953 -0.50913,-3.90993 -0.25449,-6.91361 0.76391,-9.01104 1.03159,-1.57695 1.55454,-2.86819 1.56886,-3.87374 0.0142,-1.00545 -0.406,-1.88378 -1.2607,-2.63498 -0.70555,-0.64104 -1.2522,-1.42092 -1.63997,-2.33961 -0.38784,-0.9186 -0.56118,-2.00446 -0.52001,-3.2576 0.008,-1.35799 -0.14821,-3.6757 -0.46997,-6.95313 -0.32185,-3.2773 -0.58758,-6.19152 -0.79721,-8.74267 -0.0388,-0.47833 -0.23958,-1.86401 -0.60245,-4.15705 -0.36294,-2.29288 -0.80244,-4.78266 -1.31848,-7.46936 -0.0735,-0.40383 -0.17572,-0.7955 -0.30671,-1.17502 -0.49996,-1.31582 -0.98331,-2.6454 -1.45007,-3.98875 -0.54699,-1.67317 -1.05578,-3.36947 -1.52638,-5.08889 -0.21147,-0.64526 -0.30123,-1.34605 -0.26928,-2.10238 0.0951,-0.72148 4.04697,1.98886 4.00138,1.37032 -0.0457,-0.61835 -4.25342,-4.46963 -4.76884,-4.79315 -1.16066,-0.66566 -2.35729,-1.29109 -3.58988,-1.8763 -0.11307,-0.023 -0.29162,0.0261 -0.53567,0.14724 -0.24411,0.12136 -0.39386,0.22444 -0.44928,0.30924 -0.77689,2.02686 -1.48248,4.04427 -2.11677,6.05224 -0.29642,1.00846 -0.97513,2.85805 -2.03613,5.54878 -1.06105,2.6909 -2.16456,4.96781 -3.31052,6.83074 -0.64957,1.06069 -1.28797,2.43467 -1.91518,4.12195 -0.62725,1.68743 -1.1346,3.08301 -1.52206,4.18674 -0.41221,1.14848 -0.7614,2.29141 -1.04759,3.42877 -0.28621,1.13751 -0.585,2.27791 -0.89638,3.42122 -0.73561,2.46795 -1.44744,4.93368 -2.13549,7.39719 -0.80497,3.12649 -1.58112,6.24789 -2.32845,9.3642 -0.12424,0.55138 -0.3391,1.03017 -0.64458,1.43638 -0.30549,0.4063 -0.77703,0.73245 -1.4146,0.97846 -1.07807,0.42676 -2.15326,0.99315 -3.22555,1.69918 -1.29119,0.84507 -2.56797,1.74266 -3.83036,2.69277 -0.13938,0.10272 -0.27822,0.2253 -0.41651,0.36773 -0.1383,0.14251 -0.23466,0.28056 -0.28907,0.41417 -0.42192,1.06875 -0.77904,2.12522 -1.07135,3.1694 -0.0497,0.20494 -0.0568,0.40786 -0.0213,0.60876 0.0356,0.20097 0.10986,0.34988 0.22284,0.44675 0.59219,0.48504 1.1923,0.96185 1.80034,1.43044 0.60803,0.46866 1.25638,0.88319 1.94506,1.2436 0.83065,0.43047 1.3959,1.04198 1.69575,1.83454 0.29985,0.79262 0.37443,1.75837 0.22374,2.89724 -0.17496,1.3181 -0.34776,2.63328 -0.51839,3.94556 -0.4452,3.73437 -1.41815,7.58103 -2.91884,11.54001 -0.80615,1.9903 -1.53094,3.97123 -2.17438,5.9428 -0.35564,1.1819 -0.67574,2.3601 -0.96029,3.53461 -0.28455,1.17452 -0.58988,2.35164 -0.916,3.53138 -0.42174,1.44148 -0.86093,2.88566 -1.31759,4.33254 -0.45665,1.44688 -0.88,2.88746 -1.27006,4.32175 -0.50735,1.94924 -0.87071,3.85818 -1.09007,5.7268 -0.0745,0.69031 -0.10086,1.36452 -0.0792,2.02264 0.0217,0.65808 0.037,1.31825 0.0461,1.98051 0.13993,-0.007 2.2722,-0.35912 5.48216,4.50527 6.4626,-11.83926 -0.20765,-4.69401 3.92296,-12.8833 1.908,-3.66271 0.007,-9.20868 1.82029,-12.88963 1.81358,-3.68094 2.83524,-6.07065 3.06497,-7.16913 0.15527,-1.08358 0.39191,-2.1938 0.70991,-3.33067 0.46567,-1.55898 1.00381,-3.13138 1.6144,-4.7172 0.61057,-1.58579 0.93163,-3.13191 0.96317,-4.63836 0.003,-0.84324 0.0944,-1.72817 0.27485,-2.6548 0.18044,-0.92657 0.34658,-1.84641 0.49842,-2.75954 0.0632,-0.46733 0.21859,-0.85415 0.46601,-1.16045 0.24739,-0.30623 0.63925,-0.60917 1.17557,-0.9088 1.48436,-0.79892 2.77434,-1.14032 3.86994,-1.02419 1.09557,0.11619 2.16236,0.31695 3.20037,0.60228 1.38595,0.32594 2.81297,0.57698 4.28106,0.75311 0.56157,0.0295 1.06124,0.12173 1.49902,0.27665 0.43772,0.15498 0.7574,0.49812 0.95903,1.02941 1.52227,4.21941 3.05681,8.43375 4.60362,12.64304 0.92659,2.62222 1.77474,5.2977 2.54444,8.02645 0.377,1.24175 0.57188,2.5843 0.58463,4.02763 -0.01,0.90786 0.16764,1.54265 0.53298,1.90438 0.36527,0.36174 0.922,0.77477 1.67019,1.2391 0.95752,0.57297 3.99736,3.71394 4.41515,3.58725 -0.8599,-2.63101 -2.01118,-2.22672 0.68239,-1.73399 0.24043,-0.55271 0.37003,-0.91607 0.38879,-1.09007 0.007,-1.04845 0.0235,-2.10258 0.0484,-3.16238 0.0248,-1.05979 -0.0552,-2.05523 -0.23994,-2.98634 z m -12.68624,-42.62057 c -0.0592,0.76207 -0.22093,1.27812 -0.4851,1.54816 -0.26424,0.27014 -0.73805,0.38767 -1.42144,0.35262 -1.76595,-0.023 -3.50335,-0.0982 -5.21219,-0.22554 -1.70889,-0.12724 -3.31705,-0.45334 -4.82448,-0.97829 -0.78472,-0.29296 0.98554,-1.04822 0.79215,-1.77057 -0.19343,-0.72225 0.0467,-1.62994 0.46949,-2.69554 -1.35574,-0.64386 1.44435,-9.86817 2.34839,-13.0167 2.88942,-9.76633 2.45696,-7.646 5.40922,-8.31444 0.15382,0.62743 -0.64302,0.4167 0.36403,3.63882 1.007,3.22227 1.51759,5.73599 1.53178,7.54118 -0.0531,0.55974 -0.0464,1.08773 0.0202,1.58398 0.3045,1.98573 0.59471,3.97842 0.87065,5.97808 0.27588,1.99977 0.32165,4.11918 0.13733,6.35824 z"
           style="font-size:144px;font-family:CARVEDWOOD;-inkscape-font-specification:CARVEDWOOD"
           id="path3077"
           inkscape:connector-curvature="0"
           sodipodi:nodetypes="ccccccccccccccccccccccccscscccccccccccccccccccccscsccccccsccscscccccccccccccccccccccccccccccccccc" />
      </g>
      <flowRoot
         xml:space="preserve"
         id="flowRoot3984-4"
         style="font-size:40px;font-style:normal;font-variant:normal;font-weight:normal;font-stretch:normal;text-align:start;line-height:125%;letter-spacing:-1px;word-spacing:0px;writing-mode:lr-tb;text-anchor:start;fill:#f9f9f9;fill-opacity:1;stroke:none;font-family:Snap ITC;-inkscape-font-specification:Snap ITC"
         transform="matrix(0.70982907,3.2863183,3.2430734,-0.71001075,-64.515539,2649.9683)"><flowRegion
           id="flowRegion3986-0"><rect
             id="rect3988-9"
             width="938.84412"
             height="525.83112"
             x="114.28571"
             y="129.50504"
             style="fill:#f9f9f9;fill-opacity:1" /></flowRegion><flowPara
           id="flowPara3990-4"
           style="font-size:144px;font-style:normal;font-variant:normal;font-weight:normal;font-stretch:normal;fill:#f9f9f9;fill-opacity:1;font-family:CARVEDWOOD;-inkscape-font-specification:CARVEDWOOD">strava </flowPara></flowRoot>      <path
         style="fill:#000000;fill-opacity:1;stroke:#000000;stroke-width:9.05596638;stroke-linecap:round;stroke-linejoin:round;stroke-miterlimit:4;stroke-opacity:1;stroke-dasharray:none"
         d="m 1299.9334,3368.9061 c 4.7638,-20.0959 2.7197,-13.6757 5.3295,-44.0511 8.7741,-42.2377 17.5777,-53.3659 18.8928,-15.6884 0.9699,12.0024 1.1841,19.4313 4.4326,32.2946"
         id="path3019"
         inkscape:connector-curvature="0"
         sodipodi:nodetypes="cccc" />
      <text
         xml:space="preserve"
         style="font-size:255.83381653px;font-style:normal;font-variant:normal;font-weight:normal;font-stretch:normal;text-align:start;line-height:125%;letter-spacing:160.79333496px;word-spacing:0px;writing-mode:lr-tb;text-anchor:start;fill:#000000;fill-opacity:1;stroke:#fffaa8;stroke-width:4.18402958;stroke-miterlimit:4;stroke-opacity:1;stroke-dasharray:none;font-family:Snap ITC;-inkscape-font-specification:Snap ITC"
         x="613.43097"
         y="-1890.2719"
         id="text3002-1-1"
         sodipodi:linespacing="125%"
         transform="matrix(0.90775658,0.2617322,0.28806516,-1.0185595,0,0)"><tspan
           sodipodi:role="line"
           id="tspan3004-7-7"
           x="613.43097"
           y="-1890.2719"
           style="font-style:normal;font-variant:normal;font-weight:normal;font-stretch:normal;letter-spacing:29.39502907px;stroke:#fffaa8;stroke-width:4.18402958;stroke-miterlimit:4;stroke-opacity:1;stroke-dasharray:none;font-family:HoganMania;-inkscape-font-specification:HoganMania">KILLS</tspan></text>
    </g>
    <path
       style="font-size:medium;font-style:normal;font-variant:normal;font-weight:normal;font-stretch:normal;text-indent:0;text-align:start;text-decoration:none;line-height:normal;letter-spacing:normal;word-spacing:normal;text-transform:none;direction:ltr;block-progression:tb;writing-mode:lr-tb;text-anchor:start;baseline-shift:baseline;color:#000000;fill:#000000;fill-opacity:1;stroke:none;stroke-width:1.41214085;marker:none;visibility:visible;display:inline;overflow:visible;enable-background:accumulate;font-family:Sans;-inkscape-font-specification:Sans"
       d="m 338.09375,437.78125 c -0.63498,0.0774 -0.73561,1.18435 -0.125,1.375 l 4.48128,1.40117 c 3.95919,2.26805 5.15413,5.60947 5.49159,7.33027 0.54867,2.916 0.41804,5.41316 0.41804,5.41316 0.0163,0.37636 -0.23604,3.60232 0.14032,3.58595 0.37636,-0.0164 0.7039,-1.54169 0.6875,-1.91805 0,0 -0.003,-4.49336 -0.25,-7.49112 -0.85855,-3.58784 -2.6509,-5.31981 -3.54775,-6.61691 -1.06901,-1.03276 -1.73792,-1.36864 -2.69353,-1.86865 l -4.3212,-1.17957 c -0.0904,-0.0292 -0.18668,-0.0399 -0.28125,-0.0312 z"
       id="path3018"
       inkscape:connector-curvature="0"
       sodipodi:nodetypes="cccccsccccccc" />
    <path
       style="font-size:medium;font-style:normal;font-variant:normal;font-weight:normal;font-stretch:normal;text-indent:0;text-align:start;text-decoration:none;line-height:normal;letter-spacing:normal;word-spacing:normal;text-transform:none;direction:ltr;block-progression:tb;writing-mode:lr-tb;text-anchor:start;baseline-shift:baseline;color:#000000;fill:#000000;fill-opacity:1;stroke:none;stroke-width:1.41214085;marker:none;visibility:visible;display:inline;overflow:visible;enable-background:accumulate;font-family:Sans;-inkscape-font-specification:Sans"
       d="m 341.0625,442.4375 c -0.523,0.11304 -0.70544,0.92385 -0.28125,1.25 0,0 0.33159,0.6777 1.22321,1.25446 0.37243,0.24091 0.79454,0.55106 1.1384,0.96875 1.33779,2.12701 1.5824,4.16727 1.95977,7.04911 0.61001,2.72081 0.28462,6.02983 0.60933,6.9767 0.60997,-0.86368 0.76357,-2.14821 0.70446,-5.64025 -0.61772,-4.23669 -0.6523,-4.40792 -1.49673,-7.63992 -0.18795,-0.88932 -0.9503,-2.1262 -1.60714,-2.6875 -0.82704,-0.69646 -1.65625,-1.375 -1.65625,-1.375 -0.16097,-0.13753 -0.38594,-0.19674 -0.59375,-0.15625 z"
       id="path3020"
       inkscape:connector-curvature="0"
       sodipodi:nodetypes="ccsccccccccc" />
    <path
       style="font-size:medium;font-style:normal;font-variant:normal;font-weight:normal;font-stretch:normal;text-indent:0;text-align:start;text-decoration:none;line-height:normal;letter-spacing:normal;word-spacing:normal;text-transform:none;direction:ltr;block-progression:tb;writing-mode:lr-tb;text-anchor:start;baseline-shift:baseline;color:#000000;fill:#000000;fill-opacity:1;stroke:none;stroke-width:1.41214085;marker:none;visibility:visible;display:inline;overflow:visible;enable-background:accumulate;font-family:Sans;-inkscape-font-specification:Sans"
       d="m 341.59375,449.34375 c -0.38685,0.0792 -0.65116,0.53004 -0.53125,0.90625 0.0908,1.32099 1.10582,2.50329 1.32143,3.29018 0.54786,0.54595 1.23226,4.38746 1.06681,7.41518 0.0915,0.36503 -1.39866,3.62053 -1.02232,3.62053 0.37634,0 1.70186,-2.44317 1.74554,-2.81696 l 0.3125,-2.67411 c -0.0663,-1.23538 -0.14302,-1.74304 -0.23646,-2.86607 -0.29027,-1.09915 -0.35975,-1.95821 -0.63839,-2.9375 -0.46097,-1.57737 -1.20536,-3.4375 -1.20536,-3.4375 -0.0956,-0.33579 -0.46964,-0.56594 -0.8125,-0.5 z"
       id="path3022"
       inkscape:connector-curvature="0"
       sodipodi:nodetypes="ccccssccccc" />
  </g>
</svg>
