<?xml version="1.0" encoding="UTF-8" standalone="no"?>
<!-- Created with Inkscape (http://www.inkscape.org/) -->

<svg
   xmlns:dc="http://purl.org/dc/elements/1.1/"
   xmlns:cc="http://creativecommons.org/ns#"
   xmlns:rdf="http://www.w3.org/1999/02/22-rdf-syntax-ns#"
   xmlns:svg="http://www.w3.org/2000/svg"
   xmlns="http://www.w3.org/2000/svg"
   xmlns:sodipodi="http://sodipodi.sourceforge.net/DTD/sodipodi-0.dtd"
   xmlns:inkscape="http://www.inkscape.org/namespaces/inkscape"
   width="210mm"
   height="297mm"
   id="svg3045"
   version="1.1"
   inkscape:version="0.48.4 r9939"
   sodipodi:docname="Neues Dokument 2">
  <defs
     id="defs3047" />
  <sodipodi:namedview
     id="base"
     pagecolor="#ffffff"
     bordercolor="#666666"
     borderopacity="1.0"
     inkscape:pageopacity="0.0"
     inkscape:pageshadow="2"
     inkscape:zoom="0.35"
     inkscape:cx="350"
     inkscape:cy="520"
     inkscape:document-units="px"
     inkscape:current-layer="layer1"
     showgrid="false"
     inkscape:window-width="505"
     inkscape:window-height="423"
     inkscape:window-x="1780"
     inkscape:window-y="100"
     inkscape:window-maximized="0" />
  <metadata
     id="metadata3050">
    <rdf:RDF>
      <cc:Work
         rdf:about="">
        <dc:format>image/svg+xml</dc:format>
        <dc:type
           rdf:resource="http://purl.org/dc/dcmitype/StillImage" />
        <dc:title></dc:title>
      </cc:Work>
    </rdf:RDF>
  </metadata>
  <g
     inkscape:label="Ebene 1"
     inkscape:groupmode="layer"
     id="layer1">
    <g
       transform="translate(-125.75012,-206.41967)"
       id="g3022">
      <path
         id="path3898"
         d="m 420.02468,627.71896 c -9.28004,-1.82019 -17.13459,-7.56275 -21.456,-15.68676 -2.55031,-4.79442 -2.82171,-6.98394 -2.81559,-22.71546 0.005,-13.22853 0.12086,-15.11246 1.04699,-17.0366 1.26116,-2.62038 4.91978,-5.85115 7.70543,-6.80434 l 2.04422,-0.69949 0.16464,-24.37199 c 0.16069,-23.78823 0.19418,-24.42381 1.39827,-26.53538 5.46387,-9.58166 20.01046,-9.65152 25.02979,-0.1202 1.4543,2.76161 1.45681,2.79183 1.45681,17.51518 l 0,14.74878 1.89994,-1.06076 c 4.32047,-2.4122 11.10216,-1.80427 15.52706,1.39189 2.47624,1.7886 2.47668,1.78868 3.52715,0.68954 0.57783,-0.60461 2.07937,-1.61376 3.33678,-2.24257 2.97911,-1.4898 9.37891,-1.60738 12.23328,-0.22476 1.06995,0.51826 2.01932,0.9423 2.10973,0.9423 0.0904,0 0.24379,-6.63211 0.34085,-14.73801 0.15739,-13.14436 0.29169,-14.9427 1.24195,-16.63097 4.49489,-7.98584 14.89059,-9.96607 21.857,-4.16344 5.10495,4.25213 4.77098,0.73176 4.78522,50.44269 0.0136,47.79642 0.12098,46.07574 -3.26818,52.40885 -1.72731,3.22768 -7.30276,8.85338 -10.99827,11.09738 -1.47072,0.89306 -4.19647,2.16533 -6.05722,2.82729 -3.31016,1.17759 -3.98125,1.20583 -31.1034,1.30941 -15.24614,0.0582 -28.74903,-0.096 -30.00645,-0.34258 z"
         style="fill:#333333"
         inkscape:connector-curvature="0" />
      <a
         style="fill:#f9f9f9"
         transform="matrix(1.1945765,0,0,1.1083681,-84.485692,-56.722634)"
         id="a3901">
        <path
           style="fill:#f9f9f9"
           d="m 473.86942,610.56194 c 3.90292,-1.96779 7.73361,-5.67819 9.4925,-9.19442 2.35395,-4.70585 2.36753,-4.96301 2.36674,-44.82371 -9.6e-4,-41.64655 0.16924,-39.48933 -3.29959,-41.85271 -2.94338,-2.0054 -7.57311,-1.04418 -9.22858,1.91602 -0.49177,0.87934 -0.68069,7.39131 -0.86783,29.91394 -0.26526,31.92247 -0.14719,30.7624 -3.49306,34.32227 -4.32423,4.60084 -11.55524,5.20674 -15.94565,1.33611 l -1.80371,-1.59018 -2.07716,1.61703 c -6.26038,4.87364 -15.01837,2.62055 -18.26732,-4.69948 -0.94368,-2.12617 -0.97494,-3.08277 -0.98511,-30.14749 -0.008,-22.571 -0.13679,-28.2539 -0.66652,-29.52186 -2.14782,-5.14087 -8.9525,-5.75446 -11.79513,-1.06359 -0.90409,1.49193 -0.9453,2.48968 -0.93859,22.7293 l 0.007,21.16886 2.48267,1.21991 c 2.78931,1.37059 5.31843,4.36296 6.09367,7.20981 0.72318,2.65573 0.65961,23.66223 -0.0739,24.4103 -0.31578,0.32205 -1.28998,0.58556 -2.16489,0.58556 -1.26732,0 -1.68561,-0.25449 -2.05735,-1.25168 -0.25664,-0.68842 -0.46742,-6.01334 -0.46841,-11.83314 -10e-4,-9.492 -0.0943,-10.73621 -0.90042,-12.08442 -1.84796,-3.09066 -6.64304,-3.98732 -9.58238,-1.79186 -2.67866,2.00075 -2.9106,3.23663 -2.91142,15.5134 -9.5e-4,14.71271 0.68866,17.59634 5.51834,23.07488 2.45921,2.78959 5.3638,4.72658 9.06756,6.04687 2.17695,0.77603 4.5446,0.84438 25.62939,0.73982 l 23.23086,-0.1152 3.63826,-1.83435 z"
           id="path3888"
           inkscape:connector-curvature="0" />
      </a>
      <path
         id="path3884"
         d="m 446.99943,584.47298 c 3.73665,-2.15598 3.87179,-2.70616 4.05137,-16.49403 0.1444,-11.08845 0.0497,-12.67279 -0.85732,-14.34712 -2.92085,-5.39148 -10.65565,-5.73881 -14.01346,-0.62926 -1.24556,1.89536 -1.295,2.43518 -1.295,14.13959 0,13.66319 0.26335,14.89604 3.64661,17.07152 2.52702,1.6249 5.92088,1.72882 8.4678,0.2593 z"
         style="fill:#f9f9f9"
         inkscape:connector-curvature="0" />
      <path
         id="path3882"
         d="m 469.52224,584.30319 c 3.64871,-2.30655 3.94072,-3.55811 3.94072,-16.89061 0,-13.3325 -0.29201,-14.58405 -3.94072,-16.8906 -3.52222,-2.22659 -8.67028,-1.15345 -10.90884,2.27402 -1.07122,1.64015 -1.15183,2.67079 -1.14833,14.68042 0.004,11.74204 0.10166,13.05701 1.08097,14.46254 2.54092,3.64699 7.31897,4.67615 10.9762,2.36423 z"
         style="fill:#f9f9f9"
         inkscape:connector-curvature="0" />
    </g>
  </g>
</svg>
