<?xml version="1.0" encoding="UTF-8" standalone="no"?>
<!-- Created with Inkscape (http://www.inkscape.org/) -->

<svg
   xmlns:dc="http://purl.org/dc/elements/1.1/"
   xmlns:cc="http://creativecommons.org/ns#"
   xmlns:rdf="http://www.w3.org/1999/02/22-rdf-syntax-ns#"
   xmlns:svg="http://www.w3.org/2000/svg"
   xmlns="http://www.w3.org/2000/svg"
   xmlns:xlink="http://www.w3.org/1999/xlink"
   xmlns:sodipodi="http://sodipodi.sourceforge.net/DTD/sodipodi-0.dtd"
   xmlns:inkscape="http://www.inkscape.org/namespaces/inkscape"
   width="847.14288"
   height="678.57147"
   id="svg2"
   version="1.1"
   inkscape:version="0.48.5 r10040"
   sodipodi:docname="RIP-2.svg"
   inkscape:export-filename="D:\Projekte\tiroltrailhead\webmap\images\RIP-2.png"
   inkscape:export-xdpi="200"
   inkscape:export-ydpi="200">
  <defs
     id="defs4">
    <clipPath
       clipPathUnits="userSpaceOnUse"
       id="clipPath2998">
      <rect
         style="fill:#ffffff;fill-opacity:0.46743296;fill-rule:nonzero;stroke:none"
         id="rect3000"
         width="837.14288"
         height="668.57147"
         x="-58.57143"
         y="163.79076" />
    </clipPath>
    <clipPath
       clipPathUnits="userSpaceOnUse"
       id="clipPath4290">
      <g
         id="g4292"
         transform="matrix(6.5413473,0.91104801,0.95109161,-6.6429049,3744.4458,5325.4055)">
        <g
           id="g4294"
           style="stroke-width:0.1;stroke-miterlimit:4;stroke-dasharray:none">
          <path
             style="fill:none;stroke:#ff0c0c;stroke-width:1.20000005;stroke-linecap:butt;stroke-linejoin:miter;stroke-miterlimit:4;stroke-opacity:1;stroke-dasharray:none"
             d="m 700.03572,590.18312 11.11167,6.06092 12.62691,5.55584 c 12.09704,-1.9778 22.96772,0.67209 25.75889,14.64721 20.68569,1.96403 31.89977,5.61221 31.81981,16.66752 -5.51392,7.04976 -11.35396,11.59006 -22.22336,10.6066 -5.11604,-0.0467 -13.51395,-0.74983 -44.95179,-6.06092 -12.45855,6.16411 -24.91709,6.92673 -37.37564,-3.03045 l -28.78935,-2.52539 c -9.76481,5.48665 -20.53977,6.63452 -30.30458,10e-6 l -15.65736,5.05076 c -6.90634,4.78412 -12.96697,9.9072 -28.78935,9.59645 -18.42474,7.51207 -32.41875,6.45811 -45.45686,-3.53554 l -22.22336,-1.01015 c -2.24778,5.66509 -6.57592,9.24981 -18.18275,5.55584 -21.78109,15.65052 -31.31741,-3.50458 -44.44671,-10.10153 l -58.58885,-1.51523 c -19.5184,18.95726 -34.72553,4.4708 -48.99239,-8.08121 -4.27978,2.58752 -8.96857,11.12753 -15.65737,10.10152 -8.53464,15.06045 -16.60913,9.55842 -27.77919,3.53553 -16.83067,4.03019 -28.11835,-3.53066 -36.87057,-15.65736 -9.81649,5.80252 -22.24298,1.08038 -33.33503,0.50508 -10.52123,7.92003 -22.88523,8.31897 -35.35535,8.08122 -21.55026,8.92402 -34.03477,1.25742 -50.00255,-6.566 l -18.18274,-4.04061 -20.203053,-1.01015 c -20.730106,9.53062 -37.395787,7.88408 -50.507627,-3.53553 -2.373508,-9.24478 6.443107,-15.19834 20.203051,-19.69798 7.162348,-4.33743 20.31751,2.1019 27.779195,-2.52538 0.492285,-5.62262 8.576924,-3.57141 14.647214,-4.54568 6.58504,-2.41417 12.29079,-11.28186 17.17259,-8.5863 3.23752,-11.65676 8.01246,-11.52664 12.62691,-12.62691 5.21912,-4.00825 10.43824,-6.71698 15.65736,-5.05076 3.7223,-5.71105 11.83871,-6.11884 22.22336,-7.07107 8.92301,-2.43205 15.59112,-4.08414 24.51413,-0.41842 l 5.79044,-5.13742 c -1.52336,-1.61611 -2.45823,-20.29846 -3.03045,-49.49747 l -4.54569,-4.04061 c -0.19514,-3.91626 0.45393,-9.09883 4.04061,-18.68782 -41.68017,-33.07723 -29.66148,-63.81629 -32.32488,-83.33759 -2.17238,-14.18561 -1.61999,-21.5593 0,-26.26397 -4.15299,-7.27362 -4.75497,-1.76357 -13.13198,-24.24366 -6.81613,-2.13214 -9.09609,3.10699 -22.72844,-10.10152 -8.06027,2.7248 -16.01157,6.04886 -27.77919,-11.61676 -3.01231,-5.2544 -2.5848,-9.21887 2.0203,-11.61675 8.28351,-8.30352 3.17476,-4.39944 23.98369,-4.18855 7.36887,-0.20405 8.03885,-4.98959 20.99348,2.16824 10.15366,0.19309 21.46903,1.68918 24.21828,9.09138 5.71191,9.48298 12.14197,22.31732 15.15229,19.1929 l 0.50508,-10.10153 c -1.01536,-3.87572 -2.45996,-8.0376 -9.09138,-15.65736 -3.53553,-5.53632 -7.07107,-10.57733 -10.6066,-20.70813 -1.56811,-3.11495 0.0631,-2.57355 -7.57614,-12.62691 -5.67976,-6.16998 -13.04207,-5.35877 -15.65737,-24.24366 -1.14848,-2.18981 0.43775,-7.11433 3.08122,-13.09609 4.80566,-4.59101 9.85392,-6.99857 15.60661,-3.06635 2.292,0.92678 2.96131,5.21423 13.5145,15.15229 5.39165,0.8956 16.08036,6.77822 25.22843,29.26904 8.37818,8.59643 17.87534,12.23268 20.85607,29.82488 l 6.56599,12.62691 c 6.71993,0.70471 7.26417,-3.22235 10.6066,-5.05076 l -3.03046,-30.30458 c -6.30141,-11.95351 -12.47572,-31.94167 -13.78499,-46.61495 -9.95249,-6.35899 -15.05615,-19.91563 -19.34083,-37.61023 -0.3263,-7.42576 -2.44175,-17.18405 12.92277,-21.84084 12.75683,-1.9908 23.80337,27.94326 26.97826,29.92206 9.81095,17.1154 19.10782,9.63682 24.98332,43.57923 l 1.45921,13.60643 5.16806,13.40246 3.03046,21.2132 c 4.07656,0.49076 7.0453,-15.44433 14.08085,-31.42677 -0.0661,-5.35946 -1.50662,-16.21673 -2.96918,-27.16207 1.27099,-4.67054 -5.34411,-7.34145 5.49457,-14.438 l 0.15318,-5.40265 c -6.19697,-2.67988 -6.63027,-8.22934 -4.90282,-14.77502 l 4.14739,-18.88652 c 8.68896,-5.37618 11.90106,0.84331 18.34119,16.63162 3.1249,5.63863 6.83784,8.48197 2.16824,15.38688 l 0.35714,4.31109 c 3.8775,-0.42746 6.61177,0.57412 8.5863,2.52538 8.57881,25.74724 9.08821,41.00108 6.50472,53.09954 -12.35033,35.23191 -11.60731,34.25787 -16.60624,46.90557 -0.43683,12.24013 -1.04201,29.21751 0.29586,40.73786 2.14965,-5.94353 7.97998,-8.20639 14.85642,-9.42313 -6.00394,-19.54776 0.51171,-30.74911 8.5863,-40.91118 l 1.99492,-10.10153 c 9.16743,-5.40812 14.15252,-0.76278 15.91735,7.57615 l 1.78571,11.61675 c 5.97003,17.50359 11.02082,26.63987 14.14213,33.84011 -2.87465,16.40884 -5.97597,31.79768 -10.72916,39.75309 -20.36103,15.09242 -30.82486,22.08912 -52.12438,57.82816 -4.41839,4.54161 -16.00316,16.32012 -19.47389,17.07106 0.14793,16.87673 5.14613,34.9382 0.0867,49.20161 -0.89136,15.12259 0.79883,27.19507 3.59681,38.15121 7.54258,-0.84127 13.63938,-7.64127 22.07542,-4.01523 7.50604,8.72006 8.73813,-8.33014 23.23351,-5.55584 l 10.1628,-5.46918 19.13162,-118.27451 -4.54569,-5.55584 c 0.0985,-6.1308 0.54049,-9.39268 2.52539,-13.63706 l 5.05076,-6.06091 10.6066,-61.61931 -6.06092,-3.53553 1.01016,-11.11168 6.06091,-1.01014 c 15.44175,-67.98546 27.40141,-153.70241 1.51523,-191.42392 -1.48015,-3.67724 -2.45434,-6.64754 2.52538,-11.61675 10.1449,-3.17561 18.37799,-5.62526 33.33503,-23.73859 22.29381,-51.067963 44.05164,-84.693105 103.54064,-91.923878 42.35996,-2.645532 82.55359,-0.433643 135.53376,19.488765 30.55506,14.236284 46.33105,39.105454 55.38507,65.869123 l -5.55583,9.09138 10.10152,2.0203 c 10.32453,45.60956 32.3113,51.31086 45.96194,68.69037 -24.31936,23.43782 -21.50336,50.42042 -30.30458,82.32744 l -9.59644,71.21575 c -7.6173,11.13226 -5.5021,17.39826 -2.52539,23.23351 l -10.10152,50.00255 -9.09137,73.74114 c -6.82857,7.07107 -7.31296,14.14213 -2.02031,21.2132 -4.92589,34.60237 -11.31114,78.27828 -8.58629,87.37819 z"
             id="path4296"
             inkscape:connector-curvature="0"
             transform="translate(-63.57143,161.82121)"
             sodipodi:nodetypes="cccccccccccccccccccccccccccccccccccccccccccccccccccccccccccccccccccccccccccccccccccccccccccccccccccccccccccccccccccccccccc" />
          <path
             style="fill:none;stroke:#000000;stroke-width:0.1;stroke-linecap:butt;stroke-linejoin:miter;stroke-miterlimit:4;stroke-opacity:1;stroke-dasharray:none"
             d="m 118.57143,529.6429 8.90319,2.58666 -0.12256,8.81653 -5.2092,2.88253 -8.21428,-3.2143 -1.07144,-5.71427 z"
             id="path4298"
             inkscape:connector-curvature="0"
             transform="translate(-63.57143,161.82121)"
             sodipodi:nodetypes="ccccccc" />
          <path
             style="fill:none;stroke:#ff0022;stroke-width:0.80000001;stroke-linecap:butt;stroke-linejoin:miter;stroke-miterlimit:4;stroke-opacity:1;stroke-dasharray:none"
             d="m 129.28571,510.71433 c 4.52381,7.27463 9.04762,12.80478 13.57143,13.48477 l 7.97969,-2.47461 c -0.60544,-6.53541 5.56463,-7.42369 -1.01015,-22.31619 l -12.68382,-0.12254 z"
             id="path4300"
             inkscape:connector-curvature="0"
             transform="translate(-63.57143,161.82121)"
             sodipodi:nodetypes="cccccc" />
          <path
             style="fill:none;stroke:#000000;stroke-width:0.1;stroke-linecap:butt;stroke-linejoin:miter;stroke-miterlimit:4;stroke-opacity:1;stroke-dasharray:none"
             d="m 318.57143,531.42861 c -1.73416,2.65815 -1.14414,5.59809 0.35714,9.64286 3.48008,4.02847 3.88439,3.17409 9.32162,2.77049 7.39188,-1.08281 9.10538,-1.52823 10.653,-3.51015 1.27355,-2.96057 -0.70332,-5.13757 -4.26033,-11.4032 -8.90535,-0.78616 -12.87902,-0.99855 -16.07143,2.5 z"
             id="path4302"
             inkscape:connector-curvature="0"
             transform="translate(-63.57143,161.82121)"
             sodipodi:nodetypes="cccccc" />
          <path
             style="fill:none;stroke:#000000;stroke-width:0.1;stroke-linecap:butt;stroke-linejoin:miter;stroke-miterlimit:4;stroke-opacity:1;stroke-dasharray:none"
             d="m 336.42857,477.1429 c 1.28216,4.86248 1.35422,11.5401 6.42857,10.71429 L 350,484.28576 c 2.91003,0.14103 3.26159,-6.54052 4.28571,-11.42857 l -7.85714,-2.85715 z"
             id="path4304"
             inkscape:connector-curvature="0"
             transform="translate(-63.57143,161.82121)"
             sodipodi:nodetypes="cccccc" />
          <path
             style="fill:none;stroke:#000000;stroke-width:0.1;stroke-linecap:butt;stroke-linejoin:miter;stroke-miterlimit:4;stroke-opacity:1;stroke-dasharray:none"
             d="m 155,537.1429 -0.71429,8.57143 7.56128,2.77048 c 8.08792,-3.33542 3.8931,-7.54659 3.02303,-13.44144 z"
             id="path4306"
             inkscape:connector-curvature="0"
             transform="translate(-63.57143,161.82121)"
             sodipodi:nodetypes="ccccc" />
          <path
             style="fill:none;stroke:#000000;stroke-width:0.1;stroke-linecap:butt;stroke-linejoin:miter;stroke-miterlimit:4;stroke-opacity:1;stroke-dasharray:none"
             d="m 312.14286,480.00004 -0.71429,8.57143 8.57143,0 2.14286,-5.71428 c -0.35068,-4.43612 -4.96055,-3.89751 -10,-2.85715 z"
             id="path4308"
             inkscape:connector-curvature="0"
             transform="translate(-63.57143,161.82121)"
             sodipodi:nodetypes="ccccc" />
        </g>
      </g>
    </clipPath>
    <clipPath
       clipPathUnits="userSpaceOnUse"
       id="clipPath4310">
      <g
         id="g4312"
         transform="matrix(0.96906977,-0.12823999,0.14251574,1.0472061,-310.47587,-142.24573)">
        <g
           id="g4314"
           style="stroke-width:0.1;stroke-miterlimit:4;stroke-dasharray:none">
          <path
             style="fill:none;stroke:#ff0c0c;stroke-width:1.20000005;stroke-linecap:butt;stroke-linejoin:miter;stroke-miterlimit:4;stroke-opacity:1;stroke-dasharray:none"
             d="m 700.03572,590.18312 11.11167,6.06092 12.62691,5.55584 c 12.09704,-1.9778 22.96772,0.67209 25.75889,14.64721 20.68569,1.96403 31.89977,5.61221 31.81981,16.66752 -5.51392,7.04976 -11.35396,11.59006 -22.22336,10.6066 -5.11604,-0.0467 -13.51395,-0.74983 -44.95179,-6.06092 -12.45855,6.16411 -24.91709,6.92673 -37.37564,-3.03045 l -28.78935,-2.52539 c -9.76481,5.48665 -20.53977,6.63452 -30.30458,10e-6 l -15.65736,5.05076 c -6.90634,4.78412 -12.96697,9.9072 -28.78935,9.59645 -18.42474,7.51207 -32.41875,6.45811 -45.45686,-3.53554 l -22.22336,-1.01015 c -2.24778,5.66509 -6.57592,9.24981 -18.18275,5.55584 -21.78109,15.65052 -31.31741,-3.50458 -44.44671,-10.10153 l -58.58885,-1.51523 c -19.5184,18.95726 -34.72553,4.4708 -48.99239,-8.08121 -4.27978,2.58752 -8.96857,11.12753 -15.65737,10.10152 -8.53464,15.06045 -16.60913,9.55842 -27.77919,3.53553 -16.83067,4.03019 -28.11835,-3.53066 -36.87057,-15.65736 -9.81649,5.80252 -22.24298,1.08038 -33.33503,0.50508 -10.52123,7.92003 -22.88523,8.31897 -35.35535,8.08122 -21.55026,8.92402 -34.03477,1.25742 -50.00255,-6.566 l -18.18274,-4.04061 -20.203053,-1.01015 c -20.730106,9.53062 -37.395787,7.88408 -50.507627,-3.53553 -2.373508,-9.24478 6.443107,-15.19834 20.203051,-19.69798 7.162348,-4.33743 20.31751,2.1019 27.779195,-2.52538 0.492285,-5.62262 8.576924,-3.57141 14.647214,-4.54568 6.58504,-2.41417 12.29079,-11.28186 17.17259,-8.5863 3.23752,-11.65676 8.01246,-11.52664 12.62691,-12.62691 5.21912,-4.00825 10.43824,-6.71698 15.65736,-5.05076 3.7223,-5.71105 11.83871,-6.11884 22.22336,-7.07107 8.92301,-2.43205 15.59112,-4.08414 24.51413,-0.41842 l 5.79044,-5.13742 c -1.52336,-1.61611 -2.45823,-20.29846 -3.03045,-49.49747 l -4.54569,-4.04061 c -0.19514,-3.91626 0.45393,-9.09883 4.04061,-18.68782 -41.68017,-33.07723 -29.66148,-63.81629 -32.32488,-83.33759 -2.17238,-14.18561 -1.61999,-21.5593 0,-26.26397 -4.15299,-7.27362 -4.75497,-1.76357 -13.13198,-24.24366 -6.81613,-2.13214 -9.09609,3.10699 -22.72844,-10.10152 -8.06027,2.7248 -16.01157,6.04886 -27.77919,-11.61676 -3.01231,-5.2544 -2.5848,-9.21887 2.0203,-11.61675 8.28351,-8.30352 3.17476,-4.39944 23.98369,-4.18855 7.36887,-0.20405 8.03885,-4.98959 20.99348,2.16824 10.15366,0.19309 21.46903,1.68918 24.21828,9.09138 5.71191,9.48298 12.14197,22.31732 15.15229,19.1929 l 0.50508,-10.10153 c -1.01536,-3.87572 -2.45996,-8.0376 -9.09138,-15.65736 -3.53553,-5.53632 -7.07107,-10.57733 -10.6066,-20.70813 -1.56811,-3.11495 0.0631,-2.57355 -7.57614,-12.62691 -5.67976,-6.16998 -13.04207,-5.35877 -15.65737,-24.24366 -1.14848,-2.18981 0.43775,-7.11433 3.08122,-13.09609 4.80566,-4.59101 9.85392,-6.99857 15.60661,-3.06635 2.292,0.92678 2.96131,5.21423 13.5145,15.15229 5.39165,0.8956 16.08036,6.77822 25.22843,29.26904 8.37818,8.59643 17.87534,12.23268 20.85607,29.82488 l 6.56599,12.62691 c 6.71993,0.70471 7.26417,-3.22235 10.6066,-5.05076 l -3.03046,-30.30458 c -6.30141,-11.95351 -12.47572,-31.94167 -13.78499,-46.61495 -9.95249,-6.35899 -15.05615,-19.91563 -19.34083,-37.61023 -0.3263,-7.42576 -2.44175,-17.18405 12.92277,-21.84084 12.75683,-1.9908 23.80337,27.94326 26.97826,29.92206 9.81095,17.1154 19.10782,9.63682 24.98332,43.57923 l 1.45921,13.60643 5.16806,13.40246 3.03046,21.2132 c 4.07656,0.49076 7.0453,-15.44433 14.08085,-31.42677 -0.0661,-5.35946 -1.50662,-16.21673 -2.96918,-27.16207 1.27099,-4.67054 -5.34411,-7.34145 5.49457,-14.438 l 0.15318,-5.40265 c -6.19697,-2.67988 -6.63027,-8.22934 -4.90282,-14.77502 l 4.14739,-18.88652 c 8.68896,-5.37618 11.90106,0.84331 18.34119,16.63162 3.1249,5.63863 6.83784,8.48197 2.16824,15.38688 l 0.35714,4.31109 c 3.8775,-0.42746 6.61177,0.57412 8.5863,2.52538 8.57881,25.74724 9.08821,41.00108 6.50472,53.09954 -12.35033,35.23191 -11.60731,34.25787 -16.60624,46.90557 -0.43683,12.24013 -1.04201,29.21751 0.29586,40.73786 2.14965,-5.94353 7.97998,-8.20639 14.85642,-9.42313 -6.00394,-19.54776 0.51171,-30.74911 8.5863,-40.91118 l 1.99492,-10.10153 c 9.16743,-5.40812 14.15252,-0.76278 15.91735,7.57615 l 1.78571,11.61675 c 5.97003,17.50359 11.02082,26.63987 14.14213,33.84011 -2.87465,16.40884 -5.97597,31.79768 -10.72916,39.75309 -20.36103,15.09242 -30.82486,22.08912 -52.12438,57.82816 -4.41839,4.54161 -16.00316,16.32012 -19.47389,17.07106 0.14793,16.87673 5.14613,34.9382 0.0867,49.20161 -0.89136,15.12259 0.79883,27.19507 3.59681,38.15121 7.54258,-0.84127 13.63938,-7.64127 22.07542,-4.01523 7.50604,8.72006 8.73813,-8.33014 23.23351,-5.55584 l 10.1628,-5.46918 19.13162,-118.27451 -4.54569,-5.55584 c 0.0985,-6.1308 0.54049,-9.39268 2.52539,-13.63706 l 5.05076,-6.06091 10.6066,-61.61931 -6.06092,-3.53553 1.01016,-11.11168 6.06091,-1.01014 c 15.44175,-67.98546 27.40141,-153.70241 1.51523,-191.42392 -1.48015,-3.67724 -2.45434,-6.64754 2.52538,-11.61675 10.1449,-3.17561 18.37799,-5.62526 33.33503,-23.73859 22.29381,-51.067963 44.05164,-84.693105 103.54064,-91.923878 42.35996,-2.645532 82.55359,-0.433643 135.53376,19.488765 30.55506,14.236284 46.33105,39.105454 55.38507,65.869123 l -5.55583,9.09138 10.10152,2.0203 c 10.32453,45.60956 32.3113,51.31086 45.96194,68.69037 -24.31936,23.43782 -21.50336,50.42042 -30.30458,82.32744 l -9.59644,71.21575 c -7.6173,11.13226 -5.5021,17.39826 -2.52539,23.23351 l -10.10152,50.00255 -9.09137,73.74114 c -6.82857,7.07107 -7.31296,14.14213 -2.02031,21.2132 -4.92589,34.60237 -11.31114,78.27828 -8.58629,87.37819 z"
             id="path4316"
             inkscape:connector-curvature="0"
             transform="translate(-63.57143,161.82121)"
             sodipodi:nodetypes="cccccccccccccccccccccccccccccccccccccccccccccccccccccccccccccccccccccccccccccccccccccccccccccccccccccccccccccccccccccccccc" />
          <path
             style="fill:none;stroke:#000000;stroke-width:0.1;stroke-linecap:butt;stroke-linejoin:miter;stroke-miterlimit:4;stroke-opacity:1;stroke-dasharray:none"
             d="m 118.57143,529.6429 8.90319,2.58666 -0.12256,8.81653 -5.2092,2.88253 -8.21428,-3.2143 -1.07144,-5.71427 z"
             id="path4318"
             inkscape:connector-curvature="0"
             transform="translate(-63.57143,161.82121)"
             sodipodi:nodetypes="ccccccc" />
          <path
             style="fill:none;stroke:#ff0022;stroke-width:0.80000001;stroke-linecap:butt;stroke-linejoin:miter;stroke-miterlimit:4;stroke-opacity:1;stroke-dasharray:none"
             d="m 129.28571,510.71433 c 4.52381,7.27463 9.04762,12.80478 13.57143,13.48477 l 7.97969,-2.47461 c -0.60544,-6.53541 5.56463,-7.42369 -1.01015,-22.31619 l -12.68382,-0.12254 z"
             id="path4320"
             inkscape:connector-curvature="0"
             transform="translate(-63.57143,161.82121)"
             sodipodi:nodetypes="cccccc" />
          <path
             style="fill:none;stroke:#000000;stroke-width:0.1;stroke-linecap:butt;stroke-linejoin:miter;stroke-miterlimit:4;stroke-opacity:1;stroke-dasharray:none"
             d="m 318.57143,531.42861 c -1.73416,2.65815 -1.14414,5.59809 0.35714,9.64286 3.48008,4.02847 3.88439,3.17409 9.32162,2.77049 7.39188,-1.08281 9.10538,-1.52823 10.653,-3.51015 1.27355,-2.96057 -0.70332,-5.13757 -4.26033,-11.4032 -8.90535,-0.78616 -12.87902,-0.99855 -16.07143,2.5 z"
             id="path4322"
             inkscape:connector-curvature="0"
             transform="translate(-63.57143,161.82121)"
             sodipodi:nodetypes="cccccc" />
          <path
             style="fill:none;stroke:#000000;stroke-width:0.1;stroke-linecap:butt;stroke-linejoin:miter;stroke-miterlimit:4;stroke-opacity:1;stroke-dasharray:none"
             d="m 336.42857,477.1429 c 1.28216,4.86248 1.35422,11.5401 6.42857,10.71429 L 350,484.28576 c 2.91003,0.14103 3.26159,-6.54052 4.28571,-11.42857 l -7.85714,-2.85715 z"
             id="path4324"
             inkscape:connector-curvature="0"
             transform="translate(-63.57143,161.82121)"
             sodipodi:nodetypes="cccccc" />
          <path
             style="fill:none;stroke:#000000;stroke-width:0.1;stroke-linecap:butt;stroke-linejoin:miter;stroke-miterlimit:4;stroke-opacity:1;stroke-dasharray:none"
             d="m 155,537.1429 -0.71429,8.57143 7.56128,2.77048 c 8.08792,-3.33542 3.8931,-7.54659 3.02303,-13.44144 z"
             id="path4326"
             inkscape:connector-curvature="0"
             transform="translate(-63.57143,161.82121)"
             sodipodi:nodetypes="ccccc" />
          <path
             style="fill:none;stroke:#000000;stroke-width:0.1;stroke-linecap:butt;stroke-linejoin:miter;stroke-miterlimit:4;stroke-opacity:1;stroke-dasharray:none"
             d="m 312.14286,480.00004 -0.71429,8.57143 8.57143,0 2.14286,-5.71428 c -0.35068,-4.43612 -4.96055,-3.89751 -10,-2.85715 z"
             id="path4328"
             inkscape:connector-curvature="0"
             transform="translate(-63.57143,161.82121)"
             sodipodi:nodetypes="ccccc" />
        </g>
      </g>
    </clipPath>
    <clipPath
       clipPathUnits="userSpaceOnUse"
       id="clipPath4330">
      <g
         id="g4332"
         transform="translate(0,-3.0304575)">
        <g
           id="g4334"
           style="stroke-width:0.1;stroke-miterlimit:4;stroke-dasharray:none">
          <path
             style="fill:none;stroke:#ff0c0c;stroke-width:1.20000005;stroke-linecap:butt;stroke-linejoin:miter;stroke-miterlimit:4;stroke-opacity:1;stroke-dasharray:none"
             d="m 700.03572,590.18312 11.11167,6.06092 12.62691,5.55584 c 12.09704,-1.9778 22.96772,0.67209 25.75889,14.64721 20.68569,1.96403 31.89977,5.61221 31.81981,16.66752 -5.51392,7.04976 -11.35396,11.59006 -22.22336,10.6066 -5.11604,-0.0467 -13.51395,-0.74983 -44.95179,-6.06092 -12.45855,6.16411 -24.91709,6.92673 -37.37564,-3.03045 l -28.78935,-2.52539 c -9.76481,5.48665 -20.53977,6.63452 -30.30458,10e-6 l -15.65736,5.05076 c -6.90634,4.78412 -12.96697,9.9072 -28.78935,9.59645 -18.42474,7.51207 -32.41875,6.45811 -45.45686,-3.53554 l -22.22336,-1.01015 c -2.24778,5.66509 -6.57592,9.24981 -18.18275,5.55584 -21.78109,15.65052 -31.31741,-3.50458 -44.44671,-10.10153 l -58.58885,-1.51523 c -19.5184,18.95726 -34.72553,4.4708 -48.99239,-8.08121 -4.27978,2.58752 -8.96857,11.12753 -15.65737,10.10152 -8.53464,15.06045 -16.60913,9.55842 -27.77919,3.53553 -16.83067,4.03019 -28.11835,-3.53066 -36.87057,-15.65736 -9.81649,5.80252 -22.24298,1.08038 -33.33503,0.50508 -10.52123,7.92003 -22.88523,8.31897 -35.35535,8.08122 -21.55026,8.92402 -34.03477,1.25742 -50.00255,-6.566 l -18.18274,-4.04061 -20.203053,-1.01015 c -20.730106,9.53062 -37.395787,7.88408 -50.507627,-3.53553 -2.373508,-9.24478 6.443107,-15.19834 20.203051,-19.69798 7.162348,-4.33743 20.31751,2.1019 27.779195,-2.52538 0.492285,-5.62262 8.576924,-3.57141 14.647214,-4.54568 6.58504,-2.41417 12.29079,-11.28186 17.17259,-8.5863 3.23752,-11.65676 8.01246,-11.52664 12.62691,-12.62691 5.21912,-4.00825 10.43824,-6.71698 15.65736,-5.05076 3.7223,-5.71105 11.83871,-6.11884 22.22336,-7.07107 8.92301,-2.43205 15.59112,-4.08414 24.51413,-0.41842 l 5.79044,-5.13742 c -1.52336,-1.61611 -2.45823,-20.29846 -3.03045,-49.49747 l -4.54569,-4.04061 c -0.19514,-3.91626 0.45393,-9.09883 4.04061,-18.68782 -41.68017,-33.07723 -29.66148,-63.81629 -32.32488,-83.33759 -2.17238,-14.18561 -1.61999,-21.5593 0,-26.26397 -4.15299,-7.27362 -4.75497,-1.76357 -13.13198,-24.24366 -6.81613,-2.13214 -9.09609,3.10699 -22.72844,-10.10152 -8.06027,2.7248 -16.01157,6.04886 -27.77919,-11.61676 -3.01231,-5.2544 -2.5848,-9.21887 2.0203,-11.61675 8.28351,-8.30352 3.17476,-4.39944 23.98369,-4.18855 7.36887,-0.20405 8.03885,-4.98959 20.99348,2.16824 10.15366,0.19309 21.46903,1.68918 24.21828,9.09138 5.71191,9.48298 12.14197,22.31732 15.15229,19.1929 l 0.50508,-10.10153 c -1.01536,-3.87572 -2.45996,-8.0376 -9.09138,-15.65736 -3.53553,-5.53632 -7.07107,-10.57733 -10.6066,-20.70813 -1.56811,-3.11495 0.0631,-2.57355 -7.57614,-12.62691 -5.67976,-6.16998 -13.04207,-5.35877 -15.65737,-24.24366 -1.14848,-2.18981 0.43775,-7.11433 3.08122,-13.09609 4.80566,-4.59101 9.85392,-6.99857 15.60661,-3.06635 2.292,0.92678 2.96131,5.21423 13.5145,15.15229 5.39165,0.8956 16.08036,6.77822 25.22843,29.26904 8.37818,8.59643 17.87534,12.23268 20.85607,29.82488 l 6.56599,12.62691 c 6.71993,0.70471 7.26417,-3.22235 10.6066,-5.05076 l -3.03046,-30.30458 c -6.30141,-11.95351 -12.47572,-31.94167 -13.78499,-46.61495 -9.95249,-6.35899 -15.05615,-19.91563 -19.34083,-37.61023 -0.3263,-7.42576 -2.44175,-17.18405 12.92277,-21.84084 12.75683,-1.9908 23.80337,27.94326 26.97826,29.92206 9.81095,17.1154 19.10782,9.63682 24.98332,43.57923 l 1.45921,13.60643 5.16806,13.40246 3.03046,21.2132 c 4.07656,0.49076 7.0453,-15.44433 14.08085,-31.42677 -0.0661,-5.35946 -1.50662,-16.21673 -2.96918,-27.16207 1.27099,-4.67054 -5.34411,-7.34145 5.49457,-14.438 l 0.15318,-5.40265 c -6.19697,-2.67988 -6.63027,-8.22934 -4.90282,-14.77502 l 4.14739,-18.88652 c 8.68896,-5.37618 11.90106,0.84331 18.34119,16.63162 3.1249,5.63863 6.83784,8.48197 2.16824,15.38688 l 0.35714,4.31109 c 3.8775,-0.42746 6.61177,0.57412 8.5863,2.52538 8.57881,25.74724 9.08821,41.00108 6.50472,53.09954 -12.35033,35.23191 -11.60731,34.25787 -16.60624,46.90557 -0.43683,12.24013 -1.04201,29.21751 0.29586,40.73786 2.14965,-5.94353 7.97998,-8.20639 14.85642,-9.42313 -6.00394,-19.54776 0.51171,-30.74911 8.5863,-40.91118 l 1.99492,-10.10153 c 9.16743,-5.40812 14.15252,-0.76278 15.91735,7.57615 l 1.78571,11.61675 c 5.97003,17.50359 11.02082,26.63987 14.14213,33.84011 -2.87465,16.40884 -5.97597,31.79768 -10.72916,39.75309 -20.36103,15.09242 -30.82486,22.08912 -52.12438,57.82816 -4.41839,4.54161 -16.00316,16.32012 -19.47389,17.07106 0.14793,16.87673 5.14613,34.9382 0.0867,49.20161 -0.89136,15.12259 0.79883,27.19507 3.59681,38.15121 7.54258,-0.84127 13.63938,-7.64127 22.07542,-4.01523 7.50604,8.72006 8.73813,-8.33014 23.23351,-5.55584 l 10.1628,-5.46918 19.13162,-118.27451 -4.54569,-5.55584 c 0.0985,-6.1308 0.54049,-9.39268 2.52539,-13.63706 l 5.05076,-6.06091 10.6066,-61.61931 -6.06092,-3.53553 1.01016,-11.11168 6.06091,-1.01014 c 15.44175,-67.98546 27.40141,-153.70241 1.51523,-191.42392 -1.48015,-3.67724 -2.45434,-6.64754 2.52538,-11.61675 10.1449,-3.17561 18.37799,-5.62526 33.33503,-23.73859 22.29381,-51.067963 44.05164,-84.693105 103.54064,-91.923878 42.35996,-2.645532 82.55359,-0.433643 135.53376,19.488765 30.55506,14.236284 46.33105,39.105454 55.38507,65.869123 l -5.55583,9.09138 10.10152,2.0203 c 10.32453,45.60956 32.3113,51.31086 45.96194,68.69037 -24.31936,23.43782 -21.50336,50.42042 -30.30458,82.32744 l -9.59644,71.21575 c -7.6173,11.13226 -5.5021,17.39826 -2.52539,23.23351 l -10.10152,50.00255 -9.09137,73.74114 c -6.82857,7.07107 -7.31296,14.14213 -2.02031,21.2132 -4.92589,34.60237 -11.31114,78.27828 -8.58629,87.37819 z"
             id="path4336"
             inkscape:connector-curvature="0"
             transform="translate(-63.57143,161.82121)"
             sodipodi:nodetypes="cccccccccccccccccccccccccccccccccccccccccccccccccccccccccccccccccccccccccccccccccccccccccccccccccccccccccccccccccccccccccc" />
          <path
             style="fill:none;stroke:#000000;stroke-width:0.1;stroke-linecap:butt;stroke-linejoin:miter;stroke-miterlimit:4;stroke-opacity:1;stroke-dasharray:none"
             d="m 118.57143,529.6429 8.90319,2.58666 -0.12256,8.81653 -5.2092,2.88253 -8.21428,-3.2143 -1.07144,-5.71427 z"
             id="path4338"
             inkscape:connector-curvature="0"
             transform="translate(-63.57143,161.82121)"
             sodipodi:nodetypes="ccccccc" />
          <path
             style="fill:none;stroke:#ff0022;stroke-width:0.80000001;stroke-linecap:butt;stroke-linejoin:miter;stroke-miterlimit:4;stroke-opacity:1;stroke-dasharray:none"
             d="m 129.28571,510.71433 c 4.52381,7.27463 9.04762,12.80478 13.57143,13.48477 l 7.97969,-2.47461 c -0.60544,-6.53541 5.56463,-7.42369 -1.01015,-22.31619 l -12.68382,-0.12254 z"
             id="path4340"
             inkscape:connector-curvature="0"
             transform="translate(-63.57143,161.82121)"
             sodipodi:nodetypes="cccccc" />
          <path
             style="fill:none;stroke:#000000;stroke-width:0.1;stroke-linecap:butt;stroke-linejoin:miter;stroke-miterlimit:4;stroke-opacity:1;stroke-dasharray:none"
             d="m 318.57143,531.42861 c -1.73416,2.65815 -1.14414,5.59809 0.35714,9.64286 3.48008,4.02847 3.88439,3.17409 9.32162,2.77049 7.39188,-1.08281 9.10538,-1.52823 10.653,-3.51015 1.27355,-2.96057 -0.70332,-5.13757 -4.26033,-11.4032 -8.90535,-0.78616 -12.87902,-0.99855 -16.07143,2.5 z"
             id="path4342"
             inkscape:connector-curvature="0"
             transform="translate(-63.57143,161.82121)"
             sodipodi:nodetypes="cccccc" />
          <path
             style="fill:none;stroke:#000000;stroke-width:0.1;stroke-linecap:butt;stroke-linejoin:miter;stroke-miterlimit:4;stroke-opacity:1;stroke-dasharray:none"
             d="m 336.42857,477.1429 c 1.28216,4.86248 1.35422,11.5401 6.42857,10.71429 L 350,484.28576 c 2.91003,0.14103 3.26159,-6.54052 4.28571,-11.42857 l -7.85714,-2.85715 z"
             id="path4344"
             inkscape:connector-curvature="0"
             transform="translate(-63.57143,161.82121)"
             sodipodi:nodetypes="cccccc" />
          <path
             style="fill:none;stroke:#000000;stroke-width:0.1;stroke-linecap:butt;stroke-linejoin:miter;stroke-miterlimit:4;stroke-opacity:1;stroke-dasharray:none"
             d="m 155,537.1429 -0.71429,8.57143 7.56128,2.77048 c 8.08792,-3.33542 3.8931,-7.54659 3.02303,-13.44144 z"
             id="path4346"
             inkscape:connector-curvature="0"
             transform="translate(-63.57143,161.82121)"
             sodipodi:nodetypes="ccccc" />
          <path
             style="fill:none;stroke:#000000;stroke-width:0.1;stroke-linecap:butt;stroke-linejoin:miter;stroke-miterlimit:4;stroke-opacity:1;stroke-dasharray:none"
             d="m 312.14286,480.00004 -0.71429,8.57143 8.57143,0 2.14286,-5.71428 c -0.35068,-4.43612 -4.96055,-3.89751 -10,-2.85715 z"
             id="path4348"
             inkscape:connector-curvature="0"
             transform="translate(-63.57143,161.82121)"
             sodipodi:nodetypes="ccccc" />
        </g>
      </g>
    </clipPath>
  </defs>
  <sodipodi:namedview
     id="base"
     pagecolor="#000000"
     bordercolor="#666666"
     borderopacity="1.0"
     inkscape:pageopacity="0"
     inkscape:pageshadow="2"
     inkscape:zoom="0.49497475"
     inkscape:cx="256.13656"
     inkscape:cy="422.65735"
     inkscape:document-units="px"
     inkscape:current-layer="layer1"
     showgrid="false"
     fit-margin-left="5"
     fit-margin-right="5"
     fit-margin-bottom="5"
     fit-margin-top="5"
     inkscape:window-width="1461"
     inkscape:window-height="841"
     inkscape:window-x="67"
     inkscape:window-y="-8"
     inkscape:window-maximized="1" />
  <metadata
     id="metadata7">
    <rdf:RDF>
      <cc:Work
         rdf:about="">
        <dc:format>image/svg+xml</dc:format>
        <dc:type
           rdf:resource="http://purl.org/dc/dcmitype/StillImage" />
        <dc:title></dc:title>
      </cc:Work>
    </rdf:RDF>
  </metadata>
  <g
     inkscape:label="Ebene 1"
     inkscape:groupmode="layer"
     id="layer1"
     transform="translate(63.57143,-161.82121)">
    <image
       y="117.36218"
       x="-150"
       id="image2993"
       xlink:href="file:///D:/Downloads/25929236.jpg"
       height="830"
       width="1000"
       clip-path="url(#clipPath4330)"
       transform="translate(0,3.0304575)" />
    <flowRoot
       xml:space="preserve"
       id="flowRoot3004"
       style="font-size:56px;font-style:normal;font-variant:normal;font-weight:normal;font-stretch:normal;text-align:center;line-height:125%;letter-spacing:-1.02999997px;word-spacing:0px;writing-mode:lr-tb;text-anchor:middle;fill:#333333;fill-opacity:1;stroke:none;font-family:UnifrakturCook;-inkscape-font-specification:UnifrakturCook"
       transform="matrix(1.013662,0.12413221,-0.13795068,0.93802853,295.0947,171.97061)"
       clip-path="url(#clipPath4310)"><flowRegion
         id="flowRegion3006"><rect
           id="rect3008"
           width="239.40616"
           height="299.00516"
           x="103.03556"
           y="266.4635"
           style="font-size:56px;font-style:normal;font-variant:normal;font-weight:normal;font-stretch:normal;text-align:center;text-anchor:middle;fill:#333333;fill-opacity:1;font-family:UnifrakturCook;-inkscape-font-specification:UnifrakturCook" /></flowRegion><flowPara
         id="flowPara3010"
         style="font-size:56px;font-style:normal;font-variant:normal;font-weight:normal;font-stretch:normal;text-align:center;line-height:94.99999881%;letter-spacing:-1.91462541px;text-anchor:middle;fill:#333333;fill-opacity:1;font-family:UnifrakturCook;-inkscape-font-specification:UnifrakturCook">Your Local Trail</flowPara></flowRoot>    <g
       style="fill:#000000;stroke:none"
       id="g5009"
       transform="matrix(0.14988491,0.02055612,0.02145963,-0.14759345,-675.51716,709.02369)"
       clip-path="url(#clipPath4290)">
      <rect
         transform="matrix(0.99999867,0.00163134,0.00163134,-0.99999867,0,0)"
         ry="111.64196"
         y="-2047.6208"
         x="7062.3696"
         height="591.67975"
         width="583.37335"
         id="rect4988"
         style="fill:#fc5200;fill-opacity:1;fill-rule:nonzero;stroke:none"
         rx="113.15988" />
      <path
         id="path4641"
         d="m 7478.4658,1643.8638 37.3981,70.9463 -32.2381,1.6859 c -17.731,0.9273 -31.307,0.1911 -30.1686,-1.6362 2.7487,-4.414 -37.7938,-79.3283 -42.9313,-79.3283 -4.7349,0 -45.218,66.9325 -45.218,74.7602 0,3.2431 -11.9567,5.3857 -30.0547,5.3857 -16.5301,0 -30.0547,-1.577 -30.0547,-3.5046 0,-4.055 94.2121,-176.1128 101.7333,-185.7931 5.5483,-7.1413 7.7203,-3.5739 71.534,117.4841 z"
         style="fill:#feba99;fill-opacity:1;stroke:none"
         inkscape:connector-curvature="0" />
      <path
         id="path4635"
         d="m 7272.6392,1780.796 c 16.4625,32.8249 30.6283,55.1003 35.0401,55.1003 4.5207,0 17.4768,-21.4689 33.2518,-55.1003 l 25.8451,-55.1004 36.8346,0 c 20.2587,0 36.8339,0.8455 36.8339,1.8787 0,1.0332 -29.9057,62.6528 -66.4566,136.9324 l -66.4566,135.0536 -67.4453,-131.6472 c -37.095,-72.406 -68.238,-134.0256 -69.2072,-136.9324 -1.1321,-3.3972 11.7921,-5.2851 36.1821,-5.2851 l 37.9441,0 27.634,55.1004 z"
         style="fill:#ffffff;fill-opacity:1;stroke:none"
         inkscape:connector-curvature="0" />
    </g>
  </g>
</svg>
